<svg width="140" height="140" viewBox="0 0 140 140" fill="none" xmlns="http://www.w3.org/2000/svg">
<path fill-rule="evenodd" clip-rule="evenodd" d="M87.7446 116.64C69.9984 116.64 55.6122 103.201 55.6122 86.6219C55.6122 70.0432 69.9984 56.6035 87.7446 56.6035C105.491 56.6035 119.877 70.0432 119.877 86.6219C119.877 94.0299 117.005 100.811 112.243 106.047L117.715 111.518C119.605 113.408 118.266 116.639 115.593 116.639H88.5896L88.5973 116.63C88.3139 116.637 88.0297 116.64 87.7446 116.64Z" fill="url(#paint0_linear_246_641)"/>
<path fill-rule="evenodd" clip-rule="evenodd" d="M80.0508 81.125C80.0508 79.6753 81.226 78.5 82.6758 78.5L100.433 78.5C101.883 78.5 103.058 79.6753 103.058 81.125C103.058 82.5747 101.883 83.75 100.433 83.75L82.6758 83.75C81.226 83.75 80.0508 82.5747 80.0508 81.125Z" fill="#516576"/>
<path fill-rule="evenodd" clip-rule="evenodd" d="M74.1309 93.1426C74.1309 91.6928 75.3061 90.5176 76.7559 90.5176H94.6518C96.1015 90.5176 97.2768 91.6928 97.2768 93.1426C97.2768 94.5923 96.1015 95.7676 94.6518 95.7676H76.7559C75.3061 95.7676 74.1309 94.5923 74.1309 93.1426Z" fill="#8192A0"/>
<path d="M51.3824 83.6618C69.1286 83.6618 83.5147 70.2221 83.5147 53.6434C83.5147 37.0647 69.1286 23.625 51.3824 23.625C33.6362 23.625 19.25 37.0647 19.25 53.6434C19.25 61.0509 22.122 67.8317 26.8825 73.0671L21.4104 78.5392C19.5205 80.4291 20.859 83.6606 23.5317 83.6606H50.5354L50.5277 83.6514C50.8117 83.6583 51.0966 83.6618 51.3824 83.6618Z" fill="url(#paint1_linear_246_641)"/>
<path d="M54.005 57.3264C54.005 58.7748 52.8309 59.9489 51.3825 59.9489C49.9341 59.9489 48.7599 58.7748 48.7599 57.3264V57.1511C48.7599 55.928 48.8992 55.0259 49.1777 54.445C49.4871 53.8334 50.137 53.0384 51.1272 52.0599L54.5156 48.7117C55.2273 47.9472 55.5832 46.9993 55.5832 45.8679C55.5832 44.7366 55.2118 43.804 54.4692 43.0701C53.7265 42.3056 52.7672 41.9234 51.5913 41.9234C50.4155 41.9234 49.4252 42.2904 48.6207 43.0242C48.4421 43.1866 48.2808 43.362 48.1368 43.5505C47.2728 44.6814 46.1932 45.8679 44.77 45.8679C43.1114 45.8679 41.774 44.391 42.4061 42.8576C42.9556 41.5245 43.7739 40.4028 44.8609 39.4925C46.7176 37.933 49.023 37.1533 51.777 37.1533C54.5311 37.1533 56.7745 37.9025 58.5074 39.4008C60.2403 40.8685 61.1067 42.9325 61.1067 45.5927C61.1067 47.4274 60.5962 48.9563 59.575 50.1794C58.9871 50.9132 58.5384 51.4331 58.2289 51.7388C57.9195 52.0446 57.5017 52.4421 56.9757 52.9314C56.4806 53.39 56.0473 53.8028 55.676 54.1698C55.3356 54.5061 55.0571 54.7966 54.8405 55.0412C54.2835 55.7139 54.005 55.928 54.005 57.1511V57.3264ZM51.4521 70.1313C50.4928 70.1313 49.6573 69.8102 48.9456 69.1681C48.2339 68.4954 47.878 67.7004 47.878 66.783C47.878 65.8351 48.2184 65.0248 48.8992 64.3521C49.6109 63.6794 50.4464 63.343 51.4057 63.343C52.3959 63.343 53.2469 63.6794 53.9586 64.3521C54.6703 64.9942 55.0262 65.7893 55.0262 66.7372C55.0262 67.6545 54.6703 68.4495 53.9586 69.1222C53.2778 69.7949 52.4423 70.1313 51.4521 70.1313Z" fill="white"/>
<defs>
<linearGradient id="paint0_linear_246_641" x1="69.127" y1="67.811" x2="119.877" y2="116.374" gradientUnits="userSpaceOnUse">
<stop stop-color="#E3EDF6"/>
<stop offset="1" stop-color="#D5E2F1"/>
</linearGradient>
<linearGradient id="paint1_linear_246_641" x1="51.3824" y1="23.625" x2="51.3824" y2="83.6618" gradientUnits="userSpaceOnUse">
<stop stop-color="#53C4E6"/>
<stop offset="1" stop-color="#0AB4E2"/>
</linearGradient>
</defs>
</svg>
