<svg width="24" height="24" viewBox="0 0 24 24" fill="none" xmlns="http://www.w3.org/2000/svg">
<path opacity="0.3" fill-rule="evenodd" clip-rule="evenodd" d="M3.97426 2.00016C3.98283 2.00005 3.99141 2 4 2H20.01C21.11 2 22 2.9 22 4L21.9975 7.9975L22 8V20C22 21.0312 21.209 21.8867 20.2037 21.9896C20.1367 21.9965 20.0688 22 20 22H3.99C2.89 22 2 21.1 2 20L2.0025 16.0025L2 16V4C2 2.90859 2.886 2.01407 3.97426 2.00016Z" fill="#2C99FF"/>
<path fill-rule="evenodd" clip-rule="evenodd" d="M12 2H9V4H12V6H9V8H12V10H9V12H12V14H15V12H12V10H15V8H12V6H15V4H12V2Z" fill="#2C99FF"/>
</svg>
