<svg width="26" height="26" viewBox="0 0 26 26" fill="none" xmlns="http://www.w3.org/2000/svg">
<g clip-path="url(#clip0_705_30476)">
<path d="M17.9964 12.941L10.3464 20.591C10.1591 20.7773 9.90561 20.8818 9.64142 20.8818C9.37724 20.8818 9.12379 20.7773 8.93642 20.591C8.84269 20.4981 8.7683 20.3875 8.71753 20.2656C8.66676 20.1438 8.64063 20.0131 8.64063 19.881C8.64063 19.749 8.66676 19.6183 8.71753 19.4965C8.7683 19.3746 8.8427 19.264 8.93642 19.171L15.1664 12.941L8.93643 6.71104C8.8427 6.61808 8.7683 6.50748 8.71753 6.38562C8.66677 6.26376 8.64063 6.13306 8.64063 6.00105C8.64063 5.86903 8.66677 5.73833 8.71753 5.61647C8.7683 5.49461 8.8427 5.38401 8.93643 5.29104C9.12379 5.10479 9.37724 5.00025 9.64143 5.00025C9.90561 5.00025 10.1591 5.10479 10.3464 5.29104L17.9964 12.941Z" fill="#212121"/>
</g>
<defs>
<clipPath id="clip0_705_30476">
<rect width="26" height="26" fill="white"/>
</clipPath>
</defs>
</svg>
