<svg width="344" height="223" viewBox="0 0 344 223" fill="none" xmlns="http://www.w3.org/2000/svg">
<path d="M237.602 45H99.1764C96.749 45 94.7812 46.9564 94.7812 49.3697V136.933C94.7812 139.347 96.749 141.303 99.1764 141.303H237.602C240.029 141.303 241.997 139.347 241.997 136.933V49.3697C241.997 46.9564 240.029 45 237.602 45Z" fill="#CCD9E9"/>
<path d="M236.686 50.3936H100.092V135.909H236.686V50.3936Z" fill="#E7F3FF"/>
<g style="mix-blend-mode:overlay" opacity="0.1">
<path d="M100.092 50.3936V135.909H236.686L100.092 50.3936Z" fill="white"/>
</g>
<path d="M242.924 143.078L263.423 171.355H73L93.2247 143.453C93.7314 142.767 94.398 142.212 95.1675 141.838C95.937 141.463 96.7863 141.279 97.6428 141.303H239.17C239.887 141.313 240.594 141.477 241.242 141.783C241.89 142.09 242.463 142.531 242.924 143.078Z" fill="#E9F3FF"/>
<path d="M263.412 171.355H73V173.432C73 175.641 74.7909 177.432 77 177.432H259.412C261.621 177.432 263.412 175.641 263.412 173.432V171.355Z" fill="#CCD9E9"/>
<path d="M99.6467 144.318H236.172L247.732 160.522H88.6816L99.6467 144.318Z" fill="#CCD9E9"/>
<path d="M154.127 161.809H182.032L187.103 168.921H149.309L154.127 161.809Z" fill="#CCD9E9"/>
<path fill-rule="evenodd" clip-rule="evenodd" d="M273.688 103.597L246.062 92.4924C244.421 91.8359 242.592 91.8359 240.951 92.4924L213.313 103.597C210.703 104.647 208.994 107.188 209 110.009V143.235C209 167.17 243.5 181 243.5 181C243.5 181 278 167.17 278 143.235V109.997C278 107.179 276.293 104.646 273.688 103.597Z" fill="#007DF1"/>
<path fill-rule="evenodd" clip-rule="evenodd" d="M240.944 92.5126L213.313 103.615C210.703 104.665 208.994 107.205 209 110.026V143.244C209 167.174 243.5 181 243.5 181V92C242.622 92.0037 241.755 92.1777 240.944 92.5126Z" fill="#2C99FF"/>
<path d="M258.93 127.449C259.935 127.449 260.75 128.27 260.75 129.284V153.522C260.75 154.535 259.935 155.356 258.93 155.356H228.07C227.065 155.356 226.25 154.535 226.25 153.522V129.284C226.25 128.27 227.065 127.449 228.07 127.449H258.93Z" fill="white"/>
<path d="M243.5 110.102C237.287 110.102 232.25 115.099 232.25 121.264V134.237H237.115V121.264C237.115 117.765 239.974 114.929 243.5 114.929C247.026 114.929 249.885 117.765 249.885 121.264V134.237H254.75V121.264C254.75 115.099 249.713 110.102 243.5 110.102Z" fill="white"/>
<path d="M232.384 147.059H234.838L237.972 136.5H235.892L234.561 141.644C234.242 142.813 234.02 143.867 233.687 145.05H233.618C233.299 143.867 233.077 142.813 232.758 141.644L231.399 136.5H229.25L232.384 147.059ZM239.153 147.059H241.205V143.312H242.578C244.783 143.312 246.544 142.229 246.544 139.82C246.544 137.327 244.796 136.5 242.522 136.5H239.153V147.059ZM241.205 141.644V138.182H242.37C243.784 138.182 244.533 138.595 244.533 139.82C244.533 141.032 243.854 141.644 242.439 141.644H241.205ZM248.402 147.059H250.343V142.827C250.343 141.616 250.19 140.291 250.093 139.151H250.163L251.203 141.416L254.17 147.059H256.25V136.5H254.309V140.718C254.309 141.915 254.475 143.312 254.572 144.409H254.503L253.477 142.129L250.495 136.5H248.402V147.059Z" fill="#007DF1"/>
<path d="M146.091 88.4864H143.303C143.835 85.6353 143.445 82.6849 142.191 80.0795C140.936 77.4742 138.885 75.355 136.346 74.0411C133.807 72.7274 130.919 72.2901 128.115 72.7951C125.311 73.3002 122.745 74.7204 120.802 76.8416C118.887 72.0788 115.3 68.2148 110.739 66.0044C106.18 63.794 100.976 63.3962 96.1435 64.8885C91.3115 66.3809 87.1988 69.6563 84.609 74.0747C82.0191 78.4931 81.1383 83.7372 82.1384 88.7824H79.7756C77.9582 88.7909 76.1601 89.1642 74.4843 89.881C72.8084 90.5978 71.2875 91.6444 70.0083 92.9613C68.7291 94.2773 67.7168 95.8376 67.029 97.5525C66.3413 99.2674 65.9917 101.103 66.0001 102.957C66.0086 104.809 66.3748 106.642 67.0781 108.351C67.7814 110.059 68.8079 111.609 70.099 112.913C71.3901 114.218 72.9204 115.25 74.6027 115.951C76.2851 116.652 78.0864 117.008 79.9039 117L146.222 116.694C149.893 116.676 153.406 115.174 155.99 112.516C158.574 109.858 160.016 106.263 160 102.521C159.983 98.7796 158.509 95.1972 155.902 92.5633C153.295 89.9295 149.768 88.4592 146.098 88.4761L146.091 88.4864Z" fill="#485F74"/>
<path d="M102.548 100.581H97.6755V99.4325H102.548V100.581ZM102.548 98.0325H97.6755V96.8006H95.8415V102.051H104.382V96.8006H102.548V98.0325ZM97.1575 94.4625C96.2195 94.4625 95.5335 93.8885 95.5335 92.9225C95.5335 91.9565 96.2195 91.3826 97.1575 91.3826C98.1095 91.3826 98.7955 91.9565 98.7955 92.9225C98.7955 93.8885 98.1095 94.4625 97.1575 94.4625ZM102.534 89.3105V92.1525H100.476C100.112 90.7805 98.7955 89.8426 97.1575 89.8426C95.2255 89.8426 93.7695 91.1305 93.7695 92.9225C93.7695 94.7145 95.2255 96.0025 97.1575 96.0025C98.8235 96.0025 100.14 95.0506 100.49 93.6506H102.534V96.2405H104.382V89.3105H102.534ZM114.951 93.6926H109.645V91.3966H114.951V93.6926ZM116.757 89.9406H107.825V95.1486H116.757V89.9406ZM118.157 96.5205H106.481V97.9905H111.353V102.205H113.201V97.9905H118.157V96.5205ZM124.064 94.5605H121.544V91.6906H124.064V94.5605ZM125.884 90.2346H119.738V96.0165H125.884V90.2346ZM125.296 100.777C123.658 100.777 122.762 100.427 122.762 99.6705C122.762 98.9285 123.658 98.5646 125.296 98.5646C126.934 98.5646 127.816 98.9285 127.816 99.6705C127.816 100.427 126.934 100.777 125.296 100.777ZM125.296 97.1226C122.622 97.1226 120.928 98.0745 120.928 99.6705C120.928 101.281 122.622 102.219 125.296 102.219C127.956 102.219 129.65 101.281 129.65 99.6705C129.65 98.0745 127.956 97.1226 125.296 97.1226ZM129.51 92.1945V89.3105H127.662V96.7866H129.51V93.7206H131.218V92.1945H129.51Z" fill="#B9C8D5"/>
</svg>
