<svg width="180" height="180" viewBox="0 0 180 180" fill="none" xmlns="http://www.w3.org/2000/svg">
<circle cx="90" cy="90" r="90" fill="#E9F3FF"/>
<path d="M58.029 60.1078L89.529 49.3324C90.1584 49.1171 90.8416 49.1171 91.471 49.3324L122.971 60.1078C124.185 60.5229 125 61.6637 125 62.9463V85.7936C125 100.621 118.466 122.298 92.0748 132.792C91.7298 132.929 91.355 133 90.9838 133H90.0162C89.645 133 89.2702 132.929 88.9252 132.792C62.534 122.298 56 100.621 56 85.7936V62.9463C56 61.6637 56.8154 60.5229 58.029 60.1078Z" fill="#007DF1"/>
<path fill-rule="evenodd" clip-rule="evenodd" d="M90.5 49.1709C90.1719 49.1709 89.8437 49.2247 89.529 49.3324L58.029 60.1078C56.8154 60.5229 56 61.6637 56 62.9463V85.7936C56 100.621 62.534 122.298 88.9252 132.792C89.2702 132.929 89.645 133 90.0162 133H90.5V49.1709Z" fill="#2C99FF"/>
<path fill-rule="evenodd" clip-rule="evenodd" d="M100.237 79.3247L87.3578 92.4288C86.8056 92.9907 85.9116 92.9907 85.3601 92.4288L79.7596 86.7311C79.2081 86.1692 78.3134 86.1692 77.7619 86.7311L75.9605 88.5632C75.409 89.1251 75.409 90.0347 75.9605 90.5966L85.3601 100.16C85.9116 100.721 86.8056 100.721 87.3578 100.16L104.036 83.1895C104.588 82.6291 104.588 81.7188 104.036 81.1569L102.234 79.3247C101.683 78.7629 100.789 78.7629 100.237 79.3247" fill="white"/>
</svg>
