<svg width="180" height="180" viewBox="0 0 180 180" fill="none" xmlns="http://www.w3.org/2000/svg">
<circle cx="90" cy="90" r="90" fill="#E9F3FF"/>
<path d="M130.999 96.3155V83.6837C131 83.2719 130.849 82.8744 130.575 82.5666C130.302 82.2588 129.924 82.0623 129.515 82.0145L124.42 81.419C123.427 81.3024 122.483 80.9222 121.687 80.318C120.89 79.7138 120.27 78.9076 119.89 77.9828C119.802 77.7681 119.724 77.5631 119.636 77.3581C119.248 76.4364 119.114 75.4271 119.25 74.4361C119.386 73.445 119.786 72.5088 120.408 71.7255L123.58 67.7036C123.838 67.3807 123.967 66.9741 123.944 66.5617C123.92 66.1492 123.746 65.7599 123.453 65.4682L114.531 56.5459C114.239 56.2534 113.85 56.0788 113.438 56.0554C113.025 56.032 112.619 56.1614 112.296 56.419L108.274 59.5916C107.49 60.2137 106.554 60.6136 105.563 60.7492C104.572 60.8849 103.563 60.7514 102.641 60.3628L102.016 60.1089C101.092 59.7291 100.285 59.1088 99.6812 58.3124C99.077 57.5159 98.6969 56.5723 98.5803 55.5795L97.9848 50.4838C97.9369 50.0748 97.7404 49.6977 97.4326 49.4241C97.1249 49.1505 96.7273 48.9996 96.3155 49H83.6837C83.2719 48.9996 82.8744 49.1505 82.5666 49.4241C82.2588 49.6977 82.0623 50.0748 82.0145 50.4838L81.419 55.5795C81.3024 56.5723 80.9222 57.5159 80.318 58.3124C79.7138 59.1088 78.9076 59.7291 77.9828 60.1089L77.3581 60.3628C76.4364 60.7514 75.4271 60.8849 74.4361 60.7492C73.445 60.6136 72.5088 60.2137 71.7255 59.5916L67.7036 56.419C67.3807 56.1614 66.9741 56.032 66.5617 56.0554C66.1492 56.0788 65.7599 56.2534 65.4682 56.5459L56.5459 65.4682C56.2534 65.7599 56.0788 66.1492 56.0554 66.5617C56.032 66.9741 56.1614 67.3807 56.419 67.7036L59.5916 71.7255C60.2137 72.5088 60.6136 73.445 60.7492 74.4361C60.8849 75.4271 60.7514 76.4364 60.3628 77.3581C60.2749 77.5631 60.1968 77.7681 60.1089 77.9828C59.7291 78.9076 59.1088 79.7138 58.3124 80.318C57.5159 80.9222 56.5723 81.3024 55.5795 81.419L50.4838 82.0145C50.0748 82.0623 49.6977 82.2588 49.4241 82.5666C49.1505 82.8744 48.9996 83.2719 49 83.6837V96.3155C48.9996 96.7273 49.1505 97.1249 49.4241 97.4326C49.6977 97.7404 50.0748 97.9369 50.4838 97.9848L55.5795 98.5803C56.5723 98.6969 57.5159 99.077 58.3124 99.6812C59.1088 100.285 59.7291 101.092 60.1089 102.016C60.1968 102.231 60.2749 102.436 60.3628 102.641C60.7514 103.563 60.8849 104.572 60.7492 105.563C60.6136 106.554 60.2137 107.49 59.5916 108.274L56.419 112.296C56.1614 112.619 56.032 113.025 56.0554 113.438C56.0788 113.85 56.2534 114.239 56.5459 114.531L65.4682 123.453C65.7599 123.746 66.1492 123.92 66.5617 123.944C66.9741 123.967 67.3807 123.838 67.7036 123.58L71.7255 120.408C72.5088 119.786 73.445 119.386 74.4361 119.25C75.4271 119.114 76.4364 119.248 77.3581 119.636L77.9828 119.89C78.9076 120.27 79.7138 120.89 80.318 121.687C80.9222 122.483 81.3024 123.427 81.419 124.42L82.0145 129.515C82.0623 129.924 82.2588 130.302 82.5666 130.575C82.8744 130.849 83.2719 131 83.6837 130.999H96.3155C96.7273 131 97.1249 130.849 97.4326 130.575C97.7404 130.302 97.9369 129.924 97.9848 129.515L98.5803 124.42C98.6969 123.427 99.077 122.483 99.6812 121.687C100.285 120.89 101.092 120.27 102.016 119.89L102.641 119.636C103.563 119.248 104.572 119.114 105.563 119.25C106.554 119.386 107.49 119.786 108.274 120.408L112.296 123.58C112.619 123.838 113.025 123.967 113.438 123.944C113.85 123.92 114.239 123.746 114.531 123.453L123.453 114.531C123.746 114.239 123.92 113.85 123.944 113.438C123.967 113.025 123.838 112.619 123.58 112.296L120.408 108.274C119.794 107.496 119.4 106.568 119.264 105.587C119.129 104.605 119.257 103.605 119.636 102.69C119.724 102.485 119.802 102.28 119.89 102.065C120.27 101.14 120.89 100.334 121.687 99.73C122.483 99.1258 123.427 98.7457 124.42 98.6291L129.515 98.0336C129.933 97.9849 130.317 97.7814 130.592 97.4633C130.866 97.1452 131.012 96.7356 130.999 96.3155ZM89.9996 103.666C87.2966 103.666 84.6543 102.865 82.4069 101.363C80.1594 99.8612 78.4078 97.7268 77.3734 95.2296C76.339 92.7323 76.0684 89.9845 76.5957 87.3334C77.123 84.6824 78.4246 82.2472 80.3359 80.3359C82.2472 78.4246 84.6824 77.123 87.3334 76.5957C89.9845 76.0684 92.7323 76.339 95.2296 77.3734C97.7268 78.4078 99.8612 80.1594 101.363 82.4069C102.865 84.6543 103.666 87.2966 103.666 89.9996C103.666 93.6242 102.226 97.1003 99.6633 99.6633C97.1003 102.226 93.6242 103.666 89.9996 103.666Z" fill="#2C99FF"/>
<path fill-rule="evenodd" clip-rule="evenodd" d="M90 111C101.598 111 111 101.598 111 90C111 78.402 101.598 69 90 69C78.402 69 69 78.402 69 90C69 101.598 78.402 111 90 111ZM90 103C97.1797 103 103 97.1797 103 90C103 82.8203 97.1797 77 90 77C82.8203 77 77 82.8203 77 90C77 97.1797 82.8203 103 90 103Z" fill="#007DF1"/>
</svg>
