<svg width="220" height="220" viewBox="0 0 220 220" fill="none" xmlns="http://www.w3.org/2000/svg">
<rect width="220" height="220" rx="10" fill="#F8F8F8"/>
<path d="M123.776 157.396L103.683 145.91C102.653 145.338 101.825 144.466 101.308 143.411C100.792 142.356 100.613 141.169 100.796 140.01L105.502 108.425L93.9536 115.029L74.8994 155.041C74.3009 156.304 74.2033 157.744 74.6261 159.075C75.049 160.405 75.961 161.528 77.1802 162.22L95.3971 172.685C97.3848 173.829 99.6402 174.43 101.936 174.43C104.232 174.43 106.488 173.829 108.475 172.685L123.776 163.899C124.36 163.577 124.846 163.106 125.185 162.534C125.523 161.963 125.702 161.311 125.702 160.647C125.702 159.984 125.523 159.332 125.185 158.761C124.846 158.189 124.36 157.718 123.776 157.396Z" fill="#C4C8D8"/>
<path d="M123.646 161.774L108.345 170.56C106.358 171.703 104.102 172.305 101.806 172.305C99.5103 172.305 97.2549 171.703 95.2672 170.56L78.3783 160.87C77.4747 160.352 76.7986 159.517 76.4833 158.528C76.1681 157.54 76.2364 156.47 76.675 155.529L96.3643 114.268L107.912 107.664L103.206 139.249C103.024 140.408 103.203 141.594 103.719 142.649C104.235 143.704 105.064 144.577 106.093 145.149L123.762 155.285C124.336 155.618 124.811 156.097 125.137 156.674C125.463 157.25 125.629 157.902 125.617 158.563C125.605 159.224 125.417 159.87 125.07 160.435C124.724 160.999 124.232 161.462 123.646 161.774Z" fill="#E7E7F0"/>
<path d="M141.055 101.677L139.019 34.7469L140.593 32.4068L137.706 31.1434C137.341 31.0224 136.954 30.9867 136.573 31.039C136.193 31.0913 135.829 31.2302 135.512 31.4449L50.071 80.5302C49.1075 81.1548 48.3128 82.005 47.7566 83.0062C47.2004 84.0074 46.8997 85.1291 46.8809 86.2728L48.9595 154.553V156.419C48.8954 157.078 49.037 157.74 49.3651 158.315C49.6931 158.891 50.1917 159.352 50.7927 159.635L53.5643 160.884L55.3109 158.3L136.565 111.627C137.925 110.742 139.047 109.541 139.834 108.127C140.622 106.714 141.05 105.131 141.083 103.515L141.055 101.677Z" fill="url(#paint0_linear_633_2038)"/>
<path d="M49.7539 87.5508L51.8903 157.712C51.9913 160.712 54.1566 161.932 56.7404 160.454L139.453 112.948C140.812 112.06 141.932 110.856 142.717 109.44C143.502 108.024 143.927 106.438 143.957 104.822V102.955L51.8325 155.845L49.7539 87.5508Z" fill="#D3D3E3"/>
<path d="M138.428 32.6653L52.9585 81.808C51.9967 82.4355 51.2025 83.286 50.6443 84.2863C50.0861 85.2866 49.7805 86.4069 49.7539 87.5506L51.8325 155.845L143.928 103.013L141.849 34.6752C141.849 32.5504 140.261 31.6747 138.428 32.7227V32.6653Z" fill="#494855"/>
<path d="M139.871 34.4741L51.6729 85.1242L53.636 149.801L141.834 99.1507L139.871 34.4741Z" fill="#9CCFFF"/>
<path d="M141.718 95.2886L53.5205 145.939L53.636 149.801L141.834 99.1505L141.718 95.2886Z" fill="#81BEF7"/>
<path d="M123.646 161.774L108.345 170.561C106.357 171.704 104.102 172.305 101.806 172.305C99.5099 172.305 97.2545 171.704 95.2668 170.561L78.3779 160.87L105.978 145.192L123.646 155.328C124.216 155.654 124.689 156.124 125.018 156.69C125.347 157.255 125.52 157.898 125.52 158.551C125.52 159.205 125.347 159.847 125.018 160.413C124.689 160.979 124.216 161.448 123.646 161.774Z" fill="#EFF0F5"/>
<path d="M124.353 59.0815L71.8389 89.2448L73.0081 127.764L125.537 97.6003L124.353 59.0815Z" fill="#EFF0F5"/>
<path d="M124.353 59.0815L71.8389 89.2448L72.041 95.7627L124.599 65.5851L124.353 59.0815Z" fill="#D9DBE6"/>
<path d="M77.1074 88.8857L73.8018 90.7808L73.8884 93.2071L77.1795 91.312L77.1074 88.8857Z" fill="#FC797E"/>
<path d="M61.0415 100.414L58.4288 101.85C58.2411 101.95 58.0823 101.85 58.0246 101.735V101.62C58.0246 101.448 57.7936 101.419 57.606 101.52L55.2098 103.013C55 103.153 54.8547 103.369 54.8056 103.616L54.7046 104.061C54.6974 104.108 54.6974 104.157 54.7046 104.204V108.755C54.7046 108.971 54.8489 109.043 55.0221 108.942L61.157 105.425C61.2519 105.363 61.3313 105.28 61.3889 105.183C61.4465 105.086 61.4807 104.977 61.489 104.865V100.701C61.5034 100.385 61.2725 100.285 61.0415 100.414Z" fill="#FFE568"/>
<path d="M61.1429 100.787L55.008 104.319C54.916 104.379 54.8395 104.46 54.7843 104.554C54.7292 104.649 54.6971 104.755 54.6904 104.865V108.755C54.6904 108.97 54.8348 109.042 55.008 108.942L61.1429 105.424C61.2378 105.363 61.3172 105.28 61.3748 105.183C61.4324 105.086 61.4666 104.977 61.4749 104.865V100.974C61.5037 100.773 61.3305 100.687 61.1429 100.787Z" fill="#FFEC8B"/>
<path d="M61.0416 90.0916L58.4289 91.5272C58.2412 91.6277 58.0824 91.5272 58.0247 91.4267V91.2975C58.0247 91.1396 57.7937 91.0965 57.6061 91.197L55.2532 92.5465C55.0434 92.6863 54.898 92.9032 54.849 93.1495L54.7479 93.5946C54.7416 93.6422 54.7416 93.6905 54.7479 93.7381V98.3323C54.7479 98.5333 54.8923 98.6194 55.0655 98.5189L61.2004 94.9872C61.2966 94.9305 61.3773 94.851 61.4353 94.7559C61.4932 94.6607 61.5265 94.5527 61.5324 94.4416V90.2782C61.5035 90.0916 61.2725 89.9336 61.0416 90.0916Z" fill="#FFE568"/>
<path d="M61.1429 90.4505L55.008 93.9678C54.9157 94.031 54.8392 94.1142 54.7841 94.2113C54.7291 94.3083 54.697 94.4165 54.6904 94.5277V98.3753C54.6904 98.5763 54.8348 98.6625 55.008 98.562L61.1429 95.0302C61.2391 94.9736 61.3198 94.8941 61.3778 94.7989C61.4357 94.7037 61.469 94.5958 61.4749 94.4847V90.6371C61.5037 90.4218 61.3305 90.35 61.1429 90.4505Z" fill="#FFEC8B"/>
<path d="M134.992 43.935L132.394 45.3707C132.206 45.4855 132.033 45.4425 131.975 45.2702V45.1553C131.975 44.983 131.759 44.9543 131.571 45.0548L129.218 46.4044C129.009 46.5478 128.86 46.7622 128.8 47.0073L128.713 47.4524C128.706 47.5 128.706 47.5483 128.713 47.5959V52.1757C128.713 52.3911 128.857 52.4628 129.045 52.3623L135.122 48.9024C135.214 48.8385 135.29 48.7551 135.345 48.6582C135.4 48.5613 135.432 48.4535 135.44 48.3425V44.1504C135.425 43.9063 135.238 43.8058 134.992 43.935Z" fill="#FFE568"/>
<path d="M135.122 44.3085L128.987 47.8403C128.891 47.8969 128.81 47.9764 128.752 48.0716C128.694 48.1667 128.661 48.2747 128.655 48.3858V52.2334C128.655 52.4487 128.8 52.5205 128.987 52.42L135.122 48.9026C135.214 48.8387 135.29 48.7553 135.345 48.6584C135.4 48.5616 135.432 48.4537 135.44 48.3427V44.4952C135.425 44.2942 135.281 44.1506 135.122 44.3085Z" fill="#FFEC8B"/>
<g style="mix-blend-mode:screen">
<path d="M72.835 143.785L107.811 123.701L117.194 44.9258L82.2177 65.0107L72.835 143.785Z" fill="#323333"/>
</g>
<path d="M166.634 82.5504C164.568 81.4296 162.156 81.1296 159.878 81.7101C158.102 82.1191 156.4 82.8049 154.837 83.7426C153.102 84.7706 151.487 85.9894 150.022 87.3761L157.494 91.6795C158.967 90.2952 160.594 89.0837 162.342 88.0688C163.901 87.1295 165.599 86.4434 167.372 86.0363C169.666 85.4361 172.102 85.7326 174.185 86.8652L166.634 82.5504Z" fill="#007DF1"/>
<path d="M144.629 78.3035C142.24 77.0071 139.449 76.6623 136.817 77.3383C134.762 77.8056 132.795 78.5992 130.992 79.6888C127.433 81.8341 124.291 84.6036 121.715 87.8642C116.623 94.0469 113.327 101.51 112.188 109.438C110.49 109.853 108.864 110.519 107.363 111.414C104.32 113.28 101.63 115.667 99.4143 118.465C94.3501 124.676 90.955 132.92 91.0005 140.096C91.0005 145.319 92.8853 148.986 95.8716 150.701L103.298 154.982C100.323 153.256 98.4605 149.588 98.4264 144.376C98.4264 137.2 101.833 128.945 106.852 122.746C109.061 119.942 111.753 117.554 114.8 115.695C116.301 114.797 117.928 114.127 119.626 113.707C120.757 105.777 124.053 98.3119 129.152 92.1335C131.73 88.8792 134.868 86.1107 138.418 83.9581C140.225 82.8751 142.19 82.082 144.243 81.6077C146.876 80.9418 149.663 81.2862 152.055 82.5729L144.629 78.3035Z" fill="#007DF1"/>
<path d="M138.498 83.9924C148.081 78.4172 156.075 81.9145 157.528 91.6908C158.99 90.3046 160.605 89.0894 162.342 88.0687C171.426 82.7547 178.932 86.9332 179 97.4817C179.068 108.03 171.71 120.838 162.581 126.152L115.084 153.778C106 159.092 98.4836 154.914 98.4155 144.377C98.3474 133.839 105.705 121.009 114.846 115.695C116.347 114.797 117.973 114.128 119.671 113.708C120.989 102.307 128.88 89.5789 138.498 83.9924Z" fill="#2C99FF"/>
<g clip-path="url(#clip0_633_2038)">
<path d="M126.7 130.12V128.39L128.94 127.1V134.44L118.55 140.44V133.1L120.78 131.81V133.54L126.7 130.12ZM126.7 133.67V132.07L120.78 135.5V137.09L126.71 133.67" fill="white"/>
<path d="M126.65 117.94L128.9 116.64V126.32L126.65 127.62V124L124.16 125.43C123.91 126.591 123.426 127.689 122.738 128.656C122.051 129.624 121.173 130.442 120.16 131.06C117.81 132.41 116.03 131.64 116.02 129.14C116.108 127.775 116.528 126.451 117.245 125.285C117.961 124.119 118.951 123.146 120.13 122.45C122.13 121.3 123.73 121.69 124.18 123.35L126.68 121.91L126.65 117.94ZM120.13 128.94C120.719 128.609 121.212 128.131 121.562 127.553C121.913 126.974 122.108 126.316 122.13 125.64C122.13 124.29 121.29 123.97 120.13 124.64C119.54 124.971 119.046 125.449 118.695 126.027C118.345 126.605 118.15 127.264 118.13 127.94C118.13 129.29 118.97 129.61 120.13 128.94Z" fill="white"/>
<path d="M143.95 108.83V116.11L133.09 122.38V115.1L143.95 108.83ZM141.77 115.34V112.13L135.31 115.86V119.06L141.77 115.34Z" fill="white"/>
<path d="M131.48 125.24L145.68 117.04V119.1L139.66 122.58L139.67 128.47L137.43 129.77L137.41 123.87L131.48 127.3V125.24Z" fill="white"/>
<path d="M154.37 112.87C157.6 111.01 159.66 111.14 159.67 113.37C159.68 115.6 157.62 118.12 154.39 119.99C151.16 121.86 149.09 121.78 149.09 119.5C149.09 117.22 151.09 114.78 154.37 112.87ZM154.37 117.98C156.37 116.83 157.43 115.72 157.43 114.66C157.43 113.6 156.35 113.73 154.36 114.88C152.37 116.03 151.28 117.17 151.28 118.21C151.28 119.25 152.38 119.13 154.37 117.98Z" fill="white"/>
<path d="M159.46 103.03L161.55 101.83V103.96L159.47 105.16L159.48 109.45L157.23 110.74L157.2 100.3L159.45 99L159.46 103.03Z" fill="white"/>
<path d="M155.09 102.83V110.91L147.61 115.23V107.15L155.09 102.83ZM152.9 110.16V106.16L149.84 107.93V111.93L152.91 110.16" fill="white"/>
</g>
<defs>
<linearGradient id="paint0_linear_633_2038" x1="55.1665" y1="162.162" x2="132.38" y2="27.6928" gradientUnits="userSpaceOnUse">
<stop offset="0.01" stop-color="#A0A6C0"/>
<stop offset="0.4" stop-color="#A2A8C2"/>
<stop offset="0.41" stop-color="#C5C8D9"/>
<stop offset="0.42" stop-color="#C9CCDC"/>
<stop offset="0.43" stop-color="#E7E7F0"/>
</linearGradient>
<clipPath id="clip0_633_2038">
<rect width="45.55" height="41.44" fill="white" transform="translate(116 99)"/>
</clipPath>
</defs>
</svg>
