<svg width="302" height="394" viewBox="0 0 302 394" fill="none" xmlns="http://www.w3.org/2000/svg">
<path d="M280.046 0H21.9546C9.82938 0 0 10.4394 0 23.317V370.676C0 383.554 9.82938 393.993 21.9546 393.993H280.046C292.171 393.993 302 383.554 302 370.676V23.317C302 10.4394 292.171 0 280.046 0Z" fill="white"/>
<path d="M114.736 341.327H108.794L110.171 334.866H131.601L130.224 341.327H124.281L120.539 358.916H110.989L114.736 341.327Z" fill="#004884"/>
<path d="M117.168 338.36H106L108.357 328H119.529L117.168 338.36Z" fill="#D61520"/>
<path d="M135.458 344.965H135.523C137.119 342.749 139.411 341.911 141.82 341.911C143.774 341.911 145.755 342.937 146.035 344.887C146.81 343.948 147.78 343.188 148.879 342.661C149.978 342.134 151.178 341.851 152.397 341.833C155.865 341.833 157.955 344.075 157.207 347.626L154.92 358.388H148.825L150.832 348.939C151.103 347.369 151.081 345.672 149.192 345.672C146.171 345.672 145.851 348.97 145.812 349.162L143.844 358.388H137.749L139.765 348.939C140.032 347.369 140.01 345.672 138.121 345.672C135.099 345.672 134.784 348.97 134.741 349.162L132.777 358.388H126.669L129.209 346.44C129.513 345.076 129.744 343.697 129.9 342.309H135.93L135.458 344.965Z" fill="#004884"/>
<path d="M163.472 353.223C163.704 352.102 164.531 351.522 165.532 351.081C166.45 350.645 167.657 350.732 168.938 350.732C168.479 352.874 167.731 355.339 165.099 355.339C164.838 355.347 164.579 355.293 164.342 355.182C164.106 355.07 163.9 354.904 163.741 354.698C163.582 354.491 163.475 354.249 163.428 353.993C163.381 353.736 163.397 353.472 163.472 353.223ZM173.372 358.384C173.434 357.277 173.554 356.175 173.73 355.081L175.479 346.819C176.315 343.203 172.664 341.829 169.389 341.829C167.426 341.772 165.472 342.096 163.634 342.784C161.841 343.526 160.372 344.834 159.926 347.116H165.668C165.842 346.152 166.629 344.708 168.116 344.642C170.582 344.546 169.817 346.601 169.515 348.006H167.596C162.349 348.006 158.413 349.615 157.5 353.515C156.73 356.813 158.282 358.855 162.108 358.855C163.195 358.876 164.273 358.648 165.259 358.189C166.244 357.73 167.111 357.052 167.792 356.207H167.858C167.659 356.918 167.546 357.65 167.521 358.388L173.372 358.384Z" fill="#004884"/>
<path d="M180.766 358.383H174.544L181.746 349.99L178.606 342.304H185.628L186.638 347.237L189.839 342.304H196L189.419 349.99L193.088 358.383H185.965L184.693 352.424L180.766 358.383Z" fill="#004884"/>
<rect x="10" y="300" width="282" height="1" fill="#EFEFEF"/>
<path d="M94 119H208L258 219H44L94 119Z" fill="url(#paint0_linear_650_1964)"/>
<path d="M184.044 75.9227V117.864C184.044 118.053 184.007 118.24 183.934 118.415C183.862 118.589 183.755 118.748 183.621 118.881C183.487 119.015 183.328 119.12 183.153 119.192C182.978 119.264 182.79 119.3 182.601 119.299H119.929C119.74 119.3 119.553 119.263 119.379 119.192C119.204 119.12 119.045 119.014 118.912 118.881C118.778 118.747 118.672 118.589 118.6 118.414C118.528 118.24 118.492 118.053 118.493 117.864V75.9227C118.492 75.7338 118.528 75.5465 118.6 75.3717C118.672 75.1969 118.778 75.0379 118.911 74.904C119.045 74.7701 119.203 74.6638 119.378 74.5913C119.553 74.5188 119.74 74.4814 119.929 74.4814H182.601C182.984 74.4814 183.351 74.6333 183.622 74.9036C183.892 75.1739 184.044 75.5405 184.044 75.9227Z" fill="#E7F3FF"/>
<path d="M184.044 117.864C184.043 118.246 183.89 118.612 183.62 118.882C183.35 119.152 182.983 119.304 182.601 119.306H119.929C119.547 119.304 119.181 119.152 118.911 118.882C118.64 118.612 118.488 118.246 118.486 117.864V75.9227C118.486 75.5404 118.638 75.1739 118.909 74.9036C119.18 74.6333 119.547 74.4814 119.929 74.4814H182.601C182.984 74.4814 183.351 74.6333 183.622 74.9036C183.892 75.1739 184.044 75.5404 184.044 75.9227V117.864ZM182.601 71H119.929C118.623 71.0017 117.37 71.521 116.446 72.4438C115.522 73.3666 115.002 74.6176 115 75.9227V117.864C115.002 119.169 115.522 120.421 116.446 121.343C117.37 122.266 118.623 122.785 119.929 122.787H182.601C183.908 122.785 185.161 122.266 186.085 121.343C187.009 120.421 187.529 119.169 187.531 117.864V75.9227C187.529 74.6176 187.009 73.3666 186.085 72.4438C185.161 71.521 183.908 71.0017 182.601 71Z" fill="#485F74"/>
<path d="M157.815 128.282H144.912L146.303 125.531L147.7 122.787H155.021L156.418 125.531L157.815 128.282Z" fill="#485F74"/>
<path d="M166.837 130.546H136.411V129.671C136.411 128.901 137.426 128.276 138.685 128.276H164.564C165.823 128.276 166.837 128.901 166.837 129.671V130.546Z" fill="#485F74"/>
<path d="M133.205 103.238C134.973 103.238 136.537 102.541 137.421 101.691V95.7748H132.712V98.2568H134.718V100.297C134.446 100.501 133.97 100.62 133.528 100.62C131.165 100.62 130.043 99.1578 130.043 96.6418C130.043 94.1768 131.386 92.7148 133.256 92.7148C134.31 92.7148 134.973 93.1398 135.602 93.7008L137.2 91.7628C136.333 90.8958 135.007 90.1138 133.154 90.1138C129.771 90.1138 126.932 92.5278 126.932 96.7438C126.932 101.028 129.703 103.238 133.205 103.238ZM139.978 103H143.021V98.8008H144.5C147.186 98.8008 149.498 97.4748 149.498 94.4658C149.498 91.3378 147.203 90.3348 144.432 90.3348H139.978V103ZM143.021 96.4038V92.7488H144.262C145.724 92.7488 146.54 93.1908 146.54 94.4658C146.54 95.7068 145.826 96.4038 144.347 96.4038H143.021ZM151.649 103H154.369V98.6648C154.369 97.4068 154.131 95.5198 153.978 94.2788H154.046L155.066 97.3048L156.783 101.929H158.449L160.149 97.3048L161.203 94.2788H161.288C161.118 95.5198 160.88 97.4068 160.88 98.6648V103H163.651V90.3348H160.353L158.415 95.8088C158.177 96.5398 157.973 97.3388 157.718 98.1038H157.633C157.395 97.3388 157.191 96.5398 156.936 95.8088L154.93 90.3348H151.649V103ZM170.484 103.238C173.544 103.238 175.312 101.385 175.312 99.2768C175.312 97.4918 174.377 96.4378 172.813 95.8088L171.232 95.1798C170.11 94.7378 169.328 94.4658 169.328 93.7518C169.328 93.0888 169.889 92.7148 170.824 92.7148C171.81 92.7148 172.592 93.0548 173.425 93.6838L174.938 91.7798C173.833 90.6748 172.286 90.1138 170.824 90.1138C168.138 90.1138 166.234 91.8138 166.234 93.9388C166.234 95.7748 167.475 96.8798 168.801 97.4068L170.416 98.0868C171.504 98.5458 172.201 98.7838 172.201 99.5148C172.201 100.195 171.674 100.62 170.552 100.62C169.549 100.62 168.376 100.093 167.492 99.3278L165.758 101.419C167.067 102.626 168.835 103.238 170.484 103.238Z" fill="#27394A"/>
<path d="M178.029 105.212L192.754 100.175C193.384 99.9599 194.067 99.9599 194.696 100.175L209.421 105.212C210.635 105.627 211.45 106.768 211.45 108.051V118.746C211.45 126.321 208.132 137.374 194.766 142.8C194.437 142.933 194.08 143 193.725 143C193.37 143 193.013 142.933 192.684 142.8C179.319 137.374 176 126.321 176 118.746V108.051C176 106.768 176.815 105.627 178.029 105.212Z" fill="#FF7B5E"/>
<path fill-rule="evenodd" clip-rule="evenodd" d="M201.231 115.272L192.764 123.735C192.401 124.098 191.813 124.098 191.451 123.735L187.769 120.055C187.407 119.693 186.819 119.693 186.456 120.055L185.272 121.239C184.909 121.602 184.909 122.189 185.272 122.552L191.451 128.728C191.813 129.091 192.401 129.091 192.764 128.728L203.728 117.768C204.091 117.406 204.091 116.818 203.728 116.455L202.543 115.272C202.181 114.909 201.593 114.909 201.231 115.272Z" fill="white"/>
<path d="M77.6026 202.125V229.96C77.6026 230.086 77.5779 230.21 77.5299 230.325C77.4819 230.441 77.4115 230.546 77.3229 230.634C77.2343 230.723 77.1291 230.793 77.0134 230.84C76.8977 230.888 76.7738 230.912 76.6488 230.911H35.2542C35.1294 230.912 35.0058 230.888 34.8904 230.84C34.775 230.793 34.6702 230.723 34.5819 230.634C34.4937 230.546 34.4239 230.441 34.3765 230.325C34.329 230.209 34.305 230.085 34.3057 229.96V202.125C34.3057 201.873 34.4054 201.63 34.5832 201.451C34.7609 201.272 35.0022 201.171 35.2542 201.169H76.6541C76.9066 201.171 77.1484 201.272 77.327 201.451C77.5055 201.63 77.6065 201.872 77.6078 202.125H77.6026Z" fill="#E7F3FF"/>
<path d="M77.6027 230.033C77.6014 230.286 77.5005 230.528 77.3219 230.707C77.1433 230.886 76.9015 230.987 76.649 230.988H35.2544C35.0018 230.987 34.76 230.886 34.5814 230.707C34.4029 230.528 34.302 230.286 34.3006 230.033V202.24C34.302 201.988 34.4031 201.746 34.5818 201.568C34.7605 201.39 35.0023 201.29 35.2544 201.29H76.6542C76.9063 201.29 77.1481 201.39 77.3268 201.568C77.5055 201.746 77.6066 201.988 77.608 202.24V230.033H77.6027ZM76.6542 199H35.2544C34.3917 199.001 33.5647 199.345 32.9547 199.957C32.3447 200.568 32.0014 201.397 32 202.261V230.054C32.0014 230.918 32.3447 231.747 32.9547 232.358C33.5647 232.97 34.3917 233.314 35.2544 233.315H76.6542C77.5173 233.315 78.3451 232.971 78.9554 232.36C79.5657 231.748 79.9086 230.918 79.9086 230.054V202.261C79.9072 201.397 79.5639 200.568 78.9538 199.957C78.3438 199.345 77.5169 199.001 76.6542 199Z" fill="#485F74"/>
<path d="M60.6494 237.305H51.1069L52.1392 235.307L53.1714 233.315H58.5849L59.6172 235.307L60.6494 237.305Z" fill="#485F74"/>
<path d="M66.2308 238.901H46.123V238.23C46.123 237.704 46.7991 237.305 47.6271 237.305H64.7268C65.56 237.305 66.2308 237.72 66.2308 238.23V238.907V238.901Z" fill="#485F74"/>
<path d="M100 199H84.1201C83.0155 199 82.1201 199.895 82.1201 201V236.901C82.1201 238.006 83.0155 238.901 84.1201 238.901H100C101.105 238.901 102 238.006 102 236.901V201C102 199.895 101.105 199 100 199Z" fill="#485F74"/>
<path d="M98.0243 206.98H86.0962V209.374H98.0243V206.98Z" fill="#5E758A"/>
<path d="M98.0243 211.769H86.0962V214.163H98.0243V211.769Z" fill="#5E758A"/>
<path d="M98.0243 216.557H86.0962V218.951H98.0243V216.557Z" fill="#5E758A"/>
<path d="M92.0598 230.123C93.1577 230.123 94.0478 229.23 94.0478 228.128C94.0478 227.026 93.1577 226.133 92.0598 226.133C90.9618 226.133 90.0718 227.026 90.0718 228.128C90.0718 229.23 90.9618 230.123 92.0598 230.123Z" fill="#87A3BC"/>
<path d="M42.3319 219.274H40.4205L41.282 214.237H39.8506L40.1109 212.747H44.9524L44.6921 214.237H43.2159L42.3319 219.274Z" fill="#0071BB"/>
<path d="M46.3029 214.464L46.2535 214.826C46.3831 214.663 46.5528 214.534 46.7471 214.451C46.9836 214.352 47.2395 214.306 47.4964 214.315C47.753 214.301 48.006 214.38 48.2054 214.538C48.3666 214.666 48.4968 214.827 48.5867 215.01C48.6346 214.94 48.6929 214.866 48.7617 214.787C48.8369 214.705 48.9212 214.632 49.013 214.569C49.2506 214.419 49.5287 214.341 49.8117 214.346C49.9791 214.338 50.146 214.367 50.301 214.429C50.456 214.49 50.5953 214.584 50.7092 214.704C50.9436 214.974 51.0639 215.321 51.0457 215.674C51.0457 215.757 51.0457 215.844 51.0457 215.932C51.0457 216.019 51.0457 216.089 51.0232 216.141L50.5745 219.273H48.9457L49.3944 216.316C49.3944 216.272 49.3944 216.215 49.3944 216.15C49.3944 216.084 49.3944 216.032 49.3944 215.984C49.3919 215.89 49.369 215.798 49.3271 215.713C49.3037 215.663 49.2645 215.622 49.2153 215.595C49.166 215.568 49.1093 215.558 49.0534 215.565C48.9553 215.572 48.8622 215.61 48.7887 215.674C48.6979 215.741 48.6242 215.828 48.5733 215.927L48.0797 219.273H46.5272L46.9759 216.329C46.9904 216.267 47.0009 216.204 47.0074 216.141C47.0074 216.071 47.0074 216.01 47.0074 215.958C47.011 215.878 46.994 215.798 46.9579 215.726C46.9288 215.679 46.8908 215.637 46.8458 215.604C46.8116 215.581 46.7736 215.565 46.7336 215.556H46.6663C46.5728 215.556 46.4818 215.585 46.4061 215.639C46.3255 215.695 46.257 215.767 46.2042 215.849L45.6836 219.282H44.1401L44.8536 214.477L46.3029 214.464Z" fill="#0071BB"/>
<path d="M52.2171 214.844C52.3318 214.77 52.4517 214.704 52.5761 214.647C52.7213 214.58 52.8713 214.523 53.0248 214.477C53.1855 214.429 53.3488 214.389 53.5139 214.359C53.677 214.331 53.842 214.317 54.0075 214.315C54.2407 214.314 54.4735 214.335 54.7029 214.376C54.9031 214.41 55.0923 214.489 55.2549 214.608C55.4129 214.741 55.5281 214.915 55.5869 215.11C55.6609 215.396 55.6731 215.693 55.6228 215.984L55.3984 217.731C55.3805 217.9 55.3939 218 55.4388 218.033C55.4827 218.065 55.5365 218.082 55.5914 218.081C55.6582 218.078 55.723 218.058 55.7798 218.024L55.5016 219.282C55.3994 219.317 55.2944 219.343 55.1876 219.361C55.0693 219.383 54.949 219.393 54.8286 219.391C54.6113 219.4 54.3966 219.341 54.2159 219.224C54.0351 219.106 53.8977 218.935 53.8235 218.736C53.6866 218.931 53.5074 219.095 53.2985 219.216C53.0764 219.336 52.8255 219.397 52.5716 219.391C52.3795 219.393 52.188 219.371 52.0018 219.326C51.8455 219.291 51.7006 219.219 51.58 219.116C51.4593 219.009 51.3696 218.874 51.3197 218.723C51.2556 218.522 51.2252 218.313 51.23 218.102C51.2305 217.955 51.2516 217.808 51.2928 217.666C51.34 217.51 51.4111 217.363 51.5037 217.229C51.6081 217.08 51.7335 216.946 51.8761 216.831C52.0423 216.699 52.2265 216.59 52.4235 216.508C52.6746 216.403 52.9362 216.324 53.2043 216.272C53.4823 216.218 53.7644 216.185 54.0478 216.176L54.0748 215.931C54.0939 215.873 54.0923 215.811 54.0703 215.754C54.0483 215.696 54.0072 215.648 53.9536 215.617C53.842 215.554 53.7146 215.522 53.5857 215.525C53.2917 215.519 52.9989 215.562 52.7197 215.652C52.4632 215.734 52.2188 215.849 51.9928 215.992L52.2171 214.844ZM53.2177 218.229C53.3107 218.235 53.4039 218.223 53.4918 218.193C53.5797 218.163 53.6605 218.116 53.7293 218.054L53.9088 216.993C53.789 217.004 53.6713 217.03 53.5588 217.071C53.449 217.113 53.3462 217.171 53.2536 217.242C53.1646 217.307 53.0912 217.391 53.0383 217.486C52.9826 217.593 52.9549 217.712 52.9575 217.832C52.9436 217.943 52.9689 218.055 53.0293 218.15C53.0527 218.176 53.0817 218.197 53.1143 218.211C53.1469 218.224 53.1823 218.231 53.2177 218.229Z" fill="#0071BB"/>
<path d="M59.4322 216.701L60.5271 219.287H58.7816L58.1309 217.697L57.1573 219.287H55.7842L57.5476 216.613L56.6502 214.477H58.3687L58.8713 215.657L59.6207 214.477H60.9668L59.4322 216.701Z" fill="#0071BB"/>
<path d="M65.8666 215.591C66.0948 214.887 66.2717 214.169 66.3961 213.442L66.5217 212.738H62.0347L61.8327 213.822H65.0993C64.9903 214.413 64.8404 214.997 64.6506 215.569H60.9353L60.7334 216.661H62.9141L62.4385 219.243H63.6769L64.157 216.661H66.4006L66.6025 215.569L65.8666 215.591Z" fill="#0071BB"/>
<path d="M72.0723 214.835H68.8102L68.8326 214.722H71.9826L72.355 212.747H68.0429L67.8634 213.704H71.0178L70.9954 213.826H67.8455L67.4775 215.796H71.8928L72.0723 214.835Z" fill="#0071BB"/>
<path d="M66.8223 219.265H71.1747L71.583 217.081H67.2306L66.8223 219.265ZM70.2459 218.081L70.21 218.278H68.155L68.1953 218.081H70.2459Z" fill="#0071BB"/>
<path d="M66.7866 215.923L66.5981 216.91H72.2205L72.4044 215.923H66.7866Z" fill="#0071BB"/>
<path d="M161.603 202.125V229.96C161.603 230.086 161.578 230.21 161.53 230.325C161.482 230.441 161.412 230.546 161.323 230.634C161.234 230.723 161.129 230.793 161.013 230.84C160.898 230.888 160.774 230.912 160.649 230.911H119.254C119.129 230.912 119.006 230.888 118.89 230.84C118.775 230.793 118.67 230.723 118.582 230.634C118.494 230.546 118.424 230.441 118.376 230.325C118.329 230.209 118.305 230.085 118.306 229.96V202.125C118.306 201.873 118.405 201.63 118.583 201.451C118.761 201.272 119.002 201.171 119.254 201.169H160.654C160.907 201.171 161.148 201.272 161.327 201.451C161.506 201.63 161.606 201.872 161.608 202.125H161.603Z" fill="#E7F3FF"/>
<path d="M161.603 230.033C161.601 230.286 161.5 230.528 161.322 230.707C161.143 230.886 160.902 230.987 160.649 230.988H119.254C119.002 230.987 118.76 230.886 118.581 230.707C118.403 230.528 118.302 230.286 118.301 230.033V202.24C118.302 201.988 118.403 201.746 118.582 201.568C118.761 201.39 119.002 201.29 119.254 201.29H160.654C160.906 201.29 161.148 201.39 161.327 201.568C161.505 201.746 161.607 201.988 161.608 202.24V230.033H161.603ZM160.654 199H119.254C118.392 199.001 117.565 199.345 116.955 199.957C116.345 200.568 116.001 201.397 116 202.261V230.054C116.001 230.918 116.345 231.747 116.955 232.358C117.565 232.97 118.392 233.314 119.254 233.315H160.654C161.517 233.315 162.345 232.971 162.955 232.36C163.566 231.748 163.909 230.918 163.909 230.054V202.261C163.907 201.397 163.564 200.568 162.954 199.957C162.344 199.345 161.517 199.001 160.654 199Z" fill="#485F74"/>
<path d="M144.649 237.305H135.107L136.139 235.307L137.171 233.315H142.585L143.617 235.307L144.649 237.305Z" fill="#485F74"/>
<path d="M150.231 238.901H130.123V238.23C130.123 237.704 130.799 237.305 131.627 237.305H148.727C149.56 237.305 150.231 237.72 150.231 238.23V238.907V238.901Z" fill="#485F74"/>
<path d="M184 199H168.12C167.016 199 166.12 199.895 166.12 201V236.901C166.12 238.006 167.016 238.901 168.12 238.901H184C185.105 238.901 186 238.006 186 236.901V201C186 199.895 185.105 199 184 199Z" fill="#485F74"/>
<path d="M182.024 206.98H170.096V209.374H182.024V206.98Z" fill="#5E758A"/>
<path d="M182.024 211.769H170.096V214.163H182.024V211.769Z" fill="#5E758A"/>
<path d="M182.024 216.557H170.096V218.951H182.024V216.557Z" fill="#5E758A"/>
<path d="M176.06 230.123C177.158 230.123 178.048 229.23 178.048 228.128C178.048 227.026 177.158 226.133 176.06 226.133C174.962 226.133 174.072 227.026 174.072 228.128C174.072 229.23 174.962 230.123 176.06 230.123Z" fill="#87A3BC"/>
<path d="M126.332 219.274H124.42L125.282 214.237H123.851L124.111 212.747H128.952L128.692 214.237H127.216L126.332 219.274Z" fill="#0071BB"/>
<path d="M130.303 214.464L130.254 214.826C130.383 214.663 130.553 214.534 130.747 214.451C130.984 214.352 131.239 214.306 131.496 214.315C131.753 214.301 132.006 214.38 132.205 214.538C132.367 214.666 132.497 214.827 132.587 215.01C132.635 214.94 132.693 214.866 132.762 214.787C132.837 214.705 132.921 214.632 133.013 214.569C133.251 214.419 133.529 214.341 133.812 214.346C133.979 214.338 134.146 214.367 134.301 214.429C134.456 214.49 134.595 214.584 134.709 214.704C134.944 214.974 135.064 215.321 135.046 215.674C135.046 215.757 135.046 215.844 135.046 215.932C135.046 216.019 135.046 216.089 135.023 216.141L134.575 219.273H132.946L133.394 216.316C133.394 216.272 133.394 216.215 133.394 216.15C133.394 216.084 133.394 216.032 133.394 215.984C133.392 215.89 133.369 215.798 133.327 215.713C133.304 215.663 133.264 215.622 133.215 215.595C133.166 215.568 133.109 215.558 133.053 215.565C132.955 215.572 132.862 215.61 132.789 215.674C132.698 215.741 132.624 215.828 132.573 215.927L132.08 219.273H130.527L130.976 216.329C130.99 216.267 131.001 216.204 131.007 216.141C131.007 216.071 131.007 216.01 131.007 215.958C131.011 215.878 130.994 215.798 130.958 215.726C130.929 215.679 130.891 215.637 130.846 215.604C130.812 215.581 130.774 215.565 130.734 215.556H130.666C130.573 215.556 130.482 215.585 130.406 215.639C130.326 215.695 130.257 215.767 130.204 215.849L129.684 219.282H128.14L128.854 214.477L130.303 214.464Z" fill="#0071BB"/>
<path d="M136.217 214.844C136.332 214.77 136.452 214.704 136.576 214.647C136.721 214.58 136.871 214.523 137.025 214.477C137.185 214.429 137.349 214.389 137.514 214.359C137.677 214.331 137.842 214.317 138.007 214.315C138.241 214.314 138.474 214.335 138.703 214.376C138.903 214.41 139.092 214.489 139.255 214.608C139.413 214.741 139.528 214.915 139.587 215.11C139.661 215.396 139.673 215.693 139.623 215.984L139.398 217.731C139.38 217.9 139.394 218 139.439 218.033C139.483 218.065 139.536 218.082 139.591 218.081C139.658 218.078 139.723 218.058 139.78 218.024L139.502 219.282C139.399 219.317 139.294 219.343 139.188 219.361C139.069 219.383 138.949 219.393 138.829 219.391C138.611 219.4 138.397 219.341 138.216 219.224C138.035 219.106 137.898 218.935 137.823 218.736C137.687 218.931 137.507 219.095 137.298 219.216C137.076 219.336 136.826 219.397 136.572 219.391C136.38 219.393 136.188 219.371 136.002 219.326C135.846 219.291 135.701 219.219 135.58 219.116C135.459 219.009 135.37 218.874 135.32 218.723C135.256 218.522 135.225 218.313 135.23 218.102C135.23 217.955 135.252 217.808 135.293 217.666C135.34 217.51 135.411 217.363 135.504 217.229C135.608 217.08 135.734 216.946 135.876 216.831C136.042 216.699 136.227 216.59 136.424 216.508C136.675 216.403 136.936 216.324 137.204 216.272C137.482 216.218 137.764 216.185 138.048 216.176L138.075 215.931C138.094 215.873 138.092 215.811 138.07 215.754C138.048 215.696 138.007 215.648 137.954 215.617C137.842 215.554 137.715 215.522 137.586 215.525C137.292 215.519 136.999 215.562 136.72 215.652C136.463 215.734 136.219 215.849 135.993 215.992L136.217 214.844ZM137.218 218.229C137.311 218.235 137.404 218.223 137.492 218.193C137.58 218.163 137.661 218.116 137.729 218.054L137.909 216.993C137.789 217.004 137.671 217.03 137.559 217.071C137.449 217.113 137.346 217.171 137.254 217.242C137.165 217.307 137.091 217.391 137.038 217.486C136.983 217.593 136.955 217.712 136.957 217.832C136.944 217.943 136.969 218.055 137.029 218.15C137.053 218.176 137.082 218.197 137.114 218.211C137.147 218.224 137.182 218.231 137.218 218.229Z" fill="#0071BB"/>
<path d="M143.432 216.701L144.527 219.287H142.782L142.131 217.697L141.157 219.287H139.784L141.548 216.613L140.65 214.477H142.369L142.871 215.657L143.621 214.477H144.967L143.432 216.701Z" fill="#0071BB"/>
<path d="M149.867 215.591C150.095 214.887 150.272 214.169 150.396 213.442L150.522 212.738H146.035L145.833 213.822H149.099C148.99 214.413 148.84 214.997 148.651 215.569H144.935L144.733 216.661H146.914L146.438 219.243H147.677L148.157 216.661H150.401L150.602 215.569L149.867 215.591Z" fill="#0071BB"/>
<path d="M156.072 214.835H152.81L152.833 214.722H155.983L156.355 212.747H152.043L151.863 213.704H155.018L154.995 213.826H151.845L151.478 215.796H155.893L156.072 214.835Z" fill="#0071BB"/>
<path d="M150.822 219.265H155.175L155.583 217.081H151.231L150.822 219.265ZM154.246 218.081L154.21 218.278H152.155L152.195 218.081H154.246Z" fill="#0071BB"/>
<path d="M150.787 215.923L150.598 216.91H156.22L156.404 215.923H150.787Z" fill="#0071BB"/>
<path d="M245.603 202.125V229.96C245.603 230.086 245.578 230.21 245.53 230.325C245.482 230.441 245.412 230.546 245.323 230.634C245.234 230.723 245.129 230.793 245.013 230.84C244.898 230.888 244.774 230.912 244.649 230.911H203.254C203.129 230.912 203.006 230.888 202.89 230.84C202.775 230.793 202.67 230.723 202.582 230.634C202.494 230.546 202.424 230.441 202.376 230.325C202.329 230.209 202.305 230.085 202.306 229.96V202.125C202.306 201.873 202.405 201.63 202.583 201.451C202.761 201.272 203.002 201.171 203.254 201.169H244.654C244.907 201.171 245.148 201.272 245.327 201.451C245.506 201.63 245.606 201.872 245.608 202.125H245.603Z" fill="#E7F3FF"/>
<path d="M245.603 230.033C245.601 230.286 245.5 230.528 245.322 230.707C245.143 230.886 244.902 230.987 244.649 230.988H203.254C203.002 230.987 202.76 230.886 202.581 230.707C202.403 230.528 202.302 230.286 202.301 230.033V202.24C202.302 201.988 202.403 201.746 202.582 201.568C202.761 201.39 203.002 201.29 203.254 201.29H244.654C244.906 201.29 245.148 201.39 245.327 201.568C245.505 201.746 245.607 201.988 245.608 202.24V230.033H245.603ZM244.654 199H203.254C202.392 199.001 201.565 199.345 200.955 199.957C200.345 200.568 200.001 201.397 200 202.261V230.054C200.001 230.918 200.345 231.747 200.955 232.358C201.565 232.97 202.392 233.314 203.254 233.315H244.654C245.517 233.315 246.345 232.971 246.955 232.36C247.566 231.748 247.909 230.918 247.909 230.054V202.261C247.907 201.397 247.564 200.568 246.954 199.957C246.344 199.345 245.517 199.001 244.654 199Z" fill="#485F74"/>
<path d="M228.649 237.305H219.107L220.139 235.307L221.171 233.315H226.585L227.617 235.307L228.649 237.305Z" fill="#485F74"/>
<path d="M234.231 238.901H214.123V238.23C214.123 237.704 214.799 237.305 215.627 237.305H232.727C233.56 237.305 234.231 237.72 234.231 238.23V238.907V238.901Z" fill="#485F74"/>
<path d="M268 199H252.12C251.016 199 250.12 199.895 250.12 201V236.901C250.12 238.006 251.016 238.901 252.12 238.901H268C269.105 238.901 270 238.006 270 236.901V201C270 199.895 269.105 199 268 199Z" fill="#485F74"/>
<path d="M266.024 206.98H254.096V209.374H266.024V206.98Z" fill="#5E758A"/>
<path d="M266.024 211.769H254.096V214.163H266.024V211.769Z" fill="#5E758A"/>
<path d="M266.024 216.557H254.096V218.951H266.024V216.557Z" fill="#5E758A"/>
<path d="M260.06 230.123C261.158 230.123 262.048 229.23 262.048 228.128C262.048 227.026 261.158 226.133 260.06 226.133C258.962 226.133 258.072 227.026 258.072 228.128C258.072 229.23 258.962 230.123 260.06 230.123Z" fill="#87A3BC"/>
<path d="M210.332 219.274H208.42L209.282 214.237H207.851L208.111 212.747H212.952L212.692 214.237H211.216L210.332 219.274Z" fill="#0071BB"/>
<path d="M214.303 214.464L214.254 214.826C214.383 214.663 214.553 214.534 214.747 214.451C214.984 214.352 215.239 214.306 215.496 214.315C215.753 214.301 216.006 214.38 216.205 214.538C216.367 214.666 216.497 214.827 216.587 215.01C216.635 214.94 216.693 214.866 216.762 214.787C216.837 214.705 216.921 214.632 217.013 214.569C217.251 214.419 217.529 214.341 217.812 214.346C217.979 214.338 218.146 214.367 218.301 214.429C218.456 214.49 218.595 214.584 218.709 214.704C218.944 214.974 219.064 215.321 219.046 215.674C219.046 215.757 219.046 215.844 219.046 215.932C219.046 216.019 219.046 216.089 219.023 216.141L218.575 219.273H216.946L217.394 216.316C217.394 216.272 217.394 216.215 217.394 216.15C217.394 216.084 217.394 216.032 217.394 215.984C217.392 215.89 217.369 215.798 217.327 215.713C217.304 215.663 217.264 215.622 217.215 215.595C217.166 215.568 217.109 215.558 217.053 215.565C216.955 215.572 216.862 215.61 216.789 215.674C216.698 215.741 216.624 215.828 216.573 215.927L216.08 219.273H214.527L214.976 216.329C214.99 216.267 215.001 216.204 215.007 216.141C215.007 216.071 215.007 216.01 215.007 215.958C215.011 215.878 214.994 215.798 214.958 215.726C214.929 215.679 214.891 215.637 214.846 215.604C214.812 215.581 214.774 215.565 214.734 215.556H214.666C214.573 215.556 214.482 215.585 214.406 215.639C214.326 215.695 214.257 215.767 214.204 215.849L213.684 219.282H212.14L212.854 214.477L214.303 214.464Z" fill="#0071BB"/>
<path d="M220.217 214.844C220.332 214.77 220.452 214.704 220.576 214.647C220.721 214.58 220.871 214.523 221.025 214.477C221.185 214.429 221.349 214.389 221.514 214.359C221.677 214.331 221.842 214.317 222.007 214.315C222.241 214.314 222.474 214.335 222.703 214.376C222.903 214.41 223.092 214.489 223.255 214.608C223.413 214.741 223.528 214.915 223.587 215.11C223.661 215.396 223.673 215.693 223.623 215.984L223.398 217.731C223.38 217.9 223.394 218 223.439 218.033C223.483 218.065 223.536 218.082 223.591 218.081C223.658 218.078 223.723 218.058 223.78 218.024L223.502 219.282C223.399 219.317 223.294 219.343 223.188 219.361C223.069 219.383 222.949 219.393 222.829 219.391C222.611 219.4 222.397 219.341 222.216 219.224C222.035 219.106 221.898 218.935 221.823 218.736C221.687 218.931 221.507 219.095 221.298 219.216C221.076 219.336 220.826 219.397 220.572 219.391C220.38 219.393 220.188 219.371 220.002 219.326C219.846 219.291 219.701 219.219 219.58 219.116C219.459 219.009 219.37 218.874 219.32 218.723C219.256 218.522 219.225 218.313 219.23 218.102C219.23 217.955 219.252 217.808 219.293 217.666C219.34 217.51 219.411 217.363 219.504 217.229C219.608 217.08 219.734 216.946 219.876 216.831C220.042 216.699 220.227 216.59 220.424 216.508C220.675 216.403 220.936 216.324 221.204 216.272C221.482 216.218 221.764 216.185 222.048 216.176L222.075 215.931C222.094 215.873 222.092 215.811 222.07 215.754C222.048 215.696 222.007 215.648 221.954 215.617C221.842 215.554 221.715 215.522 221.586 215.525C221.292 215.519 220.999 215.562 220.72 215.652C220.463 215.734 220.219 215.849 219.993 215.992L220.217 214.844ZM221.218 218.229C221.311 218.235 221.404 218.223 221.492 218.193C221.58 218.163 221.661 218.116 221.729 218.054L221.909 216.993C221.789 217.004 221.671 217.03 221.559 217.071C221.449 217.113 221.346 217.171 221.254 217.242C221.165 217.307 221.091 217.391 221.038 217.486C220.983 217.593 220.955 217.712 220.957 217.832C220.944 217.943 220.969 218.055 221.029 218.15C221.053 218.176 221.082 218.197 221.114 218.211C221.147 218.224 221.182 218.231 221.218 218.229Z" fill="#0071BB"/>
<path d="M227.432 216.701L228.527 219.287H226.782L226.131 217.697L225.157 219.287H223.784L225.548 216.613L224.65 214.477H226.369L226.871 215.657L227.621 214.477H228.967L227.432 216.701Z" fill="#0071BB"/>
<path d="M233.867 215.591C234.095 214.887 234.272 214.169 234.396 213.442L234.522 212.738H230.035L229.833 213.822H233.099C232.99 214.413 232.84 214.997 232.651 215.569H228.935L228.733 216.661H230.914L230.438 219.243H231.677L232.157 216.661H234.401L234.602 215.569L233.867 215.591Z" fill="#0071BB"/>
<path d="M240.072 214.835H236.81L236.833 214.722H239.983L240.355 212.747H236.043L235.863 213.704H239.018L238.995 213.826H235.845L235.478 215.796H239.893L240.072 214.835Z" fill="#0071BB"/>
<path d="M234.822 219.265H239.175L239.583 217.081H235.231L234.822 219.265ZM238.246 218.081L238.21 218.278H236.155L236.195 218.081H238.246Z" fill="#0071BB"/>
<path d="M234.787 215.923L234.598 216.91H240.22L240.404 215.923H234.787Z" fill="#0071BB"/>
<defs>
<linearGradient id="paint0_linear_650_1964" x1="103" y1="219" x2="103" y2="119" gradientUnits="userSpaceOnUse">
<stop stop-color="#D7E4EE"/>
<stop offset="1" stop-color="#E5EBF0" stop-opacity="0"/>
</linearGradient>
</defs>
</svg>
