<svg width="302" height="394" viewBox="0 0 302 394" fill="none" xmlns="http://www.w3.org/2000/svg">
<path d="M280.046 0H21.9546C9.82938 0 0 10.4394 0 23.317V370.683C0 383.561 9.82938 394 21.9546 394H280.046C292.171 394 302 383.561 302 370.683V23.317C302 10.4394 292.171 0 280.046 0Z" fill="white"/>
<rect x="10" y="300" width="282" height="1" fill="#EFEFEF"/>
<path fill-rule="evenodd" clip-rule="evenodd" d="M151 227C199.601 227 239 187.601 239 139C239 90.3989 199.601 51 151 51C102.399 51 63 90.3989 63 139C63 187.601 102.399 227 151 227ZM151 200C184.689 200 212 172.689 212 139C212 105.311 184.689 78 151 78C117.311 78 90 105.311 90 139C90 172.689 117.311 200 151 200Z" fill="#E5EBF0"/>
<path d="M186.297 66.748H254.836V116.377H186.297V66.748Z" fill="#E7F3FF" stroke="#485F74"/>
<path d="M257.998 64.3462H183.141C182.497 64.3462 181.975 64.8677 181.975 65.5111V66.0836C181.975 66.7269 182.497 67.2485 183.141 67.2485H257.998C258.643 67.2485 259.165 66.7269 259.165 66.0836V65.5111C259.165 64.8677 258.643 64.3462 257.998 64.3462Z" fill="#485F74"/>
<path d="M257.998 115.877H183.141C182.497 115.877 181.975 116.398 181.975 117.042V117.614C181.975 118.258 182.497 118.779 183.141 118.779H257.998C258.643 118.779 259.165 118.258 259.165 117.614V117.042C259.165 116.398 258.643 115.877 257.998 115.877Z" fill="#485F74"/>
<path d="M205.574 88.8076H198.305V111.072H205.574V88.8076Z" fill="#007DF1"/>
<path d="M217.996 75.0532H210.728V111.072H217.996V75.0532Z" fill="#2C99FF"/>
<path d="M230.412 96.2114H223.144V111.072H230.412V96.2114Z" fill="#007DF1"/>
<path d="M242.828 85.6226H235.559V111.072H242.828V85.6226Z" fill="#2C99FF"/>
<path d="M106.044 113.204C106.044 113.585 105.893 113.951 105.624 114.221C105.355 114.491 104.989 114.644 104.608 114.645H41.9294C41.5466 114.645 41.1795 114.493 40.9088 114.223C40.6382 113.953 40.4861 113.586 40.4861 113.204V71.2623C40.4878 70.8812 40.6407 70.5163 40.9112 70.2474C41.1816 69.9786 41.5477 69.8276 41.9294 69.8276H104.608C104.988 69.8294 105.353 69.9811 105.622 70.2498C105.891 70.5184 106.043 70.8823 106.044 71.2623V113.204ZM104.608 66.3462H41.9294C40.6237 66.3479 39.3719 66.8662 38.448 67.7876C37.5241 68.709 37.0035 69.9584 37 71.2623V113.204C37.0017 114.509 37.5216 115.76 38.4457 116.683C39.3697 117.606 40.6226 118.125 41.9294 118.127H104.608C105.913 118.123 107.164 117.603 108.087 116.681C109.01 115.758 109.529 114.508 109.531 113.204V71.2623C109.529 69.959 109.01 68.7096 108.087 67.788C107.164 66.8664 105.913 66.3479 104.608 66.3462Z" fill="#485F74"/>
<path d="M79.816 123.622H66.9126L68.3031 120.871L69.7002 118.126H77.0218L78.4189 120.871L79.816 123.622Z" fill="#485F74"/>
<path d="M88.838 125.886H58.4111V125.01C58.4111 124.247 59.426 123.622 60.6847 123.622H86.564C87.823 123.622 88.838 124.247 88.838 125.01V125.886Z" fill="#485F74"/>
<path d="M73.2653 69.8208H41.9294C41.5477 69.8225 41.1823 69.9752 40.9131 70.2453C40.6438 70.5154 40.4927 70.881 40.4927 71.2621V93H73.2653V69.8208Z" fill="#007DF1"/>
<path d="M106.045 92.2362V71.2621C106.043 70.8804 105.89 70.5148 105.62 70.2449C105.35 69.9749 104.984 69.8225 104.602 69.8208H73.2656V92.2362H106.045Z" fill="#7993AB"/>
<path d="M73.2656 92.2363V114.612H104.602C104.791 114.613 104.978 114.577 105.153 114.505C105.328 114.433 105.488 114.328 105.622 114.194C105.756 114.061 105.862 113.903 105.935 113.728C106.007 113.554 106.045 113.367 106.045 113.178V92.2363H73.2656Z" fill="#22AEDA"/>
<path d="M40.4927 92.2363V113.204C40.4918 113.393 40.5284 113.579 40.6003 113.754C40.6722 113.928 40.778 114.087 40.9116 114.22C41.0451 114.354 41.2039 114.459 41.3786 114.531C41.5533 114.603 41.7405 114.639 41.9294 114.639H73.2653V92.2627L40.4927 92.2363Z" fill="#2C99FF"/>
<g opacity="0.4">
<path opacity="0.4" d="M56.8627 80.298C58.3477 80.298 59.5515 79.0958 59.5515 77.6128C59.5515 76.1299 58.3477 74.9277 56.8627 74.9277C55.3777 74.9277 54.1738 76.1299 54.1738 77.6128C54.1738 79.0958 55.3777 80.298 56.8627 80.298Z" fill="white"/>
<path opacity="0.4" d="M62.998 85.4708C62.998 87.6755 50.7207 87.6755 50.7207 85.4708C50.7207 83.2662 53.4687 81.4761 56.8626 81.4761C60.2565 81.4761 62.998 83.2662 62.998 85.4708Z" fill="white"/>
</g>
<g opacity="0.4">
<path opacity="0.4" d="M56.8627 102.707C58.3477 102.707 59.5515 101.505 59.5515 100.022C59.5515 98.5386 58.3477 97.3364 56.8627 97.3364C55.3777 97.3364 54.1738 98.5386 54.1738 100.022C54.1738 101.505 55.3777 102.707 56.8627 102.707Z" fill="white"/>
<path opacity="0.4" d="M62.998 107.88C62.998 110.084 50.7207 110.084 50.7207 107.88C50.7207 105.675 53.4687 103.885 56.8626 103.885C60.2565 103.885 62.998 105.675 62.998 107.88Z" fill="white"/>
</g>
<g opacity="0.4">
<path opacity="0.4" d="M89.6548 80.298C91.1398 80.298 92.3438 79.0958 92.3438 77.6128C92.3438 76.1299 91.1398 74.9277 89.6548 74.9277C88.1698 74.9277 86.9658 76.1299 86.9658 77.6128C86.9658 79.0958 88.1698 80.298 89.6548 80.298Z" fill="white"/>
<path opacity="0.4" d="M95.79 85.4708C95.79 87.6755 83.52 87.6755 83.52 85.4708C83.52 83.2662 86.268 81.4761 89.655 81.4761C93.042 81.4761 95.79 83.2662 95.79 85.4708Z" fill="white"/>
</g>
<g opacity="0.4">
<path opacity="0.4" d="M89.6548 102.707C91.1398 102.707 92.3438 101.505 92.3438 100.022C92.3438 98.5386 91.1398 97.3364 89.6548 97.3364C88.1698 97.3364 86.9658 98.5386 86.9658 100.022C86.9658 101.505 88.1698 102.707 89.6548 102.707Z" fill="white"/>
<path opacity="0.4" d="M95.79 107.88C95.79 110.084 83.52 110.084 83.52 107.88C83.52 105.675 86.268 103.885 89.655 103.885C93.042 103.885 95.79 105.675 95.79 107.88Z" fill="white"/>
</g>
<path d="M181.453 179.417V221.359C181.453 221.548 181.416 221.735 181.343 221.91C181.27 222.084 181.164 222.243 181.03 222.376C180.896 222.509 180.737 222.615 180.562 222.686C180.387 222.758 180.199 222.795 180.01 222.794H117.338C117.149 222.795 116.962 222.758 116.787 222.686C116.613 222.615 116.454 222.509 116.32 222.375C116.187 222.242 116.081 222.084 116.009 221.909C115.937 221.735 115.901 221.548 115.901 221.359V179.417C115.901 179.228 115.937 179.041 116.009 178.866C116.081 178.691 116.186 178.533 116.32 178.399C116.453 178.265 116.612 178.158 116.787 178.086C116.961 178.013 117.149 177.976 117.338 177.976H180.01C180.393 177.976 180.76 178.128 181.03 178.398C181.301 178.669 181.453 179.035 181.453 179.417Z" fill="#E7F3FF"/>
<path d="M181.453 221.359C181.451 221.741 181.299 222.106 181.028 222.376C180.758 222.646 180.392 222.799 180.01 222.8H117.338C116.956 222.799 116.59 222.646 116.319 222.376C116.049 222.106 115.897 221.741 115.895 221.359V179.417C115.895 179.035 116.047 178.669 116.318 178.398C116.588 178.128 116.955 177.976 117.338 177.976H180.01C180.393 177.976 180.76 178.128 181.03 178.398C181.301 178.669 181.453 179.035 181.453 179.417V221.359ZM180.01 174.495H117.338C116.031 174.496 114.778 175.016 113.854 175.938C112.93 176.861 112.41 178.112 112.409 179.417V221.359C112.41 222.664 112.93 223.915 113.854 224.838C114.778 225.761 116.031 226.28 117.338 226.282H180.01C181.317 226.28 182.569 225.761 183.494 224.838C184.418 223.915 184.938 222.664 184.939 221.359V179.417C184.938 178.112 184.418 176.861 183.494 175.938C182.569 175.016 181.317 174.496 180.01 174.495Z" fill="#485F74"/>
<path d="M155.225 231.777H142.321L143.712 229.026L145.109 226.282H152.43L153.828 229.026L155.225 231.777Z" fill="#485F74"/>
<path d="M164.246 234.041H133.82V233.166C133.82 232.396 134.835 231.771 136.093 231.771H161.973C163.231 231.771 164.246 232.396 164.246 233.166V234.041Z" fill="#485F74"/>
<path d="M125.872 205.808H122.63L124.086 197.154H121.688L122.122 194.587H130.241L129.8 197.154H127.328L125.872 205.808Z" fill="#0071BB"/>
<path d="M132.528 197.529L132.442 198.154C132.661 197.87 132.946 197.645 133.273 197.496C133.669 197.331 134.096 197.252 134.525 197.265C134.956 197.24 135.381 197.376 135.717 197.647C135.996 197.864 136.221 198.14 136.376 198.456C136.466 198.322 136.565 198.195 136.673 198.075C136.798 197.933 136.94 197.807 137.095 197.7C137.272 197.585 137.462 197.493 137.662 197.423C137.909 197.348 138.167 197.313 138.426 197.318C138.706 197.305 138.986 197.352 139.245 197.458C139.505 197.564 139.738 197.725 139.929 197.93C140.325 198.394 140.528 198.992 140.495 199.602C140.505 199.748 140.505 199.896 140.495 200.043C140.495 200.194 140.495 200.312 140.456 200.405L139.678 205.794H137.009L137.747 200.707C137.747 200.628 137.747 200.53 137.787 200.424C137.826 200.319 137.787 200.214 137.787 200.135C137.782 199.973 137.744 199.814 137.675 199.667C137.635 199.582 137.568 199.512 137.485 199.466C137.402 199.421 137.307 199.404 137.213 199.417C137.049 199.424 136.892 199.49 136.772 199.602C136.622 199.719 136.499 199.867 136.409 200.036L135.586 205.794H132.95L133.688 200.727C133.712 200.621 133.727 200.513 133.734 200.405C133.739 200.299 133.739 200.194 133.734 200.089C133.743 199.952 133.713 199.815 133.648 199.694C133.611 199.62 133.558 199.556 133.493 199.505C133.428 199.454 133.353 199.417 133.273 199.398H133.161C133.005 199.399 132.853 199.447 132.726 199.536C132.592 199.635 132.478 199.758 132.39 199.898L131.513 205.821H128.93L130.122 197.542L132.528 197.529Z" fill="#0071BB"/>
<path d="M142.439 198.187C142.634 198.061 142.836 197.949 143.046 197.851C143.291 197.735 143.544 197.636 143.803 197.555C144.074 197.472 144.349 197.406 144.627 197.357C144.899 197.305 145.175 197.279 145.451 197.278C145.842 197.276 146.233 197.311 146.617 197.384C146.955 197.436 147.272 197.574 147.54 197.785C147.81 198.008 148.003 198.31 148.094 198.647C148.218 199.127 148.238 199.627 148.153 200.115L147.784 203.136C147.751 203.425 147.784 203.603 147.85 203.656C147.924 203.712 148.014 203.742 148.107 203.741C148.219 203.734 148.327 203.7 148.423 203.642L147.955 205.808C147.782 205.862 147.606 205.906 147.428 205.939C147.23 205.973 147.029 205.988 146.828 205.985C146.465 206.003 146.106 205.903 145.804 205.702C145.501 205.501 145.271 205.208 145.148 204.867C144.913 205.198 144.612 205.478 144.265 205.689C143.892 205.894 143.471 205.996 143.046 205.985C142.724 205.991 142.403 205.955 142.09 205.88C141.825 205.821 141.58 205.694 141.379 205.512C141.177 205.33 141.028 205.098 140.943 204.84C140.835 204.496 140.783 204.135 140.792 203.774C140.799 203.25 140.96 202.74 141.253 202.307C141.431 202.06 141.642 201.838 141.879 201.648C142.154 201.416 142.463 201.228 142.795 201.089C143.22 200.911 143.662 200.774 144.113 200.681C144.578 200.591 145.05 200.538 145.524 200.523L145.57 200.102C145.602 200.002 145.6 199.894 145.564 199.795C145.529 199.696 145.461 199.612 145.372 199.556C145.181 199.447 144.965 199.393 144.746 199.398C144.254 199.391 143.764 199.464 143.296 199.615C142.867 199.76 142.458 199.957 142.077 200.201L142.439 198.187ZM144.12 204.011C144.276 204.02 144.432 203.998 144.579 203.946C144.726 203.894 144.861 203.813 144.977 203.708L145.28 201.879C145.078 201.898 144.881 201.947 144.693 202.024C144.509 202.092 144.335 202.187 144.179 202.307C144.029 202.421 143.905 202.567 143.817 202.734C143.726 202.916 143.681 203.117 143.685 203.32C143.662 203.512 143.704 203.707 143.803 203.873C143.842 203.918 143.891 203.954 143.946 203.978C144.001 204.002 144.06 204.013 144.12 204.011Z" fill="#0071BB"/>
<path d="M154.539 201.359L156.371 205.808H153.445L152.351 203.07L150.723 205.808H148.423L151.376 201.201L149.886 197.522H152.74L153.583 199.556L154.842 197.522H157.037L154.539 201.359Z" fill="#0071BB"/>
<path d="M165.32 199.463C165.708 198.256 166.006 197.022 166.21 195.771L166.427 194.567H158.921L158.585 196.423H164.062C163.87 197.454 163.606 198.47 163.271 199.463H157.037L156.694 201.345H160.332L159.534 205.788H161.65L162.447 201.345H166.223L166.559 199.463H165.32Z" fill="#0071BB"/>
<path d="M175.726 198.173H170.263L170.296 197.976H175.581L176.201 194.58H168.971L168.668 196.225H173.96L173.921 196.436H168.642L168.022 199.825H175.423L175.726 198.173Z" fill="#0071BB"/>
<path d="M166.922 205.788H174.211L174.87 202.057H167.574L166.922 205.788ZM172.662 203.755L172.596 204.09H169.156L169.222 203.755H172.662Z" fill="#0071BB"/>
<path d="M166.862 200.042L166.553 201.74H175.97L176.286 200.042H166.862Z" fill="#0071BB"/>
<path d="M127.024 254.592H123.328V252.832H122.016V254.592H118.304V255.648H127.024V254.592ZM120.464 259.12C120.464 258.112 121.36 257.472 122.672 257.472C123.968 257.472 124.864 258.112 124.864 259.12C124.864 260.112 123.968 260.752 122.672 260.752C121.36 260.752 120.464 260.112 120.464 259.12ZM123.328 261.744C125.024 261.536 126.112 260.544 126.112 259.12C126.112 257.504 124.72 256.464 122.672 256.464C120.624 256.464 119.216 257.504 119.216 259.12C119.216 260.56 120.32 261.552 122.016 261.76V263.296C120.592 263.344 119.216 263.36 118 263.36L118.192 264.464C120.832 264.464 124.288 264.416 127.488 263.888L127.392 262.912C126.08 263.088 124.688 263.184 123.328 263.248V261.744ZM128.304 252.832V267.184H129.616V252.832H128.304ZM137.294 253.888C135.07 253.888 133.454 255.248 133.454 257.264C133.454 259.264 135.07 260.64 137.294 260.64C139.534 260.64 141.134 259.264 141.134 257.264C141.134 255.248 139.534 253.888 137.294 253.888ZM137.294 255.008C138.782 255.008 139.854 255.92 139.854 257.264C139.854 258.592 138.782 259.52 137.294 259.52C135.822 259.52 134.734 258.592 134.734 257.264C134.734 255.92 135.822 255.008 137.294 255.008ZM143.022 252.832V267.216H144.334V252.832H143.022ZM132.894 264.064C135.486 264.064 138.958 264.032 142.19 263.44L142.078 262.464C138.942 262.944 135.342 262.96 132.734 262.96L132.894 264.064ZM159.117 252.848H157.805V260.272H159.117V252.848ZM156.045 258.832C153.917 258.128 152.413 256.336 152.413 254.352V253.264H151.101V254.352C151.101 256.432 149.613 258.352 147.453 259.104L148.125 260.128C149.821 259.52 151.149 258.208 151.773 256.56C152.429 258.08 153.741 259.28 155.389 259.856L156.045 258.832ZM151.165 265.984V264.448H159.133V260.992H149.837V262.016H157.837V263.456H149.869V267.024H159.613V265.984H151.165ZM166.406 266H167.894V261.344H169.83C172.406 261.344 174.15 260.192 174.15 257.712C174.15 255.152 172.39 254.256 169.766 254.256H166.406V266ZM167.894 260.144V255.472H169.574C171.638 255.472 172.678 256.016 172.678 257.712C172.678 259.392 171.702 260.144 169.638 260.144H167.894ZM180.947 266.208C182.467 266.208 183.619 265.6 184.547 264.528L183.731 263.6C182.979 264.416 182.131 264.912 181.011 264.912C178.771 264.912 177.363 263.056 177.363 260.096C177.363 257.168 178.835 255.344 181.059 255.344C182.067 255.344 182.851 255.808 183.459 256.464L184.259 255.504C183.587 254.752 182.467 254.048 181.043 254.048C178.067 254.048 175.843 256.352 175.843 260.144C175.843 263.952 178.035 266.208 180.947 266.208Z" fill="#3C3C3C"/>
<path d="M176.208 348.402H158.283V351.189H176.208V348.402Z" fill="#636362"/>
<path d="M156.13 334.593H152.812V344.898C151.519 345.533 150.096 345.859 148.655 345.852H144.087C143.761 345.852 143.64 345.771 143.64 345.405V337.743H149.813V335.12H140.398V346.704C140.398 347.988 141.031 348.514 142.233 348.514H148.119C149.893 348.514 151.788 348.112 152.828 347.501V353.534H155.78C156.026 352.179 156.148 350.805 156.146 349.428L156.13 334.593ZM231 334.593H227.678V353.554H230.633C230.866 352.198 230.989 350.824 231 349.448V334.593ZM220.142 335.128C216.272 335.128 214.458 337.614 214.458 340.514C214.458 343.503 216.272 345.968 220.142 345.968C224.013 345.968 225.847 343.503 225.847 340.514C225.847 337.614 224.013 335.128 220.142 335.128ZM220.183 337.819C221.751 337.819 222.646 338.817 222.646 340.538C222.646 342.425 221.751 343.354 220.183 343.354C218.614 343.354 217.635 342.441 217.635 340.538C217.635 338.817 218.594 337.819 220.183 337.819ZM195.105 334.959V337.397H199.282V340.442H195.125V346.926C195.125 348.084 195.654 348.45 196.738 348.45H200.367C201.614 348.425 202.851 348.213 204.035 347.823L203.632 345.462C202.6 345.76 201.53 345.904 200.455 345.888H198.641C198.339 345.888 198.238 345.807 198.238 345.462V342.855H201.927C202.274 342.183 202.395 341.19 202.395 339.746V334.971L195.105 334.959ZM208.184 334.654H205.128V339.919H203.112V342.622H205.128V352.943H207.878C208.08 351.583 208.183 350.211 208.184 348.836V334.654ZM212.482 334.593H209.325V353.554H212.095C212.38 352.067 212.515 350.555 212.498 349.041L212.482 334.593Z" fill="#636362"/>
<path d="M191.864 345.478H179.337V347.843H188.566V348.583H179.337V352.533C179.337 353.478 179.741 353.893 180.781 353.893H192.376V351.479H183.026C182.76 351.479 182.66 351.399 182.66 351.109V350.739H191.348C191.751 350.144 191.864 349.13 191.864 348.044V345.478Z" fill="#636362"/>
<path d="M192.041 334.614H179.027V337.104H181.131V338.934H179.087V341.319H191.989V338.934H189.779C189.918 338.502 189.988 338.052 189.989 337.598V337.104H192.029L192.041 334.614ZM184.329 337.104H186.824V338.934H184.349L184.329 337.104Z" fill="#636362"/>
<path d="M194.331 342.164H176.841V344.694H194.331V342.164Z" fill="#636362"/>
<path d="M165.113 334.593V336.938C165.113 339.943 163.097 341.693 159.15 342.658L160.122 345.128C163.009 344.653 165.831 343.358 167.008 341.484C168.101 343.298 171.318 344.737 173.999 345.023L175.209 342.083C171.246 341.443 168.589 339.943 168.589 336.854V334.613L165.113 334.593Z" fill="#636362"/>
<path d="M85.3934 358.703C88.2383 358.701 91.0189 357.858 93.3836 356.28C95.7483 354.702 97.5908 352.46 98.6783 349.837C99.7657 347.214 100.049 344.329 99.4929 341.545C98.9366 338.762 97.5655 336.205 95.553 334.199C93.5404 332.193 90.9768 330.827 88.1863 330.275C85.3958 329.722 82.5036 330.007 79.8756 331.094C77.2476 332.181 75.0017 334.022 73.4219 336.382C71.842 338.742 70.9992 341.517 71 344.356C71.0005 346.241 71.3733 348.107 72.097 349.848C72.8206 351.59 73.881 353.172 75.2176 354.504C76.5542 355.836 78.1408 356.893 79.8868 357.613C81.6328 358.334 83.5039 358.704 85.3934 358.703Z" fill="#B9133B"/>
<path d="M84.8169 338.057V350.65H88.8285V349.52H85.974V338.057H84.8169Z" fill="white"/>
<path d="M80.7891 341.496C81.1315 341.497 81.4665 341.396 81.7516 341.207C82.0366 341.018 82.2589 340.748 82.3903 340.433C82.5218 340.117 82.5563 339.77 82.4897 339.435C82.4231 339.1 82.2583 338.792 82.0162 338.55C81.774 338.309 81.4655 338.144 81.1296 338.078C80.7937 338.011 80.4456 338.046 80.1294 338.177C79.8131 338.308 79.5431 338.53 79.3533 338.814C79.1636 339.099 79.0627 339.433 79.0635 339.775C79.0635 340.231 79.2453 340.669 79.5689 340.992C79.8925 341.315 80.3314 341.496 80.7891 341.496Z" fill="white"/>
<path d="M85.97 332.345H85.3975C83.015 332.345 80.686 333.05 78.705 334.37C76.724 335.691 75.1799 337.568 74.268 339.764C73.3561 341.959 73.1173 344.376 73.5818 346.707C74.0463 349.038 75.1932 351.18 76.8776 352.861C78.562 354.542 80.7082 355.687 83.0448 356.151C85.3814 356.615 87.8035 356.378 90.0048 355.469C92.2062 354.56 94.0879 353.02 95.4121 351.044C96.7363 349.068 97.4436 346.745 97.4444 344.368V343.833H88.8527V344.939H96.3074C96.3074 344.963 96.3074 345.08 96.3074 345.112C96.1646 347.199 95.4225 349.201 94.1697 350.878C92.917 352.556 91.2066 353.838 89.243 354.571C87.2793 355.305 85.1455 355.458 83.0966 355.014C81.0477 354.57 79.1703 353.547 77.6888 352.066C76.1628 350.543 75.1239 348.602 74.7034 346.489C74.2829 344.376 74.4998 342.186 75.3266 340.197C76.1534 338.207 77.553 336.506 79.3484 335.31C81.1439 334.114 83.2545 333.475 85.4136 333.475H85.9861L85.97 332.345Z" fill="white"/>
<path d="M110.624 334.835H106.298V353.519H119.603V349.899H110.624V334.835ZM129.101 346.399H132.625V349.665C131.616 349.993 130.562 350.158 129.501 350.156C125.61 350.156 124.312 348.185 124.312 344.179C124.312 340.358 125.545 338.105 129.44 338.105C131.605 338.105 132.839 338.781 133.875 340.076L136.564 337.61C134.927 335.269 132.053 334.562 129.364 334.562C123.316 334.562 120.127 337.86 120.127 344.147C120.127 350.434 122.997 353.8 129.335 353.8C132.238 353.8 135.081 353.06 136.625 351.982V342.92H129.118L129.101 346.399Z" fill="#636362"/>
</svg>
