<svg width="302" height="394" viewBox="0 0 302 394" fill="none" xmlns="http://www.w3.org/2000/svg">
<path d="M280.046 0H21.9546C9.82938 0 0 10.4394 0 23.317V370.683C0 383.561 9.82938 394 21.9546 394H280.046C292.171 394 302 383.561 302 370.683V23.317C302 10.4394 292.171 0 280.046 0Z" fill="white"/>
<rect x="10" y="300" width="282" height="1" fill="#EFEFEF"/>
<path d="M110.819 101.983V144.488C110.809 144.876 110.648 145.244 110.369 145.515C110.091 145.786 109.717 145.938 109.328 145.938H45.7627C45.3802 145.928 45.016 145.773 44.7455 145.503C44.4749 145.233 44.3188 144.869 44.3093 144.488V101.983C44.3092 101.595 44.4611 101.222 44.7326 100.944C45.0042 100.666 45.3739 100.505 45.7627 100.496H109.328C109.724 100.496 110.103 100.652 110.382 100.931C110.662 101.21 110.819 101.589 110.819 101.983Z" fill="#E7F3FF"/>
<path d="M110.966 144.488C110.966 144.882 110.809 145.26 110.53 145.539C110.25 145.818 109.871 145.975 109.476 145.975H45.9174C45.5221 145.975 45.1429 145.818 44.8634 145.539C44.5838 145.26 44.4269 144.882 44.4269 144.488V101.983C44.4269 101.589 44.5838 101.21 44.8634 100.931C45.1429 100.652 45.5221 100.496 45.9174 100.496H109.476C109.871 100.496 110.25 100.652 110.53 100.931C110.809 101.21 110.966 101.589 110.966 101.983V144.488ZM109.476 97H45.9174C44.593 97.002 43.3233 97.527 42.3861 98.461C41.4489 99.395 40.9204 100.661 40.9165 101.983V144.488C40.9204 145.809 41.4489 147.076 42.3861 148.009C43.3233 148.943 44.593 149.469 45.9174 149.471H109.476C110.799 149.469 112.068 148.943 113.004 148.009C113.94 147.075 114.467 145.809 114.469 144.488V101.983C114.467 100.662 113.94 99.396 113.004 98.462C112.068 97.528 110.799 97.002 109.476 97Z" fill="#485F74"/>
<path d="M124 145.471V145.999C124 146.524 123.896 147.044 123.695 147.53C123.493 148.015 123.198 148.456 122.826 148.828C122.453 149.2 122.011 149.494 121.525 149.695C121.038 149.897 120.517 150 119.99 150H37.0121C35.9486 150 34.9288 149.578 34.1768 148.828C33.4249 148.078 33.0024 147.06 33.0024 145.999V145.471C32.9992 145.451 32.9992 145.431 33.0024 145.411H123.985C123.988 145.431 123.988 145.451 123.985 145.471H124Z" fill="#485F74"/>
<path d="M57.1496 128.278H54.2278L55.5447 120.579H53.3567L53.7546 118.302H61.1551L60.7573 120.579H58.5008L57.1496 128.278Z" fill="#0071BB"/>
<path d="M63.2197 120.926L63.1443 121.48C63.3423 121.23 63.6017 121.033 63.8987 120.906C64.2602 120.756 64.6513 120.685 65.0441 120.699C65.4364 120.676 65.823 120.798 66.1278 121.039C66.3743 121.235 66.5733 121.481 66.7108 121.761C66.7839 121.654 66.8731 121.54 66.9783 121.42C67.0932 121.295 67.222 121.183 67.3624 121.086C67.7255 120.857 68.1506 120.738 68.5833 120.746C68.8391 120.734 69.0942 120.778 69.3311 120.872C69.568 120.967 69.7809 121.11 69.955 121.293C70.3135 121.706 70.4973 122.236 70.4694 122.776C70.4694 122.902 70.4694 123.036 70.4694 123.17C70.4694 123.303 70.4694 123.41 70.4351 123.49L69.7492 128.278H67.2595L67.9454 123.757C67.9454 123.69 67.9454 123.604 67.9454 123.503C67.9454 123.403 67.9454 123.323 67.9454 123.25C67.9416 123.106 67.9065 122.965 67.8425 122.836C67.8067 122.759 67.7468 122.696 67.6715 122.655C67.5963 122.615 67.5096 122.598 67.4241 122.609C67.2741 122.62 67.1319 122.678 67.0195 122.776C66.8807 122.878 66.7681 123.011 66.6903 123.163L65.9357 128.278H63.5626L64.2485 123.777C64.2706 123.683 64.2867 123.587 64.2966 123.49C64.2966 123.383 64.2966 123.29 64.2966 123.21C64.3021 123.087 64.2761 122.966 64.221 122.856C64.1765 122.783 64.1183 122.72 64.0496 122.669C63.9974 122.635 63.9393 122.61 63.8781 122.595H63.7753C63.6324 122.596 63.4932 122.641 63.3774 122.722C63.2543 122.809 63.1496 122.918 63.0688 123.043L62.2732 128.291H59.9138L61.0043 120.946L63.2197 120.926Z" fill="#0071BB"/>
<path d="M72.2597 121.507C72.4349 121.394 72.6182 121.293 72.8084 121.206C73.0304 121.104 73.2596 121.017 73.4942 120.946C73.7398 120.872 73.9895 120.812 74.2419 120.766C74.4912 120.724 74.7434 120.701 74.9963 120.699C75.3529 120.698 75.7087 120.729 76.0594 120.792C76.3654 120.844 76.6546 120.965 76.9031 121.146C77.1446 121.349 77.3208 121.616 77.4106 121.914C77.5237 122.351 77.5424 122.805 77.4655 123.25L77.1225 125.921C77.0951 126.179 77.1156 126.332 77.1842 126.381C77.2514 126.43 77.3335 126.456 77.4175 126.455C77.5196 126.45 77.6187 126.42 77.7055 126.368L77.2803 128.291C77.124 128.344 76.9635 128.385 76.8002 128.411C76.6195 128.445 76.4355 128.461 76.2515 128.458C75.9193 128.472 75.5912 128.382 75.3149 128.202C75.0386 128.022 74.8286 127.761 74.7151 127.456C74.5059 127.755 74.232 128.006 73.9126 128.191C73.5731 128.374 73.1896 128.467 72.8015 128.458C72.5079 128.462 72.2151 128.428 71.9305 128.358C71.6917 128.305 71.4701 128.194 71.2857 128.037C71.1013 127.874 70.9641 127.667 70.888 127.436C70.7899 127.13 70.7435 126.809 70.7507 126.488C70.7515 126.262 70.7838 126.038 70.8468 125.82C70.919 125.583 71.0277 125.358 71.1691 125.153C71.3288 124.925 71.5205 124.721 71.7384 124.545C71.9924 124.343 72.274 124.177 72.5752 124.051C72.9589 123.89 73.3589 123.769 73.7686 123.69C74.1936 123.607 74.6248 123.558 75.058 123.543L75.0992 123.169C75.1284 123.081 75.126 122.985 75.0924 122.898C75.0588 122.81 74.996 122.737 74.914 122.689C74.7434 122.592 74.5487 122.544 74.3516 122.548C73.9023 122.54 73.4547 122.605 73.0279 122.742C72.6358 122.868 72.2623 123.043 71.9168 123.263L72.2597 121.507ZM73.7892 126.682C73.9313 126.691 74.0738 126.672 74.2082 126.626C74.3425 126.58 74.466 126.508 74.5711 126.415L74.8455 124.792C74.6624 124.809 74.4825 124.849 74.3105 124.912C74.1427 124.976 73.9855 125.064 73.844 125.173C73.708 125.273 73.5957 125.4 73.5148 125.547C73.4298 125.71 73.3874 125.891 73.3913 126.074C73.3701 126.244 73.4088 126.416 73.5011 126.562C73.5369 126.601 73.5813 126.633 73.6311 126.653C73.681 126.674 73.735 126.684 73.7892 126.682Z" fill="#0071BB"/>
<path d="M83.2886 124.345L84.9622 128.298H82.2941L81.2996 125.868L79.8112 128.298H77.7124L80.408 124.212L79.0362 120.946H81.6631L82.4313 122.749L83.5767 120.946H85.6344L83.2886 124.345Z" fill="#0071BB"/>
<path d="M93.124 122.649C93.473 121.574 93.743 120.476 93.933 119.364L94.125 118.289H87.267L86.958 119.945H91.951C91.785 120.849 91.555 121.741 91.265 122.616H85.5862L85.2776 124.285H88.611L87.884 128.231H89.777L90.511 124.285H93.94L94.249 122.616L93.124 122.649Z" fill="#0071BB"/>
<path d="M102.61 121.494H97.6229L97.6579 121.32H102.472L103.042 118.302H96.4499L96.1759 119.764H100.998L100.963 119.951H96.1489L95.5859 122.963H102.335L102.61 121.494Z" fill="#0071BB"/>
<path d="M94.585 128.265H101.238L101.862 124.926H95.209L94.585 128.265ZM99.818 126.455L99.763 126.755H96.622L96.684 126.455H99.818Z" fill="#0071BB"/>
<path d="M94.5299 123.156L94.2419 124.665H102.836L103.117 123.156H94.5299Z" fill="#0071BB"/>
<path d="M43.3681 174.312V175.288H46.2801V176.76H47.5921V165.832H46.2801V174.312H43.3681ZM40.4401 167.384C41.8001 167.384 42.7281 167.992 42.7281 168.904C42.7281 169.832 41.8001 170.44 40.4401 170.44C39.0801 170.44 38.1521 169.832 38.1521 168.904C38.1521 167.992 39.0801 167.384 40.4401 167.384ZM40.4401 171.416C42.5361 171.416 43.9761 170.44 43.9761 168.904C43.9761 167.4 42.5361 166.408 40.4401 166.408C38.3441 166.408 36.9041 167.4 36.9041 168.904C36.9041 170.44 38.3441 171.416 40.4401 171.416ZM39.9281 176.248H41.2401V173.416C42.5361 173.336 43.8641 173.192 45.1281 173L45.0161 172.056C41.9761 172.44 38.4241 172.472 35.7681 172.472L35.9441 173.56C37.1281 173.56 38.5041 173.544 39.9281 173.48V176.248ZM39.1281 178.792V175.688H37.8161V179.864H47.9601V178.792H39.1281ZM52.7909 176.088H61.0629V180.152H62.3909V175.032H52.7909V176.088ZM61.0629 165.832V168.392H57.8949C58.0229 167.88 58.0869 167.336 58.0869 166.792H51.5269V167.864H56.6789C56.4229 170.312 54.2469 172.216 50.7748 173.16L51.3029 174.216C54.3749 173.352 56.5989 171.72 57.5589 169.464H61.0629V171.432H57.3509V172.504H61.0629V174.392H62.3909V165.832H61.0629ZM77.3277 172.504C75.2477 171.768 73.8397 169.976 73.8397 168.136V167.768H76.9917V166.696H69.3277V167.768H72.5277V168.136C72.5277 170.184 71.0397 172.088 68.9117 172.84L69.5997 173.88C71.2797 173.24 72.5917 171.944 73.1997 170.296C73.8397 171.768 75.0717 172.952 76.6717 173.544L77.3277 172.504ZM79.3757 178.92H72.7837V177.112H79.3757V178.92ZM79.3757 176.088H72.7837V174.312H71.4877V179.992H80.6717V174.312H79.3757V176.088ZM79.3597 165.848V169.32H76.5277V170.392H79.3597V173.624H80.6717V165.848H79.3597ZM95.7741 170.552C93.2141 170.2 90.7341 168.6 90.7341 166.696V166.056H89.3901V166.696C89.3901 168.6 86.9101 170.2 84.3665 170.552L84.8625 171.608C87.0541 171.24 89.1661 170.104 90.0621 168.456C90.9741 170.104 93.0861 171.24 95.2781 171.608L95.7741 170.552ZM85.0225 176.568H93.6461V180.2H94.9581V175.496H85.0225V176.568ZM90.7181 173.032V170.84H89.4061V173.032H83.5825V174.104H96.6061V173.032H90.7181ZM102.631 179H104.119V174.344H106.055C108.631 174.344 110.375 173.192 110.375 170.712C110.375 168.152 108.615 167.256 105.991 167.256H102.631V179ZM104.119 173.144V168.472H105.799C107.863 168.472 108.903 169.016 108.903 170.712C108.903 172.392 107.927 173.144 105.863 173.144H104.119ZM117.173 179.208C118.693 179.208 119.845 178.6 120.773 177.528L119.957 176.6C119.205 177.416 118.357 177.912 117.237 177.912C114.997 177.912 113.589 176.056 113.589 173.096C113.589 170.168 115.061 168.344 117.285 168.344C118.293 168.344 119.077 168.808 119.685 169.464L120.485 168.504C119.813 167.752 118.693 167.048 117.269 167.048C114.293 167.048 112.069 169.352 112.069 173.144C112.069 176.952 114.261 179.208 117.173 179.208Z" fill="#3C3C3C"/>
<path d="M258.823 37.3051V75.6514C258.823 75.824 258.789 75.9949 258.723 76.1542C258.657 76.3136 258.56 76.4582 258.438 76.5799C258.316 76.7016 258.171 76.798 258.012 76.8634C257.852 76.9287 257.682 76.9619 257.509 76.9609H200.483C200.311 76.9619 200.141 76.9287 199.982 76.8632C199.823 76.7977 199.679 76.7013 199.557 76.5795C199.436 76.4577 199.339 76.313 199.274 76.1537C199.209 75.9943 199.176 75.8236 199.177 75.6514V37.3051C199.177 36.9571 199.314 36.6233 199.559 36.3765C199.804 36.1298 200.136 35.9902 200.483 35.9883H257.517C257.865 35.9902 258.198 36.1295 258.444 36.376C258.69 36.6226 258.829 36.9564 258.831 37.3051H258.823Z" fill="#E7F3FF"/>
<path d="M258.823 75.7511C258.822 76.0998 258.683 76.4336 258.437 76.6801C258.191 76.9266 257.857 77.066 257.509 77.0679H200.483C200.135 77.066 199.802 76.9266 199.556 76.6801C199.31 76.4336 199.171 76.0998 199.169 75.7511V37.4641C199.171 37.1161 199.311 36.783 199.557 36.5376C199.803 36.2923 200.136 36.1546 200.483 36.1546H257.517C257.864 36.1546 258.197 36.2923 258.443 36.5376C258.689 36.783 258.829 37.1161 258.831 37.4641V75.7511H258.823ZM257.517 33H200.483C199.295 33.0019 198.156 33.4759 197.315 34.3181C196.475 35.1603 196.002 36.302 196 37.493V75.78C196.002 76.9711 196.475 78.1128 197.315 78.955C198.156 79.7972 199.295 80.2712 200.483 80.2731H257.517C258.706 80.2731 259.846 79.7997 260.687 78.9571C261.528 78.1145 262 76.9717 262 75.78V37.493C261.998 36.302 261.525 35.1603 260.685 34.3181C259.844 33.4759 258.705 33.0019 257.517 33Z" fill="#485F74"/>
<path d="M235.468 85.7698H222.322L223.744 83.0174L225.166 80.2729H232.624L234.046 83.0174L235.468 85.7698Z" fill="#485F74"/>
<path d="M243.157 87.9691H215.457V87.0434C215.457 86.3199 216.388 85.77 217.529 85.77H241.085C242.233 85.77 243.157 86.3416 243.157 87.0434V87.9763V87.9691Z" fill="#485F74"/>
<path d="M213.184 106.64H206.144V104.352H213.184V106.64ZM214.48 103.312H204.864V107.68H214.48V103.312ZM216.16 109.936V108.88H203.168V109.936H209.008V111.344H204.736V112.336H213.2V113.616H204.784V117.024H214.928V116H206.064V114.576H214.496V111.344H210.32V109.936H216.16ZM220.047 109.28H225.343V104.16H218.687V105.232H224.015V108.224H218.735V113.728H219.919C222.383 113.728 224.559 113.632 227.151 113.2L227.023 112.128C224.511 112.528 222.399 112.64 220.047 112.64V109.28ZM228.367 102.816V117.2H229.679V102.816H228.367ZM236.952 116H238.44V111.344H240.376C242.952 111.344 244.696 110.192 244.696 107.712C244.696 105.152 242.936 104.256 240.312 104.256H236.952V116ZM238.44 110.144V105.472H240.12C242.184 105.472 243.224 106.016 243.224 107.712C243.224 109.392 242.248 110.144 240.184 110.144H238.44ZM251.493 116.208C253.013 116.208 254.165 115.6 255.093 114.528L254.277 113.6C253.525 114.416 252.677 114.912 251.557 114.912C249.317 114.912 247.909 113.056 247.909 110.096C247.909 107.168 249.381 105.344 251.605 105.344C252.613 105.344 253.397 105.808 254.005 106.464L254.805 105.504C254.133 104.752 253.013 104.048 251.589 104.048C248.613 104.048 246.389 106.352 246.389 110.144C246.389 113.952 248.581 116.208 251.493 116.208Z" fill="#3C3C3C"/>
<path d="M203.952 260.368V261.456H209.216C208.912 264.848 206.944 267.6 203.28 269.44L204 270.464C208.64 268.144 210.512 264.448 210.512 260.368H203.952ZM216.528 264.656H214.224V258.832H212.912V273.184H214.224V265.744H216.528V264.656ZM226.191 265.584C224.127 264.88 222.719 263.088 222.719 261.152V259.568H221.407V261.04C221.407 263.232 220.015 265.184 217.839 265.968L218.527 267.008C220.207 266.368 221.487 265.056 222.079 263.376C222.719 264.848 223.951 266.032 225.503 266.608L226.191 265.584ZM224.479 272.144C222.351 272.144 221.055 271.552 221.055 270.56C221.055 269.552 222.351 268.96 224.479 268.96C226.591 268.96 227.887 269.552 227.887 270.56C227.887 271.552 226.591 272.144 224.479 272.144ZM224.479 267.936C221.551 267.936 219.743 268.88 219.743 270.56C219.743 272.224 221.551 273.168 224.479 273.168C227.391 273.168 229.199 272.224 229.199 270.56C229.199 268.88 227.391 267.936 224.479 267.936ZM229.039 262.544V258.848H227.727V267.536H229.039V263.632H231.167V262.544H229.039ZM236.952 272H238.44V267.344H240.376C242.952 267.344 244.696 266.192 244.696 263.712C244.696 261.152 242.936 260.256 240.312 260.256H236.952V272ZM238.44 266.144V261.472H240.12C242.184 261.472 243.224 262.016 243.224 263.712C243.224 265.392 242.248 266.144 240.184 266.144H238.44ZM251.493 272.208C253.013 272.208 254.165 271.6 255.093 270.528L254.277 269.6C253.525 270.416 252.677 270.912 251.557 270.912C249.317 270.912 247.909 269.056 247.909 266.096C247.909 263.168 249.381 261.344 251.605 261.344C252.613 261.344 253.397 261.808 254.005 262.464L254.805 261.504C254.133 260.752 253.013 260.048 251.589 260.048C248.613 260.048 246.389 262.352 246.389 266.144C246.389 269.952 248.581 272.208 251.493 272.208Z" fill="#3C3C3C"/>
<path d="M256 189H204C202.895 189 202 189.895 202 191V204C202 205.105 202.895 206 204 206H256C257.105 206 258 205.105 258 204V191C258 189.895 257.105 189 256 189Z" fill="#007DF1"/>
<path d="M212 193H209V202H212V193Z" fill="#0063C0"/>
<path d="M218 193H215V202H218V193Z" fill="#0063C0"/>
<path d="M224 193H221V202H224V193Z" fill="#0063C0"/>
<path d="M243.5 199C244.328 199 245 198.328 245 197.5C245 196.672 244.328 196 243.5 196C242.672 196 242 196.672 242 197.5C242 198.328 242.672 199 243.5 199Z" fill="#4AA5FA"/>
<path d="M236.5 199C237.328 199 238 198.328 238 197.5C238 196.672 237.328 196 236.5 196C235.672 196 235 196.672 235 197.5C235 198.328 235.672 199 236.5 199Z" fill="#4AA5FA"/>
<path d="M250.5 199C251.328 199 252 198.328 252 197.5C252 196.672 251.328 196 250.5 196C249.672 196 249 196.672 249 197.5C249 198.328 249.672 199 250.5 199Z" fill="#4AA5FA"/>
<path d="M256 208H204C202.895 208 202 208.895 202 210V223C202 224.105 202.895 225 204 225H256C257.105 225 258 224.105 258 223V210C258 208.895 257.105 208 256 208Z" fill="#007DF1"/>
<path d="M212 212H209V221H212V212Z" fill="#0063C0"/>
<path d="M218 212H215V221H218V212Z" fill="#0063C0"/>
<path d="M224 212H221V221H224V212Z" fill="#0063C0"/>
<path d="M243.5 218C244.328 218 245 217.328 245 216.5C245 215.672 244.328 215 243.5 215C242.672 215 242 215.672 242 216.5C242 217.328 242.672 218 243.5 218Z" fill="#4AA5FA"/>
<path d="M236.5 218C237.328 218 238 217.328 238 216.5C238 215.672 237.328 215 236.5 215C235.672 215 235 215.672 235 216.5C235 217.328 235.672 218 236.5 218Z" fill="#4AA5FA"/>
<path d="M250.5 218C251.328 218 252 217.328 252 216.5C252 215.672 251.328 215 250.5 215C249.672 215 249 215.672 249 216.5C249 217.328 249.672 218 250.5 218Z" fill="#4AA5FA"/>
<path d="M256 227H204C202.895 227 202 227.895 202 229V242C202 243.105 202.895 244 204 244H256C257.105 244 258 243.105 258 242V229C258 227.895 257.105 227 256 227Z" fill="#007DF1"/>
<path d="M212 231H209V240H212V231Z" fill="#0063C0"/>
<path d="M218 231H215V240H218V231Z" fill="#0063C0"/>
<path d="M224 231H221V240H224V231Z" fill="#0063C0"/>
<path d="M243.5 237C244.328 237 245 236.328 245 235.5C245 234.672 244.328 234 243.5 234C242.672 234 242 234.672 242 235.5C242 236.328 242.672 237 243.5 237Z" fill="#4AA5FA"/>
<path d="M236.5 237C237.328 237 238 236.328 238 235.5C238 234.672 237.328 234 236.5 234C235.672 234 235 234.672 235 235.5C235 236.328 235.672 237 236.5 237Z" fill="#4AA5FA"/>
<path d="M250.5 237C251.328 237 252 236.328 252 235.5C252 234.672 251.328 234 250.5 234C249.672 234 249 234.672 249 235.5C249 236.328 249.672 237 250.5 237Z" fill="#4AA5FA"/>
<path d="M178 58.0001L173 55.1133V60.8869L178 58.0001ZM77.5 86.0001C77.5 85.6708 77.5058 85.3429 77.5173 85.0164L76.5179 84.9813C76.506 85.3194 76.5 85.6591 76.5 86.0001H77.5ZM77.6554 83.0588C77.7251 82.4034 77.8178 81.755 77.9326 81.1143L76.9483 80.9378C76.8293 81.6019 76.7332 82.2739 76.661 82.953L77.6554 83.0588ZM78.3479 79.1967C78.5101 78.5594 78.6946 77.931 78.9004 77.3123L77.9515 76.9966C77.7381 77.638 77.5469 78.2894 77.3788 78.9501L78.3479 79.1967ZM79.5865 75.4736C79.838 74.8672 80.1105 74.2718 80.4032 73.6882L79.5093 73.2399C79.2059 73.8448 78.9234 74.462 78.6628 75.0905L79.5865 75.4736ZM81.3455 71.9661C81.6806 71.4026 82.0352 70.852 82.4085 70.3154L81.5875 69.7444C81.2007 70.3005 80.8332 70.871 80.486 71.455L81.3455 71.9661ZM83.5863 68.7445C83.9976 68.2348 84.4267 67.74 84.8727 67.2612L84.1409 66.5796C83.6788 67.0757 83.2342 67.5884 82.808 68.1166L83.5863 68.7445ZM86.261 65.8728C86.74 65.4268 87.235 64.9976 87.744 64.5864L87.116 63.8081C86.588 64.2343 86.076 64.6789 85.5795 65.141L86.261 65.8728ZM89.315 63.4086C89.852 63.0353 90.402 62.6806 90.966 62.3456L90.455 61.486C89.871 61.8333 89.3 62.2008 88.744 62.5876L89.315 63.4086ZM92.688 61.4033C93.272 61.1106 93.867 60.8381 94.473 60.5866L94.09 59.6629C93.462 59.9235 92.845 60.206 92.24 60.5094L92.688 61.4033ZM96.312 59.9005C96.931 59.6946 97.559 59.5102 98.197 59.348L97.95 58.3789C97.289 58.547 96.638 58.7382 95.997 58.9516L96.312 59.9005ZM100.114 58.9327C100.755 58.8179 101.403 58.7252 102.059 58.6555L101.953 57.6611C101.274 57.7333 100.602 57.8294 99.938 57.9484L100.114 58.9327ZM104.016 58.5174C104.343 58.5059 104.671 58.5001 105 58.5001V57.5001C104.659 57.5001 104.319 57.5061 103.981 57.518L104.016 58.5174ZM105 58.5001H106.014V57.5001H105V58.5001ZM108.042 58.5001H110.069V57.5001H108.042V58.5001ZM112.097 58.5001H114.125V57.5001H112.097V58.5001ZM116.153 58.5001H118.181V57.5001H116.153V58.5001ZM120.208 58.5001H122.236V57.5001H120.208V58.5001ZM124.264 58.5001H126.292V57.5001H124.264V58.5001ZM128.319 58.5001H130.347V57.5001H128.319V58.5001ZM132.375 58.5001H134.403V57.5001H132.375V58.5001ZM136.431 58.5001H138.458V57.5001H136.431V58.5001ZM140.486 58.5001H142.514V57.5001H140.486V58.5001ZM144.542 58.5001H146.569V57.5001H144.542V58.5001ZM148.597 58.5001H150.625V57.5001H148.597V58.5001ZM152.653 58.5001H154.681V57.5001H152.653V58.5001ZM156.708 58.5001H158.736V57.5001H156.708V58.5001ZM160.764 58.5001H162.792V57.5001H160.764V58.5001ZM164.819 58.5001H166.847V57.5001H164.819V58.5001ZM168.875 58.5001H170.903V57.5001H168.875V58.5001ZM172.931 58.5001H174.958V57.5001H172.931V58.5001Z" fill="#708293"/>
<path d="M178 225L173 227.887V222.113L178 225ZM77.5 197C77.5 197.329 77.5058 197.657 77.5173 197.984L76.5179 198.019C76.506 197.681 76.5 197.341 76.5 197H77.5ZM77.6554 199.941C77.7251 200.597 77.8178 201.245 77.9326 201.886L76.9483 202.062C76.8293 201.398 76.7332 200.726 76.661 200.047L77.6554 199.941ZM78.3479 203.803C78.5101 204.441 78.6946 205.069 78.9004 205.688L77.9515 206.003C77.7381 205.362 77.5469 204.711 77.3788 204.05L78.3479 203.803ZM79.5865 207.527C79.838 208.133 80.1105 208.728 80.4032 209.312L79.5093 209.76C79.2059 209.155 78.9234 208.538 78.6628 207.91L79.5865 207.527ZM81.3455 211.034C81.6806 211.598 82.0352 212.148 82.4085 212.685L81.5875 213.256C81.2007 212.7 80.8332 212.129 80.486 211.545L81.3455 211.034ZM83.5863 214.256C83.9976 214.765 84.4267 215.26 84.8727 215.739L84.1409 216.42C83.6788 215.924 83.2342 215.412 82.808 214.884L83.5863 214.256ZM86.261 217.127C86.74 217.573 87.235 218.002 87.744 218.414L87.116 219.192C86.588 218.766 86.076 218.321 85.5795 217.859L86.261 217.127ZM89.315 219.592C89.852 219.965 90.402 220.319 90.966 220.655L90.455 221.514C89.871 221.167 89.3 220.799 88.744 220.412L89.315 219.592ZM92.688 221.597C93.272 221.89 93.867 222.162 94.473 222.413L94.09 223.337C93.462 223.077 92.845 222.794 92.24 222.491L92.688 221.597ZM96.312 223.1C96.931 223.305 97.559 223.49 98.197 223.652L97.95 224.621C97.289 224.453 96.638 224.262 95.997 224.048L96.312 223.1ZM100.114 224.067C100.755 224.182 101.403 224.275 102.059 224.345L101.953 225.339C101.274 225.267 100.602 225.171 99.938 225.052L100.114 224.067ZM104.016 224.483C104.343 224.494 104.671 224.5 105 224.5V225.5C104.659 225.5 104.319 225.494 103.981 225.482L104.016 224.483ZM105 224.5H106.014V225.5H105V224.5ZM108.042 224.5H110.069V225.5H108.042V224.5ZM112.097 224.5H114.125V225.5H112.097V224.5ZM116.153 224.5H118.181V225.5H116.153V224.5ZM120.208 224.5H122.236V225.5H120.208V224.5ZM124.264 224.5H126.292V225.5H124.264V224.5ZM128.319 224.5H130.347V225.5H128.319V224.5ZM132.375 224.5H134.403V225.5H132.375V224.5ZM136.431 224.5H138.458V225.5H136.431V224.5ZM140.486 224.5H142.514V225.5H140.486V224.5ZM144.542 224.5H146.569V225.5H144.542V224.5ZM148.597 224.5H150.625V225.5H148.597V224.5ZM152.653 224.5H154.681V225.5H152.653V224.5ZM156.708 224.5H158.736V225.5H156.708V224.5ZM160.764 224.5H162.792V225.5H160.764V224.5ZM164.819 224.5H166.847V225.5H164.819V224.5ZM168.875 224.5H170.903V225.5H168.875V224.5ZM172.931 224.5H174.958V225.5H172.931V224.5Z" fill="#708293"/>
<path d="M162.968 316.002C158.876 315.996 154.882 317.251 151.53 319.594C148.528 317.504 145.01 316.275 141.358 316.041C137.706 315.807 134.06 316.578 130.816 318.268C127.572 319.959 124.853 322.506 122.956 325.631C121.06 328.756 120.057 332.341 120.057 335.996C120.057 339.651 121.06 343.236 122.956 346.361C124.853 349.487 127.572 352.033 130.816 353.724C134.06 355.415 137.706 356.185 141.358 355.951C145.01 355.718 148.528 354.489 151.53 352.398C154.108 354.196 157.073 355.362 160.186 355.802C163.299 356.242 166.472 355.943 169.448 354.93C172.424 353.917 175.119 352.219 177.315 349.971C179.511 347.724 181.146 344.992 182.088 341.996C183.03 339.001 183.252 335.825 182.736 332.728C182.22 329.63 180.981 326.698 179.119 324.168C177.257 321.638 174.824 319.581 172.018 318.165C169.212 316.749 166.112 316.013 162.968 316.016V316.002Z" fill="white"/>
<path d="M181.481 328.377C181.156 327.59 180.782 326.825 180.36 326.086L159.105 342.248L151.53 347.995L148.569 349.861L138.925 355.924C139.312 355.948 139.7 355.962 140.088 355.962C141.303 355.962 142.516 355.853 143.712 355.635L149.316 350.574L151.544 348.555L158.498 343.862L181.481 328.377Z" fill="#DE1520"/>
<path d="M181.836 329.301L151.726 352.539C155.218 354.905 159.369 356.109 163.586 355.979C167.804 355.849 171.872 354.392 175.211 351.815C178.55 349.238 180.988 345.674 182.178 341.63C183.367 337.587 183.248 333.272 181.836 329.301Z" fill="#DE1520"/>
<path d="M140.088 316.002C136.883 316.004 133.725 316.774 130.88 318.247C128.035 319.72 125.585 321.854 123.737 324.469C121.889 327.084 120.696 330.104 120.259 333.275C119.822 336.446 120.153 339.675 121.225 342.692L151.329 319.449C148.014 317.199 144.097 315.998 140.088 316.002Z" fill="#DE1520"/>
<path d="M151.53 332.174L158.311 327.705L172.467 318.377C171.631 317.926 170.763 317.536 169.87 317.21L157.807 326.67L151.53 331.591L142.993 337.305L125.124 349.259C125.691 349.896 126.298 350.496 126.941 351.055L143.124 338.62L151.53 332.174Z" fill="#DE1520"/>
<path d="M151.53 336.278L159.47 330.999L175.456 320.373C174.766 319.822 174.041 319.317 173.284 318.862L159.133 329.804L151.53 335.691L143.591 340.976L127.609 351.606C128.299 352.157 129.024 352.661 129.781 353.117L143.932 342.156L151.53 336.278Z" fill="#DE1520"/>
<path d="M151.53 340.378L160.063 334.669L177.931 322.714C177.367 322.078 176.762 321.48 176.119 320.923L159.932 333.354L151.525 339.805L144.744 344.264L130.593 353.593C131.428 354.043 132.295 354.434 133.185 354.763L145.248 345.299L151.53 340.378Z" fill="#DE1520"/>
<path d="M151.53 328.074L156.667 324.753L168.81 316.865C167.775 316.551 166.716 316.321 165.644 316.18L156.027 323.895L151.535 327.5L143.161 333.13L123.121 346.596C123.567 347.31 124.06 347.994 124.596 348.644L142.997 334.581L151.53 328.074Z" fill="#DE1520"/>
<path d="M151.53 323.965L154.486 322.099L164.121 316.035C163.738 316.012 163.355 316.002 162.968 316.002C161.76 316.003 160.555 316.11 159.367 316.324L153.762 321.39L151.535 323.4L144.581 328.093L121.565 343.616C121.889 344.402 122.263 345.167 122.686 345.906L143.941 329.73L151.53 323.965Z" fill="#DE1520"/>
<path d="M151.53 344.483L159.904 338.853L179.939 325.387C179.491 324.674 178.998 323.99 178.464 323.339L160.058 337.398L151.53 343.928L146.393 347.254L134.25 355.141C135.284 355.458 136.344 355.687 137.416 355.827L147.033 348.112L151.53 344.483Z" fill="#DE1520"/>
<path d="M118.535 361.522C118.347 361.524 118.163 361.573 118 361.665C117.836 361.757 117.699 361.889 117.601 362.049V359.889H115.387V368.789H107.989V367.175H105.78V368.803C105.78 369.247 105.957 369.673 106.271 369.987C106.586 370.301 107.012 370.477 107.457 370.477H117.582V368.905V363.238C117.68 363.398 117.818 363.53 117.981 363.622C118.144 363.714 118.328 363.763 118.516 363.765C118.669 363.775 118.823 363.754 118.968 363.702C119.113 363.65 119.246 363.569 119.358 363.464C119.47 363.358 119.56 363.231 119.621 363.09C119.682 362.949 119.714 362.797 119.714 362.643C119.714 362.49 119.682 362.338 119.621 362.197C119.56 362.056 119.47 361.929 119.358 361.823C119.246 361.718 119.113 361.637 118.968 361.585C118.823 361.533 118.669 361.512 118.516 361.522H118.535Z" fill="#174591"/>
<path d="M133.428 361.96V361.909C133.428 361.689 133.385 361.471 133.3 361.268C133.216 361.065 133.093 360.88 132.937 360.725C132.781 360.569 132.596 360.446 132.393 360.362C132.19 360.278 131.972 360.234 131.751 360.234H121.752V361.923H131.219V363.299H121.056V364.987H126.703C126.54 365.184 126.45 365.431 126.45 365.687C126.45 365.942 126.54 366.19 126.703 366.387H121.752V368.052H131.219V370.482H133.428V368.052C133.428 367.608 133.251 367.182 132.937 366.868C132.623 366.554 132.196 366.377 131.751 366.377H128.482C128.643 366.179 128.732 365.933 128.734 365.678C128.735 365.43 128.651 365.19 128.496 364.997H134.152V363.308H133.428V361.96Z" fill="#174591"/>
<path d="M179.893 361.96V361.909C179.893 361.689 179.849 361.471 179.765 361.268C179.681 361.065 179.557 360.88 179.402 360.725C179.246 360.569 179.061 360.446 178.858 360.362C178.654 360.278 178.436 360.234 178.216 360.234H168.222V361.923H177.684V363.877H174.298C174.43 363.695 174.502 363.477 174.503 363.252C174.503 362.969 174.391 362.697 174.19 362.497C173.99 362.297 173.717 362.184 173.434 362.184C173.15 362.184 172.878 362.297 172.678 362.497C172.477 362.697 172.364 362.969 172.364 363.252C172.366 363.477 172.438 363.695 172.57 363.877H167.521V365.566H171.916C171.485 365.992 171.19 366.536 171.069 367.129C170.948 367.723 171.007 368.339 171.237 368.899C171.468 369.46 171.86 369.939 172.363 370.276C172.867 370.613 173.46 370.794 174.067 370.794C174.673 370.794 175.266 370.613 175.77 370.276C176.274 369.939 176.666 369.46 176.896 368.899C177.127 368.339 177.185 367.723 177.064 367.129C176.943 366.536 176.649 365.992 176.217 365.566H180.603V363.877H179.897L179.893 361.96ZM174.06 368.812C173.845 368.812 173.635 368.749 173.457 368.629C173.279 368.51 173.14 368.341 173.058 368.143C172.976 367.945 172.955 367.727 172.997 367.517C173.039 367.307 173.143 367.114 173.295 366.963C173.447 366.812 173.641 366.709 173.851 366.668C174.062 366.627 174.28 366.649 174.478 366.732C174.675 366.814 174.844 366.954 174.963 367.132C175.081 367.311 175.144 367.52 175.143 367.735C175.143 367.877 175.115 368.017 175.061 368.148C175.006 368.279 174.926 368.398 174.826 368.498C174.725 368.598 174.605 368.678 174.474 368.731C174.343 368.785 174.202 368.813 174.06 368.812Z" fill="#174591"/>
<path d="M138.435 366.018L140.896 361.918H140.901L143.343 366.014H145.552L143.11 361.918H145.314V360.23H136.468V361.918H138.687L136.226 366.018H138.435Z" fill="#174591"/>
<path d="M149.036 359.894H146.822V362.786C146.693 362.579 146.499 362.42 146.271 362.333C146.043 362.246 145.792 362.235 145.558 362.303C145.323 362.37 145.116 362.512 144.97 362.707C144.823 362.902 144.743 363.139 144.743 363.383C144.743 363.627 144.823 363.864 144.97 364.059C145.116 364.254 145.323 364.396 145.558 364.463C145.792 364.531 146.043 364.52 146.271 364.433C146.499 364.346 146.693 364.187 146.822 363.98V368.794H139.443V366.928H137.229V368.794C137.229 369.238 137.406 369.664 137.721 369.978C138.035 370.292 138.461 370.468 138.906 370.468H149.031V368.78L149.036 359.894Z" fill="#174591"/>
<path d="M162.585 361.312C162.459 361.119 162.274 360.972 162.058 360.892C161.841 360.813 161.605 360.805 161.384 360.871C161.163 360.937 160.969 361.072 160.831 361.256C160.694 361.441 160.619 361.665 160.619 361.895C160.619 362.125 160.694 362.349 160.831 362.534C160.969 362.718 161.163 362.853 161.384 362.919C161.605 362.984 161.841 362.977 162.058 362.897C162.274 362.818 162.459 362.671 162.585 362.478V363.924C162.459 363.731 162.274 363.583 162.058 363.503C161.842 363.423 161.605 363.415 161.384 363.48C161.163 363.546 160.968 363.681 160.83 363.865C160.692 364.05 160.618 364.274 160.618 364.505C160.618 364.735 160.692 364.959 160.83 365.144C160.968 365.329 161.163 365.464 161.384 365.529C161.605 365.594 161.842 365.586 162.058 365.506C162.274 365.427 162.459 365.279 162.585 365.085V366.653H153.006V368.341H162.585V370.496H164.794V359.903H162.585V361.312Z" fill="#174591"/>
<path d="M195.865 362.254C195.678 362.257 195.494 362.306 195.33 362.398C195.167 362.49 195.03 362.622 194.931 362.781V359.894H192.722V370.487H194.931V363.957C195.035 364.122 195.181 364.257 195.354 364.348C195.526 364.44 195.72 364.485 195.915 364.478C196.111 364.472 196.301 364.415 196.468 364.312C196.634 364.21 196.771 364.066 196.864 363.894C196.957 363.723 197.004 363.53 197 363.334C196.995 363.139 196.94 362.949 196.839 362.781C196.738 362.614 196.595 362.476 196.424 362.381C196.253 362.286 196.06 362.238 195.865 362.24V362.254Z" fill="#174591"/>
<path d="M106.733 364.479C106.729 364.917 106.833 365.349 107.033 365.739C107.234 366.128 107.527 366.463 107.886 366.714C108.245 366.966 108.66 367.127 109.095 367.183C109.53 367.239 109.972 367.188 110.383 367.036C110.794 366.884 111.162 366.634 111.455 366.309C111.749 365.983 111.958 365.591 112.066 365.167C112.175 364.742 112.178 364.298 112.076 363.872C111.974 363.446 111.771 363.051 111.482 362.721H113.86V361.028H110.025C110.18 360.927 110.307 360.787 110.392 360.623C110.477 360.458 110.517 360.275 110.51 360.09C110.503 359.905 110.447 359.725 110.349 359.568C110.251 359.411 110.114 359.282 109.951 359.194C109.788 359.105 109.605 359.061 109.42 359.065C109.235 359.068 109.054 359.12 108.895 359.215C108.735 359.309 108.604 359.444 108.512 359.604C108.42 359.765 108.372 359.947 108.372 360.132C108.369 360.308 108.41 360.483 108.492 360.639C108.573 360.795 108.693 360.929 108.839 361.028H105V362.721H107.377C106.959 363.211 106.73 363.835 106.733 364.479ZM109.441 363.523C109.631 363.524 109.815 363.581 109.972 363.686C110.129 363.792 110.251 363.942 110.323 364.117C110.394 364.291 110.413 364.483 110.375 364.669C110.338 364.854 110.246 365.024 110.112 365.157C109.978 365.29 109.807 365.381 109.622 365.417C109.436 365.454 109.244 365.435 109.069 365.362C108.895 365.29 108.745 365.167 108.64 365.01C108.535 364.853 108.479 364.668 108.479 364.479C108.479 364.228 108.578 363.987 108.755 363.808C108.931 363.629 109.171 363.527 109.423 363.523H109.441Z" fill="#174591"/>
<path d="M188.005 360.23H186.683H185.796L182.671 365.566H184.88L187.342 361.363L189.784 365.561H191.998L188.897 360.23H188.005Z" fill="#174591"/>
<path d="M153.926 366.009H160.25V364.451H154.458V363.901H160.245V363.532V361.793C160.245 361.588 160.206 361.385 160.127 361.195C160.049 361.005 159.935 360.833 159.79 360.688C159.645 360.543 159.473 360.428 159.283 360.349C159.093 360.27 158.89 360.23 158.685 360.23H152.249V361.788H158.04V362.338H152.249V362.707V364.447C152.249 364.86 152.414 365.256 152.706 365.548C152.999 365.84 153.395 366.005 153.809 366.005L153.926 366.009Z" fill="#174591"/>
<path d="M132.265 372.007C131.747 372.007 131.251 372.213 130.885 372.578C130.519 372.944 130.313 373.44 130.313 373.957C130.313 374.474 130.519 374.97 130.885 375.336C131.251 375.701 131.747 375.907 132.265 375.907H132.952V375.048H132.265C131.979 375.048 131.705 374.935 131.502 374.733C131.3 374.531 131.186 374.257 131.186 373.971C131.186 373.685 131.3 373.411 131.502 373.209C131.705 373.007 131.979 372.894 132.265 372.894H132.952V372.021H132.265V372.007Z" fill="#174591"/>
<path d="M141.797 372.007C141.279 372.007 140.783 372.213 140.417 372.578C140.051 372.944 139.845 373.44 139.845 373.957C139.845 374.474 140.051 374.97 140.417 375.336C140.783 375.701 141.279 375.907 141.797 375.907H142.484V375.048H141.797C141.511 375.048 141.237 374.935 141.034 374.733C140.832 374.531 140.718 374.257 140.718 373.971C140.718 373.685 140.832 373.411 141.034 373.209C141.237 373.007 141.511 372.894 141.797 372.894H142.484V372.021H141.797V372.007Z" fill="#174591"/>
<path d="M164.023 375.048C163.749 375.03 163.491 374.909 163.303 374.708C163.115 374.508 163.011 374.243 163.011 373.969C163.011 373.694 163.115 373.43 163.303 373.229C163.491 373.029 163.749 372.907 164.023 372.889H164.709V372.017H164.023C163.505 372.017 163.009 372.222 162.643 372.588C162.277 372.953 162.071 373.449 162.071 373.966C162.071 374.483 162.277 374.979 162.643 375.345C163.009 375.711 163.505 375.916 164.023 375.916H164.709V375.048H164.023Z" fill="#174591"/>
<path d="M124.545 372.884H125.232V372.007H124.545C124.028 372.007 123.532 372.212 123.166 372.577C122.8 372.941 122.594 373.436 122.593 373.952C122.593 374.469 122.799 374.965 123.165 375.331C123.531 375.697 124.027 375.902 124.545 375.902H125.232V375.048H124.545C124.336 375.048 124.132 374.986 123.957 374.872C123.782 374.758 123.644 374.596 123.56 374.405H125.236V373.528H123.56C123.644 373.337 123.782 373.174 123.957 373.06C124.132 372.946 124.336 372.885 124.545 372.884Z" fill="#174591"/>
<path d="M157.186 372.884H157.872V372.007H157.186C156.93 372.007 156.676 372.057 156.439 372.154C156.202 372.251 155.987 372.395 155.806 372.575C155.624 372.756 155.48 372.971 155.382 373.207C155.284 373.443 155.234 373.697 155.234 373.952C155.234 374.469 155.439 374.965 155.805 375.331C156.172 375.697 156.668 375.902 157.186 375.902H157.872V375.049H157.186C156.976 375.048 156.771 374.988 156.595 374.873C156.419 374.759 156.281 374.596 156.196 374.405H157.877V373.528H156.2C156.285 373.337 156.422 373.174 156.597 373.06C156.772 372.946 156.977 372.885 157.186 372.884Z" fill="#174591"/>
<path d="M129.463 372.884H130.15V372.007H129.463C128.946 372.007 128.45 372.212 128.084 372.577C127.718 372.941 127.512 373.436 127.511 373.952C127.51 374.336 127.624 374.711 127.838 375.03H126.726C126.669 375.03 126.611 375.018 126.558 374.996C126.505 374.974 126.457 374.942 126.416 374.901C126.375 374.861 126.343 374.812 126.321 374.759C126.299 374.706 126.287 374.649 126.287 374.591V372.007H125.414V374.601C125.414 374.864 125.494 375.12 125.644 375.336C125.793 375.553 126.004 375.719 126.25 375.813C126.398 375.874 126.557 375.906 126.717 375.907H127.828V375.048C128.007 375.316 128.249 375.535 128.532 375.686C128.816 375.837 129.132 375.916 129.454 375.916H130.14V375.048H129.454C129.244 375.049 129.04 374.988 128.865 374.873C128.69 374.759 128.552 374.596 128.468 374.405H130.145V373.528H128.478C128.562 373.337 128.7 373.174 128.875 373.06C129.05 372.946 129.254 372.885 129.463 372.884Z" fill="#174591"/>
<path d="M117.754 372.87H118.441V371.998H117.754C117.237 371.998 116.74 372.203 116.374 372.569C116.008 372.935 115.802 373.431 115.802 373.948C115.802 374.465 116.008 374.962 116.374 375.328C116.74 375.695 117.236 375.901 117.754 375.902H118.441V375.049H117.754C117.544 375.049 117.338 374.987 117.162 374.872C116.986 374.757 116.848 374.593 116.764 374.4H118.446V373.528H116.769C116.852 373.335 116.989 373.169 117.164 373.053C117.339 372.936 117.544 372.873 117.754 372.87Z" fill="#174591"/>
<path d="M148.681 371.918C148.278 371.918 147.884 372.038 147.549 372.261C147.215 372.485 146.954 372.803 146.8 373.175C146.646 373.547 146.606 373.956 146.684 374.351C146.763 374.745 146.958 375.108 147.243 375.392C147.528 375.676 147.892 375.869 148.287 375.947C148.682 376.025 149.092 375.984 149.464 375.83C149.836 375.675 150.153 375.414 150.377 375.079C150.6 374.743 150.718 374.35 150.718 373.947C150.716 373.409 150.501 372.893 150.119 372.512C149.738 372.132 149.221 371.918 148.681 371.918ZM148.681 375.113C148.451 375.113 148.227 375.045 148.036 374.918C147.845 374.791 147.695 374.61 147.607 374.398C147.519 374.186 147.496 373.952 147.54 373.727C147.585 373.502 147.695 373.295 147.857 373.132C148.019 372.97 148.226 372.859 148.452 372.814C148.677 372.768 148.91 372.791 149.123 372.878C149.336 372.965 149.518 373.113 149.646 373.303C149.774 373.494 149.843 373.718 149.844 373.947C149.844 374.256 149.722 374.552 149.504 374.77C149.286 374.989 148.99 375.112 148.681 375.113Z" fill="#174591"/>
<path d="M146.617 372.842C146.521 372.598 146.355 372.387 146.138 372.238C145.922 372.09 145.665 372.009 145.403 372.007H143.899V372.88H145.384C145.445 372.873 145.507 372.88 145.565 372.899C145.624 372.918 145.677 372.949 145.723 372.99C145.769 373.031 145.805 373.081 145.83 373.138C145.855 373.194 145.868 373.254 145.868 373.316C145.868 373.377 145.855 373.438 145.83 373.494C145.805 373.55 145.769 373.6 145.723 373.641C145.677 373.682 145.624 373.714 145.565 373.733C145.507 373.752 145.445 373.758 145.384 373.752H143.889V375.911H144.763V374.624H145.417C145.757 374.614 146.081 374.473 146.319 374.229C146.557 373.985 146.691 373.658 146.692 373.318C146.695 373.156 146.67 372.995 146.617 372.842Z" fill="#174591"/>
<path d="M138.635 373.318C138.634 373.158 138.603 373.001 138.547 372.852C138.451 372.607 138.284 372.397 138.068 372.248C137.851 372.099 137.595 372.018 137.332 372.017H135.828V372.889H137.323C137.384 372.883 137.446 372.889 137.504 372.908C137.563 372.927 137.616 372.958 137.662 372.999C137.708 373.04 137.744 373.091 137.769 373.147C137.794 373.203 137.807 373.264 137.807 373.325C137.807 373.386 137.794 373.447 137.769 373.503C137.744 373.559 137.708 373.609 137.662 373.651C137.616 373.692 137.563 373.723 137.504 373.742C137.446 373.761 137.384 373.767 137.323 373.761H135.828V375.921H136.702V374.633H137.318C137.435 374.633 137.546 374.679 137.629 374.762C137.711 374.844 137.757 374.955 137.757 375.072V375.921H138.631V375.123C138.629 374.964 138.599 374.806 138.542 374.657C138.46 374.619 138.391 374.56 138.343 374.485C138.294 374.409 138.268 374.322 138.268 374.232C138.268 374.143 138.294 374.055 138.343 373.98C138.391 373.905 138.46 373.845 138.542 373.808C138.604 373.652 138.636 373.486 138.635 373.318Z" fill="#174591"/>
<path d="M108.33 375.048C108.056 375.03 107.798 374.909 107.61 374.708C107.422 374.508 107.318 374.243 107.318 373.969C107.318 373.694 107.422 373.43 107.61 373.229C107.798 373.029 108.056 372.907 108.33 372.889H109.017V372.017H108.33C107.991 372.018 107.657 372.108 107.363 372.277C107.069 372.447 106.825 372.69 106.653 372.982V372.017H105.78V375.921H106.653V374.951C106.824 375.244 107.069 375.487 107.363 375.657C107.657 375.826 107.99 375.915 108.33 375.916H109.017V375.048H108.33Z" fill="#174591"/>
<path d="M110.749 371.918C110.346 371.918 109.952 372.038 109.618 372.261C109.283 372.485 109.022 372.802 108.868 373.174C108.714 373.545 108.673 373.954 108.752 374.349C108.83 374.743 109.024 375.106 109.309 375.39C109.594 375.674 109.957 375.868 110.352 375.947C110.747 376.025 111.156 375.985 111.528 375.831C111.9 375.677 112.218 375.416 112.442 375.082C112.666 374.748 112.785 374.354 112.785 373.952C112.785 373.413 112.571 372.895 112.189 372.514C111.807 372.133 111.289 371.918 110.749 371.918ZM110.749 375.113C110.519 375.113 110.294 375.045 110.103 374.918C109.912 374.79 109.763 374.609 109.675 374.397C109.587 374.184 109.563 373.951 109.608 373.726C109.653 373.5 109.764 373.293 109.927 373.131C110.089 372.968 110.296 372.858 110.522 372.813C110.748 372.768 110.981 372.791 111.194 372.879C111.406 372.967 111.588 373.116 111.716 373.307C111.844 373.498 111.912 373.722 111.912 373.952C111.912 374.26 111.789 374.556 111.571 374.773C111.353 374.991 111.057 375.113 110.749 375.113Z" fill="#174591"/>
<path d="M133.956 372.007H133.129V372.884H133.956V375.911H134.829V372.884H135.656V372.007H134.829H133.956Z" fill="#174591"/>
<path d="M184.988 372.002H184.161V372.884H184.988V375.907H185.861V372.884H186.683V372.002H185.861H184.988Z" fill="#174591"/>
<path d="M139.686 372.007H138.813V375.911H139.686V372.007Z" fill="#174591"/>
<path d="M187.729 372.002H186.856V375.907H187.729V372.002Z" fill="#174591"/>
<path d="M120.412 372.008C120.112 371.888 119.778 371.888 119.478 372.008C119.233 372.102 119.022 372.269 118.872 372.485C118.723 372.701 118.643 372.958 118.642 373.22V375.907H119.515V374.974H120.389V375.907H121.267V373.183C121.256 372.925 121.169 372.675 121.017 372.466C120.865 372.257 120.655 372.097 120.412 372.008ZM120.37 373.23V374.116H119.497V373.244C119.497 373.127 119.543 373.016 119.625 372.934C119.707 372.851 119.819 372.805 119.936 372.805C120.052 372.805 120.164 372.851 120.246 372.934C120.328 373.016 120.375 373.127 120.375 373.244L120.37 373.23Z" fill="#174591"/>
<path d="M166.442 371.918C166.04 371.918 165.646 372.038 165.311 372.261C164.976 372.485 164.715 372.802 164.561 373.174C164.407 373.545 164.367 373.954 164.445 374.349C164.524 374.743 164.718 375.106 165.002 375.39C165.287 375.674 165.65 375.868 166.045 375.947C166.44 376.025 166.849 375.985 167.222 375.831C167.594 375.677 167.912 375.416 168.135 375.082C168.359 374.748 168.478 374.354 168.478 373.952C168.478 373.413 168.264 372.895 167.882 372.514C167.5 372.133 166.982 371.918 166.442 371.918ZM166.442 375.113C166.212 375.113 165.987 375.045 165.796 374.918C165.605 374.79 165.456 374.609 165.368 374.397C165.28 374.184 165.257 373.951 165.302 373.726C165.347 373.5 165.457 373.293 165.62 373.131C165.783 372.968 165.99 372.858 166.215 372.813C166.441 372.768 166.675 372.791 166.887 372.879C167.1 372.967 167.281 373.116 167.409 373.307C167.537 373.498 167.605 373.722 167.605 373.952C167.606 374.105 167.576 374.256 167.518 374.397C167.46 374.539 167.374 374.667 167.266 374.775C167.158 374.883 167.029 374.968 166.888 375.026C166.747 375.085 166.595 375.114 166.442 375.113Z" fill="#174591"/>
<path d="M189.929 371.918C189.527 371.918 189.133 372.038 188.798 372.261C188.463 372.485 188.202 372.802 188.048 373.174C187.894 373.545 187.854 373.954 187.932 374.349C188.011 374.743 188.205 375.106 188.489 375.39C188.774 375.674 189.137 375.868 189.532 375.947C189.927 376.025 190.336 375.985 190.709 375.831C191.081 375.677 191.399 375.416 191.622 375.082C191.846 374.748 191.966 374.354 191.966 373.952C191.966 373.413 191.751 372.895 191.369 372.514C190.987 372.133 190.469 371.918 189.929 371.918ZM189.929 375.113C189.699 375.113 189.474 375.045 189.283 374.918C189.092 374.79 188.943 374.609 188.855 374.397C188.767 374.184 188.744 373.951 188.789 373.726C188.834 373.5 188.944 373.293 189.107 373.131C189.27 372.968 189.477 372.858 189.702 372.813C189.928 372.768 190.162 372.791 190.374 372.879C190.587 372.967 190.768 373.116 190.896 373.307C191.024 373.498 191.092 373.722 191.092 373.952C191.092 374.26 190.97 374.556 190.752 374.773C190.534 374.991 190.238 375.113 189.929 375.113Z" fill="#174591"/>
<path d="M176.409 371.914C176.006 371.914 175.612 372.033 175.278 372.257C174.943 372.48 174.682 372.798 174.528 373.169C174.373 373.541 174.333 373.95 174.412 374.344C174.49 374.739 174.684 375.101 174.969 375.386C175.254 375.67 175.617 375.864 176.012 375.942C176.407 376.021 176.816 375.981 177.188 375.827C177.56 375.673 177.878 375.412 178.102 375.078C178.326 374.743 178.445 374.35 178.445 373.948C178.445 373.408 178.231 372.891 177.849 372.51C177.467 372.128 176.949 371.914 176.409 371.914ZM176.409 375.109C176.179 375.109 175.954 375.041 175.763 374.913C175.572 374.786 175.422 374.604 175.334 374.392C175.246 374.18 175.223 373.946 175.268 373.721C175.313 373.496 175.424 373.289 175.587 373.127C175.749 372.964 175.956 372.853 176.182 372.809C176.408 372.764 176.641 372.787 176.854 372.875C177.066 372.963 177.248 373.111 177.376 373.302C177.504 373.493 177.572 373.718 177.572 373.948C177.572 374.256 177.449 374.551 177.231 374.769C177.013 374.987 176.717 375.109 176.409 375.109Z" fill="#174591"/>
<path d="M174.34 372.837C174.243 372.593 174.075 372.383 173.858 372.234C173.641 372.085 173.384 372.004 173.121 372.002H171.622V372.875H173.116C173.233 372.875 173.344 372.921 173.427 373.003C173.509 373.085 173.555 373.197 173.555 373.313C173.555 373.429 173.509 373.541 173.427 373.623C173.344 373.705 173.233 373.752 173.116 373.752H171.622V375.911H172.5V374.624H173.154C173.411 374.617 173.661 374.535 173.872 374.387C174.083 374.239 174.246 374.033 174.34 373.794C174.454 373.493 174.454 373.161 174.34 372.861V372.837Z" fill="#174591"/>
<path d="M183.367 372.007C183.218 371.95 183.06 371.92 182.9 371.918C182.741 371.92 182.582 371.95 182.433 372.007C182.187 372.101 181.975 372.267 181.825 372.484C181.675 372.7 181.594 372.957 181.593 373.22V375.907H182.471V374.974H183.344V375.907H184.217V373.182C184.208 372.925 184.122 372.675 183.971 372.466C183.819 372.257 183.61 372.097 183.367 372.007ZM183.33 373.229V374.115H182.457V373.243C182.45 373.182 182.457 373.12 182.476 373.062C182.495 373.004 182.526 372.95 182.567 372.904C182.609 372.859 182.659 372.822 182.715 372.797C182.771 372.772 182.832 372.76 182.893 372.76C182.955 372.76 183.016 372.772 183.072 372.797C183.128 372.822 183.178 372.859 183.219 372.904C183.261 372.95 183.292 373.004 183.311 373.062C183.33 373.12 183.336 373.182 183.33 373.243V373.229Z" fill="#174591"/>
<path d="M160.857 373.318C160.855 373.158 160.825 373.001 160.768 372.852C160.672 372.606 160.505 372.395 160.287 372.246C160.07 372.097 159.813 372.017 159.549 372.017H158.05V372.889H159.544C159.652 372.9 159.752 372.951 159.825 373.031C159.898 373.112 159.938 373.216 159.938 373.325C159.938 373.433 159.898 373.538 159.825 373.619C159.752 373.699 159.652 373.75 159.544 373.761H158.05V375.921H158.928V374.633H159.549C159.606 374.633 159.663 374.645 159.716 374.667C159.769 374.689 159.817 374.721 159.858 374.762C159.898 374.803 159.93 374.851 159.952 374.904C159.973 374.957 159.984 375.014 159.983 375.072V375.921H160.857V375.123C160.746 375.055 160.654 374.961 160.587 374.85C160.519 374.739 160.48 374.613 160.471 374.483C160.463 374.354 160.485 374.224 160.537 374.105C160.588 373.986 160.667 373.881 160.768 373.798C160.828 373.645 160.858 373.482 160.857 373.318Z" fill="#174591"/>
<path d="M115.732 373.318C115.733 373.158 115.703 373 115.644 372.852C115.549 372.607 115.382 372.396 115.165 372.247C114.949 372.098 114.692 372.018 114.429 372.017H112.93V372.889H114.425C114.541 372.889 114.653 372.935 114.735 373.017C114.817 373.099 114.864 373.211 114.864 373.327C114.864 373.444 114.817 373.555 114.735 373.637C114.653 373.72 114.541 373.766 114.425 373.766H112.93V375.921H113.804V374.638H114.425L114.859 375.062V375.916H115.732V375.123C115.733 374.963 115.703 374.805 115.644 374.657C115.582 374.501 115.492 374.359 115.377 374.237C115.492 374.112 115.583 373.966 115.644 373.808C115.707 373.652 115.737 373.486 115.732 373.318Z" fill="#174591"/>
<path d="M171.449 373.313C171.447 373.154 171.417 372.996 171.36 372.847C171.263 372.602 171.096 372.392 170.878 372.243C170.661 372.094 170.405 372.014 170.141 372.012H168.642V372.884H170.137C170.253 372.884 170.365 372.93 170.447 373.012C170.529 373.095 170.576 373.206 170.576 373.322C170.576 373.439 170.529 373.55 170.447 373.632C170.365 373.715 170.253 373.761 170.137 373.761H168.642V375.921H169.515V374.638H170.137C170.252 374.638 170.362 374.683 170.444 374.765C170.525 374.846 170.571 374.957 170.571 375.072V375.921H171.449V375.123C171.448 374.963 171.418 374.805 171.36 374.656C171.296 374.5 171.205 374.356 171.089 374.232C171.203 374.107 171.294 373.963 171.36 373.808C171.42 373.65 171.451 373.482 171.449 373.313Z" fill="#174591"/>
<path d="M181.411 373.313C181.41 373.153 181.378 372.995 181.317 372.847C181.222 372.602 181.056 372.391 180.839 372.242C180.622 372.093 180.366 372.013 180.103 372.012H178.604V372.884H180.098C180.215 372.884 180.326 372.93 180.409 373.012C180.491 373.095 180.537 373.206 180.537 373.322C180.537 373.439 180.491 373.55 180.409 373.632C180.326 373.715 180.215 373.761 180.098 373.761H178.604V375.921H179.477V374.638H180.098C180.213 374.638 180.324 374.683 180.405 374.765C180.487 374.846 180.533 374.957 180.533 375.072V375.921H181.406V375.123C181.406 374.963 181.374 374.804 181.313 374.656C181.253 374.499 181.162 374.355 181.046 374.232C181.16 374.108 181.25 373.964 181.313 373.808C181.378 373.651 181.412 373.483 181.411 373.313Z" fill="#174591"/>
<path d="M154.201 374.465V374.782C154.191 374.879 154.145 374.969 154.072 375.035C153.999 375.1 153.905 375.136 153.807 375.136C153.709 375.136 153.615 375.1 153.542 375.035C153.469 374.969 153.423 374.879 153.412 374.782V372.012H152.539V374.782C152.524 374.876 152.477 374.961 152.405 375.023C152.333 375.084 152.241 375.118 152.146 375.118C152.052 375.118 151.96 375.084 151.888 375.023C151.816 374.961 151.769 374.876 151.754 374.782V372.012H150.881V374.773C150.881 375.098 151.01 375.41 151.241 375.64C151.471 375.871 151.783 376 152.109 376C152.223 375.886 152.359 375.795 152.508 375.734C152.657 375.672 152.816 375.64 152.978 375.64C153.139 375.64 153.299 375.672 153.448 375.734C153.597 375.795 153.732 375.886 153.846 376C154.172 376 154.485 375.871 154.715 375.64C154.945 375.41 155.075 375.098 155.075 374.773V372.012H154.201V374.465Z" fill="#174591"/>
<path d="M194.053 372.003V373.435C193.779 372.918 193.428 372.446 193.011 372.036L192.983 372.008H192.124V375.912H193.021V373.309C193.471 373.914 193.79 374.607 193.955 375.343C193.955 375.436 193.997 375.529 194.011 375.623C194.025 375.716 194.044 375.804 194.053 375.898H194.926V371.994L194.053 372.003Z" fill="#174591"/>
</svg>
