<svg width="100" height="100" viewBox="0 0 100 100" fill="none" xmlns="http://www.w3.org/2000/svg">
<path d="M45.7725 15.9092L26.1362 47.372C30.4998 47.7336 34.1362 49.5418 37.0453 52.7966C40.1362 56.0513 41.6816 60.0294 41.6816 64.7307C41.6816 69.9745 39.8635 74.1334 36.2271 77.2073C32.7725 80.2813 28.6816 81.8183 23.9544 81.8183C18.8635 81.8183 14.5907 80.2813 11.1362 77.2073C7.49982 74.1334 5.68164 69.7937 5.68164 64.1883C5.68164 58.9445 7.68164 53.0678 11.6816 46.5583C15.4998 40.0487 21.6816 30.7365 30.2271 18.6215L32.1362 15.9092H45.7725ZM94.318 15.9092L74.6816 47.372C79.0453 47.7336 82.6816 49.5418 85.5907 52.7966C88.6816 56.0513 90.2271 60.0294 90.2271 64.7307C90.2271 69.9745 88.4089 74.1334 84.7725 77.2073C81.318 80.2813 77.2271 81.8183 72.4998 81.8183C67.4089 81.8183 63.0453 80.2813 59.4089 77.2073C55.9544 74.1334 54.2271 69.7937 54.2271 64.1883C54.2271 58.9445 56.1362 53.0678 59.9544 46.5583C63.9544 40.0487 70.2271 30.7365 78.7725 18.6215L80.6816 15.9092H94.318Z" fill="#EDF2F6"/>
</svg>
