<svg width="178" height="40" viewBox="0 0 178 40" fill="none" xmlns="http://www.w3.org/2000/svg">
<path fill-rule="evenodd" clip-rule="evenodd" d="M5.61342 8.88086L3.83301 17.2403H11.5031L6.66805 39.9906H18.9881L23.8202 17.2403H31.4874L33.2697 8.88086H5.61342Z" fill="#00448A"/>
<path fill-rule="evenodd" clip-rule="evenodd" d="M3.26481 0L0.223633 13.4005H14.6337L17.6835 0H3.26481Z" fill="#DD0013"/>
<path fill-rule="evenodd" clip-rule="evenodd" d="M38.2288 21.9433H38.3151C40.3755 19.0814 43.3352 18.0076 46.4415 18.0076C48.965 18.0076 51.5411 19.3335 51.8786 21.857C53.8096 19.3757 56.9763 17.9596 60.0933 17.8887C64.5687 17.8887 67.2628 20.7889 66.2839 25.3814L63.3339 39.3035H55.4625L58.0559 27.0774C58.403 25.0506 58.3761 22.855 55.937 22.855C52.0426 22.855 51.6274 27.1167 51.5747 27.3669L49.0398 39.3035H41.1684L43.7733 27.0774C44.1185 25.0506 44.0887 22.855 41.6487 22.855C37.7533 22.855 37.3429 27.1167 37.2892 27.3669L34.7524 39.3035H26.8877L30.1705 23.8473C30.5655 21.9883 30.7918 20.7467 31.0583 18.5042H38.8434L38.2288 21.9433Z" fill="#00448A"/>
<path fill-rule="evenodd" clip-rule="evenodd" d="M87.1649 39.3025C87.4046 36.8068 87.4343 35.9017 87.627 35.0302L89.8849 24.343C90.9654 19.6614 86.2503 17.8867 82.027 17.8867C79.7096 17.8867 76.9676 18.1245 74.5995 19.1235C72.2841 20.0804 70.3905 21.7764 69.8134 24.7246H77.2236C77.4499 23.4772 78.4661 21.6105 80.3846 21.5262C83.5638 21.4025 82.5802 24.0592 82.188 25.876H79.7096C72.9149 25.876 67.8402 27.9575 66.6801 33.0025C65.6907 37.2699 67.6945 39.9113 72.6311 39.9113C76.5237 39.9113 78.7116 37.9707 79.9848 36.4837H80.0701C79.7537 37.9707 79.6032 38.6342 79.6349 39.3025H87.1649ZM74.3905 32.6238C74.6906 31.178 75.7596 30.4253 77.051 29.8539C78.236 29.3141 79.7902 29.4033 81.4431 29.4033C80.8544 32.1731 79.888 35.3648 76.4911 35.3648C75.0002 35.3648 74.0597 34.1213 74.3905 32.6238Z" fill="#00448A"/>
<path fill-rule="evenodd" clip-rule="evenodd" d="M96.7142 39.3032H88.6846L97.9788 28.4433L93.927 18.5039H102.992L104.295 24.8816L108.427 18.5039H116.377L107.885 28.4433L112.617 39.3032H103.422L101.785 31.5948L96.7142 39.3032Z" fill="#00448A"/>
<path fill-rule="evenodd" clip-rule="evenodd" d="M131.007 33.8737C136.974 33.8737 139.143 28.3656 140.029 24.1998C140.929 19.9842 140.364 17.9008 139.735 16.5672C138.879 14.898 137.027 14.3956 135.19 14.3956C129.688 14.3956 127.178 19.151 126.075 24.3235C125.06 29.1183 125.467 33.8737 131.007 33.8737ZM124.125 12.5241C128.738 8.68524 134.562 8.35352 136.77 8.35352C148.776 8.35352 150.197 16.9804 148.632 24.3235C146.083 36.3271 136.799 40.0001 129.626 40.0001C121.622 40.0001 115.095 35.5764 117.479 24.3628C117.905 22.36 119.51 16.3591 124.125 12.5241Z" fill="#00448A"/>
<path fill-rule="evenodd" clip-rule="evenodd" d="M157.879 29.7016C157.66 30.9096 157.014 34.3708 161.971 34.3708C162.681 34.3708 166.432 34.3708 167.159 30.9537C167.46 29.5329 167.082 28.5722 165.198 28.0334L158.221 26.1149C156.254 25.577 151.174 24.1542 152.515 17.8562C153.554 12.979 158.187 8.42969 167.198 8.42969C178.952 8.42969 178.095 14.815 177.455 18.0192H168.988C169.183 17.1083 169.917 13.8553 165.918 13.8553C163.498 13.8553 161.662 15.2321 161.285 17.024C160.813 19.2282 162.528 19.7746 163.67 20.114L168.985 21.5694C172.769 22.6116 177.254 23.8666 175.903 30.2433C174.474 36.9565 168.085 39.9574 160.536 39.9574C157.405 39.9574 152.471 39.4598 150.376 36.3707C148.675 33.9518 149.266 30.9911 149.499 29.7016H157.879Z" fill="#00448A"/>
</svg>
