<svg width="22" height="22" viewBox="0 0 22 22" fill="none" xmlns="http://www.w3.org/2000/svg">
<path fill-rule="evenodd" clip-rule="evenodd" d="M14.6308 15.7372C13.4207 16.7063 11.885 17.2859 10.214 17.2859C6.30856 17.2859 3.14258 14.1199 3.14258 10.2145C3.14258 6.30905 6.30856 3.14307 10.214 3.14307C14.1194 3.14307 17.2854 6.30905 17.2854 10.2145C17.2854 11.8855 16.7058 13.4211 15.7367 14.6313C15.7564 14.6475 15.7755 14.6648 15.7939 14.6832L19.5444 18.4337C19.8512 18.7405 19.8512 19.238 19.5444 19.5448C19.2375 19.8517 18.74 19.8517 18.4332 19.5448L14.6827 15.7944C14.6643 15.776 14.647 15.7569 14.6308 15.7372ZM15.714 10.2145C15.714 13.2521 13.2516 15.7145 10.214 15.7145C7.17644 15.7145 4.71401 13.2521 4.71401 10.2145C4.71401 7.17693 7.17644 4.71449 10.214 4.71449C13.2516 4.71449 15.714 7.17693 15.714 10.2145Z" fill="#91989D"/>
</svg>
