<svg width="20" height="26" viewBox="0 0 20 26" fill="none" xmlns="http://www.w3.org/2000/svg">
<path d="M13.2232 13L7.47459 18.7486C7.31262 18.9096 7.09352 19 6.86514 19C6.63677 19 6.41767 18.9096 6.2557 18.7486C6.17468 18.6683 6.11037 18.5727 6.06648 18.4673C6.0226 18.362 6 18.249 6 18.1349C6 18.0207 6.0226 17.9078 6.06648 17.8024C6.11037 17.6971 6.17468 17.6015 6.2557 17.5211L10.7768 13L6.25571 8.4789C6.17468 8.39854 6.11037 8.30293 6.06648 8.19759C6.0226 8.09225 6 7.97926 6 7.86514C6 7.75102 6.0226 7.63803 6.06648 7.53269C6.11037 7.42735 6.17468 7.33174 6.25571 7.25138C6.41767 7.09037 6.63677 7 6.86515 7C7.09352 7 7.31262 7.09037 7.47459 7.25138L13.2232 13Z" fill="#DDDDDD"/>
</svg>
