<svg width="24" height="25" viewBox="0 0 24 25" fill="none" xmlns="http://www.w3.org/2000/svg">
<path opacity="0.3" fill-rule="evenodd" clip-rule="evenodd" d="M3.97426 2.50016C3.98283 2.50005 3.99141 2.5 4 2.5H20.01C21.11 2.5 22 3.4 22 4.5L21.9975 8.4975L22 8.5V20.5C22 21.5312 21.209 22.3867 20.2037 22.4896C20.1367 22.4965 20.0688 22.5 20 22.5H3.99C2.89 22.5 2 21.6 2 20.5L2.0025 16.5025L2 16.5V4.5C2 3.40859 2.886 2.51407 3.97426 2.50016Z" fill="#47B7D6"/>
<path fill-rule="evenodd" clip-rule="evenodd" d="M12 2.5H9V4.5H12V6.5H9V8.5H12V10.5H9V12.5H12V14.5H15V12.5H12V10.5H15V8.5H12V6.5H15V4.5H12V2.5Z" fill="#47B7D6"/>
</svg>
