<svg width="20" height="26" viewBox="0 0 20 26" fill="none" xmlns="http://www.w3.org/2000/svg">
<path d="M11.2232 13L5.47459 18.7486C5.31262 18.9096 5.09352 19 4.86514 19C4.63677 19 4.41767 18.9096 4.2557 18.7486C4.17468 18.6683 4.11037 18.5727 4.06648 18.4673C4.0226 18.362 4 18.249 4 18.1349C4 18.0207 4.0226 17.9078 4.06648 17.8024C4.11037 17.6971 4.17468 17.6015 4.2557 17.5211L8.7768 13L4.25571 8.4789C4.17468 8.39854 4.11037 8.30293 4.06648 8.19759C4.0226 8.09225 4 7.97926 4 7.86514C4 7.75102 4.0226 7.63803 4.06648 7.53269C4.11037 7.42735 4.17468 7.33174 4.25571 7.25138C4.41767 7.09037 4.63677 7 4.86515 7C5.09352 7 5.31262 7.09037 5.47459 7.25138L11.2232 13Z" fill="#DDDDDD"/>
<path d="M16.2232 13L10.4746 18.7486C10.3126 18.9096 10.0935 19 9.86514 19C9.63677 19 9.41767 18.9096 9.2557 18.7486C9.17468 18.6683 9.11037 18.5727 9.06648 18.4673C9.0226 18.362 9 18.249 9 18.1349C9 18.0207 9.0226 17.9078 9.06648 17.8024C9.11037 17.6971 9.17468 17.6015 9.2557 17.5211L13.7768 13L9.25571 8.4789C9.17468 8.39854 9.11037 8.30293 9.06648 8.19759C9.0226 8.09225 9 7.97926 9 7.86514C9 7.75102 9.0226 7.63803 9.06648 7.53269C9.11037 7.42735 9.17468 7.33174 9.25571 7.25138C9.41767 7.09037 9.63677 7 9.86515 7C10.0935 7 10.3126 7.09037 10.4746 7.25138L16.2232 13Z" fill="#DDDDDD"/>
</svg>
