<svg width="100" height="105" viewBox="0 0 100 105" fill="none" xmlns="http://www.w3.org/2000/svg">
<g clip-path="url(#clip0_362_1213)">
<path d="M47.0946 0.915134L2.20275 32.4139C1.52249 32.8927 0.967295 33.528 0.583941 34.2663C0.200587 35.0046 0.000311533 35.8242 0 36.656V98.9738C0 99.7618 0.155208 100.542 0.456756 101.27C0.758304 101.998 1.2003 102.66 1.75749 103.217C2.31468 103.774 2.97616 104.216 3.70416 104.517C4.43216 104.819 5.2124 104.974 6.00039 104.974H93.9931C95.5799 104.967 97.0994 104.332 98.2191 103.208C99.3387 102.083 99.9673 100.561 99.9673 98.9738V36.656C99.9686 35.8239 99.7691 35.0037 99.3856 34.2651C99.0021 33.5266 98.446 32.8916 97.7646 32.4139L52.9054 0.915134C52.0546 0.317122 51.04 -0.00378418 50 -0.00378418C48.96 -0.00378418 47.9454 0.317122 47.0946 0.915134Z" fill="#0063C0"/>
<path d="M90.7183 17.7462H9.27513C7.60011 17.7462 6.24225 19.1041 6.24225 20.7791V79.1359C6.24225 80.8109 7.60011 82.1687 9.27513 82.1687H90.7183C92.3934 82.1687 93.7512 80.8109 93.7512 79.1359V20.7791C93.7512 19.1041 92.3934 17.7462 90.7183 17.7462Z" fill="white"/>
<path d="M34.6036 37.6625H66.4815C66.7353 37.6421 66.9721 37.5268 67.1448 37.3397C67.3174 37.1526 67.4133 36.9073 67.4133 36.6527C67.4133 36.398 67.3174 36.1527 67.1448 35.9656C66.9721 35.7785 66.7353 35.6632 66.4815 35.6428H34.6036C34.4641 35.6316 34.3239 35.6493 34.1916 35.695C34.0594 35.7407 33.938 35.8132 33.8352 35.9081C33.7324 36.0029 33.6504 36.1181 33.5943 36.2462C33.5381 36.3744 33.5092 36.5128 33.5092 36.6527C33.5092 36.7926 33.5381 36.9309 33.5943 37.0591C33.6504 37.1872 33.7324 37.3024 33.8352 37.3973C33.938 37.4921 34.0594 37.5647 34.1916 37.6103C34.3239 37.656 34.4641 37.6738 34.6036 37.6625Z" fill="#E3EEFA"/>
<path d="M17.609 44.5128H83.476C83.6155 44.524 83.7557 44.5062 83.888 44.4606C84.0202 44.4149 84.1415 44.3423 84.2444 44.2475C84.3472 44.1526 84.4292 44.0375 84.4854 43.9093C84.5415 43.7812 84.5705 43.6428 84.5705 43.5029C84.5705 43.363 84.5415 43.2246 84.4854 43.0965C84.4292 42.9683 84.3472 42.8532 84.2444 42.7583C84.1415 42.6634 84.0202 42.5909 83.888 42.5452C83.7557 42.4996 83.6155 42.4818 83.476 42.493H17.609C17.4695 42.4818 17.3292 42.4996 17.197 42.5452C17.0648 42.5909 16.9434 42.6634 16.8406 42.7583C16.7378 42.8532 16.6557 42.9683 16.5996 43.0965C16.5435 43.2246 16.5145 43.363 16.5145 43.5029C16.5145 43.6428 16.5435 43.7812 16.5996 43.9093C16.6557 44.0375 16.7378 44.1526 16.8406 44.2475C16.9434 44.3423 17.0648 44.4149 17.197 44.4606C17.3292 44.5062 17.4695 44.524 17.609 44.5128Z" fill="#E3EEFA"/>
<path d="M83.476 49.3365H17.609C17.4695 49.3253 17.3292 49.3431 17.197 49.3887C17.0648 49.4344 16.9434 49.5069 16.8406 49.6018C16.7378 49.6967 16.6557 49.8118 16.5996 49.94C16.5435 50.0681 16.5145 50.2065 16.5145 50.3464C16.5145 50.4863 16.5435 50.6247 16.5996 50.7528C16.6557 50.881 16.7378 50.9961 16.8406 51.091C16.9434 51.1858 17.0648 51.2584 17.197 51.3041C17.3292 51.3497 17.4695 51.3675 17.609 51.3563H83.476C83.6155 51.3675 83.7557 51.3497 83.888 51.3041C84.0202 51.2584 84.1415 51.1858 84.2444 51.091C84.3472 50.9961 84.4292 50.881 84.4854 50.7528C84.5415 50.6247 84.5705 50.4863 84.5705 50.3464C84.5705 50.2065 84.5415 50.0681 84.4854 49.94C84.4292 49.8118 84.3472 49.6967 84.2444 49.6018C84.1415 49.5069 84.0202 49.4344 83.888 49.3887C83.7557 49.3431 83.6155 49.3253 83.476 49.3365Z" fill="#E3EEFA"/>
<path d="M83.476 56.1801H17.609C17.4695 56.1689 17.3292 56.1867 17.197 56.2324C17.0648 56.278 16.9434 56.3506 16.8406 56.4454C16.7378 56.5403 16.6557 56.6554 16.5996 56.7836C16.5435 56.9117 16.5145 57.0501 16.5145 57.19C16.5145 57.3299 16.5435 57.4683 16.5996 57.5964C16.6557 57.7246 16.7378 57.8397 16.8406 57.9346C16.9434 58.0295 17.0648 58.102 17.197 58.1477C17.3292 58.1933 17.4695 58.2111 17.609 58.1999H83.476C83.6155 58.2111 83.7557 58.1933 83.888 58.1477C84.0202 58.102 84.1415 58.0295 84.2444 57.9346C84.3472 57.8397 84.4292 57.7246 84.4854 57.5964C84.5415 57.4683 84.5705 57.3299 84.5705 57.19C84.5705 57.0501 84.5415 56.9117 84.4854 56.7836C84.4292 56.6554 84.3472 56.5403 84.2444 56.4454C84.1415 56.3506 84.0202 56.278 83.888 56.2324C83.7557 56.1867 83.6155 56.1689 83.476 56.1801Z" fill="#E3EEFA"/>
<path d="M83.476 63.0302H17.609C17.4695 63.019 17.3292 63.0368 17.197 63.0824C17.0648 63.1281 16.9434 63.2007 16.8406 63.2955C16.7378 63.3904 16.6557 63.5055 16.5996 63.6337C16.5435 63.7618 16.5145 63.9002 16.5145 64.0401C16.5145 64.18 16.5435 64.3184 16.5996 64.4465C16.6557 64.5747 16.7378 64.6898 16.8406 64.7847C16.9434 64.8796 17.0648 64.9521 17.197 64.9978C17.3292 65.0434 17.4695 65.0612 17.609 65.05H83.476C83.6155 65.0612 83.7557 65.0434 83.888 64.9978C84.0202 64.9521 84.1415 64.8796 84.2444 64.7847C84.3472 64.6898 84.4292 64.5747 84.4854 64.4465C84.5415 64.3184 84.5705 64.18 84.5705 64.0401C84.5705 63.9002 84.5415 63.7618 84.4854 63.6337C84.4292 63.5055 84.3472 63.3904 84.2444 63.2955C84.1415 63.2007 84.0202 63.1281 83.888 63.0824C83.7557 63.0368 83.6155 63.019 83.476 63.0302Z" fill="#E3EEFA"/>
<path d="M83.476 69.8739H17.609C17.4695 69.8626 17.3292 69.8804 17.197 69.9261C17.0648 69.9717 16.9434 70.0443 16.8406 70.1392C16.7378 70.234 16.6557 70.3492 16.5996 70.4773C16.5435 70.6055 16.5145 70.7438 16.5145 70.8837C16.5145 71.0236 16.5435 71.162 16.5996 71.2902C16.6557 71.4183 16.7378 71.5335 16.8406 71.6283C16.9434 71.7232 17.0648 71.7958 17.197 71.8414C17.3292 71.8871 17.4695 71.9048 17.609 71.8936H83.476C83.6155 71.9048 83.7557 71.8871 83.888 71.8414C84.0202 71.7958 84.1415 71.7232 84.2444 71.6283C84.3472 71.5335 84.4292 71.4183 84.4854 71.2902C84.5415 71.162 84.5705 71.0236 84.5705 70.8837C84.5705 70.7438 84.5415 70.6055 84.4854 70.4773C84.4292 70.3492 84.3472 70.234 84.2444 70.1392C84.1415 70.0443 84.0202 69.9717 83.888 69.9261C83.7557 69.8804 83.6155 69.8626 83.476 69.8739Z" fill="#E3EEFA"/>
<path d="M6.00039 104.974C4.40898 104.974 2.88278 104.342 1.75749 103.217C0.632197 102.091 0 100.565 0 98.9738V36.656C0.00027118 37.487 0.200579 38.3057 0.583981 39.0429C0.967383 39.7801 1.52261 40.4142 2.20275 40.8916L49.9967 74.4297L97.7907 40.8916C98.472 40.4154 99.0282 39.7815 99.4117 39.044C99.7952 38.3065 99.9948 37.4873 99.9934 36.656V98.9738C99.9934 99.7618 99.8382 100.542 99.5367 101.27C99.2351 101.998 98.7932 102.66 98.236 103.217C97.6788 103.774 97.0173 104.216 96.2893 104.517C95.5613 104.819 94.781 104.974 93.9931 104.974H6.00039Z" fill="#2C99FF"/>
<path d="M47.0946 62.8015L2.57536 94.0584C1.78611 94.6124 1.14183 95.3483 0.696988 96.2039C0.252148 97.0594 0.0198438 98.0095 0.0196533 98.9738C0.0196533 100.565 0.65181 102.091 1.7771 103.217C2.90239 104.342 4.42864 104.974 6.02004 104.974H93.9931C95.58 104.967 97.0995 104.332 98.2191 103.207C99.3388 102.083 99.9674 100.561 99.9673 98.9738C99.9679 98.0101 99.7366 97.0604 99.2929 96.2049C98.8492 95.3494 98.2062 94.6132 97.4181 94.0584L52.9054 62.8015C52.0546 62.2035 51.04 61.8826 50 61.8826C48.9601 61.8826 47.9454 62.2035 47.0946 62.8015Z" fill="#4FAAFF"/>
<path d="M34.6428 31.8844L6.24225 2.24194L36.5645 22.9296L34.6428 31.8844Z" fill="#2B9AFF"/>
<path d="M6.24225 2.24194L21.3151 33.257L46.9769 15.8768L6.24225 2.24194Z" fill="#2C99FF"/>
<path d="M6.24225 2.24194L33.2702 25.1585L34.6428 31.8844L36.5645 22.9296L6.24225 2.24194Z" fill="#0063C0"/>
</g>
<defs>
<clipPath id="clip0_362_1213">
<rect width="100" height="104.981" fill="white"/>
</clipPath>
</defs>
</svg>
