<svg width="120" height="28" viewBox="0 0 120 28" fill="none" xmlns="http://www.w3.org/2000/svg">
<path fill-rule="evenodd" clip-rule="evenodd" d="M3.63692 6.00146L2.43359 11.6513H7.61755L4.34972 27.0276H12.6765L15.9423 11.6513H21.1244L22.329 6.00146H3.63692Z" fill="white"/>
<path fill-rule="evenodd" clip-rule="evenodd" d="M2.05544 0L0 9.05703H9.73936L11.8006 0H2.05544Z" fill="#DD0013"/>
<path fill-rule="evenodd" clip-rule="evenodd" d="M25.6925 14.8307H25.7508C27.1433 12.8964 29.1437 12.1707 31.2432 12.1707C32.9487 12.1707 34.6899 13.0669 34.918 14.7724C36.223 13.0954 38.3634 12.1383 40.47 12.0903C43.4948 12.0903 45.3157 14.0505 44.6541 17.1544L42.6602 26.5639H37.3402L39.093 18.3007C39.3276 16.9309 39.3094 15.4469 37.6609 15.4469C35.0288 15.4469 34.7482 18.3273 34.7126 18.4964L32.9993 26.5639H27.6792L29.4398 18.3007C29.6731 16.9309 29.653 15.4469 28.0039 15.4469C25.3711 15.4469 25.0937 18.3273 25.0574 18.4964L23.3428 26.5639H18.0273L20.2461 16.1176C20.5131 14.8612 20.666 14.022 20.8461 12.5063H26.1078L25.6925 14.8307Z" fill="white"/>
<path fill-rule="evenodd" clip-rule="evenodd" d="M58.761 26.5643C58.923 24.8776 58.9431 24.2659 59.0734 23.6769L60.5994 16.4537C61.3297 13.2895 58.1428 12.0901 55.2884 12.0901C53.7222 12.0901 51.869 12.2508 50.2684 12.926C48.7035 13.5727 47.4237 14.719 47.0336 16.7116H52.042C52.1949 15.8685 52.8818 14.6069 54.1784 14.5499C56.3272 14.4663 55.6623 16.2619 55.3973 17.4898H53.7222C49.1299 17.4898 45.7 18.8966 44.916 22.3064C44.2472 25.1906 45.6016 26.9758 48.9381 26.9758C51.5689 26.9758 53.0477 25.6643 53.9082 24.6592H53.9659C53.752 25.6643 53.6503 26.1127 53.6717 26.5643H58.761ZM50.1272 22.0504C50.33 21.0732 51.0525 20.5646 51.9253 20.1784C52.7263 19.8135 53.7767 19.8738 54.8938 19.8738C54.4959 21.7459 53.8428 23.903 51.5469 23.903C50.5393 23.903 49.9036 23.0626 50.1272 22.0504Z" fill="white"/>
<path fill-rule="evenodd" clip-rule="evenodd" d="M65.2121 26.5642H59.7852L66.0668 19.2244L63.3284 12.5066H69.4552L70.3358 16.8171L73.1287 12.5066H78.5018L72.7619 19.2244L75.9604 26.5642H69.7455L68.6394 21.3543L65.2121 26.5642Z" fill="white"/>
<path fill-rule="evenodd" clip-rule="evenodd" d="M88.3932 22.8938C92.4263 22.8938 93.8927 19.1711 94.4915 16.3556C95.0993 13.5063 94.7176 12.0982 94.2925 11.1969C93.7139 10.0687 92.4626 9.72917 91.2204 9.72917C87.5022 9.72917 85.8057 12.9432 85.0599 16.4392C84.3743 19.6798 84.6491 22.8938 88.3932 22.8938ZM83.7419 8.46429C86.86 5.86971 90.796 5.64551 92.2883 5.64551C100.403 5.64551 101.363 11.4762 100.306 16.4392C98.5829 24.5521 92.3084 27.0345 87.4601 27.0345C82.0506 27.0345 77.6391 24.0447 79.2506 16.4657C79.5383 15.1121 80.6231 11.0563 83.7419 8.46429Z" fill="white"/>
<path fill-rule="evenodd" clip-rule="evenodd" d="M106.552 20.0743C106.404 20.8908 105.967 23.2301 109.318 23.2301C109.798 23.2301 112.333 23.2301 112.824 20.9206C113.027 19.9603 112.772 19.311 111.499 18.9468L106.783 17.6502C105.454 17.2867 102.02 16.325 102.926 12.0684C103.629 8.772 106.76 5.69727 112.85 5.69727C120.795 5.69727 120.216 10.0129 119.783 12.1785H114.06C114.192 11.5629 114.688 9.36427 111.985 9.36427C110.35 9.36427 109.109 10.2948 108.854 11.5059C108.535 12.9956 109.694 13.365 110.466 13.5944L114.058 14.578C116.615 15.2824 119.647 16.1306 118.734 20.4404C117.768 24.9777 113.45 27.0059 108.347 27.0059C106.232 27.0059 102.897 26.6696 101.481 24.5818C100.331 22.9469 100.73 20.9459 100.888 20.0743H106.552Z" fill="white"/>
</svg>
