<svg width="120" height="28" viewBox="0 0 120 28" fill="none" xmlns="http://www.w3.org/2000/svg">
<path fill-rule="evenodd" clip-rule="evenodd" d="M3.63887 6.00146L2.43555 11.6513H7.61951L4.35167 27.0276H12.6784L15.9443 11.6513H21.1263L22.3309 6.00146H3.63887Z" fill="#00448A"/>
<path fill-rule="evenodd" clip-rule="evenodd" d="M2.05544 0L0 9.05703H9.73936L11.8006 0H2.05544Z" fill="#DD0013"/>
<path fill-rule="evenodd" clip-rule="evenodd" d="M25.6915 14.8307H25.7498C27.1424 12.8964 29.1427 12.1707 31.2422 12.1707C32.9477 12.1707 34.6889 13.0669 34.917 14.7724C36.2221 13.0954 38.3624 12.1383 40.469 12.0903C43.4939 12.0903 45.3147 14.0505 44.6531 17.1544L42.6592 26.5639H37.3392L39.092 18.3007C39.3266 16.9309 39.3085 15.4469 37.66 15.4469C35.0278 15.4469 34.7472 18.3273 34.7116 18.4964L32.9983 26.5639H27.6783L29.4389 18.3007C29.6721 16.9309 29.652 15.4469 28.0029 15.4469C25.3701 15.4469 25.0928 18.3273 25.0565 18.4964L23.3419 26.5639H18.0264L20.2451 16.1176C20.5121 14.8612 20.665 14.022 20.8451 12.5063H26.1069L25.6915 14.8307Z" fill="#00448A"/>
<path fill-rule="evenodd" clip-rule="evenodd" d="M58.7625 26.5643C58.9245 24.8776 58.9446 24.2659 59.0748 23.6769L60.6009 16.4537C61.3312 13.2895 58.1443 12.0901 55.2899 12.0901C53.7237 12.0901 51.8704 12.2508 50.2699 12.926C48.705 13.5727 47.4252 14.719 47.0351 16.7116H52.0434C52.1964 15.8685 52.8832 14.6069 54.1799 14.5499C56.3286 14.4663 55.6638 16.2619 55.3988 17.4898H53.7237C49.1314 17.4898 45.7015 18.8966 44.9174 22.3064C44.2487 25.1906 45.603 26.9758 48.9395 26.9758C51.5704 26.9758 53.0491 25.6643 53.9097 24.6592H53.9673C53.7535 25.6643 53.6518 26.1127 53.6732 26.5643H58.7625ZM50.1286 22.0504C50.3314 21.0732 51.054 20.5646 51.9268 20.1784C52.7277 19.8135 53.7781 19.8738 54.8953 19.8738C54.4974 21.7459 53.8442 23.903 51.5484 23.903C50.5407 23.903 49.9051 23.0626 50.1286 22.0504Z" fill="#00448A"/>
<path fill-rule="evenodd" clip-rule="evenodd" d="M65.2121 26.5642H59.7852L66.0668 19.2244L63.3284 12.5066H69.4552L70.3358 16.8171L73.1287 12.5066H78.5018L72.7619 19.2244L75.9604 26.5642H69.7455L68.6394 21.3543L65.2121 26.5642Z" fill="#00448A"/>
<path fill-rule="evenodd" clip-rule="evenodd" d="M88.3932 22.8938C92.4263 22.8938 93.8927 19.1711 94.4915 16.3556C95.0993 13.5063 94.7176 12.0982 94.2925 11.1969C93.7139 10.0687 92.4626 9.72917 91.2204 9.72917C87.5022 9.72917 85.8057 12.9432 85.0599 16.4392C84.3743 19.6798 84.6491 22.8938 88.3932 22.8938ZM83.7419 8.46429C86.86 5.86971 90.796 5.64551 92.2883 5.64551C100.403 5.64551 101.363 11.4762 100.306 16.4392C98.5829 24.5521 92.3084 27.0345 87.4601 27.0345C82.0506 27.0345 77.6391 24.0447 79.2506 16.4657C79.5383 15.1121 80.6231 11.0563 83.7419 8.46429Z" fill="#00448A"/>
<path fill-rule="evenodd" clip-rule="evenodd" d="M106.552 20.0743C106.404 20.8908 105.967 23.2301 109.318 23.2301C109.798 23.2301 112.333 23.2301 112.824 20.9206C113.027 19.9603 112.772 19.311 111.499 18.9468L106.783 17.6502C105.454 17.2867 102.02 16.325 102.926 12.0684C103.629 8.772 106.76 5.69727 112.85 5.69727C120.795 5.69727 120.216 10.0129 119.783 12.1785H114.06C114.192 11.5629 114.688 9.36427 111.985 9.36427C110.35 9.36427 109.109 10.2948 108.854 11.5059C108.535 12.9956 109.694 13.365 110.466 13.5944L114.058 14.578C116.615 15.2824 119.647 16.1306 118.734 20.4404C117.768 24.9777 113.45 27.0059 108.347 27.0059C106.232 27.0059 102.897 26.6696 101.481 24.5818C100.331 22.9469 100.73 20.9459 100.888 20.0743H106.552Z" fill="#00448A"/>
</svg>
