<svg width="224" height="33" viewBox="0 0 224 33" fill="none" xmlns="http://www.w3.org/2000/svg">
<path d="M106.021 20.8C106.021 21.68 106.641 22.06 107.501 22.06C108.341 22.06 108.961 21.66 109.661 20.96V18.7C106.941 19.06 106.021 19.8 106.021 20.8Z" fill="white"/>
<path d="M129.113 16.62C129.113 19.78 130.513 21.8 132.713 21.8C134.913 21.8 136.313 19.78 136.313 16.62C136.313 13.44 134.913 11.54 132.713 11.54C130.513 11.54 129.113 13.44 129.113 16.62Z" fill="white"/>
<path fill-rule="evenodd" clip-rule="evenodd" d="M224 0H0V33H224V0ZM79.12 24.08H76.16V11.74H72V9.28003H83.32V11.74H79.12V24.08ZM87.4234 24.08H84.5034V12.88H86.9034L87.1034 14.38H87.1834C88.1234 13.4 89.1634 12.6 90.6234 12.6C92.2234 12.6 93.1634 13.32 93.7034 14.56C94.7234 13.48 95.8034 12.6 97.2634 12.6C99.6434 12.6 100.743 14.28 100.743 17.1V24.08H97.8034V17.46C97.8034 15.74 97.3034 15.12 96.2434 15.12C95.6034 15.12 94.8834 15.54 94.0834 16.38V24.08H91.1434V17.46C91.1434 15.74 90.6434 15.12 89.5834 15.12C88.9434 15.12 88.2234 15.54 87.4234 16.38V24.08ZM109.921 22.88C108.941 23.72 107.821 24.36 106.541 24.36C104.541 24.36 103.221 22.94 103.221 21.04C103.221 18.64 105.161 17.38 109.661 16.9C109.621 15.8 109.141 14.96 107.761 14.96C106.721 14.96 105.721 15.42 104.681 16.02L103.621 14.08C104.941 13.26 106.541 12.6 108.301 12.6C111.141 12.6 112.601 14.3 112.601 17.54V24.08H110.201L109.981 22.88H109.921ZM117.377 24.08H114.337L117.837 18.24L114.557 12.88H117.717L118.837 14.88C119.157 15.5 119.497 16.14 119.837 16.76H119.917C120.032 16.486 120.155 16.208 120.279 15.9296C120.435 15.5781 120.592 15.226 120.737 14.88L121.677 12.88H124.717L121.437 18.58L124.937 24.08H121.777L120.537 22.04C120.417 21.8189 120.296 21.5956 120.176 21.3724C119.936 20.929 119.697 20.4857 119.457 20.06H119.357C119.123 20.5291 118.899 21.009 118.67 21.4996C118.587 21.6783 118.503 21.8585 118.417 22.04L117.377 24.08ZM139.333 16.62C139.333 21.42 136.633 24.36 132.713 24.36C128.793 24.36 126.093 21.42 126.093 16.62C126.093 11.8 128.793 9 132.713 9C136.633 9 139.333 11.82 139.333 16.62ZM152.084 19.88C152.084 22.3 150.064 24.36 146.644 24.36C144.664 24.36 142.684 23.58 141.244 22.2L142.944 20.16C144.004 21.14 145.404 21.8 146.704 21.8C148.244 21.8 149.064 21.14 149.064 20.1C149.064 19.0393 148.227 18.6852 146.984 18.1592L144.864 17.26C143.364 16.64 141.864 15.44 141.864 13.28C141.864 10.86 143.984 9 146.984 9C148.704 9 150.424 9.67999 151.624 10.9L150.124 12.76C149.184 11.98 148.204 11.54 146.984 11.54C145.684 11.54 144.844 12.12 144.844 13.1C144.844 14.1219 145.829 14.5118 147.029 14.9866L147.164 15.04L149.104 15.86C150.904 16.6 152.084 17.74 152.084 19.88Z" fill="white"/>
</svg>
