<svg width="1190" height="948" viewBox="0 0 1190 948" fill="none" xmlns="http://www.w3.org/2000/svg">
<path d="M590 120L590 336" stroke="#2C99FF"/>
<path d="M938 458V366C938 349.431 924.518 336 907.949 336C664.47 336 515.53 336 272.051 336C255.482 336 242 349.431 242 366V458" stroke="#2C99FF"/>
<path d="M590 227H693" stroke="#2C99FF"/>
<rect x="693" y="177" width="222" height="100" rx="50" fill="#E9F3FF"/>
<path d="M759.765 217.08H755.775V221.1C755.775 226.23 753.675 231.51 749.025 233.7L751.395 236.91C754.515 235.38 756.585 232.47 757.785 228.96C758.925 232.26 760.875 234.93 763.755 236.4L766.155 233.28C761.715 231.09 759.765 226.08 759.765 221.1V217.08ZM775.245 225.57H771.225V214.95H767.265V242.58H771.225V228.87H775.245V225.57ZM796.362 239.1H785.922V236.64H796.362V239.1ZM796.362 233.64H785.922V231H781.992V242.25H800.292V231H796.362V233.64ZM784.812 225.99C782.802 225.99 781.332 224.76 781.332 222.69C781.332 220.62 782.802 219.39 784.812 219.39C786.852 219.39 788.322 220.62 788.322 222.69C788.322 224.76 786.852 225.99 784.812 225.99ZM796.332 214.95V221.04H791.922C791.142 218.1 788.322 216.09 784.812 216.09C780.672 216.09 777.552 218.85 777.552 222.69C777.552 226.53 780.672 229.29 784.812 229.29C788.382 229.29 791.202 227.25 791.952 224.25H796.332V229.8H800.292V214.95H796.332ZM811.78 234.3H807.82V242.1H826.99V238.95H811.78V234.3ZM811.9 221.7H822.67V224.1H811.9V221.7ZM819.22 229.53V227.22H826.6V215.94H822.67V218.64H811.9V215.94H807.97V227.22H815.26V229.53H804.79V232.68H829.78V229.53H819.22ZM850.538 225.09H839.168V222.24H850.538V225.09ZM854.438 216H850.538V219.15H839.168V216H835.238V228.24H854.438V216ZM857.408 230.85H832.388V234H842.828V242.61H846.788V234H857.408V230.85Z" fill="#2C99FF"/>
<rect y="458" width="504" height="490" rx="40" fill="#E9F3FF"/>
<path d="M203.825 528H208.265V520.11H211.235C216.005 520.11 219.815 517.83 219.815 512.76C219.815 507.51 216.035 505.77 211.115 505.77H203.825V528ZM208.265 516.6V509.31H210.785C213.845 509.31 215.465 510.18 215.465 512.76C215.465 515.31 213.995 516.6 210.935 516.6H208.265ZM223.834 528H227.824V518.73C227.824 516.63 227.464 513.54 227.254 511.44H227.374L229.144 516.66L232.594 525.99H235.144L238.564 516.66L240.364 511.44H240.514C240.274 513.54 239.944 516.63 239.944 518.73V528H243.994V505.77H239.074L235.384 516.18C234.904 517.56 234.514 519.03 234.034 520.44H233.884C233.434 519.03 233.014 517.56 232.534 516.18L228.754 505.77H223.834V528ZM254.99 522.3H251.03V530.1H270.2V526.95H254.99V522.3ZM255.11 509.7H265.88V512.1H255.11V509.7ZM262.43 517.53V515.22H269.81V503.94H265.88V506.64H255.11V503.94H251.18V515.22H258.47V517.53H248V520.68H272.99V517.53H262.43ZM293.748 513.09H282.378V510.24H293.748V513.09ZM297.648 504H293.748V507.15H282.378V504H278.448V516.24H297.648V504ZM300.618 518.85H275.598V522H286.038V530.61H289.998V522H300.618V518.85Z" fill="#2C99FF"/>
<rect x="20" y="590" width="222" height="248" rx="30" fill="white"/>
<path d="M20 685H242V898C242 914.569 228.569 928 212 928H50C33.4315 928 20 914.569 20 898V685Z" fill="#F8F9FA"/>
<path d="M114.893 647.336C117.197 647.336 119.093 646.424 120.557 644.72L118.685 642.512C117.725 643.544 116.549 644.264 115.013 644.264C112.205 644.264 110.381 641.936 110.381 638.072C110.381 634.256 112.397 631.952 115.085 631.952C116.429 631.952 117.461 632.576 118.373 633.44L120.221 631.184C119.069 629.984 117.269 628.904 115.013 628.904C110.525 628.904 106.757 632.336 106.757 638.192C106.757 644.12 110.405 647.336 114.893 647.336ZM127.972 647.336C132.076 647.336 134.5 644.864 134.5 641.96C134.5 639.392 133.084 638.024 130.924 637.136L128.596 636.152C127.084 635.552 125.836 635.096 125.836 633.824C125.836 632.648 126.82 631.952 128.38 631.952C129.844 631.952 131.02 632.48 132.148 633.416L133.948 631.184C132.508 629.72 130.444 628.904 128.38 628.904C124.78 628.904 122.236 631.136 122.236 634.04C122.236 636.632 124.036 638.072 125.836 638.816L128.212 639.824C129.796 640.496 130.876 640.904 130.876 642.224C130.876 643.472 129.892 644.264 128.044 644.264C126.484 644.264 124.804 643.472 123.532 642.296L121.492 644.744C123.22 646.4 125.596 647.336 127.972 647.336ZM154.829 626.984H151.661V638.12H154.829V626.984ZM150.053 635.384C146.477 634.328 144.893 631.76 144.893 629.144V627.488H141.677V629.144C141.677 631.832 140.069 634.616 136.397 635.744L137.933 638.216C140.525 637.424 142.325 635.744 143.333 633.656C144.317 635.576 146.021 637.112 148.541 637.856L150.053 635.384ZM143.285 646.448V645.08H154.853V639.104H140.117V641.528H151.709V642.824H140.141V648.896H155.405V646.448H143.285Z" fill="#666666"/>
<path d="M90.3998 747.992H96.4238V758.72H90.3998V747.992ZM88.4798 760.304H98.3438V746.408H88.4798V760.304ZM107.728 752.84H104.176V744.272H102.208V765.776H104.176V754.496H107.728V752.84ZM121.646 752.744H118.262C118.862 750.848 119.102 748.808 119.102 746.792H110.87V748.376H117.206C117.134 749.552 116.966 750.68 116.654 751.808L109.814 752.264L110.078 753.944L116.126 753.344C115.07 755.864 113.102 758.12 109.814 759.896L110.942 761.312C114.374 759.392 116.462 756.992 117.662 754.352H121.646V764.672H123.494V744.8H121.646V752.744ZM126.11 744.224V765.752H127.982V744.224H126.11ZM149.436 744.272H147.468V757.592H149.436V744.272ZM144.996 753.872C141.996 754.376 139.452 754.472 134.964 754.472V751.664H142.668V750.104H134.964V747.416H143.268V745.832H132.996V756.056H134.748C139.452 756.056 142.068 755.96 145.212 755.432L144.996 753.872ZM142.284 764.216C139.02 764.216 137.028 763.328 137.028 761.84C137.028 760.304 139.02 759.44 142.284 759.44C145.572 759.44 147.564 760.304 147.564 761.84C147.564 763.328 145.572 764.216 142.284 764.216ZM142.284 757.904C137.82 757.904 135.084 759.32 135.084 761.84C135.084 764.336 137.82 765.752 142.284 765.752C146.772 765.752 149.508 764.336 149.508 761.84C149.508 759.32 146.772 757.904 142.284 757.904ZM167.074 753.608C164.074 754.112 161.53 754.208 157.042 754.208V751.376H164.746V749.816H157.042V747.152H165.346V745.568H155.074V755.792H156.826C161.53 755.792 164.146 755.696 167.29 755.168L167.074 753.608ZM159.514 759.752H169.594V763.904H159.514V759.752ZM157.594 765.488H171.514V758.168H157.594V765.488ZM169.546 744.272V757.112H171.514V744.272H169.546ZM114.025 817.312C116.305 817.312 118.033 816.4 119.425 814.792L118.201 813.4C117.073 814.624 115.801 815.368 114.121 815.368C110.761 815.368 108.649 812.584 108.649 808.144C108.649 803.752 110.857 801.016 114.193 801.016C115.705 801.016 116.881 801.712 117.793 802.696L118.993 801.256C117.985 800.128 116.305 799.072 114.169 799.072C109.705 799.072 106.369 802.528 106.369 808.216C106.369 813.928 109.657 817.312 114.025 817.312ZM126.921 817.312C130.593 817.312 132.897 815.104 132.897 812.32C132.897 809.704 131.313 808.504 129.273 807.616L126.753 806.536C125.385 805.96 123.849 805.312 123.849 803.608C123.849 802.024 125.145 801.016 127.137 801.016C128.769 801.016 130.065 801.664 131.145 802.672L132.321 801.256C131.073 799.96 129.225 799.072 127.137 799.072C123.945 799.072 121.593 801.04 121.593 803.752C121.593 806.32 123.537 807.568 125.169 808.264L127.713 809.368C129.369 810.112 130.641 810.688 130.641 812.488C130.641 814.216 129.249 815.368 126.945 815.368C125.121 815.368 123.345 814.504 122.097 813.184L120.753 814.696C122.289 816.304 124.425 817.312 126.921 817.312ZM148.441 806.608C145.441 807.112 142.897 807.208 138.409 807.208V804.376H146.113V802.816H138.409V800.152H146.713V798.568H136.441V808.792H138.193C142.897 808.792 145.513 808.696 148.657 808.168L148.441 806.608ZM140.881 812.752H150.961V816.904H140.881V812.752ZM138.961 818.488H152.881V811.168H138.961V818.488ZM150.913 797.272V810.112H152.881V797.272H150.913ZM112.703 870.312C116.303 870.312 119.039 868.392 119.039 862.728V852.384H116.903V862.8C116.903 867.048 115.055 868.368 112.703 868.368C110.423 868.368 108.623 867.048 108.623 862.8V852.384H106.391V862.728C106.391 868.392 109.127 870.312 112.703 870.312ZM121.51 870H123.838L126.382 865.248C126.838 864.36 127.294 863.472 127.798 862.416H127.894C128.47 863.472 128.95 864.36 129.406 865.248L131.998 870H134.446L129.31 861.024L134.11 852.384H131.782L129.43 856.896C128.998 857.712 128.662 858.456 128.182 859.464H128.086C127.51 858.456 127.15 857.712 126.694 856.896L124.294 852.384H121.846L126.646 860.904L121.51 870ZM149.355 859.608C146.355 860.112 143.811 860.208 139.323 860.208V857.376H147.027V855.816H139.323V853.152H147.627V851.568H137.355V861.792H139.107C143.811 861.792 146.427 861.696 149.571 861.168L149.355 859.608ZM141.795 865.752H151.875V869.904H141.795V865.752ZM139.875 871.488H153.795V864.168H139.875V871.488ZM151.827 850.272V863.112H153.795V850.272H151.827Z" fill="#666666"/>
<rect x="262" y="590" width="222" height="248" rx="30" fill="white"/>
<path d="M262 685H484V898C484 914.569 470.569 928 454 928H292C275.431 928 262 914.569 262 898V685Z" fill="#F8F9FA"/>
<path d="M349.293 647H352.845V640.688H355.221C359.037 640.688 362.085 638.864 362.085 634.808C362.085 630.608 359.061 629.216 355.125 629.216H349.293V647ZM352.845 637.88V632.048H354.861C357.309 632.048 358.605 632.744 358.605 634.808C358.605 636.848 357.429 637.88 354.981 637.88H352.845ZM370.324 647.336C374.428 647.336 376.852 644.864 376.852 641.96C376.852 639.392 375.436 638.024 373.276 637.136L370.948 636.152C369.436 635.552 368.188 635.096 368.188 633.824C368.188 632.648 369.172 631.952 370.732 631.952C372.196 631.952 373.372 632.48 374.5 633.416L376.3 631.184C374.86 629.72 372.796 628.904 370.732 628.904C367.132 628.904 364.588 631.136 364.588 634.04C364.588 636.632 366.388 638.072 368.188 638.816L370.564 639.824C372.148 640.496 373.228 640.904 373.228 642.224C373.228 643.472 372.244 644.264 370.396 644.264C368.836 644.264 367.156 643.472 365.884 642.296L363.844 644.744C365.572 646.4 367.948 647.336 370.324 647.336ZM397.181 626.984H394.013V638.12H397.181V626.984ZM392.405 635.384C388.829 634.328 387.245 631.76 387.245 629.144V627.488H384.029V629.144C384.029 631.832 382.421 634.616 378.749 635.744L380.285 638.216C382.877 637.424 384.677 635.744 385.685 633.656C386.669 635.576 388.373 637.112 390.893 637.856L392.405 635.384ZM385.637 646.448V645.08H397.205V639.104H382.469V641.528H394.061V642.824H382.493V648.896H397.757V646.448H385.637Z" fill="#666666"/>
<path d="M332.4 747.992H338.424V758.72H332.4V747.992ZM330.48 760.304H340.344V746.408H330.48V760.304ZM349.728 752.84H346.176V744.272H344.208V765.776H346.176V754.496H349.728V752.84ZM363.646 752.744H360.262C360.862 750.848 361.102 748.808 361.102 746.792H352.87V748.376H359.206C359.134 749.552 358.966 750.68 358.654 751.808L351.814 752.264L352.078 753.944L358.126 753.344C357.07 755.864 355.102 758.12 351.814 759.896L352.942 761.312C356.374 759.392 358.462 756.992 359.662 754.352H363.646V764.672H365.494V744.8H363.646V752.744ZM368.11 744.224V765.752H369.982V744.224H368.11ZM391.436 744.272H389.468V757.592H391.436V744.272ZM386.996 753.872C383.996 754.376 381.452 754.472 376.964 754.472V751.664H384.668V750.104H376.964V747.416H385.268V745.832H374.996V756.056H376.748C381.452 756.056 384.068 755.96 387.212 755.432L386.996 753.872ZM384.284 764.216C381.02 764.216 379.028 763.328 379.028 761.84C379.028 760.304 381.02 759.44 384.284 759.44C387.572 759.44 389.564 760.304 389.564 761.84C389.564 763.328 387.572 764.216 384.284 764.216ZM384.284 757.904C379.82 757.904 377.084 759.32 377.084 761.84C377.084 764.336 379.82 765.752 384.284 765.752C388.772 765.752 391.508 764.336 391.508 761.84C391.508 759.32 388.772 757.904 384.284 757.904ZM409.074 753.608C406.074 754.112 403.53 754.208 399.042 754.208V751.376H406.746V749.816H399.042V747.152H407.346V745.568H397.074V755.792H398.826C403.53 755.792 406.146 755.696 409.29 755.168L409.074 753.608ZM401.514 759.752H411.594V763.904H401.514V759.752ZM399.594 765.488H413.514V758.168H399.594V765.488ZM411.546 744.272V757.112H413.514V744.272H411.546ZM356.025 817.312C358.305 817.312 360.033 816.4 361.425 814.792L360.201 813.4C359.073 814.624 357.801 815.368 356.121 815.368C352.761 815.368 350.649 812.584 350.649 808.144C350.649 803.752 352.857 801.016 356.193 801.016C357.705 801.016 358.881 801.712 359.793 802.696L360.993 801.256C359.985 800.128 358.305 799.072 356.169 799.072C351.705 799.072 348.369 802.528 348.369 808.216C348.369 813.928 351.657 817.312 356.025 817.312ZM368.921 817.312C372.593 817.312 374.897 815.104 374.897 812.32C374.897 809.704 373.313 808.504 371.273 807.616L368.753 806.536C367.385 805.96 365.849 805.312 365.849 803.608C365.849 802.024 367.145 801.016 369.137 801.016C370.769 801.016 372.065 801.664 373.145 802.672L374.321 801.256C373.073 799.96 371.225 799.072 369.137 799.072C365.945 799.072 363.593 801.04 363.593 803.752C363.593 806.32 365.537 807.568 367.169 808.264L369.713 809.368C371.369 810.112 372.641 810.688 372.641 812.488C372.641 814.216 371.249 815.368 368.945 815.368C367.121 815.368 365.345 814.504 364.097 813.184L362.753 814.696C364.289 816.304 366.425 817.312 368.921 817.312ZM390.441 806.608C387.441 807.112 384.897 807.208 380.409 807.208V804.376H388.113V802.816H380.409V800.152H388.713V798.568H378.441V808.792H380.193C384.897 808.792 387.513 808.696 390.657 808.168L390.441 806.608ZM382.881 812.752H392.961V816.904H382.881V812.752ZM380.961 818.488H394.881V811.168H380.961V818.488ZM392.913 797.272V810.112H394.881V797.272H392.913ZM354.703 870.312C358.303 870.312 361.039 868.392 361.039 862.728V852.384H358.903V862.8C358.903 867.048 357.055 868.368 354.703 868.368C352.423 868.368 350.623 867.048 350.623 862.8V852.384H348.391V862.728C348.391 868.392 351.127 870.312 354.703 870.312ZM363.51 870H365.838L368.382 865.248C368.838 864.36 369.294 863.472 369.798 862.416H369.894C370.47 863.472 370.95 864.36 371.406 865.248L373.998 870H376.446L371.31 861.024L376.11 852.384H373.782L371.43 856.896C370.998 857.712 370.662 858.456 370.182 859.464H370.086C369.51 858.456 369.15 857.712 368.694 856.896L366.294 852.384H363.846L368.646 860.904L363.51 870ZM391.355 859.608C388.355 860.112 385.811 860.208 381.323 860.208V857.376H389.027V855.816H381.323V853.152H389.627V851.568H379.355V861.792H381.107C385.811 861.792 388.427 861.696 391.571 861.168L391.355 859.608ZM383.795 865.752H393.875V869.904H383.795V865.752ZM381.875 871.488H395.795V864.168H381.875V871.488ZM393.827 850.272V863.112H395.795V850.272H393.827Z" fill="#666666"/>
<rect x="686" y="458" width="504" height="490" rx="40" fill="#E9F3FF"/>
<path d="M887.705 511.74C887.705 509.46 889.205 508.05 891.215 508.05C893.255 508.05 894.755 509.46 894.755 511.74C894.755 514.05 893.255 515.46 891.215 515.46C889.205 515.46 887.705 514.05 887.705 511.74ZM902.735 509.94V513.51H898.295C898.445 512.97 898.505 512.34 898.505 511.74C898.505 511.11 898.415 510.51 898.295 509.94H902.735ZM902.735 516.66V523.17H906.695V502.95H902.735V506.79H896.585C895.235 505.41 893.375 504.6 891.215 504.6C887.135 504.6 883.955 507.63 883.955 511.74C883.955 515.88 887.135 518.91 891.215 518.91C893.375 518.91 895.295 518.07 896.645 516.66H902.735ZM892.445 526.95V521.19H888.485V530.1H907.325V526.95H892.445ZM936.182 516.3H932.552C933.242 512.43 933.242 509.61 933.242 507.03V504.54H914.072V507.72H929.372C929.372 510.09 929.312 512.79 928.622 516.3H911.222V519.48H921.542V530.58H925.562V519.48H936.182V516.3ZM945.78 522.3H941.82V530.1H960.99V526.95H945.78V522.3ZM945.9 509.7H956.67V512.1H945.9V509.7ZM953.22 517.53V515.22H960.6V503.94H956.67V506.64H945.9V503.94H941.97V515.22H949.26V517.53H938.79V520.68H963.78V517.53H953.22ZM984.538 513.09H973.168V510.24H984.538V513.09ZM988.438 504H984.538V507.15H973.168V504H969.238V516.24H988.438V504ZM991.408 518.85H966.388V522H976.828V530.61H980.788V522H991.408V518.85Z" fill="#2C99FF"/>
<rect x="706" y="590" width="222" height="248" rx="30" fill="white"/>
<path d="M706 685H928V898C928 914.569 914.569 928 898 928H736C719.431 928 706 914.569 706 898V685Z" fill="#F8F9FA"/>
<path d="M788.693 647.336C793.397 647.336 796.637 643.808 796.637 638.048C796.637 632.288 793.397 628.904 788.693 628.904C783.989 628.904 780.749 632.264 780.749 638.048C780.749 643.808 783.989 647.336 788.693 647.336ZM788.693 644.264C786.053 644.264 784.373 641.84 784.373 638.048C784.373 634.232 786.053 631.952 788.693 631.952C791.333 631.952 793.013 634.232 793.013 638.048C793.013 641.84 791.333 644.264 788.693 644.264ZM805.41 647.336C809.514 647.336 811.938 644.864 811.938 641.96C811.938 639.392 810.522 638.024 808.362 637.136L806.034 636.152C804.522 635.552 803.274 635.096 803.274 633.824C803.274 632.648 804.258 631.952 805.818 631.952C807.282 631.952 808.458 632.48 809.586 633.416L811.386 631.184C809.946 629.72 807.882 628.904 805.818 628.904C802.218 628.904 799.674 631.136 799.674 634.04C799.674 636.632 801.474 638.072 803.274 638.816L805.65 639.824C807.234 640.496 808.314 640.904 808.314 642.224C808.314 643.472 807.33 644.264 805.482 644.264C803.922 644.264 802.242 643.472 800.97 642.296L798.93 644.744C800.658 646.4 803.034 647.336 805.41 647.336ZM820.304 647H830.984V644.144H827.648V629.696H825.032C823.904 630.392 822.68 630.848 820.904 631.184V633.368H824.12V644.144H820.304V647ZM851.837 626.984H848.669V638.12H851.837V626.984ZM847.061 635.384C843.485 634.328 841.901 631.76 841.901 629.144V627.488H838.685V629.144C838.685 631.832 837.077 634.616 833.405 635.744L834.941 638.216C837.533 637.424 839.333 635.744 840.341 633.656C841.325 635.576 843.029 637.112 845.549 637.856L847.061 635.384ZM840.293 646.448V645.08H851.861V639.104H837.125V641.528H848.717V642.824H837.149V648.896H852.413V646.448H840.293Z" fill="#666666"/>
<path d="M778.142 737.312C782.558 737.312 785.654 733.784 785.654 728.144C785.654 722.504 782.558 719.072 778.142 719.072C773.726 719.072 770.63 722.504 770.63 728.144C770.63 733.784 773.726 737.312 778.142 737.312ZM778.142 735.368C774.974 735.368 772.91 732.536 772.91 728.144C772.91 723.728 774.974 721.016 778.142 721.016C781.286 721.016 783.374 723.728 783.374 728.144C783.374 732.536 781.286 735.368 778.142 735.368ZM794.347 737.312C798.019 737.312 800.323 735.104 800.323 732.32C800.323 729.704 798.739 728.504 796.699 727.616L794.179 726.536C792.811 725.96 791.275 725.312 791.275 723.608C791.275 722.024 792.571 721.016 794.563 721.016C796.195 721.016 797.491 721.664 798.571 722.672L799.747 721.256C798.499 719.96 796.651 719.072 794.563 719.072C791.371 719.072 789.019 721.04 789.019 723.752C789.019 726.32 790.963 727.568 792.595 728.264L795.139 729.368C796.795 730.112 798.067 730.688 798.067 732.488C798.067 734.216 796.675 735.368 794.371 735.368C792.547 735.368 790.771 734.504 789.523 733.184L788.179 734.696C789.715 736.304 791.851 737.312 794.347 737.312ZM808.85 737H818.498V735.176H814.97V719.888H813.29C812.33 720.464 811.202 720.872 809.642 721.136V722.552H812.762V735.176H808.85V737ZM821.155 731.12H827.299V729.44H821.155V731.12ZM830.483 737H840.131V735.176H836.603V719.888H834.923C833.963 720.464 832.835 720.872 831.275 721.136V722.552H834.395V735.176H830.483V737ZM856.18 726.608C853.18 727.112 850.636 727.208 846.148 727.208V724.376H853.852V722.816H846.148V720.152H854.452V718.568H844.18V728.792H845.932C850.636 728.792 853.252 728.696 856.396 728.168L856.18 726.608ZM848.62 732.752H858.7V736.904H848.62V732.752ZM846.7 738.488H860.62V731.168H846.7V738.488ZM858.652 717.272V730.112H860.62V717.272H858.652ZM778.142 790.312C782.558 790.312 785.654 786.784 785.654 781.144C785.654 775.504 782.558 772.072 778.142 772.072C773.726 772.072 770.63 775.504 770.63 781.144C770.63 786.784 773.726 790.312 778.142 790.312ZM778.142 788.368C774.974 788.368 772.91 785.536 772.91 781.144C772.91 776.728 774.974 774.016 778.142 774.016C781.286 774.016 783.374 776.728 783.374 781.144C783.374 785.536 781.286 788.368 778.142 788.368ZM794.347 790.312C798.019 790.312 800.323 788.104 800.323 785.32C800.323 782.704 798.739 781.504 796.699 780.616L794.179 779.536C792.811 778.96 791.275 778.312 791.275 776.608C791.275 775.024 792.571 774.016 794.563 774.016C796.195 774.016 797.491 774.664 798.571 775.672L799.747 774.256C798.499 772.96 796.651 772.072 794.563 772.072C791.371 772.072 789.019 774.04 789.019 776.752C789.019 779.32 790.963 780.568 792.595 781.264L795.139 782.368C796.795 783.112 798.067 783.688 798.067 785.488C798.067 787.216 796.675 788.368 794.371 788.368C792.547 788.368 790.771 787.504 789.523 786.184L788.179 787.696C789.715 789.304 791.851 790.312 794.347 790.312ZM808.85 790H818.498V788.176H814.97V772.888H813.29C812.33 773.464 811.202 773.872 809.642 774.136V775.552H812.762V788.176H808.85V790ZM821.155 784.12H827.299V782.44H821.155V784.12ZM829.427 790H840.491V788.104H835.523C834.611 788.104 833.555 788.2 832.643 788.272C836.699 784 839.627 780.808 839.627 777.592C839.627 774.568 837.659 772.576 834.515 772.576C832.283 772.576 830.771 773.608 829.331 775.168L830.603 776.392C831.563 775.264 832.811 774.352 834.251 774.352C836.435 774.352 837.491 775.744 837.491 777.688C837.491 780.496 834.587 783.568 829.427 788.704V790ZM856.18 779.608C853.18 780.112 850.636 780.208 846.148 780.208V777.376H853.852V775.816H846.148V773.152H854.452V771.568H844.18V781.792H845.932C850.636 781.792 853.252 781.696 856.396 781.168L856.18 779.608ZM848.62 785.752H858.7V789.904H848.62V785.752ZM846.7 791.488H860.62V784.168H846.7V791.488ZM858.652 770.272V783.112H860.62V770.272H858.652ZM778.142 843.312C782.558 843.312 785.654 839.784 785.654 834.144C785.654 828.504 782.558 825.072 778.142 825.072C773.726 825.072 770.63 828.504 770.63 834.144C770.63 839.784 773.726 843.312 778.142 843.312ZM778.142 841.368C774.974 841.368 772.91 838.536 772.91 834.144C772.91 829.728 774.974 827.016 778.142 827.016C781.286 827.016 783.374 829.728 783.374 834.144C783.374 838.536 781.286 841.368 778.142 841.368ZM794.347 843.312C798.019 843.312 800.323 841.104 800.323 838.32C800.323 835.704 798.739 834.504 796.699 833.616L794.179 832.536C792.811 831.96 791.275 831.312 791.275 829.608C791.275 828.024 792.571 827.016 794.563 827.016C796.195 827.016 797.491 827.664 798.571 828.672L799.747 827.256C798.499 825.96 796.651 825.072 794.563 825.072C791.371 825.072 789.019 827.04 789.019 829.752C789.019 832.32 790.963 833.568 792.595 834.264L795.139 835.368C796.795 836.112 798.067 836.688 798.067 838.488C798.067 840.216 796.675 841.368 794.371 841.368C792.547 841.368 790.771 840.504 789.523 839.184L788.179 840.696C789.715 842.304 791.851 843.312 794.347 843.312ZM808.85 843H818.498V841.176H814.97V825.888H813.29C812.33 826.464 811.202 826.872 809.642 827.136V828.552H812.762V841.176H808.85V843ZM821.155 837.12H827.299V835.44H821.155V837.12ZM834.707 843.312C837.827 843.312 840.347 841.488 840.347 838.44C840.347 836.088 838.691 834.576 836.627 834.072V833.976C838.475 833.304 839.747 831.984 839.747 829.92C839.747 827.136 837.587 825.576 834.635 825.576C832.595 825.576 831.035 826.464 829.715 827.712L830.891 829.08C831.875 828.072 833.123 827.352 834.539 827.352C836.363 827.352 837.515 828.408 837.515 830.064C837.515 831.864 836.267 833.28 832.643 833.28V834.96C836.699 834.96 838.115 836.304 838.115 838.344C838.115 840.264 836.627 841.488 834.539 841.488C832.547 841.488 831.203 840.552 830.171 839.472L829.067 840.912C830.219 842.16 831.947 843.312 834.707 843.312ZM856.18 832.608C853.18 833.112 850.636 833.208 846.148 833.208V830.376H853.852V828.816H846.148V826.152H854.452V824.568H844.18V834.792H845.932C850.636 834.792 853.252 834.696 856.396 834.168L856.18 832.608ZM848.62 838.752H858.7V842.904H848.62V838.752ZM846.7 844.488H860.62V837.168H846.7V844.488ZM858.652 823.272V836.112H860.62V823.272H858.652ZM778.142 896.312C782.558 896.312 785.654 892.784 785.654 887.144C785.654 881.504 782.558 878.072 778.142 878.072C773.726 878.072 770.63 881.504 770.63 887.144C770.63 892.784 773.726 896.312 778.142 896.312ZM778.142 894.368C774.974 894.368 772.91 891.536 772.91 887.144C772.91 882.728 774.974 880.016 778.142 880.016C781.286 880.016 783.374 882.728 783.374 887.144C783.374 891.536 781.286 894.368 778.142 894.368ZM794.347 896.312C798.019 896.312 800.323 894.104 800.323 891.32C800.323 888.704 798.739 887.504 796.699 886.616L794.179 885.536C792.811 884.96 791.275 884.312 791.275 882.608C791.275 881.024 792.571 880.016 794.563 880.016C796.195 880.016 797.491 880.664 798.571 881.672L799.747 880.256C798.499 878.96 796.651 878.072 794.563 878.072C791.371 878.072 789.019 880.04 789.019 882.752C789.019 885.32 790.963 886.568 792.595 887.264L795.139 888.368C796.795 889.112 798.067 889.688 798.067 891.488C798.067 893.216 796.675 894.368 794.371 894.368C792.547 894.368 790.771 893.504 789.523 892.184L788.179 893.696C789.715 895.304 791.851 896.312 794.347 896.312ZM808.85 896H818.498V894.176H814.97V878.888H813.29C812.33 879.464 811.202 879.872 809.642 880.136V881.552H812.762V894.176H808.85V896ZM821.155 890.12H827.299V888.44H821.155V890.12ZM831.131 889.52L835.139 883.64C835.643 882.8 836.123 882.056 836.555 881.24H836.651C836.603 882.152 836.531 883.616 836.531 884.504V889.52H831.131ZM836.531 896H838.595V891.272H840.923V889.52H838.595V878.888H836.171L828.851 889.832V891.272H836.531V896ZM856.18 885.608C853.18 886.112 850.636 886.208 846.148 886.208V883.376H853.852V881.816H846.148V879.152H854.452V877.568H844.18V887.792H845.932C850.636 887.792 853.252 887.696 856.396 887.168L856.18 885.608ZM848.62 891.752H858.7V895.904H848.62V891.752ZM846.7 897.488H860.62V890.168H846.7V897.488ZM858.652 876.272V889.112H860.62V876.272H858.652Z" fill="#666666"/>
<rect x="948" y="590" width="222" height="248" rx="30" fill="white"/>
<path d="M948 685H1170V898C1170 914.569 1156.57 928 1140 928H978C961.431 928 948 914.569 948 898V685Z" fill="#F8F9FA"/>
<path d="M1035.29 647H1038.85V640.688H1041.22C1045.04 640.688 1048.09 638.864 1048.09 634.808C1048.09 630.608 1045.06 629.216 1041.13 629.216H1035.29V647ZM1038.85 637.88V632.048H1040.86C1043.31 632.048 1044.61 632.744 1044.61 634.808C1044.61 636.848 1043.43 637.88 1040.98 637.88H1038.85ZM1056.32 647.336C1060.43 647.336 1062.85 644.864 1062.85 641.96C1062.85 639.392 1061.44 638.024 1059.28 637.136L1056.95 636.152C1055.44 635.552 1054.19 635.096 1054.19 633.824C1054.19 632.648 1055.17 631.952 1056.73 631.952C1058.2 631.952 1059.37 632.48 1060.5 633.416L1062.3 631.184C1060.86 629.72 1058.8 628.904 1056.73 628.904C1053.13 628.904 1050.59 631.136 1050.59 634.04C1050.59 636.632 1052.39 638.072 1054.19 638.816L1056.56 639.824C1058.15 640.496 1059.23 640.904 1059.23 642.224C1059.23 643.472 1058.24 644.264 1056.4 644.264C1054.84 644.264 1053.16 643.472 1051.88 642.296L1049.84 644.744C1051.57 646.4 1053.95 647.336 1056.32 647.336ZM1083.18 626.984H1080.01V638.12H1083.18V626.984ZM1078.4 635.384C1074.83 634.328 1073.24 631.76 1073.24 629.144V627.488H1070.03V629.144C1070.03 631.832 1068.42 634.616 1064.75 635.744L1066.28 638.216C1068.88 637.424 1070.68 635.744 1071.68 633.656C1072.67 635.576 1074.37 637.112 1076.89 637.856L1078.4 635.384ZM1071.64 646.448V645.08H1083.2V639.104H1068.47V641.528H1080.06V642.824H1068.49V648.896H1083.76V646.448H1071.64Z" fill="#666666"/>
<path d="M1020.14 737.312C1024.56 737.312 1027.65 733.784 1027.65 728.144C1027.65 722.504 1024.56 719.072 1020.14 719.072C1015.73 719.072 1012.63 722.504 1012.63 728.144C1012.63 733.784 1015.73 737.312 1020.14 737.312ZM1020.14 735.368C1016.97 735.368 1014.91 732.536 1014.91 728.144C1014.91 723.728 1016.97 721.016 1020.14 721.016C1023.29 721.016 1025.37 723.728 1025.37 728.144C1025.37 732.536 1023.29 735.368 1020.14 735.368ZM1036.35 737.312C1040.02 737.312 1042.32 735.104 1042.32 732.32C1042.32 729.704 1040.74 728.504 1038.7 727.616L1036.18 726.536C1034.81 725.96 1033.27 725.312 1033.27 723.608C1033.27 722.024 1034.57 721.016 1036.56 721.016C1038.19 721.016 1039.49 721.664 1040.57 722.672L1041.75 721.256C1040.5 719.96 1038.65 719.072 1036.56 719.072C1033.37 719.072 1031.02 721.04 1031.02 723.752C1031.02 726.32 1032.96 727.568 1034.59 728.264L1037.14 729.368C1038.79 730.112 1040.07 730.688 1040.07 732.488C1040.07 734.216 1038.67 735.368 1036.37 735.368C1034.55 735.368 1032.77 734.504 1031.52 733.184L1030.18 734.696C1031.71 736.304 1033.85 737.312 1036.35 737.312ZM1049.79 737H1060.86V735.104H1055.89C1054.98 735.104 1053.92 735.2 1053.01 735.272C1057.07 731 1059.99 727.808 1059.99 724.592C1059.99 721.568 1058.03 719.576 1054.88 719.576C1052.65 719.576 1051.14 720.608 1049.7 722.168L1050.97 723.392C1051.93 722.264 1053.18 721.352 1054.62 721.352C1056.8 721.352 1057.86 722.744 1057.86 724.688C1057.86 727.496 1054.95 730.568 1049.79 735.704V737ZM1063.15 731.12H1069.3V729.44H1063.15V731.12ZM1072.48 737H1082.13V735.176H1078.6V719.888H1076.92C1075.96 720.464 1074.84 720.872 1073.28 721.136V722.552H1076.4V735.176H1072.48V737ZM1098.18 726.608C1095.18 727.112 1092.64 727.208 1088.15 727.208V724.376H1095.85V722.816H1088.15V720.152H1096.45V718.568H1086.18V728.792H1087.93C1092.64 728.792 1095.25 728.696 1098.4 728.168L1098.18 726.608ZM1090.62 732.752H1100.7V736.904H1090.62V732.752ZM1088.7 738.488H1102.62V731.168H1088.7V738.488ZM1100.65 717.272V730.112H1102.62V717.272H1100.65ZM1020.14 790.312C1024.56 790.312 1027.65 786.784 1027.65 781.144C1027.65 775.504 1024.56 772.072 1020.14 772.072C1015.73 772.072 1012.63 775.504 1012.63 781.144C1012.63 786.784 1015.73 790.312 1020.14 790.312ZM1020.14 788.368C1016.97 788.368 1014.91 785.536 1014.91 781.144C1014.91 776.728 1016.97 774.016 1020.14 774.016C1023.29 774.016 1025.37 776.728 1025.37 781.144C1025.37 785.536 1023.29 788.368 1020.14 788.368ZM1036.35 790.312C1040.02 790.312 1042.32 788.104 1042.32 785.32C1042.32 782.704 1040.74 781.504 1038.7 780.616L1036.18 779.536C1034.81 778.96 1033.27 778.312 1033.27 776.608C1033.27 775.024 1034.57 774.016 1036.56 774.016C1038.19 774.016 1039.49 774.664 1040.57 775.672L1041.75 774.256C1040.5 772.96 1038.65 772.072 1036.56 772.072C1033.37 772.072 1031.02 774.04 1031.02 776.752C1031.02 779.32 1032.96 780.568 1034.59 781.264L1037.14 782.368C1038.79 783.112 1040.07 783.688 1040.07 785.488C1040.07 787.216 1038.67 788.368 1036.37 788.368C1034.55 788.368 1032.77 787.504 1031.52 786.184L1030.18 787.696C1031.71 789.304 1033.85 790.312 1036.35 790.312ZM1049.79 790H1060.86V788.104H1055.89C1054.98 788.104 1053.92 788.2 1053.01 788.272C1057.07 784 1059.99 780.808 1059.99 777.592C1059.99 774.568 1058.03 772.576 1054.88 772.576C1052.65 772.576 1051.14 773.608 1049.7 775.168L1050.97 776.392C1051.93 775.264 1053.18 774.352 1054.62 774.352C1056.8 774.352 1057.86 775.744 1057.86 777.688C1057.86 780.496 1054.95 783.568 1049.79 788.704V790ZM1063.15 784.12H1069.3V782.44H1063.15V784.12ZM1071.43 790H1082.49V788.104H1077.52C1076.61 788.104 1075.56 788.2 1074.64 788.272C1078.7 784 1081.63 780.808 1081.63 777.592C1081.63 774.568 1079.66 772.576 1076.52 772.576C1074.28 772.576 1072.77 773.608 1071.33 775.168L1072.6 776.392C1073.56 775.264 1074.81 774.352 1076.25 774.352C1078.44 774.352 1079.49 775.744 1079.49 777.688C1079.49 780.496 1076.59 783.568 1071.43 788.704V790ZM1098.18 779.608C1095.18 780.112 1092.64 780.208 1088.15 780.208V777.376H1095.85V775.816H1088.15V773.152H1096.45V771.568H1086.18V781.792H1087.93C1092.64 781.792 1095.25 781.696 1098.4 781.168L1098.18 779.608ZM1090.62 785.752H1100.7V789.904H1090.62V785.752ZM1088.7 791.488H1102.62V784.168H1088.7V791.488ZM1100.65 770.272V783.112H1102.62V770.272H1100.65ZM1020.14 843.312C1024.56 843.312 1027.65 839.784 1027.65 834.144C1027.65 828.504 1024.56 825.072 1020.14 825.072C1015.73 825.072 1012.63 828.504 1012.63 834.144C1012.63 839.784 1015.73 843.312 1020.14 843.312ZM1020.14 841.368C1016.97 841.368 1014.91 838.536 1014.91 834.144C1014.91 829.728 1016.97 827.016 1020.14 827.016C1023.29 827.016 1025.37 829.728 1025.37 834.144C1025.37 838.536 1023.29 841.368 1020.14 841.368ZM1036.35 843.312C1040.02 843.312 1042.32 841.104 1042.32 838.32C1042.32 835.704 1040.74 834.504 1038.7 833.616L1036.18 832.536C1034.81 831.96 1033.27 831.312 1033.27 829.608C1033.27 828.024 1034.57 827.016 1036.56 827.016C1038.19 827.016 1039.49 827.664 1040.57 828.672L1041.75 827.256C1040.5 825.96 1038.65 825.072 1036.56 825.072C1033.37 825.072 1031.02 827.04 1031.02 829.752C1031.02 832.32 1032.96 833.568 1034.59 834.264L1037.14 835.368C1038.79 836.112 1040.07 836.688 1040.07 838.488C1040.07 840.216 1038.67 841.368 1036.37 841.368C1034.55 841.368 1032.77 840.504 1031.52 839.184L1030.18 840.696C1031.71 842.304 1033.85 843.312 1036.35 843.312ZM1049.79 843H1060.86V841.104H1055.89C1054.98 841.104 1053.92 841.2 1053.01 841.272C1057.07 837 1059.99 833.808 1059.99 830.592C1059.99 827.568 1058.03 825.576 1054.88 825.576C1052.65 825.576 1051.14 826.608 1049.7 828.168L1050.97 829.392C1051.93 828.264 1053.18 827.352 1054.62 827.352C1056.8 827.352 1057.86 828.744 1057.86 830.688C1057.86 833.496 1054.95 836.568 1049.79 841.704V843ZM1063.15 837.12H1069.3V835.44H1063.15V837.12ZM1076.71 843.312C1079.83 843.312 1082.35 841.488 1082.35 838.44C1082.35 836.088 1080.69 834.576 1078.63 834.072V833.976C1080.48 833.304 1081.75 831.984 1081.75 829.92C1081.75 827.136 1079.59 825.576 1076.64 825.576C1074.6 825.576 1073.04 826.464 1071.72 827.712L1072.89 829.08C1073.88 828.072 1075.12 827.352 1076.54 827.352C1078.36 827.352 1079.52 828.408 1079.52 830.064C1079.52 831.864 1078.27 833.28 1074.64 833.28V834.96C1078.7 834.96 1080.12 836.304 1080.12 838.344C1080.12 840.264 1078.63 841.488 1076.54 841.488C1074.55 841.488 1073.2 840.552 1072.17 839.472L1071.07 840.912C1072.22 842.16 1073.95 843.312 1076.71 843.312ZM1098.18 832.608C1095.18 833.112 1092.64 833.208 1088.15 833.208V830.376H1095.85V828.816H1088.15V826.152H1096.45V824.568H1086.18V834.792H1087.93C1092.64 834.792 1095.25 834.696 1098.4 834.168L1098.18 832.608ZM1090.62 838.752H1100.7V842.904H1090.62V838.752ZM1088.7 844.488H1102.62V837.168H1088.7V844.488ZM1100.65 823.272V836.112H1102.62V823.272H1100.65ZM1020.14 896.312C1024.56 896.312 1027.65 892.784 1027.65 887.144C1027.65 881.504 1024.56 878.072 1020.14 878.072C1015.73 878.072 1012.63 881.504 1012.63 887.144C1012.63 892.784 1015.73 896.312 1020.14 896.312ZM1020.14 894.368C1016.97 894.368 1014.91 891.536 1014.91 887.144C1014.91 882.728 1016.97 880.016 1020.14 880.016C1023.29 880.016 1025.37 882.728 1025.37 887.144C1025.37 891.536 1023.29 894.368 1020.14 894.368ZM1036.35 896.312C1040.02 896.312 1042.32 894.104 1042.32 891.32C1042.32 888.704 1040.74 887.504 1038.7 886.616L1036.18 885.536C1034.81 884.96 1033.27 884.312 1033.27 882.608C1033.27 881.024 1034.57 880.016 1036.56 880.016C1038.19 880.016 1039.49 880.664 1040.57 881.672L1041.75 880.256C1040.5 878.96 1038.65 878.072 1036.56 878.072C1033.37 878.072 1031.02 880.04 1031.02 882.752C1031.02 885.32 1032.96 886.568 1034.59 887.264L1037.14 888.368C1038.79 889.112 1040.07 889.688 1040.07 891.488C1040.07 893.216 1038.67 894.368 1036.37 894.368C1034.55 894.368 1032.77 893.504 1031.52 892.184L1030.18 893.696C1031.71 895.304 1033.85 896.312 1036.35 896.312ZM1049.79 896H1060.86V894.104H1055.89C1054.98 894.104 1053.92 894.2 1053.01 894.272C1057.07 890 1059.99 886.808 1059.99 883.592C1059.99 880.568 1058.03 878.576 1054.88 878.576C1052.65 878.576 1051.14 879.608 1049.7 881.168L1050.97 882.392C1051.93 881.264 1053.18 880.352 1054.62 880.352C1056.8 880.352 1057.86 881.744 1057.86 883.688C1057.86 886.496 1054.95 889.568 1049.79 894.704V896ZM1063.15 890.12H1069.3V888.44H1063.15V890.12ZM1073.13 889.52L1077.14 883.64C1077.64 882.8 1078.12 882.056 1078.56 881.24H1078.65C1078.6 882.152 1078.53 883.616 1078.53 884.504V889.52H1073.13ZM1078.53 896H1080.6V891.272H1082.92V889.52H1080.6V878.888H1078.17L1070.85 889.832V891.272H1078.53V896ZM1098.18 885.608C1095.18 886.112 1092.64 886.208 1088.15 886.208V883.376H1095.85V881.816H1088.15V879.152H1096.45V877.568H1086.18V887.792H1087.93C1092.64 887.792 1095.25 887.696 1098.4 887.168L1098.18 885.608ZM1090.62 891.752H1100.7V895.904H1090.62V891.752ZM1088.7 897.488H1102.62V890.168H1088.7V897.488ZM1100.65 876.272V889.112H1102.62V876.272H1100.65Z" fill="#666666"/>
<g filter="url(#filter0_d_721_2783)">
<rect x="479" y="20" width="222" height="100" rx="50" fill="#2C99FF"/>
</g>
<path d="M533.97 83H539.34V65.12H545.4V60.65H527.94V65.12H533.97V83ZM547.014 83H552.354V71.6C553.344 70.55 554.274 70.07 555.054 70.07C556.404 70.07 557.034 70.73 557.034 73.1V83H562.374V71.6C563.394 70.55 564.324 70.07 565.104 70.07C566.454 70.07 567.054 70.73 567.054 73.1V83H572.394V72.44C572.394 68.18 570.774 65.51 567.054 65.51C564.774 65.51 563.184 66.83 561.714 68.33C560.844 66.5 559.404 65.51 557.034 65.51C554.724 65.51 553.254 66.68 551.844 68.09H551.754L551.364 65.93H547.014V83ZM580.894 83.42C582.784 83.42 584.374 82.55 585.784 81.29H585.934L586.294 83H590.644V73.31C590.644 67.97 588.154 65.51 583.744 65.51C581.074 65.51 578.644 66.41 576.394 67.76L578.254 71.27C579.964 70.31 581.374 69.77 582.724 69.77C584.464 69.77 585.184 70.58 585.304 71.96C578.644 72.68 575.824 74.63 575.824 78.23C575.824 81.08 577.744 83.42 580.894 83.42ZM582.724 79.28C581.614 79.28 580.894 78.8 580.894 77.81C580.894 76.61 581.974 75.62 585.304 75.2V77.93C584.524 78.77 583.804 79.28 582.724 79.28ZM593.087 83H598.637L599.807 80.3C600.227 79.31 600.647 78.32 601.067 77.39H601.217C601.757 78.32 602.267 79.34 602.777 80.3L604.337 83H610.067L604.847 74.72L609.767 65.93H604.247L603.197 68.54C602.837 69.53 602.417 70.52 602.087 71.48H601.937C601.457 70.52 600.977 69.53 600.527 68.54L599.117 65.93H593.387L598.307 74.12L593.087 83ZM621.976 83.42C628.066 83.42 632.206 79.04 632.206 71.72C632.206 64.43 628.066 60.26 621.976 60.26C615.886 60.26 611.746 64.4 611.746 71.72C611.746 79.04 615.886 83.42 621.976 83.42ZM621.976 78.8C619.036 78.8 617.236 76.04 617.236 71.72C617.236 67.4 619.036 64.85 621.976 64.85C624.916 64.85 626.746 67.4 626.746 71.72C626.746 76.04 624.916 78.8 621.976 78.8ZM643.28 83.42C648.68 83.42 651.8 80.15 651.8 76.43C651.8 73.28 650.15 71.42 647.39 70.31L644.6 69.2C642.62 68.42 641.24 67.94 641.24 66.68C641.24 65.51 642.23 64.85 643.88 64.85C645.62 64.85 647 65.45 648.47 66.56L651.14 63.2C649.19 61.25 646.46 60.26 643.88 60.26C639.14 60.26 635.78 63.26 635.78 67.01C635.78 70.25 637.97 72.2 640.31 73.13L643.16 74.33C645.08 75.14 646.31 75.56 646.31 76.85C646.31 78.05 645.38 78.8 643.4 78.8C641.63 78.8 639.56 77.87 638 76.52L634.94 80.21C637.25 82.34 640.37 83.42 643.28 83.42Z" fill="white"/>
<defs>
<filter id="filter0_d_721_2783" x="429" y="0" width="322" height="200" filterUnits="userSpaceOnUse" color-interpolation-filters="sRGB">
<feFlood flood-opacity="0" result="BackgroundImageFix"/>
<feColorMatrix in="SourceAlpha" type="matrix" values="0 0 0 0 0 0 0 0 0 0 0 0 0 0 0 0 0 0 127 0" result="hardAlpha"/>
<feOffset dy="30"/>
<feGaussianBlur stdDeviation="25"/>
<feComposite in2="hardAlpha" operator="out"/>
<feColorMatrix type="matrix" values="0 0 0 0 0.6875 0 0 0 0 0.6875 0 0 0 0 0.6875 0 0 0 0.1 0"/>
<feBlend mode="normal" in2="BackgroundImageFix" result="effect1_dropShadow_721_2783"/>
<feBlend mode="normal" in="SourceGraphic" in2="effect1_dropShadow_721_2783" result="shape"/>
</filter>
</defs>
</svg>
