<svg width="1076" height="1022" viewBox="0 0 1076 1022" fill="none" xmlns="http://www.w3.org/2000/svg">
<mask id="mask0_1114_35254" style="mask-type:alpha" maskUnits="userSpaceOnUse" x="0" y="0" width="1076" height="1022">
<rect width="1076" height="1022" fill="#F8F9FA"/>
</mask>
<g mask="url(#mask0_1114_35254)">
<g opacity="0.1">
<path fill-rule="evenodd" clip-rule="evenodd" d="M768.487 116.028C770.489 116.009 772.494 116 774.5 116C776.506 116 778.51 116.009 780.512 116.028C782.581 116.047 784.585 116.333 786.492 116.852C788.417 116.403 790.43 116.191 792.499 116.248C796.486 116.358 800.464 116.505 804.433 116.688C806.5 116.783 808.493 117.142 810.38 117.732C812.321 117.354 814.341 117.216 816.407 117.35C820.399 117.608 824.382 117.902 828.354 118.233C830.408 118.404 832.377 118.834 834.234 119.489C836.179 119.187 838.194 119.126 840.244 119.335C844.234 119.742 848.213 120.185 852.181 120.665C854.232 120.913 856.189 121.419 858.024 122.145C859.984 121.914 862.005 121.927 864.052 122.214C868.008 122.767 871.953 123.357 875.887 123.983C877.932 124.308 879.873 124.888 881.683 125.685C883.655 125.526 885.679 125.615 887.718 125.979C891.649 126.681 895.568 127.418 899.475 128.191C901.504 128.592 903.421 129.244 905.199 130.107C907.173 130.023 909.191 130.188 911.212 130.628C915.122 131.478 919.018 132.364 922.901 133.285C924.909 133.761 926.794 134.482 928.534 135.408C930.505 135.399 932.509 135.64 934.508 136.154C938.388 137.152 942.254 138.186 946.105 139.254C948.097 139.807 949.958 140.6 951.664 141.593C953.637 141.658 955.635 141.975 957.616 142.565C961.446 143.706 965.26 144.881 969.06 146.091C971.032 146.719 972.864 147.583 974.533 148.642C976.505 148.781 978.492 149.173 980.452 149.838C984.234 151.121 988 152.439 991.75 153.791C993.696 154.493 995.493 155.425 997.122 156.546C999.087 156.759 1001.06 157.225 1002.99 157.963C1006.72 159.39 1010.44 160.85 1014.14 162.344C1016.06 163.118 1017.82 164.115 1019.4 165.293C1021.35 165.58 1023.3 166.12 1025.2 166.929C1028.88 168.496 1032.54 170.097 1036.19 171.731C1038.07 172.576 1039.79 173.639 1041.33 174.877C1043.27 175.238 1045.2 175.85 1047.07 176.731C1050.69 178.433 1054.28 180.169 1057.86 181.936C1059.71 182.853 1061.39 183.981 1062.89 185.277C1064.81 185.71 1066.72 186.395 1068.55 187.346C1072.1 189.181 1075.63 191.048 1079.13 192.947C1080.95 193.933 1082.59 195.124 1084.03 196.475C1085.94 196.98 1087.82 197.736 1089.62 198.756C1093.09 200.724 1096.55 202.723 1099.99 204.754C1101.77 205.806 1103.35 207.055 1104.74 208.458C1106.63 209.034 1108.48 209.859 1110.24 210.944C1113.64 213.041 1117.02 215.17 1120.38 217.329C1122.12 218.446 1123.66 219.754 1124.99 221.207C1126.86 221.853 1128.67 222.747 1130.39 223.896C1133.71 226.119 1137.01 228.371 1140.28 230.654C1141.98 231.836 1143.47 233.201 1144.75 234.704C1146.59 235.419 1148.37 236.38 1150.04 237.593C1153.28 239.936 1156.49 242.309 1159.67 244.711C1161.32 245.955 1162.76 247.375 1163.99 248.925C1165.8 249.709 1167.54 250.735 1169.17 252.01C1172.31 254.472 1175.43 256.963 1178.53 259.482C1180.13 260.787 1181.52 262.259 1182.68 263.853C1184.46 264.704 1186.17 265.794 1187.75 267.128C1190.8 269.706 1193.82 272.311 1196.82 274.944C1198.37 276.308 1199.7 277.83 1200.81 279.466C1202.56 280.382 1204.22 281.534 1205.75 282.926C1208.7 285.615 1211.62 288.331 1214.52 291.075C1216.03 292.495 1217.3 294.066 1218.34 295.742C1220.06 296.722 1221.67 297.936 1223.15 299.384C1226 302.18 1228.82 305.003 1231.62 307.852C1233.06 309.327 1234.28 310.944 1235.26 312.658C1236.93 313.701 1238.5 314.974 1239.93 316.475C1242.67 319.376 1245.38 322.302 1248.07 325.253C1249.47 326.781 1250.62 328.442 1251.53 330.191C1253.17 331.295 1254.69 332.626 1256.06 334.179C1258.69 337.179 1261.29 340.204 1263.87 343.253C1265.21 344.832 1266.3 346.535 1267.15 348.317C1268.74 349.482 1270.21 350.869 1271.52 352.472C1274.04 355.567 1276.53 358.686 1278.99 361.829C1280.26 363.457 1281.29 365.2 1282.07 367.013C1283.62 368.236 1285.04 369.677 1286.29 371.328C1288.69 374.514 1291.06 377.724 1293.41 380.956C1294.62 382.63 1295.58 384.41 1296.3 386.25C1297.8 387.531 1299.16 389.023 1300.35 390.719C1302.63 393.994 1304.88 397.292 1307.1 400.612C1308.25 402.329 1309.15 404.142 1309.79 406.007C1311.25 407.342 1312.55 408.884 1313.67 410.622C1315.83 413.981 1317.96 417.361 1320.06 420.762C1321.14 422.521 1321.97 424.367 1322.54 426.256C1323.94 427.645 1325.19 429.234 1326.25 431.014C1328.28 434.449 1330.28 437.905 1332.24 441.381C1333.26 443.181 1334.02 445.059 1334.52 446.97C1335.88 448.411 1337.07 450.048 1338.05 451.867C1339.95 455.374 1341.82 458.9 1343.65 462.445C1344.61 464.282 1345.29 466.186 1345.72 468.114C1347.02 469.605 1348.15 471.285 1349.06 473.139C1350.83 476.717 1352.57 480.314 1354.27 483.929C1355.15 485.799 1355.76 487.726 1356.12 489.667C1357.36 491.204 1358.42 492.924 1359.27 494.81C1360.9 498.456 1362.5 502.119 1364.07 505.8C1364.88 507.701 1365.42 509.648 1365.71 511.6C1366.89 513.183 1367.88 514.941 1368.66 516.856C1370.15 520.557 1371.61 524.275 1373.04 528.01C1373.77 529.943 1374.24 531.913 1374.45 533.878C1375.57 535.506 1376.51 537.303 1377.21 539.249C1378.56 542.999 1379.88 546.765 1381.16 550.547C1381.83 552.507 1382.22 554.494 1382.36 556.466C1383.42 558.136 1384.28 559.967 1384.91 561.939C1386.12 565.739 1387.29 569.554 1388.43 573.383C1389.03 575.364 1389.34 577.362 1389.41 579.335C1390.4 581.042 1391.19 582.902 1391.75 584.894C1392.81 588.745 1393.85 592.611 1394.85 596.491C1395.36 598.49 1395.6 600.494 1395.59 602.465C1396.52 604.205 1397.24 606.091 1397.71 608.098C1398.64 611.981 1399.52 615.877 1400.37 619.787C1400.81 621.809 1400.98 623.826 1400.89 625.801C1401.76 627.578 1402.41 629.495 1402.81 631.524C1403.58 635.431 1404.32 639.35 1405.02 643.281C1405.38 645.32 1405.47 647.344 1405.31 649.316C1406.11 651.126 1406.69 653.067 1407.02 655.112C1407.64 659.046 1408.23 662.991 1408.79 666.947C1409.07 668.994 1409.09 671.015 1408.86 672.975C1409.58 674.81 1410.09 676.767 1410.33 678.818C1410.81 682.786 1411.26 686.765 1411.67 690.755C1411.87 692.805 1411.81 694.82 1411.51 696.765C1412.17 698.622 1412.6 700.591 1412.77 702.645C1413.1 706.617 1413.39 710.6 1413.65 714.592C1413.78 716.658 1413.65 718.678 1413.27 720.619C1413.86 722.506 1414.22 724.498 1414.31 726.566C1414.5 730.535 1414.64 734.513 1414.75 738.5C1414.81 740.569 1414.6 742.582 1414.15 744.507C1414.67 746.414 1414.95 748.418 1414.97 750.487C1414.99 752.489 1415 754.494 1415 756.5C1415 758.506 1414.99 760.51 1414.97 762.512C1414.95 764.581 1414.67 766.585 1414.15 768.492C1414.6 770.417 1414.81 772.43 1414.75 774.499C1414.64 778.486 1414.5 782.464 1414.31 786.433C1414.22 788.501 1413.86 790.493 1413.27 792.38C1413.65 794.321 1413.78 796.341 1413.65 798.407C1413.39 802.399 1413.1 806.382 1412.77 810.354C1412.6 812.408 1412.17 814.377 1411.51 816.234C1411.81 818.179 1411.87 820.194 1411.67 822.244C1411.26 826.234 1410.81 830.213 1410.33 834.181C1410.09 836.232 1409.58 838.189 1408.86 840.024C1409.09 841.984 1409.07 844.006 1408.79 846.052C1408.23 850.008 1407.64 853.953 1407.02 857.887C1406.69 859.932 1406.11 861.873 1405.31 863.683C1405.47 865.655 1405.38 867.679 1405.02 869.718C1404.32 873.649 1403.58 877.568 1402.81 881.475C1402.41 883.504 1401.76 885.421 1400.89 887.199C1400.98 889.173 1400.81 891.191 1400.37 893.212C1399.52 897.122 1398.64 901.018 1397.72 904.901C1397.24 906.909 1396.52 908.794 1395.59 910.534C1395.6 912.505 1395.36 914.51 1394.85 916.508C1393.85 920.388 1392.81 924.254 1391.75 928.106C1391.19 930.097 1390.4 931.958 1389.41 933.664C1389.34 935.637 1389.03 937.635 1388.44 939.616C1387.29 943.446 1386.12 947.26 1384.91 951.06C1384.28 953.032 1383.42 954.864 1382.36 956.533C1382.22 958.506 1381.83 960.492 1381.16 962.453C1379.88 966.234 1378.56 970 1377.21 973.75C1376.51 975.697 1375.58 977.493 1374.45 979.122C1374.24 981.087 1373.78 983.057 1373.04 984.99C1371.61 988.724 1370.15 992.442 1368.66 996.143C1367.88 998.059 1366.89 999.816 1365.71 1001.4C1365.42 1003.35 1364.88 1005.3 1364.07 1007.2C1362.5 1010.88 1360.9 1014.54 1359.27 1018.19C1358.42 1020.08 1357.36 1021.79 1356.12 1023.33C1355.76 1025.27 1355.15 1027.2 1354.27 1029.07C1352.57 1032.69 1350.83 1036.28 1349.06 1039.86C1348.15 1041.72 1347.02 1043.39 1345.72 1044.89C1345.29 1046.81 1344.61 1048.72 1343.65 1050.55C1341.82 1054.1 1339.95 1057.63 1338.05 1061.13C1337.07 1062.95 1335.88 1064.59 1334.52 1066.03C1334.02 1067.94 1333.26 1069.82 1332.24 1071.62C1330.28 1075.1 1328.28 1078.55 1326.25 1081.99C1325.19 1083.77 1323.94 1085.35 1322.54 1086.74C1321.97 1088.63 1321.14 1090.48 1320.06 1092.24C1317.96 1095.64 1315.83 1099.02 1313.67 1102.38C1312.55 1104.12 1311.25 1105.66 1309.79 1106.99C1309.15 1108.86 1308.25 1110.67 1307.1 1112.39C1304.88 1115.71 1302.63 1119.01 1300.35 1122.28C1299.16 1123.98 1297.8 1125.47 1296.3 1126.75C1295.58 1128.59 1294.62 1130.37 1293.41 1132.04C1291.06 1135.28 1288.69 1138.49 1286.29 1141.67C1285.04 1143.32 1283.62 1144.76 1282.07 1145.99C1281.29 1147.8 1280.26 1149.54 1278.99 1151.17C1276.53 1154.31 1274.04 1157.43 1271.52 1160.53C1270.21 1162.13 1268.74 1163.52 1267.15 1164.68C1266.3 1166.46 1265.21 1168.17 1263.87 1169.75C1261.29 1172.8 1258.69 1175.82 1256.06 1178.82C1254.69 1180.37 1253.17 1181.7 1251.53 1182.81C1250.62 1184.56 1249.47 1186.22 1248.07 1187.75C1245.38 1190.7 1242.67 1193.62 1239.93 1196.52C1238.51 1198.03 1236.93 1199.3 1235.26 1200.34C1234.28 1202.06 1233.06 1203.67 1231.62 1205.15C1228.82 1208 1226 1210.82 1223.15 1213.62C1221.67 1215.06 1220.06 1216.28 1218.34 1217.26C1217.3 1218.93 1216.03 1220.51 1214.52 1221.93C1211.62 1224.67 1208.7 1227.38 1205.75 1230.07C1204.22 1231.47 1202.56 1232.62 1200.81 1233.53C1199.7 1235.17 1198.37 1236.69 1196.82 1238.06C1193.82 1240.69 1190.8 1243.29 1187.75 1245.87C1186.17 1247.21 1184.46 1248.3 1182.68 1249.15C1181.52 1250.74 1180.13 1252.21 1178.53 1253.52C1175.43 1256.04 1172.31 1258.53 1169.17 1260.99C1167.54 1262.26 1165.8 1263.29 1163.99 1264.07C1162.76 1265.62 1161.32 1267.04 1159.67 1268.29C1156.49 1270.69 1153.28 1273.06 1150.04 1275.41C1148.37 1276.62 1146.59 1277.58 1144.75 1278.3C1143.47 1279.8 1141.98 1281.16 1140.28 1282.35C1137.01 1284.63 1133.71 1286.88 1130.39 1289.1C1128.67 1290.25 1126.86 1291.15 1124.99 1291.79C1123.66 1293.25 1122.12 1294.55 1120.38 1295.67C1117.02 1297.83 1113.64 1299.96 1110.24 1302.06C1108.48 1303.14 1106.63 1303.97 1104.74 1304.54C1103.36 1305.94 1101.77 1307.19 1099.99 1308.25C1096.55 1310.28 1093.1 1312.28 1089.62 1314.24C1087.82 1315.26 1085.94 1316.02 1084.03 1316.52C1082.59 1317.88 1080.95 1319.07 1079.13 1320.05C1075.63 1321.95 1072.1 1323.82 1068.55 1325.65C1066.72 1326.61 1064.81 1327.29 1062.89 1327.72C1061.4 1329.02 1059.72 1330.15 1057.86 1331.06C1054.28 1332.83 1050.69 1334.57 1047.07 1336.27C1045.2 1337.15 1043.27 1337.76 1041.33 1338.12C1039.8 1339.36 1038.08 1340.42 1036.19 1341.27C1032.54 1342.9 1028.88 1344.5 1025.2 1346.07C1023.3 1346.88 1021.35 1347.42 1019.4 1347.71C1017.82 1348.89 1016.06 1349.88 1014.14 1350.66C1010.44 1352.15 1006.72 1353.61 1002.99 1355.04C1001.06 1355.77 999.087 1356.24 997.122 1356.45C995.494 1357.57 993.697 1358.51 991.75 1359.21C988.001 1360.56 984.235 1361.88 980.453 1363.16C978.493 1363.83 976.506 1364.22 974.534 1364.36C972.864 1365.42 971.033 1366.28 969.06 1366.91C965.261 1368.12 961.446 1369.29 957.617 1370.43C955.635 1371.03 953.638 1371.34 951.665 1371.41C949.958 1372.4 948.098 1373.19 946.106 1373.75C942.255 1374.81 938.389 1375.85 934.509 1376.85C932.51 1377.36 930.506 1377.6 928.535 1377.59C926.795 1378.52 924.909 1379.24 922.902 1379.71C919.019 1380.64 915.123 1381.52 911.213 1382.37C909.191 1382.81 907.174 1382.98 905.199 1382.89C903.422 1383.76 901.505 1384.41 899.475 1384.81C895.569 1385.58 891.65 1386.32 887.718 1387.02C885.68 1387.38 883.656 1387.47 881.684 1387.31C879.874 1388.11 877.933 1388.69 875.887 1389.02C871.954 1389.64 868.009 1390.23 864.052 1390.79C862.006 1391.07 859.985 1391.09 858.025 1390.86C856.19 1391.58 854.233 1392.09 852.182 1392.33C848.214 1392.81 844.235 1393.26 840.245 1393.67C838.195 1393.87 836.18 1393.81 834.235 1393.51C832.378 1394.17 830.409 1394.6 828.355 1394.77C824.383 1395.1 820.4 1395.39 816.408 1395.65C814.342 1395.78 812.322 1395.65 810.381 1395.27C808.494 1395.86 806.501 1396.22 804.434 1396.31C800.465 1396.5 796.487 1396.64 792.5 1396.75C790.431 1396.81 788.418 1396.6 786.493 1396.15C784.586 1396.67 782.582 1396.95 780.513 1396.97C778.511 1396.99 776.506 1397 774.5 1397C772.493 1397 770.489 1396.99 768.487 1396.97C766.418 1396.95 764.414 1396.67 762.507 1396.15C760.582 1396.6 758.568 1396.81 756.5 1396.75C752.513 1396.64 748.534 1396.5 744.566 1396.31C742.498 1396.22 740.505 1395.86 738.618 1395.27C736.678 1395.65 734.657 1395.78 732.592 1395.65C728.599 1395.39 724.617 1395.1 720.644 1394.77C718.591 1394.6 716.621 1394.17 714.765 1393.51C712.82 1393.81 710.805 1393.87 708.755 1393.67C704.765 1393.26 700.786 1392.81 696.818 1392.33C694.767 1392.09 692.809 1391.58 690.974 1390.86C689.014 1391.09 686.993 1391.07 684.947 1390.79C680.99 1390.23 677.045 1389.64 673.112 1389.02C671.067 1388.69 669.126 1388.11 667.315 1387.31C665.344 1387.47 663.32 1387.38 661.281 1387.02C657.349 1386.32 653.43 1385.58 649.524 1384.81C647.494 1384.41 645.578 1383.76 643.8 1382.89C641.826 1382.98 639.808 1382.81 637.786 1382.37C633.877 1381.52 629.98 1380.64 626.098 1379.71C624.09 1379.24 622.204 1378.52 620.464 1377.59C618.493 1377.6 616.489 1377.36 614.491 1376.85C610.611 1375.85 606.745 1374.81 602.893 1373.75C600.901 1373.19 599.041 1372.4 597.335 1371.41C595.361 1371.34 593.364 1371.02 591.383 1370.43C587.553 1369.29 583.738 1368.12 579.939 1366.91C577.966 1366.28 576.135 1365.42 574.465 1364.36C572.493 1364.22 570.506 1363.83 568.546 1363.16C564.764 1361.88 560.998 1360.56 557.249 1359.21C555.302 1358.51 553.505 1357.57 551.877 1356.45C549.912 1356.24 547.942 1355.77 546.009 1355.04C542.274 1353.61 538.556 1352.15 534.856 1350.66C532.94 1349.88 531.182 1348.89 529.6 1347.71C527.648 1347.42 525.7 1346.88 523.8 1346.07C520.119 1344.5 516.455 1342.9 512.81 1341.27C510.924 1340.42 509.204 1339.36 507.666 1338.12C505.725 1337.76 503.798 1337.15 501.928 1336.27C498.313 1334.57 494.716 1332.83 491.138 1331.06C489.284 1330.15 487.604 1329.02 486.113 1327.72C484.185 1327.29 482.281 1326.6 480.444 1325.65C476.899 1323.82 473.373 1321.95 469.867 1320.05C468.048 1319.07 466.411 1317.88 464.969 1316.52C463.058 1316.02 461.181 1315.26 459.38 1314.24C455.904 1312.28 452.448 1310.28 449.013 1308.25C447.234 1307.19 445.644 1305.94 444.255 1304.54C442.367 1303.97 440.521 1303.14 438.762 1302.06C435.361 1299.96 431.98 1297.83 428.622 1295.67C426.884 1294.55 425.342 1293.25 424.007 1291.79C422.142 1291.15 420.328 1290.25 418.611 1289.1C415.292 1286.88 411.994 1284.63 408.718 1282.35C407.023 1281.16 405.53 1279.8 404.25 1278.3C402.409 1277.58 400.63 1276.62 398.956 1275.41C395.724 1273.06 392.514 1270.69 389.328 1268.29C387.677 1267.04 386.236 1265.62 385.012 1264.07C383.199 1263.29 381.456 1262.26 379.829 1260.99C376.686 1258.53 373.567 1256.04 370.471 1253.52C368.868 1252.21 367.482 1250.74 366.317 1249.15C364.535 1248.3 362.832 1247.21 361.253 1245.87C358.204 1243.29 355.179 1240.69 352.179 1238.06C350.626 1236.69 349.295 1235.17 348.191 1233.53C346.442 1232.62 344.781 1231.47 343.253 1230.07C340.302 1227.38 337.376 1224.67 334.475 1221.93C332.974 1220.51 331.701 1218.93 330.658 1217.26C328.944 1216.28 327.326 1215.06 325.851 1213.62C323.003 1210.82 320.18 1208 317.384 1205.15C315.936 1203.67 314.722 1202.06 313.742 1200.34C312.066 1199.3 310.495 1198.03 309.075 1196.52C306.331 1193.62 303.615 1190.7 300.926 1187.75C299.534 1186.22 298.382 1184.56 297.466 1182.81C295.83 1181.7 294.308 1180.37 292.944 1178.82C290.311 1175.82 287.706 1172.8 285.128 1169.75C283.794 1168.17 282.704 1166.46 281.853 1164.68C280.259 1163.52 278.787 1162.13 277.482 1160.53C274.963 1157.43 272.472 1154.31 270.01 1151.17C268.735 1149.54 267.709 1147.8 266.926 1145.99C265.375 1144.76 263.955 1143.32 262.711 1141.67C260.309 1138.49 257.936 1135.28 255.593 1132.04C254.38 1130.37 253.419 1128.59 252.704 1126.75C251.201 1125.47 249.836 1123.98 248.654 1122.28C246.372 1119.01 244.119 1115.71 241.896 1112.39C240.747 1110.67 239.854 1108.86 239.207 1106.99C237.754 1105.66 236.446 1104.12 235.329 1102.38C233.17 1099.02 231.042 1095.64 228.944 1092.24C227.859 1090.48 227.034 1088.63 226.458 1086.74C225.055 1085.36 223.806 1083.77 222.754 1081.99C220.723 1078.55 218.724 1075.1 216.756 1071.62C215.736 1069.82 214.981 1067.94 214.476 1066.03C213.124 1064.59 211.933 1062.95 210.948 1061.13C209.049 1057.63 207.181 1054.1 205.346 1050.55C204.395 1048.72 203.71 1046.81 203.277 1044.89C201.981 1043.4 200.853 1041.72 199.937 1039.86C198.169 1036.28 196.434 1032.69 194.731 1029.07C193.85 1027.2 193.238 1025.27 192.877 1023.33C191.639 1021.8 190.576 1020.08 189.731 1018.19C188.097 1014.54 186.497 1010.88 184.929 1007.2C184.12 1005.3 183.581 1003.35 183.293 1001.4C182.115 999.817 181.118 998.059 180.345 996.144C178.851 992.443 177.39 988.725 175.964 984.99C175.225 983.057 174.759 981.087 174.546 979.122C173.425 977.494 172.493 975.697 171.791 973.75C170.439 970.001 169.122 966.235 167.838 962.453C167.173 960.493 166.781 958.506 166.642 956.534C165.583 954.864 164.719 953.033 164.091 951.06C162.881 947.261 161.706 943.446 160.565 939.617C159.975 937.636 159.658 935.638 159.594 933.665C158.6 931.958 157.807 930.098 157.254 928.106C156.186 924.255 155.152 920.389 154.154 916.509C153.64 914.51 153.399 912.506 153.408 910.535C152.482 908.795 151.761 906.909 151.285 904.902C150.364 901.019 149.478 897.123 148.628 893.213C148.188 891.191 148.023 889.174 148.107 887.199C147.244 885.422 146.592 883.505 146.191 881.476C145.418 877.569 144.681 873.65 143.979 869.718C143.616 867.68 143.526 865.656 143.686 863.684C142.888 861.874 142.308 859.933 141.983 857.888C141.357 853.954 140.767 850.009 140.214 846.053C139.927 844.006 139.914 841.985 140.145 840.025C139.419 838.19 138.913 836.233 138.665 834.182C138.185 830.214 137.742 826.235 137.335 822.245C137.126 820.195 137.187 818.18 137.489 816.235C136.835 814.378 136.404 812.409 136.233 810.355C135.903 806.383 135.608 802.4 135.35 798.408C135.216 796.342 135.354 794.322 135.732 792.381C135.142 790.494 134.783 788.502 134.688 786.434C134.505 782.465 134.358 778.487 134.248 774.5C134.191 772.431 134.403 770.418 134.852 768.493C134.333 766.586 134.047 764.582 134.028 762.513C134.009 760.511 134 758.506 134 756.5C134 754.494 134.009 752.489 134.028 750.487C134.047 748.418 134.333 746.414 134.852 744.507C134.403 742.582 134.191 740.568 134.248 738.5C134.358 734.513 134.505 730.535 134.688 726.566C134.783 724.498 135.142 722.505 135.732 720.618C135.354 718.678 135.216 716.657 135.35 714.592C135.608 710.6 135.903 706.617 136.233 702.644C136.404 700.591 136.835 698.621 137.489 696.765C137.187 694.82 137.126 692.805 137.335 690.755C137.742 686.765 138.186 682.786 138.665 678.818C138.914 676.767 139.419 674.809 140.145 672.974C139.914 671.014 139.927 668.993 140.214 666.947C140.768 662.99 141.357 659.045 141.983 655.112C142.309 653.067 142.889 651.126 143.686 649.315C143.527 647.344 143.616 645.32 143.979 643.281C144.681 639.35 145.418 635.43 146.191 631.524C146.592 629.494 147.244 627.578 148.107 625.8C148.023 623.826 148.188 621.808 148.628 619.786C149.478 615.877 150.364 611.98 151.285 608.098C151.762 606.09 152.482 604.204 153.408 602.464C153.4 600.493 153.641 598.489 154.155 596.491C155.153 592.611 156.186 588.745 157.255 584.893C157.807 582.901 158.6 581.041 159.594 579.335C159.659 577.361 159.975 575.364 160.565 573.383C161.706 569.553 162.881 565.738 164.091 561.939C164.72 559.967 165.584 558.135 166.643 556.465C166.781 554.493 167.173 552.506 167.838 550.546C169.122 546.764 170.44 542.999 171.792 539.249C172.493 537.302 173.425 535.505 174.546 533.877C174.759 531.912 175.225 529.942 175.964 528.009C177.39 524.274 178.851 520.556 180.345 516.856C181.118 514.94 182.115 513.182 183.294 511.6C183.581 509.648 184.12 507.7 184.93 505.8C186.497 502.119 188.097 498.455 189.731 494.81C190.576 492.924 191.64 491.204 192.878 489.666C193.238 487.725 193.851 485.798 194.731 483.928C196.434 480.313 198.169 476.716 199.937 473.138C200.853 471.284 201.981 469.604 203.277 468.113C203.71 466.185 204.395 464.281 205.346 462.445C207.181 458.899 209.049 455.373 210.948 451.867C211.933 450.048 213.124 448.411 214.476 446.969C214.981 445.058 215.737 443.181 216.756 441.38C218.724 437.904 220.724 434.448 222.754 431.013C223.806 429.234 225.056 427.644 226.459 426.255C227.035 424.367 227.86 422.521 228.944 420.762C231.042 417.361 233.17 413.981 235.329 410.622C236.446 408.884 237.754 407.342 239.208 406.007C239.854 404.142 240.747 402.328 241.897 400.611C244.119 397.292 246.372 393.994 248.654 390.719C249.836 389.023 251.201 387.53 252.704 386.25C253.42 384.409 254.38 382.63 255.593 380.956C257.937 377.724 260.309 374.514 262.711 371.328C263.955 369.677 265.376 368.236 266.926 367.013C267.709 365.2 268.736 363.456 270.011 361.829C272.473 358.686 274.963 355.567 277.482 352.472C278.787 350.868 280.259 349.482 281.854 348.317C282.704 346.535 283.794 344.832 285.128 343.253C287.706 340.204 290.311 337.179 292.945 334.179C294.308 332.626 295.83 331.295 297.466 330.191C298.382 328.442 299.535 326.781 300.926 325.253C303.615 322.302 306.332 319.376 309.075 316.475C310.495 314.974 312.066 313.701 313.742 312.658C314.722 310.944 315.936 309.326 317.384 307.852C320.18 305.003 323.003 302.18 325.852 299.384C327.327 297.936 328.944 296.722 330.658 295.742C331.701 294.066 332.974 292.495 334.476 291.075C337.376 288.332 340.302 285.615 343.253 282.926C344.781 281.534 346.442 280.382 348.191 279.466C349.295 277.83 350.626 276.308 352.179 274.944C355.179 272.311 358.204 269.706 361.254 267.128C362.832 265.794 364.535 264.704 366.317 263.853C367.482 262.259 368.869 260.787 370.472 259.482C373.567 256.963 376.686 254.472 379.829 252.01C381.457 250.735 383.2 249.709 385.013 248.926C386.236 247.375 387.677 245.955 389.328 244.711C392.514 242.309 395.724 239.936 398.956 237.593C400.63 236.38 402.41 235.419 404.25 234.704C405.531 233.201 407.023 231.836 408.719 230.654C411.994 228.372 415.292 226.119 418.612 223.896C420.329 222.747 422.142 221.854 424.007 221.208C425.342 219.754 426.884 218.446 428.622 217.329C431.981 215.17 435.361 213.042 438.762 210.944C440.521 209.859 442.367 209.034 444.256 208.459C445.645 207.056 447.234 205.806 449.014 204.754C452.449 202.723 455.905 200.724 459.381 198.756C461.181 197.736 463.059 196.981 464.969 196.476C466.411 195.124 468.048 193.933 469.867 192.948C473.374 191.049 476.9 189.181 480.445 187.346C482.282 186.395 484.186 185.71 486.113 185.277C487.604 183.981 489.284 182.853 491.139 181.937C494.717 180.169 498.313 178.434 501.929 176.731C503.799 175.85 505.726 175.238 507.666 174.877C509.204 173.639 510.924 172.576 512.81 171.731C516.456 170.097 520.119 168.497 523.8 166.929C525.701 166.12 527.648 165.581 529.6 165.293C531.183 164.115 532.941 163.118 534.856 162.345C538.557 160.851 542.275 159.39 546.01 157.964C547.943 157.225 549.913 156.759 551.878 156.546C553.506 155.425 555.303 154.493 557.249 153.791C560.999 152.44 564.765 151.122 568.547 149.838C570.507 149.173 572.494 148.781 574.466 148.642C576.136 147.583 577.967 146.719 579.939 146.091C583.739 144.881 587.553 143.706 591.383 142.565C593.364 141.975 595.362 141.659 597.335 141.594C599.041 140.6 600.902 139.807 602.894 139.254C606.745 138.186 610.611 137.152 614.491 136.154C616.49 135.64 618.494 135.399 620.465 135.408C622.205 134.482 624.091 133.761 626.098 133.285C629.981 132.364 633.877 131.478 637.787 130.628C639.808 130.188 641.826 130.023 643.8 130.107C645.578 129.244 647.495 128.592 649.524 128.191C653.431 127.418 657.35 126.681 661.281 125.979C663.32 125.616 665.344 125.527 667.316 125.686C669.126 124.888 671.067 124.308 673.112 123.983C677.046 123.357 680.991 122.767 684.947 122.214C686.993 121.927 689.015 121.914 690.975 122.145C692.81 121.419 694.767 120.913 696.818 120.665C700.786 120.185 704.765 119.742 708.755 119.335C710.805 119.126 712.82 119.187 714.765 119.489C716.622 118.835 718.591 118.404 720.645 118.233C724.617 117.903 728.6 117.608 732.592 117.35C734.658 117.216 736.678 117.354 738.618 117.732C740.505 117.142 742.498 116.783 744.566 116.688C748.535 116.505 752.513 116.358 756.5 116.248C758.568 116.191 760.582 116.403 762.507 116.852C764.414 116.333 766.418 116.047 768.487 116.028ZM741.136 163.241C742.939 163.591 744.812 163.735 746.728 163.647C750.409 163.478 754.099 163.342 757.797 163.239C759.715 163.187 761.573 162.905 763.345 162.423C765.134 162.84 767.001 163.052 768.92 163.035C770.778 163.018 772.638 163.009 774.5 163.009C776.362 163.009 778.221 163.018 780.079 163.035C781.998 163.052 783.865 162.84 785.654 162.423C787.426 162.905 789.284 163.187 791.201 163.239C794.9 163.342 798.59 163.478 802.271 163.647C804.187 163.735 806.06 163.591 807.863 163.24C809.616 163.788 811.461 164.138 813.375 164.261C817.077 164.5 820.77 164.774 824.452 165.08C826.354 165.239 828.222 165.166 830.028 164.886C831.752 165.493 833.575 165.908 835.473 166.101C839.171 166.478 842.859 166.89 846.536 167.334C848.435 167.564 850.309 167.56 852.128 167.346C853.832 168.02 855.642 168.504 857.536 168.769C861.202 169.282 864.857 169.829 868.501 170.408C870.394 170.71 872.271 170.776 874.1 170.628C875.78 171.368 877.574 171.921 879.461 172.258C883.103 172.907 886.733 173.59 890.352 174.306C892.23 174.678 894.101 174.814 895.933 174.736C897.582 175.537 899.352 176.156 901.223 176.563C904.844 177.351 908.453 178.171 912.049 179.024C913.906 179.465 915.765 179.672 917.594 179.664C919.208 180.523 920.949 181.206 922.798 181.682C926.391 182.606 929.971 183.563 933.538 184.552C935.381 185.064 937.234 185.341 939.064 185.401C940.647 186.323 942.364 187.072 944.197 187.618C947.744 188.674 951.276 189.763 954.795 190.884C956.62 191.465 958.463 191.811 960.293 191.94C961.842 192.923 963.531 193.738 965.345 194.353C968.847 195.542 972.334 196.762 975.807 198.014C977.608 198.664 979.437 199.079 981.259 199.277C982.77 200.317 984.427 201.195 986.216 201.878C989.674 203.199 993.118 204.552 996.545 205.935C998.318 206.651 1000.13 207.135 1001.94 207.402C1003.41 208.495 1005.03 209.433 1006.78 210.182C1010.19 211.633 1013.59 213.116 1016.96 214.629C1018.71 215.411 1020.5 215.963 1022.3 216.298C1023.73 217.446 1025.31 218.445 1027.04 219.26C1030.39 220.837 1033.72 222.444 1037.04 224.082C1038.75 224.93 1040.52 225.549 1042.31 225.951C1043.7 227.154 1045.24 228.213 1046.94 229.093C1050.23 230.793 1053.49 232.523 1056.74 234.282C1058.43 235.195 1060.17 235.88 1061.95 236.349C1063.28 237.603 1064.79 238.72 1066.46 239.663C1069.68 241.487 1072.88 243.34 1076.06 245.221C1077.71 246.195 1079.43 246.945 1081.18 247.479C1082.47 248.781 1083.93 249.952 1085.56 250.957C1088.71 252.9 1091.85 254.873 1094.96 256.873C1096.57 257.908 1098.26 258.721 1099.99 259.321C1101.23 260.67 1102.65 261.895 1104.24 262.959C1107.31 265.019 1110.37 267.107 1113.4 269.222C1114.97 270.317 1116.63 271.193 1118.34 271.857C1119.53 273.252 1120.9 274.53 1122.45 275.653C1125.45 277.825 1128.42 280.024 1131.38 282.25C1132.91 283.403 1134.53 284.341 1136.21 285.068C1137.35 286.507 1138.67 287.835 1140.18 289.016C1143.09 291.299 1145.99 293.607 1148.85 295.942C1150.34 297.151 1151.93 298.148 1153.58 298.938C1154.66 300.418 1155.94 301.794 1157.4 303.03C1160.23 305.419 1163.03 307.835 1165.81 310.276C1167.25 311.538 1168.8 312.594 1170.42 313.444C1171.45 314.963 1172.67 316.386 1174.09 317.675C1176.82 320.168 1179.53 322.686 1182.22 325.229C1183.61 326.544 1185.12 327.657 1186.71 328.567C1187.68 330.124 1188.85 331.591 1190.22 332.932C1192.86 335.524 1195.48 338.141 1198.07 340.782C1199.41 342.148 1200.88 343.316 1202.43 344.285C1203.34 345.876 1204.46 347.386 1205.77 348.777C1208.31 351.465 1210.83 354.178 1213.32 356.914C1214.61 358.329 1216.04 359.55 1217.56 360.576C1218.41 362.2 1219.46 363.749 1220.72 365.188C1223.17 367.969 1225.58 370.773 1227.97 373.6C1229.21 375.062 1230.58 376.336 1232.06 377.418C1232.85 379.072 1233.85 380.66 1235.06 382.145C1237.39 385.014 1239.7 387.906 1241.98 390.819C1243.16 392.326 1244.49 393.65 1245.93 394.787C1246.66 396.47 1247.6 398.094 1248.75 399.624C1250.98 402.577 1253.17 405.552 1255.35 408.548C1256.47 410.097 1257.75 411.47 1259.14 412.659C1259.81 414.367 1260.68 416.025 1261.78 417.596C1263.89 420.631 1265.98 423.687 1268.04 426.764C1269.1 428.354 1270.33 429.772 1271.68 431.012C1272.28 432.743 1273.09 434.431 1274.13 436.041C1276.13 439.153 1278.1 442.285 1280.04 445.437C1281.05 447.066 1282.22 448.529 1283.52 449.818C1284.06 451.571 1284.8 453.288 1285.78 454.936C1287.66 458.119 1289.51 461.321 1291.34 464.541C1292.28 466.208 1293.4 467.715 1294.65 469.053C1295.12 470.826 1295.81 472.573 1296.72 474.257C1298.48 477.505 1300.21 480.772 1301.91 484.056C1302.79 485.756 1303.85 487.304 1305.05 488.687C1305.45 490.476 1306.07 492.246 1306.92 493.962C1308.56 497.277 1310.16 500.608 1311.74 503.957C1312.55 505.688 1313.55 507.272 1314.7 508.699C1315.04 510.5 1315.59 512.29 1316.37 514.036C1317.88 517.412 1319.37 520.805 1320.82 524.215C1321.57 525.974 1322.5 527.594 1323.6 529.062C1323.86 530.873 1324.35 532.682 1325.06 534.454C1326.45 537.882 1327.8 541.325 1329.12 544.784C1329.81 546.572 1330.68 548.229 1331.72 549.74C1331.92 551.563 1332.34 553.391 1332.99 555.193C1334.24 558.665 1335.46 562.152 1336.65 565.655C1337.26 567.468 1338.08 569.158 1339.06 570.707C1339.19 572.536 1339.54 574.38 1340.12 576.205C1341.24 579.723 1342.33 583.256 1343.38 586.802C1343.93 588.635 1344.68 590.352 1345.6 591.935C1345.66 593.766 1345.94 595.618 1346.45 597.461C1347.44 601.028 1348.39 604.608 1349.32 608.201C1349.79 610.051 1350.48 611.791 1351.34 613.406C1351.33 615.234 1351.53 617.093 1351.98 618.951C1352.83 622.546 1353.65 626.155 1354.44 629.776C1354.84 631.647 1355.46 633.417 1356.26 635.067C1356.19 636.899 1356.32 638.769 1356.69 640.647C1357.41 644.266 1358.09 647.896 1358.74 651.538C1359.08 653.425 1359.63 655.219 1360.37 656.899C1360.22 658.728 1360.29 660.605 1360.59 662.498C1361.17 666.142 1361.72 669.797 1362.23 673.463C1362.5 675.357 1362.98 677.167 1363.65 678.871C1363.44 680.69 1363.44 682.564 1363.67 684.463C1364.11 688.14 1364.52 691.828 1364.9 695.526C1365.09 697.424 1365.51 699.247 1366.11 700.971C1365.83 702.777 1365.76 704.645 1365.92 706.547C1366.23 710.229 1366.5 713.922 1366.74 717.624C1366.86 719.538 1367.21 721.383 1367.76 723.136C1367.41 724.939 1367.26 726.812 1367.35 728.728C1367.52 732.409 1367.66 736.099 1367.76 739.798C1367.81 741.715 1368.09 743.573 1368.58 745.345C1368.16 747.134 1367.95 749.001 1367.97 750.92C1367.98 752.778 1367.99 754.638 1367.99 756.5C1367.99 758.362 1367.98 760.222 1367.97 762.079C1367.95 763.998 1368.16 765.864 1368.58 767.654C1368.09 769.426 1367.81 771.284 1367.76 773.201C1367.66 776.9 1367.52 780.59 1367.35 784.271C1367.26 786.187 1367.41 788.06 1367.76 789.863C1367.21 791.616 1366.86 793.461 1366.74 795.375C1366.5 799.077 1366.23 802.77 1365.92 806.452C1365.76 808.354 1365.83 810.222 1366.11 812.028C1365.51 813.752 1365.09 815.575 1364.9 817.473C1364.52 821.171 1364.11 824.859 1363.67 828.536C1363.44 830.436 1363.44 832.309 1363.65 834.128C1362.98 835.832 1362.5 837.642 1362.23 839.536C1361.72 843.202 1361.17 846.857 1360.59 850.501C1360.29 852.394 1360.22 854.271 1360.37 856.1C1359.63 857.78 1359.08 859.574 1358.74 861.461C1358.09 865.103 1357.41 868.733 1356.69 872.352C1356.32 874.23 1356.19 876.101 1356.26 877.933C1355.46 879.582 1354.84 881.352 1354.44 883.223C1353.65 886.844 1352.83 890.453 1351.98 894.049C1351.53 895.906 1351.33 897.765 1351.34 899.593C1350.48 901.208 1349.79 902.949 1349.32 904.798C1348.39 908.391 1347.44 911.971 1346.45 915.538C1345.94 917.381 1345.66 919.234 1345.6 921.064C1344.68 922.647 1343.93 924.364 1343.38 926.197C1342.33 929.744 1341.24 933.276 1340.12 936.795C1339.54 938.62 1339.19 940.463 1339.06 942.293C1338.08 943.842 1337.26 945.531 1336.65 947.345C1335.46 950.847 1334.24 954.334 1332.99 957.807C1332.34 959.608 1331.92 961.437 1331.72 963.259C1330.68 964.77 1329.81 966.427 1329.12 968.216C1327.8 971.675 1326.45 975.118 1325.06 978.545C1324.35 980.318 1323.87 982.126 1323.6 983.937C1322.51 985.406 1321.57 987.026 1320.82 988.785C1319.37 992.194 1317.88 995.587 1316.37 998.964C1315.59 1000.71 1315.04 1002.5 1314.7 1004.3C1313.55 1005.73 1312.55 1007.31 1311.74 1009.04C1310.16 1012.39 1308.56 1015.72 1306.92 1019.04C1306.07 1020.75 1305.45 1022.52 1305.05 1024.31C1303.85 1025.7 1302.79 1027.24 1301.91 1028.94C1300.21 1032.23 1298.48 1035.49 1296.72 1038.74C1295.81 1040.43 1295.12 1042.17 1294.65 1043.95C1293.4 1045.28 1292.28 1046.79 1291.34 1048.46C1289.51 1051.68 1287.66 1054.88 1285.78 1058.06C1284.81 1059.71 1284.06 1061.43 1283.52 1063.18C1282.22 1064.47 1281.05 1065.93 1280.04 1067.56C1278.1 1070.71 1276.13 1073.85 1274.13 1076.96C1273.09 1078.57 1272.28 1080.26 1271.68 1081.99C1270.33 1083.23 1269.11 1084.65 1268.04 1086.24C1265.98 1089.31 1263.89 1092.37 1261.78 1095.4C1260.68 1096.97 1259.81 1098.63 1259.14 1100.34C1257.75 1101.53 1256.47 1102.9 1255.35 1104.45C1253.17 1107.45 1250.98 1110.42 1248.75 1113.38C1247.6 1114.91 1246.66 1116.53 1245.93 1118.21C1244.49 1119.35 1243.16 1120.67 1241.98 1122.18C1239.7 1125.09 1237.39 1127.99 1235.06 1130.85C1233.85 1132.34 1232.85 1133.93 1232.06 1135.58C1230.58 1136.66 1229.21 1137.94 1227.97 1139.4C1225.58 1142.23 1223.17 1145.03 1220.72 1147.81C1219.46 1149.25 1218.41 1150.8 1217.56 1152.42C1216.04 1153.45 1214.61 1154.67 1213.32 1156.09C1210.83 1158.82 1208.31 1161.53 1205.77 1164.22C1204.46 1165.61 1203.34 1167.12 1202.43 1168.71C1200.88 1169.68 1199.41 1170.85 1198.07 1172.22C1195.48 1174.86 1192.86 1177.48 1190.22 1180.07C1188.85 1181.41 1187.68 1182.88 1186.72 1184.43C1185.12 1185.34 1183.61 1186.46 1182.22 1187.77C1179.53 1190.31 1176.82 1192.83 1174.09 1195.32C1172.67 1196.61 1171.45 1198.04 1170.42 1199.56C1168.8 1200.41 1167.25 1201.46 1165.81 1202.72C1163.03 1205.17 1160.23 1207.58 1157.4 1209.97C1155.94 1211.21 1154.66 1212.58 1153.58 1214.06C1151.93 1214.85 1150.34 1215.85 1148.85 1217.06C1145.99 1219.39 1143.09 1221.7 1140.18 1223.98C1138.67 1225.16 1137.35 1226.49 1136.21 1227.93C1134.53 1228.66 1132.91 1229.6 1131.38 1230.75C1128.42 1232.98 1125.45 1235.17 1122.45 1237.35C1120.9 1238.47 1119.53 1239.75 1118.34 1241.14C1116.63 1241.81 1114.97 1242.68 1113.4 1243.78C1110.37 1245.89 1107.31 1247.98 1104.24 1250.04C1102.65 1251.1 1101.23 1252.33 1099.99 1253.68C1098.26 1254.28 1096.57 1255.09 1094.96 1256.13C1091.85 1258.13 1088.71 1260.1 1085.56 1262.04C1083.93 1263.05 1082.47 1264.22 1081.18 1265.52C1079.43 1266.06 1077.71 1266.8 1076.06 1267.78C1072.88 1269.66 1069.68 1271.51 1066.46 1273.34C1064.79 1274.28 1063.28 1275.4 1061.95 1276.65C1060.17 1277.12 1058.43 1277.81 1056.74 1278.72C1053.49 1280.48 1050.23 1282.21 1046.94 1283.91C1045.24 1284.79 1043.7 1285.85 1042.31 1287.05C1040.52 1287.45 1038.75 1288.07 1037.04 1288.92C1033.72 1290.56 1030.39 1292.16 1027.04 1293.74C1025.31 1294.55 1023.73 1295.55 1022.3 1296.7C1020.5 1297.04 1018.71 1297.59 1016.96 1298.37C1013.59 1299.88 1010.19 1301.37 1006.79 1302.82C1005.03 1303.57 1003.41 1304.5 1001.94 1305.6C1000.13 1305.86 998.318 1306.35 996.546 1307.06C993.118 1308.45 989.675 1309.8 986.216 1311.12C984.427 1311.81 982.77 1312.68 981.26 1313.72C979.437 1313.92 977.609 1314.34 975.807 1314.99C972.335 1316.24 968.847 1317.46 965.345 1318.65C963.532 1319.26 961.842 1320.08 960.293 1321.06C958.464 1321.19 956.62 1321.54 954.795 1322.12C951.277 1323.24 947.744 1324.33 944.198 1325.38C942.365 1325.93 940.648 1326.68 939.065 1327.6C937.234 1327.66 935.382 1327.94 933.539 1328.45C929.972 1329.44 926.392 1330.39 922.798 1331.32C920.949 1331.79 919.208 1332.48 917.594 1333.34C915.765 1333.33 913.907 1333.53 912.049 1333.98C908.453 1334.83 904.845 1335.65 901.224 1336.44C899.353 1336.84 897.583 1337.46 895.933 1338.26C894.101 1338.19 892.231 1338.32 890.352 1338.69C886.734 1339.41 883.104 1340.09 879.462 1340.74C877.575 1341.08 875.781 1341.63 874.101 1342.37C872.271 1342.22 870.395 1342.29 868.502 1342.59C864.858 1343.17 861.203 1343.72 857.537 1344.23C855.642 1344.5 853.832 1344.98 852.129 1345.65C850.31 1345.44 848.436 1345.44 846.537 1345.67C842.86 1346.11 839.172 1346.52 835.474 1346.9C833.576 1347.09 831.753 1347.51 830.029 1348.11C828.223 1347.83 826.355 1347.76 824.453 1347.92C820.77 1348.23 817.078 1348.5 813.376 1348.74C811.462 1348.86 809.617 1349.21 807.864 1349.76C806.061 1349.41 804.188 1349.26 802.272 1349.35C798.591 1349.52 794.901 1349.66 791.202 1349.76C789.285 1349.81 787.427 1350.09 785.654 1350.58C783.865 1350.16 781.999 1349.95 780.08 1349.97C778.222 1349.98 776.362 1349.99 774.5 1349.99C772.638 1349.99 770.777 1349.98 768.919 1349.97C767.001 1349.95 765.134 1350.16 763.345 1350.58C761.573 1350.09 759.715 1349.81 757.797 1349.76C754.098 1349.66 750.408 1349.52 746.727 1349.35C744.811 1349.26 742.938 1349.41 741.136 1349.76C739.383 1349.21 737.537 1348.86 735.623 1348.74C731.921 1348.5 728.229 1348.23 724.546 1347.92C722.644 1347.76 720.777 1347.83 718.97 1348.11C717.247 1347.51 715.424 1347.09 713.525 1346.9C709.827 1346.52 706.139 1346.11 702.462 1345.67C700.563 1345.44 698.69 1345.44 696.87 1345.65C695.167 1344.98 693.357 1344.5 691.462 1344.23C687.796 1343.72 684.141 1343.17 680.497 1342.59C678.604 1342.29 676.728 1342.22 674.898 1342.37C673.218 1341.63 671.424 1341.08 669.537 1340.74C665.895 1340.09 662.265 1339.41 658.647 1338.69C656.768 1338.32 654.898 1338.19 653.066 1338.26C651.417 1337.46 649.646 1336.84 647.775 1336.44C644.154 1335.65 640.546 1334.83 636.95 1333.98C635.092 1333.53 633.234 1333.33 631.405 1333.34C629.791 1332.48 628.05 1331.79 626.201 1331.32C622.607 1330.39 619.027 1329.44 615.461 1328.45C613.618 1327.94 611.765 1327.66 609.934 1327.6C608.351 1326.68 606.635 1325.93 604.801 1325.38C601.255 1324.33 597.722 1323.24 594.204 1322.12C592.379 1321.53 590.536 1321.19 588.706 1321.06C587.157 1320.08 585.468 1319.26 583.654 1318.65C580.152 1317.46 576.664 1316.24 573.192 1314.99C571.391 1314.34 569.562 1313.92 567.739 1313.72C566.229 1312.68 564.572 1311.8 562.783 1311.12C559.324 1309.8 555.881 1308.45 552.454 1307.06C550.681 1306.35 548.873 1305.86 547.062 1305.6C545.593 1304.5 543.973 1303.57 542.214 1302.82C538.805 1301.37 535.412 1299.88 532.035 1298.37C530.29 1297.59 528.5 1297.04 526.699 1296.7C525.272 1295.55 523.687 1294.55 521.957 1293.74C518.608 1292.16 515.276 1290.56 511.962 1288.92C510.245 1288.07 508.476 1287.45 506.687 1287.05C505.303 1285.85 503.756 1284.79 502.055 1283.91C498.771 1282.21 495.505 1280.48 492.256 1278.72C490.572 1277.8 488.826 1277.12 487.053 1276.65C485.715 1275.4 484.207 1274.28 482.541 1273.34C479.32 1271.51 476.118 1269.66 472.935 1267.78C471.288 1266.8 469.57 1266.06 467.818 1265.52C466.528 1264.22 465.065 1263.05 463.436 1262.04C460.285 1260.1 457.153 1258.13 454.04 1256.13C452.431 1255.09 450.743 1254.28 449.011 1253.68C447.772 1252.33 446.353 1251.1 444.763 1250.04C441.687 1247.98 438.631 1245.89 435.595 1243.78C434.025 1242.68 432.367 1241.81 430.659 1241.14C429.47 1239.75 428.097 1238.47 426.547 1237.35C423.551 1235.17 420.577 1232.98 417.623 1230.75C416.094 1229.6 414.47 1228.66 412.787 1227.93C411.65 1226.49 410.326 1225.16 408.819 1223.98C405.905 1221.7 403.014 1219.39 400.145 1217.06C398.66 1215.85 397.072 1214.85 395.418 1214.06C394.336 1212.58 393.062 1211.21 391.6 1209.97C388.773 1207.58 385.969 1205.17 383.188 1202.72C381.749 1201.46 380.2 1200.41 378.576 1199.56C377.55 1198.04 376.329 1196.61 374.914 1195.32C372.178 1192.83 369.465 1190.31 366.776 1187.77C365.385 1186.46 363.876 1185.34 362.285 1184.43C361.316 1182.88 360.148 1181.41 358.782 1180.07C356.141 1177.48 353.524 1174.86 350.932 1172.22C349.591 1170.85 348.124 1169.68 346.567 1168.71C345.657 1167.12 344.544 1165.61 343.229 1164.22C340.686 1161.53 338.168 1158.82 335.675 1156.09C334.386 1154.67 332.963 1153.45 331.444 1152.42C330.594 1150.8 329.538 1149.25 328.276 1147.81C325.835 1145.03 323.419 1142.23 321.03 1139.4C319.794 1137.94 318.418 1136.66 316.938 1135.58C316.148 1133.93 315.151 1132.34 313.942 1130.85C311.607 1127.99 309.299 1125.09 307.017 1122.18C305.836 1120.67 304.507 1119.35 303.068 1118.21C302.341 1116.53 301.403 1114.91 300.251 1113.38C298.024 1110.42 295.825 1107.45 293.653 1104.45C292.53 1102.9 291.252 1101.53 289.857 1100.34C289.193 1098.63 288.317 1096.98 287.222 1095.4C285.107 1092.37 283.019 1089.31 280.959 1086.24C279.895 1084.65 278.67 1083.23 277.321 1081.99C276.721 1080.26 275.908 1078.57 274.873 1076.96C272.873 1073.85 270.901 1070.71 268.957 1067.56C267.953 1065.93 266.782 1064.47 265.48 1063.18C264.945 1061.43 264.195 1059.71 263.221 1058.06C261.34 1054.88 259.487 1051.68 257.664 1048.46C256.72 1046.79 255.603 1045.28 254.349 1043.95C253.88 1042.17 253.195 1040.43 252.283 1038.74C250.523 1035.49 248.793 1032.23 247.093 1028.94C246.213 1027.24 245.154 1025.7 243.951 1024.31C243.549 1022.52 242.93 1020.75 242.082 1019.04C240.445 1015.72 238.837 1012.39 237.26 1009.04C236.445 1007.31 235.446 1005.73 234.298 1004.3C233.963 1002.5 233.411 1000.71 232.629 998.964C231.116 995.588 229.633 992.195 228.182 988.785C227.433 987.026 226.495 985.406 225.402 983.938C225.135 982.127 224.651 980.318 223.936 978.546C222.552 975.118 221.199 971.675 219.878 968.216C219.195 966.428 218.317 964.771 217.278 963.26C217.08 961.437 216.664 959.609 216.014 957.807C214.763 954.335 213.542 950.848 212.354 947.345C211.738 945.532 210.923 943.842 209.941 942.293C209.812 940.464 209.465 938.62 208.884 936.795C207.763 933.277 206.675 929.744 205.618 926.198C205.072 924.365 204.323 922.648 203.401 921.065C203.341 919.234 203.064 917.382 202.553 915.539C201.563 911.972 200.606 908.392 199.682 904.798C199.206 902.949 198.523 901.208 197.664 899.594C197.672 897.766 197.465 895.907 197.024 894.049C196.171 890.454 195.351 886.845 194.563 883.224C194.157 881.353 193.537 879.583 192.736 877.933C192.814 876.101 192.678 874.231 192.306 872.353C191.59 868.734 190.907 865.104 190.258 861.462C189.921 859.575 189.368 857.781 188.628 856.101C188.776 854.271 188.71 852.395 188.408 850.502C187.829 846.858 187.282 843.203 186.769 839.537C186.504 837.643 186.02 835.833 185.346 834.129C185.561 832.31 185.564 830.436 185.334 828.537C184.89 824.86 184.479 821.172 184.101 817.474C183.908 815.576 183.493 813.753 182.886 812.029C183.166 810.223 183.239 808.355 183.08 806.453C182.774 802.771 182.5 799.078 182.261 795.376C182.138 793.462 181.788 791.617 181.241 789.864C181.591 788.061 181.735 786.188 181.647 784.272C181.478 780.591 181.342 776.901 181.239 773.202C181.187 771.285 180.905 769.427 180.423 767.655C180.84 765.866 181.052 763.999 181.035 762.08C181.018 760.222 181.009 758.362 181.009 756.5C181.009 754.638 181.018 752.778 181.035 750.92C181.053 749.001 180.84 747.134 180.423 745.345C180.905 743.573 181.187 741.715 181.239 739.797C181.342 736.099 181.478 732.408 181.647 728.727C181.735 726.811 181.591 724.938 181.241 723.136C181.788 721.383 182.138 719.537 182.261 717.623C182.501 713.922 182.774 710.229 183.08 706.546C183.239 704.644 183.166 702.777 182.886 700.97C183.493 699.247 183.908 697.424 184.101 695.525C184.479 691.827 184.89 688.14 185.335 684.462C185.564 682.563 185.561 680.69 185.346 678.87C186.02 677.167 186.504 675.357 186.769 673.463C187.282 669.797 187.829 666.141 188.409 662.497C188.71 660.604 188.776 658.728 188.628 656.898C189.368 655.218 189.921 653.424 190.258 651.537C190.908 647.896 191.59 644.265 192.306 640.647C192.678 638.769 192.815 636.898 192.737 635.066C193.537 633.417 194.157 631.647 194.564 629.776C195.351 626.155 196.171 622.546 197.025 618.95C197.465 617.092 197.672 615.234 197.665 613.405C198.523 611.791 199.206 610.05 199.682 608.201C200.606 604.608 201.563 601.027 202.553 597.461C203.064 595.618 203.341 593.765 203.402 591.934C204.323 590.351 205.073 588.635 205.619 586.802C206.675 583.255 207.763 579.722 208.884 576.204C209.465 574.379 209.812 572.536 209.941 570.706C210.923 569.157 211.738 567.468 212.354 565.654C213.542 562.152 214.763 558.664 216.015 555.192C216.664 553.391 217.08 551.562 217.278 549.739C218.317 548.229 219.195 546.572 219.878 544.783C221.2 541.324 222.552 537.881 223.936 534.454C224.651 532.681 225.135 530.873 225.402 529.062C226.495 527.593 227.433 525.973 228.182 524.214C229.633 520.805 231.116 517.412 232.629 514.035C233.411 512.29 233.963 510.5 234.298 508.699C235.447 507.272 236.445 505.687 237.26 503.957C238.837 500.608 240.445 497.276 242.082 493.962C242.93 492.245 243.55 490.476 243.952 488.687C245.154 487.303 246.213 485.756 247.093 484.056C248.793 480.771 250.523 477.505 252.283 474.256C253.195 472.572 253.88 470.826 254.349 469.053C255.604 467.715 256.72 466.208 257.664 464.541C259.487 461.32 261.34 458.118 263.221 454.935C264.195 453.288 264.945 451.57 265.48 449.818C266.782 448.528 267.953 447.065 268.957 445.437C270.901 442.285 272.873 439.153 274.874 436.04C275.908 434.431 276.721 432.743 277.321 431.011C278.671 429.772 279.895 428.353 280.96 426.763C283.019 423.687 285.107 420.631 287.222 417.595C288.317 416.025 289.193 414.367 289.857 412.658C291.253 411.469 292.53 410.097 293.654 408.547C295.825 405.551 298.025 402.577 300.251 399.623C301.403 398.094 302.341 396.47 303.068 394.787C304.508 393.65 305.836 392.326 307.017 390.819C309.299 387.905 311.608 385.014 313.943 382.145C315.151 380.66 316.148 379.072 316.938 377.418C318.418 376.336 319.794 375.062 321.03 373.6C323.42 370.773 325.835 367.969 328.276 365.188C329.539 363.749 330.594 362.2 331.445 360.576C332.964 359.55 334.386 358.329 335.675 356.914C338.168 354.178 340.686 351.465 343.229 348.777C344.544 347.385 345.657 345.876 346.567 344.285C348.124 343.316 349.591 342.148 350.932 340.782C353.524 338.141 356.141 335.524 358.782 332.932C360.148 331.591 361.316 330.124 362.285 328.567C363.876 327.657 365.386 326.544 366.777 325.229C369.465 322.686 372.178 320.168 374.914 317.675C376.329 316.386 377.55 314.963 378.576 313.444C380.2 312.594 381.75 311.538 383.188 310.276C385.969 307.835 388.773 305.419 391.6 303.03C393.062 301.794 394.336 300.418 395.418 298.938C397.072 298.148 398.66 297.151 400.145 295.943C403.014 293.607 405.906 291.299 408.819 289.017C410.326 287.836 411.65 286.507 412.787 285.068C414.47 284.341 416.094 283.403 417.623 282.251C420.577 280.024 423.552 277.825 426.547 275.654C428.097 274.53 429.47 273.252 430.659 271.857C432.367 271.193 434.025 270.317 435.595 269.222C438.631 267.107 441.687 265.019 444.764 262.96C446.354 261.895 447.772 260.67 449.012 259.321C450.743 258.721 452.431 257.908 454.041 256.873C457.153 254.873 460.285 252.901 463.437 250.957C465.066 249.953 466.529 248.782 467.818 247.48C469.571 246.945 471.288 246.195 472.936 245.221C476.118 243.34 479.32 241.487 482.541 239.664C484.208 238.72 485.715 237.603 487.053 236.349C488.826 235.88 490.573 235.195 492.257 234.283C495.505 232.523 498.772 230.793 502.056 229.093C503.756 228.213 505.304 227.154 506.687 225.951C508.476 225.549 510.246 224.93 511.962 224.082C515.276 222.445 518.608 220.837 521.957 219.26C523.688 218.445 525.272 217.446 526.699 216.298C528.5 215.963 530.29 215.411 532.036 214.629C535.412 213.116 538.805 211.633 542.215 210.182C543.973 209.433 545.594 208.495 547.062 207.402C548.873 207.135 550.682 206.651 552.454 205.936C555.882 204.552 559.325 203.199 562.784 201.878C564.572 201.195 566.229 200.317 567.74 199.278C569.563 199.08 571.391 198.664 573.192 198.014C576.665 196.763 580.152 195.542 583.654 194.354C585.468 193.738 587.158 192.923 588.706 191.941C590.536 191.812 592.38 191.465 594.205 190.884C597.723 189.763 601.256 188.675 604.802 187.618C606.635 187.072 608.352 186.323 609.935 185.401C611.765 185.341 613.618 185.064 615.461 184.553C619.028 183.563 622.608 182.606 626.201 181.682C628.05 181.206 629.791 180.523 631.406 179.664C633.234 179.672 635.093 179.465 636.95 179.024C640.546 178.171 644.155 177.351 647.776 176.563C649.647 176.157 651.417 175.537 653.067 174.736C654.898 174.814 656.769 174.678 658.647 174.306C662.266 173.59 665.896 172.907 669.538 172.258C671.425 171.921 673.219 171.368 674.899 170.628C676.728 170.776 678.605 170.71 680.498 170.408C684.142 169.829 687.797 169.282 691.463 168.769C693.357 168.504 695.167 168.02 696.871 167.346C698.69 167.561 700.563 167.564 702.463 167.334C706.14 166.89 709.828 166.479 713.526 166.101C715.424 165.908 717.247 165.493 718.971 164.886C720.777 165.166 722.645 165.239 724.547 165.08C728.229 164.774 731.922 164.5 735.624 164.261C737.538 164.138 739.383 163.788 741.136 163.241Z" fill="#D4F0F9"/>
<path fill-rule="evenodd" clip-rule="evenodd" d="M647.254 1158.18C650.338 1164.8 653.551 1171.25 656.897 1177.48C537.414 1144.17 438.36 1061.38 383.738 952.634H591.085C603.065 1033.39 622.255 1104.49 647.254 1158.18Z" fill="#D5E2F1"/>
<path fill-rule="evenodd" clip-rule="evenodd" d="M383.945 560.446C438.915 451.673 537.668 368.95 656.893 335.626C653.552 341.851 650.345 348.288 647.266 354.9C622.268 408.591 603.077 479.69 591.097 560.446H383.945Z" fill="#D5E2F1"/>
<path fill-rule="evenodd" clip-rule="evenodd" d="M901.822 354.903C898.739 348.279 895.526 341.833 892.18 335.598C1011.66 368.917 1110.72 451.704 1165.34 560.449H957.992C946.012 479.693 926.821 408.594 901.822 354.903Z" fill="#D5E2F1"/>
<path fill-rule="evenodd" clip-rule="evenodd" d="M337.559 756.519C337.559 714.781 343.407 674.52 354.326 636.08H582.535C579.379 674.728 577.644 714.978 577.644 756.519C577.644 798.059 579.379 838.309 582.535 876.957H354.326C343.407 838.518 337.559 798.256 337.559 756.519Z" fill="#B8C8DA"/>
<path fill-rule="evenodd" clip-rule="evenodd" d="M1165.14 952.634C1110.17 1061.41 1011.42 1144.13 892.191 1177.45C895.532 1171.23 898.739 1164.79 901.818 1158.18C926.816 1104.49 946.007 1033.39 957.987 952.634H1165.14Z" fill="#D5E2F1"/>
<path fill-rule="evenodd" clip-rule="evenodd" d="M971.406 756.519C971.406 714.978 969.671 674.728 966.516 636.08H1194.72C1205.64 674.52 1211.49 714.781 1211.49 756.519C1211.49 798.256 1205.64 838.518 1194.72 876.957H966.516C969.671 838.309 971.406 798.059 971.406 756.519Z" fill="#94ACC8"/>
<path fill-rule="evenodd" clip-rule="evenodd" d="M715.846 1126.25C695.853 1083.31 678.941 1023.74 667.633 952.634H881.438C870.129 1023.74 853.218 1083.31 833.225 1126.25C821.27 1151.92 809.062 1169.8 797.855 1180.75C786.822 1191.53 779.077 1193.51 774.535 1193.51C769.994 1193.51 762.249 1191.53 751.215 1180.75C740.009 1169.8 727.8 1151.92 715.846 1126.25Z" fill="#94ACC8"/>
<path fill-rule="evenodd" clip-rule="evenodd" d="M653.328 756.519C653.328 714.861 655.166 674.595 658.484 636.08H889.841C893.159 674.595 894.997 714.861 894.997 756.519C894.997 798.176 893.159 838.443 889.841 876.957H658.484C655.166 838.443 653.328 798.176 653.328 756.519Z" fill="#D5E2F1"/>
<path fill-rule="evenodd" clip-rule="evenodd" d="M880.638 560.449H667.609C678.877 489.288 695.638 429.691 715.488 386.735C727.355 361.052 739.475 343.193 750.603 332.268C761.544 321.527 769.219 319.571 773.735 319.571C778.277 319.571 786.022 321.55 797.055 332.331C808.262 343.28 820.47 361.159 832.425 386.834C852.417 429.773 869.329 489.341 880.638 560.449Z" fill="#B8C8DA"/>
<path d="M616.214 677.364C659.917 677.364 695.346 641.936 695.346 598.232C695.346 554.529 659.917 519.101 616.214 519.101C572.511 519.101 537.082 554.529 537.082 598.232C537.082 641.936 572.511 677.364 616.214 677.364Z" fill="#21BAE4"/>
<path d="M996.381 914.775C996.381 949.918 967.892 978.407 932.749 978.407C897.606 978.407 869.117 949.918 869.117 914.775C869.117 879.632 897.606 851.144 932.749 851.144C967.892 851.144 996.381 879.632 996.381 914.775Z" fill="#09A4CE" stroke="#53C4E6" stroke-width="31"/>
</g>
</g>
</svg>
