<svg width="778" height="1022" viewBox="0 0 778 1022" fill="none" xmlns="http://www.w3.org/2000/svg">
<mask id="mask0_1114_35238" style="mask-type:alpha" maskUnits="userSpaceOnUse" x="0" y="0" width="778" height="1022">
<rect width="778" height="1022" fill="#F8F9FA"/>
</mask>
<g mask="url(#mask0_1114_35238)">
<g opacity="0.1">
<path fill-rule="evenodd" clip-rule="evenodd" d="M215.582 1150.13C461.254 1150.13 660.411 964.073 660.411 734.564C660.411 505.054 461.254 319 215.582 319C-30.09 319 -229.247 505.054 -229.247 734.564C-229.247 837.111 -189.488 930.982 -123.585 1003.46L-265.115 1144.99C-267.005 1146.88 -265.667 1150.11 -262.994 1150.11H203.857L203.751 1149.98C207.682 1150.08 211.626 1150.13 215.582 1150.13Z" fill="url(#paint0_linear_1114_35238)"/>
<path d="M251.89 791.856C251.89 808.425 238.458 821.856 221.89 821.856H209.279C192.71 821.856 179.279 808.425 179.279 791.856V783.124C179.279 766.192 181.206 753.704 185.062 745.661C189.346 737.195 198.342 726.189 212.05 712.644L258.958 666.292C268.811 655.709 273.737 642.587 273.737 626.924C273.737 611.262 268.596 598.351 258.315 588.192C248.034 577.609 234.754 572.318 218.476 572.318C202.197 572.318 188.489 577.398 177.351 587.557C172.969 591.54 169.34 596.091 166.465 601.208C158.935 614.606 147.038 626.924 131.669 626.924H114.569C96.6583 626.924 82.3675 611.125 88.0203 594.13C95.4712 571.727 107.899 553.239 125.302 538.665C151.005 517.077 182.92 506.282 221.046 506.282C259.172 506.282 290.23 516.653 314.219 537.395C338.209 557.714 350.203 586.287 350.203 623.115C350.203 648.513 343.135 669.678 328.998 686.61C320.859 696.77 314.648 703.966 310.364 708.199C306.08 712.432 300.297 717.935 293.014 724.708C286.16 731.057 280.163 736.772 275.022 741.852C270.31 746.508 266.455 750.529 263.456 753.916C255.745 763.229 251.89 766.192 251.89 783.124V791.856ZM216.548 962.817C203.268 962.817 191.702 958.372 181.849 949.483C171.996 940.17 167.07 929.164 167.07 916.465C167.07 903.343 171.782 892.125 181.206 882.812C191.059 873.5 202.626 868.843 215.905 868.843C229.614 868.843 241.394 873.5 251.247 882.812C261.1 891.702 266.026 902.708 266.026 915.83C266.026 928.529 261.1 939.535 251.247 948.848C241.823 958.161 230.256 962.817 216.548 962.817Z" fill="white"/>
</g>
</g>
<defs>
<linearGradient id="paint0_linear_1114_35238" x1="197.205" y1="319" x2="197.205" y2="1150.13" gradientUnits="userSpaceOnUse">
<stop stop-color="#53C4E6"/>
<stop offset="1" stop-color="#0AB4E2" stop-opacity="0"/>
</linearGradient>
</defs>
</svg>
