<svg width="650" height="650" viewBox="0 0 650 650" fill="none" xmlns="http://www.w3.org/2000/svg">
<path opacity="0.4" d="M335 609C486.878 609 610 589.524 610 565.5C610 541.476 486.878 522 335 522C183.122 522 60 541.476 60 565.5C60 589.524 183.122 609 335 609Z" fill="url(#paint0_radial_1529_46727)"/>
<path d="M111.257 240.988L275.76 78.4951L490.497 197.375" stroke="white" stroke-width="4" stroke-miterlimit="10"/>
<path d="M503.192 462.044L162.762 501.292C151.502 502.578 140.191 499.34 131.316 492.291C122.44 485.242 116.726 474.959 115.429 463.699L92.2823 263.45C91.6381 257.871 92.099 252.219 93.6389 246.818C95.1788 241.417 97.7675 236.373 101.257 231.972C104.747 227.572 109.069 223.902 113.977 221.172C118.885 218.442 124.283 216.705 129.862 216.062L470.291 176.813C481.55 175.528 492.859 178.763 501.734 185.809C510.608 192.855 516.324 203.136 517.625 214.393L540.717 414.642C542.019 425.903 538.798 437.22 531.762 446.107C524.727 454.995 514.451 460.727 503.192 462.044Z" fill="url(#paint1_linear_1529_46727)" stroke="#DBE2E8" stroke-width="11" stroke-miterlimit="10"/>
<path d="M150.202 333.061C150.535 335.677 151.368 337.982 152.703 339.976C154.059 341.944 155.765 343.433 157.822 344.442C159.902 345.448 162.203 345.791 164.726 345.47C167.249 345.15 169.381 344.244 171.12 342.753C172.882 341.259 174.162 339.392 174.96 337.15C175.777 334.882 176.02 332.441 175.688 329.825C175.356 327.209 174.512 324.917 173.156 322.949C171.824 320.978 170.118 319.489 168.038 318.483C165.978 317.451 163.687 317.095 161.164 317.416C158.641 317.736 156.5 318.655 154.74 320.172C153.001 321.663 151.721 323.53 150.9 325.775C150.103 328.017 149.87 330.445 150.202 333.061ZM139.404 334.432C138.981 331.099 139.177 327.922 139.993 324.902C140.806 321.859 142.141 319.125 143.997 316.702C145.854 314.279 148.14 312.283 150.858 310.715C153.575 309.147 156.601 308.152 159.934 307.728C163.313 307.299 166.503 307.506 169.503 308.348C172.526 309.187 175.228 310.549 177.607 312.435C180.01 314.317 181.974 316.631 183.499 319.378C185.044 322.098 186.028 325.125 186.451 328.458C186.878 331.815 186.707 335.011 185.94 338.049C185.171 341.063 183.871 343.792 182.041 346.235C180.207 348.656 177.932 350.65 175.215 352.218C172.497 353.786 169.414 354.789 165.965 355.227C162.447 355.674 159.164 355.479 156.118 354.643C153.095 353.803 150.405 352.44 148.048 350.552C145.689 348.64 143.76 346.321 142.261 343.595C140.783 340.843 139.83 337.788 139.404 334.432ZM189.566 304.813L206.232 302.696C209.172 302.323 211.888 302.507 214.381 303.249C216.872 303.968 218.945 305.292 220.601 307.222C222.278 309.126 223.316 311.652 223.716 314.8C224.113 317.925 223.745 320.677 222.612 323.055C221.499 325.407 219.836 327.312 217.622 328.769C215.405 330.203 212.827 331.107 209.887 331.48L203.602 332.278L205.767 349.326L195.385 350.645L189.566 304.813ZM202.562 324.084L205.964 323.652C207.376 323.473 208.612 323.104 209.67 322.546C210.751 321.986 211.57 321.211 212.127 320.223C212.68 319.212 212.862 317.954 212.671 316.45C212.477 314.922 211.988 313.761 211.205 312.967C210.419 312.149 209.434 311.616 208.25 311.366C207.089 311.114 205.803 311.077 204.391 311.256L200.988 311.688L202.562 324.084ZM227.88 299.948L257.149 296.231L258.305 305.328L239.382 307.731L240.567 317.071L259.317 314.69L260.437 323.509L241.687 325.89L242.891 335.369L261.814 332.966L262.969 342.063L233.699 345.78L227.88 299.948ZM275.8 303.53L276.582 303.572L281.175 339.751L270.794 341.069L264.974 295.237L279.14 293.439L302.301 327.19L301.555 327.426L296.952 291.177L307.334 289.859L313.154 335.691L298.918 337.498L275.8 303.53ZM325.983 297.158L326.765 297.2L331.358 333.379L320.977 334.697L315.157 288.865L329.323 287.067L352.484 320.818L351.738 321.054L347.135 284.805L357.517 283.487L363.337 329.319L349.101 331.126L325.983 297.158ZM365.722 282.445L376.104 281.127L381.923 326.959L371.542 328.277L365.722 282.445ZM394.951 288.4L395.732 288.442L400.326 324.622L389.945 325.94L384.125 280.108L398.291 278.309L421.452 312.061L420.706 312.296L416.103 276.048L426.485 274.729L432.304 320.561L418.069 322.369L394.951 288.4ZM458.609 291.184L481.977 288.217L482.347 291.133C482.764 294.42 482.598 297.558 481.849 300.546C481.122 303.531 479.877 306.23 478.114 308.641C476.35 311.052 474.133 313.039 471.462 314.601C468.79 316.164 465.742 317.162 462.316 317.597C458.774 318.047 455.481 317.854 452.434 317.017C449.408 316.155 446.715 314.768 444.356 312.857C441.996 310.946 440.079 308.625 438.603 305.896C437.125 303.144 436.175 300.112 435.755 296.802C435.338 293.515 435.502 290.366 436.249 287.355C436.993 284.32 438.269 281.595 440.079 279.177C441.886 276.737 444.149 274.733 446.866 273.165C449.604 271.57 452.743 270.548 456.285 270.099C459.178 269.731 461.764 269.72 464.043 270.066C466.344 270.409 468.36 271 470.089 271.839C471.818 272.678 473.318 273.651 474.588 274.76C475.855 275.846 476.933 276.932 477.824 278.019L468.554 283.923C467.42 282.586 465.962 281.477 464.18 280.598C462.422 279.716 460.2 279.445 457.515 279.786C455.64 280.024 453.962 280.613 452.483 281.554C451.026 282.492 449.812 283.68 448.843 285.121C447.87 286.538 447.18 288.143 446.773 289.935C446.385 291.701 446.312 293.533 446.553 295.431C446.797 297.353 447.327 299.12 448.144 300.733C448.983 302.344 450.053 303.725 451.351 304.877C452.65 306.029 454.122 306.877 455.767 307.421C457.432 307.939 459.202 308.079 461.077 307.841C462.721 307.632 464.187 307.234 465.477 306.647C466.767 306.06 467.847 305.311 468.72 304.401C469.615 303.487 470.273 302.463 470.693 301.327C471.134 300.166 471.33 298.93 471.281 297.619L459.615 299.1L458.609 291.184ZM240.262 362.042C243.109 361.681 245.637 361.677 247.846 362.032C250.055 362.387 251.852 362.829 253.236 363.359C254.62 363.888 255.466 364.251 255.773 364.448L251.836 373.45C251.43 373.22 250.742 372.895 249.772 372.478C248.825 372.057 247.711 371.716 246.432 371.455C245.175 371.191 243.887 371.143 242.568 371.311C240.785 371.537 239.38 372.045 238.351 372.834C237.342 373.597 236.918 374.604 237.076 375.854C237.185 376.71 237.573 377.449 238.24 378.07C238.927 378.665 239.912 379.198 241.195 379.67C242.498 380.116 244.133 380.579 246.099 381.059C247.891 381.466 249.594 382.003 251.207 382.668C252.821 383.333 254.269 384.184 255.553 385.221C256.858 386.231 257.942 387.458 258.808 388.9C259.673 390.343 260.229 392.036 260.476 393.981C260.77 396.295 260.551 398.369 259.82 400.203C259.085 402.013 257.967 403.578 256.464 404.898C254.985 406.215 253.238 407.272 251.222 408.068C249.232 408.886 247.126 409.435 244.904 409.717C241.756 410.117 238.887 410.117 236.296 409.717C233.728 409.314 231.627 408.792 229.993 408.153C228.36 407.514 227.375 407.074 227.039 406.835L231.106 397.463C231.41 397.636 231.985 397.904 232.831 398.267C233.7 398.627 234.745 398.988 235.967 399.351C237.186 399.69 238.466 399.951 239.806 400.133C241.17 400.313 242.488 400.322 243.761 400.16C245.891 399.89 247.437 399.282 248.398 398.337C249.357 397.368 249.752 396.213 249.581 394.87C249.455 393.875 249.006 393.026 248.235 392.324C247.464 391.623 246.363 391.01 244.932 390.486C243.498 389.939 241.725 389.399 239.611 388.868C237.494 388.314 235.483 387.569 233.576 386.635C231.693 385.698 230.098 384.431 228.789 382.833C227.481 381.235 226.664 379.152 226.337 376.582C226.011 374.013 226.447 371.7 227.644 369.642C228.861 367.559 230.585 365.858 232.817 364.54C235.072 363.219 237.554 362.386 240.262 362.042ZM274.77 381.758C275.102 384.373 275.936 386.678 277.271 388.673C278.626 390.641 280.333 392.13 282.389 393.139C284.469 394.145 286.771 394.487 289.294 394.167C291.817 393.847 293.948 392.941 295.688 391.45C297.45 389.956 298.73 388.088 299.527 385.847C300.345 383.579 300.588 381.137 300.255 378.522C299.923 375.906 299.08 373.614 297.724 371.646C296.392 369.674 294.686 368.186 292.606 367.18C290.546 366.148 288.255 365.792 285.732 366.112C283.209 366.433 281.067 367.351 279.308 368.868C277.568 370.359 276.288 372.227 275.468 374.472C274.671 376.713 274.438 379.142 274.77 381.758ZM263.972 383.129C263.549 379.796 263.745 376.619 264.561 373.599C265.374 370.555 266.709 367.822 268.565 365.399C270.421 362.976 272.708 360.98 275.426 359.412C278.143 357.844 281.168 356.848 284.502 356.425C287.881 355.996 291.071 356.202 294.071 357.045C297.094 357.884 299.795 359.246 302.175 361.131C304.578 363.014 306.542 365.328 308.067 368.074C309.612 370.795 310.596 373.822 311.019 377.155C311.445 380.511 311.275 383.708 310.508 386.746C309.738 389.76 308.438 392.489 306.608 394.932C304.775 397.352 302.5 399.346 299.782 400.915C297.065 402.483 293.982 403.486 290.533 403.924C287.014 404.37 283.732 404.176 280.686 403.339C277.663 402.5 274.973 401.136 272.616 399.248C270.257 397.337 268.327 395.018 266.829 392.292C265.35 389.539 264.398 386.485 263.972 383.129ZM326.309 375.213C326.642 377.829 327.475 380.134 328.81 382.128C330.166 384.097 331.872 385.585 333.929 386.594C336.009 387.6 338.31 387.943 340.833 387.623C343.356 387.302 345.488 386.397 347.227 384.906C348.989 383.412 350.269 381.544 351.067 379.302C351.884 377.035 352.127 374.593 351.795 371.977C351.463 369.362 350.619 367.07 349.263 365.101C347.931 363.13 346.225 361.642 344.145 360.636C342.085 359.603 339.794 359.248 337.271 359.568C334.748 359.888 332.607 360.807 330.847 362.324C329.108 363.815 327.828 365.683 327.007 367.927C326.21 370.169 325.977 372.598 326.309 375.213ZM315.511 376.584C315.088 373.251 315.284 370.075 316.1 367.054C316.913 364.011 318.248 361.278 320.104 358.855C321.961 356.432 324.247 354.436 326.965 352.868C329.682 351.3 332.708 350.304 336.041 349.881C339.42 349.452 342.61 349.658 345.61 350.5C348.633 351.339 351.335 352.702 353.714 354.587C356.117 356.469 358.081 358.784 359.606 361.53C361.151 364.251 362.135 367.277 362.558 370.611C362.985 373.967 362.814 377.164 362.047 380.201C361.278 383.216 359.978 385.944 358.148 388.388C356.314 390.808 354.039 392.802 351.322 394.37C348.604 395.938 345.521 396.941 342.072 397.379C338.554 397.826 335.271 397.631 332.225 396.795C329.202 395.956 326.512 394.592 324.155 392.704C321.796 390.793 319.867 388.474 318.368 385.748C316.89 382.995 315.937 379.941 315.511 376.584ZM376.429 355.266L377.211 355.308L381.805 391.487L371.423 392.806L365.603 346.974L379.77 345.175L402.931 378.926L402.184 379.162L397.582 342.913L407.963 341.595L413.783 387.427L399.547 389.235L376.429 355.266Z" fill="white"/>
<path d="M274.336 102.682C286.122 102.682 295.677 93.1273 295.677 81.341C295.677 69.5547 286.122 60 274.336 60C262.55 60 252.995 69.5547 252.995 81.341C252.995 93.1273 262.55 102.682 274.336 102.682Z" fill="url(#paint2_linear_1529_46727)" stroke="#7EB9EB" stroke-width="7" stroke-miterlimit="10"/>
<defs>
<radialGradient id="paint0_radial_1529_46727" cx="0" cy="0" r="1" gradientUnits="userSpaceOnUse" gradientTransform="translate(333.38 558.233) scale(195.274 29.9285)">
<stop/>
<stop offset="0.458333" stop-opacity="0.442308"/>
<stop offset="0.697917" stop-opacity="0.117949"/>
<stop offset="1" stop-opacity="0"/>
</radialGradient>
<linearGradient id="paint1_linear_1529_46727" x1="132.26" y1="192.912" x2="500.802" y2="485.224" gradientUnits="userSpaceOnUse">
<stop stop-color="#64FBFF"/>
<stop offset="1" stop-color="#0AB4E2"/>
</linearGradient>
<linearGradient id="paint2_linear_1529_46727" x1="259.247" y1="66.2518" x2="289.425" y2="96.4302" gradientUnits="userSpaceOnUse">
<stop stop-color="#0AB6E2"/>
<stop offset="1" stop-color="#07A5CC"/>
</linearGradient>
</defs>
</svg>
