<svg width="140" height="140" viewBox="0 0 140 140" fill="none" xmlns="http://www.w3.org/2000/svg">
<path d="M20.125 38C20.125 32.4772 24.6022 28 30.125 28H84.875V44.625H20.125V38Z" fill="url(#paint0_linear_246_638)"/>
<path d="M84.875 28H98.5C104.023 28 108.5 32.4772 108.5 38V44.625H84.875V28Z" fill="#53C4E6"/>
<path d="M20.125 44.625H108.5V102C108.5 107.523 104.023 112 98.5 112H30.125C24.6022 112 20.125 107.523 20.125 102V44.625Z" fill="url(#paint1_linear_246_638)"/>
<path fill-rule="evenodd" clip-rule="evenodd" d="M51.1391 62.7645C52.3602 63.9788 52.3657 65.9532 51.1514 67.1743L41.6699 76.7091L51.1514 86.2438C52.3657 87.465 52.3602 89.4393 51.1391 90.6536C49.918 91.8679 47.9436 91.8624 46.7293 90.6412L35.0614 78.9078C33.8519 77.6915 33.8519 75.7267 35.0614 74.5104L46.7293 62.7769C47.9436 61.5558 49.918 61.5502 51.1391 62.7645Z" fill="#38C1E7"/>
<path fill-rule="evenodd" clip-rule="evenodd" d="M74.0113 62.7645C75.2324 61.5502 77.2067 61.5558 78.421 62.7769L90.0889 74.5104C91.2984 75.7267 91.2984 77.6915 90.0889 78.9078L78.421 90.6412C77.2067 91.8624 75.2324 91.8679 74.0113 90.6536C72.7901 89.4393 72.7846 87.465 73.9989 86.2438L83.4804 76.7091L73.9989 67.1743C72.7846 65.9532 72.7901 63.9788 74.0113 62.7645Z" fill="#0AB4E2"/>
<path fill-rule="evenodd" clip-rule="evenodd" d="M67.5809 62.024C69.211 62.5795 70.0821 64.3512 69.5266 65.9813L61.5295 89.4482C60.974 91.0783 59.2022 91.9494 57.5722 91.3939C55.9421 90.8384 55.071 89.0667 55.6265 87.4366L63.6236 63.9696C64.1791 62.3396 65.9509 61.4685 67.5809 62.024Z" fill="#21BAE4"/>
<path fill-rule="evenodd" clip-rule="evenodd" d="M100.271 64.2734C100.271 62.8237 101.447 61.6484 102.896 61.6484H120.187C121.637 61.6484 122.812 62.8237 122.812 64.2734C122.812 65.7232 121.637 66.8984 120.187 66.8984H102.896C101.447 66.8984 100.271 65.7232 100.271 64.2734Z" fill="#A9E1F2"/>
<path fill-rule="evenodd" clip-rule="evenodd" d="M100.271 76.708C100.271 75.2583 101.447 74.083 102.896 74.083H133.872C135.322 74.083 136.497 75.2583 136.497 76.708C136.497 78.1578 135.322 79.333 133.872 79.333H102.896C101.447 79.333 100.271 78.1578 100.271 76.708Z" fill="#B8C8DA"/>
<path fill-rule="evenodd" clip-rule="evenodd" d="M100.271 89.1426C100.271 87.6928 101.447 86.5176 102.896 86.5176H124.749C126.199 86.5176 127.374 87.6928 127.374 89.1426C127.374 90.5923 126.199 91.7676 124.749 91.7676H102.896C101.447 91.7676 100.271 90.5923 100.271 89.1426Z" fill="#B8C8DA"/>
<defs>
<linearGradient id="paint0_linear_246_638" x1="20.125" y1="28" x2="113.875" y2="34.5023" gradientUnits="userSpaceOnUse">
<stop stop-color="#7D8D9B"/>
<stop offset="1" stop-color="#4E6374"/>
</linearGradient>
<linearGradient id="paint1_linear_246_638" x1="20.125" y1="44.625" x2="108.938" y2="112.438" gradientUnits="userSpaceOnUse">
<stop stop-color="#F0F6FC"/>
<stop offset="1" stop-color="#EBF2FA"/>
</linearGradient>
</defs>
</svg>
