<svg width="30" height="30" viewBox="0 0 30 30" fill="none" xmlns="http://www.w3.org/2000/svg">
<g id="icon/quotes">
<path id="&#226;&#128;&#156;" d="M13.7323 4.77246L7.84144 14.2113C9.15053 14.3198 10.2414 14.8622 11.1142 15.8387C12.0414 16.8151 12.5051 18.0085 12.5051 19.4189C12.5051 20.9921 11.9596 22.2397 10.8687 23.1619C9.83235 24.0841 8.60508 24.5452 7.1869 24.5452C5.65962 24.5452 4.3778 24.0841 3.34144 23.1619C2.25053 22.2397 1.70508 20.9378 1.70508 19.2562C1.70508 17.683 2.30508 15.92 3.50508 13.9672C4.65053 12.0143 6.50508 9.22064 9.06871 5.58615L9.64144 4.77246H13.7323ZM28.296 4.77246L22.4051 14.2113C23.7142 14.3198 24.8051 14.8622 25.6778 15.8387C26.6051 16.8151 27.0687 18.0085 27.0687 19.4189C27.0687 20.9921 26.5233 22.2397 25.4323 23.1619C24.396 24.0841 23.1687 24.5452 21.7505 24.5452C20.2233 24.5452 18.9142 24.0841 17.8233 23.1619C16.7869 22.2397 16.2687 20.9378 16.2687 19.2562C16.2687 17.683 16.8414 15.92 17.9869 13.9672C19.1869 12.0143 21.0687 9.22064 23.6323 5.58615L24.2051 4.77246H28.296Z" fill="#DCE8F2"/>
</g>
</svg>
