<svg width="100" height="100" viewBox="0 0 100 100" fill="none" xmlns="http://www.w3.org/2000/svg">
<path d="M32.4968 36.3874C31.9641 35.9367 31.1477 36.3153 31.1477 37.0131V41.8079C21.6041 42.0257 13.9346 49.8303 13.9346 59.4262C13.9346 69.159 21.8247 77.0491 31.5575 77.0491H62.7051C72.4379 77.0491 80.328 69.159 80.328 59.4262C80.328 49.6933 72.4379 41.8032 62.7051 41.8032H38.8973L32.4968 36.3874Z" fill="url(#paint0_linear_803_23500)"/>
<path d="M44.6722 54.918H33.1968C32.5178 54.918 31.9673 55.4684 31.9673 56.1475C31.9673 56.8265 32.5178 57.377 33.1968 57.377H44.6722C45.3512 57.377 45.9017 56.8265 45.9017 56.1475C45.9017 55.4684 45.3512 54.918 44.6722 54.918Z" fill="white"/>
<path d="M31.9673 62.7051C31.9673 62.0261 32.5178 61.4756 33.1968 61.4756H61.0656C61.7447 61.4756 62.2951 62.0261 62.2951 62.7051C62.2951 63.3841 61.7447 63.9346 61.0656 63.9346H33.1968C32.5178 63.9346 31.9673 63.3841 31.9673 62.7051Z" fill="white"/>
<path d="M70.1962 50.8492C70.7289 51.3 71.5453 50.9213 71.5453 50.2236V47.307H71.8382C78.7903 47.307 84.426 41.6713 84.426 34.7191C84.426 27.7671 78.7903 22.1313 71.8381 22.1313H56.0302C49.0781 22.1313 43.4424 27.7671 43.4424 34.7191C43.4424 41.6713 49.0781 47.307 56.0302 47.307H66.0099L70.1962 50.8492Z" fill="url(#paint1_linear_803_23500)"/>
<path d="M55.7373 36.8853C57.0954 36.8853 58.1964 35.7844 58.1964 34.4263C58.1964 33.0682 57.0954 31.9673 55.7373 31.9673C54.3793 31.9673 53.2783 33.0682 53.2783 34.4263C53.2783 35.7844 54.3793 36.8853 55.7373 36.8853Z" fill="#BACBDF"/>
<path d="M63.9341 36.8853C65.2922 36.8853 66.3931 35.7844 66.3931 34.4263C66.3931 33.0682 65.2922 31.9673 63.9341 31.9673C62.576 31.9673 61.4751 33.0682 61.4751 34.4263C61.4751 35.7844 62.576 36.8853 63.9341 36.8853Z" fill="#BACBDF"/>
<path d="M72.1309 36.8853C73.489 36.8853 74.5899 35.7844 74.5899 34.4263C74.5899 33.0682 73.489 31.9673 72.1309 31.9673C70.7728 31.9673 69.6719 33.0682 69.6719 34.4263C69.6719 35.7844 70.7728 36.8853 72.1309 36.8853Z" fill="#BACBDF"/>
<defs>
<linearGradient id="paint0_linear_803_23500" x1="55.5543" y1="41.1235" x2="55.5543" y2="76.7387" gradientUnits="userSpaceOnUse">
<stop stop-color="#44BCFF"/>
<stop offset="1" stop-color="#4BA5FF"/>
</linearGradient>
<linearGradient id="paint1_linear_803_23500" x1="67.008" y1="22.1313" x2="67.2659" y2="48.1577" gradientUnits="userSpaceOnUse">
<stop stop-color="#EFF7FF"/>
<stop offset="1" stop-color="#D5E2F1"/>
</linearGradient>
</defs>
</svg>
