<svg width="24" height="24" viewBox="0 0 24 24" fill="none" xmlns="http://www.w3.org/2000/svg">
<path d="M4.92802 13.4142L13.0597 5.28249C14.6225 3.71979 17.1539 3.71978 18.7166 5.28249C20.2793 6.8452 20.2793 9.37664 18.7166 10.9393L9.87777 19.7782C8.90196 20.754 7.31804 20.754 6.34223 19.7782C5.36643 18.8024 5.36643 17.2185 6.34223 16.2426L13.7669 8.81802C14.1558 8.42912 14.7922 8.42912 15.1811 8.81802C15.57 9.20693 15.57 9.84333 15.1811 10.2322L8.46355 16.9498L9.52421 18.0104L16.2417 11.2929C17.2175 10.3171 17.2175 8.73317 16.2417 7.75736C15.2659 6.78156 13.682 6.78156 12.7062 7.75736L5.28157 15.182C3.71887 16.7447 3.71887 19.2761 5.28157 20.8388C6.84428 22.4015 9.37572 22.4015 10.9384 20.8388L19.7773 12C21.9269 9.8504 21.9269 6.37144 19.7773 4.22183C17.6277 2.07223 14.1487 2.07223 11.9991 4.22183L3.86736 12.3536L4.92802 13.4142Z" fill="#B0B0B0"/>
</svg>
