<svg width="26" height="26" viewBox="0 0 26 26" fill="none" xmlns="http://www.w3.org/2000/svg">
<path d="M12.9408 17.3558L5.29079 9.7058C5.10454 9.51844 5 9.26498 5 9.0008C5 8.73661 5.10454 8.48316 5.29079 8.2958C5.38376 8.20207 5.49436 8.12768 5.61621 8.07691C5.73807 8.02614 5.86878 8 6.00079 8C6.1328 8 6.26351 8.02614 6.38537 8.07691C6.50723 8.12768 6.61783 8.20207 6.71079 8.2958L12.9408 14.5258L19.1708 8.2958C19.2638 8.20207 19.3744 8.12768 19.4962 8.07691C19.6181 8.02614 19.7488 8 19.8808 8C20.0128 8 20.1435 8.02614 20.2654 8.07691C20.3872 8.12768 20.4978 8.20207 20.5908 8.2958C20.777 8.48316 20.8816 8.73661 20.8816 9.0008C20.8816 9.26498 20.777 9.51844 20.5908 9.7058L12.9408 17.3558Z" fill="#212121"/>
</svg>
