<svg width="100" height="100" viewBox="0 0 100 100" fill="none" xmlns="http://www.w3.org/2000/svg">
<path d="M47.2718 1.86384L5.07073 31.4746C4.43124 31.9247 3.90932 32.522 3.54894 33.216C3.18856 33.91 3.00029 34.6805 3 35.4625V94.0451C3 94.7858 3.14591 95.5193 3.42938 96.2037C3.71285 96.888 4.12836 97.5099 4.65215 98.0337C5.17594 98.5575 5.79777 98.9729 6.48214 99.2564C7.1665 99.5399 7.89998 99.6858 8.64073 99.6858H91.3593C92.851 99.6793 94.2794 99.0821 95.332 98.025C96.3845 96.9679 96.9754 95.5368 96.9754 94.0451V35.4625C96.9767 34.6802 96.7891 33.9092 96.4286 33.2149C96.0681 32.5206 95.5453 31.9236 94.9047 31.4746L52.7343 1.86384C51.9345 1.30167 50.9807 1 50.0031 1C49.0254 1 48.0716 1.30167 47.2718 1.86384Z" fill="#0063C0"/>
<path d="M88.2799 17.686H11.7183C10.1437 17.686 8.86719 18.9625 8.86719 20.5371V75.3961C8.86719 76.9707 10.1437 78.2472 11.7183 78.2472H88.2799C89.8545 78.2472 91.131 76.9707 91.131 75.3961V20.5371C91.131 18.9625 89.8545 17.686 88.2799 17.686Z" fill="white"/>
<path d="M35.5288 36.4087H65.496C65.7346 36.3895 65.9572 36.2812 66.1195 36.1052C66.2819 35.9293 66.372 35.6987 66.372 35.4594C66.372 35.22 66.2819 34.9894 66.1195 34.8135C65.9572 34.6376 65.7346 34.5292 65.496 34.51H35.5288C35.3977 34.4995 35.2659 34.5162 35.1416 34.5591C35.0173 34.602 34.9032 34.6702 34.8065 34.7594C34.7099 34.8486 34.6328 34.9568 34.58 35.0773C34.5272 35.1978 34.5 35.3279 34.5 35.4594C34.5 35.5909 34.5272 35.721 34.58 35.8414C34.6328 35.9619 34.7099 36.0701 34.8065 36.1593C34.9032 36.2485 35.0173 36.3167 35.1416 36.3596C35.2659 36.4026 35.3977 36.4193 35.5288 36.4087Z" fill="#E3EEFA"/>
<path d="M19.5523 42.8483H81.4714C81.6025 42.8588 81.7343 42.8421 81.8586 42.7992C81.9829 42.7563 82.097 42.6881 82.1936 42.5989C82.2903 42.5097 82.3675 42.4015 82.4202 42.281C82.473 42.1605 82.5002 42.0305 82.5002 41.8989C82.5002 41.7674 82.473 41.6373 82.4202 41.5169C82.3675 41.3964 82.2903 41.2882 82.1936 41.199C82.097 41.1098 81.9829 41.0416 81.8586 40.9987C81.7343 40.9558 81.6025 40.9391 81.4714 40.9496H19.5523C19.4212 40.9391 19.2893 40.9558 19.165 40.9987C19.0407 41.0416 18.9266 41.1098 18.83 41.199C18.7333 41.2882 18.6562 41.3964 18.6034 41.5169C18.5507 41.6373 18.5234 41.7674 18.5234 41.8989C18.5234 42.0305 18.5507 42.1605 18.6034 42.281C18.6562 42.4015 18.7333 42.5097 18.83 42.5989C18.9266 42.6881 19.0407 42.7563 19.165 42.7992C19.2893 42.8421 19.4212 42.8588 19.5523 42.8483Z" fill="#E3EEFA"/>
<path d="M81.4714 47.383H19.5523C19.4212 47.3724 19.2893 47.3891 19.165 47.432C19.0407 47.4749 18.9266 47.5432 18.83 47.6323C18.7333 47.7215 18.6562 47.8298 18.6034 47.9502C18.5507 48.0707 18.5234 48.2008 18.5234 48.3323C18.5234 48.4638 18.5507 48.5939 18.6034 48.7144C18.6562 48.8348 18.7333 48.9431 18.83 49.0323C18.9266 49.1214 19.0407 49.1896 19.165 49.2326C19.2893 49.2755 19.4212 49.2922 19.5523 49.2816H81.4714C81.6025 49.2922 81.7343 49.2755 81.8586 49.2326C81.9829 49.1896 82.097 49.1214 82.1936 49.0323C82.2903 48.9431 82.3675 48.8348 82.4202 48.7144C82.473 48.5939 82.5002 48.4638 82.5002 48.3323C82.5002 48.2008 82.473 48.0707 82.4202 47.9502C82.3675 47.8298 82.2903 47.7215 82.1936 47.6323C82.097 47.5432 81.9829 47.4749 81.8586 47.432C81.7343 47.3891 81.6025 47.3724 81.4714 47.383Z" fill="#E3EEFA"/>
<path d="M81.4714 53.8163H19.5523C19.4212 53.8057 19.2893 53.8225 19.165 53.8654C19.0407 53.9083 18.9266 53.9765 18.83 54.0657C18.7333 54.1549 18.6562 54.2631 18.6034 54.3836C18.5507 54.504 18.5234 54.6341 18.5234 54.7656C18.5234 54.8972 18.5507 55.0272 18.6034 55.1477C18.6562 55.2682 18.7333 55.3764 18.83 55.4656C18.9266 55.5548 19.0407 55.623 19.165 55.6659C19.2893 55.7088 19.4212 55.7255 19.5523 55.715H81.4714C81.6025 55.7255 81.7343 55.7088 81.8586 55.6659C81.9829 55.623 82.097 55.5548 82.1936 55.4656C82.2903 55.3764 82.3675 55.2682 82.4202 55.1477C82.473 55.0272 82.5002 54.8972 82.5002 54.7656C82.5002 54.6341 82.473 54.504 82.4202 54.3836C82.3675 54.2631 82.2903 54.1549 82.1936 54.0657C82.097 53.9765 81.9829 53.9083 81.8586 53.8654C81.7343 53.8225 81.6025 53.8057 81.4714 53.8163Z" fill="#E3EEFA"/>
<path d="M81.4714 60.2559H19.5523C19.4212 60.2453 19.2893 60.262 19.165 60.305C19.0407 60.3479 18.9266 60.4161 18.83 60.5053C18.7333 60.5944 18.6562 60.7027 18.6034 60.8231C18.5507 60.9436 18.5234 61.0737 18.5234 61.2052C18.5234 61.3367 18.5507 61.4668 18.6034 61.5873C18.6562 61.7077 18.7333 61.816 18.83 61.9052C18.9266 61.9944 19.0407 62.0626 19.165 62.1055C19.2893 62.1484 19.4212 62.1651 19.5523 62.1545H81.4714C81.6025 62.1651 81.7343 62.1484 81.8586 62.1055C81.9829 62.0626 82.097 61.9944 82.1936 61.9052C82.2903 61.816 82.3675 61.7077 82.4202 61.5873C82.473 61.4668 82.5002 61.3367 82.5002 61.2052C82.5002 61.0737 82.473 60.9436 82.4202 60.8231C82.3675 60.7027 82.2903 60.5944 82.1936 60.5053C82.097 60.4161 81.9829 60.3479 81.8586 60.305C81.7343 60.262 81.6025 60.2453 81.4714 60.2559Z" fill="#E3EEFA"/>
<path d="M81.4714 66.6894H19.5523C19.4212 66.6788 19.2893 66.6955 19.165 66.7384C19.0407 66.7813 18.9266 66.8495 18.83 66.9387C18.7333 67.0279 18.6562 67.1362 18.6034 67.2566C18.5507 67.3771 18.5234 67.5072 18.5234 67.6387C18.5234 67.7702 18.5507 67.9003 18.6034 68.0208C18.6562 68.1412 18.7333 68.2495 18.83 68.3386C18.9266 68.4278 19.0407 68.496 19.165 68.5389C19.2893 68.5819 19.4212 68.5986 19.5523 68.588H81.4714C81.6025 68.5986 81.7343 68.5819 81.8586 68.5389C81.9829 68.496 82.097 68.4278 82.1936 68.3386C82.2903 68.2495 82.3675 68.1412 82.4202 68.0208C82.473 67.9003 82.5002 67.7702 82.5002 67.6387C82.5002 67.5072 82.473 67.3771 82.4202 67.2566C82.3675 67.1362 82.2903 67.0279 82.1936 66.9387C82.097 66.8495 81.9829 66.7813 81.8586 66.7384C81.7343 66.6955 81.6025 66.6788 81.4714 66.6894Z" fill="#E3EEFA"/>
<path d="M8.64073 99.6858C7.14472 99.6858 5.70999 99.0915 4.65215 98.0337C3.5943 96.9759 3 95.5411 3 94.0451V35.4625C3.00025 36.2437 3.18856 37.0133 3.54898 37.7063C3.9094 38.3994 4.43134 38.9955 5.07073 39.4442L50 70.9721L94.9293 39.4442C95.5698 38.9966 96.0926 38.4007 96.4531 37.7074C96.8137 37.0141 97.0013 36.244 97 35.4625V94.0451C97 94.7859 96.8541 95.5194 96.5706 96.2037C96.2871 96.8881 95.8717 97.5099 95.3479 98.0337C94.8241 98.5575 94.2023 98.973 93.5179 99.2565C92.8335 99.5399 92.1 99.6858 91.3593 99.6858H8.64073Z" fill="#2C99FF"/>
<path d="M47.2729 60.0408L5.42205 89.4243C4.68011 89.9451 4.07444 90.6369 3.65627 91.4412C3.23809 92.2454 3.01971 93.1385 3.01953 94.045C3.01953 95.541 3.6138 96.9758 4.67164 98.0336C5.72948 99.0915 7.16425 99.6858 8.66026 99.6858H91.3603C92.8521 99.6793 94.2805 99.0821 95.3331 98.025C96.3856 96.9678 96.9765 95.5368 96.9765 94.045C96.977 93.1391 96.7596 92.2463 96.3425 91.4421C95.9254 90.6378 95.3209 89.9458 94.5801 89.4243L52.7354 60.0408C51.9356 59.4787 50.9818 59.177 50.0041 59.177C49.0265 59.177 48.0727 59.4787 47.2729 60.0408Z" fill="#4FAAFF"/>
</svg>
