<svg width="364" height="218" viewBox="0 0 364 218" fill="none" xmlns="http://www.w3.org/2000/svg">
<path d="M262.294 46H95.3064C92.3758 46 90 48.3677 90 51.2885V157.168C90 160.089 92.3758 162.456 95.3064 162.456H262.294C265.224 162.456 267.6 160.089 267.6 157.168V51.2885C267.6 48.3677 265.224 46 262.294 46Z" fill="#CCD9E9"/>
<path d="M261.182 52.5166H96.4023V155.94H261.182V52.5166Z" fill="#E7F3FF"/>
<rect x="110.086" y="63.958" width="44.4" height="4.22535" fill="white"/>
<rect x="110.086" y="72.4082" width="25.3714" height="4.22535" fill="white"/>
<rect x="111.145" y="97.7607" width="47.5714" height="41.1972" rx="4" fill="#007DF1"/>
<rect x="169.285" y="97.7607" width="47.5714" height="41.1972" rx="4" fill="#485F74"/>
<rect x="227.43" y="97.7607" width="47.5714" height="41.1972" rx="4" fill="#485F74"/>
<path d="M238.892 116.577H242.46C242.954 116.577 243.352 116.974 243.352 117.468V119.25C243.352 119.744 242.954 120.142 242.46 120.142H238.892C238.775 120.142 238.659 120.119 238.55 120.074C238.442 120.03 238.344 119.964 238.261 119.881C238.178 119.798 238.112 119.7 238.067 119.592C238.023 119.484 238 119.368 238 119.25V117.468C238 116.974 238.398 116.577 238.892 116.577ZM262.083 116.577H265.651C266.145 116.577 266.543 116.974 266.543 117.468V119.25C266.543 119.744 266.145 120.142 265.651 120.142H262.083C261.966 120.142 261.85 120.119 261.741 120.074C261.633 120.03 261.535 119.964 261.452 119.881C261.369 119.798 261.303 119.7 261.258 119.592C261.214 119.484 261.191 119.368 261.191 119.25V117.468C261.191 116.974 261.589 116.577 262.083 116.577ZM241.55 126.552L244.072 124.031C244.155 123.948 244.253 123.883 244.362 123.838C244.47 123.793 244.586 123.77 244.703 123.77C244.82 123.77 244.936 123.793 245.045 123.838C245.153 123.883 245.251 123.948 245.334 124.031L246.595 125.292C246.678 125.374 246.744 125.472 246.789 125.581C246.834 125.689 246.857 125.805 246.857 125.922C246.857 126.039 246.834 126.155 246.789 126.263C246.744 126.371 246.678 126.469 246.595 126.552L244.072 129.072C243.99 129.155 243.892 129.221 243.783 129.266C243.675 129.311 243.559 129.334 243.442 129.334C243.325 129.334 243.209 129.311 243.1 129.266C242.992 129.221 242.894 129.155 242.811 129.072L241.55 127.812C241.467 127.73 241.401 127.631 241.356 127.523C241.311 127.415 241.288 127.299 241.288 127.182C241.288 127.065 241.311 126.949 241.356 126.841C241.401 126.733 241.467 126.635 241.55 126.552ZM257.948 110.167L260.47 107.644C260.553 107.561 260.651 107.495 260.76 107.45C260.868 107.406 260.984 107.382 261.101 107.382C261.218 107.382 261.334 107.406 261.442 107.45C261.551 107.495 261.649 107.561 261.732 107.644L262.993 108.906C263.076 108.989 263.142 109.087 263.187 109.195C263.232 109.303 263.255 109.419 263.255 109.536C263.255 109.653 263.232 109.769 263.187 109.878C263.142 109.986 263.076 110.084 262.993 110.167L260.47 112.687C260.388 112.77 260.289 112.836 260.181 112.881C260.073 112.926 259.957 112.949 259.84 112.949C259.723 112.949 259.607 112.926 259.498 112.881C259.39 112.836 259.292 112.77 259.209 112.687L257.948 111.427C257.865 111.344 257.799 111.246 257.754 111.138C257.709 111.03 257.686 110.914 257.686 110.797C257.686 110.68 257.709 110.564 257.754 110.455C257.799 110.347 257.865 110.249 257.948 110.167ZM250.488 131.728V128.163C250.488 127.67 250.885 127.272 251.379 127.272H253.163C253.658 127.272 254.055 127.67 254.055 128.163V131.728C254.055 132.222 253.658 132.62 253.163 132.62H251.379C251.262 132.62 251.146 132.597 251.038 132.552C250.93 132.508 250.831 132.442 250.748 132.359C250.665 132.276 250.6 132.178 250.555 132.07C250.51 131.962 250.487 131.846 250.488 131.728ZM250.488 108.555V104.99C250.488 104.496 250.885 104.099 251.379 104.099H253.163C253.658 104.099 254.055 104.496 254.055 104.99V108.555C254.055 109.049 253.658 109.446 253.163 109.446H251.379C251.262 109.447 251.146 109.424 251.038 109.379C250.93 109.334 250.831 109.269 250.748 109.186C250.665 109.103 250.6 109.005 250.555 108.896C250.51 108.788 250.487 108.672 250.488 108.555ZM260.47 129.072L257.948 126.552C257.865 126.469 257.799 126.371 257.754 126.263C257.709 126.155 257.686 126.039 257.686 125.922C257.686 125.805 257.709 125.689 257.754 125.581C257.799 125.472 257.865 125.374 257.948 125.292L259.209 124.031C259.292 123.948 259.39 123.883 259.498 123.838C259.607 123.793 259.723 123.77 259.84 123.77C259.957 123.77 260.073 123.793 260.181 123.838C260.289 123.883 260.388 123.948 260.47 124.031L262.993 126.552C263.076 126.635 263.142 126.733 263.187 126.841C263.232 126.949 263.255 127.065 263.255 127.182C263.255 127.299 263.232 127.415 263.187 127.523C263.142 127.631 263.076 127.73 262.993 127.812L261.732 129.072C261.649 129.155 261.551 129.221 261.442 129.266C261.334 129.311 261.218 129.334 261.101 129.334C260.984 129.334 260.868 129.311 260.76 129.266C260.651 129.221 260.553 129.155 260.47 129.072ZM244.072 112.687L241.548 110.167C241.465 110.084 241.399 109.986 241.354 109.878C241.309 109.769 241.286 109.653 241.286 109.536C241.286 109.419 241.309 109.303 241.354 109.195C241.399 109.087 241.465 108.989 241.548 108.906L242.811 107.646C242.894 107.563 242.992 107.497 243.1 107.452C243.209 107.407 243.325 107.384 243.442 107.384C243.559 107.384 243.675 107.407 243.783 107.452C243.892 107.497 243.99 107.563 244.072 107.646L246.595 110.167C246.678 110.249 246.744 110.347 246.789 110.455C246.834 110.564 246.857 110.68 246.857 110.797C246.857 110.914 246.834 111.03 246.789 111.138C246.744 111.246 246.678 111.344 246.595 111.427L245.334 112.687C245.251 112.77 245.153 112.836 245.045 112.881C244.936 112.926 244.82 112.949 244.703 112.949C244.586 112.949 244.47 112.926 244.362 112.881C244.253 112.836 244.155 112.77 244.072 112.687Z" fill="#8E9FAE"/>
<path d="M252.271 111.229C248.352 111.229 245.136 114.443 245.136 118.359C245.136 122.276 248.352 125.489 252.271 125.489C256.191 125.489 259.407 122.276 259.407 118.359C259.407 114.443 256.191 111.229 252.271 111.229ZM252.271 114.794C254.264 114.794 255.839 116.37 255.839 118.359C255.839 120.349 254.264 121.924 252.271 121.924C250.281 121.924 248.704 120.349 248.704 118.359C248.704 116.37 250.281 114.794 252.271 114.794Z" fill="#8E9FAE"/>
<path d="M238.892 116.577H242.46C242.954 116.577 243.352 116.974 243.352 117.468V119.25C243.352 119.744 242.954 120.142 242.46 120.142H238.892C238.775 120.142 238.659 120.119 238.55 120.074C238.442 120.03 238.344 119.964 238.261 119.881C238.178 119.798 238.112 119.7 238.067 119.592C238.023 119.484 238 119.368 238 119.25V117.468C238 116.974 238.398 116.577 238.892 116.577ZM262.083 116.577H265.651C266.145 116.577 266.543 116.974 266.543 117.468V119.25C266.543 119.744 266.145 120.142 265.651 120.142H262.083C261.966 120.142 261.85 120.119 261.741 120.074C261.633 120.03 261.535 119.964 261.452 119.881C261.369 119.798 261.303 119.7 261.258 119.592C261.214 119.484 261.191 119.368 261.191 119.25V117.468C261.191 116.974 261.589 116.577 262.083 116.577ZM241.55 126.552L244.072 124.031C244.155 123.948 244.253 123.883 244.362 123.838C244.47 123.793 244.586 123.77 244.703 123.77C244.82 123.77 244.936 123.793 245.045 123.838C245.153 123.883 245.251 123.948 245.334 124.031L246.595 125.292C246.678 125.374 246.744 125.472 246.789 125.581C246.834 125.689 246.857 125.805 246.857 125.922C246.857 126.039 246.834 126.155 246.789 126.263C246.744 126.371 246.678 126.469 246.595 126.552L244.072 129.072C243.99 129.155 243.892 129.221 243.783 129.266C243.675 129.311 243.559 129.334 243.442 129.334C243.325 129.334 243.209 129.311 243.1 129.266C242.992 129.221 242.894 129.155 242.811 129.072L241.55 127.812C241.467 127.73 241.401 127.631 241.356 127.523C241.311 127.415 241.288 127.299 241.288 127.182C241.288 127.065 241.311 126.949 241.356 126.841C241.401 126.733 241.467 126.635 241.55 126.552ZM257.948 110.167L260.47 107.644C260.553 107.561 260.651 107.495 260.76 107.45C260.868 107.406 260.984 107.382 261.101 107.382C261.218 107.382 261.334 107.406 261.442 107.45C261.551 107.495 261.649 107.561 261.732 107.644L262.993 108.906C263.076 108.989 263.142 109.087 263.187 109.195C263.232 109.303 263.255 109.419 263.255 109.536C263.255 109.653 263.232 109.769 263.187 109.878C263.142 109.986 263.076 110.084 262.993 110.167L260.47 112.687C260.388 112.77 260.289 112.836 260.181 112.881C260.073 112.926 259.957 112.949 259.84 112.949C259.723 112.949 259.607 112.926 259.498 112.881C259.39 112.836 259.292 112.77 259.209 112.687L257.948 111.427C257.865 111.344 257.799 111.246 257.754 111.138C257.709 111.03 257.686 110.914 257.686 110.797C257.686 110.68 257.709 110.564 257.754 110.455C257.799 110.347 257.865 110.249 257.948 110.167ZM250.488 131.728V128.163C250.488 127.67 250.885 127.272 251.379 127.272H253.163C253.658 127.272 254.055 127.67 254.055 128.163V131.728C254.055 132.222 253.658 132.62 253.163 132.62H251.379C251.262 132.62 251.146 132.597 251.038 132.552C250.93 132.508 250.831 132.442 250.748 132.359C250.665 132.276 250.6 132.178 250.555 132.07C250.51 131.962 250.487 131.846 250.488 131.728ZM250.488 108.555V104.99C250.488 104.496 250.885 104.099 251.379 104.099H253.163C253.658 104.099 254.055 104.496 254.055 104.99V108.555C254.055 109.049 253.658 109.446 253.163 109.446H251.379C251.262 109.447 251.146 109.424 251.038 109.379C250.93 109.334 250.831 109.269 250.748 109.186C250.665 109.103 250.6 109.005 250.555 108.896C250.51 108.788 250.487 108.672 250.488 108.555ZM260.47 129.072L257.948 126.552C257.865 126.469 257.799 126.371 257.754 126.263C257.709 126.155 257.686 126.039 257.686 125.922C257.686 125.805 257.709 125.689 257.754 125.581C257.799 125.472 257.865 125.374 257.948 125.292L259.209 124.031C259.292 123.948 259.39 123.883 259.498 123.838C259.607 123.793 259.723 123.77 259.84 123.77C259.957 123.77 260.073 123.793 260.181 123.838C260.289 123.883 260.388 123.948 260.47 124.031L262.993 126.552C263.076 126.635 263.142 126.733 263.187 126.841C263.232 126.949 263.255 127.065 263.255 127.182C263.255 127.299 263.232 127.415 263.187 127.523C263.142 127.631 263.076 127.73 262.993 127.812L261.732 129.072C261.649 129.155 261.551 129.221 261.442 129.266C261.334 129.311 261.218 129.334 261.101 129.334C260.984 129.334 260.868 129.311 260.76 129.266C260.651 129.221 260.553 129.155 260.47 129.072ZM244.072 112.687L241.548 110.167C241.465 110.084 241.399 109.986 241.354 109.878C241.309 109.769 241.286 109.653 241.286 109.536C241.286 109.419 241.309 109.303 241.354 109.195C241.399 109.087 241.465 108.989 241.548 108.906L242.811 107.646C242.894 107.563 242.992 107.497 243.1 107.452C243.209 107.407 243.325 107.384 243.442 107.384C243.559 107.384 243.675 107.407 243.783 107.452C243.892 107.497 243.99 107.563 244.072 107.646L246.595 110.167C246.678 110.249 246.744 110.347 246.789 110.455C246.834 110.564 246.857 110.68 246.857 110.797C246.857 110.914 246.834 111.03 246.789 111.138C246.744 111.246 246.678 111.344 246.595 111.427L245.334 112.687C245.251 112.77 245.153 112.836 245.045 112.881C244.936 112.926 244.82 112.949 244.703 112.949C244.586 112.949 244.47 112.926 244.362 112.881C244.253 112.836 244.155 112.77 244.072 112.687Z" stroke="#485F74" stroke-width="0.5"/>
<path d="M252.271 111.229C248.352 111.229 245.136 114.443 245.136 118.359C245.136 122.276 248.352 125.489 252.271 125.489C256.191 125.489 259.407 122.276 259.407 118.359C259.407 114.443 256.191 111.229 252.271 111.229ZM252.271 114.794C254.264 114.794 255.839 116.37 255.839 118.359C255.839 120.349 254.264 121.924 252.271 121.924C250.281 121.924 248.704 120.349 248.704 118.359C248.704 116.37 250.281 114.794 252.271 114.794Z" stroke="#485F74" stroke-width="0.5"/>
<path d="M192.176 105.155C191.714 105.163 191.274 105.347 190.95 105.668C190.626 105.989 190.445 106.422 190.445 106.872V113.028L188.17 110.808C188.007 110.644 187.813 110.513 187.599 110.423C187.384 110.333 187.153 110.286 186.919 110.284C186.686 110.282 186.454 110.326 186.238 110.412C186.022 110.498 185.825 110.626 185.66 110.787C185.495 110.948 185.364 111.14 185.276 111.351C185.187 111.562 185.143 111.788 185.145 112.016C185.147 112.243 185.195 112.469 185.287 112.678C185.38 112.888 185.514 113.077 185.682 113.235L190.445 117.882V119.894L185.682 124.541C185.514 124.699 185.38 124.888 185.287 125.098C185.195 125.307 185.147 125.532 185.145 125.76C185.143 125.988 185.187 126.214 185.276 126.425C185.364 126.636 185.495 126.828 185.66 126.989C185.825 127.15 186.022 127.278 186.238 127.364C186.454 127.45 186.686 127.494 186.919 127.492C187.153 127.49 187.384 127.442 187.599 127.352C187.813 127.263 188.007 127.132 188.17 126.968L190.445 124.748V130.904C190.445 131.243 190.548 131.575 190.741 131.857C190.935 132.14 191.21 132.36 191.531 132.489C191.853 132.619 192.206 132.653 192.547 132.587C192.889 132.521 193.202 132.357 193.448 132.117L200.487 125.251C200.816 124.929 201.002 124.493 201.002 124.038C201.002 123.582 200.816 123.146 200.487 122.824L196.452 118.888L200.487 114.952C200.816 114.63 201.002 114.193 201.002 113.738C201.002 113.283 200.816 112.847 200.487 112.525L193.448 105.658C193.282 105.496 193.083 105.367 192.865 105.281C192.646 105.195 192.412 105.152 192.176 105.155ZM193.964 111.016L196.755 113.738L193.964 116.461V111.016ZM193.964 121.315L196.755 124.038L193.964 126.76V121.315Z" fill="#8E9FAE" stroke="#485F74"/>
<path d="M128.789 120.652C128.789 120.992 128.913 121.324 129.144 121.606C129.375 121.888 129.702 122.107 130.085 122.235C130.467 122.362 130.887 122.393 131.291 122.323C131.695 122.254 132.064 122.086 132.352 121.842C133.03 121.285 133.946 120.975 134.906 120.975C135.864 120.975 136.78 121.285 137.458 121.842C137.647 122.013 137.876 122.15 138.132 122.246C138.387 122.342 138.663 122.394 138.944 122.399C139.224 122.404 139.503 122.362 139.763 122.276C140.023 122.19 140.26 122.062 140.458 121.899C140.656 121.735 140.813 121.54 140.917 121.326C141.022 121.111 141.072 120.882 141.066 120.651C141.06 120.42 140.997 120.192 140.881 119.981C140.765 119.771 140.599 119.582 140.392 119.426C138.937 118.226 136.963 117.552 134.904 117.552C132.848 117.552 130.874 118.228 129.418 119.426C129.219 119.585 129.061 119.776 128.953 119.986C128.845 120.197 128.789 120.423 128.789 120.652Z" fill="#9CCFFF"/>
<path d="M124.866 116.676C124.866 117.033 124.983 117.382 125.203 117.679C125.423 117.975 125.735 118.205 126.1 118.339C126.465 118.474 126.866 118.506 127.252 118.433C127.637 118.359 127.99 118.183 128.265 117.927C129.136 117.137 130.171 116.509 131.311 116.081C132.45 115.653 133.671 115.433 134.904 115.433C136.137 115.433 137.358 115.653 138.497 116.081C139.636 116.509 140.671 117.137 141.543 117.927C141.914 118.264 142.418 118.453 142.943 118.453C143.468 118.453 143.972 118.264 144.343 117.927C144.714 117.591 144.923 117.134 144.923 116.658C144.923 116.182 144.714 115.726 144.343 115.389C141.839 113.119 138.444 111.844 134.904 111.844C131.364 111.844 127.968 113.119 125.465 115.389C125.275 115.556 125.124 115.756 125.022 115.977C124.919 116.198 124.866 116.436 124.866 116.676Z" fill="#9CCFFF"/>
<path d="M120.656 112.7C120.657 113.06 120.775 113.41 120.993 113.708C121.212 114.006 121.522 114.237 121.884 114.372C122.246 114.507 122.644 114.54 123.026 114.467C123.409 114.393 123.759 114.217 124.032 113.96C125.458 112.647 127.151 111.606 129.015 110.896C130.879 110.186 132.877 109.82 134.895 109.82C136.913 109.82 138.911 110.186 140.775 110.896C142.639 111.606 144.332 112.647 145.758 113.96C145.936 114.145 146.153 114.294 146.396 114.399C146.639 114.503 146.903 114.561 147.172 114.569C147.44 114.576 147.707 114.533 147.957 114.442C148.206 114.351 148.433 114.214 148.623 114.04C148.813 113.865 148.962 113.657 149.061 113.427C149.16 113.198 149.206 112.952 149.198 112.706C149.19 112.459 149.127 112.216 149.013 111.993C148.899 111.769 148.737 111.57 148.536 111.406C144.917 108.08 140.009 106.211 134.892 106.211C129.775 106.211 124.867 108.08 121.249 111.406C121.061 111.575 120.911 111.777 120.809 112C120.708 112.224 120.655 112.463 120.656 112.705V112.7Z" fill="#9CCFFF"/>
<path d="M138.694 126.759C138.694 127.753 138.295 128.706 137.584 129.409C136.873 130.112 135.909 130.507 134.904 130.507C133.899 130.507 132.935 130.112 132.224 129.409C131.513 128.706 131.114 127.753 131.114 126.759C131.114 125.765 131.513 124.811 132.224 124.108C132.935 123.405 133.899 123.011 134.904 123.011C135.909 123.011 136.873 123.405 137.584 124.108C138.295 124.811 138.694 125.765 138.694 126.759Z" fill="#9CCFFF"/>
<path d="M128.789 120.652C128.789 120.992 128.913 121.324 129.144 121.606C129.375 121.888 129.702 122.107 130.085 122.235C130.467 122.362 130.887 122.393 131.291 122.323C131.695 122.254 132.064 122.086 132.352 121.842C133.03 121.285 133.946 120.975 134.906 120.975C135.864 120.975 136.78 121.285 137.458 121.842C137.647 122.013 137.876 122.15 138.132 122.246C138.387 122.342 138.663 122.394 138.944 122.399C139.224 122.404 139.503 122.362 139.763 122.276C140.023 122.19 140.26 122.062 140.458 121.899C140.656 121.735 140.813 121.54 140.917 121.326C141.022 121.111 141.072 120.882 141.066 120.651C141.06 120.42 140.997 120.192 140.881 119.981C140.765 119.771 140.599 119.582 140.392 119.426C138.937 118.226 136.963 117.552 134.904 117.552C132.848 117.552 130.874 118.228 129.418 119.426C129.219 119.585 129.061 119.776 128.953 119.986C128.845 120.197 128.789 120.423 128.789 120.652Z" stroke="#007DF1" stroke-width="0.5"/>
<path d="M124.866 116.676C124.866 117.033 124.983 117.382 125.203 117.679C125.423 117.975 125.735 118.205 126.1 118.339C126.465 118.474 126.866 118.506 127.252 118.433C127.637 118.359 127.99 118.183 128.265 117.927C129.136 117.137 130.171 116.509 131.311 116.081C132.45 115.653 133.671 115.433 134.904 115.433C136.137 115.433 137.358 115.653 138.497 116.081C139.636 116.509 140.671 117.137 141.543 117.927C141.914 118.264 142.418 118.453 142.943 118.453C143.468 118.453 143.972 118.264 144.343 117.927C144.714 117.591 144.923 117.134 144.923 116.658C144.923 116.182 144.714 115.726 144.343 115.389C141.839 113.119 138.444 111.844 134.904 111.844C131.364 111.844 127.968 113.119 125.465 115.389C125.275 115.556 125.124 115.756 125.022 115.977C124.919 116.198 124.866 116.436 124.866 116.676Z" stroke="#007DF1" stroke-width="0.5"/>
<path d="M120.656 112.7C120.657 113.06 120.775 113.41 120.993 113.708C121.212 114.006 121.522 114.237 121.884 114.372C122.246 114.507 122.644 114.54 123.026 114.467C123.409 114.393 123.759 114.217 124.032 113.96C125.458 112.647 127.151 111.606 129.015 110.896C130.879 110.186 132.877 109.82 134.895 109.82C136.913 109.82 138.911 110.186 140.775 110.896C142.639 111.606 144.332 112.647 145.758 113.96C145.936 114.145 146.153 114.294 146.396 114.399C146.639 114.503 146.903 114.561 147.172 114.569C147.44 114.576 147.707 114.533 147.957 114.442C148.206 114.351 148.433 114.214 148.623 114.04C148.813 113.865 148.962 113.657 149.061 113.427C149.16 113.198 149.206 112.952 149.198 112.706C149.19 112.459 149.127 112.216 149.013 111.993C148.899 111.769 148.737 111.57 148.536 111.406C144.917 108.08 140.009 106.211 134.892 106.211C129.775 106.211 124.867 108.08 121.249 111.406C121.061 111.575 120.911 111.777 120.809 112C120.708 112.224 120.655 112.463 120.656 112.705V112.7Z" stroke="#007DF1" stroke-width="0.5"/>
<path d="M138.694 126.759C138.694 127.753 138.295 128.706 137.584 129.409C136.873 130.112 135.909 130.507 134.904 130.507C133.899 130.507 132.935 130.112 132.224 129.409C131.513 128.706 131.114 127.753 131.114 126.759C131.114 125.765 131.513 124.811 132.224 124.108C132.935 123.405 133.899 123.011 134.904 123.011C135.909 123.011 136.873 123.405 137.584 124.108C138.295 124.811 138.694 125.765 138.694 126.759Z" stroke="#007DF1" stroke-width="0.5"/>
<ellipse cx="112.729" cy="98.2888" rx="11.1" ry="11.0915" fill="#0063C0"/>
<path fill-rule="evenodd" clip-rule="evenodd" d="M116.692 93.72L111.039 99.4671C110.982 99.5257 110.913 99.5722 110.838 99.6039C110.763 99.6356 110.682 99.6519 110.601 99.6519C110.519 99.6519 110.439 99.6356 110.363 99.6039C110.288 99.5722 110.22 99.5257 110.162 99.4671L107.705 96.9685C107.647 96.9099 107.579 96.8634 107.503 96.8317C107.428 96.8 107.348 96.7837 107.266 96.7837C107.185 96.7837 107.104 96.8 107.029 96.8317C106.953 96.8634 106.885 96.9099 106.828 96.9685L106.037 97.7719C105.98 97.8305 105.934 97.9 105.903 97.9765C105.872 98.053 105.855 98.135 105.855 98.2178C105.855 98.3006 105.872 98.3826 105.903 98.4591C105.934 98.5356 105.98 98.6051 106.037 98.6636L110.162 102.857C110.22 102.916 110.288 102.962 110.363 102.994C110.439 103.026 110.519 103.042 110.601 103.042C110.682 103.042 110.763 103.026 110.838 102.994C110.913 102.962 110.982 102.916 111.039 102.857L118.359 95.4151C118.417 95.3566 118.463 95.2871 118.494 95.2106C118.525 95.1341 118.541 95.0521 118.541 94.9693C118.541 94.8865 118.525 94.8045 118.494 94.728C118.463 94.6515 118.417 94.582 118.359 94.5234L117.569 93.72C117.512 93.6614 117.443 93.6149 117.368 93.5832C117.293 93.5515 117.212 93.5352 117.131 93.5352C117.049 93.5352 116.968 93.5515 116.893 93.5832C116.818 93.6149 116.75 93.6614 116.692 93.72Z" fill="white"/>
<path d="M168.544 196C168.544 196 167.301 186.68 165.866 184.666C164.431 182.652 164.623 181.21 161.372 179.77C158.121 178.331 154.773 175.257 153.432 174.009C152.09 172.761 150.658 169.786 149.702 167.77C148.747 165.754 145.685 156.635 144.442 154.139C143.199 151.644 144.442 151.068 145.207 150.779C145.973 150.491 148.182 150.513 150.382 152.048C152.581 153.584 153.315 156.827 154.866 158.651C156.671 160.772 157.511 160.443 157.607 158.811C157.703 157.178 151.276 130.014 150.947 127.358C150.598 124.575 149.706 120.255 149.897 118.623C150.088 116.992 150.949 115.935 152.861 115.743C154.773 115.551 155.252 116.511 155.826 117.951C156.4 119.391 162.998 140.221 163.381 140.989C163.763 141.757 164.337 142.428 165.007 142.141C165.677 141.853 166.245 141.649 167.302 141.656C169.342 141.678 170.362 142.916 171.51 143.013C172.657 143.109 172.782 142.405 174.666 142.423C176.993 142.444 177.205 143.532 178.736 143.724C180.267 143.915 181.23 143.682 182.561 144.449C183.892 145.217 184.993 145.786 185.663 147.804C186.333 149.822 189.105 160.955 189.105 163.162C189.105 165.37 188.054 170.266 188.149 173.141C188.245 176.016 193.6 195.997 193.6 195.997L168.544 196Z" fill="#FCB9AF"/>
</svg>
