<svg width="100" height="100" viewBox="0 0 100 100" fill="none" xmlns="http://www.w3.org/2000/svg">
<path d="M29.0986 28.2787L34.8654 22.5119C35.634 21.7433 36.6764 21.3115 37.7634 21.3115H67.2133C69.4768 21.3115 71.3117 23.1464 71.3117 25.4099V74.5902C71.3117 76.8536 69.4768 78.6886 67.2133 78.6886H26.2297C23.9663 78.6886 22.1313 76.8536 22.1313 74.5902V36.9436C22.1313 35.8566 22.5632 34.8141 23.3318 34.0455L29.0986 28.2787Z" fill="url(#paint0_linear_803_23501)"/>
<mask id="mask0_803_23501" style="mask-type:alpha" maskUnits="userSpaceOnUse" x="22" y="21" width="50" height="58">
<path d="M29.0986 28.2787L36.0658 21.3115H71.3117V78.6886H22.1313V35.2459L29.0986 28.2787Z" fill="url(#paint1_linear_803_23501)"/>
</mask>
<g mask="url(#mask0_803_23501)">
<path d="M27.4593 26.6395L34.6666 19.4322C35.183 18.9158 36.0658 19.2815 36.0658 20.0118V33.6067C36.0658 34.5121 35.3319 35.246 34.4265 35.246H20.8316C20.1013 35.246 19.7356 34.3631 20.252 33.8468L27.4593 26.6395Z" fill="#94ACC8" fill-opacity="0.48"/>
</g>
<path d="M28.6885 49.5903C28.6885 48.9113 29.239 48.3608 29.918 48.3608H61.0655C61.7445 48.3608 62.295 48.9113 62.295 49.5903C62.295 50.2694 61.7445 50.8199 61.0655 50.8199H29.918C29.239 50.8199 28.6885 50.2694 28.6885 49.5903Z" fill="#BACBDF" fill-opacity="0.5"/>
<path d="M28.6885 55.3277C28.6885 54.6486 29.239 54.0981 29.918 54.0981H61.0655C61.7445 54.0981 62.295 54.6486 62.295 55.3277C62.295 56.0067 61.7445 56.5572 61.0655 56.5572H29.918C29.239 56.5572 28.6885 56.0067 28.6885 55.3277Z" fill="#BACBDF" fill-opacity="0.5"/>
<path d="M36.4754 42.623H29.918C29.2389 42.623 28.6885 43.1735 28.6885 43.8526C28.6885 44.5316 29.2389 45.0821 29.918 45.0821H36.4754C37.1544 45.0821 37.7049 44.5316 37.7049 43.8526C37.7049 43.1735 37.1544 42.623 36.4754 42.623Z" fill="#BACBDF" fill-opacity="0.5"/>
<path d="M73.553 27.4069C74.3453 26.3039 75.8817 26.052 76.9847 26.8444L80.3133 29.2356C81.4163 30.0279 81.6681 31.5643 80.8757 32.6673L61.2852 59.9382C61.0387 60.2812 60.7081 60.555 60.3251 60.7332L54.2982 63.5362C53.7354 63.7979 53.0972 63.3635 53.1344 62.7439L53.544 55.9109C53.5717 55.4471 53.7304 55.0007 54.0014 54.6233L73.553 27.4069Z" fill="url(#paint2_linear_803_23501)"/>
<path d="M50.8196 66.3936H30.3278C29.4224 66.3936 28.6885 67.1275 28.6885 68.0329V70.4919C28.6885 71.3973 29.4224 72.1313 30.3278 72.1313H50.8196C51.725 72.1313 52.459 71.3973 52.459 70.4919V68.0329C52.459 67.1275 51.725 66.3936 50.8196 66.3936Z" fill="#2C99FF"/>
<defs>
<linearGradient id="paint0_linear_803_23501" x1="50.41" y1="56.5202" x2="52.09" y2="129.265" gradientUnits="userSpaceOnUse">
<stop stop-color="#EFF7FF"/>
<stop offset="1" stop-color="#D5E2F1"/>
</linearGradient>
<linearGradient id="paint1_linear_803_23501" x1="50.41" y1="21.3115" x2="51.2563" y2="72.9505" gradientUnits="userSpaceOnUse">
<stop stop-color="#EFF7FF"/>
<stop offset="1" stop-color="#D5E2F1"/>
</linearGradient>
<linearGradient id="paint2_linear_803_23501" x1="77.8689" y1="25.4097" x2="52.459" y2="62.295" gradientUnits="userSpaceOnUse">
<stop stop-color="#44BCFF"/>
<stop offset="1" stop-color="#4BA5FF"/>
</linearGradient>
</defs>
</svg>
