<svg width="34" height="34" viewBox="0 0 34 34" fill="none" xmlns="http://www.w3.org/2000/svg">
<path d="M23.2302 14.07C22.9477 13.7915 22.5669 13.6354 22.1702 13.6354C21.7735 13.6354 21.3927 13.7915 21.1102 14.07L18.3302 16.82V6.5C18.3302 6.10218 18.1722 5.72065 17.8909 5.43934C17.6096 5.15804 17.228 5 16.8302 5C16.4324 5 16.0508 5.15804 15.7695 5.43934C15.4882 5.72065 15.3302 6.10218 15.3302 6.5V16.82L12.5802 14.07C12.2959 13.805 11.9198 13.6608 11.5312 13.6677C11.1426 13.6745 10.7718 13.8319 10.497 14.1068C10.2221 14.3816 10.0647 14.7524 10.0579 15.141C10.051 15.5296 10.1952 15.9057 10.4602 16.19L15.7702 21.5C15.9081 21.6403 16.0734 21.7508 16.2557 21.8248C16.438 21.8987 16.6335 21.9345 16.8302 21.93C17.0267 21.9334 17.2219 21.897 17.4041 21.8231C17.5862 21.7492 17.7516 21.6393 17.8902 21.5L23.2302 16.19C23.3705 16.0514 23.4819 15.8864 23.5579 15.7044C23.6339 15.5224 23.6731 15.3272 23.6731 15.13C23.6731 14.9328 23.6339 14.7376 23.5579 14.5556C23.4819 14.3736 23.3705 14.2086 23.2302 14.07Z" fill="#2C99FF"/>
<path d="M28.16 28.3599H5.5C4.57174 28.3599 3.6815 27.9911 3.02513 27.3348C2.36875 26.6784 2 25.7881 2 24.8599V20.6299H5V24.8599C5 24.9925 5.05268 25.1197 5.14645 25.2134C5.24021 25.3072 5.36739 25.3599 5.5 25.3599H28.16C28.2918 25.3573 28.4175 25.3038 28.5107 25.2106C28.6039 25.1174 28.6574 24.9917 28.66 24.8599V20.6299H31.66V24.8599C31.66 25.3195 31.5695 25.7746 31.3936 26.1993C31.2177 26.6239 30.9599 27.0098 30.6349 27.3348C30.3099 27.6598 29.924 27.9176 29.4994 28.0935C29.0748 28.2694 28.6196 28.3599 28.16 28.3599Z" fill="#2C99FF"/>
</svg>
