<svg width="28" height="28" viewBox="0 0 28 28" fill="none" xmlns="http://www.w3.org/2000/svg">
<path d="M24.809 4.8178C24.8857 4.94888 24.927 5.09767 24.9287 5.24954V22.2945C24.9333 22.4537 24.8943 22.6111 24.8161 22.7498C24.7378 22.8884 24.6231 23.0031 24.4845 23.0814C24.3459 23.1597 24.1885 23.1987 24.0293 23.1942C23.8701 23.1897 23.7152 23.1418 23.5813 23.0558C16.4336 18.9405 11.3242 17.9121 9.1875 17.6551V22.2158C9.1875 22.5894 9.03908 22.9477 8.77489 23.2119C8.51069 23.4761 8.15236 23.6245 7.77876 23.6245C7.4403 23.6262 7.11258 23.506 6.85551 23.2859C6.59844 23.0658 6.4292 22.7605 6.37876 22.4258L5.64993 17.5695H3.5C3.26793 17.5695 3.04538 17.4774 2.88129 17.3133C2.71718 17.1492 2.625 16.9266 2.625 16.6945V10.8495C2.625 10.6175 2.71718 10.3949 2.88129 10.2308C3.04538 10.0667 3.26793 9.97454 3.5 9.97454H8.07626C8.07626 9.97454 14 9.97454 23.625 4.49704C23.7574 4.42261 23.9069 4.38392 24.0588 4.38478C24.2106 4.38564 24.3597 4.42602 24.4912 4.50194C24.6228 4.57786 24.7323 4.68672 24.809 4.8178Z" fill="url(#paint0_linear_754_9570)"/>
<defs>
<linearGradient id="paint0_linear_754_9570" x1="13.7771" y1="4.38477" x2="13.7771" y2="23.6246" gradientUnits="userSpaceOnUse">
<stop stop-color="#F87255"/>
<stop offset="1" stop-color="#F85B39"/>
</linearGradient>
</defs>
</svg>
