<svg width="180" height="180" viewBox="0 0 180 180" fill="none" xmlns="http://www.w3.org/2000/svg">
<circle cx="90" cy="90" r="90" fill="#E7F3FF"/>
<path d="M133.999 106.234C134.369 107.045 133.574 107.898 132.739 107.586L105.02 97.2371C104.186 96.9255 104.144 95.7603 104.955 95.3905L123.989 86.7057C124.492 86.4764 125.085 86.6979 125.314 87.2004L133.999 106.234Z" fill="#007DF1"/>
<path d="M53.7688 98.4673C53.3282 98.6669 53.0924 99.1546 53.2209 99.6209C57.6032 115.534 72.1789 127.222 89.4845 127.222C106.81 127.222 121.399 115.507 125.763 99.5672H113.741C109.821 109.107 100.437 115.825 89.4845 115.825C76.9515 115.825 66.4728 107.029 63.8845 95.2737C63.7435 94.6329 63.0517 94.2637 62.4541 94.5343L53.7688 98.4673Z" fill="#007DF1"/>
<path d="M45.1031 73.2206C44.694 72.324 45.5731 71.3804 46.4964 71.7251L73.7349 81.895C74.6581 82.2397 74.7037 83.5286 73.8072 83.9377L55.103 92.472C54.5471 92.7256 53.891 92.4806 53.6374 91.9248L45.1031 73.2206Z" fill="#2C99FF"/>
<path d="M125.227 80.7544C125.667 80.5549 125.903 80.0672 125.775 79.6009C121.392 63.6881 106.816 52 89.5109 52C72.1859 52 57.5969 63.7144 53.2325 79.6545H65.2545C69.1741 70.1146 78.558 63.397 89.5109 63.397C102.044 63.397 112.523 72.1927 115.111 83.948C115.252 84.5887 115.944 84.958 116.541 84.6874L125.227 80.7544Z" fill="#2C99FF"/>
</svg>
