<svg width="24" height="24" viewBox="0 0 24 24" fill="none" xmlns="http://www.w3.org/2000/svg">
<path fill-rule="evenodd" clip-rule="evenodd" d="M12.2125 22.9457C17.2651 21.597 21 16.4736 21 11V5L12 1L3 5V11C3 16.4736 6.73495 21.597 11.7875 22.9457C11.8579 22.9649 11.9286 22.983 12 23C12.0714 22.983 12.1421 22.9649 12.2125 22.9457ZM12 20.9261C9.4701 20.1461 7.31556 18.1592 6.08943 15.6452C7.38459 14.3522 10.4836 13.5012 12 13.5012C13.5164 13.5012 16.6154 14.3522 17.9106 15.6452C16.6844 18.1592 14.5299 20.1461 12 20.9261ZM14.9159 9.36939C14.9159 10.9804 13.611 12.2853 12 12.2853C10.389 12.2853 9.08411 10.9804 9.08411 9.36939C9.08411 7.75837 10.389 6.45351 12 6.45351C13.611 6.45351 14.9159 7.75837 14.9159 9.36939Z" fill="#B0B0B0"/>
</svg>
