<svg width="344" height="223" viewBox="0 0 344 223" fill="none" xmlns="http://www.w3.org/2000/svg">
<path d="M261 156.732L261 64H83L83.0001 156.732C83.0001 159.642 85.3812 162 88.3184 162H255.682C258.619 162 261 159.642 261 156.732Z" fill="#E9F4FF"/>
<rect x="133" y="107" width="89" height="8" rx="4" fill="url(#paint0_linear_1023_37123)" fill-opacity="0.47"/>
<rect x="77" y="76" width="89" height="8" rx="4" fill="url(#paint1_linear_1023_37123)"/>
<rect x="11" y="126" width="89" height="8" rx="4" fill="url(#paint2_linear_1023_37123)"/>
<path d="M255.682 46H88.3184C85.3811 46 83 48.3459 83 51.2396V64H261V51.2396C261 48.3459 258.619 46 255.682 46Z" fill="#485F74"/>
<rect x="202" y="103" width="89" height="8" rx="4" fill="url(#paint3_linear_1023_37123)"/>
<rect x="144" y="170" width="89" height="8" rx="4" fill="url(#paint4_linear_1023_37123)"/>
<circle cx="232.5" cy="55.5" r="2.5" fill="#E9F4FF"/>
<circle cx="241.5" cy="55.5" r="2.5" fill="#E9F4FF"/>
<circle cx="250.5" cy="55.5" r="2.5" fill="#E9F4FF"/>
<rect x="114" y="92" width="116" height="42" rx="3" fill="#007DF1"/>
<path d="M139.052 118.275C138.923 118.207 138.812 118.11 138.728 117.992C138.644 117.874 138.588 117.738 138.566 117.595C138.54 117.272 138.631 116.951 138.824 116.689L140.738 113.744L141.138 114.31L137.595 114.452C137.265 114.485 136.933 114.408 136.652 114.234C136.455 114.068 136.332 113.83 136.312 113.574C136.291 113.318 136.374 113.064 136.542 112.868C136.576 112.83 136.613 112.793 136.652 112.76C136.933 112.586 137.265 112.509 137.595 112.542L141.138 112.712L140.767 113.28L138.852 110.305C138.648 110.048 138.546 109.725 138.566 109.399C138.595 109.257 138.656 109.125 138.745 109.011C138.835 108.898 138.95 108.807 139.081 108.745C139.197 108.654 139.339 108.6 139.486 108.59C139.634 108.58 139.782 108.614 139.91 108.688C140.201 108.848 140.432 109.096 140.569 109.396L142.084 112.313H141.712L143.2 109.396C143.329 109.084 143.562 108.824 143.86 108.66C143.997 108.595 144.149 108.568 144.3 108.583C144.452 108.598 144.596 108.654 144.717 108.745C144.846 108.813 144.957 108.91 145.041 109.028C145.126 109.146 145.181 109.282 145.203 109.425C145.225 109.747 145.134 110.067 144.946 110.331L143.031 113.278L142.629 112.709L146.203 112.54C146.524 112.504 146.848 112.581 147.117 112.757C147.231 112.844 147.321 112.956 147.381 113.085C147.441 113.213 147.468 113.354 147.46 113.496C147.47 113.641 147.444 113.787 147.385 113.92C147.325 114.053 147.233 114.17 147.117 114.26C146.842 114.422 146.521 114.491 146.203 114.459L142.629 114.317L143.031 113.751L144.946 116.696C145.119 116.965 145.196 117.284 145.165 117.602C145.151 117.74 145.101 117.872 145.021 117.987C144.942 118.101 144.834 118.193 144.708 118.255C144.583 118.337 144.439 118.387 144.29 118.402C144.141 118.416 143.99 118.395 143.851 118.34C143.558 118.184 143.326 117.934 143.191 117.632L141.703 114.687H142.075L140.536 117.632C140.418 117.935 140.195 118.186 139.907 118.34C139.769 118.395 139.62 118.417 139.472 118.406C139.324 118.394 139.18 118.35 139.052 118.275Z" fill="white"/>
<path d="M179.207 118.275C179.078 118.207 178.967 118.11 178.882 117.992C178.798 117.874 178.743 117.738 178.721 117.595C178.694 117.272 178.785 116.951 178.978 116.689L180.893 113.744L181.293 114.31L177.749 114.452C177.419 114.485 177.088 114.408 176.806 114.234C176.609 114.068 176.487 113.83 176.466 113.574C176.445 113.318 176.528 113.064 176.696 112.868C176.73 112.83 176.767 112.793 176.806 112.76C177.088 112.586 177.419 112.509 177.749 112.542L181.293 112.712L180.921 113.28L179.007 110.305C178.802 110.048 178.701 109.725 178.721 109.399C178.749 109.257 178.81 109.125 178.9 109.011C178.989 108.898 179.104 108.807 179.235 108.745C179.352 108.654 179.493 108.6 179.641 108.59C179.789 108.58 179.936 108.614 180.064 108.688C180.355 108.848 180.587 109.096 180.723 109.396L182.238 112.313H181.866L183.355 109.396C183.484 109.084 183.716 108.824 184.014 108.66C184.151 108.595 184.303 108.568 184.455 108.583C184.606 108.598 184.75 108.654 184.871 108.745C185 108.813 185.111 108.91 185.196 109.028C185.28 109.146 185.335 109.282 185.357 109.425C185.379 109.747 185.289 110.067 185.1 110.331L183.185 113.278L182.783 112.709L186.357 112.54C186.678 112.504 187.002 112.581 187.272 112.757C187.385 112.844 187.476 112.956 187.535 113.085C187.595 113.213 187.622 113.354 187.615 113.496C187.625 113.641 187.599 113.787 187.539 113.92C187.479 114.053 187.387 114.17 187.272 114.26C186.996 114.422 186.676 114.491 186.357 114.459L182.783 114.317L183.185 113.751L185.1 116.696C185.273 116.965 185.351 117.284 185.32 117.602C185.305 117.74 185.256 117.872 185.176 117.987C185.096 118.101 184.988 118.193 184.863 118.255C184.737 118.337 184.594 118.387 184.444 118.402C184.295 118.416 184.145 118.395 184.005 118.34C183.712 118.184 183.48 117.934 183.346 117.632L181.858 114.687H182.229L180.69 117.632C180.572 117.935 180.349 118.186 180.062 118.34C179.924 118.395 179.775 118.417 179.626 118.406C179.478 118.394 179.335 118.35 179.207 118.275Z" fill="white"/>
<path d="M159.128 118.275C159 118.207 158.888 118.11 158.804 117.992C158.72 117.874 158.664 117.738 158.643 117.595C158.616 117.272 158.707 116.951 158.9 116.689L160.814 113.744L161.215 114.31L157.671 114.452C157.341 114.485 157.009 114.408 156.728 114.234C156.531 114.068 156.408 113.83 156.388 113.574C156.367 113.318 156.45 113.064 156.618 112.868C156.652 112.83 156.689 112.793 156.728 112.76C157.009 112.586 157.341 112.509 157.671 112.542L161.215 112.712L160.843 113.28L158.928 110.305C158.724 110.048 158.622 109.725 158.643 109.399C158.671 109.257 158.732 109.125 158.822 109.011C158.911 108.898 159.026 108.807 159.157 108.745C159.274 108.654 159.415 108.6 159.563 108.59C159.71 108.58 159.858 108.614 159.986 108.688C160.277 108.848 160.508 109.096 160.645 109.396L162.16 112.313H161.788L163.276 109.396C163.406 109.084 163.638 108.824 163.936 108.66C164.073 108.595 164.225 108.568 164.377 108.583C164.528 108.598 164.672 108.654 164.793 108.745C164.922 108.813 165.033 108.91 165.118 109.028C165.202 109.146 165.257 109.282 165.279 109.425C165.301 109.747 165.21 110.067 165.022 110.331L163.107 113.278L162.705 112.709L166.279 112.54C166.6 112.504 166.924 112.581 167.194 112.757C167.307 112.844 167.398 112.956 167.457 113.085C167.517 113.213 167.544 113.354 167.537 113.496C167.547 113.641 167.521 113.787 167.461 113.92C167.401 114.053 167.309 114.17 167.194 114.26C166.918 114.422 166.598 114.491 166.279 114.459L162.705 114.317L163.107 113.751L165.022 116.696C165.195 116.965 165.273 117.284 165.242 117.602C165.227 117.74 165.178 117.872 165.098 117.987C165.018 118.101 164.91 118.193 164.784 118.255C164.659 118.337 164.515 118.387 164.366 118.402C164.217 118.416 164.066 118.395 163.927 118.34C163.634 118.184 163.402 117.934 163.268 117.632L161.779 114.687H162.151L160.612 117.632C160.494 117.935 160.271 118.186 159.984 118.34C159.845 118.395 159.697 118.417 159.548 118.406C159.4 118.394 159.257 118.35 159.128 118.275Z" fill="white"/>
<path d="M199.283 118.275C199.154 118.207 199.043 118.11 198.958 117.992C198.874 117.874 198.819 117.738 198.797 117.595C198.77 117.272 198.861 116.951 199.054 116.689L200.969 113.744L201.369 114.31L197.825 114.452C197.495 114.485 197.164 114.408 196.882 114.234C196.685 114.068 196.563 113.83 196.542 113.574C196.522 113.318 196.604 113.064 196.772 112.868C196.806 112.83 196.843 112.793 196.882 112.76C197.164 112.586 197.495 112.509 197.825 112.542L201.369 112.712L200.997 113.28L199.083 110.305C198.878 110.048 198.777 109.725 198.797 109.399C198.825 109.257 198.887 109.125 198.976 109.011C199.065 108.898 199.18 108.807 199.311 108.745C199.428 108.654 199.569 108.6 199.717 108.59C199.865 108.58 200.012 108.614 200.14 108.688C200.431 108.848 200.663 109.096 200.8 109.396L202.314 112.313H201.943L203.431 109.396C203.56 109.084 203.792 108.824 204.09 108.66C204.227 108.595 204.38 108.568 204.531 108.583C204.682 108.598 204.826 108.654 204.947 108.745C205.076 108.813 205.188 108.91 205.272 109.028C205.356 109.146 205.412 109.282 205.433 109.425C205.456 109.747 205.365 110.067 205.176 110.331L203.261 113.278L202.859 112.709L206.433 112.54C206.755 112.504 207.078 112.581 207.348 112.757C207.461 112.844 207.552 112.956 207.612 113.085C207.671 113.213 207.699 113.354 207.691 113.496C207.701 113.641 207.675 113.787 207.615 113.92C207.555 114.053 207.464 114.17 207.348 114.26C207.072 114.422 206.752 114.491 206.433 114.459L202.859 114.317L203.261 113.751L205.176 116.696C205.35 116.965 205.427 117.284 205.396 117.602C205.381 117.74 205.332 117.872 205.252 117.987C205.172 118.101 205.064 118.193 204.939 118.255C204.813 118.337 204.67 118.387 204.521 118.402C204.371 118.416 204.221 118.395 204.081 118.34C203.788 118.184 203.556 117.934 203.422 117.632L201.934 114.687H202.305L200.767 117.632C200.648 117.935 200.426 118.186 200.138 118.34C200 118.395 199.851 118.417 199.703 118.406C199.554 118.394 199.411 118.35 199.283 118.275Z" fill="white"/>
<defs>
<linearGradient id="paint0_linear_1023_37123" x1="222" y1="111" x2="127.66" y2="111" gradientUnits="userSpaceOnUse">
<stop stop-color="#CCD9E9"/>
<stop offset="1" stop-color="#CCD9E9" stop-opacity="0"/>
</linearGradient>
<linearGradient id="paint1_linear_1023_37123" x1="166" y1="80" x2="71.66" y2="80" gradientUnits="userSpaceOnUse">
<stop stop-color="#CCD9E9"/>
<stop offset="1" stop-color="#CCD9E9" stop-opacity="0"/>
</linearGradient>
<linearGradient id="paint2_linear_1023_37123" x1="100" y1="130" x2="5.66" y2="130" gradientUnits="userSpaceOnUse">
<stop stop-color="#CCD9E9"/>
<stop offset="1" stop-color="#CCD9E9" stop-opacity="0"/>
</linearGradient>
<linearGradient id="paint3_linear_1023_37123" x1="291" y1="107" x2="196.66" y2="107" gradientUnits="userSpaceOnUse">
<stop stop-color="#CCD9E9"/>
<stop offset="1" stop-color="#CCD9E9" stop-opacity="0"/>
</linearGradient>
<linearGradient id="paint4_linear_1023_37123" x1="233" y1="174" x2="138.66" y2="174" gradientUnits="userSpaceOnUse">
<stop stop-color="#CCD9E9"/>
<stop offset="1" stop-color="#CCD9E9" stop-opacity="0"/>
</linearGradient>
</defs>
</svg>
