<svg width="140" height="140" viewBox="0 0 140 140" fill="none" xmlns="http://www.w3.org/2000/svg">
<path d="M87.0042 95.0312C82.312 92.9458 76.537 91.4219 70 91.4219C63.463 91.4219 57.688 92.9859 52.9958 95.0312C48.6646 96.9562 45.9375 101.287 45.9375 106.02V112.477L55.4504 114.411C65.0519 116.364 74.9481 116.364 84.5496 114.411L94.0625 112.477V106.02C94.0625 101.287 91.3354 96.9562 87.0042 95.0312ZM70 64.3516C63.3427 64.3516 57.9688 69.7255 57.9688 76.3828C57.9688 83.0401 63.3427 88.4141 70 88.4141C76.6573 88.4141 82.0312 83.0401 82.0312 76.3828C82.0312 69.7255 76.6573 64.3516 70 64.3516Z" fill="url(#paint0_linear_246_640)"/>
<path d="M45.9375 84.4036C45.9375 88.8151 42.3281 92.4245 37.9167 92.4245C33.5052 92.4245 29.8958 88.8151 29.8958 84.4036C29.8958 79.9922 33.5052 76.3828 37.9167 76.3828C42.3281 76.3828 45.9375 79.9922 45.9375 84.4036Z" fill="url(#paint1_linear_246_640)"/>
<path d="M37.9167 96.4349C39.4807 96.4349 40.9646 96.5953 42.4484 96.8359C40.8443 99.563 39.9219 102.691 39.9219 106.02V112.477H26.875C24.1136 112.477 21.875 110.238 21.875 107.477V106.18C21.875 102.932 23.8 100.044 26.7677 98.7609C30.1766 97.2771 33.9464 96.4349 37.9167 96.4349Z" fill="url(#paint2_linear_246_640)"/>
<path d="M110.104 84.4036C110.104 88.8151 106.495 92.4245 102.083 92.4245C97.6719 92.4245 94.0625 88.8151 94.0625 84.4036C94.0625 79.9922 97.6719 76.3828 102.083 76.3828C106.495 76.3828 110.104 79.9922 110.104 84.4036Z" fill="url(#paint3_linear_246_640)"/>
<path d="M113.232 98.7609C116.2 100.044 118.125 102.932 118.125 106.18V107.477C118.125 110.238 115.886 112.477 113.125 112.477H100.078V106.02C100.078 102.691 99.1557 99.563 97.5516 96.8359C99.0354 96.5953 100.519 96.4349 102.083 96.4349C106.054 96.4349 109.823 97.2771 113.232 98.7609Z" fill="url(#paint4_linear_246_640)"/>
<path d="M42.3496 42.4164L50.2134 47.2203L48.1265 38.1663L55.0742 32.0745L45.9252 31.2889L42.3496 22.75L38.774 31.2889L29.625 32.0745L36.5726 38.1663L34.4858 47.2203L42.3496 42.4164Z" fill="#A9E1F2"/>
<path d="M72.3751 42.4164L80.3947 47.2203L78.2666 38.1663L85.3518 32.0745L76.0216 31.2889L72.3751 22.75L68.7287 31.2889L59.3984 32.0745L66.4837 38.1663L64.3555 47.2203L72.3751 42.4164Z" fill="#53C4E6"/>
<path d="M102.301 42.4164L110.165 47.2203L108.078 38.1663L115.025 32.0745L105.876 31.2889L102.301 22.75L98.7251 31.2889L89.5762 32.0745L96.5238 38.1663L94.437 47.2203L102.301 42.4164Z" fill="#0AB4E2"/>
<defs>
<linearGradient id="paint0_linear_246_640" x1="45.5297" y1="59.8653" x2="93.6547" y2="112.477" gradientUnits="userSpaceOnUse">
<stop stop-color="#7E8E9C"/>
<stop offset="1" stop-color="#546878"/>
</linearGradient>
<linearGradient id="paint1_linear_246_640" x1="118.125" y1="112.477" x2="21.875" y2="76.5867" gradientUnits="userSpaceOnUse">
<stop stop-color="#B8C8DA"/>
<stop offset="1" stop-color="#D5E2F1"/>
</linearGradient>
<linearGradient id="paint2_linear_246_640" x1="118.125" y1="112.477" x2="21.875" y2="76.5867" gradientUnits="userSpaceOnUse">
<stop stop-color="#B8C8DA"/>
<stop offset="1" stop-color="#D5E2F1"/>
</linearGradient>
<linearGradient id="paint3_linear_246_640" x1="118.125" y1="112.477" x2="21.875" y2="76.5867" gradientUnits="userSpaceOnUse">
<stop stop-color="#B8C8DA"/>
<stop offset="1" stop-color="#D5E2F1"/>
</linearGradient>
<linearGradient id="paint4_linear_246_640" x1="118.125" y1="112.477" x2="21.875" y2="76.5867" gradientUnits="userSpaceOnUse">
<stop stop-color="#B8C8DA"/>
<stop offset="1" stop-color="#D5E2F1"/>
</linearGradient>
</defs>
</svg>
