<svg width="364" height="218" viewBox="0 0 364 218" fill="none" xmlns="http://www.w3.org/2000/svg">
<path fill-rule="evenodd" clip-rule="evenodd" d="M233.688 60.5462L186.845 41.8299C184.062 40.7234 180.961 40.7234 178.177 41.8299L131.313 60.5462C126.888 62.3154 123.99 66.5972 124 71.3526V127.351C124 167.691 182.5 191 182.5 191C182.5 191 241 167.691 241 127.351V71.3312C241 66.5834 238.105 62.3133 233.688 60.5462Z" fill="#007DF1"/>
<path fill-rule="evenodd" clip-rule="evenodd" d="M178.629 41.864L131.375 60.5761C126.912 62.3456 123.99 66.6257 124 71.3807V127.366C124 167.697 183 191 183 191V41C181.499 41.0062 180.016 41.2995 178.629 41.864Z" fill="#2C99FF"/>
<path d="M208.887 101.005C210.607 101.005 212 102.388 212 104.094V144.911C212 146.617 210.607 148 208.888 148H156.112C154.393 148 153 146.617 153 144.911V104.094C153 102.388 154.393 101.005 156.112 101.005H208.887Z" fill="white"/>
<path d="M182.5 72C172.283 72 164 80.2827 164 90.5V112H172V90.5C172 84.701 176.701 80 182.5 80C188.299 80 193 84.701 193 90.5V112H201V90.5C201 80.2827 192.717 72 182.5 72Z" fill="white"/>
<path d="M163.393 134H167.641L173.065 116.216H169.465L167.161 124.88C166.609 126.848 166.225 128.624 165.649 130.616H165.529C164.977 128.624 164.593 126.848 164.041 124.88L161.689 116.216H157.969L163.393 134ZM175.109 134H178.661V127.688H181.037C184.853 127.688 187.901 125.864 187.901 121.808C187.901 117.608 184.877 116.216 180.941 116.216H175.109V134ZM178.661 124.88V119.048H180.677C183.125 119.048 184.421 119.744 184.421 121.808C184.421 123.848 183.245 124.88 180.797 124.88H178.661ZM191.117 134H194.477V126.872C194.477 124.832 194.213 122.6 194.045 120.68H194.165L195.965 124.496L201.101 134H204.701V116.216H201.341V123.32C201.341 125.336 201.629 127.688 201.797 129.536H201.677L199.901 125.696L194.741 116.216H191.117V134Z" fill="#007DF1"/>
</svg>
