<svg width="140" height="140" viewBox="0 0 140 140" fill="none" xmlns="http://www.w3.org/2000/svg">
<path fill-rule="evenodd" clip-rule="evenodd" d="M69.4884 15.5024C69.6587 15.5008 69.8293 15.5 70 15.5C70.1707 15.5 70.3412 15.5008 70.5115 15.5024C70.6876 15.504 70.8581 15.5283 71.0204 15.5725C71.1842 15.5343 71.3555 15.5163 71.5315 15.5211C71.8708 15.5305 72.2093 15.543 72.547 15.5585C72.7229 15.5666 72.8925 15.5972 73.053 15.6474C73.2182 15.6152 73.3901 15.6035 73.5658 15.6149C73.9055 15.6368 74.2444 15.6619 74.5824 15.69C74.7572 15.7046 74.9248 15.7412 75.0827 15.7969C75.2482 15.7711 75.4197 15.766 75.5941 15.7838C75.9336 15.8184 76.2722 15.8561 76.6098 15.897C76.7844 15.9181 76.9509 15.9611 77.1071 16.0229C77.2738 16.0032 77.4458 16.0044 77.6199 16.0287C77.9566 16.0758 78.2923 16.126 78.627 16.1793C78.801 16.207 78.9662 16.2563 79.1202 16.3241C79.288 16.3106 79.4602 16.3182 79.6337 16.3491C79.9682 16.4088 80.3017 16.4715 80.6341 16.5373C80.8068 16.5715 80.9698 16.6269 81.1211 16.7004C81.2891 16.6932 81.4608 16.7073 81.6328 16.7447C81.9655 16.817 82.297 16.8924 82.6274 16.9708C82.7982 17.0113 82.9587 17.0726 83.1067 17.1514C83.2745 17.1507 83.445 17.1712 83.615 17.2149C83.9452 17.2998 84.2741 17.3878 84.6019 17.4787C84.7713 17.5257 84.9296 17.5932 85.0748 17.6777C85.2428 17.6833 85.4127 17.7102 85.5813 17.7604C85.9072 17.8575 86.2318 17.9575 86.555 18.0604C86.7229 18.1139 86.8787 18.1874 87.0208 18.2775C87.1886 18.2893 87.3577 18.3227 87.5244 18.3793C87.8462 18.4885 88.1667 18.6006 88.4857 18.7156C88.6514 18.7753 88.8043 18.8547 88.9428 18.95C89.11 18.9682 89.2776 19.0078 89.4421 19.0706C89.7599 19.192 90.0763 19.3163 90.3912 19.4434C90.5541 19.5092 90.7037 19.5941 90.8384 19.6943C91.0045 19.7188 91.1702 19.7647 91.3319 19.8335C91.6452 19.9669 91.9569 20.1031 92.2671 20.2421C92.4275 20.314 92.5739 20.4045 92.7047 20.5099C92.8699 20.5405 93.0339 20.5926 93.193 20.6676C93.5006 20.8124 93.8066 20.9601 94.1111 21.1105C94.2689 21.1885 94.4118 21.2845 94.5387 21.3948C94.7027 21.4316 94.8647 21.4899 95.021 21.5708C95.3227 21.7269 95.6227 21.8858 95.9211 22.0474C96.0759 22.1313 96.2152 22.2326 96.3378 22.3476C96.5004 22.3906 96.6602 22.4549 96.8134 22.5417C97.1092 22.7091 97.4032 22.8793 97.6955 23.052C97.8469 23.1415 97.9822 23.2479 98.1004 23.3673C98.261 23.4163 98.4181 23.4865 98.5678 23.5788C98.8572 23.7572 99.1448 23.9383 99.4306 24.122C99.5785 24.2171 99.7097 24.3284 99.8233 24.4521C99.982 24.507 100.136 24.583 100.282 24.6809C100.565 24.87 100.846 25.0617 101.124 25.2559C101.269 25.3564 101.395 25.4726 101.504 25.6005C101.661 25.6614 101.812 25.7431 101.955 25.8463C102.23 26.0457 102.503 26.2476 102.774 26.452C102.915 26.5579 103.037 26.6787 103.141 26.8106C103.296 26.8773 103.444 26.9646 103.582 27.0731C103.85 27.2826 104.115 27.4945 104.379 27.7089C104.515 27.8199 104.633 27.9452 104.732 28.0808C104.884 28.1531 105.029 28.2459 105.163 28.3595C105.422 28.5788 105.68 28.8005 105.935 29.0245C106.067 29.1405 106.181 29.2701 106.275 29.4093C106.423 29.4872 106.565 29.5853 106.695 29.7037C106.946 29.9325 107.195 30.1636 107.442 30.3971C107.569 30.5179 107.678 30.6516 107.766 30.7942C107.912 30.8776 108.05 30.9809 108.175 31.1041C108.418 31.342 108.658 31.5822 108.896 31.8246C109.019 31.9501 109.122 32.0877 109.206 32.2336C109.348 32.3223 109.482 32.4306 109.603 32.5584C109.836 32.8052 110.067 33.0542 110.296 33.3053C110.415 33.4353 110.513 33.5766 110.591 33.7254C110.73 33.8194 110.859 33.9326 110.975 34.0648C111.199 34.3201 111.421 34.5775 111.641 34.8369C111.754 34.9713 111.847 35.1162 111.919 35.2678C112.055 35.367 112.18 35.4849 112.291 35.6213C112.505 35.8847 112.717 36.1501 112.927 36.4175C113.035 36.556 113.123 36.7044 113.189 36.8586C113.321 36.9627 113.442 37.0853 113.548 37.2258C113.752 37.4969 113.954 37.77 114.154 38.0451C114.257 38.1875 114.339 38.3389 114.399 38.4955C114.527 38.6045 114.644 38.7315 114.744 38.8758C114.938 39.1545 115.13 39.4351 115.319 39.7175C115.417 39.8636 115.493 40.0179 115.548 40.1766C115.672 40.2903 115.783 40.4214 115.878 40.5693C116.062 40.8551 116.243 41.1427 116.421 41.4321C116.514 41.5818 116.584 41.7389 116.633 41.8996C116.752 42.0178 116.858 42.153 116.948 42.3044C117.121 42.5967 117.291 42.8908 117.458 43.1866C117.545 43.3398 117.609 43.4995 117.652 43.6621C117.767 43.7848 117.869 43.9241 117.953 44.0789C118.114 44.3772 118.273 44.6773 118.429 44.9789C118.51 45.1352 118.568 45.2972 118.605 45.4613C118.716 45.5881 118.812 45.7311 118.889 45.8889C119.04 46.1933 119.188 46.4994 119.332 46.807C119.407 46.9661 119.459 47.13 119.49 47.2952C119.595 47.426 119.686 47.5724 119.758 47.7329C119.897 48.0431 120.033 48.3548 120.166 48.668C120.235 48.8297 120.281 48.9954 120.306 49.1616C120.406 49.2962 120.491 49.4458 120.557 49.6088C120.684 49.9237 120.808 50.24 120.929 50.5578C120.992 50.7223 121.032 50.8899 121.05 51.0571C121.145 51.1956 121.225 51.3486 121.284 51.5142C121.399 51.8333 121.512 52.1537 121.621 52.4755C121.677 52.6423 121.711 52.8113 121.722 52.9792C121.813 53.1212 121.886 53.2771 121.94 53.4449C122.043 53.7682 122.143 54.0928 122.24 54.4186C122.29 54.5872 122.317 54.7572 122.322 54.9251C122.407 55.0703 122.474 55.2286 122.521 55.3981C122.612 55.7258 122.7 56.0547 122.785 56.3849C122.829 56.5549 122.849 56.7255 122.849 56.8932C122.927 57.0412 122.989 57.2017 123.029 57.3725C123.108 57.7029 123.183 58.0344 123.255 58.3671C123.293 58.5391 123.307 58.7108 123.3 58.8788C123.373 59.0301 123.429 59.1932 123.463 59.3659C123.528 59.6983 123.591 60.0317 123.651 60.3663C123.682 60.5397 123.689 60.712 123.676 60.8797C123.744 61.0338 123.793 61.1989 123.821 61.373C123.874 61.7076 123.924 62.0433 123.971 62.38C123.996 62.5541 123.997 62.7261 123.977 62.8929C124.039 63.049 124.082 63.2155 124.103 63.3901C124.144 63.7277 124.182 64.0663 124.216 64.4058C124.234 64.5802 124.229 64.7517 124.203 64.9172C124.259 65.0751 124.295 65.2427 124.31 65.4175C124.338 65.7555 124.363 66.0944 124.385 66.4341C124.396 66.6098 124.385 66.7817 124.353 66.9469C124.403 67.1074 124.433 67.277 124.441 67.4529C124.457 67.7906 124.47 68.1291 124.479 68.4684C124.484 68.6444 124.466 68.8157 124.427 68.9795C124.472 69.1418 124.496 69.3123 124.498 69.4884C124.499 69.6587 124.5 69.8293 124.5 70C124.5 70.1707 124.499 70.3412 124.498 70.5115C124.496 70.6876 124.472 70.8581 124.427 71.0204C124.466 71.1842 124.484 71.3555 124.479 71.5315C124.47 71.8708 124.457 72.2093 124.441 72.547C124.433 72.7229 124.403 72.8925 124.353 73.053C124.385 73.2182 124.396 73.3901 124.385 73.5658C124.363 73.9056 124.338 74.2444 124.31 74.5825C124.295 74.7572 124.259 74.9248 124.203 75.0827C124.229 75.2482 124.234 75.4197 124.216 75.5941C124.182 75.9336 124.144 76.2722 124.103 76.6098C124.082 76.7844 124.039 76.9509 123.977 77.1071C123.997 77.2738 123.996 77.4458 123.971 77.6199C123.924 77.9566 123.874 78.2923 123.821 78.627C123.793 78.801 123.744 78.9662 123.676 79.1202C123.689 79.288 123.682 79.4602 123.651 79.6337C123.591 79.9682 123.528 80.3017 123.463 80.6341C123.429 80.8068 123.373 80.9698 123.3 81.1211C123.307 81.2891 123.293 81.4608 123.255 81.6328C123.183 81.9655 123.108 82.297 123.029 82.6274C122.989 82.7982 122.927 82.9587 122.849 83.1067C122.849 83.2744 122.829 83.445 122.785 83.615C122.7 83.9452 122.612 84.2742 122.521 84.6019C122.474 84.7714 122.407 84.9296 122.322 85.0748C122.317 85.2428 122.29 85.4127 122.24 85.5813C122.143 85.9072 122.043 86.2318 121.94 86.5551C121.886 86.7229 121.813 86.8787 121.722 87.0208C121.711 87.1886 121.677 87.3577 121.621 87.5245C121.512 87.8462 121.399 88.1667 121.284 88.4857C121.225 88.6514 121.145 88.8043 121.05 88.9428C121.032 89.11 120.992 89.2776 120.929 89.4421C120.808 89.7599 120.684 90.0763 120.557 90.3912C120.491 90.5542 120.406 90.7037 120.306 90.8384C120.281 91.0045 120.235 91.1702 120.166 91.3319C120.033 91.6452 119.897 91.9569 119.758 92.2671C119.686 92.4276 119.595 92.5739 119.49 92.7047C119.459 92.8699 119.407 93.0339 119.332 93.193C119.188 93.5006 119.04 93.8066 118.889 94.1111C118.812 94.2689 118.716 94.4118 118.605 94.5387C118.568 94.7027 118.51 94.8647 118.429 95.021C118.273 95.3227 118.114 95.6227 117.953 95.9211C117.869 96.0759 117.767 96.2152 117.652 96.3378C117.609 96.5004 117.545 96.6602 117.458 96.8134C117.291 97.1092 117.121 97.4032 116.948 97.6955C116.858 97.8469 116.752 97.9822 116.633 98.1004C116.584 98.261 116.514 98.4181 116.421 98.5678C116.243 98.8572 116.062 99.1449 115.878 99.4306C115.783 99.5785 115.672 99.7097 115.548 99.8233C115.493 99.982 115.417 100.136 115.319 100.282C115.13 100.565 114.938 100.846 114.744 101.124C114.644 101.269 114.527 101.395 114.4 101.504C114.339 101.661 114.257 101.812 114.154 101.955C113.954 102.23 113.752 102.503 113.548 102.774C113.442 102.915 113.321 103.037 113.189 103.141C113.123 103.296 113.035 103.444 112.927 103.582C112.717 103.85 112.505 104.115 112.291 104.379C112.18 104.515 112.055 104.633 111.919 104.732C111.847 104.884 111.754 105.029 111.641 105.163C111.421 105.423 111.2 105.68 110.975 105.935C110.859 106.067 110.73 106.181 110.591 106.275C110.513 106.423 110.415 106.565 110.296 106.695C110.067 106.946 109.836 107.195 109.603 107.442C109.482 107.569 109.348 107.678 109.206 107.766C109.122 107.912 109.019 108.05 108.896 108.175C108.658 108.418 108.418 108.658 108.175 108.896C108.05 109.019 107.912 109.122 107.766 109.206C107.678 109.348 107.569 109.482 107.442 109.603C107.195 109.836 106.946 110.067 106.695 110.296C106.565 110.415 106.423 110.513 106.275 110.591C106.181 110.73 106.067 110.859 105.935 110.975C105.68 111.2 105.423 111.421 105.163 111.641C105.029 111.754 104.884 111.847 104.732 111.919C104.633 112.055 104.515 112.18 104.379 112.291C104.115 112.505 103.85 112.717 103.582 112.927C103.444 113.035 103.296 113.123 103.141 113.189C103.037 113.321 102.915 113.442 102.774 113.548C102.503 113.752 102.23 113.954 101.955 114.154C101.812 114.257 101.661 114.339 101.504 114.399C101.396 114.527 101.269 114.644 101.124 114.744C100.846 114.938 100.565 115.13 100.282 115.319C100.136 115.417 99.982 115.493 99.8233 115.548C99.7097 115.672 99.5786 115.783 99.4306 115.878C99.1449 116.062 98.8573 116.243 98.5678 116.421C98.4182 116.514 98.2611 116.584 98.1004 116.633C97.9822 116.752 97.8469 116.858 97.6956 116.948C97.4033 117.121 97.1092 117.291 96.8134 117.458C96.6602 117.545 96.5004 117.609 96.3379 117.652C96.2152 117.767 96.0759 117.869 95.9211 117.953C95.6228 118.114 95.3227 118.273 95.0211 118.429C94.8648 118.51 94.7027 118.568 94.5387 118.605C94.4118 118.716 94.2689 118.812 94.1111 118.889C93.8067 119.04 93.5006 119.188 93.193 119.332C93.0339 119.407 92.8699 119.459 92.7048 119.49C92.5739 119.595 92.4276 119.686 92.2671 119.758C91.9569 119.897 91.6452 120.033 91.332 120.166C91.1703 120.235 91.0045 120.281 90.8384 120.306C90.7038 120.406 90.5542 120.491 90.3912 120.557C90.0763 120.684 89.76 120.808 89.4422 120.929C89.2777 120.992 89.1101 121.032 88.9429 121.05C88.8043 121.145 88.6514 121.225 88.4858 121.284C88.1667 121.399 87.8463 121.512 87.5245 121.621C87.3577 121.677 87.1886 121.711 87.0208 121.722C86.8788 121.813 86.7229 121.886 86.5551 121.94C86.2318 122.043 85.9072 122.143 85.5813 122.24C85.4128 122.29 85.2428 122.317 85.0749 122.322C84.9297 122.407 84.7714 122.474 84.6019 122.521C84.2742 122.612 83.9453 122.7 83.6151 122.785C83.4451 122.829 83.2745 122.849 83.1068 122.849C82.9587 122.927 82.7983 122.989 82.6275 123.029C82.2971 123.108 81.9656 123.183 81.6329 123.255C81.4609 123.293 81.2892 123.307 81.1212 123.3C80.9699 123.373 80.8068 123.429 80.6341 123.463C80.3017 123.528 79.9683 123.591 79.6337 123.651C79.4603 123.682 79.288 123.689 79.1203 123.676C78.9662 123.744 78.8011 123.793 78.627 123.821C78.2923 123.874 77.9567 123.924 77.62 123.971C77.4459 123.996 77.2739 123.997 77.1071 123.977C76.951 124.039 76.7844 124.082 76.6099 124.103C76.2723 124.144 75.9337 124.182 75.5942 124.216C75.4198 124.234 75.2483 124.229 75.0828 124.203C74.9248 124.259 74.7572 124.295 74.5825 124.31C74.2445 124.338 73.9056 124.363 73.5659 124.385C73.3902 124.396 73.2182 124.385 73.0531 124.353C72.8926 124.403 72.723 124.433 72.5471 124.441C72.2094 124.457 71.8709 124.47 71.5316 124.479C71.3556 124.484 71.1843 124.466 71.0205 124.427C70.8582 124.472 70.6877 124.496 70.5116 124.498C70.3413 124.499 70.1707 124.5 70 124.5C69.8293 124.5 69.6587 124.499 69.4883 124.498C69.3123 124.496 69.1417 124.472 68.9795 124.427C68.8157 124.466 68.6444 124.484 68.4684 124.479C68.1291 124.47 67.7906 124.457 67.4529 124.441C67.277 124.433 67.1074 124.403 66.9468 124.353C66.7817 124.385 66.6098 124.396 66.434 124.385C66.0943 124.363 65.7554 124.338 65.4174 124.31C65.2427 124.295 65.0751 124.259 64.9171 124.203C64.7516 124.229 64.5802 124.234 64.4057 124.216C64.0663 124.182 63.7277 124.144 63.39 124.103C63.2155 124.082 63.049 124.039 62.8928 123.977C62.7261 123.997 62.5541 123.996 62.3799 123.971C62.0433 123.924 61.7076 123.874 61.3729 123.821C61.1989 123.793 61.0337 123.744 60.8797 123.676C60.7119 123.689 60.5397 123.682 60.3662 123.651C60.0317 123.591 59.6982 123.528 59.3658 123.463C59.1931 123.429 59.03 123.373 58.8788 123.3C58.7108 123.307 58.5391 123.293 58.3671 123.255C58.0344 123.183 57.7028 123.108 57.3725 123.029C57.2016 122.989 57.0412 122.927 56.8931 122.849C56.7254 122.849 56.5549 122.829 56.3848 122.785C56.0547 122.7 55.7257 122.612 55.398 122.521C55.2285 122.474 55.0702 122.407 54.925 122.322C54.7571 122.317 54.5872 122.29 54.4186 122.24C54.0927 122.143 53.7681 122.042 53.4448 121.94C53.277 121.886 53.1212 121.813 52.9791 121.722C52.8113 121.711 52.6422 121.677 52.4754 121.621C52.1536 121.511 51.8332 121.399 51.5141 121.284C51.3485 121.225 51.1956 121.145 51.0571 121.05C50.8899 121.032 50.7222 120.992 50.5578 120.929C50.24 120.808 49.9236 120.684 49.6087 120.557C49.4457 120.491 49.2962 120.406 49.1615 120.306C48.9954 120.281 48.8297 120.235 48.668 120.166C48.3547 120.033 48.043 119.897 47.7328 119.758C47.5724 119.686 47.426 119.595 47.2952 119.49C47.13 119.459 46.966 119.407 46.8069 119.332C46.4993 119.188 46.1933 119.04 45.8888 118.889C45.731 118.811 45.5881 118.715 45.4612 118.605C45.2972 118.568 45.1352 118.51 44.9789 118.429C44.6772 118.273 44.3772 118.114 44.0788 117.953C43.924 117.869 43.7848 117.767 43.6621 117.652C43.4995 117.609 43.3397 117.545 43.1865 117.458C42.8907 117.291 42.5967 117.121 42.3044 116.948C42.153 116.858 42.0177 116.752 41.8996 116.633C41.7389 116.584 41.5818 116.514 41.4321 116.421C41.1427 116.243 40.8551 116.062 40.5693 115.878C40.4214 115.783 40.2902 115.672 40.1766 115.548C40.0179 115.493 39.8636 115.417 39.7175 115.319C39.435 115.13 39.1544 114.938 38.8757 114.744C38.7314 114.644 38.6045 114.527 38.4955 114.399C38.3389 114.339 38.1875 114.257 38.045 114.154C37.77 113.954 37.4969 113.752 37.2258 113.548C37.0853 113.442 36.9627 113.321 36.8586 113.189C36.7043 113.123 36.556 113.035 36.4175 112.927C36.1501 112.717 35.8847 112.505 35.6213 112.291C35.4849 112.18 35.3669 112.055 35.2678 111.919C35.1162 111.847 34.9713 111.754 34.8369 111.641C34.5775 111.421 34.3201 111.199 34.0648 110.975C33.9326 110.859 33.8194 110.73 33.7254 110.591C33.5766 110.513 33.4353 110.415 33.3053 110.296C33.0542 110.067 32.8052 109.836 32.5584 109.603C32.4306 109.482 32.3223 109.348 32.2335 109.206C32.0877 109.122 31.9501 109.019 31.8246 108.896C31.5822 108.658 31.342 108.418 31.1041 108.175C30.9809 108.05 30.8776 107.912 30.7942 107.766C30.6516 107.678 30.5179 107.569 30.3971 107.442C30.1636 107.195 29.9325 106.946 29.7037 106.695C29.5853 106.565 29.4872 106.423 29.4093 106.275C29.2701 106.181 29.1405 106.067 29.0245 105.935C28.8005 105.68 28.5788 105.423 28.3595 105.163C28.2459 105.029 28.1532 104.884 28.0808 104.732C27.9452 104.633 27.8199 104.515 27.7089 104.379C27.4945 104.115 27.2826 103.85 27.0731 103.582C26.9646 103.444 26.8773 103.296 26.8106 103.141C26.6787 103.037 26.5579 102.915 26.452 102.774C26.2476 102.503 26.0457 102.23 25.8463 101.955C25.7431 101.813 25.6614 101.661 25.6005 101.504C25.4726 101.396 25.3564 101.269 25.2559 101.124C25.0617 100.846 24.87 100.565 24.6809 100.282C24.5831 100.136 24.5071 99.982 24.4521 99.8233C24.3284 99.7097 24.2171 99.5786 24.122 99.4307C23.9384 99.1449 23.7573 98.8573 23.5788 98.5679C23.4865 98.4182 23.4163 98.2611 23.3673 98.1004C23.2479 97.9822 23.1416 97.847 23.0521 97.6956C22.8793 97.4033 22.7091 97.1092 22.5417 96.8134C22.4549 96.6602 22.3906 96.5005 22.3477 96.3379C22.2326 96.2152 22.1313 96.0759 22.0475 95.9211C21.8859 95.6228 21.727 95.3227 21.5708 95.0211C21.4899 94.8648 21.4316 94.7028 21.3948 94.5387C21.2845 94.4119 21.1885 94.2689 21.1105 94.1111C20.9601 93.8067 20.8125 93.5006 20.6676 93.193C20.5927 93.0339 20.5405 92.8699 20.5099 92.7048C20.4045 92.5739 20.3141 92.4276 20.2421 92.2671C20.1031 91.9569 19.9669 91.6452 19.8336 91.332C19.7647 91.1703 19.7188 91.0045 19.6944 90.8384C19.5941 90.7038 19.5092 90.5542 19.4434 90.3912C19.3163 90.0763 19.1921 89.76 19.0707 89.4422C19.0078 89.2777 18.9682 89.1101 18.95 88.9429C18.8547 88.8043 18.7754 88.6514 18.7157 88.4858C18.6006 88.1667 18.4885 87.8463 18.3793 87.5245C18.3227 87.3577 18.2893 87.1887 18.2775 87.0208C18.1874 86.8788 18.1139 86.7229 18.0605 86.5551C17.9575 86.2318 17.8575 85.9072 17.7604 85.5814C17.7102 85.4128 17.6833 85.2428 17.6777 85.0749C17.5932 84.9297 17.5257 84.7714 17.4787 84.6019C17.3878 84.2742 17.2999 83.9453 17.2149 83.6151C17.1712 83.4451 17.1507 83.2745 17.1514 83.1068C17.0726 82.9587 17.0113 82.7983 16.9708 82.6275C16.8924 82.2971 16.817 81.9656 16.7447 81.6329C16.7073 81.4609 16.6932 81.2892 16.7004 81.1212C16.6269 80.9699 16.5715 80.8068 16.5373 80.6341C16.4716 80.3017 16.4088 79.9683 16.3491 79.6337C16.3182 79.4603 16.3106 79.288 16.3241 79.1203C16.2563 78.9662 16.207 78.8011 16.1793 78.627C16.126 78.2924 16.0758 77.9567 16.0287 77.62C16.0044 77.4459 16.0032 77.2739 16.0229 77.1071C15.9611 76.951 15.9181 76.7844 15.897 76.6099C15.8561 76.2723 15.8184 75.9337 15.7838 75.5942C15.766 75.4198 15.7712 75.2483 15.7969 75.0828C15.7412 74.9248 15.7046 74.7573 15.69 74.5825C15.6619 74.2445 15.6368 73.9056 15.6149 73.5659C15.6035 73.3902 15.6152 73.2183 15.6474 73.0531C15.5972 72.8926 15.5666 72.723 15.5585 72.5471C15.543 72.2094 15.5305 71.8709 15.5211 71.5316C15.5163 71.3556 15.5343 71.1843 15.5725 71.0205C15.5283 70.8582 15.504 70.6877 15.5024 70.5116C15.5008 70.3413 15.5 70.1707 15.5 70C15.5 69.8293 15.5008 69.6587 15.5024 69.4883C15.504 69.3123 15.5283 69.1417 15.5725 68.9795C15.5343 68.8157 15.5163 68.6444 15.5211 68.4684C15.5305 68.1291 15.543 67.7906 15.5585 67.4529C15.5666 67.277 15.5972 67.1074 15.6474 66.9468C15.6152 66.7817 15.6035 66.6098 15.6149 66.434C15.6368 66.0943 15.6619 65.7555 15.69 65.4174C15.7046 65.2427 15.7412 65.0751 15.7969 64.9172C15.7712 64.7516 15.766 64.5802 15.7838 64.4058C15.8184 64.0663 15.8561 63.7277 15.897 63.39C15.9181 63.2155 15.9611 63.049 16.0229 62.8928C16.0032 62.7261 16.0044 62.5541 16.0287 62.38C16.0758 62.0433 16.126 61.7076 16.1793 61.3729C16.207 61.1989 16.2563 61.0337 16.3242 60.8797C16.3106 60.7119 16.3182 60.5397 16.3491 60.3662C16.4088 60.0317 16.4716 59.6982 16.5373 59.3658C16.5715 59.1931 16.6269 59.03 16.7004 58.8788C16.6932 58.7108 16.7073 58.5391 16.7447 58.3671C16.817 58.0344 16.8924 57.7029 16.9708 57.3725C17.0113 57.2017 17.0726 57.0412 17.1514 56.8931C17.1507 56.7254 17.1712 56.5549 17.215 56.3849C17.2999 56.0547 17.3878 55.7257 17.4787 55.398C17.5258 55.2285 17.5932 55.0702 17.6778 54.925C17.6833 54.7571 17.7102 54.5872 17.7604 54.4186C17.8575 54.0927 17.9575 53.7681 18.0605 53.4448C18.1139 53.277 18.1874 53.1212 18.2776 52.9791C18.2894 52.8113 18.3227 52.6422 18.3793 52.4754C18.4885 52.1537 18.6006 51.8332 18.7157 51.5142C18.7754 51.3485 18.8547 51.1956 18.9501 51.0571C18.9682 50.8899 19.0079 50.7222 19.0707 50.5578C19.1921 50.24 19.3163 49.9236 19.4435 49.6087C19.5093 49.4457 19.5941 49.2962 19.6944 49.1615C19.7188 48.9954 19.7647 48.8297 19.8336 48.668C19.9669 48.3547 20.1031 48.043 20.2422 47.7328C20.3141 47.5724 20.4045 47.426 20.5099 47.2952C20.5406 47.13 20.5927 46.966 20.6676 46.8069C20.8125 46.4993 20.9601 46.1933 21.1106 45.8888C21.1885 45.731 21.2845 45.5881 21.3948 45.4612C21.4316 45.2972 21.4899 45.1352 21.5708 44.9789C21.727 44.6772 21.8859 44.3772 22.0475 44.0789C22.1313 43.9241 22.2327 43.7848 22.3477 43.6621C22.3906 43.4995 22.455 43.3397 22.5417 43.1865C22.7091 42.8908 22.8793 42.5967 23.0521 42.3044C23.1416 42.153 23.2479 42.0177 23.3673 41.8996C23.4163 41.7389 23.4865 41.5818 23.5788 41.4321C23.7573 41.1427 23.9384 40.8551 24.1221 40.5693C24.2171 40.4214 24.3284 40.2902 24.4521 40.1766C24.5071 40.0179 24.5831 39.8636 24.6809 39.7175C24.87 39.435 25.0617 39.1544 25.2559 38.8757C25.3565 38.7314 25.4726 38.6045 25.6005 38.4955C25.6614 38.3389 25.7431 38.1875 25.8464 38.0451C26.0457 37.77 26.2476 37.4969 26.452 37.2258C26.5579 37.0853 26.6787 36.9627 26.8106 36.8586C26.8773 36.7043 26.9646 36.556 27.0731 36.4175C27.2826 36.1501 27.4945 35.8847 27.7089 35.6213C27.8199 35.4849 27.9452 35.3669 28.0808 35.2678C28.1532 35.1162 28.2459 34.9713 28.3595 34.8369C28.5788 34.5775 28.8005 34.3201 29.0246 34.0648C29.1406 33.9326 29.2701 33.8194 29.4093 33.7254C29.4872 33.5766 29.5853 33.4353 29.7037 33.3053C29.9325 33.0542 30.1637 32.8052 30.3971 32.5584C30.5179 32.4306 30.6516 32.3223 30.7942 32.2336C30.8776 32.0877 30.9809 31.9501 31.1041 31.8246C31.342 31.5822 31.5822 31.342 31.8246 31.1041C31.9501 30.9809 32.0877 30.8776 32.2336 30.7942C32.3223 30.6516 32.4307 30.5179 32.5584 30.3971C32.8052 30.1637 33.0542 29.9325 33.3053 29.7037C33.4353 29.5853 33.5766 29.4872 33.7254 29.4093C33.8194 29.2701 33.9326 29.1405 34.0648 29.0245C34.3201 28.8005 34.5775 28.5788 34.837 28.3595C34.9713 28.2459 35.1162 28.1532 35.2678 28.0808C35.3669 27.9452 35.4849 27.8199 35.6213 27.7089C35.8847 27.4945 36.1501 27.2826 36.4175 27.0731C36.556 26.9646 36.7043 26.8773 36.8586 26.8106C36.9627 26.6787 37.0853 26.5579 37.2258 26.452C37.4969 26.2476 37.77 26.0457 38.0451 25.8463C38.1875 25.7431 38.3389 25.6614 38.4955 25.6005C38.6045 25.4726 38.7314 25.3564 38.8758 25.2559C39.1545 25.0617 39.4351 24.87 39.7175 24.6809C39.8636 24.5831 40.0179 24.5071 40.1766 24.4521C40.2903 24.3284 40.4214 24.2171 40.5693 24.122C40.8551 23.9384 41.1427 23.7573 41.4321 23.5788C41.5818 23.4865 41.7389 23.4163 41.8996 23.3673C42.0178 23.2479 42.153 23.1416 42.3044 23.0521C42.5967 22.8793 42.8908 22.7091 43.1866 22.5417C43.3398 22.4549 43.4995 22.3906 43.6621 22.3477C43.7848 22.2326 43.9241 22.1313 44.0789 22.0475C44.3772 21.8859 44.6772 21.727 44.9789 21.5708C45.1352 21.4899 45.2972 21.4316 45.4613 21.3948C45.5881 21.2845 45.7311 21.1885 45.8889 21.1105C46.1933 20.9601 46.4994 20.8125 46.807 20.6676C46.9661 20.5927 47.13 20.5405 47.2952 20.5099C47.426 20.4045 47.5724 20.3141 47.7329 20.2421C48.0431 20.1031 48.3548 19.9669 48.668 19.8336C48.8297 19.7647 48.9954 19.7188 49.1615 19.6944C49.2962 19.5941 49.4458 19.5092 49.6088 19.4435C49.9237 19.3163 50.24 19.1921 50.5578 19.0707C50.7223 19.0078 50.8899 18.9682 51.0571 18.95C51.1956 18.8547 51.3486 18.7754 51.5142 18.7157C51.8333 18.6006 52.1537 18.4885 52.4755 18.3793C52.6423 18.3227 52.8113 18.2893 52.9791 18.2775C53.1212 18.1874 53.2771 18.1139 53.4449 18.0605C53.7682 17.9575 54.0928 17.8575 54.4186 17.7604C54.5872 17.7102 54.7572 17.6833 54.9251 17.6778C55.0703 17.5932 55.2286 17.5257 55.3981 17.4787C55.7258 17.3878 56.0547 17.2999 56.3849 17.2149C56.5549 17.1712 56.7255 17.1507 56.8932 17.1514C57.0412 17.0726 57.2017 17.0113 57.3725 16.9708C57.7029 16.8924 58.0344 16.817 58.3671 16.7447C58.5391 16.7073 58.7108 16.6932 58.8788 16.7004C59.0301 16.6269 59.1931 16.5715 59.3658 16.5373C59.6982 16.4716 60.0317 16.4088 60.3663 16.3491C60.5397 16.3182 60.712 16.3106 60.8797 16.3241C61.0337 16.2563 61.1989 16.207 61.3729 16.1793C61.7076 16.126 62.0433 16.0758 62.38 16.0287C62.5541 16.0044 62.7261 16.0032 62.8929 16.0229C63.049 15.9611 63.2155 15.9181 63.3901 15.897C63.7277 15.8561 64.0663 15.8184 64.4058 15.7838C64.5802 15.766 64.7517 15.7712 64.9172 15.7969C65.0751 15.7412 65.2427 15.7046 65.4175 15.69C65.7555 15.6619 66.0944 15.6368 66.4341 15.6149C66.6098 15.6035 66.7817 15.6152 66.9468 15.6474C67.1074 15.5972 67.277 15.5666 67.4529 15.5585C67.7906 15.543 68.1291 15.5305 68.4684 15.5211C68.6444 15.5163 68.8157 15.5343 68.9795 15.5725C69.1418 15.5283 69.3123 15.504 69.4884 15.5024ZM67.1611 19.5197C67.3145 19.5495 67.4738 19.5618 67.6368 19.5543C67.9501 19.5399 68.2641 19.5283 68.5788 19.5196C68.742 19.5151 68.9 19.4912 69.0508 19.4501C69.2031 19.4856 69.3619 19.5037 69.5252 19.5022C69.6833 19.5007 69.8415 19.5 70 19.5C70.1584 19.5 70.3167 19.5007 70.4747 19.5022C70.638 19.5037 70.7968 19.4856 70.9491 19.4501C71.0999 19.4912 71.2579 19.5151 71.4211 19.5196C71.7358 19.5283 72.0498 19.5399 72.3631 19.5543C72.5261 19.5618 72.6854 19.5495 72.8388 19.5197C72.988 19.5663 73.145 19.596 73.3079 19.6065C73.6229 19.6269 73.9371 19.6501 74.2504 19.6762C74.4123 19.6897 74.5712 19.6835 74.7249 19.6597C74.8716 19.7114 75.0267 19.7466 75.1882 19.7631C75.5029 19.7952 75.8167 19.8302 76.1296 19.868C76.2911 19.8876 76.4506 19.8873 76.6054 19.869C76.7503 19.9264 76.9043 19.9676 77.0655 19.9901C77.3775 20.0338 77.6885 20.0803 77.9985 20.1296C78.1596 20.1552 78.3193 20.1608 78.475 20.1483C78.6179 20.2112 78.7706 20.2583 78.9311 20.2869C79.241 20.3422 79.5499 20.4003 79.8578 20.4613C80.0176 20.4929 80.1768 20.5045 80.3327 20.4979C80.473 20.566 80.6236 20.6187 80.7829 20.6533C81.091 20.7203 81.398 20.7901 81.704 20.8627C81.8621 20.9002 82.0202 20.9178 82.1758 20.9172C82.3132 20.9903 82.4613 21.0484 82.6186 21.0888C82.9244 21.1675 83.229 21.2489 83.5325 21.3331C83.6893 21.3766 83.847 21.4002 84.0027 21.4053C84.1374 21.4837 84.2835 21.5475 84.4395 21.594C84.7413 21.6839 85.0419 21.7765 85.3412 21.8718C85.4965 21.9213 85.6534 21.9508 85.8091 21.9618C85.9409 22.0453 86.0846 22.1147 86.2389 22.1671C86.5369 22.2682 86.8337 22.372 87.1291 22.4786C87.2824 22.5338 87.438 22.5692 87.5931 22.5861C87.7216 22.6745 87.8626 22.7492 88.0148 22.8073C88.3091 22.9198 88.6021 23.0348 88.8938 23.1526C89.0446 23.2135 89.1985 23.2547 89.3526 23.2774C89.4775 23.3704 89.6154 23.4502 89.765 23.5139C90.0551 23.6374 90.3439 23.7635 90.6312 23.8923C90.7797 23.9589 90.932 24.0058 91.0853 24.0343C91.2067 24.132 91.3415 24.217 91.4888 24.2864C91.7737 24.4206 92.0572 24.5573 92.3392 24.6967C92.4853 24.7688 92.6359 24.8215 92.7881 24.8557C92.9058 24.9581 93.0375 25.0482 93.1822 25.123C93.4616 25.2677 93.7396 25.4149 94.016 25.5646C94.1593 25.6423 94.3079 25.7006 94.4587 25.7405C94.5726 25.8472 94.7008 25.9422 94.8427 26.0225C95.1167 26.1776 95.3892 26.3353 95.66 26.4954C95.8002 26.5783 95.9463 26.642 96.0955 26.6876C96.2052 26.7983 96.3297 26.898 96.4683 26.9834C96.7364 27.1488 97.0029 27.3166 97.2678 27.4869C97.4047 27.5749 97.5484 27.6441 97.6957 27.6952C97.8012 27.81 97.9219 27.9142 98.0572 28.0047C98.3189 28.18 98.579 28.3576 98.8373 28.5376C98.9709 28.6308 99.112 28.7053 99.2573 28.7618C99.3585 28.8806 99.4753 28.9893 99.6072 29.0849C99.8621 29.2697 100.115 29.4568 100.367 29.6462C100.497 29.7443 100.635 29.8241 100.778 29.886C100.875 30.0084 100.987 30.1214 101.116 30.2219C101.364 30.4161 101.61 30.6126 101.854 30.8113C101.98 30.9141 102.115 30.9989 102.256 31.0661C102.348 31.1921 102.456 31.3092 102.581 31.4143C102.821 31.6176 103.06 31.8232 103.297 32.0309C103.419 32.1383 103.551 32.2281 103.689 32.3005C103.776 32.4297 103.88 32.5508 104.001 32.6605C104.233 32.8726 104.464 33.0868 104.693 33.3032C104.811 33.4152 104.94 33.5098 105.075 33.5873C105.158 33.7197 105.257 33.8446 105.373 33.9587C105.598 34.1792 105.821 34.4019 106.041 34.6266C106.155 34.7429 106.28 34.8423 106.413 34.9247C106.49 35.0601 106.585 35.1885 106.697 35.3069C106.913 35.5357 107.127 35.7665 107.34 35.9993C107.449 36.1197 107.57 36.2236 107.699 36.3109C107.772 36.4491 107.862 36.5809 107.969 36.7034C108.177 36.94 108.382 37.1786 108.586 37.4191C108.691 37.5436 108.808 37.6519 108.934 37.744C109.001 37.8848 109.086 38.0199 109.189 38.1462C109.387 38.3904 109.584 38.6364 109.778 38.8843C109.879 39.0125 109.992 39.1252 110.114 39.2219C110.176 39.3651 110.256 39.5033 110.354 39.6335C110.543 39.8848 110.73 40.1379 110.915 40.3928C111.011 40.5247 111.119 40.6415 111.238 40.7426C111.295 40.888 111.369 41.029 111.462 41.1627C111.642 41.421 111.82 41.681 111.995 41.9428C112.086 42.0781 112.19 42.1988 112.305 42.3043C112.356 42.4516 112.425 42.5952 112.513 42.7322C112.683 42.997 112.851 43.2635 113.017 43.5317C113.102 43.6703 113.202 43.7948 113.312 43.9045C113.358 44.0536 113.422 44.1998 113.505 44.34C113.665 44.6108 113.822 44.8832 113.977 45.1573C114.058 45.2991 114.153 45.4274 114.26 45.5412C114.299 45.6921 114.358 45.8407 114.435 45.984C114.585 46.2604 114.732 46.5383 114.877 46.8178C114.952 46.9625 115.042 47.0941 115.144 47.2119C115.178 47.3641 115.231 47.5147 115.303 47.6607C115.443 47.9427 115.579 48.2262 115.714 48.5112C115.783 48.6584 115.868 48.7933 115.966 48.9147C115.994 49.0679 116.041 49.2203 116.108 49.3688C116.236 49.6561 116.363 49.9448 116.486 50.2349C116.55 50.3846 116.63 50.5224 116.723 50.6474C116.745 50.8015 116.787 50.9554 116.847 51.1062C116.965 51.3978 117.08 51.6908 117.193 51.9851C117.251 52.1373 117.325 52.2783 117.414 52.4068C117.431 52.5619 117.466 52.7175 117.521 52.8708C117.628 53.1663 117.732 53.463 117.833 53.761C117.885 53.9153 117.955 54.0591 118.038 54.1909C118.049 54.3466 118.079 54.5034 118.128 54.6587C118.224 54.9581 118.316 55.2587 118.406 55.5604C118.452 55.7164 118.516 55.8625 118.595 55.9972C118.6 56.153 118.623 56.3106 118.667 56.4674C118.751 56.7709 118.833 57.0756 118.911 57.3813C118.952 57.5387 119.01 57.6868 119.083 57.8241C119.082 57.9797 119.1 58.1379 119.137 58.296C119.21 58.6019 119.28 58.909 119.347 59.2171C119.381 59.3763 119.434 59.5269 119.502 59.6673C119.495 59.8231 119.507 59.9823 119.539 60.1421C119.6 60.45 119.658 60.7589 119.713 61.0688C119.742 61.2294 119.789 61.382 119.852 61.525C119.839 61.6806 119.845 61.8403 119.87 62.0014C119.92 62.3114 119.966 62.6225 120.01 62.9344C120.032 63.0956 120.074 63.2496 120.131 63.3945C120.113 63.5494 120.112 63.7088 120.132 63.8704C120.17 64.1833 120.205 64.4971 120.237 64.8117C120.253 64.9733 120.289 65.1283 120.34 65.275C120.316 65.4287 120.31 65.5877 120.324 65.7495C120.35 66.0628 120.373 66.377 120.393 66.692C120.404 66.8549 120.434 67.0119 120.48 67.1611C120.45 67.3145 120.438 67.4738 120.446 67.6369C120.46 67.9501 120.472 68.2641 120.48 68.5788C120.485 68.742 120.509 68.9 120.55 69.0509C120.514 69.2031 120.496 69.3619 120.498 69.5252C120.499 69.6833 120.5 69.8415 120.5 70C120.5 70.1584 120.499 70.3167 120.498 70.4747C120.496 70.638 120.514 70.7968 120.55 70.9491C120.509 71.0999 120.485 71.2579 120.48 71.4211C120.472 71.7359 120.46 72.0498 120.446 72.3631C120.438 72.5261 120.45 72.6855 120.48 72.8388C120.434 72.988 120.404 73.145 120.393 73.3079C120.373 73.6229 120.35 73.9371 120.324 74.2504C120.31 74.4123 120.316 74.5712 120.34 74.7249C120.289 74.8716 120.253 75.0267 120.237 75.1882C120.205 75.5029 120.17 75.8167 120.132 76.1296C120.112 76.2912 120.113 76.4506 120.131 76.6054C120.074 76.7503 120.032 76.9043 120.01 77.0655C119.966 77.3775 119.92 77.6885 119.87 77.9986C119.845 78.1596 119.839 78.3193 119.852 78.475C119.789 78.6179 119.742 78.7706 119.713 78.9311C119.658 79.241 119.6 79.5499 119.539 79.8578C119.507 80.0176 119.496 80.1768 119.502 80.3327C119.434 80.473 119.381 80.6236 119.347 80.7829C119.28 81.091 119.21 81.398 119.137 81.704C119.1 81.8621 119.082 82.0202 119.083 82.1758C119.01 82.3131 118.952 82.4613 118.911 82.6186C118.833 82.9244 118.751 83.229 118.667 83.5325C118.623 83.6893 118.6 83.847 118.595 84.0027C118.516 84.1374 118.452 84.2835 118.406 84.4395C118.316 84.7413 118.224 85.0419 118.128 85.3412C118.079 85.4965 118.049 85.6534 118.038 85.8091C117.955 85.9409 117.885 86.0846 117.833 86.2389C117.732 86.5369 117.628 86.8337 117.521 87.1292C117.466 87.2824 117.431 87.438 117.414 87.5931C117.326 87.7216 117.251 87.8626 117.193 88.0148C117.08 88.3092 116.965 88.6021 116.847 88.8938C116.787 89.0446 116.745 89.1985 116.723 89.3526C116.63 89.4775 116.55 89.6154 116.486 89.7651C116.363 90.0552 116.236 90.3439 116.108 90.6312C116.041 90.7797 115.994 90.932 115.966 91.0853C115.868 91.2067 115.783 91.3415 115.714 91.4888C115.579 91.7737 115.443 92.0572 115.303 92.3392C115.231 92.4853 115.178 92.6359 115.144 92.7881C115.042 92.9058 114.952 93.0375 114.877 93.1822C114.732 93.4616 114.585 93.7396 114.435 94.016C114.358 94.1593 114.299 94.3079 114.26 94.4587C114.153 94.5726 114.058 94.7009 113.978 94.8427C113.822 95.1167 113.665 95.3892 113.505 95.66C113.422 95.8002 113.358 95.9463 113.312 96.0955C113.202 96.2052 113.102 96.3297 113.017 96.4683C112.851 96.7364 112.683 97.003 112.513 97.2678C112.425 97.4047 112.356 97.5484 112.305 97.6957C112.19 97.8012 112.086 97.9219 111.995 98.0572C111.82 98.3189 111.642 98.579 111.462 98.8373C111.369 98.9709 111.295 99.112 111.238 99.2574C111.119 99.3585 111.011 99.4753 110.915 99.6072C110.73 99.8621 110.543 100.115 110.354 100.367C110.256 100.497 110.176 100.635 110.114 100.778C109.992 100.875 109.879 100.987 109.778 101.116C109.584 101.364 109.387 101.61 109.189 101.854C109.086 101.98 109.001 102.115 108.934 102.256C108.808 102.348 108.691 102.456 108.586 102.581C108.382 102.821 108.177 103.06 107.969 103.297C107.862 103.419 107.772 103.551 107.7 103.689C107.57 103.776 107.449 103.88 107.34 104.001C107.127 104.233 106.913 104.464 106.697 104.693C106.585 104.811 106.49 104.94 106.413 105.075C106.28 105.158 106.155 105.257 106.041 105.373C105.821 105.598 105.598 105.821 105.373 106.041C105.257 106.155 105.158 106.28 105.075 106.413C104.94 106.49 104.811 106.585 104.693 106.697C104.464 106.913 104.233 107.127 104.001 107.34C103.88 107.449 103.776 107.57 103.689 107.7C103.551 107.772 103.419 107.862 103.297 107.969C103.06 108.177 102.821 108.382 102.581 108.586C102.456 108.691 102.348 108.808 102.256 108.934C102.115 109.001 101.98 109.086 101.854 109.189C101.61 109.387 101.364 109.584 101.116 109.778C100.987 109.879 100.875 109.992 100.778 110.114C100.635 110.176 100.497 110.256 100.367 110.354C100.115 110.543 99.8621 110.73 99.6072 110.915C99.4753 111.011 99.3585 111.119 99.2574 111.238C99.112 111.295 98.9709 111.369 98.8373 111.462C98.579 111.642 98.319 111.82 98.0572 111.995C97.9219 112.086 97.8012 112.19 97.6957 112.305C97.5484 112.356 97.4048 112.425 97.2678 112.513C97.003 112.683 96.7365 112.851 96.4683 113.017C96.3297 113.102 96.2052 113.202 96.0955 113.312C95.9463 113.358 95.8002 113.422 95.66 113.505C95.3892 113.665 95.1167 113.822 94.8427 113.977C94.7009 114.058 94.5726 114.153 94.4588 114.26C94.3079 114.299 94.1593 114.358 94.016 114.435C93.7396 114.585 93.4617 114.732 93.1822 114.877C93.0375 114.952 92.9058 115.042 92.7881 115.144C92.6359 115.178 92.4853 115.231 92.3393 115.303C92.0573 115.443 91.7738 115.579 91.4888 115.714C91.3416 115.783 91.2067 115.868 91.0853 115.966C90.9321 115.994 90.7797 116.041 90.6312 116.108C90.3439 116.236 90.0552 116.363 89.7651 116.486C89.6154 116.55 89.4776 116.63 89.3526 116.723C89.1985 116.745 89.0446 116.787 88.8938 116.847C88.6022 116.965 88.3092 117.08 88.0149 117.193C87.8627 117.251 87.7217 117.325 87.5932 117.414C87.438 117.431 87.2825 117.466 87.1292 117.521C86.8337 117.628 86.537 117.732 86.239 117.833C86.0847 117.885 85.9409 117.955 85.8091 118.038C85.6534 118.049 85.4966 118.079 85.3413 118.128C85.0419 118.224 84.7413 118.316 84.4395 118.406C84.2836 118.452 84.1375 118.516 84.0028 118.595C83.847 118.6 83.6894 118.623 83.5326 118.667C83.2291 118.751 82.9244 118.833 82.6187 118.911C82.4613 118.952 82.3132 119.01 82.1758 119.083C82.0202 119.082 81.8621 119.1 81.704 119.137C81.3981 119.21 81.091 119.28 80.7829 119.347C80.6237 119.381 80.4731 119.434 80.3327 119.502C80.1768 119.495 80.0177 119.507 79.8579 119.539C79.55 119.6 79.2411 119.658 78.9312 119.713C78.7706 119.742 78.618 119.789 78.475 119.852C78.3193 119.839 78.1597 119.845 77.9986 119.87C77.6885 119.92 77.3775 119.966 77.0656 120.01C76.9044 120.032 76.7504 120.074 76.6054 120.131C76.4506 120.113 76.2912 120.112 76.1296 120.132C75.8167 120.17 75.5029 120.205 75.1883 120.237C75.0267 120.253 74.8716 120.289 74.725 120.34C74.5713 120.316 74.4123 120.31 74.2505 120.324C73.9371 120.35 73.623 120.373 73.308 120.393C73.1451 120.404 72.9881 120.434 72.8389 120.48C72.6855 120.45 72.5262 120.438 72.3631 120.446C72.0499 120.46 71.7359 120.472 71.4212 120.48C71.258 120.485 71.0999 120.509 70.9491 120.55C70.7969 120.514 70.6381 120.496 70.4748 120.498C70.3167 120.499 70.1584 120.5 70 120.5C69.8415 120.5 69.6833 120.499 69.5252 120.498C69.3619 120.496 69.2031 120.514 69.0508 120.55C68.9 120.509 68.7419 120.485 68.5788 120.48C68.264 120.472 67.95 120.46 67.6368 120.446C67.4738 120.438 67.3144 120.45 67.161 120.48C67.0119 120.434 66.8548 120.404 66.692 120.393C66.377 120.373 66.0628 120.35 65.7494 120.324C65.5876 120.31 65.4287 120.316 65.275 120.34C65.1283 120.289 64.9732 120.253 64.8117 120.237C64.497 120.205 64.1832 120.17 63.8703 120.132C63.7087 120.112 63.5493 120.113 63.3945 120.131C63.2496 120.074 63.0956 120.032 62.9344 120.01C62.6224 119.966 62.3114 119.92 62.0013 119.87C61.8402 119.845 61.6806 119.839 61.5249 119.852C61.382 119.789 61.2293 119.742 61.0687 119.713C60.7589 119.658 60.45 119.6 60.1421 119.539C59.9822 119.507 59.8231 119.495 59.6672 119.502C59.5269 119.434 59.3762 119.381 59.217 119.347C58.9089 119.28 58.6019 119.21 58.2959 119.137C58.1378 119.1 57.9797 119.082 57.8241 119.083C57.6867 119.01 57.5386 118.952 57.3813 118.911C57.0755 118.832 56.7709 118.751 56.4674 118.667C56.3106 118.623 56.1529 118.6 55.9971 118.595C55.8624 118.516 55.7164 118.452 55.5604 118.406C55.2586 118.316 54.958 118.223 54.6587 118.128C54.5034 118.079 54.3465 118.049 54.1908 118.038C54.059 117.955 53.9153 117.885 53.7609 117.833C53.463 117.732 53.1662 117.628 52.8707 117.521C52.7175 117.466 52.5619 117.431 52.4068 117.414C52.2782 117.325 52.1372 117.251 51.985 117.193C51.6907 117.08 51.3978 116.965 51.1061 116.847C50.9553 116.786 50.8014 116.745 50.6473 116.723C50.5224 116.63 50.3845 116.55 50.2349 116.486C49.9447 116.363 49.656 116.236 49.3687 116.108C49.2202 116.041 49.0679 115.994 48.9147 115.966C48.7932 115.868 48.6584 115.783 48.5111 115.714C48.2262 115.579 47.9427 115.443 47.6607 115.303C47.5146 115.231 47.364 115.178 47.2118 115.144C47.0941 115.042 46.9624 114.952 46.8178 114.877C46.5383 114.732 46.2603 114.585 45.984 114.435C45.8406 114.358 45.6921 114.299 45.5412 114.26C45.4273 114.153 45.2991 114.058 45.1572 113.977C44.8832 113.822 44.6108 113.665 44.3399 113.505C44.1998 113.422 44.0536 113.358 43.9045 113.312C43.7948 113.202 43.6703 113.102 43.5317 113.017C43.2635 112.851 42.997 112.683 42.7322 112.513C42.5952 112.425 42.4516 112.356 42.3042 112.305C42.1988 112.19 42.0781 112.086 41.9428 111.995C41.681 111.82 41.421 111.642 41.1627 111.462C41.029 111.369 40.888 111.295 40.7426 111.238C40.6414 111.119 40.5247 111.011 40.3928 110.915C40.1379 110.73 39.8847 110.543 39.6334 110.354C39.5033 110.256 39.3651 110.176 39.2219 110.114C39.1252 109.992 39.0125 109.879 38.8843 109.778C38.6364 109.584 38.3903 109.387 38.1462 109.189C38.0199 109.086 37.8848 109.001 37.744 108.934C37.6519 108.808 37.5435 108.691 37.4191 108.586C37.1786 108.382 36.94 108.177 36.7034 107.969C36.5809 107.862 36.4491 107.772 36.3109 107.699C36.2236 107.57 36.1197 107.449 35.9993 107.34C35.7665 107.127 35.5357 106.913 35.3069 106.697C35.1885 106.585 35.0601 106.49 34.9247 106.413C34.8422 106.28 34.7429 106.155 34.6266 106.041C34.4019 105.821 34.1792 105.598 33.9587 105.373C33.8445 105.257 33.7197 105.158 33.5873 105.075C33.5098 104.94 33.4152 104.811 33.3032 104.693C33.0868 104.464 32.8726 104.233 32.6605 104.001C32.5508 103.88 32.4298 103.776 32.3005 103.689C32.2281 103.551 32.1383 103.419 32.0309 103.297C31.8232 103.06 31.6177 102.821 31.4143 102.581C31.3092 102.456 31.1921 102.348 31.0661 102.256C30.999 102.115 30.9141 101.98 30.8113 101.854C30.6126 101.61 30.4161 101.364 30.2219 101.116C30.1215 100.987 30.0084 100.875 29.886 100.778C29.8241 100.635 29.7443 100.497 29.6462 100.367C29.4568 100.115 29.2697 99.8621 29.0849 99.6072C28.9893 99.4753 28.8806 99.3585 28.7618 99.2574C28.7053 99.112 28.6308 98.971 28.5376 98.8373C28.3576 98.579 28.18 98.319 28.0048 98.0572C27.9142 97.9219 27.81 97.8012 27.6952 97.6957C27.6441 97.5484 27.5749 97.4048 27.4869 97.2678C27.3167 97.003 27.1488 96.7365 26.9835 96.4683C26.898 96.3297 26.7984 96.2052 26.6876 96.0955C26.6421 95.9463 26.5783 95.8002 26.4954 95.66C26.3353 95.3892 26.1777 95.1168 26.0225 94.8427C25.9422 94.7009 25.8472 94.5726 25.7405 94.4588C25.7006 94.3079 25.6423 94.1593 25.5646 94.016C25.4149 93.7396 25.2677 93.4617 25.1231 93.1822C25.0482 93.0375 24.9581 92.9058 24.8557 92.7881C24.8215 92.6359 24.7689 92.4853 24.6967 92.3393C24.5574 92.0573 24.4206 91.7738 24.2864 91.4888C24.217 91.3416 24.132 91.2067 24.0343 91.0853C24.0058 90.9321 23.9589 90.7797 23.8923 90.6312C23.7636 90.3439 23.6374 90.0552 23.5139 89.7651C23.4502 89.6154 23.3704 89.4776 23.2774 89.3526C23.2547 89.1985 23.2135 89.0446 23.1526 88.8938C23.0349 88.6022 22.9198 88.3092 22.8074 88.0149C22.7492 87.8627 22.6745 87.7217 22.5861 87.5932C22.5692 87.4381 22.5338 87.2825 22.4786 87.1292C22.3721 86.8337 22.2682 86.537 22.1671 86.239C22.1147 86.0847 22.0453 85.9409 21.9618 85.8091C21.9508 85.6534 21.9213 85.4966 21.8718 85.3413C21.7765 85.0419 21.6839 84.7413 21.594 84.4396C21.5475 84.2836 21.4837 84.1375 21.4053 84.0028C21.4002 83.847 21.3766 83.6894 21.3331 83.5326C21.2489 83.2291 21.1675 82.9244 21.0888 82.6187C21.0484 82.4613 20.9903 82.3132 20.9172 82.1758C20.9179 82.0203 20.9002 81.8621 20.8627 81.704C20.7901 81.3981 20.7203 81.091 20.6533 80.7829C20.6187 80.6237 20.566 80.4731 20.4979 80.3327C20.5045 80.1768 20.4929 80.0177 20.4613 79.8579C20.4004 79.55 20.3422 79.2411 20.287 78.9312C20.2583 78.7706 20.2112 78.618 20.1483 78.475C20.1609 78.3193 20.1552 78.1597 20.1296 77.9986C20.0803 77.6886 20.0338 77.3775 19.9901 77.0656C19.9676 76.9044 19.9264 76.7504 19.869 76.6054C19.8873 76.4506 19.8876 76.2912 19.868 76.1296C19.8302 75.8167 19.7952 75.5029 19.7631 75.1883C19.7466 75.0267 19.7114 74.8716 19.6597 74.725C19.6835 74.5713 19.6897 74.4123 19.6762 74.2505C19.6501 73.9372 19.6269 73.623 19.6065 73.308C19.596 73.1451 19.5663 72.9881 19.5197 72.8389C19.5495 72.6855 19.5618 72.5262 19.5543 72.3631C19.5399 72.0499 19.5283 71.7359 19.5196 71.4212C19.5151 71.258 19.4912 71.1 19.4501 70.9491C19.4856 70.7969 19.5037 70.6381 19.5022 70.4748C19.5007 70.3167 19.5 70.1585 19.5 70C19.5 69.8415 19.5007 69.6833 19.5022 69.5252C19.5037 69.3619 19.4856 69.2031 19.4501 69.0508C19.4912 68.9 19.5151 68.742 19.5196 68.5788C19.5283 68.264 19.5399 67.9501 19.5543 67.6368C19.5618 67.4738 19.5495 67.3144 19.5197 67.161C19.5663 67.0119 19.596 66.8549 19.6065 66.692C19.6269 66.377 19.6501 66.0628 19.6762 65.7495C19.6897 65.5876 19.6835 65.4287 19.6597 65.275C19.7114 65.1283 19.7466 64.9732 19.7631 64.8117C19.7952 64.497 19.8302 64.1832 19.868 63.8703C19.8876 63.7087 19.8873 63.5493 19.869 63.3945C19.9264 63.2496 19.9676 63.0956 19.9901 62.9344C20.0338 62.6224 20.0803 62.3114 20.1296 62.0013C20.1552 61.8403 20.1609 61.6806 20.1483 61.5249C20.2113 61.382 20.2583 61.2293 20.287 61.0688C20.3423 60.7589 20.4004 60.45 20.4613 60.1421C20.4929 59.9823 20.5045 59.8231 20.4979 59.6672C20.566 59.5269 20.6187 59.3763 20.6533 59.217C20.7203 58.9089 20.7901 58.6019 20.8627 58.2959C20.9003 58.1378 20.9179 57.9797 20.9172 57.8241C20.9903 57.6867 21.0484 57.5386 21.0889 57.3813C21.1675 57.0755 21.2489 56.7709 21.3331 56.4674C21.3766 56.3106 21.4002 56.1529 21.4054 55.9971C21.4838 55.8624 21.5475 55.7164 21.594 55.5604C21.6839 55.2586 21.7765 54.958 21.8719 54.6587C21.9213 54.5034 21.9508 54.3465 21.9618 54.1908C22.0454 54.059 22.1147 53.9153 22.1671 53.761C22.2682 53.463 22.3721 53.1662 22.4786 52.8707C22.5339 52.7175 22.5692 52.5619 22.5861 52.4068C22.6745 52.2783 22.7492 52.1373 22.8074 51.9851C22.9198 51.6908 23.0349 51.3978 23.1526 51.1061C23.2135 50.9553 23.2547 50.8014 23.2774 50.6473C23.3704 50.5224 23.4502 50.3845 23.5139 50.2349C23.6374 49.9448 23.7636 49.656 23.8923 49.3687C23.9589 49.2202 24.0059 49.0679 24.0343 48.9147C24.1321 48.7932 24.2171 48.6584 24.2864 48.5111C24.4206 48.2262 24.5574 47.9427 24.6967 47.6607C24.7689 47.5146 24.8216 47.364 24.8558 47.2118C24.9581 47.0941 25.0482 46.9624 25.1231 46.8178C25.2677 46.5383 25.415 46.2604 25.5647 45.984C25.6423 45.8407 25.7006 45.6921 25.7405 45.5412C25.8472 45.4273 25.9422 45.2991 26.0225 45.1573C26.1777 44.8832 26.3353 44.6108 26.4954 44.3399C26.5783 44.1998 26.6421 44.0536 26.6876 43.9045C26.7984 43.7948 26.898 43.6703 26.9835 43.5317C27.1489 43.2635 27.3167 42.997 27.4869 42.7322C27.5749 42.5952 27.6441 42.4516 27.6952 42.3043C27.81 42.1988 27.9142 42.0781 28.0048 41.9428C28.18 41.681 28.3577 41.421 28.5377 41.1627C28.6308 41.029 28.7053 40.888 28.7619 40.7426C28.8806 40.6414 28.9893 40.5247 29.0849 40.3928C29.2697 40.1379 29.4568 39.8847 29.6462 39.6334C29.7443 39.5033 29.8241 39.3651 29.886 39.2219C30.0084 39.1252 30.1215 39.0125 30.2219 38.8843C30.4161 38.6364 30.6126 38.3904 30.8113 38.1462C30.9141 38.0199 30.999 37.8848 31.0662 37.744C31.1921 37.6519 31.3092 37.5435 31.4144 37.4191C31.6177 37.1786 31.8232 36.94 32.0309 36.7034C32.1383 36.5809 32.2281 36.4491 32.3005 36.3109C32.4298 36.2236 32.5508 36.1197 32.6605 35.9993C32.8726 35.7665 33.0869 35.5357 33.3032 35.3069C33.4152 35.1885 33.5098 35.0601 33.5873 34.9247C33.7197 34.8423 33.8446 34.7429 33.9587 34.6266C34.1793 34.4019 34.4019 34.1792 34.6266 33.9587C34.7429 33.8446 34.8423 33.7197 34.9247 33.5873C35.0601 33.5098 35.1886 33.4152 35.3069 33.3032C35.5357 33.0869 35.7665 32.8726 35.9993 32.6605C36.1197 32.5508 36.2236 32.4298 36.3109 32.3005C36.4491 32.2281 36.5809 32.1383 36.7034 32.0309C36.94 31.8232 37.1786 31.6177 37.4191 31.4143C37.5436 31.3092 37.6519 31.1921 37.744 31.0661C37.8848 30.999 38.0199 30.9141 38.1462 30.8113C38.3904 30.6126 38.6364 30.4161 38.8843 30.2219C39.0125 30.1215 39.1252 30.0084 39.2219 29.886C39.3651 29.8241 39.5033 29.7443 39.6335 29.6462C39.8848 29.4568 40.1379 29.2697 40.3928 29.0849C40.5247 28.9893 40.6414 28.8806 40.7426 28.7619C40.888 28.7053 41.029 28.6308 41.1627 28.5376C41.421 28.3576 41.681 28.18 41.9428 28.0048C42.0781 27.9142 42.1988 27.81 42.3043 27.6952C42.4516 27.6441 42.5952 27.5749 42.7322 27.4869C42.997 27.3167 43.2635 27.1488 43.5317 26.9835C43.6703 26.898 43.7948 26.7984 43.9045 26.6876C44.0536 26.6421 44.1998 26.5783 44.34 26.4954C44.6108 26.3353 44.8832 26.1777 45.1573 26.0225C45.2991 25.9422 45.4274 25.8472 45.5412 25.7405C45.6921 25.7006 45.8407 25.6423 45.984 25.5646C46.2604 25.4149 46.5383 25.2677 46.8178 25.1231C46.9625 25.0482 47.0941 24.9581 47.2119 24.8557C47.3641 24.8215 47.5147 24.7689 47.6607 24.6967C47.9427 24.5574 48.2262 24.4206 48.5112 24.2864C48.6584 24.217 48.7933 24.1321 48.9147 24.0343C49.0679 24.0058 49.2203 23.9589 49.3688 23.8923C49.6561 23.7636 49.9448 23.6374 50.2349 23.5139C50.3845 23.4502 50.5224 23.3704 50.6474 23.2774C50.8015 23.2547 50.9553 23.2135 51.1062 23.1526C51.3978 23.0349 51.6908 22.9198 51.9851 22.8074C52.1373 22.7492 52.2783 22.6745 52.4068 22.5861C52.5619 22.5692 52.7175 22.5338 52.8708 22.4786C53.1663 22.3721 53.463 22.2682 53.761 22.1671C53.9153 22.1147 54.0591 22.0453 54.1909 21.9618C54.3465 21.9508 54.5034 21.9213 54.6587 21.8718C54.9581 21.7765 55.2587 21.6839 55.5604 21.594C55.7164 21.5475 55.8625 21.4837 55.9972 21.4053C56.153 21.4002 56.3106 21.3766 56.4674 21.3331C56.7709 21.2489 57.0755 21.1675 57.3813 21.0888C57.5386 21.0484 57.6868 20.9903 57.8241 20.9172C57.9797 20.9179 58.1379 20.9002 58.2959 20.8627C58.6019 20.7901 58.909 20.7203 59.2171 20.6533C59.3763 20.6187 59.5269 20.566 59.6673 20.4979C59.8231 20.5045 59.9823 20.4929 60.1421 20.4613C60.45 20.4004 60.7589 20.3422 61.0688 20.287C61.2294 20.2583 61.382 20.2112 61.525 20.1483C61.6806 20.1609 61.8403 20.1552 62.0014 20.1296C62.3114 20.0803 62.6225 20.0338 62.9344 19.9901C63.0956 19.9676 63.2496 19.9264 63.3945 19.869C63.5493 19.8873 63.7088 19.8876 63.8704 19.868C64.1833 19.8302 64.497 19.7952 64.8117 19.7631C64.9732 19.7466 65.1283 19.7114 65.275 19.6597C65.4287 19.6835 65.5876 19.6897 65.7495 19.6762C66.0628 19.6501 66.377 19.6269 66.692 19.6065C66.8549 19.596 67.0119 19.5663 67.1611 19.5197Z" fill="#D4F0F9"/>
<path d="M58.2256 107.168C58.511 107.781 58.8083 108.377 59.1179 108.954C48.062 105.871 38.8964 98.2107 33.8422 88.1484H53.0282C54.1367 95.6209 55.9125 102.2 58.2256 107.168Z" fill="#D5E2F1"/>
<path d="M33.8602 51.859C38.9466 41.7941 48.0844 34.1397 59.1164 31.0561C58.8073 31.6322 58.5105 32.2277 58.2256 32.8396C55.9125 37.8077 54.1367 44.3866 53.0282 51.859H33.8602Z" fill="#D5E2F1"/>
<path d="M81.7804 32.8396C81.495 32.2267 81.1977 31.6302 80.8881 31.0533C91.944 34.1363 101.11 41.7967 106.164 51.859H86.9778C85.8693 44.3866 84.0936 37.8077 81.7804 32.8396Z" fill="#D5E2F1"/>
<path d="M29.5684 70.0018C29.5684 66.1398 30.1095 62.4143 31.1199 58.8574H52.2364C51.9444 62.4336 51.7838 66.158 51.7838 70.0018C51.7838 73.8456 51.9444 77.57 52.2364 81.1461H31.1199C30.1095 77.5892 29.5684 73.8638 29.5684 70.0018Z" fill="#B8C8DA"/>
<path d="M106.146 88.1484C101.059 98.2134 91.9217 105.868 80.8897 108.951C81.1988 108.375 81.4955 107.78 81.7804 107.168C84.0936 102.2 85.8693 95.6209 86.9778 88.1484H106.146Z" fill="#D5E2F1"/>
<path d="M88.2195 70.0018C88.2195 66.158 88.059 62.4336 87.767 58.8574H108.884C109.894 62.4143 110.435 66.1398 110.435 70.0018C110.435 73.8638 109.894 77.5892 108.884 81.1461H87.767C88.059 77.57 88.2195 73.8456 88.2195 70.0018Z" fill="#94ACC8"/>
<path d="M64.5714 104.213C62.7214 100.24 61.1566 94.7281 60.1102 88.1484H79.8938C78.8474 94.7281 77.2826 100.24 75.4326 104.213C74.3265 106.589 73.1968 108.243 72.1598 109.257C71.1389 110.254 70.4223 110.437 70.002 110.437C69.5817 110.437 68.8651 110.254 67.8442 109.257C66.8072 108.243 65.6775 106.589 64.5714 104.213Z" fill="#94ACC8"/>
<path d="M58.7871 70.0018C58.7871 66.1472 58.9572 62.4213 59.2642 58.8574H80.6719C80.979 62.4213 81.149 66.1472 81.149 70.0018C81.149 73.8564 80.979 77.5823 80.6719 81.1461H59.2642C58.9572 77.5823 58.7871 73.8564 58.7871 70.0018Z" fill="#D5E2F1"/>
<path d="M79.8206 51.859H60.1088C61.1514 45.2745 62.7024 39.7598 64.539 35.785C65.6372 33.4086 66.7586 31.756 67.7883 30.7451C68.8007 29.7513 69.5109 29.5703 69.9288 29.5703C70.349 29.5703 71.0657 29.7534 72.0866 30.7509C73.1236 31.7641 74.2532 33.4185 75.3594 35.7943C77.2093 39.7674 78.7742 45.2794 79.8206 51.859Z" fill="#B8C8DA"/>
<path d="M55.3534 62.6776C59.3974 62.6776 62.6756 59.3993 62.6756 55.3554C62.6756 51.3115 59.3974 48.0332 55.3534 48.0332C51.3095 48.0332 48.0312 51.3115 48.0312 55.3554C48.0312 59.3993 51.3095 62.6776 55.3534 62.6776Z" fill="#21BAE4"/>
<path d="M29.7292 108.075C32.1556 108.075 34.1225 106.108 34.1225 103.681C34.1225 101.255 32.1556 99.2881 29.7292 99.2881C27.3029 99.2881 25.3359 101.255 25.3359 103.681C25.3359 106.108 27.3029 108.075 29.7292 108.075Z" fill="#7ED3EC"/>
<path d="M110.27 40.7104C112.697 40.7104 114.664 38.7435 114.664 36.3171C114.664 33.8908 112.697 31.9238 110.27 31.9238C107.844 31.9238 105.877 33.8908 105.877 36.3171C105.877 38.7435 107.844 40.7104 110.27 40.7104Z" fill="#7ED3EC"/>
<path d="M84.6425 91.9676C88.6864 91.9676 91.9647 88.6893 91.9647 84.6454C91.9647 80.6015 88.6864 77.3232 84.6425 77.3232C80.5986 77.3232 77.3203 80.6015 77.3203 84.6454C77.3203 88.6893 80.5986 91.9676 84.6425 91.9676Z" fill="#09A4CE"/>
</svg>
