<svg width="220" height="220" viewBox="0 0 220 220" fill="none" xmlns="http://www.w3.org/2000/svg">
<rect width="220" height="220" rx="10" fill="#F8F8F8"/>
<path d="M63.3049 94.8113L103.036 52.2358L142.768 49.0244C142.768 49.0244 149.15 102.816 103.036 159.867C56.9225 155.962 63.3049 94.8113 63.3049 94.8113Z" fill="#0063C0"/>
<path d="M142.755 49L151.696 54.1577L111.964 57.3691L103.036 52.2114L142.755 49Z" fill="url(#paint0_linear_633_2039)"/>
<path d="M72.2443 99.9691L111.976 57.3936L128.309 55.7514L151.707 54.1821C151.707 54.1821 158.09 107.973 111.976 165.024C65.8619 161.12 72.2443 99.9691 72.2443 99.9691Z" fill="#2C99FF"/>
<path d="M72.2443 99.9688L111.976 57.3932L151.707 54.1818L150.575 53.5371L110.38 56.7607L70.6487 99.3362C70.6487 99.3362 65.326 150.427 99.6617 162.178C67.0799 149.429 72.2443 99.9688 72.2443 99.9688Z" fill="#2C99FF"/>
<path d="M104.23 103.499L99.5234 124.785L95.8174 127L91.0244 111.367L94.2857 109.432L96.361 117.197C96.8551 118.954 97.201 120.596 97.6951 122.379L97.7939 122.315C98.2881 119.947 98.6216 117.898 99.1034 115.568L101.092 105.383L104.23 103.499Z" fill="white"/>
<path d="M111.123 99.387C114.57 97.3374 117.226 97.2101 117.238 101.577C117.152 103.591 116.552 105.547 115.498 107.246C114.443 108.944 112.973 110.326 111.235 111.252L109.159 112.525V119.081L106.059 120.94V102.468L111.123 99.387ZM111.025 108.464C111.965 108.011 112.762 107.292 113.322 106.39C113.882 105.489 114.182 104.442 114.187 103.372C114.187 101.233 113.05 101.182 110.901 102.455L109.135 103.512V109.559L111.012 108.451" fill="white"/>
<path d="M131.95 87V105.472L128.8 107.344L124.316 100.113L122.722 97.0955H122.624C122.772 99.0178 123.019 101.195 123.019 103.308V110.705L120.066 112.461V94.0019L123.241 92.105L127.787 99.2597L129.356 102.315H129.467C129.307 100.482 129.047 98.1903 129.047 96.1025V88.7186L131.95 87Z" fill="white"/>
<g clip-path="url(#clip0_633_2039)">
<path d="M157 129.235V157.527L145.181 164.264L135.197 169.952L133.363 171V142.708L140.727 138.502L145.181 135.971L149.443 133.535H149.456L157 129.235Z" fill="#FFA610"/>
<path d="M124 137.373L133.364 142.707L157 129.235L147.636 123.914L124 137.373Z" fill="#FFE438"/>
<path d="M133.364 171L124 165.679V137.373L133.364 142.707V171Z" fill="#EE9500"/>
<path d="M146.299 150.124L146.906 154.656L143.555 156.561L143.831 153.377L143.996 151.444C143.265 151.444 142.755 150.805 142.755 149.784C142.8 148.966 143.039 148.171 143.453 147.461C143.868 146.752 144.446 146.149 145.141 145.701C146.52 144.953 147.54 145.552 147.54 147.062C147.477 148.189 147.041 149.265 146.299 150.124Z" fill="#202B33"/>
<path d="M146.933 154.656L143.596 156.561L143.858 153.39L146.933 154.656Z" fill="#364557"/>
<path d="M147.582 147.062C147.582 146.137 147.168 145.552 146.534 145.416C146.744 145.593 146.909 145.818 147.015 146.071C147.12 146.325 147.163 146.599 147.14 146.872C147.079 147.999 146.643 149.076 145.899 149.934L146.506 154.465L143.638 156.098V156.561L146.989 154.656L146.382 150.124C147.109 149.26 147.53 148.185 147.582 147.062Z" fill="#EE9500"/>
<path d="M146.505 154.465L146.947 154.656L143.596 156.561L143.637 156.098L146.505 154.465Z" fill="#FFE438"/>
<path d="M149.18 116.933L148.974 116.81L149.18 116.933Z" fill="#202B33"/>
<path d="M148.947 116.81C148.511 116.612 148.045 116.483 147.568 116.429C146.08 116.252 144.572 116.517 143.238 117.191C142.921 117.341 142.59 117.504 142.259 117.695C139.294 119.519 136.853 122.063 135.17 125.084C133.41 127.969 132.418 131.246 132.288 134.61V139.795L129.53 138.434V133.25C129.723 129.852 130.725 126.547 132.455 123.603C134.185 120.659 136.594 118.159 139.487 116.307C142.052 114.837 144.396 114.606 146.175 115.422L148.947 116.81Z" fill="#161C24"/>
<path d="M148.947 116.81C148.51 116.612 148.045 116.483 147.568 116.429C146.08 116.252 144.572 116.517 143.237 117.191C142.92 117.341 142.589 117.504 142.258 117.695C139.294 119.519 136.853 122.063 135.17 125.084L132.412 123.723C134.085 120.727 136.512 118.205 139.459 116.402C142.024 114.932 144.368 114.701 146.147 115.517L148.947 116.81Z" fill="#364557"/>
<path d="M150.436 124.295V129.48L147.678 128.119V122.934C147.768 121.361 147.278 119.809 146.299 118.565C146.888 118.603 147.462 118.771 147.977 119.055C148.493 119.34 148.937 119.736 149.278 120.212C150.094 121.416 150.5 122.847 150.436 124.295Z" fill="#161C24"/>
<path d="M152.201 123.301V128.486L150.477 129.48V124.295C150.545 122.848 150.144 121.418 149.332 120.212C148.992 119.736 148.547 119.34 148.032 119.055C147.517 118.771 146.943 118.603 146.353 118.565C146.092 118.538 145.829 118.538 145.567 118.565C144.393 118.669 143.26 119.042 142.258 119.654C139.861 121.183 137.864 123.248 136.426 125.681C134.989 128.114 134.152 130.846 133.984 133.658V138.842L132.246 139.836V134.651C132.439 131.25 133.443 127.942 135.175 124.995C136.908 122.049 139.32 119.548 142.216 117.694C142.547 117.504 142.878 117.341 143.196 117.191C144.53 116.517 146.038 116.252 147.526 116.429C148.003 116.483 148.468 116.612 148.905 116.81L149.112 116.932C151.042 117.912 152.201 120.103 152.201 123.301Z" fill="#202B33"/>
</g>
<defs>
<linearGradient id="paint0_linear_633_2039" x1="103.024" y1="53.1724" x2="151.696" y2="53.1724" gradientUnits="userSpaceOnUse">
<stop stop-color="#0063AD"/>
<stop offset="1" stop-color="#2573BA"/>
</linearGradient>
<clipPath id="clip0_633_2039">
<rect width="33" height="56" fill="white" transform="translate(124 115)"/>
</clipPath>
</defs>
</svg>
