<svg width="364" height="218" viewBox="0 0 364 218" fill="none" xmlns="http://www.w3.org/2000/svg">
<path d="M252.602 50H114.176C111.749 50 109.781 51.9564 109.781 54.3697V141.933C109.781 144.347 111.749 146.303 114.176 146.303H252.602C255.029 146.303 256.997 144.347 256.997 141.933V54.3697C256.997 51.9564 255.029 50 252.602 50Z" fill="#CCD9E9"/>
<path d="M251.688 55.3936H115.094V140.909H251.688V55.3936Z" fill="#E7F3FF"/>
<g style="mix-blend-mode:overlay" opacity="0.1">
<g style="mix-blend-mode:overlay" opacity="0.1">
<path d="M115.094 55.3936V140.909H251.688L115.094 55.3936Z" fill="white"/>
</g>
</g>
<path d="M257.924 148.078L278.423 176.356H88L108.225 148.454C108.731 147.767 109.398 147.213 110.168 146.838C110.937 146.463 111.786 146.28 112.643 146.303H254.17C254.887 146.313 255.594 146.477 256.242 146.784C256.89 147.09 257.463 147.532 257.924 148.078Z" fill="#E9F3FF"/>
<path d="M278.412 176.356H88V178.432C88 180.642 89.7909 182.432 92 182.432H274.412C276.621 182.432 278.412 180.642 278.412 178.432V176.356Z" fill="#CCD9E9"/>
<path d="M114.645 149.319H251.171L262.731 165.523H103.68L114.645 149.319Z" fill="#CCD9E9"/>
<path d="M169.128 166.809H197.033L202.103 173.921H164.309L169.128 166.809Z" fill="#CCD9E9"/>
<path d="M159.463 99.2585H156.349C156.944 96.0846 156.508 92.8002 155.107 89.8999C153.705 86.9996 151.414 84.6405 148.578 83.1779C145.742 81.7154 142.516 81.2286 139.384 81.7908C136.252 82.3531 133.385 83.934 131.215 86.2954C129.076 80.9934 125.069 76.6919 119.975 74.2313C114.882 71.7707 109.069 71.3278 103.671 72.9891C98.2736 74.6504 93.6796 78.2966 90.7867 83.2152C87.8937 88.1339 86.9098 93.9716 88.027 99.588H85.3877C83.3576 99.5975 81.3491 100.013 79.4772 100.811C77.6052 101.609 75.9063 102.774 74.4774 104.24C73.0485 105.705 71.9177 107.442 71.1495 109.351C70.3813 111.26 69.9908 113.304 70.0002 115.367C70.0096 117.429 70.4187 119.47 71.2043 121.372C71.9899 123.273 73.1365 124.999 74.5787 126.451C76.0209 127.903 77.7303 129.052 79.6095 129.832C81.4887 130.613 83.5008 131.009 85.531 131L159.61 130.659C163.71 130.64 167.635 128.967 170.521 126.009C173.407 123.05 175.018 119.048 175 114.882C174.981 110.717 173.335 106.729 170.423 103.797C167.51 100.865 163.571 99.2282 159.471 99.247L159.463 99.2585Z" fill="#485F74"/>
<path d="M111.548 112.581H106.676V111.433H111.548V112.581ZM111.548 110.033H106.676V108.801H104.842V114.051H113.382V108.801H111.548V110.033ZM106.158 106.463C105.22 106.463 104.534 105.889 104.534 104.923C104.534 103.957 105.22 103.383 106.158 103.383C107.11 103.383 107.796 103.957 107.796 104.923C107.796 105.889 107.11 106.463 106.158 106.463ZM111.534 101.311V104.153H109.476C109.112 102.781 107.796 101.843 106.158 101.843C104.226 101.843 102.77 103.131 102.77 104.923C102.77 106.715 104.226 108.003 106.158 108.003C107.824 108.003 109.14 107.051 109.49 105.651H111.534V108.241H113.382V101.311H111.534ZM123.951 105.693H118.645V103.397H123.951V105.693ZM125.757 101.941H116.825V107.149H125.757V101.941ZM127.157 108.521H115.481V109.991H120.353V114.205H122.201V109.991H127.157V108.521ZM133.064 106.561H130.544V103.691H133.064V106.561ZM134.884 102.235H128.738V108.017H134.884V102.235ZM134.296 112.777C132.658 112.777 131.762 112.427 131.762 111.671C131.762 110.929 132.658 110.565 134.296 110.565C135.934 110.565 136.816 110.929 136.816 111.671C136.816 112.427 135.934 112.777 134.296 112.777ZM134.296 109.123C131.622 109.123 129.928 110.075 129.928 111.671C129.928 113.281 131.622 114.219 134.296 114.219C136.956 114.219 138.65 113.281 138.65 111.671C138.65 110.075 136.956 109.123 134.296 109.123ZM138.51 104.195V101.311H136.662V108.787H138.51V105.721H140.218V104.195H138.51Z" fill="#B9C8D5"/>
<path d="M279.463 99.2585H276.349C276.944 96.0846 276.508 92.8002 275.107 89.8999C273.705 86.9996 271.414 84.6405 268.578 83.1779C265.742 81.7154 262.516 81.2286 259.384 81.7908C256.252 82.3531 253.385 83.934 251.215 86.2954C249.076 80.9934 245.069 76.6919 239.975 74.2313C234.882 71.7707 229.069 71.3278 223.671 72.9891C218.274 74.6504 213.68 78.2966 210.787 83.2152C207.894 88.1339 206.91 93.9716 208.027 99.588H205.388C203.358 99.5975 201.349 100.013 199.477 100.811C197.605 101.609 195.906 102.774 194.477 104.24C193.049 105.705 191.918 107.442 191.15 109.351C190.381 111.26 189.991 113.304 190 115.367C190.01 117.429 190.419 119.47 191.204 121.372C191.99 123.273 193.137 124.999 194.579 126.451C196.021 127.903 197.73 129.052 199.61 129.832C201.489 130.613 203.501 131.009 205.531 131L279.61 130.659C283.71 130.64 287.635 128.967 290.521 126.009C293.407 123.05 295.018 119.048 295 114.882C294.981 110.717 293.335 106.729 290.423 103.797C287.51 100.865 283.571 99.2282 279.471 99.247L279.463 99.2585Z" fill="#007DF1"/>
<path d="M224.953 102.738H223.105V111.068H224.001C225.289 111.068 226.773 110.998 228.453 110.69L228.299 109.136C227.067 109.36 225.961 109.444 224.953 109.472V102.738ZM231.883 101.296V106.266H230.721V101.534H228.999V113.588H230.721V107.764H231.883V114.19H233.647V101.296H231.883ZM243.95 106.042H238.644V104.712H243.95V106.042ZM245.77 101.8H243.95V103.27H238.644V101.8H236.81V107.512H245.77V101.8ZM247.156 108.73H235.48V110.2H240.352V114.218H242.2V110.2H247.156V108.73ZM253.063 106.56H250.543V103.69H253.063V106.56ZM254.883 102.234H248.737V108.016H254.883V102.234ZM254.295 112.776C252.657 112.776 251.761 112.426 251.761 111.67C251.761 110.928 252.657 110.564 254.295 110.564C255.933 110.564 256.815 110.928 256.815 111.67C256.815 112.426 255.933 112.776 254.295 112.776ZM254.295 109.122C251.621 109.122 249.927 110.074 249.927 111.67C249.927 113.28 251.621 114.218 254.295 114.218C256.955 114.218 258.649 113.28 258.649 111.67C258.649 110.074 256.955 109.122 254.295 109.122ZM258.509 104.194V101.31H256.661V108.786H258.509V105.72H260.217V104.194H258.509Z" fill="#D3EAFF"/>
</svg>
