<svg width="90" height="90" viewBox="0 0 90 90" fill="none" xmlns="http://www.w3.org/2000/svg">
<g opacity="0.01">
<rect opacity="0.01" width="90" height="90" fill="white" fill-opacity="0.01"/>
<rect x="5.75" y="5.75" width="78.5" height="78.5" stroke="black" stroke-opacity="0.1" stroke-width="0.25"/>
<rect x="11.375" y="0.125" width="67.25" height="89.75" stroke="black" stroke-opacity="0.1" stroke-width="0.25"/>
<circle cx="45" cy="45" r="44.875" stroke="black" stroke-opacity="0.1" stroke-width="0.25"/>
<rect x="0.125" y="11.375" width="89.75" height="67.25" stroke="black" stroke-opacity="0.1" stroke-width="0.25"/>
<path d="M0.703125 0.703125L89.2969 89.2969" stroke="black" stroke-opacity="0.1" stroke-width="0.25" stroke-linecap="square"/>
<path d="M89.2969 0.703125L0.703125 89.2969" stroke="black" stroke-opacity="0.1" stroke-width="0.25" stroke-linecap="square"/>
</g>
<g filter="url(#filter0_ii_1127_37875)">
<path d="M80.625 11.25C82.6961 11.25 84.375 12.9289 84.375 15V61.875C84.375 63.9461 82.6961 65.625 80.625 65.625H9.375C7.30393 65.625 5.625 63.9461 5.625 61.875V15C5.625 12.9289 7.30393 11.25 9.375 11.25H80.625Z" fill="url(#paint0_linear_1127_37875)"/>
</g>
<g filter="url(#filter1_i_1127_37875)">
<path d="M84.375 52.5V61.875C84.375 63.9461 82.6961 65.625 80.625 65.625H9.375C7.30393 65.625 5.625 63.9461 5.625 61.875V52.5H84.375Z" fill="url(#paint1_linear_1127_37875)"/>
</g>
<rect x="22.5" y="79.6875" width="45" height="4.6875" rx="1.5" fill="url(#paint2_linear_1127_37875)"/>
<path fill-rule="evenodd" clip-rule="evenodd" d="M37.5 65.625H52.5L53.9465 76.2477C54.0239 76.8156 54.2622 77.3495 54.6335 77.7861L56.25 79.6875H33.75L35.3835 77.7944C35.7647 77.3527 36.0087 76.8094 36.0859 76.2311L37.5 65.625Z" fill="url(#paint3_linear_1127_37875)"/>
<circle cx="45" cy="58.5" r="1.875" fill="#5B6B74"/>
<defs>
<filter id="filter0_ii_1127_37875" x="4.625" y="10.25" width="80.75" height="56.375" filterUnits="userSpaceOnUse" color-interpolation-filters="sRGB">
<feFlood flood-opacity="0" result="BackgroundImageFix"/>
<feBlend mode="normal" in="SourceGraphic" in2="BackgroundImageFix" result="shape"/>
<feColorMatrix in="SourceAlpha" type="matrix" values="0 0 0 0 0 0 0 0 0 0 0 0 0 0 0 0 0 0 127 0" result="hardAlpha"/>
<feOffset dx="-1" dy="-1"/>
<feGaussianBlur stdDeviation="0.5"/>
<feComposite in2="hardAlpha" operator="arithmetic" k2="-1" k3="1"/>
<feColorMatrix type="matrix" values="0 0 0 0 0.137255 0 0 0 0 0.607843 0 0 0 0 0.729412 0 0 0 0.4 0"/>
<feBlend mode="normal" in2="shape" result="effect1_innerShadow_1127_37875"/>
<feColorMatrix in="SourceAlpha" type="matrix" values="0 0 0 0 0 0 0 0 0 0 0 0 0 0 0 0 0 0 127 0" result="hardAlpha"/>
<feOffset dx="1" dy="1"/>
<feGaussianBlur stdDeviation="0.5"/>
<feComposite in2="hardAlpha" operator="arithmetic" k2="-1" k3="1"/>
<feColorMatrix type="matrix" values="0 0 0 0 0.341176 0 0 0 0 0.788235 0 0 0 0 0.901961 0 0 0 0.4 0"/>
<feBlend mode="normal" in2="effect1_innerShadow_1127_37875" result="effect2_innerShadow_1127_37875"/>
</filter>
<filter id="filter1_i_1127_37875" x="4.625" y="51.5" width="79.75" height="14.125" filterUnits="userSpaceOnUse" color-interpolation-filters="sRGB">
<feFlood flood-opacity="0" result="BackgroundImageFix"/>
<feBlend mode="normal" in="SourceGraphic" in2="BackgroundImageFix" result="shape"/>
<feColorMatrix in="SourceAlpha" type="matrix" values="0 0 0 0 0 0 0 0 0 0 0 0 0 0 0 0 0 0 127 0" result="hardAlpha"/>
<feOffset dx="-1" dy="-1"/>
<feGaussianBlur stdDeviation="0.5"/>
<feComposite in2="hardAlpha" operator="arithmetic" k2="-1" k3="1"/>
<feColorMatrix type="matrix" values="0 0 0 0 0 0 0 0 0 0 0 0 0 0 0 0 0 0 0.1 0"/>
<feBlend mode="normal" in2="shape" result="effect1_innerShadow_1127_37875"/>
</filter>
<linearGradient id="paint0_linear_1127_37875" x1="5.625" y1="13.2629" x2="8.41261" y2="67.7934" gradientUnits="userSpaceOnUse">
<stop stop-color="#94E9FA"/>
<stop offset="0.999169" stop-color="#17BCED"/>
</linearGradient>
<linearGradient id="paint1_linear_1127_37875" x1="91.6268" y1="65.0207" x2="91.4237" y2="51.7875" gradientUnits="userSpaceOnUse">
<stop stop-color="#D0D9E3"/>
<stop offset="1" stop-color="#E0E6EE"/>
</linearGradient>
<linearGradient id="paint2_linear_1127_37875" x1="67.5" y1="84.375" x2="67.5" y2="79.6875" gradientUnits="userSpaceOnUse">
<stop stop-color="#5B6B75"/>
<stop offset="1" stop-color="#8E9AA1"/>
</linearGradient>
<linearGradient id="paint3_linear_1127_37875" x1="37.5095" y1="65.625" x2="37.5095" y2="74.9882" gradientUnits="userSpaceOnUse">
<stop stop-color="#92A1AB"/>
<stop offset="1" stop-color="#BDC8D1"/>
</linearGradient>
</defs>
</svg>
