<svg width="220" height="220" viewBox="0 0 220 220" fill="none" xmlns="http://www.w3.org/2000/svg">
<rect width="220" height="220" rx="10" fill="#F8F8F8"/>
<g clip-path="url(#clip0_633_2041)">
<path d="M133.207 101.027L115.983 35.9096C115.879 35.4035 115.668 34.9252 115.365 34.5067C115.062 34.0882 114.673 33.739 114.224 33.4823L114.302 33.1089L112.964 33C112.49 33.0161 112.029 33.1555 111.626 33.4045L32.396 79.1655C31.4301 79.8478 30.6992 80.8124 30.3036 81.9268C29.9079 83.0412 29.8671 84.2508 30.1866 85.3894L47.3956 150.429C47.4835 150.987 47.76 151.498 48.1789 151.878C48.5979 152.257 49.1341 152.482 49.6984 152.514L50.9587 152.623L50.8654 152.265L131.542 105.695C132.266 105.183 132.815 104.459 133.113 103.624C133.411 102.789 133.444 101.882 133.207 101.027Z" fill="url(#paint0_linear_633_2041)"/>
<path d="M112.871 33.5292L33.6257 79.2746C32.6608 79.9573 31.9316 80.9227 31.5387 82.0375C31.1457 83.1523 31.1084 84.3615 31.4318 85.4984L48.5474 150.6C49.0142 152.374 50.5235 153.167 51.9239 152.374L132.834 105.695C133.558 105.183 134.107 104.46 134.405 103.624C134.703 102.789 134.735 101.882 134.499 101.027L117.29 35.9098C116.668 33.5603 114.676 32.5333 112.84 33.5914L112.871 33.5292Z" fill="#494855"/>
<path d="M115.002 35.2715L32.8008 82.7284L49.6052 146.321L131.807 98.8638L115.002 35.2715Z" fill="#2C99FF"/>
<path d="M49.5895 98.6619L46.7887 100.218C46.7036 100.272 46.6009 100.291 46.5022 100.27C46.4036 100.25 46.3166 100.192 46.2597 100.109L46.1664 99.9845C46.1396 99.9417 46.1044 99.9048 46.0629 99.876C46.0215 99.8472 45.9746 99.8271 45.9251 99.8169C45.8757 99.8067 45.8247 99.8067 45.7752 99.8167C45.7257 99.8268 45.6788 99.8468 45.6373 99.8756L43.1167 101.338C43.0083 101.406 42.9188 101.5 42.8562 101.611C42.7937 101.723 42.7602 101.848 42.7588 101.976V102.458C42.7588 102.458 42.7588 102.567 42.7588 102.614L43.9413 107.484C43.9487 107.531 43.9679 107.575 43.997 107.612C44.026 107.65 44.0641 107.679 44.1076 107.698C44.1511 107.717 44.1987 107.724 44.2458 107.719C44.2929 107.714 44.338 107.698 44.377 107.671L50.9898 103.859C51.0867 103.797 51.1633 103.708 51.2103 103.603C51.2573 103.498 51.2726 103.381 51.2544 103.268L50.1807 98.8486C50.1606 98.7921 50.1276 98.7409 50.0843 98.6992C50.0411 98.6576 49.9888 98.6265 49.9315 98.6084C49.8742 98.5903 49.8135 98.5857 49.7542 98.595C49.6949 98.6043 49.6385 98.6272 49.5895 98.6619Z" fill="#FFE568"/>
<path d="M49.8226 99.0661L43.2098 102.816C43.1143 102.879 43.0396 102.968 42.9953 103.074C42.951 103.179 42.939 103.295 42.9608 103.407L43.9411 107.499C43.9485 107.546 43.9676 107.59 43.9967 107.628C44.0258 107.665 44.0639 107.694 44.1074 107.713C44.1509 107.732 44.1984 107.739 44.2455 107.734C44.2926 107.73 44.3378 107.713 44.3768 107.686L50.9896 103.874C51.0864 103.812 51.1631 103.723 51.21 103.618C51.257 103.513 51.2723 103.396 51.2541 103.283L50.2739 99.1906C50.2568 99.1487 50.2303 99.1114 50.1965 99.0814C50.1627 99.0514 50.1224 99.0295 50.0788 99.0175C50.0353 99.0055 49.9895 99.0036 49.9451 99.012C49.9007 99.0205 49.8588 99.039 49.8226 99.0661Z" fill="#FFEC8B"/>
<path d="M46.1507 87.2564L43.35 88.8123C43.2815 88.8736 43.1929 88.9074 43.101 88.9074C43.0092 88.9074 42.9206 88.8736 42.8521 88.8123L42.7587 88.6879C42.7018 88.6047 42.6149 88.5469 42.5162 88.5266C42.4175 88.5063 42.3148 88.5251 42.2297 88.579L39.7402 90.0571C39.6296 90.1263 39.5386 90.2228 39.476 90.3372C39.4133 90.4516 39.3811 90.5802 39.3823 90.7106V91.1774C39.3739 91.2289 39.3739 91.2815 39.3823 91.333L40.5493 96.2032C40.5567 96.2499 40.5758 96.2941 40.6049 96.3314C40.634 96.3688 40.6721 96.3981 40.7156 96.4168C40.7591 96.4354 40.8066 96.4428 40.8537 96.4381C40.9008 96.4334 40.946 96.4168 40.9849 96.3899L47.52 92.5778C47.6155 92.515 47.6901 92.4253 47.7345 92.32C47.7788 92.2147 47.7908 92.0986 47.7689 91.9865L46.7109 87.5676C46.7049 87.5048 46.6837 87.4445 46.6491 87.3917C46.6146 87.339 46.5677 87.2954 46.5126 87.2648C46.4575 87.2341 46.3957 87.2174 46.3327 87.2159C46.2697 87.2145 46.2072 87.2283 46.1507 87.2564Z" fill="#FFE568"/>
<path d="M46.3839 87.7079L39.7399 91.5356C39.6429 91.5968 39.5669 91.6863 39.5224 91.7921C39.4779 91.8978 39.4669 92.0147 39.491 92.1269L40.4712 96.2035C40.4786 96.2503 40.4978 96.2944 40.5268 96.3318C40.5559 96.3691 40.594 96.3985 40.6375 96.4171C40.681 96.4358 40.7286 96.4431 40.7757 96.4384C40.8228 96.4337 40.8679 96.4171 40.9069 96.3902L47.5197 92.5781C47.6152 92.5154 47.6899 92.4257 47.7342 92.3204C47.7786 92.2151 47.7906 92.099 47.7687 91.9869L46.7884 87.8947C46.7766 87.8542 46.7562 87.8167 46.7286 87.7847C46.701 87.7527 46.6669 87.727 46.6286 87.7093C46.5903 87.6917 46.5486 87.6824 46.5064 87.6821C46.4642 87.6819 46.4224 87.6907 46.3839 87.7079Z" fill="#FFEC8B"/>
<path d="M113.26 46.0857L110.443 47.6416C110.403 47.6711 110.357 47.6921 110.308 47.7034C110.259 47.7146 110.208 47.716 110.159 47.7072C110.11 47.6985 110.062 47.68 110.02 47.6527C109.978 47.6254 109.942 47.5899 109.914 47.5483V47.4238C109.887 47.381 109.852 47.3441 109.811 47.3153C109.769 47.2865 109.722 47.2664 109.673 47.2562C109.624 47.246 109.573 47.246 109.523 47.2561C109.474 47.2662 109.427 47.2862 109.385 47.3149L106.849 48.7775C106.743 48.8474 106.654 48.9418 106.592 49.0528C106.53 49.1638 106.495 49.2882 106.491 49.4154V49.9134C106.483 49.965 106.483 50.0174 106.491 50.069L107.658 54.9391C107.668 54.9862 107.689 55.0302 107.72 55.0672C107.751 55.1043 107.79 55.1333 107.834 55.1517C107.879 55.17 107.927 55.1773 107.975 55.1728C108.023 55.1683 108.069 55.1522 108.109 55.1259L114.722 51.2982C114.818 51.2354 114.892 51.1457 114.937 51.0404C114.981 50.9351 114.993 50.819 114.971 50.7069L113.913 46.288C113.905 46.2159 113.876 46.1477 113.83 46.0918C113.783 46.0359 113.722 45.9947 113.652 45.9732C113.583 45.9518 113.509 45.951 113.439 45.971C113.369 45.9909 113.307 46.0308 113.26 46.0857Z" fill="#FFE568"/>
<path d="M113.493 46.4904L106.865 50.3026C106.77 50.3653 106.695 50.455 106.651 50.5603C106.606 50.6656 106.594 50.7817 106.616 50.8938L107.596 54.986C107.606 55.0331 107.627 55.0771 107.658 55.1141C107.689 55.1512 107.728 55.1801 107.773 55.1985C107.817 55.2169 107.865 55.2242 107.913 55.2197C107.961 55.2152 108.007 55.1991 108.048 55.1727L114.66 51.3451C114.756 51.2823 114.831 51.1926 114.875 51.0873C114.919 50.982 114.931 50.8659 114.909 50.7538L113.929 46.6772C113.926 46.6279 113.91 46.5805 113.882 46.5401C113.853 46.4997 113.815 46.468 113.769 46.4486C113.724 46.4292 113.674 46.4228 113.625 46.4302C113.577 46.4376 113.531 46.4585 113.493 46.4904Z" fill="#FFEC8B"/>
<path d="M131.076 96.0942L48.874 143.551L49.6053 146.321L131.807 98.8639L131.076 96.0942Z" fill="#C4C8D8"/>
<path d="M114.567 98.7553L64.9779 127.385L54.3507 87.1789L52.748 81.0795L102.337 52.4497L103.939 58.5491L114.567 98.7553Z" fill="#EFF0F5"/>
<path d="M103.939 58.5491L54.3507 87.1789L52.748 81.0795L102.337 52.4497L103.939 58.5491Z" fill="#C4C8D8"/>
<path d="M55.5333 84.876L58.8008 82.9933L58.1317 80.457L54.8486 82.3397L55.5333 84.876Z" fill="#FC797E"/>
<g style="mix-blend-mode:screen">
<path d="M97.3732 42.4604V121.395L63.002 141.233V62.299L97.3732 42.4604Z" fill="#323333"/>
</g>
<path d="M190 137.545V134.433L187.511 134.729L138.264 106.348C137.388 105.9 136.417 105.667 135.432 105.667C134.448 105.667 133.477 105.9 132.601 106.348L56.8562 150.32L51.6748 150.942V154.163C51.6816 154.533 51.7954 154.893 52.0025 155.199C52.2097 155.506 52.5012 155.746 52.8418 155.89L102.959 184.831C104.164 185.447 105.497 185.768 106.849 185.768C108.202 185.768 109.535 185.447 110.739 184.831L188.351 139.708C188.772 139.505 189.136 139.199 189.408 138.818C189.68 138.437 189.851 137.994 189.907 137.53L190 137.545Z" fill="url(#paint1_linear_633_2041)"/>
<path d="M188.381 132.27L138.264 103.33C137.387 102.882 136.416 102.648 135.432 102.648C134.447 102.648 133.477 102.882 132.6 103.33L52.9033 149.651C52.5628 149.767 52.2673 149.988 52.058 150.281C51.8488 150.573 51.7363 150.924 51.7363 151.284C51.7363 151.644 51.8488 151.995 52.058 152.288C52.2673 152.581 52.5628 152.801 52.9033 152.918L103.021 181.859C104.225 182.475 105.558 182.796 106.911 182.796C108.263 182.796 109.597 182.475 110.801 181.859L188.412 136.736C190.544 135.491 190.529 133.484 188.412 132.239L188.381 132.27Z" fill="#EFF0F5"/>
<path d="M167.61 122.422L138.046 105.306C137.467 105.007 136.824 104.851 136.171 104.851C135.519 104.851 134.876 105.007 134.297 105.306L56.3893 150.616C56.1623 150.693 55.9653 150.84 55.8258 151.036C55.6863 151.231 55.6113 151.465 55.6113 151.705C55.6113 151.945 55.6863 152.179 55.8258 152.374C55.9653 152.569 56.1623 152.716 56.3893 152.794L85.9527 169.91C86.5347 170.201 87.1766 170.353 87.8276 170.353C88.4786 170.353 89.1206 170.201 89.7025 169.91L167.625 124.6C167.852 124.52 168.048 124.372 168.186 124.176C168.324 123.98 168.397 123.745 168.396 123.505C168.394 123.265 168.317 123.032 168.176 122.837C168.035 122.643 167.837 122.498 167.61 122.422Z" fill="#E1E3EB"/>
<path d="M163.844 147.037L149.14 138.604C148.658 138.358 148.125 138.229 147.584 138.229C147.043 138.229 146.51 138.358 146.028 138.604L113.726 157.275C113.543 157.344 113.385 157.468 113.274 157.629C113.162 157.79 113.103 157.982 113.103 158.178C113.103 158.374 113.162 158.565 113.274 158.726C113.385 158.887 113.543 159.011 113.726 159.08L128.43 167.607C128.914 167.844 129.447 167.968 129.986 167.968C130.526 167.968 131.058 167.844 131.542 167.607L163.828 148.826C164.013 148.761 164.173 148.64 164.287 148.479C164.4 148.319 164.461 148.128 164.461 147.932C164.461 147.735 164.4 147.544 164.287 147.384C164.173 147.224 164.013 147.102 163.828 147.037H163.844Z" fill="#D9DBE6"/>
<path d="M113.727 157.758L146.028 138.993C146.51 138.747 147.043 138.618 147.584 138.618C148.125 138.618 148.659 138.747 149.14 138.993L163.844 147.488C164.124 147.626 164.341 147.865 164.451 148.157C164.5 147.929 164.466 147.69 164.354 147.485C164.243 147.28 164.062 147.121 163.844 147.037L149.14 138.604C148.659 138.358 148.125 138.229 147.584 138.229C147.043 138.229 146.51 138.358 146.028 138.604L113.727 157.275C113.213 157.586 113.011 158.006 113.135 158.395C113.25 158.119 113.46 157.893 113.727 157.758Z" fill="#C5C9D8"/>
<path d="M69.6299 153.432V153.012H69.3032L65.74 151.051C65.539 150.944 65.3145 150.887 65.0865 150.887C64.8585 150.887 64.634 150.944 64.433 151.051L60.8699 153.121H60.5742V153.51C60.5886 153.585 60.6199 153.657 60.6657 153.719C60.7115 153.781 60.7706 153.831 60.8387 153.867L64.4641 155.952C64.669 156.047 64.8919 156.096 65.1176 156.096C65.3433 156.096 65.5663 156.047 65.7711 155.952L69.3032 153.821C69.3884 153.793 69.4642 153.741 69.5219 153.673C69.5796 153.604 69.6171 153.521 69.6299 153.432Z" fill="#393842"/>
<path d="M92.4561 166.611V166.19H92.1137L88.5661 164.152C88.3651 164.045 88.1406 163.988 87.9126 163.988C87.6846 163.988 87.4601 164.045 87.2591 164.152L83.696 166.206H83.3848V166.611C83.3956 166.688 83.4254 166.761 83.4716 166.823C83.5178 166.886 83.5789 166.936 83.6493 166.968L87.2591 169.054C87.466 169.151 87.6918 169.201 87.9204 169.201C88.149 169.201 88.3748 169.151 88.5817 169.054L92.176 166.968C92.2485 166.936 92.312 166.887 92.3608 166.825C92.4097 166.762 92.4424 166.689 92.4561 166.611Z" fill="#393842"/>
<path d="M98.0889 163.343V162.923H97.7465L94.1989 160.869C93.9941 160.775 93.7711 160.726 93.5454 160.726C93.3198 160.726 93.0968 160.775 92.8919 160.869L89.3288 162.939H89.0176V163.343C89.0265 163.419 89.0558 163.491 89.1024 163.551C89.149 163.612 89.2111 163.658 89.2821 163.686L92.8919 165.771C93.0969 165.875 93.3234 165.929 93.5532 165.929C93.783 165.929 94.0096 165.875 94.2145 165.771L97.8088 163.67C97.879 163.643 97.9414 163.599 97.9903 163.542C98.0392 163.485 98.0731 163.417 98.0889 163.343Z" fill="#393842"/>
<path d="M103.722 160.076V159.64H103.379L99.8318 157.602C99.6296 157.498 99.4055 157.444 99.1783 157.444C98.951 157.444 98.727 157.498 98.5247 157.602L94.9616 159.671H94.6504V160.076C94.6598 160.153 94.6891 160.227 94.7355 160.29C94.7818 160.352 94.8436 160.402 94.9149 160.434L98.5247 162.519C98.7286 162.626 98.9556 162.683 99.186 162.683C99.4165 162.683 99.6435 162.626 99.8473 162.519L103.535 160.387C103.635 160.311 103.702 160.2 103.722 160.076Z" fill="#393842"/>
<path d="M109.354 156.793V156.373H108.997L105.465 154.334C105.264 154.227 105.039 154.17 104.811 154.17C104.583 154.17 104.359 154.227 104.158 154.334L100.594 156.388H100.283V156.793C100.294 156.87 100.324 156.943 100.37 157.005C100.416 157.068 100.477 157.118 100.548 157.151L104.158 159.236C104.364 159.333 104.59 159.383 104.819 159.383C105.047 159.383 105.273 159.333 105.48 159.236L109.074 157.151C109.147 157.119 109.21 157.069 109.259 157.007C109.308 156.944 109.341 156.871 109.354 156.793Z" fill="#393842"/>
<path d="M75.2627 150.164V149.744H74.9204L71.3728 147.69C71.168 147.595 70.945 147.546 70.7193 147.546C70.4936 147.546 70.2706 147.595 70.0658 147.69L66.5026 149.76H66.1914V150.164C66.2046 150.238 66.2356 150.308 66.2816 150.368C66.3277 150.428 66.3875 150.475 66.4559 150.507L70.0813 152.607C70.2882 152.704 70.514 152.755 70.7426 152.755C70.9712 152.755 71.197 152.704 71.4039 152.607L74.9982 150.507C75.0674 150.476 75.1279 150.429 75.1741 150.369C75.2203 150.309 75.2508 150.239 75.2627 150.164Z" fill="#393842"/>
<path d="M84.1161 151.58V151.16H83.7738L80.195 149.122C79.994 149.014 79.7695 148.958 79.5415 148.958C79.3135 148.958 79.0891 149.014 78.888 149.122L75.3249 151.191H75.0137V151.58C75.0231 151.658 75.0524 151.731 75.0987 151.794C75.1451 151.857 75.2069 151.907 75.2782 151.938L78.888 154.023C79.0918 154.131 79.3188 154.187 79.5493 154.187C79.7798 154.187 80.0068 154.131 80.2106 154.023L83.8049 151.938C83.8832 151.91 83.953 151.863 84.0075 151.8C84.062 151.737 84.0994 151.662 84.1161 151.58Z" fill="#393842"/>
<path d="M89.749 148.312V147.939H89.3911L85.8591 145.901C85.6581 145.793 85.4336 145.737 85.2056 145.737C84.9776 145.737 84.7531 145.793 84.5521 145.901L80.9889 147.939H80.6777V148.344C80.6886 148.421 80.7184 148.494 80.7646 148.556C80.8108 148.619 80.8719 148.669 80.9422 148.701L84.5521 150.786C84.759 150.884 84.9848 150.934 85.2134 150.934C85.442 150.934 85.6677 150.884 85.8747 150.786L89.5312 148.701C89.5961 148.659 89.6498 148.601 89.6877 148.534C89.7257 148.466 89.7467 148.39 89.749 148.312Z" fill="#393842"/>
<path d="M92.6427 153.261V152.84H92.3315L88.7839 150.802C88.5829 150.694 88.3584 150.638 88.1304 150.638C87.9024 150.638 87.6779 150.694 87.4769 150.802L83.9137 152.872H83.6025V153.261C83.6134 153.337 83.6432 153.411 83.6894 153.473C83.7356 153.536 83.7967 153.585 83.8671 153.618L87.4925 155.719C87.6994 155.816 87.9252 155.866 88.1537 155.866C88.3823 155.866 88.6081 155.816 88.815 155.719L92.4093 153.634C92.4751 153.595 92.5305 153.54 92.5711 153.475C92.6117 153.41 92.6362 153.337 92.6427 153.261Z" fill="#393842"/>
<path d="M98.4161 156.575V156.155H98.0738L94.5262 154.163C94.3239 154.059 94.0999 154.005 93.8727 154.005C93.6454 154.005 93.4214 154.059 93.2192 154.163L89.656 156.233H89.3604V156.637C89.3725 156.714 89.4028 156.786 89.4489 156.848C89.4949 156.911 89.5553 156.961 89.6249 156.995L93.2503 159.08C93.4513 159.188 93.6758 159.244 93.9038 159.244C94.1318 159.244 94.3563 159.188 94.5573 159.08L98.1516 156.995C98.2296 156.956 98.2954 156.896 98.342 156.822C98.3886 156.748 98.4142 156.662 98.4161 156.575Z" fill="#393842"/>
<path d="M104.048 153.307V152.887H103.706L100.158 150.849C99.957 150.741 99.7325 150.685 99.5045 150.685C99.2765 150.685 99.052 150.741 98.851 150.849L95.2878 152.903H94.9922V153.307C95.0066 153.383 95.0379 153.455 95.0837 153.516C95.1294 153.578 95.1886 153.629 95.2567 153.665L98.8665 155.719C99.0735 155.816 99.2992 155.867 99.5278 155.867C99.7564 155.867 99.9822 155.816 100.189 155.719L103.783 153.634C103.849 153.603 103.907 153.558 103.953 153.501C103.999 153.445 104.031 153.378 104.048 153.307Z" fill="#393842"/>
<path d="M109.759 150.04V149.62H109.416L105.869 147.566C105.664 147.471 105.441 147.422 105.215 147.422C104.99 147.422 104.767 147.471 104.562 147.566L100.999 149.635H100.688V150.04C100.696 150.115 100.726 150.187 100.772 150.248C100.819 150.308 100.881 150.354 100.952 150.382L104.562 152.467C104.767 152.571 104.993 152.625 105.223 152.625C105.453 152.625 105.679 152.571 105.884 152.467L109.479 150.366C109.549 150.34 109.611 150.296 109.66 150.239C109.709 150.182 109.743 150.113 109.759 150.04Z" fill="#393842"/>
<path d="M115.313 146.757V146.383H114.971L111.424 144.345C111.221 144.241 110.997 144.187 110.77 144.187C110.543 144.187 110.319 144.241 110.117 144.345L106.553 146.383H106.242V146.788C106.252 146.865 106.281 146.939 106.327 147.002C106.374 147.064 106.435 147.114 106.507 147.146L110.117 149.231C110.32 149.338 110.547 149.395 110.778 149.395C111.008 149.395 111.235 149.338 111.439 149.231L115.033 147.146C115.11 147.111 115.176 147.057 115.225 146.988C115.274 146.92 115.305 146.84 115.313 146.757Z" fill="#393842"/>
<path d="M120.946 143.489V143.069H120.651L117.103 141.031C116.902 140.923 116.678 140.867 116.45 140.867C116.222 140.867 115.997 140.923 115.796 141.031L112.233 143.084H111.922V143.489C111.933 143.566 111.963 143.639 112.009 143.702C112.055 143.764 112.116 143.814 112.186 143.847L115.796 145.932C116.003 146.029 116.229 146.079 116.458 146.079C116.686 146.079 116.912 146.029 117.119 145.932L120.651 143.878C120.73 143.845 120.8 143.792 120.852 143.724C120.904 143.655 120.936 143.574 120.946 143.489Z" fill="#393842"/>
<path d="M126.578 140.159V139.739H126.236L122.688 137.685C122.484 137.591 122.261 137.542 122.035 137.542C121.809 137.542 121.586 137.591 121.381 137.685L117.818 139.755H117.538V140.159C117.544 140.238 117.572 140.313 117.619 140.376C117.666 140.439 117.729 140.488 117.803 140.517L121.412 142.602C121.616 142.71 121.843 142.766 122.074 142.766C122.304 142.766 122.531 142.71 122.735 142.602L126.329 140.517C126.397 140.482 126.455 140.432 126.498 140.369C126.542 140.307 126.569 140.235 126.578 140.159Z" fill="#393842"/>
<path d="M132.211 136.939V136.518H131.853L128.321 134.48C128.119 134.376 127.895 134.322 127.668 134.322C127.44 134.322 127.216 134.376 127.014 134.48L123.451 136.55H123.14V136.939C123.149 137.016 123.178 137.09 123.225 137.152C123.271 137.215 123.333 137.265 123.404 137.296L127.014 139.381C127.215 139.489 127.44 139.545 127.668 139.545C127.896 139.545 128.12 139.489 128.321 139.381L131.931 137.296C132.003 137.264 132.067 137.215 132.116 137.153C132.165 137.09 132.197 137.017 132.211 136.939Z" fill="#393842"/>
<path d="M137.844 133.671V133.251H137.486L133.954 131.213C133.753 131.105 133.528 131.049 133.3 131.049C133.072 131.049 132.848 131.105 132.647 131.213L129.084 133.267H128.772V133.671C128.79 133.748 128.824 133.82 128.872 133.882C128.921 133.944 128.982 133.994 129.053 134.029L132.662 136.114C132.867 136.209 133.09 136.258 133.316 136.258C133.542 136.258 133.765 136.209 133.969 136.114L137.564 134.029C137.636 133.997 137.7 133.948 137.748 133.885C137.797 133.823 137.83 133.749 137.844 133.671Z" fill="#393842"/>
<path d="M143.476 130.404V129.984H143.118L139.586 127.93C139.379 127.833 139.154 127.782 138.925 127.782C138.697 127.782 138.471 127.833 138.264 127.93L134.654 129.999H134.343V130.404C134.349 130.496 134.381 130.585 134.437 130.66C134.492 130.734 134.567 130.791 134.654 130.824L138.264 132.909C138.465 133.016 138.689 133.073 138.917 133.073C139.145 133.073 139.37 133.016 139.571 132.909L143.196 130.824C143.383 130.689 143.476 130.549 143.476 130.404Z" fill="#393842"/>
<path d="M149.498 133.469V133.033H149.156L145.546 130.995C145.343 130.891 145.119 130.837 144.892 130.837C144.665 130.837 144.441 130.891 144.239 130.995L140.691 133.064H140.38V133.469C140.392 133.545 140.422 133.618 140.468 133.68C140.514 133.742 140.575 133.793 140.644 133.827L144.27 135.912C144.471 136.019 144.695 136.076 144.923 136.076C145.151 136.076 145.376 136.019 145.577 135.912L149.171 133.827C149.254 133.804 149.329 133.759 149.387 133.695C149.444 133.632 149.483 133.553 149.498 133.469Z" fill="#393842"/>
<path d="M155.131 130.186V129.766H154.789L151.241 127.712C151.04 127.604 150.816 127.548 150.588 127.548C150.359 127.548 150.135 127.604 149.934 127.712L146.386 129.766H146.075V130.17C146.09 130.246 146.121 130.317 146.167 130.379C146.212 130.441 146.272 130.492 146.34 130.528L149.965 132.613C150.17 132.708 150.393 132.757 150.619 132.757C150.844 132.757 151.067 132.708 151.272 132.613L154.866 130.528C154.936 130.498 154.996 130.45 155.042 130.391C155.089 130.331 155.119 130.26 155.131 130.186Z" fill="#393842"/>
<path d="M166.536 123.557V123.137H166.194L162.662 121.099C162.461 120.991 162.236 120.935 162.008 120.935C161.78 120.935 161.556 120.991 161.355 121.099L157.792 123.168H157.496V123.557C157.511 123.633 157.542 123.705 157.588 123.766C157.633 123.828 157.692 123.879 157.761 123.915L161.386 126C161.591 126.095 161.814 126.144 162.04 126.144C162.265 126.144 162.488 126.095 162.693 126L166.287 123.915C166.354 123.879 166.411 123.828 166.455 123.766C166.498 123.704 166.526 123.632 166.536 123.557Z" fill="#393842"/>
<path d="M160.529 119.932L156.982 117.878C156.777 117.783 156.554 117.734 156.328 117.734C156.103 117.734 155.88 117.783 155.675 117.878L155.161 118.173L152.049 119.947H151.769V120.134L151.583 120.243H151.271V120.647C151.285 120.725 151.318 120.799 151.367 120.861C151.416 120.924 151.479 120.973 151.552 121.005L155.193 123.044C155.394 123.151 155.618 123.207 155.846 123.207C156.074 123.207 156.299 123.151 156.5 123.044L160.607 120.663C160.681 120.63 160.744 120.578 160.79 120.512C160.837 120.447 160.865 120.37 160.872 120.29V119.932H160.529Z" fill="#393842"/>
<path d="M149.109 127.121V126.701H148.752L145.219 124.6C145.016 124.492 144.789 124.436 144.558 124.436C144.328 124.436 144.101 124.492 143.897 124.6L140.349 126.669H140.038V127.058C140.054 127.136 140.088 127.208 140.136 127.27C140.185 127.332 140.247 127.382 140.318 127.416L143.99 129.595C144.191 129.702 144.416 129.758 144.644 129.758C144.872 129.758 145.096 129.702 145.297 129.595L148.892 127.51C148.956 127.467 149.01 127.41 149.048 127.342C149.086 127.274 149.107 127.198 149.109 127.121Z" fill="#393842"/>
<path d="M154.726 123.853V123.433H154.383L150.836 121.394C150.635 121.287 150.41 121.23 150.182 121.23C149.954 121.23 149.73 121.287 149.529 121.394L145.981 123.448H145.67V123.853C145.687 123.93 145.721 124.001 145.77 124.063C145.818 124.125 145.88 124.176 145.95 124.211L149.56 126.296C149.765 126.39 149.988 126.44 150.213 126.44C150.439 126.44 150.662 126.39 150.867 126.296L154.461 124.211C154.648 124.133 154.741 123.993 154.726 123.853Z" fill="#393842"/>
<path d="M98.3066 149.993V149.573H97.9643L94.4167 147.519C94.2118 147.424 93.9888 147.375 93.7632 147.375C93.5375 147.375 93.3145 147.424 93.1096 147.519L89.5309 149.588H89.2197V149.993C89.2286 150.069 89.2579 150.14 89.3045 150.201C89.3511 150.261 89.4133 150.307 89.4842 150.335L93.0941 152.436C93.301 152.533 93.5268 152.583 93.7554 152.583C93.984 152.583 94.2097 152.533 94.4167 152.436L98.0109 150.335C98.086 150.309 98.1528 150.264 98.2047 150.204C98.2566 150.144 98.2918 150.071 98.3066 149.993Z" fill="#393842"/>
<path d="M103.939 146.726V146.383H103.535L100.003 144.329C99.798 144.235 99.575 144.186 99.3493 144.186C99.1236 144.186 98.9007 144.235 98.6958 144.329L95.1794 146.383H94.8682V146.788C94.8743 146.866 94.9024 146.941 94.9491 147.005C94.9959 147.068 95.0595 147.117 95.1327 147.146L98.7425 149.231C98.9435 149.338 99.168 149.395 99.396 149.395C99.624 149.395 99.8485 149.338 100.05 149.231L103.659 147.146C103.74 147.108 103.809 147.049 103.859 146.975C103.908 146.901 103.936 146.815 103.939 146.726Z" fill="#393842"/>
<path d="M109.572 143.443V143.023H109.214L105.682 140.984C105.481 140.877 105.257 140.82 105.029 140.82C104.801 140.82 104.576 140.877 104.375 140.984L100.812 143.054H100.501V143.443C100.518 143.519 100.552 143.591 100.601 143.653C100.649 143.715 100.711 143.765 100.781 143.8L104.391 145.885C104.596 145.98 104.819 146.029 105.044 146.029C105.27 146.029 105.493 145.98 105.698 145.885L109.292 143.8C109.365 143.768 109.428 143.719 109.477 143.657C109.526 143.594 109.559 143.521 109.572 143.443Z" fill="#393842"/>
<path d="M115.204 140.159V139.739H114.846L111.314 137.701C111.107 137.604 110.881 137.553 110.653 137.553C110.424 137.553 110.199 137.604 109.992 137.701L106.444 139.77H106.133V140.159C106.149 140.234 106.183 140.305 106.231 140.364C106.28 140.424 106.342 140.471 106.413 140.501L110.023 142.602C110.228 142.697 110.451 142.746 110.676 142.746C110.902 142.746 111.125 142.697 111.33 142.602L114.924 140.501C114.997 140.475 115.061 140.429 115.111 140.369C115.16 140.308 115.192 140.236 115.204 140.159Z" fill="#393842"/>
<path d="M120.837 136.908V136.488H120.479L116.947 134.434C116.74 134.337 116.514 134.286 116.286 134.286C116.057 134.286 115.831 134.337 115.624 134.434L112.077 136.503H111.766V136.908C111.779 136.986 111.812 137.059 111.861 137.122C111.91 137.184 111.973 137.233 112.046 137.266L115.656 139.351C115.857 139.458 116.081 139.514 116.309 139.514C116.537 139.514 116.762 139.458 116.963 139.351L120.557 137.266C120.629 137.233 120.693 137.184 120.742 137.122C120.791 137.059 120.823 136.986 120.837 136.908Z" fill="#393842"/>
<path d="M126.454 133.624V133.204H126.112L122.564 131.166C122.363 131.058 122.139 131.002 121.911 131.002C121.683 131.002 121.458 131.058 121.257 131.166L117.71 133.235H117.398V133.624C117.416 133.701 117.45 133.773 117.498 133.835C117.547 133.897 117.608 133.947 117.679 133.982L121.288 136.067C121.493 136.162 121.716 136.211 121.942 136.211C122.168 136.211 122.391 136.162 122.595 136.067L126.19 133.982C126.376 133.935 126.47 133.764 126.454 133.624Z" fill="#393842"/>
<path d="M132.087 130.357V129.937H131.745L128.197 127.883C127.992 127.788 127.769 127.739 127.544 127.739C127.318 127.739 127.095 127.788 126.89 127.883L123.342 129.952H123.031V130.357C123.047 130.432 123.081 130.502 123.13 130.562C123.178 130.621 123.241 130.668 123.311 130.699L126.874 132.831C127.079 132.925 127.302 132.975 127.528 132.975C127.754 132.975 127.977 132.925 128.181 132.831L131.776 130.73C131.862 130.712 131.94 130.666 131.997 130.598C132.053 130.53 132.085 130.445 132.087 130.357Z" fill="#393842"/>
<path d="M137.766 127.09V126.669H137.424L133.83 124.6C133.625 124.505 133.402 124.456 133.176 124.456C132.951 124.456 132.728 124.505 132.523 124.6L128.975 126.669H128.664V127.074C128.678 127.152 128.71 127.226 128.759 127.288C128.808 127.35 128.872 127.4 128.944 127.432L132.554 129.517C132.755 129.624 132.979 129.681 133.207 129.681C133.435 129.681 133.66 129.624 133.861 129.517L137.455 127.432C137.533 127.408 137.603 127.364 137.658 127.304C137.713 127.243 137.75 127.169 137.766 127.09Z" fill="#393842"/>
<path d="M143.352 123.806V123.386H143.01L139.462 121.348C139.261 121.24 139.036 121.184 138.808 121.184C138.58 121.184 138.356 121.24 138.155 121.348L134.654 123.402H134.343V123.791C134.357 123.867 134.388 123.938 134.434 124C134.48 124.062 134.539 124.113 134.607 124.149L138.233 126.234C138.438 126.329 138.66 126.378 138.886 126.378C139.112 126.378 139.335 126.329 139.54 126.234L143.134 124.149C143.194 124.113 143.246 124.063 143.284 124.003C143.321 123.944 143.345 123.877 143.352 123.806Z" fill="#393842"/>
<path d="M95.3818 145.045V144.625H95.024L91.4919 142.571C91.2871 142.476 91.0641 142.427 90.8384 142.427C90.6127 142.427 90.3897 142.476 90.1849 142.571L86.6217 144.641H86.3105V145.045C86.3167 145.124 86.3448 145.199 86.3915 145.262C86.4383 145.325 86.5019 145.374 86.5751 145.403L90.1849 147.488C90.3859 147.596 90.6104 147.652 90.8384 147.652C91.0664 147.652 91.2909 147.596 91.4919 147.488L95.0862 145.403C95.2833 145.31 95.3818 145.19 95.3818 145.045Z" fill="#393842"/>
<path d="M101.014 141.716V141.295H100.656L97.1237 139.257C96.9227 139.15 96.6983 139.093 96.4702 139.093C96.2422 139.093 96.0178 139.15 95.8167 139.257L92.2536 141.327H91.9424V141.716C91.9585 141.793 91.9921 141.865 92.0407 141.927C92.0892 141.989 92.1514 142.039 92.2225 142.073L95.8323 144.158C96.0333 144.266 96.2578 144.322 96.4858 144.322C96.7138 144.322 96.9383 144.266 97.1393 144.158L100.734 142.073C100.806 142.041 100.87 141.992 100.918 141.93C100.967 141.867 101 141.794 101.014 141.716Z" fill="#393842"/>
<path d="M106.646 138.494V138.074H106.289L102.757 136.036C102.553 135.928 102.326 135.872 102.095 135.872C101.865 135.872 101.638 135.928 101.434 136.036L97.8864 138.09H97.5752V138.494C97.5912 138.57 97.625 138.64 97.6737 138.7C97.7224 138.759 97.7847 138.806 97.8553 138.837L101.465 140.937C101.67 141.032 101.893 141.081 102.119 141.081C102.344 141.081 102.567 141.032 102.772 140.937L106.366 138.837C106.439 138.81 106.504 138.764 106.553 138.704C106.602 138.644 106.635 138.571 106.646 138.494Z" fill="#393842"/>
<path d="M112.279 135.227V134.807H111.921L108.389 132.753C108.183 132.656 107.957 132.605 107.728 132.605C107.5 132.605 107.274 132.656 107.067 132.753L103.535 134.822H103.224V135.227C103.237 135.305 103.27 135.379 103.319 135.441C103.368 135.503 103.431 135.553 103.504 135.585L107.114 137.67C107.315 137.777 107.539 137.834 107.767 137.834C107.995 137.834 108.22 137.777 108.421 137.67L112.015 135.585C112.191 135.523 112.279 135.403 112.279 135.227Z" fill="#393842"/>
<path d="M117.896 131.944V131.524H117.539L113.991 129.486C113.79 129.378 113.566 129.322 113.338 129.322C113.109 129.322 112.885 129.378 112.684 129.486L109.136 131.555H108.825V131.944C108.842 132.021 108.876 132.093 108.925 132.155C108.973 132.217 109.035 132.267 109.105 132.302L112.715 134.387C112.92 134.482 113.143 134.531 113.369 134.531C113.594 134.531 113.817 134.482 114.022 134.387L117.632 132.38C117.819 132.224 117.912 132.084 117.896 131.944Z" fill="#393842"/>
<path d="M123.529 128.676V128.256H123.187L119.639 126.156C119.438 126.048 119.214 125.992 118.986 125.992C118.758 125.992 118.533 126.048 118.332 126.156L114.785 128.209H114.427V128.614C114.443 128.689 114.477 128.76 114.525 128.819C114.574 128.879 114.636 128.926 114.707 128.956L118.317 131.057C118.521 131.152 118.744 131.201 118.97 131.201C119.196 131.201 119.419 131.152 119.624 131.057L123.218 128.956C123.291 128.944 123.359 128.911 123.414 128.862C123.47 128.812 123.509 128.748 123.529 128.676Z" fill="#393842"/>
<path d="M129.161 125.409V124.989H128.819L125.318 122.935C125.113 122.84 124.89 122.791 124.665 122.791C124.439 122.791 124.216 122.84 124.011 122.935L120.464 125.004H120.152V125.409C120.166 125.485 120.196 125.557 120.242 125.619C120.288 125.681 120.348 125.732 120.417 125.767L124.042 127.852C124.243 127.959 124.468 128.016 124.696 128.016C124.924 128.016 125.148 127.959 125.349 127.852L128.944 125.767C129.007 125.73 129.06 125.678 129.098 125.616C129.136 125.553 129.158 125.482 129.161 125.409Z" fill="#393842"/>
<path d="M134.794 122.126V121.706H134.452L130.904 119.667C130.703 119.56 130.479 119.503 130.251 119.503C130.023 119.503 129.798 119.56 129.597 119.667L126.049 121.737H125.738V122.126C125.753 122.201 125.784 122.273 125.83 122.335C125.876 122.397 125.935 122.448 126.003 122.484L129.628 124.6C129.833 124.695 130.056 124.744 130.282 124.744C130.507 124.744 130.73 124.695 130.935 124.6L134.529 122.515C134.605 122.48 134.67 122.426 134.716 122.357C134.763 122.289 134.79 122.209 134.794 122.126Z" fill="#393842"/>
<path d="M140.427 118.858V118.376H140.084L136.537 116.322C136.332 116.227 136.109 116.178 135.883 116.178C135.658 116.178 135.435 116.227 135.23 116.322L131.682 118.392H131.371V118.796C131.384 118.87 131.415 118.94 131.461 119C131.507 119.059 131.567 119.107 131.636 119.138L135.261 121.239C135.466 121.334 135.689 121.383 135.915 121.383C136.14 121.383 136.363 121.334 136.568 121.239L140.162 119.138C140.226 119.116 140.283 119.079 140.329 119.03C140.375 118.982 140.408 118.923 140.427 118.858Z" fill="#393842"/>
<path d="M80.8958 146.897V146.477H80.5535L77.0837 144.423C76.8789 144.328 76.6559 144.279 76.4302 144.279C76.2045 144.279 75.9815 144.328 75.7767 144.423L72.2135 146.492H71.9023V146.897C71.9085 146.975 71.9366 147.05 71.9833 147.114C72.0301 147.177 72.0937 147.226 72.1669 147.255L75.7767 149.34C75.9805 149.447 76.2075 149.503 76.438 149.503C76.6685 149.503 76.8955 149.447 77.0993 149.34L80.6936 147.255C80.7516 147.213 80.7998 147.16 80.8347 147.098C80.8697 147.036 80.8906 146.968 80.8958 146.897Z" fill="#393842"/>
<path d="M86.5283 143.614V143.272H86.186L82.6384 141.233C82.4374 141.126 82.2129 141.069 81.9849 141.069C81.7569 141.069 81.5324 141.126 81.3314 141.233L77.7682 143.272H77.457V143.661C77.4678 143.737 77.4977 143.811 77.5439 143.873C77.5901 143.936 77.6511 143.985 77.7215 144.018L81.3314 146.103C81.5383 146.201 81.7641 146.251 81.9927 146.251C82.2213 146.251 82.447 146.201 82.654 146.103L86.2482 144.018C86.3269 143.982 86.3945 143.926 86.4437 143.855C86.493 143.783 86.5222 143.7 86.5283 143.614Z" fill="#393842"/>
<path d="M92.1611 140.346V139.926H91.8188L88.2712 137.872C88.0664 137.777 87.8434 137.728 87.6177 137.728C87.392 137.728 87.169 137.777 86.9642 137.872L83.401 139.941H83.0898V140.346C83.0987 140.422 83.1281 140.493 83.1747 140.554C83.2212 140.614 83.2834 140.66 83.3544 140.688L86.9642 142.789C87.1711 142.886 87.3969 142.936 87.6255 142.936C87.8541 142.936 88.0799 142.886 88.2868 142.789L91.8811 140.688C91.9532 140.66 92.0169 140.614 92.0659 140.554C92.115 140.494 92.1477 140.422 92.1611 140.346Z" fill="#393842"/>
<path d="M97.793 137.047V136.612H97.4351L93.903 134.558C93.6982 134.463 93.4752 134.414 93.2495 134.414C93.0238 134.414 92.8009 134.463 92.596 134.558L89.0329 136.627H88.7217V137.047C88.7278 137.126 88.7559 137.201 88.8027 137.264C88.8494 137.328 88.913 137.376 88.9862 137.405L92.6427 139.537C92.8465 139.645 93.0735 139.701 93.304 139.701C93.5345 139.701 93.7615 139.645 93.9653 139.537L97.5596 137.452C97.6296 137.41 97.6877 137.351 97.7285 137.28C97.7693 137.209 97.7915 137.129 97.793 137.047Z" fill="#393842"/>
<path d="M103.426 133.796V133.376H103.068L99.5359 131.337C99.3348 131.23 99.1104 131.173 98.8824 131.173C98.6543 131.173 98.4299 131.23 98.2288 131.337L94.6657 133.391H94.3545V133.78C94.3653 133.857 94.3952 133.93 94.4414 133.993C94.4876 134.055 94.5486 134.105 94.619 134.138L98.2288 136.223C98.4337 136.318 98.6567 136.367 98.8824 136.367C99.108 136.367 99.331 136.318 99.5359 136.223L103.13 134.138C103.204 134.109 103.269 134.063 103.321 134.004C103.372 133.944 103.408 133.873 103.426 133.796Z" fill="#393842"/>
<path d="M109.059 130.528V130.108H108.701L105.169 128.054C104.964 127.959 104.741 127.91 104.515 127.91C104.289 127.91 104.066 127.959 103.862 128.054L100.298 130.123H99.9873V130.528C100.003 130.603 100.037 130.674 100.086 130.733C100.135 130.793 100.197 130.84 100.267 130.87L103.877 132.971C104.082 133.066 104.305 133.115 104.531 133.115C104.756 133.115 104.979 133.066 105.184 132.971L108.779 130.87C108.852 130.843 108.916 130.798 108.965 130.737C109.014 130.677 109.047 130.605 109.059 130.528Z" fill="#393842"/>
<path d="M114.691 127.261V126.825H114.334L110.801 124.771C110.595 124.674 110.369 124.624 110.14 124.624C109.912 124.624 109.686 124.674 109.479 124.771L105.931 126.84H105.62V127.245C105.634 127.323 105.667 127.397 105.715 127.459C105.764 127.521 105.828 127.571 105.9 127.603L109.51 129.688C109.711 129.796 109.936 129.852 110.164 129.852C110.392 129.852 110.616 129.796 110.817 129.688L114.427 127.712C114.51 127.67 114.579 127.605 114.626 127.525C114.673 127.445 114.695 127.353 114.691 127.261Z" fill="#393842"/>
<path d="M120.324 123.977V123.557H119.966L116.418 121.488C116.217 121.38 115.993 121.324 115.765 121.324C115.537 121.324 115.312 121.38 115.111 121.488L111.563 123.542H111.314V123.931C111.332 124.007 111.366 124.079 111.414 124.141C111.463 124.203 111.524 124.253 111.595 124.288L115.204 126.373C115.409 126.468 115.632 126.517 115.858 126.517C116.084 126.517 116.307 126.468 116.511 126.373L120.106 124.288C120.161 124.254 120.209 124.209 120.247 124.155C120.284 124.102 120.31 124.041 120.324 123.977Z" fill="#393842"/>
<path d="M125.94 120.71V120.29H125.598L122.051 118.236C121.846 118.141 121.623 118.092 121.397 118.092C121.171 118.092 120.948 118.141 120.744 118.236L117.196 120.305H116.885V120.71C116.901 120.785 116.935 120.855 116.983 120.915C117.032 120.974 117.094 121.021 117.165 121.052L120.775 123.137C120.977 123.241 121.201 123.295 121.428 123.295C121.655 123.295 121.879 123.241 122.082 123.137L125.676 121.036C125.747 121.013 125.809 120.97 125.856 120.912C125.903 120.854 125.932 120.784 125.94 120.71Z" fill="#393842"/>
<path d="M131.542 117.443V117.007H131.231L127.683 114.953C127.479 114.858 127.256 114.809 127.03 114.809C126.804 114.809 126.581 114.858 126.376 114.953L122.829 117.022H122.518V117.427C122.531 117.505 122.564 117.579 122.613 117.641C122.662 117.703 122.725 117.753 122.798 117.785L126.407 119.932C126.609 120.04 126.833 120.096 127.061 120.096C127.289 120.096 127.513 120.04 127.715 119.932L131.309 117.847C131.542 117.707 131.542 117.567 131.542 117.443Z" fill="#393842"/>
<path d="M137.206 114.159V113.708H136.864L133.316 111.67C133.115 111.562 132.891 111.506 132.663 111.506C132.435 111.506 132.21 111.562 132.009 111.67L128.43 113.708H128.119V114.113C128.136 114.187 128.169 114.257 128.214 114.319C128.26 114.381 128.317 114.432 128.384 114.471L132.009 116.555C132.214 116.65 132.437 116.699 132.663 116.699C132.888 116.699 133.111 116.65 133.316 116.555L136.91 114.471C136.982 114.447 137.046 114.407 137.098 114.352C137.149 114.298 137.186 114.232 137.206 114.159Z" fill="#393842"/>
<path d="M143.71 109.942H143.352L139.82 107.904C139.619 107.797 139.395 107.74 139.167 107.74C138.939 107.74 138.714 107.797 138.513 107.904L134.141 110.44H133.783V110.876C133.8 110.947 133.832 111.013 133.878 111.07C133.924 111.126 133.982 111.172 134.048 111.203L137.673 113.303C137.878 113.398 138.101 113.447 138.327 113.447C138.552 113.447 138.775 113.398 138.98 113.303L143.446 110.705C143.525 110.671 143.592 110.615 143.639 110.543C143.686 110.471 143.711 110.386 143.71 110.3V109.942Z" fill="#393842"/>
<path d="M143.866 136.721V136.316H143.524L139.976 134.262C139.668 134.109 139.314 134.07 138.98 134.153C138.871 134.173 138.766 134.21 138.669 134.262L135.121 136.332H134.81V136.518L109.759 151.051L106.196 153.121H105.885V153.525L106.009 153.603L109.759 155.984C109.856 156.041 109.961 156.083 110.07 156.108C110.184 156.123 110.299 156.123 110.413 156.108C110.64 156.11 110.864 156.057 111.066 155.952L114.676 153.852L143.601 137.047C143.788 137.047 143.881 136.861 143.866 136.721Z" fill="#393842"/>
<path d="M70.4703 146.383V145.979H70.2369L69.2567 145.419C69.0557 145.311 68.8312 145.255 68.6032 145.255C68.3752 145.255 68.1507 145.311 67.9497 145.419L64.6355 147.379L64.1064 147.504V147.939C64.1215 148.019 64.1545 148.094 64.2031 148.159C64.2516 148.223 64.3144 148.276 64.3865 148.313L65.3512 148.873C65.556 148.968 65.779 149.017 66.0047 149.017C66.2304 149.017 66.4534 148.968 66.6582 148.873L70.2525 146.788C70.3259 146.755 70.3891 146.703 70.4356 146.637C70.4821 146.572 70.5102 146.495 70.517 146.415L70.4703 146.383Z" fill="#393842"/>
<path d="M76.0875 143.115V142.726H75.8697L74.8894 142.166C74.6846 142.072 74.4616 142.022 74.2359 142.022C74.0102 142.022 73.7873 142.072 73.5824 142.166L70.2527 144.096L69.7236 144.236V144.656C69.736 144.734 69.7682 144.809 69.8172 144.871C69.8662 144.934 69.9304 144.983 70.0037 145.014L70.9684 145.574C71.1694 145.682 71.3939 145.738 71.6219 145.738C71.8499 145.738 72.0744 145.682 72.2754 145.574L75.8697 143.489C75.9452 143.459 76.0103 143.408 76.0573 143.341C76.1042 143.275 76.1309 143.197 76.1342 143.115H76.0875Z" fill="#393842"/>
<path d="M81.7515 139.848V139.444H81.5181L80.5379 138.884C80.3369 138.776 80.1124 138.72 79.8844 138.72C79.6564 138.72 79.4319 138.776 79.2309 138.884L75.9011 140.813L75.3721 140.938V141.373C75.3772 141.503 75.4331 141.626 75.5277 141.715L76.4924 142.276C76.6946 142.379 76.9186 142.434 77.1459 142.434C77.3732 142.434 77.5972 142.379 77.7994 142.276L81.4559 140.16C81.5303 140.128 81.5944 140.076 81.6411 140.01C81.6878 139.944 81.7153 139.867 81.7204 139.786L81.7515 139.848Z" fill="#393842"/>
<path d="M87.3531 136.581V136.176H87.1197L86.1394 135.616C85.9384 135.508 85.7139 135.452 85.4859 135.452C85.2579 135.452 85.0334 135.508 84.8324 135.616L81.5027 137.545L80.9736 137.67V138.09C80.9847 138.169 81.0144 138.244 81.0604 138.309C81.1065 138.374 81.1674 138.427 81.2381 138.463L82.2184 139.024C82.4232 139.118 82.6462 139.167 82.8719 139.167C83.0976 139.167 83.3206 139.118 83.5254 139.024L87.1197 136.939C87.1913 136.903 87.2529 136.85 87.2991 136.785C87.3452 136.72 87.3745 136.644 87.3842 136.565L87.3531 136.581Z" fill="#393842"/>
<path d="M92.9849 133.298V132.909H92.7515L91.7713 132.348C91.5665 132.254 91.3435 132.205 91.1178 132.205C90.8921 132.205 90.6691 132.254 90.4643 132.348L87.1345 134.278L86.6055 134.418V134.838C86.6176 134.915 86.6479 134.987 86.694 135.049C86.74 135.112 86.8004 135.162 86.87 135.196L87.8502 135.756C88.0513 135.864 88.2757 135.92 88.5037 135.92C88.7318 135.92 88.9562 135.864 89.1573 135.756L92.7515 133.671C92.8249 133.638 92.8881 133.586 92.9346 133.52C92.9812 133.455 93.0093 133.378 93.016 133.298H92.9849Z" fill="#393842"/>
<path d="M98.6177 130.03V129.625H98.3844L97.4041 129.065C97.2031 128.958 96.9786 128.901 96.7506 128.901C96.5226 128.901 96.2981 128.958 96.0971 129.065L92.7673 130.995L92.2383 131.119V131.555C92.2527 131.63 92.284 131.702 92.3298 131.764C92.3755 131.826 92.4347 131.877 92.5028 131.913L93.4831 132.473C93.6853 132.577 93.9093 132.631 94.1366 132.631C94.3638 132.631 94.5878 132.577 94.7901 132.473L98.3844 130.388C98.4568 130.354 98.5192 130.301 98.5655 130.236C98.6118 130.17 98.6405 130.094 98.6489 130.014L98.6177 130.03Z" fill="#393842"/>
<path d="M104.25 126.762V126.358H104.017L103.037 125.798C102.836 125.69 102.611 125.634 102.383 125.634C102.155 125.634 101.931 125.69 101.73 125.798L98.3689 127.712L97.8398 127.836V128.256C97.846 128.335 97.8741 128.41 97.9208 128.473C97.9676 128.536 98.0312 128.585 98.1044 128.614L99.0846 129.19C99.2894 129.284 99.5124 129.334 99.7381 129.334C99.9638 129.334 100.187 129.284 100.392 129.19L103.986 127.105C104.057 127.069 104.119 127.017 104.165 126.951C104.211 126.886 104.241 126.811 104.25 126.731V126.762Z" fill="#393842"/>
<path d="M109.883 123.48V123.044H109.65L108.67 122.484C108.465 122.389 108.242 122.34 108.016 122.34C107.791 122.34 107.568 122.389 107.363 122.484L104.033 124.413L103.535 124.6V125.02C103.545 125.097 103.574 125.171 103.62 125.234C103.667 125.296 103.728 125.346 103.8 125.378L104.78 125.938C104.981 126.046 105.205 126.102 105.433 126.102C105.661 126.102 105.886 126.046 106.087 125.938L109.681 123.853C109.755 123.82 109.818 123.768 109.864 123.702C109.911 123.637 109.939 123.56 109.946 123.48H109.883Z" fill="#393842"/>
<path d="M115.516 120.212V119.808H115.283L114.318 119.247C114.117 119.14 113.893 119.083 113.665 119.083C113.437 119.083 113.212 119.14 113.011 119.247L109.681 121.177L109.137 121.301V121.737C109.148 121.814 109.177 121.887 109.224 121.949C109.27 122.012 109.331 122.062 109.401 122.095L110.381 122.655C110.584 122.759 110.808 122.813 111.035 122.813C111.262 122.813 111.486 122.759 111.689 122.655L115.283 120.57C115.355 120.536 115.418 120.483 115.464 120.418C115.51 120.352 115.539 120.276 115.547 120.197L115.516 120.212Z" fill="#393842"/>
<path d="M121.148 116.944V116.54H120.915L119.95 115.98C119.748 115.876 119.524 115.822 119.296 115.822C119.069 115.822 118.845 115.876 118.643 115.98L115.313 117.925L114.769 118.049V118.469C114.775 118.548 114.803 118.623 114.85 118.686C114.896 118.749 114.96 118.798 115.033 118.827L116.013 119.403C116.218 119.498 116.441 119.547 116.667 119.547C116.893 119.547 117.116 119.498 117.32 119.403L120.915 117.318C120.986 117.282 121.048 117.23 121.094 117.164C121.14 117.099 121.169 117.024 121.179 116.944H121.148Z" fill="#393842"/>
<path d="M126.781 113.708V113.319H126.547L125.583 112.759C125.378 112.664 125.155 112.615 124.929 112.615C124.704 112.615 124.481 112.664 124.276 112.759L120.946 114.688L120.401 114.828V115.264C120.411 115.341 120.44 115.415 120.486 115.478C120.533 115.54 120.595 115.59 120.666 115.622L121.646 116.182C121.847 116.289 122.072 116.346 122.3 116.346C122.528 116.346 122.752 116.289 122.953 116.182L126.547 114.097C126.621 114.064 126.684 114.012 126.731 113.946C126.777 113.88 126.805 113.803 126.812 113.723L126.781 113.708Z" fill="#393842"/>
<path d="M132.414 110.394V109.989H132.18L131.216 109.429C131.012 109.321 130.785 109.265 130.554 109.265C130.324 109.265 130.097 109.321 129.893 109.429L126.579 111.358L126.034 111.483V111.919C126.045 111.996 126.075 112.069 126.121 112.131C126.167 112.194 126.228 112.244 126.299 112.276L127.279 112.837C127.481 112.94 127.705 112.994 127.932 112.994C128.16 112.994 128.384 112.94 128.586 112.837L132.18 110.752C132.253 110.717 132.315 110.665 132.361 110.6C132.408 110.534 132.436 110.458 132.445 110.378L132.414 110.394Z" fill="#393842"/>
<path d="M138.046 107.111V106.706H137.813L136.848 106.146C136.643 106.042 136.417 105.988 136.187 105.988C135.957 105.988 135.731 106.042 135.526 106.146L132.165 108.106L131.62 108.231V108.651C131.626 108.729 131.654 108.804 131.701 108.868C131.748 108.931 131.811 108.98 131.885 109.009L132.865 109.585C133.07 109.679 133.293 109.728 133.518 109.728C133.744 109.728 133.967 109.679 134.172 109.585L137.766 107.484C137.837 107.452 137.899 107.403 137.946 107.34C137.992 107.277 138.021 107.204 138.031 107.126L138.046 107.111Z" fill="#393842"/>
<path d="M78.515 154.474H78.2661L74.6407 152.389C74.4397 152.282 74.2152 152.226 73.9872 152.226C73.7592 152.226 73.5347 152.282 73.3337 152.389L66.6586 156.264H66.2852V156.637C66.2913 156.716 66.3194 156.791 66.3661 156.854C66.4129 156.917 66.4765 156.966 66.5497 156.995L70.1595 159.096C70.3643 159.19 70.5873 159.24 70.813 159.24C71.0387 159.24 71.2617 159.19 71.4665 159.096L78.2505 155.159C78.3261 155.125 78.3908 155.07 78.4375 155.002C78.4842 154.933 78.511 154.853 78.515 154.77V154.474Z" fill="#393842"/>
<path d="M87.0416 156.123H86.7926L83.1828 154.038C82.978 153.944 82.755 153.895 82.5293 153.895C82.3036 153.895 82.0806 153.944 81.8758 154.038L72.54 159.5L72.0576 159.609V159.998C72.0641 160.08 72.0938 160.159 72.1434 160.225C72.193 160.291 72.2604 160.342 72.3377 160.371L75.9475 162.456C76.1486 162.564 76.373 162.62 76.601 162.62C76.829 162.62 77.0535 162.564 77.2545 162.456L86.8549 156.886C86.9264 156.85 86.9881 156.798 87.0342 156.732C87.0804 156.667 87.1096 156.592 87.1194 156.512L87.0416 156.123Z" fill="#393842"/>
<path d="M92.7827 159.438H92.5338L88.9084 157.337C88.7035 157.242 88.4806 157.193 88.2549 157.193C88.0292 157.193 87.8062 157.242 87.6013 157.337L78.2655 162.799L77.7832 162.908V163.297C77.793 163.378 77.824 163.455 77.8732 163.521C77.9224 163.586 77.9879 163.638 78.0633 163.67L81.6731 165.771C81.8779 165.865 82.1009 165.914 82.3266 165.914C82.5523 165.914 82.7753 165.865 82.9801 165.771L92.5804 160.185C92.6559 160.155 92.7211 160.103 92.768 160.037C92.815 159.971 92.8417 159.892 92.845 159.811L92.7827 159.438Z" fill="#393842"/>
<path d="M149.421 113.272H149.156L145.546 111.219C145.345 111.111 145.121 111.055 144.893 111.055C144.665 111.055 144.44 111.111 144.239 111.219L137.44 115.155H137.051V115.544C137.067 115.619 137.101 115.69 137.149 115.749C137.198 115.809 137.26 115.856 137.331 115.886L140.878 118.08C141.083 118.175 141.306 118.224 141.532 118.224C141.758 118.224 141.981 118.175 142.185 118.08L149.11 114.066C149.183 114.029 149.246 113.974 149.292 113.906C149.339 113.838 149.367 113.759 149.374 113.677L149.421 113.272Z" fill="#393842"/>
<path d="M154.882 116.602L151.272 114.502C151.065 114.404 150.839 114.354 150.611 114.354C150.382 114.354 150.156 114.404 149.949 114.502L140.224 120.165C139.867 120.368 139.867 120.71 140.224 120.912L143.819 123.044C144.024 123.139 144.247 123.188 144.472 123.188C144.698 123.188 144.921 123.139 145.126 123.044L154.851 117.38C154.931 117.356 155.002 117.307 155.053 117.24C155.103 117.173 155.131 117.091 155.131 117.007C155.131 116.922 155.103 116.841 155.053 116.773C155.002 116.706 154.931 116.657 154.851 116.633L154.882 116.602Z" fill="#393842"/>
<path d="M158.118 125.393V125.004H157.884L156.904 124.444C156.699 124.349 156.476 124.3 156.251 124.3C156.025 124.3 155.802 124.349 155.597 124.444L152.267 126.374L151.738 126.514V126.934C151.75 127.01 151.781 127.083 151.827 127.145C151.873 127.207 151.933 127.258 152.003 127.292L152.983 127.852C153.184 127.959 153.409 128.016 153.637 128.016C153.865 128.016 154.089 127.959 154.29 127.852L157.884 125.767C157.96 125.737 158.025 125.685 158.072 125.619C158.119 125.553 158.146 125.474 158.149 125.393H158.118Z" fill="#393842"/>
<path d="M160.763 126.918V126.514H160.53L159.549 125.953C159.345 125.859 159.122 125.81 158.896 125.81C158.67 125.81 158.447 125.859 158.242 125.953L154.882 127.898L154.353 128.038V128.459C154.359 128.537 154.387 128.612 154.434 128.675C154.48 128.739 154.544 128.788 154.617 128.816L155.597 129.377C155.798 129.484 156.023 129.54 156.251 129.54C156.479 129.54 156.703 129.484 156.904 129.377L160.499 127.292C160.57 127.26 160.632 127.21 160.678 127.148C160.724 127.085 160.754 127.011 160.763 126.934V126.918Z" fill="#393842"/>
<path d="M98.1516 156.201L94.5261 154.163C94.3213 154.068 94.0983 154.019 93.8726 154.019C93.6469 154.019 93.424 154.068 93.2191 154.163L89.6248 156.248C89.267 156.466 89.267 156.808 89.6248 157.01L93.2503 159.095C93.4513 159.203 93.6758 159.259 93.9038 159.259C94.1318 159.259 94.3563 159.203 94.5573 159.095L98.1516 157.01C98.5094 156.808 98.5094 156.466 98.1516 156.248V156.201Z" fill="#393842"/>
<path d="M64.822 149.651V149.231L64.5575 149.309L63.5772 148.748C63.3762 148.641 63.1517 148.584 62.9237 148.584C62.6957 148.584 62.4712 148.641 62.2702 148.748L58.1313 151.16L57.54 151.316V151.767C57.5593 151.839 57.5945 151.906 57.6429 151.962C57.6914 152.019 57.752 152.064 57.8201 152.094L58.7848 152.669C58.9896 152.764 59.2126 152.813 59.4383 152.813C59.664 152.813 59.887 152.764 60.0918 152.669L64.6353 150.04C64.7442 149.931 64.8375 149.791 64.822 149.651Z" fill="#393842"/>
<path d="M69.3039 152.607L65.6941 150.522C65.4918 150.418 65.2678 150.364 65.0405 150.364C64.8133 150.364 64.5893 150.418 64.387 150.522L60.8394 152.607C60.7607 152.635 60.6926 152.687 60.6444 152.755C60.5962 152.823 60.5703 152.905 60.5703 152.988C60.5703 153.072 60.5962 153.153 60.6444 153.222C60.6926 153.29 60.7607 153.342 60.8394 153.37L64.4648 155.455C64.6659 155.562 64.8903 155.618 65.1183 155.618C65.3464 155.618 65.5708 155.562 65.7719 155.455L69.3039 153.416C69.6618 153.214 69.6618 152.872 69.3039 152.654V152.607Z" fill="#57565E"/>
<path d="M74.9827 149.386L71.3728 147.301C71.1718 147.194 70.9473 147.137 70.7193 147.137C70.4913 147.137 70.2668 147.194 70.0658 147.301L66.4715 149.386C66.1137 149.588 66.1137 149.931 66.4715 150.149L70.0814 152.233C70.2883 152.331 70.5141 152.381 70.7427 152.381C70.9712 152.381 71.197 152.331 71.4039 152.233L74.9982 150.149C75.3561 149.931 75.3561 149.588 74.9982 149.386H74.9827Z" fill="#57565E"/>
<path d="M80.6158 146.103L77.0837 144.018C76.8789 143.924 76.6559 143.875 76.4302 143.875C76.2045 143.875 75.9815 143.924 75.7767 144.018L72.1824 146.119C72.1016 146.143 72.0306 146.192 71.9801 146.259C71.9296 146.326 71.9023 146.408 71.9023 146.492C71.9023 146.577 71.9296 146.658 71.9801 146.726C72.0306 146.793 72.1016 146.842 72.1824 146.866L75.7923 148.951C75.9972 149.055 76.2238 149.109 76.4535 149.109C76.6833 149.109 76.9099 149.055 77.1148 148.951L80.7091 146.85C81.067 146.648 81.067 146.306 80.7091 146.088L80.6158 146.103Z" fill="#57565E"/>
<path d="M86.248 142.836L82.6382 140.751C82.436 140.647 82.212 140.593 81.9847 140.593C81.7574 140.593 81.5334 140.647 81.3312 140.751L77.7369 142.836C77.6582 142.864 77.59 142.915 77.5418 142.984C77.4936 143.052 77.4678 143.133 77.4678 143.217C77.4678 143.3 77.4936 143.382 77.5418 143.45C77.59 143.518 77.6582 143.57 77.7369 143.598L81.3467 145.683C81.5505 145.791 81.7775 145.847 82.008 145.847C82.2385 145.847 82.4655 145.791 82.6693 145.683L86.2636 143.598C86.6215 143.396 86.6215 143.053 86.2636 142.836H86.248Z" fill="#57565E"/>
<path d="M91.8808 139.568L88.271 137.483C88.07 137.376 87.8455 137.319 87.6175 137.319C87.3895 137.319 87.165 137.376 86.964 137.483L83.3075 139.568C82.9496 139.77 82.9496 140.113 83.3075 140.331L86.9173 142.416C87.1242 142.513 87.35 142.563 87.5786 142.563C87.8072 142.563 88.033 142.513 88.2399 142.416L91.8186 140.331C92.192 140.113 92.192 139.77 91.8186 139.568H91.8808Z" fill="#57565E"/>
<path d="M97.5129 136.285L93.903 134.2C93.6961 134.103 93.4704 134.053 93.2418 134.053C93.0132 134.053 92.7874 134.103 92.5805 134.2L89.0018 136.301C88.6283 136.503 88.6283 136.845 89.0018 137.048L92.6427 139.133C92.8477 139.237 93.0742 139.291 93.304 139.291C93.5338 139.291 93.7603 139.237 93.9653 139.133L97.544 137.032C97.9174 136.83 97.9174 136.488 97.544 136.27L97.5129 136.285Z" fill="#57565E"/>
<path d="M103.146 133.017L99.5359 130.932C99.3309 130.829 99.1044 130.774 98.8746 130.774C98.6448 130.774 98.4182 130.829 98.2133 130.932L94.6346 133.017C94.2611 133.235 94.2611 133.562 94.6346 133.78L98.2444 135.865C98.4454 135.972 98.6699 136.029 98.8979 136.029C99.1259 136.029 99.3504 135.972 99.5514 135.865L103.146 133.78C103.519 133.562 103.504 133.235 103.146 133.017Z" fill="#57565E"/>
<path d="M108.778 129.75L105.091 127.712C104.89 127.604 104.665 127.548 104.437 127.548C104.209 127.548 103.985 127.604 103.784 127.712L100.189 129.797C99.8314 129.999 99.8314 130.341 100.189 130.559L103.799 132.644C104.004 132.739 104.227 132.788 104.453 132.788C104.678 132.788 104.901 132.739 105.106 132.644L108.7 130.559C108.779 130.531 108.847 130.48 108.896 130.411C108.944 130.343 108.97 130.262 108.97 130.178C108.97 130.094 108.944 130.013 108.896 129.945C108.847 129.876 108.779 129.825 108.7 129.797L108.778 129.75Z" fill="#57565E"/>
<path d="M114.427 126.482L110.802 124.382C110.597 124.287 110.374 124.238 110.148 124.238C109.922 124.238 109.699 124.287 109.495 124.382L105.9 126.482C105.542 126.685 105.542 127.027 105.9 127.229L109.51 129.267C109.711 129.375 109.936 129.431 110.164 129.431C110.392 129.431 110.616 129.375 110.817 129.267L114.427 127.229C114.508 127.206 114.579 127.156 114.629 127.089C114.68 127.022 114.707 126.94 114.707 126.856C114.707 126.772 114.68 126.69 114.629 126.622C114.579 126.555 114.508 126.506 114.427 126.482Z" fill="#57565E"/>
<path d="M120.043 123.2L116.418 121.115C116.217 121.007 115.992 120.951 115.764 120.951C115.536 120.951 115.312 121.007 115.111 121.115L111.516 123.2C111.159 123.417 111.159 123.744 111.516 123.962L115.126 126.047C115.327 126.155 115.552 126.211 115.78 126.211C116.008 126.211 116.232 126.155 116.433 126.047L120.028 123.962C120.106 123.934 120.174 123.882 120.223 123.814C120.271 123.746 120.297 123.664 120.297 123.581C120.297 123.497 120.271 123.416 120.223 123.347C120.174 123.279 120.106 123.228 120.028 123.2H120.043Z" fill="#57565E"/>
<path d="M125.676 119.932L122.051 117.847C121.85 117.739 121.625 117.683 121.397 117.683C121.169 117.683 120.945 117.739 120.744 117.847L117.149 119.932C116.791 120.134 116.791 120.477 117.149 120.694L120.759 122.779C120.964 122.874 121.187 122.923 121.413 122.923C121.638 122.923 121.861 122.874 122.066 122.779L125.66 120.694C126.018 120.477 126.018 120.134 125.66 119.932H125.676Z" fill="#57565E"/>
<path d="M89.5312 147.535L85.9214 145.45C85.7204 145.342 85.4959 145.286 85.2679 145.286C85.0399 145.286 84.8154 145.342 84.6144 145.45L81.0201 147.535C80.9414 147.563 80.8732 147.614 80.825 147.682C80.7769 147.751 80.751 147.832 80.751 147.916C80.751 147.999 80.7769 148.081 80.825 148.149C80.8732 148.217 80.9414 148.269 81.0201 148.297L84.6299 150.382C84.8369 150.479 85.0626 150.529 85.2912 150.529C85.5198 150.529 85.7456 150.479 85.9525 150.382L89.5312 148.297C89.61 148.269 89.6781 148.217 89.7263 148.149C89.7745 148.081 89.8004 147.999 89.8004 147.916C89.8004 147.832 89.7745 147.751 89.7263 147.682C89.6781 147.614 89.61 147.563 89.5312 147.535Z" fill="#57565E"/>
<path d="M95.1018 144.267L91.4919 142.166C91.2871 142.072 91.0641 142.022 90.8384 142.022C90.6127 142.022 90.3897 142.072 90.1849 142.166L86.5906 144.267C86.2172 144.469 86.2172 144.811 86.5906 145.014L90.2005 147.114C90.4053 147.209 90.6283 147.258 90.854 147.258C91.0797 147.258 91.3027 147.209 91.5075 147.114L95.1018 145.014C95.4752 144.811 95.4596 144.469 95.1018 144.267Z" fill="#57565E"/>
<path d="M100.734 140.984L97.1237 138.899C96.9168 138.802 96.691 138.751 96.4625 138.751C96.2339 138.751 96.0081 138.802 95.8012 138.899L92.2069 140.984C91.849 141.202 91.849 141.544 92.2069 141.746L95.8167 143.831C96.0177 143.939 96.2422 143.995 96.4702 143.995C96.6982 143.995 96.9227 143.939 97.1237 143.831L100.734 141.715C101.107 141.513 101.091 141.171 100.734 140.953V140.984Z" fill="#57565E"/>
<path d="M106.366 137.717L102.757 135.632C102.553 135.524 102.326 135.468 102.095 135.468C101.865 135.468 101.638 135.524 101.434 135.632L97.8397 137.717C97.4818 137.919 97.4818 138.261 97.8397 138.479L101.45 140.564C101.654 140.659 101.877 140.708 102.103 140.708C102.329 140.708 102.552 140.659 102.757 140.564L106.351 138.479C106.709 138.261 106.709 137.919 106.351 137.717H106.366Z" fill="#57565E"/>
<path d="M111.999 134.449L108.39 132.38C108.185 132.276 107.958 132.222 107.728 132.222C107.499 132.222 107.272 132.276 107.067 132.38L103.535 134.449C103.177 134.651 103.177 134.994 103.535 135.196L107.145 137.297C107.35 137.391 107.573 137.44 107.798 137.44C108.024 137.44 108.247 137.391 108.452 137.297L112.046 135.196C112.127 135.172 112.198 135.123 112.248 135.056C112.299 134.989 112.326 134.907 112.326 134.823C112.326 134.738 112.299 134.657 112.248 134.589C112.198 134.522 112.127 134.473 112.046 134.449H111.999Z" fill="#57565E"/>
<path d="M117.632 131.166L114.007 129.081C113.802 128.986 113.579 128.937 113.353 128.937C113.127 128.937 112.904 128.986 112.7 129.081L109.105 131.166C108.747 131.384 108.747 131.726 109.105 131.928L112.715 134.013C112.916 134.121 113.141 134.177 113.369 134.177C113.597 134.177 113.821 134.121 114.022 134.013L117.616 131.928C117.974 131.726 117.974 131.384 117.616 131.166H117.632Z" fill="#57565E"/>
<path d="M123.265 127.898L119.639 125.813C119.438 125.706 119.214 125.649 118.986 125.649C118.758 125.649 118.533 125.706 118.332 125.813L114.738 127.898C114.38 128.101 114.38 128.443 114.738 128.661L118.364 130.824C118.568 130.918 118.791 130.967 119.017 130.967C119.243 130.967 119.466 130.918 119.671 130.824L123.265 128.739C123.623 128.521 123.623 128.178 123.265 127.976V127.898Z" fill="#57565E"/>
<path d="M128.897 124.6L125.318 122.53C125.113 122.435 124.89 122.386 124.664 122.386C124.439 122.386 124.216 122.435 124.011 122.53L120.37 124.6C120.289 124.623 120.218 124.672 120.168 124.74C120.117 124.807 120.09 124.889 120.09 124.973C120.09 125.057 120.117 125.139 120.168 125.206C120.218 125.274 120.289 125.323 120.37 125.346L123.995 127.447C124.2 127.542 124.423 127.591 124.649 127.591C124.875 127.591 125.098 127.542 125.302 127.447L128.897 125.346C128.977 125.323 129.048 125.274 129.099 125.206C129.149 125.139 129.177 125.057 129.177 124.973C129.177 124.889 129.149 124.807 129.099 124.74C129.048 124.672 128.977 124.623 128.897 124.6Z" fill="#57565E"/>
<path d="M134.529 121.348L130.904 119.263C130.699 119.168 130.476 119.119 130.251 119.119C130.025 119.119 129.802 119.168 129.597 119.263L126.003 121.348C125.645 121.565 125.645 121.908 126.003 122.11L129.628 124.195C129.829 124.303 130.054 124.359 130.282 124.359C130.51 124.359 130.734 124.303 130.935 124.195L134.529 122.11C134.887 121.908 134.887 121.565 134.529 121.348Z" fill="#57565E"/>
<path d="M140.147 118.08L136.537 115.995C136.336 115.888 136.111 115.832 135.883 115.832C135.655 115.832 135.431 115.888 135.23 115.995L131.636 118.08C131.278 118.283 131.278 118.625 131.636 118.843L135.261 120.928C135.466 121.023 135.689 121.072 135.915 121.072C136.14 121.072 136.363 121.023 136.568 120.928L140.162 118.843C140.52 118.625 140.52 118.283 140.162 118.08H140.147Z" fill="#57565E"/>
<path d="M131.309 116.649L127.683 114.564C127.479 114.469 127.256 114.42 127.03 114.42C126.804 114.42 126.581 114.469 126.376 114.564L122.782 116.649C122.424 116.867 122.424 117.209 122.782 117.411L126.407 119.496C126.608 119.604 126.833 119.66 127.061 119.66C127.289 119.66 127.513 119.604 127.714 119.496L131.309 117.411C131.667 117.209 131.667 116.867 131.309 116.649Z" fill="#57565E"/>
<path d="M136.941 113.381L133.316 111.296C133.114 111.192 132.89 111.138 132.662 111.138C132.435 111.138 132.211 111.192 132.009 111.296L128.43 113.381C128.352 113.409 128.283 113.461 128.235 113.529C128.187 113.597 128.161 113.679 128.161 113.762C128.161 113.846 128.187 113.927 128.235 113.996C128.283 114.064 128.352 114.115 128.43 114.143L132.056 116.228C132.257 116.336 132.481 116.392 132.709 116.392C132.937 116.392 133.162 116.336 133.363 116.228L136.957 114.143C137.315 113.941 137.315 113.599 136.957 113.381H136.941Z" fill="#57565E"/>
<path d="M92.1767 165.833L88.5669 163.748C88.3659 163.64 88.1414 163.584 87.9134 163.584C87.6854 163.584 87.4609 163.64 87.2599 163.748L83.6656 165.833C83.5869 165.861 83.5187 165.912 83.4705 165.981C83.4224 166.049 83.3965 166.131 83.3965 166.214C83.3965 166.298 83.4224 166.379 83.4705 166.447C83.5187 166.516 83.5869 166.567 83.6656 166.595L87.2755 168.68C87.4793 168.788 87.7063 168.844 87.9367 168.844C88.1672 168.844 88.3942 168.788 88.598 168.68L92.1923 166.611C92.5502 166.393 92.5502 166.066 92.1923 165.848L92.1767 165.833Z" fill="#57565E"/>
<path d="M97.8088 162.565L94.199 160.48C93.998 160.373 93.7735 160.316 93.5455 160.316C93.3175 160.316 93.093 160.373 92.892 160.48L89.2977 162.565C88.9398 162.768 88.9398 163.11 89.2977 163.328L92.9075 165.413C93.1145 165.51 93.3402 165.56 93.5688 165.56C93.7974 165.56 94.0232 165.51 94.2301 165.413L97.8244 163.328C98.1823 163.11 98.1823 162.768 97.8244 162.565H97.8088Z" fill="#57565E"/>
<path d="M103.442 159.282L99.8318 157.275C99.627 157.18 99.404 157.131 99.1783 157.131C98.9526 157.131 98.7296 157.18 98.5248 157.275L94.9305 159.36C94.5726 159.578 94.5726 159.92 94.9305 160.123L98.5404 162.208C98.7442 162.315 98.9711 162.372 99.2016 162.372C99.4321 162.372 99.6591 162.315 99.8629 162.208L103.535 160.045C103.893 159.843 103.893 159.5 103.535 159.282H103.442Z" fill="#57565E"/>
<path d="M109.074 156.015L105.464 153.93C105.261 153.822 105.034 153.766 104.803 153.766C104.573 153.766 104.346 153.822 104.142 153.93L100.563 156.015C100.484 156.043 100.416 156.094 100.368 156.162C100.32 156.231 100.294 156.312 100.294 156.396C100.294 156.479 100.32 156.561 100.368 156.629C100.416 156.697 100.484 156.749 100.563 156.777L104.173 158.831C104.377 158.938 104.604 158.995 104.834 158.995C105.065 158.995 105.292 158.938 105.495 158.831L109.074 156.746C109.448 156.528 109.448 156.201 109.074 155.983V156.015Z" fill="#57565E"/>
<path d="M83.8361 150.802L80.1951 148.717C79.9903 148.622 79.7673 148.573 79.5416 148.573C79.3159 148.573 79.0929 148.622 78.8881 148.717L75.2938 150.802C74.9359 151.02 74.9359 151.362 75.2938 151.565L78.9036 153.65C79.1074 153.757 79.3344 153.813 79.5649 153.813C79.7954 153.813 80.0224 153.757 80.2262 153.65L83.8205 151.565C84.1784 151.362 84.1784 151.02 83.8205 150.802H83.8361Z" fill="#57565E"/>
<path d="M143.446 109.6L139.82 107.484C139.616 107.389 139.393 107.34 139.167 107.34C138.941 107.34 138.718 107.389 138.513 107.484L134.048 110.083C133.69 110.285 133.69 110.627 134.048 110.845L137.673 112.93C137.878 113.025 138.101 113.074 138.327 113.074C138.552 113.074 138.775 113.025 138.98 112.93L143.446 110.332C143.804 110.129 143.804 109.787 143.446 109.569V109.6Z" fill="#57565E"/>
<path d="M143.601 135.958L139.975 133.936C139.773 133.832 139.549 133.778 139.322 133.778C139.094 133.778 138.87 133.832 138.668 133.936L106.195 152.747C105.822 152.95 105.837 153.292 106.195 153.494L109.758 155.595C109.963 155.69 110.186 155.739 110.412 155.739C110.638 155.739 110.861 155.69 111.065 155.595L143.554 136.721C143.912 136.503 143.912 136.161 143.554 135.958H143.601Z" fill="#57565E"/>
<path d="M70.19 145.605L69.2097 145.045C69.0087 144.938 68.7842 144.881 68.5562 144.881C68.3282 144.881 68.1037 144.938 67.9027 145.045L64.3084 147.13C63.9506 147.333 63.9506 147.675 64.3084 147.893L65.2731 148.453C65.478 148.548 65.701 148.597 65.9267 148.597C66.1523 148.597 66.3753 148.548 66.5802 148.453L70.19 146.383C70.2687 146.355 70.3369 146.304 70.3851 146.235C70.4333 146.167 70.4591 146.086 70.4591 146.002C70.4591 145.919 70.4333 145.837 70.3851 145.769C70.3369 145.701 70.2687 145.649 70.19 145.621V145.605Z" fill="#57565E"/>
<path d="M75.8228 142.338L74.8426 141.777C74.6403 141.674 74.4163 141.62 74.189 141.62C73.9618 141.62 73.7378 141.674 73.5355 141.777L69.9413 143.878C69.5834 144.08 69.5834 144.423 69.9413 144.625L70.906 145.201C71.1108 145.295 71.3338 145.344 71.5595 145.344C71.7852 145.344 72.0081 145.295 72.213 145.201L75.8072 143.1C76.1807 142.898 76.1651 142.555 75.8072 142.353L75.8228 142.338Z" fill="#57565E"/>
<path d="M81.4554 139.055L80.4752 138.494C80.2703 138.4 80.0473 138.351 79.8217 138.351C79.596 138.351 79.373 138.4 79.1682 138.494L75.5272 140.579C75.1693 140.797 75.1693 141.14 75.5272 141.342L76.5075 141.902C76.7085 142.01 76.933 142.066 77.161 142.066C77.389 142.066 77.6134 142.01 77.8145 141.902L81.4087 139.817C81.7666 139.615 81.7666 139.272 81.4087 139.055H81.4554Z" fill="#57565E"/>
<path d="M87.0884 135.787L86.1082 135.227C85.9072 135.119 85.6827 135.063 85.4547 135.063C85.2267 135.063 85.0022 135.119 84.8012 135.227L81.2069 137.312C80.849 137.514 80.849 137.856 81.2069 138.074L82.1871 138.634C82.392 138.729 82.615 138.778 82.8406 138.778C83.0663 138.778 83.2893 138.729 83.4941 138.634L87.0884 136.549C87.4463 136.332 87.4463 135.989 87.0884 135.787Z" fill="#57565E"/>
<path d="M92.7212 132.52L91.7409 131.96C91.5387 131.856 91.3147 131.802 91.0874 131.802C90.8601 131.802 90.6361 131.856 90.4339 131.96L86.8396 134.06C86.7588 134.084 86.6879 134.133 86.6374 134.2C86.5869 134.268 86.5596 134.349 86.5596 134.434C86.5596 134.518 86.5869 134.6 86.6374 134.667C86.6879 134.734 86.7588 134.783 86.8396 134.807L87.8199 135.383C88.0247 135.478 88.2477 135.527 88.4734 135.527C88.6991 135.527 88.9221 135.478 89.1269 135.383L92.7212 133.282C92.802 133.259 92.873 133.21 92.9235 133.142C92.974 133.075 93.0013 132.993 93.0013 132.909C93.0013 132.825 92.974 132.743 92.9235 132.675C92.873 132.608 92.802 132.559 92.7212 132.535V132.52Z" fill="#57565E"/>
<path d="M98.3531 129.268L97.3728 128.707C97.168 128.613 96.945 128.563 96.7193 128.563C96.4936 128.563 96.2706 128.613 96.0658 128.707L92.4715 130.823C92.1137 131.041 92.1137 131.384 92.4715 131.586L93.4518 132.146C93.6528 132.254 93.8773 132.31 94.1053 132.31C94.3333 132.31 94.5578 132.254 94.7588 132.146L98.3531 130.061C98.711 129.859 98.711 129.516 98.3531 129.299V129.268Z" fill="#57565E"/>
<path d="M103.986 125.969L103.006 125.409C102.805 125.301 102.58 125.245 102.352 125.245C102.124 125.245 101.9 125.301 101.699 125.409L98.1043 127.494C97.7465 127.696 97.7465 128.039 98.1043 128.256L99.0846 128.817C99.2894 128.911 99.5124 128.96 99.7381 128.96C99.9638 128.96 100.187 128.911 100.392 128.817L103.986 126.732C104.344 126.514 104.344 126.171 103.986 125.969Z" fill="#57565E"/>
<path d="M109.619 122.702L108.638 122.126C108.434 122.031 108.211 121.982 107.985 121.982C107.759 121.982 107.536 122.031 107.331 122.126L103.737 124.226C103.656 124.25 103.585 124.299 103.535 124.366C103.484 124.434 103.457 124.516 103.457 124.6C103.457 124.684 103.484 124.766 103.535 124.833C103.585 124.901 103.656 124.95 103.737 124.973L104.717 125.549C104.922 125.644 105.145 125.693 105.371 125.693C105.597 125.693 105.82 125.644 106.024 125.549L109.619 123.448C109.699 123.425 109.77 123.376 109.821 123.308C109.871 123.241 109.899 123.159 109.899 123.075C109.899 122.991 109.871 122.909 109.821 122.842C109.77 122.774 109.699 122.725 109.619 122.702Z" fill="#57565E"/>
<path d="M115.236 119.418L114.271 118.858C114.066 118.763 113.843 118.714 113.618 118.714C113.392 118.714 113.169 118.763 112.964 118.858L109.37 120.943C109.012 121.161 109.012 121.503 109.37 121.706L110.35 122.266C110.551 122.373 110.776 122.43 111.004 122.43C111.232 122.43 111.456 122.373 111.657 122.266L115.252 120.181C115.609 119.979 115.609 119.636 115.252 119.418H115.236Z" fill="#57565E"/>
<path d="M120.868 116.151L119.903 115.591C119.702 115.483 119.478 115.427 119.25 115.427C119.022 115.427 118.797 115.483 118.596 115.591L115.002 117.676C114.628 117.878 114.644 118.22 115.002 118.438L115.982 118.998C116.187 119.093 116.41 119.142 116.636 119.142C116.861 119.142 117.084 119.093 117.289 118.998L120.883 116.913C121.241 116.695 121.241 116.353 120.883 116.151H120.868Z" fill="#57565E"/>
<path d="M126.501 112.883L125.536 112.307C125.331 112.213 125.108 112.164 124.882 112.164C124.657 112.164 124.434 112.213 124.229 112.307L120.65 114.408C120.277 114.61 120.292 114.953 120.65 115.155L121.631 115.731C121.835 115.825 122.058 115.874 122.284 115.874C122.51 115.874 122.733 115.825 122.938 115.731L126.516 113.708C126.874 113.506 126.874 113.163 126.516 112.961L126.501 112.883Z" fill="#57565E"/>
<path d="M132.133 109.6L131.168 109.04C130.961 108.943 130.736 108.893 130.507 108.893C130.279 108.893 130.053 108.943 129.846 109.04L126.252 111.125C126.173 111.153 126.105 111.205 126.056 111.273C126.008 111.341 125.982 111.423 125.982 111.506C125.982 111.59 126.008 111.671 126.056 111.74C126.105 111.808 126.173 111.86 126.252 111.888L127.216 112.448C127.42 112.555 127.647 112.612 127.878 112.612C128.108 112.612 128.335 112.555 128.539 112.448L132.133 110.363C132.491 110.16 132.491 109.818 132.133 109.6Z" fill="#57565E"/>
<path d="M137.766 106.332L136.801 105.772C136.598 105.665 136.371 105.608 136.14 105.608C135.91 105.608 135.683 105.665 135.479 105.772L131.885 107.857C131.527 108.06 131.527 108.402 131.885 108.62L132.849 109.18C133.056 109.277 133.282 109.327 133.511 109.327C133.739 109.327 133.965 109.277 134.172 109.18L137.766 107.095C138.124 106.877 138.124 106.535 137.766 106.332Z" fill="#57565E"/>
<path d="M64.6356 148.873L63.6553 148.313C63.4505 148.218 63.2275 148.169 63.0018 148.169C62.7761 148.169 62.5531 148.218 62.3483 148.313L57.8827 150.911C57.5248 151.114 57.5248 151.456 57.8827 151.674L58.8474 152.234C59.0522 152.329 59.2752 152.378 59.5009 152.378C59.7266 152.378 59.9496 152.329 60.1544 152.234L64.6356 149.635C65.009 149.433 64.9934 149.091 64.6356 148.873Z" fill="#57565E"/>
<path d="M78.2505 154.163L74.6251 152.078C74.4241 151.97 74.1996 151.914 73.9716 151.914C73.7436 151.914 73.5191 151.97 73.3181 152.078L66.5497 156.015C66.1762 156.217 66.1918 156.559 66.5497 156.777L70.1595 158.831C70.3643 158.926 70.5873 158.975 70.813 158.975C71.0387 158.975 71.2617 158.926 71.4665 158.831L78.2505 154.894C78.6084 154.676 78.6084 154.334 78.2505 154.132V154.163Z" fill="#57565E"/>
<path d="M86.7612 155.719L83.1513 153.618C82.9465 153.524 82.7235 153.475 82.4978 153.475C82.2721 153.475 82.0491 153.524 81.8443 153.618L72.244 159.204C71.8861 159.407 71.8861 159.749 72.244 159.951L75.8538 162.052C76.0587 162.147 76.2816 162.196 76.5073 162.196C76.733 162.196 76.956 162.147 77.1608 162.052L86.7612 156.466C87.119 156.264 87.119 155.921 86.7612 155.719Z" fill="#57565E"/>
<path d="M92.5189 159.08L88.8935 156.995C88.6925 156.887 88.468 156.831 88.24 156.831C88.012 156.831 87.7875 156.887 87.5865 156.995L77.9862 162.565C77.6283 162.768 77.6283 163.11 77.9862 163.328L81.596 165.413C81.8008 165.508 82.0238 165.557 82.2495 165.557C82.4752 165.557 82.6982 165.508 82.903 165.413L92.5033 159.827C92.5841 159.803 92.6551 159.754 92.7056 159.687C92.7561 159.619 92.7834 159.538 92.7834 159.453C92.7834 159.369 92.7561 159.287 92.7056 159.22C92.6551 159.153 92.5841 159.104 92.5033 159.08H92.5189Z" fill="#57565E"/>
<path d="M149.141 112.899L145.546 110.814C145.345 110.706 145.121 110.65 144.893 110.65C144.665 110.65 144.44 110.706 144.239 110.814L137.315 114.828C136.957 115.046 136.957 115.373 137.315 115.591L140.878 117.676C141.083 117.77 141.306 117.819 141.532 117.819C141.758 117.819 141.981 117.77 142.185 117.676L149.109 113.661C149.467 113.443 149.467 113.101 149.109 112.899H149.141Z" fill="#57565E"/>
<path d="M154.882 116.198L151.272 114.113C151.068 114.005 150.841 113.949 150.611 113.949C150.38 113.949 150.153 114.005 149.949 114.113L140.224 119.761C139.867 119.963 139.867 120.305 140.224 120.523L143.834 122.608C144.039 122.703 144.262 122.752 144.488 122.752C144.713 122.752 144.936 122.703 145.141 122.608L154.866 116.96C155.224 116.742 155.224 116.4 154.866 116.198H154.882Z" fill="#57565E"/>
<path d="M157.854 124.6L156.874 124.039C156.673 123.932 156.448 123.875 156.22 123.875C155.992 123.875 155.768 123.932 155.567 124.039L151.972 126.155C151.892 126.179 151.821 126.228 151.77 126.296C151.72 126.363 151.692 126.445 151.692 126.529C151.692 126.613 151.72 126.695 151.77 126.762C151.821 126.83 151.892 126.879 151.972 126.902L152.953 127.478C153.158 127.573 153.381 127.622 153.606 127.622C153.832 127.622 154.055 127.573 154.26 127.478L157.854 125.378C157.935 125.354 158.006 125.305 158.056 125.237C158.107 125.17 158.134 125.088 158.134 125.004C158.134 124.92 158.107 124.838 158.056 124.771C158.006 124.703 157.935 124.654 157.854 124.631V124.6Z" fill="#57565E"/>
<path d="M160.499 126.156L159.518 125.595C159.316 125.492 159.092 125.438 158.865 125.438C158.637 125.438 158.413 125.492 158.211 125.595L154.617 127.711C154.536 127.735 154.465 127.784 154.415 127.852C154.364 127.919 154.337 128.001 154.337 128.085C154.337 128.169 154.364 128.251 154.415 128.318C154.465 128.386 154.536 128.435 154.617 128.458L155.597 129.034C155.802 129.129 156.025 129.178 156.251 129.178C156.476 129.178 156.699 129.129 156.904 129.034L160.499 126.934C160.579 126.91 160.65 126.861 160.701 126.793C160.751 126.726 160.779 126.644 160.779 126.56C160.779 126.476 160.751 126.394 160.701 126.327C160.65 126.259 160.579 126.21 160.499 126.187V126.156Z" fill="#57565E"/>
<path d="M137.455 126.311L133.83 124.211C133.625 124.116 133.402 124.067 133.176 124.067C132.951 124.067 132.728 124.116 132.523 124.211L128.929 126.311C128.571 126.514 128.571 126.856 128.929 127.058L132.538 129.159C132.743 129.254 132.966 129.303 133.192 129.303C133.418 129.303 133.641 129.254 133.845 129.159L137.44 127.058C137.52 127.035 137.591 126.986 137.642 126.918C137.692 126.851 137.72 126.769 137.72 126.685C137.72 126.601 137.692 126.519 137.642 126.451C137.591 126.384 137.52 126.335 137.44 126.311H137.455Z" fill="#57565E"/>
<path d="M143.087 123.044L139.462 120.959C139.257 120.864 139.034 120.815 138.808 120.815C138.582 120.815 138.36 120.864 138.155 120.959L134.56 123.044C134.203 123.262 134.203 123.604 134.56 123.806L138.17 125.891C138.371 125.999 138.596 126.055 138.824 126.055C139.052 126.055 139.276 125.999 139.477 125.891L143.072 123.806C143.429 123.604 143.429 123.262 143.072 123.044H143.087Z" fill="#57565E"/>
<path d="M143.196 129.625L139.571 127.54C139.37 127.433 139.146 127.376 138.917 127.376C138.689 127.376 138.465 127.433 138.264 127.54L134.654 129.625C134.296 129.828 134.296 130.17 134.654 130.372L138.264 132.473C138.469 132.568 138.692 132.617 138.917 132.617C139.143 132.617 139.366 132.568 139.571 132.473L143.165 130.388C143.523 130.17 143.523 129.828 143.165 129.625H143.196Z" fill="#57565E"/>
<path d="M148.829 126.343L145.204 124.258C144.999 124.163 144.776 124.114 144.55 124.114C144.325 124.114 144.102 124.163 143.897 124.258L140.303 126.343C139.945 126.56 139.945 126.903 140.303 127.105L143.99 129.268C144.191 129.375 144.416 129.432 144.644 129.432C144.872 129.432 145.096 129.375 145.297 129.268L148.892 127.183C149.249 126.981 149.249 126.638 148.892 126.42L148.829 126.343Z" fill="#57565E"/>
<path d="M154.461 123.044L150.836 120.959C150.635 120.851 150.41 120.795 150.182 120.795C149.954 120.795 149.73 120.851 149.529 120.959L145.934 123.044C145.577 123.262 145.577 123.588 145.934 123.806L149.544 125.891C149.746 125.995 149.97 126.049 150.198 126.049C150.425 126.049 150.649 125.995 150.851 125.891L154.446 123.806C154.524 123.778 154.592 123.727 154.641 123.658C154.689 123.59 154.715 123.509 154.715 123.425C154.715 123.341 154.689 123.26 154.641 123.192C154.592 123.123 154.524 123.072 154.446 123.044H154.461Z" fill="#57565E"/>
<path d="M160.592 119.512L156.982 117.427C156.781 117.319 156.556 117.263 156.328 117.263C156.1 117.263 155.876 117.319 155.675 117.427L151.567 119.807C151.209 120.009 151.209 120.352 151.567 120.554L155.177 122.655C155.382 122.749 155.605 122.799 155.831 122.799C156.056 122.799 156.279 122.749 156.484 122.655L160.576 120.274C160.95 120.056 160.95 119.714 160.576 119.512H160.592Z" fill="#57565E"/>
<path d="M126.19 132.846L122.564 130.824C122.359 130.729 122.136 130.68 121.911 130.68C121.685 130.68 121.462 130.729 121.257 130.824L117.663 132.909C117.305 133.126 117.305 133.469 117.663 133.671L121.273 135.756C121.474 135.864 121.698 135.92 121.926 135.92C122.154 135.92 122.379 135.864 122.58 135.756L126.174 133.671C126.532 133.469 126.532 133.126 126.174 132.909L126.19 132.846Z" fill="#57565E"/>
<path d="M131.822 129.579L128.197 127.494C127.996 127.386 127.772 127.33 127.544 127.33C127.316 127.33 127.091 127.386 126.89 127.494L123.296 129.579C122.938 129.781 122.938 130.124 123.296 130.341L126.874 132.38C127.079 132.474 127.302 132.524 127.528 132.524C127.754 132.524 127.977 132.474 128.181 132.38L131.776 130.295C132.134 130.077 132.134 129.735 131.776 129.532L131.822 129.579Z" fill="#57565E"/>
<path d="M131.932 136.161L128.322 134.076C128.115 133.979 127.889 133.928 127.66 133.928C127.432 133.928 127.206 133.979 126.999 134.076L123.42 136.161C123.342 136.189 123.274 136.24 123.225 136.309C123.177 136.377 123.151 136.458 123.151 136.542C123.151 136.626 123.177 136.707 123.225 136.775C123.274 136.844 123.342 136.895 123.42 136.923L127.03 139.008C127.231 139.116 127.456 139.172 127.684 139.172C127.912 139.172 128.136 139.116 128.337 139.008L131.932 136.923C132.305 136.721 132.289 136.379 131.932 136.161Z" fill="#57565E"/>
<path d="M137.564 132.893L133.938 130.824C133.737 130.716 133.513 130.66 133.285 130.66C133.057 130.66 132.832 130.716 132.631 130.824L129.053 132.909C128.679 133.126 128.695 133.453 129.053 133.671L132.662 135.756C132.865 135.86 133.089 135.914 133.316 135.914C133.543 135.914 133.767 135.86 133.969 135.756L137.564 133.671C137.937 133.453 137.922 133.126 137.564 132.909V132.893Z" fill="#57565E"/>
<path d="M114.924 139.397L111.314 137.312C111.11 137.204 110.883 137.148 110.653 137.148C110.422 137.148 110.195 137.204 109.992 137.312L106.397 139.397C106.039 139.599 106.055 139.941 106.397 140.159L110.007 142.244C110.212 142.339 110.435 142.388 110.661 142.388C110.886 142.388 111.109 142.339 111.314 142.244L114.924 140.159C115.282 139.941 115.298 139.599 114.924 139.397Z" fill="#57565E"/>
<path d="M120.557 136.129L116.947 134.029C116.74 133.932 116.514 133.881 116.286 133.881C116.057 133.881 115.831 133.932 115.624 134.029L112.03 136.129C111.672 136.332 111.672 136.674 112.03 136.876L115.64 138.977C115.845 139.072 116.068 139.121 116.293 139.121C116.519 139.121 116.742 139.072 116.947 138.977L120.541 136.876C120.622 136.853 120.693 136.804 120.744 136.736C120.794 136.669 120.821 136.587 120.821 136.503C120.821 136.419 120.794 136.337 120.744 136.269C120.693 136.202 120.622 136.153 120.541 136.129H120.557Z" fill="#57565E"/>
<path d="M120.651 142.711L117.041 140.626C116.84 140.519 116.615 140.462 116.387 140.462C116.159 140.462 115.935 140.519 115.734 140.626L112.14 142.711C111.766 142.929 111.782 143.256 112.14 143.474L115.749 145.559C115.954 145.663 116.181 145.717 116.411 145.717C116.64 145.717 116.867 145.663 117.072 145.559L120.651 143.474C121.024 143.256 121.024 142.914 120.651 142.711Z" fill="#57565E"/>
<path d="M126.299 139.444L122.689 137.343C122.484 137.239 122.258 137.185 122.028 137.185C121.798 137.185 121.572 137.239 121.367 137.343L117.788 139.428C117.415 139.63 117.43 139.973 117.788 140.175L121.398 142.275C121.605 142.373 121.83 142.423 122.059 142.423C122.288 142.423 122.513 142.373 122.72 142.275L126.299 140.191C126.673 139.973 126.673 139.63 126.299 139.428V139.444Z" fill="#57565E"/>
<path d="M103.659 145.948L100.05 143.847C99.8427 143.75 99.6169 143.7 99.3883 143.7C99.1597 143.7 98.9339 143.75 98.727 143.847L95.1483 145.948C94.7749 146.15 94.7904 146.492 95.1483 146.695L98.7581 148.795C98.963 148.89 99.1859 148.939 99.4116 148.939C99.6373 148.939 99.8603 148.89 100.065 148.795L103.659 146.695C104.033 146.492 104.033 146.15 103.659 145.948Z" fill="#57565E"/>
<path d="M109.292 142.665L105.682 140.58C105.475 140.483 105.249 140.432 105.021 140.432C104.792 140.432 104.566 140.483 104.36 140.58L100.781 142.665C100.702 142.693 100.634 142.744 100.586 142.813C100.538 142.881 100.512 142.962 100.512 143.046C100.512 143.129 100.538 143.211 100.586 143.279C100.634 143.347 100.702 143.399 100.781 143.427L104.391 145.512C104.592 145.62 104.816 145.676 105.044 145.676C105.272 145.676 105.497 145.62 105.698 145.512L109.292 143.427C109.665 143.225 109.665 142.882 109.292 142.665Z" fill="#57565E"/>
<path d="M109.401 149.262L105.791 147.161C105.589 147.058 105.365 147.003 105.137 147.003C104.91 147.003 104.686 147.058 104.484 147.161L100.889 149.246C100.809 149.27 100.738 149.319 100.687 149.386C100.637 149.454 100.609 149.536 100.609 149.62C100.609 149.704 100.637 149.786 100.687 149.853C100.738 149.92 100.809 149.97 100.889 149.993L104.515 152.094C104.72 152.189 104.943 152.238 105.168 152.238C105.394 152.238 105.617 152.189 105.822 152.094L109.416 150.009C109.774 149.791 109.774 149.449 109.416 149.246L109.401 149.262Z" fill="#57565E"/>
<path d="M115.033 145.979L111.423 143.894C111.219 143.799 110.996 143.75 110.77 143.75C110.544 143.75 110.321 143.799 110.116 143.894L106.522 145.979C106.443 146.007 106.375 146.059 106.327 146.127C106.279 146.195 106.253 146.277 106.253 146.36C106.253 146.444 106.279 146.525 106.327 146.593C106.375 146.662 106.443 146.713 106.522 146.741L110.147 148.826C110.348 148.934 110.573 148.99 110.801 148.99C111.029 148.99 111.253 148.934 111.454 148.826L115.049 146.741C115.407 146.539 115.407 146.197 115.049 145.979H115.033Z" fill="#57565E"/>
<path d="M92.3938 152.483L88.784 150.398C88.5791 150.303 88.3561 150.254 88.1304 150.254C87.9048 150.254 87.6818 150.303 87.4769 150.398L83.8827 152.483C83.5248 152.701 83.5248 153.043 83.8827 153.245L87.4925 155.33C87.6963 155.438 87.9233 155.494 88.1538 155.494C88.3843 155.494 88.6113 155.438 88.8151 155.33L92.3938 153.245C92.7672 153.043 92.7672 152.701 92.3938 152.483Z" fill="#57565E"/>
<path d="M98.0267 149.215L94.4168 147.13C94.213 147.023 93.986 146.966 93.7555 146.966C93.5251 146.966 93.2981 147.023 93.0943 147.13L89.5311 149.215C89.1577 149.417 89.1732 149.76 89.5311 149.978L93.1409 152.063C93.3479 152.16 93.5736 152.21 93.8022 152.21C94.0308 152.21 94.2566 152.16 94.4635 152.063L98.0422 149.978C98.4157 149.76 98.4157 149.417 98.0422 149.215H98.0267Z" fill="#57565E"/>
<path d="M98.1516 155.797L94.5261 153.712C94.3213 153.617 94.0983 153.568 93.8726 153.568C93.6469 153.568 93.424 153.617 93.2191 153.712L89.6248 155.797C89.267 156.015 89.267 156.357 89.6248 156.559L93.2503 158.644C93.4513 158.752 93.6758 158.808 93.9038 158.808C94.1318 158.808 94.3563 158.752 94.5573 158.644L98.1516 156.559C98.5094 156.357 98.5094 156.015 98.1516 155.797Z" fill="#57565E"/>
<path d="M103.784 152.607L100.159 150.522C99.9577 150.415 99.7332 150.358 99.5052 150.358C99.2772 150.358 99.0527 150.415 98.8517 150.522L95.2574 152.607C95.1787 152.635 95.1105 152.687 95.0623 152.755C95.0142 152.823 94.9883 152.905 94.9883 152.988C94.9883 153.072 95.0142 153.154 95.0623 153.222C95.1105 153.29 95.1787 153.342 95.2574 153.37L98.8673 155.377C99.0695 155.481 99.2935 155.535 99.5208 155.535C99.748 155.535 99.9721 155.481 100.174 155.377L103.769 153.292C103.847 153.264 103.915 153.212 103.964 153.144C104.012 153.076 104.038 152.994 104.038 152.911C104.038 152.827 104.012 152.746 103.964 152.677C103.915 152.609 103.847 152.557 103.769 152.529L103.784 152.607Z" fill="#57565E"/>
<path d="M149.233 132.675L145.546 130.59C145.341 130.495 145.118 130.446 144.892 130.446C144.666 130.446 144.443 130.495 144.239 130.59L140.644 132.675C140.287 132.893 140.287 133.235 140.644 133.438L144.332 135.491C144.533 135.599 144.758 135.655 144.986 135.655C145.214 135.655 145.438 135.599 145.639 135.491L149.233 133.406C149.591 133.204 149.591 132.862 149.233 132.644V132.675Z" fill="#57565E"/>
<path d="M154.882 129.408L151.257 127.323C151.056 127.215 150.831 127.159 150.603 127.159C150.375 127.159 150.151 127.215 149.95 127.323L146.355 129.408C145.997 129.625 145.997 129.952 146.355 130.17L149.965 132.255C150.167 132.359 150.391 132.413 150.619 132.413C150.846 132.413 151.07 132.359 151.272 132.255L154.866 130.17C154.945 130.142 155.013 130.09 155.062 130.022C155.11 129.954 155.136 129.872 155.136 129.789C155.136 129.705 155.11 129.624 155.062 129.555C155.013 129.487 154.945 129.436 154.866 129.408H154.882Z" fill="#57565E"/>
<path d="M166.256 122.779L162.662 120.694C162.457 120.599 162.234 120.55 162.008 120.55C161.783 120.55 161.56 120.599 161.355 120.694L157.761 122.779C157.403 122.997 157.403 123.339 157.761 123.542L161.386 125.627C161.587 125.734 161.811 125.79 162.039 125.79C162.267 125.79 162.492 125.734 162.693 125.627L166.287 123.542C166.645 123.339 166.645 122.997 166.287 122.779H166.256Z" fill="#57565E"/>
</g>
<defs>
<linearGradient id="paint0_linear_633_2041" x1="62.3173" y1="142.836" x2="103.737" y2="35.8785" gradientUnits="userSpaceOnUse">
<stop offset="0.01" stop-color="#A0A6C0"/>
<stop offset="0.38" stop-color="#A0A6C0"/>
<stop offset="0.39" stop-color="#C6C9DA"/>
<stop offset="0.4" stop-color="#D9DAE6"/>
<stop offset="0.41" stop-color="#E3E4EE"/>
<stop offset="0.42" stop-color="#E7E7F0"/>
</linearGradient>
<linearGradient id="paint1_linear_633_2041" x1="51.737" y1="145.73" x2="190" y2="145.73" gradientUnits="userSpaceOnUse">
<stop offset="0.01" stop-color="#A0A6C0"/>
<stop offset="0.38" stop-color="#A3A9C2"/>
<stop offset="0.4" stop-color="#B6BACE"/>
<stop offset="0.42" stop-color="#C0C5D6"/>
<stop offset="0.43" stop-color="#C4C8D8"/>
<stop offset="0.94" stop-color="#C4C8D8"/>
<stop offset="0.98" stop-color="#C4C8D8"/>
<stop offset="1" stop-color="#C4C8D8"/>
</linearGradient>
<clipPath id="clip0_633_2041">
<rect width="160" height="152.811" fill="white" transform="translate(30 33)"/>
</clipPath>
</defs>
</svg>
