<svg width="28" height="28" viewBox="0 0 28 28" fill="none" xmlns="http://www.w3.org/2000/svg">
<path d="M12.8164 4.45454L7.31818 13.2641C8.54 13.3654 9.55818 13.8717 10.3727 14.783C11.2382 15.6943 11.6709 16.8082 11.6709 18.1246C11.6709 19.5928 11.1618 20.7573 10.1436 21.618C9.17637 22.4787 8.03091 22.9091 6.70728 22.9091C5.28182 22.9091 4.08546 22.4787 3.11818 21.618C2.1 20.7573 1.59091 19.5422 1.59091 17.9727C1.59091 16.5044 2.15091 14.859 3.27091 13.0363C4.34 11.2136 6.07091 8.60618 8.46364 5.21399L8.99818 4.45454H12.8164ZM26.4091 4.45454L20.9109 13.2641C22.1327 13.3654 23.1509 13.8717 23.9655 14.783C24.8309 15.6943 25.2636 16.8082 25.2636 18.1246C25.2636 19.5928 24.7545 20.7573 23.7364 21.618C22.7691 22.4787 21.6236 22.9091 20.3 22.9091C18.8745 22.9091 17.6527 22.4787 16.6345 21.618C15.6673 20.7573 15.1836 19.5422 15.1836 17.9727C15.1836 16.5044 15.7182 14.859 16.7873 13.0363C17.9073 11.2136 19.6636 8.60618 22.0564 5.21399L22.5909 4.45454H26.4091Z" fill="#E9F3FF"/>
</svg>
