<svg width="260" height="258" viewBox="0 0 260 258" fill="none" xmlns="http://www.w3.org/2000/svg">
<rect x="48" y="19" width="148" height="194" rx="10" fill="url(#paint0_linear_625_22203)"/>
<mask id="path-2-outside-1_625_22203" maskUnits="userSpaceOnUse" x="55" y="26" width="135" height="180" fill="black">
<rect fill="white" x="55" y="26" width="135" height="180"/>
<path fill-rule="evenodd" clip-rule="evenodd" d="M58 107V45.9007C58 44.6476 58.787 43.5421 59.9209 43.0087C65.2236 40.5143 69.5143 36.2236 72.0087 30.9209C72.5421 29.787 73.6476 29 74.9008 29H117.073H127.073H169.187C170.441 29 171.547 29.7874 172.08 30.9219C174.571 36.2239 178.857 40.514 184.153 43.0083C185.287 43.542 186.073 44.6472 186.073 45.9V107V124.5V185.6C186.073 186.853 185.287 187.958 184.153 188.492C178.857 190.986 174.571 195.276 172.08 200.578C171.547 201.713 170.441 202.5 169.187 202.5H127.073H117.073H74.9007C73.6476 202.5 72.5421 201.713 72.0087 200.579C69.5143 195.276 65.2236 190.986 59.9209 188.491C58.787 187.958 58 186.852 58 185.599V124.5V107Z"/>
</mask>
<path fill-rule="evenodd" clip-rule="evenodd" d="M58 107V45.9007C58 44.6476 58.787 43.5421 59.9209 43.0087C65.2236 40.5143 69.5143 36.2236 72.0087 30.9209C72.5421 29.787 73.6476 29 74.9008 29H117.073H127.073H169.187C170.441 29 171.547 29.7874 172.08 30.9219C174.571 36.2239 178.857 40.514 184.153 43.0083C185.287 43.542 186.073 44.6472 186.073 45.9V107V124.5V185.6C186.073 186.853 185.287 187.958 184.153 188.492C178.857 190.986 174.571 195.276 172.08 200.578C171.547 201.713 170.441 202.5 169.187 202.5H127.073H117.073H74.9007C73.6476 202.5 72.5421 201.713 72.0087 200.579C69.5143 195.276 65.2236 190.986 59.9209 188.491C58.787 187.958 58 186.852 58 185.599V124.5V107Z" fill="white" fill-opacity="0.8"/>
<path d="M59.9209 188.491L61.1979 185.777L59.9209 188.491ZM172.08 200.578L169.365 199.302L172.08 200.578ZM184.153 188.492L182.875 185.778L184.153 188.492ZM184.153 43.0083L185.432 40.2942L184.153 43.0083ZM72.0087 200.579L74.7233 199.302L72.0087 200.579ZM59.9209 43.0087L58.644 40.294L59.9209 43.0087ZM55 45.9007V107H61V45.9007H55ZM69.294 29.644C67.0969 34.3147 63.3147 38.0969 58.644 40.294L61.1979 45.7233C67.1326 42.9317 71.9317 38.1326 74.7233 32.1979L69.294 29.644ZM117.073 26H74.9008V32H117.073V26ZM127.073 26H117.073V32H127.073V26ZM169.187 26H127.073V32H169.187V26ZM185.432 40.2942C180.767 38.0976 176.99 34.3164 174.795 29.646L169.365 32.1979C172.153 38.1314 176.947 42.9303 182.875 45.7223L185.432 40.2942ZM189.073 107V45.9H183.073V107H189.073ZM189.073 124.5V107H183.073V124.5H189.073ZM189.073 185.6V124.5H183.073V185.6H189.073ZM174.795 201.854C176.99 197.184 180.767 193.402 185.432 191.206L182.875 185.778C176.947 188.57 172.153 193.369 169.365 199.302L174.795 201.854ZM127.073 205.5H169.187V199.5H127.073V205.5ZM117.073 205.5H127.073V199.5H117.073V205.5ZM74.9007 205.5H117.073V199.5H74.9007V205.5ZM58.644 191.206C63.3147 193.403 67.0969 197.185 69.294 201.856L74.7233 199.302C71.9317 193.367 67.1326 188.568 61.1979 185.777L58.644 191.206ZM55 124.5V185.599H61V124.5H55ZM55 107V124.5H61V107H55ZM61.1979 185.777C61.1068 185.734 61.048 185.676 61.019 185.633C60.9938 185.595 61 185.586 61 185.599H55C55 188.153 56.5892 190.239 58.644 191.206L61.1979 185.777ZM169.365 199.302C169.322 199.393 169.264 199.452 169.221 199.481C169.184 199.506 169.174 199.5 169.187 199.5V205.5C171.742 205.5 173.829 203.91 174.795 201.854L169.365 199.302ZM183.073 185.6C183.073 185.587 183.079 185.596 183.054 185.633C183.025 185.676 182.966 185.735 182.875 185.778L185.432 191.206C187.485 190.239 189.073 188.153 189.073 185.6H183.073ZM182.875 45.7223C182.966 45.7653 183.025 45.8236 183.054 45.8665C183.079 45.9039 183.073 45.9133 183.073 45.9H189.073C189.073 43.3473 187.485 41.2612 185.432 40.2942L182.875 45.7223ZM74.9007 199.5C74.914 199.5 74.9045 199.506 74.8673 199.481C74.8244 199.452 74.7661 199.393 74.7233 199.302L69.294 201.856C70.2606 203.911 72.3473 205.5 74.9007 205.5V199.5ZM74.7233 32.1979C74.7661 32.1069 74.8244 32.048 74.8673 32.019C74.9046 31.9938 74.914 32 74.9008 32V26C72.3473 26 70.2606 27.5892 69.294 29.644L74.7233 32.1979ZM169.187 32C169.174 32 169.184 31.9938 169.221 32.019C169.264 32.0481 169.322 32.1069 169.365 32.1979L174.795 29.646C173.829 27.5901 171.742 26 169.187 26V32ZM61 45.9007C61 45.914 60.9938 45.9045 61.019 45.8673C61.048 45.8244 61.1068 45.7661 61.1979 45.7233L58.644 40.294C56.5892 41.2606 55 43.3473 55 45.9007H61Z" fill="url(#paint1_linear_625_22203)" mask="url(#path-2-outside-1_625_22203)"/>
<path fill-rule="evenodd" clip-rule="evenodd" d="M82 86C80.3431 86 79 87.3431 79 89C79 90.6569 80.3431 92 82 92H162C163.657 92 165 90.6569 165 89C165 87.3431 163.657 86 162 86H82ZM82 102C80.3431 102 79 103.343 79 105C79 106.657 80.3431 108 82 108H162C163.657 108 165 106.657 165 105C165 103.343 163.657 102 162 102H82ZM79 121C79 119.343 80.3431 118 82 118H162C163.657 118 165 119.343 165 121C165 122.657 163.657 124 162 124H82C80.3431 124 79 122.657 79 121ZM82 134C80.3431 134 79 135.343 79 137C79 138.657 80.3431 140 82 140H162C163.657 140 165 138.657 165 137C165 135.343 163.657 134 162 134H82ZM79 153C79 151.343 80.3431 150 82 150H162C163.657 150 165 151.343 165 153C165 154.657 163.657 156 162 156H82C80.3431 156 79 154.657 79 153ZM118 166C116.343 166 115 167.343 115 169C115 170.657 116.343 172 118 172H148C149.657 172 151 170.657 151 169C151 167.343 149.657 166 148 166H118Z" fill="url(#paint2_linear_625_22203)"/>
<rect x="79" y="67" width="37" height="7" rx="3.5" fill="url(#paint3_linear_625_22203)"/>
<mask id="mask0_625_22203" style="mask-type:alpha" maskUnits="userSpaceOnUse" x="48" y="19" width="148" height="194">
<rect x="48" y="19" width="148" height="194" fill="#C4C4C4"/>
</mask>
<g mask="url(#mask0_625_22203)">
<g filter="url(#filter0_d_625_22203)">
<path d="M202 236L176.5 223L151 236L151 178L202 178L202 236Z" fill="url(#paint4_linear_625_22203)"/>
<path d="M176.273 222.555L151.5 235.184L151.5 178.5L201.5 178.5L201.5 235.184L176.727 222.555L176.5 222.439L176.273 222.555Z" stroke="black" stroke-opacity="0.03"/>
<ellipse cx="177" cy="154" rx="46" ry="46" fill="url(#paint5_linear_625_22203)"/>
<path d="M176.082 132.133C176.429 131.327 177.571 131.327 177.918 132.133L183.254 144.523C183.399 144.859 183.716 145.089 184.08 145.123L197.513 146.369C198.387 146.45 198.74 147.537 198.081 148.116L187.946 157.02C187.671 157.261 187.55 157.634 187.63 157.991L190.596 171.151C190.789 172.007 189.865 172.679 189.11 172.231L177.511 165.343C177.196 165.156 176.804 165.156 176.489 165.343L164.89 172.231C164.135 172.679 163.211 172.007 163.404 171.151L166.37 157.991C166.45 157.634 166.329 157.261 166.054 157.02L155.919 148.116C155.26 147.537 155.613 146.45 156.487 146.369L169.92 145.123C170.284 145.089 170.601 144.859 170.746 144.523L176.082 132.133Z" fill="white"/>
<path d="M188.118 157.881L187.63 157.991L188.118 157.881C188.078 157.702 188.138 157.516 188.276 157.395L198.411 148.492C199.4 147.623 198.87 145.993 197.559 145.871L184.127 144.625C183.944 144.609 183.786 144.493 183.714 144.325L178.378 131.935C177.857 130.726 176.143 130.726 175.622 131.935L170.286 144.325C170.214 144.493 170.056 144.609 169.873 144.625L156.441 145.871C155.13 145.993 154.6 147.623 155.589 148.492L165.724 157.395C165.862 157.516 165.922 157.702 165.882 157.881L162.916 171.041C162.627 172.325 164.013 173.333 165.145 172.661L176.745 165.773C176.902 165.68 177.098 165.68 177.255 165.773L188.855 172.661C189.987 173.333 191.373 172.325 191.084 171.041L188.118 157.881Z" stroke="black" stroke-opacity="0.1"/>
</g>
</g>
<g filter="url(#filter1_i_625_22203)">
<path d="M202 236L176.5 223L151 236L151 178L202 178L202 236Z" fill="url(#paint6_linear_625_22203)"/>
</g>
<path d="M176.273 222.555L151.5 235.184L151.5 178.5L201.5 178.5L201.5 235.184L176.727 222.555L176.5 222.439L176.273 222.555Z" stroke="black" stroke-opacity="0.03"/>
<path d="M176.5 223L151 236L151 178L176.5 181L176.5 223Z" fill="#005DBA" fill-opacity="0.06" style="mix-blend-mode:multiply"/>
<circle cx="177" cy="154" r="46" fill="url(#paint7_linear_625_22203)"/>
<path d="M176.082 132.133C176.429 131.327 177.571 131.327 177.918 132.133L183.254 144.523C183.399 144.859 183.716 145.089 184.08 145.123L197.513 146.369C198.387 146.45 198.74 147.537 198.081 148.116L187.946 157.02C187.671 157.261 187.55 157.634 187.63 157.991L190.596 171.151C190.789 172.007 189.865 172.679 189.11 172.231L177.511 165.343C177.196 165.156 176.804 165.156 176.489 165.343L164.89 172.231C164.135 172.679 163.211 172.007 163.404 171.151L166.37 157.991C166.45 157.634 166.329 157.261 166.054 157.02L155.919 148.116C155.26 147.537 155.613 146.45 156.487 146.369L169.92 145.123C170.284 145.089 170.601 144.859 170.746 144.523L176.082 132.133Z" fill="white"/>
<path d="M188.118 157.881L187.63 157.991L188.118 157.881C188.078 157.702 188.138 157.516 188.276 157.395L198.411 148.492C199.4 147.623 198.87 145.993 197.559 145.871L184.127 144.625C183.944 144.609 183.786 144.493 183.714 144.325L178.378 131.935C177.857 130.726 176.143 130.726 175.622 131.935L170.286 144.325C170.214 144.493 170.056 144.609 169.873 144.625L156.441 145.871C155.13 145.993 154.6 147.623 155.589 148.492L165.724 157.395C165.862 157.516 165.922 157.702 165.882 157.881L162.916 171.041C162.627 172.325 164.013 173.333 165.145 172.661L176.745 165.773C176.902 165.68 177.098 165.68 177.255 165.773L188.855 172.661C189.987 173.333 191.373 172.325 191.084 171.041L188.118 157.881Z" stroke="black" stroke-opacity="0.1"/>
<defs>
<filter id="filter0_d_625_22203" x="123" y="108" width="100" height="136" filterUnits="userSpaceOnUse" color-interpolation-filters="sRGB">
<feFlood flood-opacity="0" result="BackgroundImageFix"/>
<feColorMatrix in="SourceAlpha" type="matrix" values="0 0 0 0 0 0 0 0 0 0 0 0 0 0 0 0 0 0 127 0" result="hardAlpha"/>
<feOffset dx="-4" dy="4"/>
<feGaussianBlur stdDeviation="2"/>
<feComposite in2="hardAlpha" operator="out"/>
<feColorMatrix type="matrix" values="0 0 0 0 0 0 0 0 0 0.425805 0 0 0 0 0.774964 0 0 0 0.12 0"/>
<feBlend mode="normal" in2="BackgroundImageFix" result="effect1_dropShadow_625_22203"/>
<feBlend mode="normal" in="SourceGraphic" in2="effect1_dropShadow_625_22203" result="shape"/>
</filter>
<filter id="filter1_i_625_22203" x="151" y="174" width="51" height="62" filterUnits="userSpaceOnUse" color-interpolation-filters="sRGB">
<feFlood flood-opacity="0" result="BackgroundImageFix"/>
<feBlend mode="normal" in="SourceGraphic" in2="BackgroundImageFix" result="shape"/>
<feColorMatrix in="SourceAlpha" type="matrix" values="0 0 0 0 0 0 0 0 0 0 0 0 0 0 0 0 0 0 127 0" result="hardAlpha"/>
<feOffset dy="-4"/>
<feGaussianBlur stdDeviation="2"/>
<feComposite in2="hardAlpha" operator="arithmetic" k2="-1" k3="1"/>
<feColorMatrix type="matrix" values="0 0 0 0 0 0 0 0 0 0 0 0 0 0 0 0 0 0 0.03 0"/>
<feBlend mode="multiply" in2="shape" result="effect1_innerShadow_625_22203"/>
</filter>
<linearGradient id="paint0_linear_625_22203" x1="91.5294" y1="19" x2="31.5201" y2="192.209" gradientUnits="userSpaceOnUse">
<stop stop-color="#EBF1F6"/>
<stop offset="1" stop-color="#DDE3EA"/>
</linearGradient>
<linearGradient id="paint1_linear_625_22203" x1="122.037" y1="29" x2="122.037" y2="202.5" gradientUnits="userSpaceOnUse">
<stop stop-color="#DEE4EA"/>
<stop offset="1" stop-color="#D6DCE2"/>
</linearGradient>
<linearGradient id="paint2_linear_625_22203" x1="104.294" y1="83.8571" x2="93.0961" y2="143.172" gradientUnits="userSpaceOnUse">
<stop stop-color="#DFE7EE"/>
<stop offset="1" stop-color="#DDE4EB"/>
</linearGradient>
<linearGradient id="paint3_linear_625_22203" x1="97.5" y1="67" x2="97.5" y2="74" gradientUnits="userSpaceOnUse">
<stop stop-color="#44BCFF"/>
<stop offset="1" stop-color="#48B1FF"/>
</linearGradient>
<linearGradient id="paint4_linear_625_22203" x1="176.5" y1="178" x2="176.5" y2="236" gradientUnits="userSpaceOnUse">
<stop stop-color="#DAECFF"/>
<stop offset="1" stop-color="#9CCFFF"/>
</linearGradient>
<linearGradient id="paint5_linear_625_22203" x1="177" y1="108" x2="177" y2="200" gradientUnits="userSpaceOnUse">
<stop stop-color="#44BCFF"/>
<stop offset="1" stop-color="#4BA5FF"/>
</linearGradient>
<linearGradient id="paint6_linear_625_22203" x1="176.5" y1="178" x2="176.5" y2="236" gradientUnits="userSpaceOnUse">
<stop stop-color="#DAECFF"/>
<stop offset="1" stop-color="#9CCFFF"/>
</linearGradient>
<linearGradient id="paint7_linear_625_22203" x1="177" y1="108" x2="177" y2="200" gradientUnits="userSpaceOnUse">
<stop stop-color="#44BCFF"/>
<stop offset="1" stop-color="#4BA5FF"/>
</linearGradient>
</defs>
</svg>
