<svg width="220" height="220" viewBox="0 0 220 220" fill="none" xmlns="http://www.w3.org/2000/svg">
<rect width="220" height="220" rx="10" fill="#F8F8F8"/>
<g clip-path="url(#clip0_633_2040)">
<path d="M50 165.44V165.578C50.4163 167.092 51.1913 168.483 52.2594 169.634C53.3274 170.785 54.6571 171.661 56.1358 172.189L87.244 183.449V180.381L50.1227 160.439L50 165.44Z" fill="#8990B0"/>
<path d="M64.6954 140.238C63.0118 139.266 61.2064 138.523 59.3266 138.029C57.9768 138.029 56.1667 138.121 56.1667 141.235C56.1296 142.079 56.377 142.912 56.8693 143.599C57.3616 144.286 58.0703 144.787 58.8818 145.024L65.6465 147.478C65.6465 147.478 69.6654 141.664 64.6954 140.238Z" fill="#41464F"/>
<path d="M60.5386 138.781C62.1799 139.732 63.8826 141.358 63.1923 141.756C62.5021 142.155 59.6796 141.174 58.0383 140.222C56.397 139.271 57.0873 139.026 57.7775 138.689C58.4678 138.351 58.8973 137.83 60.5386 138.781Z" fill="#41464F"/>
<path d="M57.0254 139.333V109.896L63.3452 112.075V141.526L57.0254 139.333Z" fill="#41464F"/>
<path d="M60.5386 109.39C62.1799 110.341 63.8826 111.967 63.1923 112.366C62.5021 112.765 59.6796 111.783 58.0383 110.832C56.397 109.881 57.0873 109.635 57.7775 109.298C58.4678 108.96 58.8973 108.439 60.5386 109.39Z" fill="#6F7279"/>
<path d="M60.2156 109.513C61.3814 110.188 62.8386 111.476 62.3478 111.768C61.8569 112.059 59.602 111.2 58.4362 110.525C57.2704 109.85 57.7613 109.681 58.2522 109.405C58.743 109.129 59.0498 108.838 60.2156 109.513Z" fill="#41464F"/>
<path d="M57.792 63.2187V109.85L62.3938 111.599L61.3354 64.7527C61.3354 64.7527 58.1755 62.6358 57.792 63.2187Z" fill="#41464F"/>
<path d="M60.2471 63.2186C61.4282 64.1696 61.5509 65.0593 61.0601 65.2741C60.5692 65.4888 59.6489 64.9826 58.4524 64.0162C57.2559 63.0498 57.7621 62.9578 58.253 62.7431C58.7438 62.5283 59.0506 62.2829 60.2471 63.2186Z" fill="#6F7279"/>
<path d="M115.898 110.679C115.898 110.679 111.833 108.455 110.483 108.455C109.133 108.455 107.323 108.562 107.323 111.676C107.286 112.52 107.533 113.353 108.026 114.04C108.518 114.727 109.227 115.228 110.038 115.465L116.803 117.904C116.803 117.904 120.868 112.105 115.898 110.679Z" fill="#41464F"/>
<path d="M111.741 109.237C113.382 110.188 115.085 111.814 114.394 112.213C113.704 112.611 110.882 111.63 109.24 110.679C107.599 109.728 108.289 109.482 108.98 109.145C109.67 108.807 110.099 108.27 111.741 109.237Z" fill="#41464F"/>
<path d="M108.229 109.758V80.3374L114.548 82.5156V111.967L108.229 109.758Z" fill="#41464F"/>
<path d="M111.741 79.8313C113.382 80.7824 115.085 82.4084 114.394 82.8072C113.704 83.206 110.882 82.2243 109.24 81.2733C107.599 80.3222 108.289 80.0768 108.98 79.7393C109.67 79.4018 110.099 78.8803 111.741 79.8313Z" fill="#6F7279"/>
<path d="M111.48 79.9539C112.646 80.6288 114.103 81.9173 113.612 82.2088C113.122 82.5002 110.867 81.6412 109.701 80.9663C108.535 80.2914 109.026 80.1226 109.517 79.8312C110.008 79.5397 110.253 79.279 111.48 79.9539Z" fill="#41464F"/>
<path d="M108.919 33.6443V80.2914L113.643 82.0401L112.539 35.2243C112.539 35.2243 109.379 33.0768 108.919 33.6443Z" fill="#41464F"/>
<path d="M111.48 33.6902C112.662 34.6413 112.784 35.5309 112.293 35.7457C111.803 35.9604 110.882 35.4542 109.686 34.4879C108.489 33.5215 108.995 33.4294 109.486 33.1994C109.977 32.9693 110.253 32.7238 111.48 33.6902Z" fill="#6F7279"/>
<path d="M60.2009 142.462L55.3076 148.598L50.1229 160.44C50.084 162.404 50.6646 164.331 51.7825 165.948C52.9003 167.564 54.4986 168.787 56.3507 169.444L87.2289 180.442L86.4773 166.223L60.2009 142.462Z" fill="#B8BCCF"/>
<path d="M153.004 112.642C150.122 109.255 146.371 106.72 142.154 105.308C137.936 103.897 133.414 103.665 129.074 104.635L127.019 105.095C124.797 105.571 122.661 106.383 120.684 107.504L60.1392 142.477L57.2861 146.68C56.7067 147.543 56.3312 148.525 56.1882 149.554C56.0452 150.583 56.1383 151.631 56.4606 152.619C56.7829 153.606 57.3259 154.508 58.0483 155.254C58.7707 156.001 59.6536 156.573 60.6301 156.927L86.4156 166.223L104.393 163.6L158.879 132.139L161.579 122.828L153.004 112.642Z" fill="#E8E7EC"/>
<path d="M130.317 106.169L86.0323 161.145L86.4771 166.222L60.6916 156.927C59.7151 156.572 58.8322 156 58.1098 155.254C57.3874 154.507 56.8444 153.606 56.5221 152.618C56.1999 151.631 56.1067 150.583 56.2497 149.554C56.3928 148.525 56.7682 147.542 57.3476 146.68L60.2008 142.477L120.684 107.503C122.64 106.378 124.755 105.555 126.958 105.064L129.013 104.604C130.831 104.198 132.689 104.002 134.551 104.021C133.014 104.457 131.576 105.186 130.317 106.169Z" fill="#CFCFDA"/>
<path d="M61.5503 143.275L62.1026 142.462L121.757 108.025C123.709 106.902 125.819 106.08 128.016 105.586C132.425 104.6 137.022 104.858 141.293 106.331C145.565 107.805 149.343 110.436 152.206 113.931L158.342 121.478L156.808 128.212L103.55 158.967L89.1919 161.053L86.124 161.145L64.971 153.476C63.995 153.128 63.1108 152.563 62.3851 151.823C61.6594 151.084 61.1112 150.189 60.7817 149.207C60.4523 148.224 60.3503 147.18 60.4835 146.152C60.6166 145.125 60.9814 144.141 61.5503 143.275Z" fill="#F2F1F4"/>
<path d="M152.206 113.931C149.671 110.831 146.41 108.407 142.711 106.875C145.575 108.403 148.105 110.489 150.15 113.01L156.286 120.557L154.752 127.291L101.479 157.97L87.1209 160.056L84.0531 160.148L63.4062 152.709C63.8811 153.039 64.3967 153.308 64.9402 153.506L86.0932 161.176L89.1611 161.084L103.519 158.998L156.792 128.242L158.326 121.508L152.206 113.931Z" fill="#F6F6F8"/>
<path d="M170 136.219L161.641 122.828L158.941 132.139L104.455 163.6L86.4775 166.223L87.2445 180.442L109.195 178.065L167.316 144.502L170 136.219Z" fill="#DADAE6"/>
<path d="M158.941 132.139L167.316 144.502L109.195 178.065L104.455 163.6L158.941 132.139Z" fill="#E8E7EC"/>
<path d="M113.183 160.654L152.713 137.829C153.521 137.366 154.477 137.233 155.38 137.459C156.284 137.685 157.065 138.252 157.56 139.041L158.204 140.069C158.648 140.776 158.946 141.565 159.078 142.389C159.21 143.213 159.175 144.056 158.975 144.866C158.774 145.677 158.413 146.438 157.911 147.106C157.41 147.773 156.779 148.333 156.057 148.751L118.199 170.594C117.571 170.953 116.87 171.168 116.149 171.223C115.427 171.278 114.702 171.172 114.026 170.912C113.351 170.652 112.742 170.245 112.243 169.72C111.744 169.196 111.368 168.567 111.143 167.879L110.805 166.836C110.434 165.689 110.467 164.449 110.9 163.324C111.332 162.199 112.138 161.256 113.183 160.654Z" fill="#3A3F47"/>
<path d="M170 139.225V136.219L167.316 144.502L109.195 178.065L87.2441 180.442V183.449L109.195 181.071L167.316 147.509L170 139.225Z" fill="#A0A6C0"/>
<path d="M120.683 160.992C120.647 160.938 120.599 160.892 120.545 160.856C120.49 160.821 120.428 160.797 120.364 160.785C120.3 160.774 120.234 160.775 120.17 160.79C120.107 160.804 120.046 160.831 119.993 160.869L118.459 161.774C118.343 161.834 118.254 161.934 118.209 162.056C118.163 162.178 118.165 162.313 118.214 162.434L118.306 162.618C118.342 162.67 118.389 162.714 118.443 162.748C118.497 162.782 118.558 162.804 118.621 162.814C118.684 162.824 118.748 162.822 118.81 162.806C118.872 162.791 118.93 162.763 118.981 162.725L120.515 161.82C120.631 161.761 120.72 161.66 120.765 161.538C120.811 161.416 120.809 161.281 120.76 161.161L120.683 160.992Z" fill="#93DA42"/>
<path d="M126.604 157.602C126.568 157.548 126.52 157.502 126.466 157.466C126.411 157.431 126.349 157.407 126.285 157.395C126.221 157.384 126.155 157.385 126.091 157.4C126.028 157.414 125.967 157.441 125.914 157.479L124.38 158.384C124.262 158.441 124.169 158.54 124.121 158.663C124.072 158.785 124.072 158.921 124.12 159.044L124.227 159.228C124.301 159.332 124.413 159.404 124.539 159.426C124.665 159.449 124.796 159.422 124.902 159.35L126.436 158.43C126.554 158.373 126.647 158.274 126.696 158.151C126.744 158.029 126.744 157.893 126.697 157.77L126.604 157.602Z" fill="#3D6627"/>
<path d="M132.465 154.212C132.429 154.158 132.383 154.113 132.33 154.077C132.276 154.042 132.216 154.018 132.153 154.007C132.09 153.995 132.026 153.997 131.963 154.011C131.901 154.025 131.842 154.052 131.79 154.089L130.256 154.994C130.135 155.048 130.039 155.147 129.991 155.271C129.942 155.394 129.943 155.532 129.995 155.654L130.087 155.838C130.164 155.943 130.279 156.015 130.407 156.038C130.536 156.061 130.669 156.033 130.777 155.961L132.311 155.04C132.43 154.984 132.522 154.883 132.567 154.76C132.613 154.637 132.609 154.501 132.557 154.381L132.465 154.212Z" fill="#3D6627"/>
<path d="M138.34 150.822C138.303 150.768 138.256 150.722 138.201 150.686C138.146 150.651 138.085 150.627 138.02 150.616C137.956 150.604 137.89 150.606 137.826 150.62C137.763 150.634 137.703 150.661 137.649 150.699L136.116 151.604C136 151.664 135.91 151.764 135.865 151.886C135.819 152.008 135.821 152.143 135.87 152.264L135.962 152.448C136.039 152.553 136.154 152.625 136.283 152.648C136.411 152.671 136.544 152.643 136.652 152.571L138.186 151.65C138.302 151.591 138.392 151.49 138.437 151.368C138.482 151.246 138.481 151.111 138.432 150.991L138.34 150.822Z" fill="#FFE56F"/>
<path d="M144.214 147.432C144.177 147.378 144.13 147.332 144.075 147.296C144.021 147.261 143.959 147.237 143.895 147.225C143.831 147.214 143.765 147.215 143.701 147.23C143.637 147.244 143.577 147.271 143.524 147.309L141.99 148.214C141.872 148.271 141.78 148.371 141.734 148.494C141.688 148.617 141.692 148.753 141.745 148.874L141.837 149.058C141.911 149.162 142.023 149.234 142.149 149.257C142.275 149.279 142.405 149.252 142.512 149.18L144.046 148.26C144.167 148.206 144.262 148.107 144.311 147.984C144.359 147.86 144.358 147.723 144.306 147.6L144.214 147.432Z" fill="#93DA42"/>
<path d="M150.167 144.211L150.075 144.042C150.039 143.989 149.993 143.943 149.94 143.908C149.886 143.872 149.826 143.848 149.763 143.837C149.7 143.825 149.635 143.827 149.573 143.841C149.51 143.855 149.451 143.882 149.4 143.919L147.866 144.824C147.747 144.881 147.654 144.981 147.606 145.103C147.558 145.225 147.557 145.361 147.605 145.484L147.697 145.668C147.774 145.774 147.889 145.845 148.017 145.868C148.146 145.891 148.279 145.863 148.387 145.791L149.921 144.87C150.04 144.814 150.131 144.713 150.177 144.59C150.223 144.467 150.219 144.331 150.167 144.211Z" fill="#3D6627"/>
<path d="M60.2012 142.477H62.0879L121.743 108.025L120.746 107.503L60.2012 142.477Z" fill="#3A3F47"/>
<path d="M62.1025 142.462L63.6365 143.014C64.5585 143.351 65.5431 143.481 66.521 143.396C67.4989 143.311 68.4464 143.013 69.2967 142.523L122.693 111.706C122.953 111.543 123.167 111.317 123.316 111.049C123.464 110.781 123.542 110.479 123.542 110.172C123.542 109.866 123.464 109.564 123.316 109.296C123.167 109.027 122.953 108.801 122.693 108.638L121.757 108.071L62.1025 142.462Z" fill="#4B5059"/>
</g>
<g clip-path="url(#clip1_633_2040)">
<path d="M89.7403 87.9602L91.2703 88.8402C91.0602 89.1193 90.803 89.3596 90.5103 89.5502C90.4854 89.8083 90.4034 90.0576 90.2703 90.2802C90.2003 90.3902 90.1403 90.5002 90.0803 90.6102C89.8442 90.9995 89.5128 91.3222 89.1174 91.5479C88.7219 91.7736 88.2756 91.8949 87.8203 91.9002C86.9212 91.9394 86.0485 92.2154 85.2903 92.7002C84.0377 93.4704 82.9583 94.4919 82.1203 95.7002C82.0357 95.8116 81.9345 95.9094 81.8203 95.9902V96.9902L80.2803 96.0902C80.1178 96.0042 79.9754 95.8847 79.8625 95.7397C79.7496 95.5946 79.6688 95.4272 79.6253 95.2486C79.5818 95.07 79.5767 94.8842 79.6103 94.7035C79.6439 94.5228 79.7155 94.3512 79.8203 94.2002C82.1503 90.8102 85.5203 88.2002 88.5103 87.7302C88.8491 87.6695 89.1983 87.7149 89.5103 87.8602C89.5891 87.8884 89.6659 87.9218 89.7403 87.9602ZM87.4403 94.7002L87.3203 94.6402C87.0077 94.5241 86.6711 94.488 86.341 94.5351C86.0109 94.5823 85.6978 94.7112 85.4303 94.9102C84.6189 95.4273 83.9414 96.1291 83.453 96.9581C82.9646 97.7871 82.6793 98.7199 82.6203 99.6802C82.5993 99.9744 82.6421 100.27 82.7456 100.546C82.8492 100.822 83.0111 101.072 83.2203 101.28L83.3903 101.39L85.0403 102.34L84.9403 101.34L85.3703 101.13C86.1782 100.61 86.8525 99.9075 87.3389 99.079C87.8252 98.2504 88.11 97.3191 88.1703 96.3602C88.1703 96.2802 88.1703 96.2002 88.1703 96.1202L88.9703 95.5402L87.4403 94.7002ZM93.8403 81.1502C93.6213 81.0118 93.3762 80.9199 93.1203 80.8802C90.3703 80.5302 87.2803 81.5102 83.8503 83.8802C80.7268 86.104 78.0643 88.9126 76.0103 92.1502C75.9109 92.3017 75.8439 92.4722 75.8138 92.6509C75.7836 92.8296 75.7908 93.0126 75.835 93.1883C75.8792 93.3641 75.9593 93.5288 76.0704 93.6719C76.1815 93.8151 76.321 93.9337 76.4803 94.0202L78.0503 94.9302V93.9302C78.234 93.8148 78.3908 93.6613 78.5103 93.4802C80.2523 90.7885 82.5804 88.5254 85.3203 86.8602C87.0556 85.6939 89.1368 85.1542 91.2203 85.3302C91.7412 85.4148 92.2755 85.342 92.7547 85.1211C93.234 84.9002 93.6363 84.5412 93.9103 84.0902L94.3303 83.3802C94.5364 83.0309 94.6076 82.6183 94.5303 82.2202L95.5303 82.1202L93.8403 81.1502ZM98.8903 75.3302L97.4603 74.4902C97.2462 74.3546 97.0089 74.2597 96.7603 74.2102C93.0003 73.4902 88.7603 74.6402 84.0003 77.7502C79.2947 80.9347 75.309 85.0703 72.3003 89.8902C72.1851 90.0685 72.108 90.2686 72.0738 90.4781C72.0396 90.6876 72.0491 90.9019 72.1017 91.1076C72.1543 91.3132 72.2488 91.5058 72.3794 91.6732C72.5099 91.8405 72.6736 91.9791 72.8603 92.0802L74.4503 93.0002L74.5503 91.6502C77.2411 87.2667 80.9318 83.5829 85.3203 80.9002C88.9403 78.7902 92.1703 78.1002 95.0003 78.7602C95.5329 78.8858 96.0917 78.8381 96.5953 78.624C97.0989 78.41 97.5211 78.0408 97.8003 77.5702C97.8903 77.4302 97.9703 77.2802 98.0603 77.1302C98.2076 76.8767 98.2975 76.5939 98.3234 76.3019C98.3493 76.0098 98.3107 75.7157 98.2103 75.4402L98.8903 75.3302Z" fill="#FAD020"/>
<path d="M97.4405 74.4902C97.2264 74.3546 96.989 74.2597 96.7405 74.2102C92.9805 73.4902 88.7405 74.6402 83.9805 77.7502C79.7379 80.5991 76.0873 84.2429 73.2305 88.4802C73.1978 88.7816 73.2567 89.086 73.3993 89.3535C73.542 89.621 73.7619 89.8394 74.0305 89.9802L75.2005 90.6602C75.3605 90.4202 75.5205 90.1802 75.6905 89.9502V89.5502C78.3756 85.169 82.0593 81.4854 86.4405 78.8002C90.0605 76.6902 93.2905 76.0102 96.1105 76.6702C96.4812 76.7567 96.8666 76.7593 97.2386 76.678C97.6105 76.5967 97.9596 76.4335 98.2605 76.2002C98.27 75.9415 98.2293 75.6834 98.1405 75.4402L98.8205 75.3302L97.4405 74.4902Z" fill="#FFE438"/>
<path d="M93.79 81.15C93.571 81.0116 93.326 80.9197 93.07 80.88C90.32 80.53 87.23 81.51 83.8 83.88C81.1397 85.7597 78.8198 88.0797 76.94 90.74C76.9331 90.9803 76.993 91.2178 77.1131 91.4262C77.2331 91.6345 77.4086 91.8054 77.62 91.92L79.01 92.73L79.18 92.49V91.85C79.3689 91.7378 79.5297 91.5839 79.65 91.4C81.3939 88.7133 83.7175 86.4512 86.45 84.78C88.2112 83.5948 90.3249 83.0478 92.44 83.23C92.8181 83.2876 93.2042 83.2649 93.5729 83.1632C93.9417 83.0616 94.2848 82.8833 94.58 82.64C94.5999 82.5007 94.5999 82.3593 94.58 82.22H95.02L95.15 82.05L95.2 81.96L93.79 81.15Z" fill="#FFE438"/>
<path d="M88.9603 95.6098L87.3903 94.6998L87.2703 94.6398C86.9577 94.5237 86.6211 94.4876 86.291 94.5348C85.9609 94.5819 85.6479 94.7108 85.3803 94.9098C84.6504 95.359 84.0316 95.9675 83.5703 96.6898C83.2569 97.1697 83.0049 97.6871 82.8203 98.2298C82.8924 98.3265 82.9727 98.4169 83.0603 98.4998L83.2303 98.6098H83.2803L84.9303 99.5598L84.8303 98.5598L85.2603 98.3498C86.4403 97.7398 88.5403 96.9998 88.9603 95.6098Z" fill="#FFE438"/>
<path d="M91.1095 88.7398L89.7395 87.9598C89.6631 87.9073 89.5829 87.8605 89.4995 87.8198C89.1876 87.6745 88.8383 87.629 88.4995 87.6898C85.8995 88.1198 83.0095 90.1298 80.7695 92.8798C80.7802 93.1018 80.8485 93.3173 80.9678 93.5049C81.087 93.6925 81.253 93.8459 81.4495 93.9498L82.8195 94.7398L82.9895 94.5498V93.8298C83.1004 93.7524 83.1983 93.6579 83.2795 93.5498C84.1209 92.3409 85.2037 91.3194 86.4595 90.5498C87.2165 90.0611 88.0895 89.7816 88.9895 89.7398C89.3957 89.7454 89.7978 89.6582 90.1651 89.4849C90.5325 89.3116 90.8555 89.0568 91.1095 88.7398Z" fill="#FFE438"/>
<path d="M87.3104 91.9401L87.1904 91.8801C86.8779 91.7639 86.5412 91.7278 86.2111 91.775C85.881 91.8221 85.568 91.9511 85.3004 92.1501C84.5705 92.5993 83.9518 93.2078 83.4904 93.9301C83.3809 94.0977 83.2807 94.2713 83.1904 94.4501C83.8193 93.7761 84.5397 93.1937 85.3304 92.7201C85.9348 92.3365 86.6068 92.0718 87.3104 91.9401Z" fill="#8CD9FF"/>
<path d="M86.5302 98.9502C86.1301 99.4683 85.6387 99.9088 85.0802 100.25C84.9462 100.329 84.8057 100.396 84.6602 100.45L84.7602 101.45L83.1102 100.51C83.0545 100.473 83.001 100.433 82.9501 100.39C82.8326 100.293 82.7342 100.174 82.6602 100.04C82.6735 100.534 82.8778 101.004 83.2301 101.35L83.4002 101.46L85.0502 102.41L84.9501 101.41L85.3802 101.2C86.0303 100.793 86.5916 100.259 87.0302 99.6302C86.8356 99.4254 86.6677 99.1969 86.5302 98.9502Z" fill="#EE9B0F"/>
<path d="M86.6097 91.0698C86.0475 91.2212 85.509 91.4501 85.0097 91.7498C83.7519 92.5168 82.6686 93.5388 81.8297 94.7498C81.7486 94.8609 81.6508 94.9587 81.5397 95.0398V96.0398L79.9997 95.1398C79.8528 95.0556 79.721 94.9475 79.6097 94.8198C79.5825 95.0753 79.6328 95.3331 79.7541 95.5596C79.8754 95.7861 80.062 95.9708 80.2897 96.0898L81.8297 96.9898V95.9898C81.944 95.9091 82.0451 95.8112 82.1297 95.6998C82.9678 94.4915 84.0471 93.47 85.2997 92.6998C85.5961 92.5297 85.9035 92.3794 86.2197 92.2498C86.3297 91.8498 86.4397 91.4598 86.6097 91.0698Z" fill="#EE9B0F"/>
<path d="M88.8699 84.4502C87.5037 84.7092 86.1959 85.214 85.0099 85.9402C82.2728 87.6097 79.9482 89.8761 78.2099 92.5702C78.0839 92.7465 77.9241 92.896 77.7399 93.0102V94.0102L76.1699 93.1002C76.0177 93.0153 75.8822 92.9035 75.7699 92.7702C75.7447 93.0268 75.7958 93.2851 75.9168 93.5128C76.0378 93.7405 76.2232 93.9274 76.4499 94.0502L78.0199 94.9602V93.9602C78.2036 93.8448 78.3605 93.6913 78.4799 93.5102C80.222 90.8185 82.55 88.5554 85.2899 86.8902C86.3223 86.2615 87.4455 85.796 88.6199 85.5102C88.7199 85.1702 88.7999 84.8102 88.8699 84.4502Z" fill="#EE9B0F"/>
<path d="M90.8001 77.71C88.7386 78.0914 86.7654 78.8508 84.9801 79.95C80.5946 82.633 76.9072 86.3169 74.2201 90.7L74.1201 92.05L72.5301 91.12C72.3228 91.0145 72.1443 90.86 72.0102 90.67C71.998 90.9563 72.0666 91.2403 72.208 91.4896C72.3495 91.7389 72.5581 91.9435 72.8101 92.08L74.4002 92.9999L74.5001 91.65C77.191 87.2665 80.8817 83.5826 85.2702 80.9C86.8228 79.9593 88.5084 79.258 90.2702 78.8199C90.4402 78.4499 90.6201 78.07 90.8001 77.71Z" fill="#EE9B0F"/>
<path d="M89.7401 97.3402C89.6787 98.3 89.3924 99.2319 88.9043 100.061C88.4161 100.889 87.7398 101.591 86.9301 102.11C86.6186 102.354 86.2372 102.493 85.8416 102.506C85.4459 102.518 85.0565 102.404 84.7301 102.18C84.5195 101.976 84.3565 101.727 84.2528 101.452C84.1491 101.177 84.1072 100.883 84.1301 100.59C84.1904 99.6313 84.4751 98.7 84.9615 97.8715C85.4479 97.0429 86.1222 96.3402 86.9301 95.8202C87.2015 95.6252 87.516 95.4988 87.8469 95.4517C88.1778 95.4047 88.5151 95.4385 88.8301 95.5502L88.9601 95.6102C89.2303 95.8049 89.4446 96.0672 89.5815 96.3709C89.7184 96.6745 89.7731 97.0088 89.7401 97.3402Z" fill="#FFB901"/>
<path d="M91.8396 91.2301L91.6396 91.5601C91.4083 91.9507 91.0791 92.2742 90.6845 92.4987C90.2899 92.7232 89.8436 92.8409 89.3896 92.8401C88.4905 92.887 87.6188 93.1661 86.8596 93.6501C85.606 94.4227 84.5238 95.4436 83.6796 96.6501C83.4724 96.9241 83.1741 97.115 82.8385 97.1883C82.503 97.2617 82.1522 97.2127 81.8496 97.0501C81.688 96.9632 81.5465 96.8431 81.4346 96.6977C81.3227 96.5522 81.2429 96.3847 81.2004 96.2061C81.1579 96.0276 81.1537 95.8421 81.188 95.6618C81.2223 95.4815 81.2945 95.3105 81.3996 95.1601C83.7296 91.7701 87.0996 89.1601 90.0796 88.6901C90.3969 88.6456 90.7204 88.6901 91.0139 88.8186C91.3074 88.9471 91.5595 89.1546 91.742 89.418C91.9244 89.6814 92.0302 89.9903 92.0475 90.3102C92.0647 90.6302 91.9927 90.9487 91.8396 91.2301Z" fill="#FFB901"/>
<path d="M78.0297 94.9399C77.8708 94.8532 77.7313 94.7347 77.6201 94.5918C77.5089 94.4489 77.4283 94.2846 77.3832 94.1092C77.3382 93.9338 77.3298 93.751 77.3584 93.5722C77.3871 93.3934 77.4522 93.2224 77.5497 93.0699C79.6093 89.8366 82.2709 87.029 85.3897 84.7999C88.8297 82.4299 91.9197 81.4499 94.6697 81.7999C94.947 81.8367 95.2109 81.9417 95.4376 82.1055C95.6643 82.2694 95.8468 82.4869 95.9687 82.7387C96.0906 82.9904 96.1482 83.2685 96.1361 83.548C96.1241 83.8274 96.0429 84.0995 95.8998 84.3399L95.4897 85.0499C95.2158 85.5009 94.8134 85.8599 94.3342 86.0808C93.8549 86.3017 93.3206 86.3745 92.7997 86.2899C90.7132 86.1148 88.6292 86.6543 86.8897 87.8199C84.1551 89.4885 81.8311 91.751 80.0897 94.4399C79.8725 94.7674 79.5396 95.0008 79.1577 95.0935C78.7758 95.1862 78.373 95.1314 78.0297 94.9399Z" fill="#FFB901"/>
<path d="M99.5803 78.0402L99.3203 78.4802C99.0406 78.9528 98.6168 79.3233 98.1111 79.5374C97.6054 79.7516 97.0444 79.7981 96.5103 79.6702C93.6903 79.0102 90.5103 79.6702 86.8403 81.8102C82.4451 84.4996 78.7479 88.19 76.0503 92.5802C75.8793 92.8457 75.614 93.0367 75.3079 93.1146C75.0018 93.1925 74.6775 93.1516 74.4003 93.0002C74.2137 92.8991 74.0499 92.7605 73.9194 92.5932C73.7889 92.4258 73.6943 92.2332 73.6418 92.0276C73.5892 91.8219 73.5797 91.6076 73.6138 91.3981C73.648 91.1887 73.7251 90.9885 73.8403 90.8102C76.8481 85.9901 80.8298 81.8516 85.5303 78.6602C90.2903 75.5602 94.5303 74.4102 98.2903 75.1302C98.5901 75.2014 98.8694 75.3409 99.1064 75.5379C99.3433 75.7348 99.5316 75.9838 99.6565 76.2655C99.7813 76.5472 99.8394 76.8539 99.8262 77.1618C99.813 77.4696 99.7289 77.7702 99.5803 78.0402Z" fill="#FFB901"/>
</g>
<defs>
<clipPath id="clip0_633_2040">
<rect width="120" height="150.449" fill="white" transform="translate(50 33)"/>
</clipPath>
<clipPath id="clip1_633_2040">
<rect width="27.85" height="28.5" fill="white" transform="translate(72 74)"/>
</clipPath>
</defs>
</svg>
