<svg width="220" height="220" viewBox="0 0 220 220" fill="none" xmlns="http://www.w3.org/2000/svg">
<rect width="220" height="220" rx="10" fill="#F8F8F8"/>
<path d="M63.3049 94.8113L103.036 52.2358L142.768 49.0244C142.768 49.0244 149.15 102.816 103.036 159.867C56.9225 155.962 63.3049 94.8113 63.3049 94.8113Z" fill="#0063C0"/>
<path d="M142.755 49L151.696 54.1577L111.964 57.3691L103.036 52.2114L142.755 49Z" fill="url(#paint0_linear_633_2037)"/>
<path d="M72.2443 99.9691L111.976 57.3936L128.309 55.7514L151.707 54.1821C151.707 54.1821 158.09 107.973 111.976 165.024C65.8619 161.12 72.2443 99.9691 72.2443 99.9691Z" fill="#2C99FF"/>
<path d="M72.2443 99.9688L111.976 57.3932L151.707 54.1818L150.575 53.5371L110.38 56.7607L70.6487 99.3362C70.6487 99.3362 65.326 150.427 99.6617 162.178C67.0799 149.429 72.2443 99.9688 72.2443 99.9688Z" fill="#2C99FF"/>
<g clip-path="url(#clip0_633_2037)">
<path d="M89.5487 111.234C91.8271 109.933 93.4044 110.144 94.4309 110.751L92.7785 113.983C92.2864 113.731 91.7319 113.623 91.1799 113.671C90.6278 113.719 90.1011 113.922 89.6614 114.256C88.2324 115.203 87.074 116.498 86.2978 118.016C85.5217 119.535 85.1538 121.225 85.2298 122.925C85.2298 126.814 86.8197 128.275 89.9243 126.492C90.7085 126.048 91.3806 125.434 91.8897 124.696V121.154L89.098 122.752V119.816L94.7063 116.621V124.708C93.451 126.79 91.6969 128.534 89.5988 129.786C85.3174 132.263 82.025 130.864 82 124.832C81.9986 122.12 82.6899 119.452 84.0096 117.074C85.3292 114.697 87.2345 112.688 89.5487 111.234Z" fill="white"/>
<path d="M103.231 103.729C106.724 101.735 109.415 101.611 109.428 105.859C109.341 107.819 108.732 109.721 107.664 111.374C106.596 113.027 105.105 114.371 103.344 115.272L101.241 116.51V122.888L98.0859 124.659V106.689L103.231 103.729ZM103.131 112.559C104.082 112.115 104.886 111.414 105.453 110.538C106.02 109.662 106.326 108.646 106.336 107.605C106.336 105.525 105.171 105.475 103.006 106.726L101.216 107.742V113.624L103.118 112.547" fill="white"/>
<path d="M126.591 90.3657V108.336L123.712 109.971V102.54C123.712 100.843 123.937 98.2053 124.1 96.4095L124 96.4714L122.748 101.425L120.344 110.342L118.529 111.383L116.025 105.252L114.773 101.735H114.686C114.836 103.345 115.099 105.698 115.112 107.395V114.826L112.282 116.448L112.22 98.4901L115.725 96.4838L118.441 103.37C118.779 104.299 119.08 105.302 119.405 106.268L119.506 106.206C119.844 104.868 120.119 103.531 120.457 102.218L123.061 92.3101L126.591 90.3657Z" fill="white"/>
<path d="M135.542 84.966C137.37 83.9257 139.21 83.7276 140.487 84.4459L138.897 87.6164C138.345 87.4151 137.751 87.3483 137.167 87.4216C136.584 87.4948 136.026 87.7061 135.542 88.0374C134.923 88.3325 134.392 88.7805 134 89.3381C133.607 89.8956 133.366 90.5439 133.301 91.2203C133.301 92.4588 134.403 92.3349 135.805 92.1739L137.87 91.9882C139.798 91.79 141.05 92.4464 141.063 95.0472C141.063 97.9824 138.922 101.698 135.279 103.791C134.451 104.366 133.491 104.729 132.485 104.846C131.48 104.963 130.461 104.83 129.521 104.46L131.323 100.955C132.003 101.194 132.728 101.284 133.447 101.216C134.166 101.148 134.861 100.925 135.483 100.562C136.105 100.2 136.639 99.7063 137.047 99.1172C137.455 98.528 137.728 97.8574 137.845 97.1526C137.845 95.8151 136.881 95.9141 135.479 96.0751L133.364 96.2609C131.761 96.4343 130.146 95.8893 130.146 93.2638C130.084 90.3658 132.337 86.799 135.542 84.966Z" fill="white"/>
</g>
<g clip-path="url(#clip1_633_2037)">
<path d="M157 129.235V157.527L145.181 164.264L135.197 169.952L133.363 171V142.708L140.727 138.502L145.181 135.971L149.443 133.535H149.456L157 129.235Z" fill="#FFA610"/>
<path d="M124 137.373L133.364 142.707L157 129.235L147.636 123.914L124 137.373Z" fill="#FFE438"/>
<path d="M133.364 171L124 165.679V137.373L133.364 142.707V171Z" fill="#EE9500"/>
<path d="M146.299 150.124L146.906 154.656L143.555 156.561L143.831 153.377L143.996 151.444C143.265 151.444 142.755 150.805 142.755 149.784C142.8 148.966 143.039 148.171 143.453 147.461C143.868 146.752 144.446 146.149 145.141 145.701C146.52 144.953 147.54 145.552 147.54 147.062C147.477 148.189 147.041 149.265 146.299 150.124Z" fill="#202B33"/>
<path d="M146.933 154.656L143.596 156.561L143.858 153.39L146.933 154.656Z" fill="#364557"/>
<path d="M147.582 147.062C147.582 146.137 147.168 145.552 146.534 145.416C146.744 145.593 146.909 145.818 147.015 146.071C147.12 146.325 147.163 146.599 147.14 146.872C147.079 147.999 146.643 149.076 145.899 149.934L146.506 154.465L143.638 156.098V156.561L146.989 154.656L146.382 150.124C147.109 149.26 147.53 148.185 147.582 147.062Z" fill="#EE9500"/>
<path d="M146.505 154.465L146.947 154.656L143.596 156.561L143.637 156.098L146.505 154.465Z" fill="#FFE438"/>
<path d="M149.18 116.933L148.974 116.81L149.18 116.933Z" fill="#202B33"/>
<path d="M148.947 116.81C148.511 116.612 148.045 116.483 147.568 116.429C146.08 116.252 144.572 116.517 143.238 117.191C142.921 117.341 142.59 117.504 142.259 117.695C139.294 119.519 136.853 122.063 135.17 125.084C133.41 127.969 132.418 131.246 132.288 134.61V139.795L129.53 138.434V133.25C129.723 129.852 130.725 126.547 132.455 123.603C134.185 120.659 136.594 118.159 139.487 116.307C142.052 114.837 144.396 114.606 146.175 115.422L148.947 116.81Z" fill="#161C24"/>
<path d="M148.947 116.81C148.51 116.612 148.045 116.483 147.568 116.429C146.08 116.252 144.572 116.517 143.237 117.191C142.92 117.341 142.589 117.504 142.258 117.695C139.294 119.519 136.853 122.063 135.17 125.084L132.412 123.723C134.085 120.727 136.512 118.205 139.459 116.402C142.024 114.932 144.368 114.701 146.147 115.517L148.947 116.81Z" fill="#364557"/>
<path d="M150.436 124.295V129.48L147.678 128.119V122.934C147.768 121.361 147.278 119.809 146.299 118.565C146.888 118.603 147.462 118.771 147.977 119.055C148.493 119.34 148.937 119.736 149.278 120.212C150.094 121.416 150.5 122.847 150.436 124.295Z" fill="#161C24"/>
<path d="M152.201 123.301V128.486L150.477 129.48V124.295C150.545 122.848 150.144 121.418 149.332 120.212C148.992 119.736 148.547 119.34 148.032 119.055C147.517 118.771 146.943 118.603 146.353 118.565C146.092 118.538 145.829 118.538 145.567 118.565C144.393 118.669 143.26 119.042 142.258 119.654C139.861 121.183 137.864 123.248 136.426 125.681C134.989 128.114 134.152 130.846 133.984 133.658V138.842L132.246 139.836V134.651C132.439 131.25 133.443 127.942 135.175 124.995C136.908 122.049 139.32 119.548 142.216 117.694C142.547 117.504 142.878 117.341 143.196 117.191C144.53 116.517 146.038 116.252 147.526 116.429C148.003 116.483 148.468 116.612 148.905 116.81L149.112 116.932C151.042 117.912 152.201 120.103 152.201 123.301Z" fill="#202B33"/>
</g>
<defs>
<linearGradient id="paint0_linear_633_2037" x1="103.024" y1="53.1724" x2="151.696" y2="53.1724" gradientUnits="userSpaceOnUse">
<stop stop-color="#0063AD"/>
<stop offset="1" stop-color="#2573BA"/>
</linearGradient>
<clipPath id="clip0_633_2037">
<rect width="59" height="47" fill="white" transform="translate(82 84)"/>
</clipPath>
<clipPath id="clip1_633_2037">
<rect width="33" height="56" fill="white" transform="translate(124 115)"/>
</clipPath>
</defs>
</svg>
