<svg width="26" height="26" viewBox="0 0 26 26" fill="none" xmlns="http://www.w3.org/2000/svg">
<path fill-rule="evenodd" clip-rule="evenodd" d="M6.5 3C5.67157 3 5 3.67157 5 4.5V21.5C5 22.3284 5.67157 23 6.5 23H19.5C20.3284 23 21 22.3284 21 21.5V4.5C21 3.67157 20.3284 3 19.5 3H6.5ZM7 4.5C6.72386 4.5 6.5 4.72386 6.5 5V21C6.5 21.2761 6.72386 21.5 7 21.5H19C19.2761 21.5 19.5 21.2761 19.5 21V5C19.5 4.72386 19.2761 4.5 19 4.5H7Z" fill="#666666"/>
<path d="M9 8.88235C9 8.39504 9.29848 8 9.66667 8H16.3333C16.7015 8 17 8.39504 17 8.88235C17 9.36966 16.7015 9.76471 16.3333 9.76471H9.66667C9.29848 9.76471 9 9.36966 9 8.88235Z" fill="#666666"/>
<path d="M9 13C9 12.5127 9.29848 12.1176 9.66667 12.1176H16.3333C16.7015 12.1176 17 12.5127 17 13C17 13.4873 16.7015 13.8824 16.3333 13.8824H9.66667C9.29848 13.8824 9 13.4873 9 13Z" fill="#666666"/>
<path d="M9 17.1176C9 16.6303 9.29848 16.2353 9.66667 16.2353H16.3333C16.7015 16.2353 17 16.6303 17 17.1176C17 17.605 16.7015 18 16.3333 18H9.66667C9.29848 18 9 17.605 9 17.1176Z" fill="#666666"/>
</svg>
