<svg width="100" height="100" viewBox="0 0 100 100" fill="none" xmlns="http://www.w3.org/2000/svg">
<path d="M15.5737 24.5901C15.5737 22.3266 17.4086 20.4917 19.6721 20.4917H55.7377C58.0011 20.4917 59.836 22.3266 59.836 24.5901V56.5573C59.836 58.8207 58.0011 60.6556 55.7377 60.6556H19.6721C17.4086 60.6556 15.5737 58.8207 15.5737 56.5573V24.5901Z" fill="url(#paint0_linear_803_23491)"/>
<path d="M33.6064 27.459C33.6064 26.78 34.1569 26.2295 34.836 26.2295H41.3933C42.0723 26.2295 42.6228 26.78 42.6228 27.459C42.6228 28.138 42.0723 28.6885 41.3933 28.6885H34.836C34.1569 28.6885 33.6064 28.138 33.6064 27.459Z" fill="#BACBDF" fill-opacity="0.5"/>
<path d="M52.0491 31.9673H34.836C34.1569 31.9673 33.6064 32.5178 33.6064 33.1968C33.6064 33.8758 34.1569 34.4263 34.836 34.4263H52.0491C52.7281 34.4263 53.2786 33.8758 53.2786 33.1968C53.2786 32.5178 52.7281 31.9673 52.0491 31.9673Z" fill="#BACBDF" fill-opacity="0.5"/>
<path d="M27.8688 25.4097H22.131C21.2257 25.4097 20.4917 26.1436 20.4917 27.049V41.8031C20.4917 42.7085 21.2257 43.4425 22.131 43.4425H27.8688C28.7741 43.4425 29.5081 42.7085 29.5081 41.8031V27.049C29.5081 26.1436 28.7741 25.4097 27.8688 25.4097Z" fill="#C4D4E5"/>
<path d="M79.2568 36.9695C79.4175 37.243 79.504 37.5536 79.5077 37.8707V73.4528C79.5172 73.7852 79.4357 74.1137 79.2717 74.4031C79.1077 74.6926 78.8675 74.932 78.5771 75.0955C78.2867 75.2589 77.9571 75.3404 77.6236 75.331C77.2902 75.3215 76.9657 75.2216 76.6851 75.042C61.7126 66.4512 51.0098 64.3044 46.5339 63.7679V73.2885C46.5339 74.0684 46.223 74.8164 45.6695 75.3679C45.1161 75.9194 44.3655 76.2293 43.5829 76.2293C42.8739 76.2328 42.1874 75.9818 41.649 75.5223C41.1105 75.0628 40.7559 74.4255 40.6502 73.7269L39.1236 63.5892H34.62C34.1339 63.5892 33.6677 63.3968 33.324 63.0542C32.9802 62.7117 32.7871 62.2471 32.7871 61.7626V49.5609C32.7871 49.0765 32.9802 48.6119 33.324 48.2694C33.6677 47.9268 34.1339 47.7343 34.62 47.7343H44.2061C44.2061 47.7343 56.6148 47.7343 76.7767 36.2998C77.054 36.1444 77.3672 36.0637 77.6853 36.0655C78.0034 36.0673 78.3156 36.1515 78.5912 36.3101C78.8667 36.4685 79.0961 36.6958 79.2568 36.9695Z" fill="url(#paint1_linear_803_23491)"/>
<defs>
<linearGradient id="paint0_linear_803_23491" x1="41.0246" y1="48.6587" x2="42.2193" y2="106.861" gradientUnits="userSpaceOnUse">
<stop stop-color="#EFF7FF"/>
<stop offset="1" stop-color="#D5E2F1"/>
</linearGradient>
<linearGradient id="paint1_linear_803_23491" x1="77.5287" y1="64.0227" x2="46.2492" y2="64.0227" gradientUnits="userSpaceOnUse">
<stop stop-color="#44BCFF"/>
<stop offset="1" stop-color="#4BA5FF"/>
</linearGradient>
</defs>
</svg>
