<svg width="131" height="88" viewBox="0 0 131 88" fill="none" xmlns="http://www.w3.org/2000/svg">
<path fill-rule="evenodd" clip-rule="evenodd" d="M87.5515 87.0797C107.677 87.0797 123.992 70.7647 123.992 50.639C123.992 30.5134 107.677 14.1984 87.5515 14.1984L50.6751 14.1984L38.584 2.52469L38.584 14.1984L36.4399 14.1984C16.3143 14.1984 -0.000744996 30.5134 -0.000743237 50.639C-0.000741478 70.7647 16.3143 87.0797 36.4399 87.0797L87.5515 87.0797Z" fill="#2C99FF"/>
<path fill-rule="evenodd" clip-rule="evenodd" d="M87.7935 0C77.1768 0 68.5703 8.60652 68.5703 19.2232C68.5703 29.8399 77.1768 38.4464 87.7935 38.4464H104.356L111.37 43.8552L111.37 38.4375C121.714 38.1258 130.003 29.6426 130.003 19.2232C130.003 8.60652 121.397 0 110.78 0H87.7935Z" fill="#0063C0"/>
<circle cx="87.892" cy="19.1214" r="3.66156" fill="#DBEEFF"/>
<circle cx="99.2827" cy="19.1214" r="3.66156" fill="#DBEEFF"/>
<circle cx="110.673" cy="19.1214" r="3.66156" fill="#DBEEFF"/>
<path fill-rule="evenodd" clip-rule="evenodd" d="M78.8042 56.9254C77.7956 56.4447 72.987 54.1121 72.0865 53.7916C71.186 53.4711 70.5196 53.3108 69.8713 54.2723C69.2229 55.2339 67.3139 57.4062 66.7556 58.0472C66.1972 58.6882 65.6029 58.7594 64.6124 58.2787C61.7128 57.1537 59.0364 55.5323 56.706 53.4889C54.5747 51.552 52.753 49.3067 51.303 46.8295C50.7447 45.8679 51.303 45.3516 51.7353 44.8708C52.1675 44.39 52.7078 43.7312 53.2121 43.0902C53.3562 42.93 53.4642 42.7697 53.5723 42.6273C53.8091 42.2592 54.0139 41.8721 54.1846 41.4699C54.3332 41.2154 54.4114 40.9268 54.4114 40.633C54.4114 40.3392 54.3332 40.0506 54.1846 39.7961C53.9505 39.3154 51.9694 34.5612 51.159 32.6737C50.3485 30.7863 49.52 31.089 48.9437 31.089C48.3674 31.089 47.7191 31 47.0527 31C46.5579 31.0108 46.0706 31.1223 45.6213 31.3276C45.172 31.5328 44.7703 31.8274 44.4412 32.193C43.3332 33.228 42.4552 34.4796 41.863 35.8682C41.2708 37.2569 40.9774 38.7522 41.0014 40.2591C41.0149 41.369 41.1847 42.4717 41.5056 43.5354C42.2991 45.9535 43.5185 48.214 45.1076 50.2126C45.5939 50.8536 51.8974 60.8961 61.8749 64.7778C71.8524 68.6595 71.8884 67.3419 73.6894 67.1638C75.4904 66.9858 79.5066 64.849 80.299 62.5877C80.9426 61.1518 81.1491 59.5616 80.8934 58.0116C80.4251 57.6198 79.7947 57.4062 78.8042 56.9254Z" fill="white"/>
</svg>
