<svg width="344" height="223" viewBox="0 0 344 223" fill="none" xmlns="http://www.w3.org/2000/svg">
<rect x="96" y="70" width="150" height="96" rx="5" fill="#E9F4FF"/>
<rect x="69" y="46" width="150" height="46" rx="5" fill="#485F74"/>
<circle cx="95.5" cy="68.5" r="12.5" fill="white"/>
<rect x="121" y="62" width="28" height="4" rx="2" fill="#E9F4FF"/>
<rect x="121" y="72" width="74" height="4" rx="2" fill="#E9F4FF"/>
<path fill-rule="evenodd" clip-rule="evenodd" d="M100.814 63.2333L94.1296 70.4873C93.843 70.7983 93.379 70.7983 93.0928 70.4873L90.1863 67.3332C89.9001 67.0222 89.4358 67.0222 89.1495 67.3332L88.2147 68.3475C87.9284 68.6585 87.9284 69.162 88.2147 69.4731L93.0928 74.767C93.379 75.0777 93.843 75.0777 94.1296 74.767L102.785 65.3727C103.072 65.0625 103.072 64.5586 102.785 64.2475L101.85 63.2333C101.564 62.9222 101.1 62.9222 100.814 63.2333Z" fill="#007DF1"/>
<path d="M280.999 141.392V130.608C281 130.257 280.871 129.917 280.637 129.655C280.404 129.392 280.082 129.224 279.733 129.183L275.383 128.675C274.535 128.575 273.73 128.251 273.05 127.735C272.37 127.219 271.84 126.531 271.516 125.742C271.441 125.558 271.374 125.383 271.299 125.208C270.968 124.422 270.854 123.56 270.97 122.714C271.085 121.868 271.427 121.069 271.958 120.4L274.666 116.967C274.886 116.691 274.996 116.344 274.976 115.992C274.956 115.64 274.807 115.307 274.558 115.058L266.941 107.442C266.692 107.192 266.36 107.043 266.008 107.023C265.656 107.003 265.309 107.113 265.033 107.333L261.6 110.042C260.931 110.573 260.132 110.914 259.286 111.03C258.44 111.146 257.578 111.032 256.791 110.7L256.258 110.483C255.469 110.159 254.78 109.63 254.264 108.95C253.749 108.27 253.424 107.464 253.325 106.617L252.816 102.267C252.775 101.918 252.608 101.596 252.345 101.362C252.082 101.129 251.743 101 251.391 101H240.608C240.257 101 239.917 101.129 239.654 101.362C239.392 101.596 239.224 101.918 239.183 102.267L238.675 106.617C238.575 107.464 238.251 108.27 237.735 108.95C237.219 109.63 236.531 110.159 235.741 110.483L235.208 110.7C234.421 111.032 233.56 111.146 232.714 111.03C231.868 110.914 231.068 110.573 230.4 110.042L226.967 107.333C226.691 107.113 226.344 107.003 225.992 107.023C225.64 107.043 225.307 107.192 225.058 107.442L217.442 115.058C217.192 115.307 217.043 115.64 217.023 115.992C217.003 116.344 217.113 116.691 217.333 116.967L220.042 120.4C220.573 121.069 220.914 121.868 221.03 122.714C221.146 123.56 221.032 124.422 220.7 125.208C220.625 125.383 220.558 125.558 220.483 125.742C220.159 126.531 219.629 127.219 218.95 127.735C218.27 128.251 217.464 128.575 216.617 128.675L212.267 129.183C211.918 129.224 211.596 129.392 211.362 129.655C211.129 129.917 211 130.257 211 130.608V141.392C211 141.743 211.129 142.083 211.362 142.345C211.596 142.608 211.918 142.776 212.267 142.817L216.617 143.325C217.464 143.425 218.27 143.749 218.95 144.265C219.629 144.781 220.159 145.469 220.483 146.258C220.558 146.442 220.625 146.617 220.7 146.792C221.032 147.578 221.146 148.44 221.03 149.286C220.914 150.132 220.573 150.931 220.042 151.6L217.333 155.033C217.113 155.309 217.003 155.656 217.023 156.008C217.043 156.36 217.192 156.693 217.442 156.942L225.058 164.558C225.307 164.808 225.64 164.957 225.992 164.977C226.344 164.997 226.691 164.887 226.967 164.667L230.4 161.958C231.068 161.427 231.868 161.086 232.714 160.97C233.56 160.854 234.421 160.968 235.208 161.3L235.741 161.517C236.531 161.841 237.219 162.37 237.735 163.05C238.251 163.73 238.575 164.536 238.675 165.383L239.183 169.733C239.224 170.082 239.392 170.404 239.654 170.638C239.917 170.871 240.257 171 240.608 171H251.391C251.743 171 252.082 170.871 252.345 170.638C252.608 170.404 252.775 170.082 252.816 169.733L253.325 165.383C253.424 164.536 253.749 163.73 254.264 163.05C254.78 162.37 255.469 161.841 256.258 161.517L256.791 161.3C257.578 160.968 258.44 160.854 259.286 160.97C260.132 161.086 260.931 161.427 261.6 161.958L265.033 164.667C265.309 164.887 265.656 164.997 266.008 164.977C266.36 164.957 266.692 164.808 266.941 164.558L274.558 156.942C274.807 156.693 274.956 156.36 274.976 156.008C274.996 155.656 274.886 155.309 274.666 155.033L271.958 151.6C271.434 150.936 271.097 150.144 270.982 149.306C270.866 148.468 270.976 147.615 271.299 146.833C271.374 146.658 271.441 146.483 271.516 146.3C271.84 145.511 272.37 144.822 273.05 144.307C273.73 143.791 274.535 143.466 275.383 143.367L279.733 142.858C280.089 142.817 280.417 142.643 280.651 142.372C280.886 142.1 281.01 141.75 280.999 141.392ZM246 147.667C243.692 147.667 241.437 146.982 239.518 145.7C237.6 144.419 236.104 142.596 235.221 140.465C234.338 138.333 234.107 135.987 234.557 133.724C235.007 131.461 236.119 129.382 237.75 127.75C239.382 126.119 241.461 125.008 243.724 124.558C245.987 124.107 248.332 124.338 250.464 125.221C252.596 126.104 254.418 127.6 255.7 129.518C256.982 131.437 257.666 133.693 257.666 136C257.666 139.094 256.437 142.062 254.249 144.25C252.061 146.438 249.094 147.667 246 147.667Z" fill="#2C99FF"/>
<path fill-rule="evenodd" clip-rule="evenodd" d="M245.999 153.927C255.9 153.927 263.926 145.901 263.926 136C263.926 126.099 255.9 118.073 245.999 118.073C236.098 118.073 228.072 126.099 228.072 136C228.072 145.901 236.098 153.927 245.999 153.927ZM245.999 147.098C252.128 147.098 257.097 142.129 257.097 136C257.097 129.871 252.128 124.903 245.999 124.903C239.87 124.903 234.902 129.871 234.902 136C234.902 142.129 239.87 147.098 245.999 147.098Z" fill="#007DF1"/>
<rect x="125" y="107" width="59" height="6" rx="1" fill="#CCD9E9"/>
<rect x="125" y="121" width="59" height="6" rx="1" fill="#CCD9E9"/>
<rect x="125" y="135" width="59" height="6" rx="1" fill="#CCD9E9"/>
<rect x="111" y="107" width="7" height="6" rx="1" fill="#CCD9E9"/>
<rect x="111" y="121" width="7" height="6" rx="1" fill="#CCD9E9"/>
<rect x="111" y="135" width="7" height="6" rx="1" fill="#CCD9E9"/>
</svg>
