<svg width="344" height="256" viewBox="0 0 344 256" fill="none" xmlns="http://www.w3.org/2000/svg">
<rect x="100" y="42" width="77.9145" height="106" rx="30" fill="url(#paint0_linear_1022_34183)"/>
<mask id="mask0_1022_34183" style="mask-type:alpha" maskUnits="userSpaceOnUse" x="100" y="42" width="78" height="106">
<rect x="100" y="42" width="77.9145" height="106" rx="30" fill="url(#paint1_linear_1022_34183)"/>
</mask>
<g mask="url(#mask0_1022_34183)">
<path d="M-27.5727 117.379C-17.1045 120.843 -6.93254 125.139 2.84529 130.224C4.67708 131.149 50.8329 155.658 77.3809 169.916C87.3912 175.286 96.7049 180.398 97.7369 181.066C99.8918 182.441 101.905 184.025 103.748 185.793C106.743 188.792 108.965 192.467 110.224 196.506C113.592 199.388 115.755 203.42 116.287 207.81C116.392 208.921 116.132 210.035 115.546 210.985C114.96 211.935 114.079 212.669 113.036 213.077C106.302 215.877 94.9763 213.205 85.3014 207.682C52.9227 189.056 1.5553 158.869 -10.6222 151.984C-30.2042 140.732 -38.4602 122.543 -37.7378 118.586C-37.0928 115.092 -31.9844 116.043 -27.5727 117.379Z" fill="url(#paint2_linear_1022_34183)"/>
<path d="M115.952 205.472C115.952 208.427 111.695 210.611 103.052 208.812C92.887 206.834 42.5001 178.754 6.99955 157.559C1.19678 154.214 -4.02958 149.964 -8.48033 144.971C-10.2744 142.999 -11.2756 140.438 -11.2925 137.777C-11.0861 131.971 -6.13257 126.91 0.162575 128.837C-8.73008 124.336 -17.9493 120.506 -27.4174 117.379C-31.8292 116.043 -36.9375 115.092 -37.5825 118.638C-38.0985 121.438 -34.5897 128.914 -29.662 135.259C-20.0645 147.72 -13.6145 150.134 22.1956 171.021C31.0674 176.997 40.3236 182.387 49.9046 187.155L59.1151 192.473C67.6548 197.431 78.0263 203.443 85.4567 207.708C95.08 213.231 106.432 215.903 113.166 213.103C114.185 212.701 115.05 211.987 115.635 211.063C116.219 210.139 116.493 209.054 116.416 207.964C116.324 207.123 116.168 206.291 115.952 205.472Z" fill="url(#paint3_linear_1022_34183)"/>
<path d="M119.796 117.044C113.242 114.475 106.483 120.512 107.773 125.008C109.14 126.498 123.253 135.053 126.555 135.696L133.289 124.905C133.289 124.905 134.011 123.544 119.796 117.044Z" fill="url(#paint4_linear_1022_34183)"/>
<path style="mix-blend-mode:screen" d="M124.983 119.639C124.983 119.767 126.685 123.158 125.937 123.056C121.654 122.413 116.211 126.087 115.979 128.04C119.41 129.864 124.209 132.381 124.983 132.664L132.877 125.368C132.938 125.315 132.986 125.249 133.019 125.176C133.052 125.103 133.07 125.024 133.07 124.944C133.07 124.864 133.052 124.784 133.019 124.711C132.986 124.638 132.938 124.573 132.877 124.52C130.426 122.62 127.78 120.984 124.983 119.639Z" fill="url(#paint5_linear_1022_34183)"/>
<path d="M129.341 124.495C127.992 125.376 126.868 126.561 126.062 127.953C125.255 129.345 124.788 130.906 124.697 132.51C124.697 135.439 126.761 136.647 129.341 135.079C130.683 134.198 131.799 133.016 132.601 131.629C133.402 130.242 133.868 128.688 133.959 127.09C134.011 124.212 131.895 123.03 129.341 124.495Z" fill="#DBDAD0"/>
<path d="M129.341 125.085C128.134 125.861 127.129 126.911 126.407 128.147C125.685 129.384 125.267 130.773 125.188 132.202C125.187 134.771 127.045 135.901 129.341 134.591C130.543 133.805 131.542 132.75 132.259 131.509C132.976 130.269 133.39 128.878 133.469 127.449C133.469 124.829 131.612 123.775 129.341 125.085Z" fill="#3A3A3A"/>
<path d="M122.633 117.66L123.613 117.095L126.916 122.49L125.935 123.055L122.633 117.66Z" fill="#F9F8F0"/>
<path d="M120.697 111.032L122.632 117.66L123.613 117.095L121.987 111.623L120.697 111.032Z" fill="#DBDAD0"/>
<path d="M120.698 111.032C118.479 110.056 116.235 109.182 113.99 108.283L113.371 117.378C113.371 117.378 121.111 121.052 125.987 123.055L122.685 117.66L120.698 111.032Z" fill="#C2C1B7"/>
<path d="M98.5887 136.209C92.0097 133.64 85.2502 139.677 86.566 144.173C87.9333 145.663 102.046 154.218 105.322 154.861L112.056 144.071C112.056 144.071 112.753 142.76 98.5887 136.209Z" fill="url(#paint6_linear_1022_34183)"/>
<path style="mix-blend-mode:screen" d="M103.748 138.805C103.748 138.933 105.451 142.324 104.703 142.222C100.42 141.579 94.9763 145.253 94.7441 147.206C98.2013 149.03 103 151.522 103.748 151.83L111.643 144.534C111.703 144.481 111.752 144.415 111.785 144.342C111.818 144.269 111.835 144.19 111.835 144.11C111.835 144.03 111.818 143.95 111.785 143.877C111.752 143.804 111.703 143.739 111.643 143.686C109.213 141.756 106.563 140.118 103.748 138.805Z" fill="url(#paint7_linear_1022_34183)"/>
<path d="M108.212 143.66C106.863 144.541 105.74 145.726 104.933 147.118C104.126 148.51 103.659 150.071 103.568 151.675C103.568 154.604 105.632 155.812 108.212 154.244C109.559 153.366 110.68 152.185 111.486 150.798C112.292 149.411 112.762 147.855 112.856 146.255C112.753 143.377 110.792 142.195 108.212 143.66Z" fill="#DBDAD0"/>
<path d="M108.212 144.251C107.008 145.028 106.007 146.078 105.289 147.315C104.572 148.552 104.159 149.941 104.084 151.367C104.084 153.936 105.916 155.067 108.212 153.757C109.413 152.971 110.413 151.915 111.129 150.675C111.846 149.434 112.261 148.044 112.34 146.614C112.237 144.097 110.379 142.941 108.212 144.251Z" fill="#3A3A3A"/>
<path d="M101.4 136.826L102.381 136.261L105.683 141.656L104.703 142.221L101.4 136.826Z" fill="#F9F8F0"/>
<path d="M99.4668 130.198L101.402 136.826L102.382 136.261L100.783 130.789L99.4668 130.198Z" fill="#DBDAD0"/>
<path d="M99.4662 130.198C97.2475 129.222 95.0287 128.348 92.7841 127.449L92.1133 136.544C92.1133 136.544 99.8532 140.218 104.704 142.221L101.401 136.826L99.4662 130.198Z" fill="#C2C1B7"/>
<path d="M164.016 74.5001L66.9316 162.491V164.11L164.068 76.1443C164.158 76.0669 164.231 75.9725 164.284 75.8667C164.338 75.7609 164.369 75.6457 164.378 75.5277V73.9092C164.366 74.0284 164.327 74.1434 164.265 74.2457C164.202 74.348 164.117 74.435 164.016 74.5001Z" fill="#DBDAD0"/>
<path d="M163.757 73.1125C164.402 73.4722 164.505 74.0631 164.015 74.4998L66.9305 162.491L32.6426 142.76L150.883 67.3834C151.322 67.1428 151.814 67.0166 152.315 67.0166C152.816 67.0166 153.308 67.1428 153.747 67.3834L163.757 73.1125Z" fill="#F5F4EC"/>
<path d="M163.759 73.1133L162.727 72.5225L57.3867 156.942L66.881 162.389L164.017 74.3979C164.507 74.0639 164.404 73.473 163.759 73.1133Z" fill="#F9F8F0"/>
<path opacity="0.4" d="M81.0447 117.789L75.6268 115.348L75.9106 115.169L81.0705 117.506L105.271 100.91L101.091 99.0604L101.375 98.8806L105.606 100.756C105.617 100.798 105.617 100.842 105.606 100.884L81.1221 117.661C81.1135 117.712 81.0858 117.757 81.0447 117.789ZM109.657 98.2383L135.844 80.2548V80.1263L132.928 78.8418L132.644 79.0216L135.508 80.2805L109.708 97.9814L105.735 96.2088L105.451 96.3886L109.683 98.264L109.657 98.2383ZM-85.106 208.709L-52.3144 192.447C-52.2931 192.432 -52.2757 192.413 -52.2636 192.391C-52.2515 192.369 -52.2452 192.343 -52.2452 192.318C-52.2452 192.293 -52.2515 192.268 -52.2636 192.245C-52.2757 192.223 -52.2931 192.204 -52.3144 192.19L-56.7262 190.237L-56.9068 190.34L-52.5724 192.267L-85.106 208.323L-88.4341 206.808L-88.7695 206.988L-85.1576 208.606L-85.106 208.709ZM-47.4899 190.032L-20.7871 176.724C-20.7658 176.71 -20.7483 176.691 -20.7362 176.668C-20.7242 176.646 -20.7178 176.621 -20.7178 176.595C-20.7178 176.57 -20.7242 176.545 -20.7362 176.522C-20.7483 176.5 -20.7658 176.481 -20.7871 176.467L-26.1534 174.103L-26.463 174.257L-21.174 176.621L-47.5157 189.672L-52.0048 187.694L-52.3402 187.848L-47.5673 189.955L-47.4899 190.032Z" fill="#C2C1B7"/>
</g>
<path fill-rule="evenodd" clip-rule="evenodd" d="M130 42C113.431 42 100 55.4315 100 72V118C100 134.569 113.431 148 130 148H133.624C117.055 148 103.624 134.569 103.624 118V72C103.624 55.4315 117.055 42 133.624 42H130Z" fill="#00448A" fill-opacity="0.05"/>
<g clip-path="url(#clip0_1022_34183)">
<path d="M203.927 54.1295C200.084 51.947 196.613 51.7178 194.073 53.1692L170.05 67.0825C167.586 68.5011 166.042 71.5566 166.031 75.9107V90.5224C166.031 96.9607 170.553 114.071 176.192 117.312L181.043 120.106L205.066 106.193L205.186 54.8388L203.927 54.1295Z" fill="#1267B6"/>
<path d="M217.799 79.545L217.405 67.9779C216.244 50.518 202.973 55.2867 204.627 71.2516L206.817 82.164C208.73 82.4696 210.685 82.3956 212.57 81.9461C214.454 81.4967 216.231 80.6807 217.799 79.545Z" fill="#FF7A00"/>
<path d="M234.497 100.901L217.986 85.1212L217.799 79.5449C216.228 80.69 214.445 81.513 212.552 81.9663C210.659 82.4196 208.695 82.4942 206.773 82.1857L208.405 90.501C214.745 98.2488 223.657 102.385 232.165 106.073C230.545 103.421 232.187 100.835 234.497 100.901Z" fill="#FFAA6D"/>
<path d="M181.185 183.213L176.739 189.76L178.371 196.963C181.535 199.68 182.97 201.699 182.137 203.51C180.221 205.453 177.473 205.693 174.473 205.136C168.998 204.787 165.286 194.453 163.469 188.898C164.272 186.826 165.723 185.066 167.608 183.879L172.141 176.884L181.185 183.213Z" fill="black"/>
<path d="M210.748 131.106C209.445 138.538 204.627 155.114 204.627 155.114C194.083 168.689 188.641 173.075 177.418 190.033C174.188 194.398 167.049 189.728 167.564 183.9C173.991 164.662 183.539 153.891 189.462 141.855L195.944 117.193L212.106 107.896C212.569 115.659 212.113 123.449 210.748 131.106Z" fill="#1267B6"/>
<path d="M217.591 202.539L219.31 211.204C220.874 213.609 223.18 215.444 225.88 216.431C229.439 217.118 231.935 217.958 232.942 219.857C233.222 220.435 233.331 221.08 233.257 221.718C233.184 222.355 232.93 222.959 232.526 223.458C231.431 224.942 229.931 225.957 226.592 225.957C220.099 225.444 211.263 224.178 208.985 222.029C208.225 219.505 208.093 216.834 208.602 214.248L206.412 205.06L217.591 202.539Z" fill="black"/>
<path d="M219.299 211.268C218.368 213.374 214.065 215.339 211.043 214.88C210.408 214.837 209.8 214.606 209.297 214.217C208.794 213.829 208.418 213.3 208.218 212.698C199.644 187.021 199.918 169.528 199.644 168.361L184.063 137.544C182.477 135.455 181.34 133.063 180.724 130.516L180.494 129.611C179.54 125.549 179.588 121.318 180.636 117.28L212.181 107.808V113.929C211.722 121.153 208.59 128.945 203.499 131.52L213.605 163.668C216.439 179.41 218.341 195.304 219.299 211.268Z" fill="#1267B6"/>
<g style="mix-blend-mode:multiply" opacity="0.5">
<path d="M211.044 214.858C210.409 214.815 209.801 214.584 209.298 214.196C208.795 213.807 208.419 213.278 208.219 212.676C199.646 186.999 199.919 169.506 199.646 168.339L184.065 137.522C182.479 135.433 181.342 133.041 180.725 130.494C179.803 127.082 179.58 123.519 180.068 120.019L191.335 126.751C192.08 141.352 195.211 155.418 203.861 167.269C201.047 179.404 205.361 196.635 211.044 214.858Z" fill="#308DC2"/>
</g>
<path d="M213.342 115.938C214.361 121.514 201.692 126.326 191.378 126.795C186.363 127.014 181.907 126.217 179.848 123.969C179.848 123.969 176.563 91.5265 176.027 85.4483C175.484 80.578 175.202 75.6823 175.184 70.782C178.928 66.5807 186.078 62.2485 191.082 59.0512C194.561 57.4483 198.146 56.0847 201.813 54.9699C206.773 53.1694 213.211 56.3122 213.682 58.3528C215.696 73.1937 210.484 100.497 213.342 115.938Z" fill="#FF7A00"/>
<g style="mix-blend-mode:multiply" opacity="0.5">
<path d="M191.335 126.796C186.321 127.014 181.864 126.217 179.806 123.969C179.806 123.969 176.521 91.5266 175.984 85.4484L184.525 82.3711C178.941 106.673 191.335 126.796 191.335 126.796Z" fill="#EA4A49"/>
</g>
<path d="M197.215 125.115C197.229 124.966 197.204 124.815 197.14 124.679C197.077 124.543 196.977 124.426 196.853 124.341L164.005 105.331C163.859 105.267 163.698 105.241 163.539 105.256C163.38 105.272 163.227 105.327 163.096 105.419C162.74 105.65 162.444 105.963 162.232 106.331C162.021 106.699 161.9 107.112 161.881 107.536L161.947 133.856C161.934 134.006 161.961 134.156 162.024 134.291C162.088 134.427 162.185 134.544 162.308 134.631L195.156 153.641L195.068 153.575C195.211 153.68 195.384 153.736 195.561 153.736C195.738 153.736 195.911 153.68 196.054 153.575C196.41 153.345 196.707 153.035 196.92 152.669C197.134 152.303 197.257 151.892 197.28 151.469L197.215 125.115Z" fill="#3C3C3B"/>
<path d="M164.071 105.331C163.925 105.267 163.765 105.241 163.606 105.256C163.446 105.272 163.294 105.327 163.163 105.419C162.806 105.65 162.51 105.963 162.299 106.331C162.087 106.699 161.967 107.112 161.947 107.536L162.013 133.856C162 134.006 162.027 134.156 162.091 134.291C162.154 134.427 162.252 134.544 162.374 134.631L195.222 153.641C195.097 153.556 194.998 153.44 194.934 153.303C194.87 153.167 194.845 153.015 194.861 152.866L194.73 126.545C194.753 126.121 194.876 125.708 195.089 125.341C195.302 124.973 195.599 124.66 195.956 124.428C196.085 124.337 196.236 124.281 196.393 124.266C196.551 124.25 196.71 124.276 196.854 124.341L164.071 105.331Z" fill="#1D1D1B"/>
<path d="M197.293 151.437C197.255 152.113 196.966 152.751 196.482 153.226C196.357 153.348 196.217 153.454 196.066 153.543L195.858 153.641C195.256 153.881 194.763 153.565 194.763 152.866L194.73 126.545C194.748 126.144 194.855 125.751 195.045 125.396C195.234 125.041 195.501 124.733 195.825 124.494L195.924 124.428C196.086 124.338 196.265 124.282 196.45 124.265C196.888 124.265 197.183 124.548 197.183 125.116L197.293 151.437Z" fill="#3C3C3B"/>
<path d="M196.482 124.264V153.225C196.356 153.347 196.216 153.453 196.065 153.542L195.857 153.64V124.493L195.956 124.427C196.118 124.337 196.297 124.281 196.482 124.264Z" fill="#1D1D1B"/>
<path d="M179.399 131.717C179.399 132.808 178.654 133.201 177.735 132.677C177.251 132.363 176.848 131.939 176.558 131.44C176.269 130.942 176.102 130.382 176.07 129.807C176.07 128.716 176.815 128.312 177.735 128.847C178.219 129.161 178.623 129.584 178.912 130.083C179.201 130.582 179.368 131.142 179.399 131.717Z" fill="white"/>
<path d="M167.356 91.6572C166.614 95.1897 166.094 98.765 165.801 102.362C164.301 110.885 165.911 126.37 169.787 134.576C170.75 133.397 172.469 132.873 175.174 133.179C174.594 121.023 176.674 111.529 175.174 104.807L177.988 98.663C175.78 98.437 173.66 97.6817 171.808 96.4617C169.957 95.2418 168.429 93.5933 167.356 91.6572Z" fill="#FFAA6D"/>
<path d="M175.151 70.7825C171.468 77.2893 168.837 84.3343 167.355 91.658C168.426 93.5982 169.953 95.2509 171.804 96.4748C173.656 97.6987 175.777 98.4572 177.987 98.6856L183.791 86.0381C189.703 73.1396 180.002 64.6497 175.151 70.7825Z" fill="#FF7A00"/>
<path d="M185.631 142.04C185.34 142.199 185.006 142.262 184.677 142.219C184.348 142.176 184.041 142.029 183.802 141.8C182.357 140.305 180.846 139.115 178.908 139.781C178.562 140.554 178.504 141.424 178.744 142.236L178.798 142.454C178.999 143.238 179.305 143.99 179.707 144.692C180.144 144.903 180.568 145.14 180.977 145.401C181.525 146.874 177.101 146.95 175.098 145.543C173.805 144.299 172.349 145.314 171.44 143.622C171.32 143.382 171.189 143.142 171.068 142.891C170.184 140.208 169.741 137.4 169.754 134.576C170.411 132.273 172.481 131.935 175.152 133.19L178.306 134.881C181.284 136.333 182.795 138.417 185.97 140.992C186.288 141.309 186.069 141.778 185.631 142.04Z" fill="#FFAA6D"/>
<path d="M177.736 108.518L177.55 103.4C187.295 90.392 187.82 79.9488 185.313 74.9619C183.736 71.8082 178.59 69.5057 174.758 69.5057L177.024 66.3738C179.423 66.2705 181.8 66.8656 183.865 68.0865C185.93 69.3073 187.594 71.1011 188.653 73.2486C192.638 81.2365 189.069 95.4335 177.736 108.518Z" fill="#1267B6"/>
<path d="M213.486 82.3818C211.625 78.1042 211.877 59.935 191.303 60.3278V59.9786L191.248 56.6067C193.667 56.5287 196.088 56.6932 198.475 57.0978C207.661 58.6691 211.614 65.4567 214.045 72.3751C214.001 73.9793 213.661 79.3591 213.486 82.3818Z" fill="#1267B6"/>
<path d="M187.228 61.9653L191.98 50.8564L204.977 57.3275L202.207 64.5952C199.863 73.2924 185.761 69.4075 187.228 61.9653Z" fill="#FFAA6D"/>
<g style="mix-blend-mode:multiply" opacity="0.3">
<path d="M204.977 61.3426C204.977 66.5915 204.977 73.6082 198.988 73.8591C195.013 73.8591 190.382 62.2811 191.893 58.5818L191.816 54.2168L204.977 61.3426Z" fill="#CEA55F"/>
</g>
<path d="M198.111 35.873C191.794 35.9385 188.18 39.0049 187.939 45.8033C188.115 52.951 190.513 58.7564 196.086 62.6412C197.276 63.7167 198.691 64.5154 200.228 64.9797C201.766 65.4439 203.388 65.5621 204.977 65.3256C208.82 65.4784 209.499 55.9519 210.046 49.0771C209.641 41.8312 205.229 37.7609 198.111 35.873Z" fill="#FFAA6D"/>
<path d="M210.058 46.3166C208.623 49.7867 202.393 52.2966 196.097 50.6815L195.386 56.356L192.648 54.9374L190.13 57.72L189.199 56.356C184.48 46.764 185.914 39.7146 193.086 35.8952C202.492 32.1632 211.985 41.1986 210.058 46.3166Z" fill="black"/>
<path d="M191.762 57.4032C191.125 56.9047 190.602 56.2758 190.229 55.559C190.049 55.1961 189.955 54.7965 189.955 54.3914C189.955 53.9863 190.049 53.5867 190.229 53.2238C190.414 52.8651 190.719 52.5817 191.09 52.4224C191.462 52.2631 191.878 52.2378 192.266 52.3508C192.524 52.461 192.756 52.6252 192.944 52.8323C193.133 53.0394 193.275 53.2846 193.361 53.5511C193.525 54.0855 193.614 54.6401 193.624 55.1989C193.624 55.7009 193.678 56.2029 193.711 56.7157C193.746 56.8867 193.745 57.0628 193.71 57.2335C193.674 57.4042 193.604 57.5659 193.503 57.7088C193.385 57.8191 193.24 57.8956 193.082 57.9302C192.923 57.9648 192.759 57.9561 192.605 57.9052C192.29 57.8036 192.002 57.632 191.762 57.4032Z" fill="#FFAA6D"/>
<path d="M210.912 50.1362C210.693 48.8485 209.379 50.3762 207.824 51.402C207.555 51.599 207.352 51.8731 207.243 52.1877C206.778 52.2304 206.344 52.4443 206.028 52.7879C205.941 52.5369 205.349 52.5915 205.119 52.6788C203.181 53.3881 200.904 53.3553 200.619 54.8612C199.951 58.3205 206.094 58.2659 206.094 53.3117V53.2025C206.344 52.9244 206.694 52.7558 207.068 52.7333C207.063 52.7695 207.063 52.8063 207.068 52.8425C206.926 55.4287 208.623 55.265 209.893 53.8246C210.304 53.3099 210.605 52.7178 210.78 52.084C210.955 51.4502 211 50.7876 210.912 50.1362ZM205.01 55.8652C204.535 56.466 203.844 56.8577 203.083 56.9564C202.737 57.0187 202.382 56.9934 202.049 56.8828C201.716 56.7722 201.416 56.5798 201.178 56.3235C201.025 56.118 200.919 55.8814 200.868 55.6306C200.817 55.3798 200.821 55.1209 200.882 54.8721C201.035 54.1519 201.9 53.89 203.313 53.5408C203.926 53.399 204.55 53.1916 205.163 53.0061C205.776 52.8206 205.831 53.0716 205.842 53.3772C205.858 54.2769 205.564 55.1549 205.01 55.8652ZM209.838 53.4535C209.47 53.9887 208.923 54.3756 208.295 54.5448C207.408 54.6539 207.2 53.4535 207.397 52.5042C207.465 52.1763 207.652 51.885 207.922 51.6857C208.338 51.4238 208.733 51.1292 209.116 50.8346C209.74 50.3762 210.047 50.0598 210.386 50.0161C210.485 50.0161 210.616 50.0161 210.638 50.2671C210.781 51.3915 210.496 52.5285 209.838 53.4535Z" fill="#1D1D1B"/>
<path d="M193.896 53.377V53.8134L200.784 54.9702L201.035 54.3154L193.896 53.377Z" fill="#1D1D1B"/>
<path d="M193.635 55.1445C193.49 57.1784 193.728 59.2213 194.336 61.1682C194.515 61.8597 194.896 62.4827 195.431 62.9578C198.256 65.4349 202.449 67.4428 206.38 66.9954C210.924 65.9042 209.774 62.2922 209.172 57.8945C207.606 56.8032 204.267 58.8875 201.935 61.3974C200.555 62.4886 198.814 61.561 197.632 60.9718C197.141 60.7061 196.719 60.3301 196.4 59.8736C196.08 59.417 195.872 58.8926 195.792 58.3419L195.431 56.334L193.635 55.1445Z" fill="black"/>
<path d="M207.048 59.3901C206.369 59.5429 204.092 61.0051 204.541 62.0091C204.792 62.5874 205.449 62.7948 206.325 62.6202C206.897 62.4195 207.4 62.0604 207.774 61.5849C208.149 61.1093 208.379 60.5372 208.439 59.9357C208.417 59.2483 207.716 59.2264 207.048 59.3901Z" fill="#FFAA6D"/>
<path d="M206.456 61.3761C206.509 62.4825 206.263 63.5828 205.744 64.5625L209.029 62.5219C208.241 62.5983 207.825 61.8562 207.584 60.7432L206.456 61.3761Z" fill="black"/>
<path d="M242.973 99.4385L242.48 103.803L242.075 107.415L241.725 110.569C241.657 110.898 241.514 111.207 241.307 111.472C241.1 111.737 240.835 111.951 240.531 112.097C239.629 112.549 238.634 112.784 237.624 112.784C236.615 112.784 235.619 112.549 234.717 112.097C234.393 111.912 234.107 111.668 233.874 111.377C233.684 111.145 233.563 110.865 233.524 110.569L233.173 107.415L232.768 103.803L232.275 99.4385H242.973Z" fill="#614731"/>
<g style="mix-blend-mode:overlay">
<path d="M242.48 103.847L242.075 107.459C241.811 107.969 241.393 108.385 240.881 108.648C239.872 109.159 238.756 109.425 237.624 109.425C236.492 109.425 235.376 109.159 234.366 108.648C233.854 108.385 233.437 107.969 233.173 107.459L232.768 103.847C233.073 104.261 233.465 104.604 233.917 104.851C235.066 105.432 236.336 105.734 237.624 105.734C238.912 105.734 240.181 105.432 241.33 104.851C241.782 104.604 242.175 104.261 242.48 103.847Z" fill="white"/>
</g>
<path d="M241.406 97.0591C243.509 98.2703 243.509 100.224 241.406 101.424C240.234 102.016 238.938 102.324 237.623 102.324C236.309 102.324 235.013 102.016 233.84 101.424C231.738 100.224 231.738 98.2703 233.84 97.0591C235.013 96.4675 236.309 96.1592 237.623 96.1592C238.938 96.1592 240.234 96.4675 241.406 97.0591Z" fill="#916A4A"/>
<path d="M243.027 98.0413C242.686 97.5628 242.241 97.1673 241.724 96.8845C240.453 96.2439 239.048 95.9102 237.624 95.9102C236.199 95.9102 234.795 96.2439 233.523 96.8845C233.007 97.1673 232.562 97.5628 232.22 98.0413H231.826V99.2416C231.873 99.7493 232.056 100.235 232.354 100.65C232.652 101.064 233.056 101.391 233.523 101.599C234.793 102.244 236.198 102.581 237.624 102.581C239.049 102.581 240.455 102.244 241.724 101.599C242.192 101.391 242.596 101.064 242.894 100.65C243.192 100.235 243.374 99.7493 243.422 99.2416V98.0413H243.027Z" fill="#C6C6C6"/>
<path d="M241.723 95.6843C243.978 96.9829 243.978 99.0999 241.723 100.398C240.453 101.044 239.048 101.381 237.622 101.381C236.197 101.381 234.792 101.044 233.522 100.398C231.266 99.0999 231.266 96.9829 233.522 95.6843C234.793 95.0437 236.198 94.71 237.622 94.71C239.047 94.71 240.452 95.0437 241.723 95.6843Z" fill="white"/>
<path d="M241.9 97.1141C241.63 96.7314 241.274 96.4174 240.86 96.1974C239.856 95.692 238.748 95.4287 237.624 95.4287C236.5 95.4287 235.392 95.692 234.389 96.1974C233.955 96.4102 233.579 96.7247 233.294 97.1141H233.053V98.0635C233.092 98.4639 233.238 98.8467 233.474 99.1727C233.711 99.4987 234.03 99.7561 234.4 99.9186C235.401 100.43 236.51 100.697 237.635 100.697C238.76 100.697 239.869 100.43 240.871 99.9186C241.24 99.7561 241.559 99.4987 241.796 99.1727C242.033 98.8467 242.178 98.4639 242.217 98.0635V97.1141H241.9Z" fill="#C6C6C6"/>
<path d="M237.63 99.7435C240.157 99.7435 242.206 98.5612 242.206 97.1027C242.206 95.6442 240.157 94.4619 237.63 94.4619C235.102 94.4619 233.053 95.6442 233.053 97.1027C233.053 98.5612 235.102 99.7435 237.63 99.7435Z" fill="white"/>
<path d="M242.61 102.657L241.384 104.119C240.289 104.85 240.497 106.073 241.286 105.931L240.891 106.225C240.202 106.76 240.508 108.135 241.22 107.928L241.647 107.84C240.88 108.528 241.023 109.434 241.713 109.477H241.855C241.406 109.99 241.483 110.339 241.713 110.634C241.943 110.929 242.424 110.536 243.136 110.056C243.664 108.077 243.915 106.035 243.881 103.988L242.786 101.358L242.61 102.657Z" fill="#FFAA6D"/>
<path d="M232.275 100.529L233.928 102.395L235.932 104.119C237.311 105.211 236.534 106.738 235.351 105.778L233.775 104.971L233.085 105.189C233.182 106.066 233.226 106.948 233.216 107.83C232.007 106.854 231.222 105.451 231.026 103.912C230.621 101.773 230.862 100.628 232.275 100.529Z" fill="#FFAA6D"/>
</g>
<defs>
<linearGradient id="paint0_linear_1022_34183" x1="138.957" y1="42" x2="138.957" y2="148" gradientUnits="userSpaceOnUse">
<stop stop-color="#C2EAFF"/>
<stop offset="1" stop-color="white"/>
</linearGradient>
<linearGradient id="paint1_linear_1022_34183" x1="138.957" y1="42" x2="138.957" y2="148" gradientUnits="userSpaceOnUse">
<stop stop-color="#D5F0FF"/>
<stop offset="1" stop-color="white"/>
</linearGradient>
<linearGradient id="paint2_linear_1022_34183" x1="45.2532" y1="153.681" x2="31.8064" y2="177.049" gradientUnits="userSpaceOnUse">
<stop stop-color="#F5F4EC"/>
<stop offset="0.21" stop-color="#F1F0E8"/>
<stop offset="0.42" stop-color="#E5E4DC"/>
<stop offset="0.63" stop-color="#D2D1C8"/>
<stop offset="0.76" stop-color="#C2C1B7"/>
<stop offset="0.95" stop-color="#C5C4BA"/>
<stop offset="1" stop-color="#C8C7BD"/>
</linearGradient>
<linearGradient id="paint3_linear_1022_34183" x1="44.7193" y1="154.541" x2="31.6303" y2="177.334" gradientUnits="userSpaceOnUse">
<stop stop-color="#CC4333"/>
<stop offset="0.35" stop-color="#B73628"/>
<stop offset="0.7" stop-color="#A82E20"/>
<stop offset="1" stop-color="#A32B1D"/>
</linearGradient>
<linearGradient id="paint4_linear_1022_34183" x1="131.805" y1="125.983" x2="125.984" y2="136.069" gradientUnits="userSpaceOnUse">
<stop stop-color="#F5F4EC"/>
<stop offset="0.21" stop-color="#F1F0E8"/>
<stop offset="0.42" stop-color="#E5E4DC"/>
<stop offset="0.63" stop-color="#D2D1C8"/>
<stop offset="0.76" stop-color="#C2C1B7"/>
<stop offset="0.95" stop-color="#C5C4BA"/>
<stop offset="1" stop-color="#C8C7BD"/>
</linearGradient>
<linearGradient id="paint5_linear_1022_34183" x1="123.324" y1="133.921" x2="125.537" y2="119.988" gradientUnits="userSpaceOnUse">
<stop/>
<stop offset="0.13" stop-color="#181817"/>
<stop offset="0.39" stop-color="#565552"/>
<stop offset="0.77" stop-color="#B7B7B1"/>
<stop offset="1" stop-color="#F5F4EC"/>
</linearGradient>
<linearGradient id="paint6_linear_1022_34183" x1="110.451" y1="145.251" x2="104.651" y2="155.347" gradientUnits="userSpaceOnUse">
<stop stop-color="#F5F4EC"/>
<stop offset="0.21" stop-color="#F1F0E8"/>
<stop offset="0.42" stop-color="#E5E4DC"/>
<stop offset="0.63" stop-color="#D2D1C8"/>
<stop offset="0.76" stop-color="#C2C1B7"/>
<stop offset="0.95" stop-color="#C5C4BA"/>
<stop offset="1" stop-color="#C8C7BD"/>
</linearGradient>
<linearGradient id="paint7_linear_1022_34183" x1="102.088" y1="153.083" x2="104.301" y2="139.151" gradientUnits="userSpaceOnUse">
<stop/>
<stop offset="0.13" stop-color="#181817"/>
<stop offset="0.39" stop-color="#565552"/>
<stop offset="0.77" stop-color="#B7B7B1"/>
<stop offset="1" stop-color="#F5F4EC"/>
</linearGradient>
<clipPath id="clip0_1022_34183">
<rect width="82" height="191" fill="white" transform="translate(161.914 35)"/>
</clipPath>
</defs>
</svg>
