<svg width="344" height="256" viewBox="0 0 344 256" fill="none" xmlns="http://www.w3.org/2000/svg">
<path d="M163.561 165.781C172.608 170.992 172.608 179.432 163.561 184.643C154.514 189.854 139.949 189.854 130.936 184.643C121.924 179.432 121.89 170.992 130.936 165.781C139.983 160.57 154.548 160.57 163.561 165.781Z" fill="#575756"/>
<path d="M163.561 164.319C172.608 169.53 172.608 177.913 163.561 183.181C154.514 188.448 139.949 188.392 130.936 183.181C121.924 177.97 121.89 169.53 130.936 164.319C139.983 159.108 154.548 159.108 163.561 164.319Z" fill="#DFEFFA"/>
<path d="M165.8 165.826L159.806 165.962L137.234 166.46L127.656 166.687C128.878 165.701 130.008 164.738 131.049 163.798C133.168 161.917 135.1 159.835 136.816 157.579C140.291 152.998 142.173 147.404 142.176 141.652C142.176 140.813 142.176 139.952 142.176 139.057C142.176 138.162 142.086 136.996 141.995 135.908H152.456C152.376 137.245 152.331 138.514 152.343 139.737C152.343 140.349 152.343 140.949 152.399 141.538C152.629 147.783 154.952 153.769 158.992 158.53C160.547 160.468 162.208 162.317 163.968 164.07L165.8 165.826Z" fill="#DFEFFA"/>
<path d="M150.963 133.767C153.01 134.9 153.01 136.871 150.963 138.061C149.81 138.642 148.538 138.944 147.248 138.944C145.958 138.944 144.686 138.642 143.533 138.061C141.486 136.928 141.486 134.946 143.533 133.767C144.684 133.181 145.957 132.876 147.248 132.876C148.539 132.876 149.812 133.181 150.963 133.767Z" fill="white"/>
<g style="mix-blend-mode:multiply">
<path d="M164.001 164.059C162.661 164.815 161.257 165.452 159.806 165.962C152.511 168.398 144.652 168.571 137.257 166.461C135.23 165.881 133.279 165.064 131.444 164.025L131.094 163.799C133.213 161.918 135.145 159.835 136.861 157.58C140.336 152.999 142.218 147.405 142.221 141.652C145.594 141.17 149.016 141.132 152.399 141.539C152.629 147.784 154.951 153.77 158.992 158.531C160.558 160.465 162.231 162.311 164.001 164.059Z" fill="#DADADA"/>
</g>
<path d="M184.175 136.974L169.474 145.492L164.374 148.438C158.969 151.564 150.612 152.176 144.019 149.944L131.478 145.73C123.37 142.978 109.178 133.269 106.057 96.4983C105.869 93.9804 106.184 91.4501 106.984 89.0557C108.837 83.3412 112.688 78.4895 117.829 75.394C121.493 72.6331 125.611 70.5359 129.997 69.1975C141.079 65.7991 150.352 73.7968 153.179 80.4124L158.833 93.5417C164.872 107.022 177.277 115.654 184.503 121.93C188.574 125.442 189.57 133.847 184.175 136.974Z" fill="#2C99FF"/>
<g style="mix-blend-mode:multiply" opacity="0.5">
<path d="M153.925 141.255C166.428 141.255 176.564 135.392 176.564 128.16C176.564 120.927 166.428 115.064 153.925 115.064C141.421 115.064 131.285 120.927 131.285 128.16C131.285 135.392 141.421 141.255 153.925 141.255Z" fill="#A7CBF4"/>
</g>
<g style="mix-blend-mode:multiply" opacity="0.5">
<path d="M169.441 145.492L164.34 148.438C158.935 151.564 150.578 152.176 143.985 149.944L131.478 145.73C123.37 142.978 109.178 133.269 106.057 96.4982C105.869 93.9803 106.184 91.45 106.984 89.0557C107.33 95.8378 108.469 102.556 110.377 109.072C113.419 119.109 118.79 128.591 126.661 135.512C132.472 140.487 139.391 143.991 146.836 145.727C154.281 147.464 162.033 147.384 169.441 145.492Z" fill="#A7CBF4"/>
</g>
<g style="mix-blend-mode:multiply" opacity="0.5">
<path d="M152.682 97.2453C153.349 100.035 153.483 102.925 153.078 105.764C152.479 108.573 150.545 111.281 147.752 111.904C155.196 110.557 162.874 111.641 169.656 114.996C159.581 107.486 152.897 91.0828 148.792 79.1543C149.799 85.2715 151.936 92.7141 152.682 97.2453Z" fill="#A7CBF4"/>
</g>
<g style="mix-blend-mode:multiply" opacity="0.5">
<path d="M110.795 92.748C111.97 100.83 114.147 108.734 117.275 116.277C119.752 122.166 123.502 127.431 128.255 131.694C127.182 129.338 127.015 126.668 127.787 124.197C128.56 121.725 130.216 119.627 132.439 118.304C129.719 118.68 126.957 118.026 124.693 116.469C122.461 114.918 120.504 113.003 118.903 110.805C115.861 106.92 112.514 98.9105 110.795 92.748Z" fill="#A7CBF4"/>
</g>
<path d="M158.178 82.7795L157.499 77.2627L149.674 83.6857L151.608 90.9358L168.05 102.049L173.557 100.1C167.383 93.3373 162.882 86.6877 158.178 82.7795Z" fill="#FFAA6D"/>
<path d="M156.662 70.4434C156.436 62.0379 152.738 57.9824 148.012 57.9824L144.992 66.1047L149.674 83.6859C153.677 82.3719 156.459 80.2875 157.465 77.2629L156.662 70.4434Z" fill="#F1F1F1"/>
<path d="M201.691 175.184L205.615 179.839C205.544 182.514 206.2 185.157 207.515 187.486C207.677 187.765 207.903 188.001 208.174 188.175C208.446 188.348 208.755 188.454 209.076 188.483C211.127 188.586 213.168 188.141 214.99 187.191C219.321 188.63 224.037 187.701 228.798 185.809C229.952 185.394 231.004 184.736 231.883 183.881C232.763 183.025 233.45 181.991 233.898 180.848C233.991 180.573 234.018 180.281 233.979 179.994C233.94 179.707 233.835 179.433 233.672 179.194L233.547 179.024C233.226 178.557 232.795 178.176 232.292 177.915C231.789 177.654 231.23 177.521 230.664 177.529L221.312 177.585L214.526 174.402L208.476 169.746L201.691 174.832V175.184Z" fill="#1D1D1B"/>
<path d="M171.261 189.978V193.309C170.121 195.276 169.66 197.566 169.949 199.822C170.254 200.513 170.722 201.118 171.313 201.586C171.904 202.054 172.601 202.37 173.342 202.507C175.603 208.103 179.053 210.912 183.271 211.83C186.494 212.306 188.744 211.943 189.615 210.369C190.553 207.276 188.111 204.104 185.397 200.91C183.76 198.712 182.643 196.171 182.128 193.479L180.998 187.814H171.34L171.261 189.978Z" fill="#1D1D1B"/>
<path d="M182.977 167.163C182.66 175.422 182.174 184.28 182.378 193.365C176.927 195.314 170.312 194.498 170.097 191.575C169.35 177.517 166.806 163.946 168.83 155.246C169.134 153.892 169.609 152.583 170.244 151.349L160.485 141.267L140.627 120.809L145.422 117.195L151.811 112.38L152.467 111.882L160.451 110.33L160.948 110.67C161.287 110.896 161.627 111.134 161.966 111.395C162.954 112.097 163.903 112.852 164.816 113.661C167.865 116.284 170.584 119.271 172.912 122.553C173.953 124.064 174.922 125.574 175.819 127.084C177.042 129.197 178.148 131.375 179.132 133.609C180.195 136.022 181.111 138.469 181.925 140.927C182.555 144.201 182.933 147.519 183.056 150.851C183.181 153.309 183.203 155.869 183.181 158.52C183.158 161.171 183.09 164.173 182.977 167.163Z" fill="#1267B6"/>
<path d="M214.504 174.345C213.066 177.126 210.959 179.504 208.375 181.267C207.717 181.705 206.991 182.03 206.226 182.229C205.779 182.358 205.307 182.374 204.851 182.277C204.396 182.181 203.971 181.974 203.614 181.674C195.698 174.153 188.156 166.053 183.259 158.44C179.957 153.388 177.82 148.54 177.514 144.235L160.552 141.267L146.846 138.933C136.951 137.619 129.883 130.369 129.635 121.171C129.585 119.585 129.729 117.998 130.064 116.447L151.822 112.38L160.981 110.613L161.705 110.466C161.745 110.773 161.845 111.07 161.999 111.338C162.742 112.323 163.723 113.102 164.849 113.604C164.403 114.608 163.804 115.536 163.074 116.356C161.849 117.654 160.333 118.641 158.652 119.234C164.728 120.988 170.521 123.609 175.852 127.016C177.989 128.342 180.217 129.803 182.795 131.446L185.181 132.941C186.29 133.636 187.236 134.563 187.952 135.66C197.802 150.896 206.283 164.49 214.504 174.345Z" fill="#1267B6"/>
<g style="mix-blend-mode:multiply" opacity="0.5">
<path d="M208.375 181.267L206.227 182.229C205.779 182.358 205.307 182.374 204.852 182.277C204.396 182.181 203.971 181.974 203.614 181.674C195.699 174.153 188.156 166.053 183.259 158.44C183.259 161.261 183.135 164.172 183.022 167.163C179.108 162.324 174.306 158.279 168.875 155.246C169.179 153.892 169.654 152.582 170.289 151.349L160.529 141.267L146.846 138.933C136.951 137.619 129.884 130.369 129.635 121.171L135.04 120.978L145.433 117.195L157.374 112.845L163.029 116.39L172.901 122.53C173.941 124.041 174.91 125.551 175.807 127.062C177.944 128.387 180.172 129.848 182.75 131.491C181.477 132.073 180.261 132.774 179.12 133.587C176.372 135.603 174.45 138.118 174.925 140.315L180.172 142.581C180.858 145.421 181.827 148.184 183.067 150.828C187.839 161.08 196.705 171.219 208.375 181.267Z" fill="#308DC2"/>
</g>
<path d="M164.838 113.592C162.943 113.993 161.086 114.554 159.286 115.269C147.706 119.8 137.257 129.633 129.703 122.292C127.984 112.38 125.553 103.034 121.719 94.7876L118.734 87.4809L113.871 75.5751C118.481 68.1343 124.983 62.055 132.711 57.9598C138.365 56.827 143.635 56.4305 147.966 57.9598L153.337 71.0665L155.667 80.3782C158.177 91.729 157.454 103.522 164.838 113.592Z" fill="#F1F1F1"/>
<g style="mix-blend-mode:multiply" opacity="0.2">
<path d="M161.458 114.011L159.286 115.314C147.707 119.845 137.258 129.678 129.704 122.337C127.985 112.425 125.553 103.08 121.72 94.8326L118.734 87.526L121.618 83.1533C124.931 92.8162 128.539 101.969 134.363 107.226C137.844 110.483 142.235 112.597 146.949 113.286L161.458 114.011Z" fill="#575756"/>
</g>
<path d="M143.001 114.975C141.407 115.088 119.129 105.765 119.502 105.153C120.267 103.26 120.839 101.294 121.21 99.2852L109.709 96.9062C109.494 100.531 109.551 104.383 109.709 108.325C112.106 117.388 127.599 118.52 141.067 120.163C141.045 120.163 143.442 114.941 143.001 114.975Z" fill="#FFAA6D"/>
<path d="M127.056 53.9043L125.699 62.6496C125.699 62.6496 130.494 69.8656 135.198 69.3785C141.701 68.6988 139.575 62.6496 139.575 62.6496L138.76 54.7879L127.056 53.9043Z" fill="#FFAA6D"/>
<g style="mix-blend-mode:multiply" opacity="0.3">
<path d="M129.408 61.5736L141.644 59.999C141.644 59.999 144.889 71.9389 139.518 73.9893C131.964 76.8553 129.408 61.5736 129.408 61.5736Z" fill="#FFAA6D"/>
</g>
<path d="M128.289 57.2805C128.308 58.2995 128.503 59.3075 128.866 60.2598C129.18 61.085 129.558 61.8843 129.997 62.65C132.26 64.7045 134.936 66.2496 137.845 67.1813C138.334 67.3018 138.846 67.2964 139.332 67.1657C139.818 67.035 140.264 66.7831 140.627 66.4336C142.425 64.4965 143.624 61.1887 144.551 57.2918L145.41 52.2961C145.173 44.8648 142.674 39.3254 134.656 38.3965C129.579 39.3594 126.22 42.2254 125.146 47.6176C124.758 50.1811 124.995 52.8005 125.836 55.2527L128.289 57.2805Z" fill="#FFAA6D"/>
<path d="M125.802 58.6623L127.78 59.999V56.9744L129.703 57.4502L130.834 54.7314C135.696 57.9373 144.404 56.5666 145.716 52.8283C146.294 50.5965 146.205 48.2437 145.459 46.0624C144.713 43.881 143.343 41.9676 141.52 40.5599C139.259 38.8381 136.997 37.6033 133.548 38.1131C128.414 38.872 125.304 42.3724 124.377 47.64C124.343 51.3623 124.822 55.0714 125.802 58.6623Z" fill="#1D1D1B"/>
<path d="M128.967 57.6198C129.05 56.7192 128.869 55.814 128.447 55.0144C128.074 54.4026 127.158 53.4964 126.468 54.0855C125.484 54.9351 126.231 58.4241 127.215 58.9905C128.696 59.8515 128.967 58.662 128.967 57.6198Z" fill="#FFAA6D"/>
<path d="M122.329 89.7692C121.945 80.4008 119.694 74.6801 114.82 74.125C111.428 79.1207 109.381 84.4223 110.455 90.4262C110.071 92.5682 109.822 94.7324 109.709 96.9059C112.287 98.6504 116.404 99.1715 121.21 99.2848C121.793 96.1412 122.167 92.9624 122.329 89.7692Z" fill="#F1F1F1"/>
<path d="M168.414 132.94L162.391 136.424L163.527 138.396L169.55 134.912L168.414 132.94Z" fill="#333332"/>
<path d="M140.705 123.935L163.978 137.336C163.978 138.389 163.254 138.808 162.361 138.287L142.322 126.767C141.852 126.458 141.461 126.042 141.18 125.555C140.899 125.067 140.737 124.52 140.705 123.957V123.935Z" fill="#333332"/>
<path d="M193.719 120.004L170.503 106.705L140.705 123.935L163.989 137.336L193.719 120.004Z" fill="#575756"/>
<path d="M161.05 131.876L162.373 132.646L160.745 133.598L159.41 132.828L161.05 131.876Z" fill="#DADADA"/>
<path d="M166.297 130.381L164.657 131.321L163.334 130.562L164.974 129.61L166.297 130.381Z" fill="#DADADA"/>
<path d="M166.931 128.478L168.254 129.248L166.614 130.188L165.291 129.429L166.931 128.478Z" fill="#DADADA"/>
<path d="M168.898 127.345L170.221 128.115L168.581 129.055L167.258 128.296L168.898 127.345Z" fill="#DADADA"/>
<path d="M170.855 126.212L172.178 126.982L170.538 127.922L169.215 127.152L170.855 126.212Z" fill="#DADADA"/>
<path d="M176.09 124.705L174.462 125.657L173.139 124.887L174.767 123.946L176.09 124.705Z" fill="#DADADA"/>
<path d="M176.735 122.813L178.059 123.572L176.419 124.524L175.096 123.754L176.735 122.813Z" fill="#DADADA"/>
<path d="M178.69 121.681L180.014 122.44L178.374 123.391L177.051 122.621L178.69 121.681Z" fill="#DADADA"/>
<path d="M173.307 115.925L171.984 115.155L173.624 114.215L174.947 114.974L173.307 115.925Z" fill="#DADADA"/>
<path d="M175.276 114.793L173.953 114.022L175.582 113.082L176.905 113.841L175.276 114.793Z" fill="#DADADA"/>
<path d="M175.908 112.889L177.548 111.949L178.871 112.708L177.231 113.66L175.908 112.889Z" fill="#DADADA"/>
<path d="M152.455 128.488L151.121 127.718L152.761 126.767L154.084 127.537L152.455 128.488Z" fill="#DADADA"/>
<path d="M154.411 127.356L153.088 126.585L154.728 125.634L156.051 126.404L154.411 127.356Z" fill="#DADADA"/>
<path d="M165.844 120.74L162.882 122.451L162.248 122.813L161.932 123.006L161.106 123.481L159.964 124.138L158.324 125.09L156.368 126.223L155.045 125.453L160.416 122.349L160.597 122.235L164.521 119.97L165.844 120.74Z" fill="#DADADA"/>
<path d="M166.173 120.547L164.85 119.788L166.478 118.837L167.812 119.607L166.173 120.547Z" fill="#DADADA"/>
<path d="M168.13 119.415L166.807 118.656L168.446 117.704L169.769 118.463L168.13 119.415Z" fill="#DADADA"/>
<path d="M168.762 117.512L170.401 116.571L171.725 117.33L170.085 118.282L168.762 117.512Z" fill="#DADADA"/>
<path d="M173.637 116.107L175.276 115.167L176.6 115.926L174.96 116.878L173.637 116.107Z" fill="#DADADA"/>
<path d="M175.592 114.974L177.232 114.034L178.555 114.793L176.915 115.745L175.592 114.974Z" fill="#DADADA"/>
<path d="M177.561 113.842L179.189 112.901L180.512 113.66L178.884 114.612L177.561 113.842Z" fill="#DADADA"/>
<path d="M152.771 128.67L154.411 127.729L155.734 128.488L154.095 129.44L152.771 128.67Z" fill="#DADADA"/>
<path d="M157.691 127.356L156.052 128.308L154.729 127.538L156.368 126.586L157.691 127.356Z" fill="#DADADA"/>
<path d="M159.658 126.223L158.018 127.175L156.695 126.405L158.324 125.453L159.658 126.223Z" fill="#DADADA"/>
<path d="M161.615 125.091L159.975 126.042L158.652 125.272L160.292 124.32L161.615 125.091Z" fill="#DADADA"/>
<path d="M163.572 123.958L161.932 124.909L160.609 124.139L162.249 123.188L163.572 123.958Z" fill="#DADADA"/>
<path d="M165.539 122.825L163.899 123.765L162.576 123.006L164.205 122.055L165.539 122.825Z" fill="#DADADA"/>
<path d="M167.496 121.692L165.856 122.632L164.533 121.873L166.173 120.922L167.496 121.692Z" fill="#DADADA"/>
<path d="M169.451 120.559L167.811 121.5L166.488 120.741L168.128 119.789L169.451 120.559Z" fill="#DADADA"/>
<path d="M171.409 119.427L169.78 120.367L168.457 119.608L170.085 118.656L171.409 119.427Z" fill="#DADADA"/>
<path d="M175.287 117.07L176.916 116.118L178.239 116.877L176.61 117.829L175.287 117.07Z" fill="#DADADA"/>
<path d="M180.207 115.744L178.567 116.696L177.244 115.926L178.884 114.985L180.207 115.744Z" fill="#DADADA"/>
<path d="M179.199 114.793L180.839 113.853L182.162 114.612L180.522 115.563L179.199 114.793Z" fill="#DADADA"/>
<path d="M154.424 129.622L156.052 128.682L157.387 129.441L155.747 130.392L154.424 129.622Z" fill="#DADADA"/>
<path d="M159.342 128.308L157.702 129.259L156.379 128.489L158.019 127.549L159.342 128.308Z" fill="#DADADA"/>
<path d="M158.336 127.356L159.976 126.416L161.299 127.175L159.659 128.127L158.336 127.356Z" fill="#DADADA"/>
<path d="M160.303 126.223L161.931 125.271L163.254 126.042L161.626 126.993L160.303 126.223Z" fill="#DADADA"/>
<path d="M162.26 125.09L163.899 124.139L165.223 124.909L163.583 125.861L162.26 125.09Z" fill="#DADADA"/>
<path d="M164.217 123.957L165.857 123.006L167.18 123.776L165.54 124.728L164.217 123.957Z" fill="#DADADA"/>
<path d="M169.135 122.643L167.507 123.584L166.184 122.825L167.812 121.873L169.135 122.643Z" fill="#DADADA"/>
<path d="M168.141 121.692L169.78 120.74L171.103 121.511L169.464 122.451L168.141 121.692Z" fill="#DADADA"/>
<path d="M173.386 120.186L171.419 121.318L170.096 120.559L172.052 119.427L170.412 118.464L172.052 117.523L173.692 118.475L174.235 118.781L175.015 119.245L173.929 119.88L173.386 120.186Z" fill="#DADADA"/>
<path d="M178.251 118.781L176.928 118.022L178.567 117.07L179.891 117.829L178.251 118.781Z" fill="#DADADA"/>
<path d="M180.523 115.938L181.846 116.696L180.217 117.648L178.883 116.878L180.523 115.938Z" fill="#DADADA"/>
<path d="M180.852 115.745L182.491 114.805L183.814 115.564L182.175 116.515L180.852 115.745Z" fill="#DADADA"/>
<path d="M156.062 130.573L157.702 129.633L159.025 130.392L157.386 131.343L156.062 130.573Z" fill="#DADADA"/>
<path d="M159.354 130.211L158.031 129.44L159.66 128.5L160.983 129.259L159.354 130.211Z" fill="#DADADA"/>
<path d="M159.986 128.307L161.626 127.367L162.949 128.126L161.309 129.078L159.986 128.307Z" fill="#DADADA"/>
<path d="M163.583 126.234L164.906 126.993L163.266 127.945L161.943 127.175L163.583 126.234Z" fill="#DADADA"/>
<path d="M163.9 126.041L165.54 125.09L166.863 125.86L165.235 126.812L163.9 126.041Z" fill="#DADADA"/>
<path d="M165.867 124.909L167.507 123.957L168.83 124.727L167.19 125.668L165.867 124.909Z" fill="#DADADA"/>
<path d="M169.147 124.535L167.824 123.776L169.464 122.824L170.787 123.595L169.147 124.535Z" fill="#DADADA"/>
<path d="M169.791 122.643L171.419 121.691L172.743 122.462L171.114 123.402L169.791 122.643Z" fill="#DADADA"/>
<path d="M173.704 120.377L174.304 120.026L175.344 119.426L176.667 120.196L175.627 120.796L175.027 121.136L173.071 122.269L171.748 121.51L173.704 120.377Z" fill="#DADADA"/>
<path d="M183.18 119.744L181.54 120.684L180.217 119.925L181.857 118.974L183.18 119.744Z" fill="#DADADA"/>
<path d="M183.814 117.84L185.137 118.61L183.509 119.55L182.186 118.791L183.814 117.84Z" fill="#DADADA"/>
<path d="M185.78 116.707L187.103 117.477L185.464 118.418L184.141 117.647L185.78 116.707Z" fill="#DADADA"/>
<path d="M154.876 117.772L158.811 120.038C158.912 120.088 159.022 120.114 159.134 120.114C159.246 120.114 159.356 120.088 159.456 120.038L165.382 116.639C165.423 116.629 165.46 116.605 165.487 116.571C165.513 116.537 165.528 116.495 165.528 116.452C165.528 116.409 165.513 116.368 165.487 116.334C165.46 116.3 165.423 116.276 165.382 116.266L161.458 114C161.355 113.95 161.243 113.924 161.13 113.924C161.016 113.924 160.904 113.95 160.802 114L154.876 117.398C154.84 117.414 154.809 117.44 154.787 117.474C154.765 117.507 154.754 117.546 154.754 117.585C154.754 117.625 154.765 117.664 154.787 117.697C154.809 117.73 154.84 117.756 154.876 117.772Z" fill="#878787"/>
<path d="M139.36 114.34L143.001 114.974H147.253L151.935 116.277L155.328 117.693C156.244 118.033 156.244 118.52 155.814 118.826L159.093 120.287L161.785 121.85C162.667 122.507 161.988 123.459 160.857 122.983L155.384 120.808L154.355 120.955L157.092 122.768L160.869 125.453C162 126.325 161.084 127.356 159.941 126.823L154.604 123.946L158.279 127.56C159.286 128.761 158.211 129.44 157.148 128.783L152.206 124.83L150.883 124.546L153.586 128.16C154.536 129.35 153.337 129.723 152.387 128.693L148.791 125.226C147.079 124.719 145.437 123.996 143.906 123.074C142.684 122.183 141.638 121.073 140.819 119.8L136.657 119.211C136.51 116.56 136.296 114.385 139.36 114.34Z" fill="#FFAA6D"/>
<path d="M173.592 100.1C175.225 101.246 176.642 102.672 177.776 104.314L182.899 109.673C183.6 110.624 182.706 111.191 181.858 110.522L180.207 108.948L182.571 112.267C183.283 113.32 182.322 114.057 181.361 113.32L176.837 108.71L179.8 114.374C180.411 115.62 179.167 116.152 178.375 115.087L174.485 109.559H173.807L175.13 115.484C175.492 116.617 174.101 117.059 173.637 115.699L171.013 109.208L169.442 107.928L168.118 110.568L167.847 113.105C167.86 113.393 167.794 113.68 167.657 113.933C167.519 114.187 167.315 114.398 167.067 114.544C166.987 114.583 166.9 114.606 166.811 114.611C166.722 114.616 166.633 114.602 166.55 114.572C166.466 114.541 166.39 114.494 166.325 114.432C166.26 114.371 166.209 114.297 166.173 114.215L166.354 112.074L166.162 108.608L168.096 102.071L166.897 99.9645L170.731 97.8574L173.592 100.1Z" fill="#FFAA6D"/>
<path d="M193.775 120.389L200.187 96.917C200.603 97.282 200.923 97.7432 201.12 98.2605C201.317 98.7777 201.385 99.3354 201.318 99.885L195.766 120.276C195.528 121.137 194.635 121.204 193.775 120.434V120.389Z" fill="#4A4A49"/>
<path d="M170.435 114.136L165.572 138.072L195.347 120.853L200.21 96.917L170.435 114.136Z" fill="#4A4A49"/>
<path d="M164.002 137.619L170.414 114.147C170.829 114.512 171.15 114.974 171.347 115.491C171.544 116.008 171.612 116.566 171.545 117.115L165.992 137.506C165.755 138.367 164.861 138.435 164.002 137.665V137.619Z" fill="#333332"/>
<path d="M182.978 118.475C182.819 119.494 183.441 119.902 184.391 119.393C184.893 119.093 185.329 118.694 185.673 118.221C186.017 117.748 186.262 117.21 186.393 116.64C186.562 115.632 185.929 115.224 184.991 115.722C184.489 116.024 184.053 116.423 183.707 116.895C183.362 117.368 183.114 117.905 182.978 118.475Z" fill="#DADADA"/>
<g clip-path="url(#clip0_1022_34573)">
<path d="M223.559 35.75C216.449 31.65 210.699 34.98 210.699 43.18C210.699 43.33 210.699 43.49 210.699 43.64C210.909 51.75 216.579 61.43 223.549 65.45C230.519 69.47 236.189 66.35 236.399 58.45C236.399 58.31 236.399 58.15 236.399 58C236.419 49.83 230.669 39.86 223.559 35.75Z" fill="#444443"/>
<path d="M220.86 37.3897C213.76 33.2897 208 36.6097 208 44.8097C208 44.9697 208 45.1197 208 45.2797C208.21 53.3897 213.88 63.0697 220.85 67.0897C227.82 71.1097 233.5 67.9797 233.7 60.0897C233.7 59.9397 233.7 59.7897 233.7 59.6297C233.72 51.3897 227.97 41.4397 220.86 37.3897ZM231.29 58.7097C231.07 65.0297 226.48 67.5197 220.86 64.2697C215.24 61.0197 210.65 53.2697 210.44 46.6797V46.2197C210.44 39.5697 215.1 36.8797 220.86 40.2197C226.62 43.5597 231.29 51.6297 231.29 58.2797V58.7097Z" fill="#706F6F"/>
<path d="M220.859 40.1496C215.099 36.8196 210.439 39.5196 210.439 46.1496C210.439 52.7796 215.099 60.8796 220.859 64.2096C226.619 67.5396 231.289 64.8396 231.289 58.2096C231.289 51.5796 226.619 43.4696 220.859 40.1496Z" fill="white"/>
<path d="M221.23 52.87L220.49 51.51L225.89 49L226.62 50.36L221.23 52.87Z" fill="#5E5E5E"/>
<path d="M220.46 52.3904L214.33 41.3004L215.13 40.9004L221.26 51.9904L220.46 52.3904Z" fill="#5E5E5E"/>
<path d="M222.091 52.8998C222.091 53.6798 221.541 53.9998 220.861 53.6098C220.505 53.3752 220.209 53.0602 219.997 52.6902C219.785 52.3202 219.663 51.9056 219.641 51.4798C219.641 50.6998 220.181 50.3798 220.861 50.7698C221.22 51.002 221.518 51.3163 221.732 51.6866C221.946 52.0569 222.069 52.4727 222.091 52.8998Z" fill="#878787"/>
<path d="M220.471 60.9004L221.231 61.3404V63.8004L220.471 63.3604V60.9004Z" fill="#5E5E5E"/>
<path d="M213.12 47.27V48.16L210.99 46.92V46.04L213.12 47.27Z" fill="#5E5E5E"/>
<path d="M221.24 43.4703L220.48 43.0303V40.5703L221.24 41.0103V43.4703Z" fill="#5E5E5E"/>
<path d="M228.6 57.1097V56.2197L230.73 57.4597V58.3397L228.6 57.1097Z" fill="#5E5E5E"/>
</g>
<defs>
<clipPath id="clip0_1022_34573">
<rect width="28.42" height="34.8" fill="white" transform="translate(208 34)"/>
</clipPath>
</defs>
</svg>
