<svg width="344" height="256" viewBox="0 0 344 256" fill="none" xmlns="http://www.w3.org/2000/svg">
<g clip-path="url(#clip0_1022_34002)">
<path d="M113.533 174.752L112.293 172.598L129.234 162.817L130.094 165.189L113.533 174.752Z" fill="#1B3555"/>
<path d="M96.9591 160.287L95.7188 162.445L113.884 172.884L115.125 170.726L96.9591 160.287Z" fill="#1B3555"/>
<path d="M128.375 165.189L112.293 155.909L113.533 153.755L129.474 162.97L128.375 165.189Z" fill="#1B3555"/>
<path d="M95.6986 165.548L95.209 162.969L112.542 152.949L113.782 155.103L95.6986 165.548Z" fill="#1B3555"/>
<path d="M112.413 185.315C113.425 185.315 114.241 185.881 114.241 186.577C114.241 187.274 113.425 187.829 112.413 187.829C111.401 187.829 110.574 187.263 110.574 186.577C110.574 185.892 111.401 185.315 112.413 185.315Z" fill="#1B3555"/>
<path d="M112.413 167.006C113.425 167.006 114.241 167.561 114.241 168.257C114.241 168.953 113.425 169.519 112.413 169.519C111.401 169.519 110.574 168.953 110.574 168.257C110.574 167.561 111.401 167.006 112.413 167.006Z" fill="#E3D1B3"/>
<path d="M128.646 174.295C128.646 173.61 129.473 173.044 130.474 173.044C131.475 173.044 132.313 173.61 132.313 174.295C132.313 174.98 131.486 175.557 130.474 175.557C129.463 175.557 128.646 174.991 128.646 174.295Z" fill="#B3D4E7"/>
<path d="M92 176.808C92 176.111 92.816 175.557 93.8279 175.557C94.8398 175.557 95.6559 176.111 95.6559 176.808C95.6559 177.504 94.8398 178.07 93.8279 178.07C92.816 178.07 92 177.504 92 176.808Z" fill="#1B3555"/>
<path d="M112.412 143.234C113.729 143.234 114.795 143.974 114.795 144.877C114.795 145.78 113.707 146.509 112.412 146.509C111.117 146.509 110.029 145.78 110.029 144.877C110.029 143.974 111.096 143.234 112.412 143.234Z" fill="#E3D1B3"/>
<path d="M120.268 137.849C120.268 136.946 121.356 136.217 122.65 136.217C123.945 136.217 125.033 136.946 125.033 137.849C125.033 138.752 123.945 139.481 122.65 139.481C121.356 139.481 120.268 138.752 120.268 137.849Z" fill="#E3D1B3"/>
<path d="M99.7793 137.849C99.7793 136.946 100.867 136.217 102.162 136.217C103.457 136.217 104.545 136.946 104.545 137.849C104.545 138.752 103.457 139.481 102.162 139.481C100.867 139.481 99.7793 138.752 99.7793 137.849Z" fill="#E3D1B3"/>
<path d="M95.6668 176.808H92L99.7797 137.849H104.545L95.6668 176.808Z" fill="#1B3555"/>
<path d="M128.647 174.295H132.313L125.034 137.849H120.279L128.647 174.295Z" fill="#B3D4E7"/>
<path d="M114.197 186.567H110.628L110.029 144.877H114.795L114.197 186.567Z" fill="#1B3555"/>
<path d="M124.903 133.127C131.801 137.109 131.801 143.56 124.903 147.542C118.005 151.524 106.819 151.524 99.8776 147.542C92.9357 143.56 92.9793 137.109 99.8776 133.127C106.776 129.145 118.005 129.145 124.903 133.127Z" fill="#1B3555"/>
<path d="M124.903 130.146C131.801 134.138 131.801 140.59 124.903 144.572C118.005 148.554 106.819 148.554 99.8776 144.572C92.9357 140.59 92.9793 134.138 99.8776 130.146C106.776 126.153 118.005 126.164 124.903 130.146Z" fill="#B3D4E7"/>
<path d="M181.612 164.253C172.908 169.268 172.908 177.417 181.612 182.443C190.317 187.469 204.462 187.469 213.166 182.443C221.871 177.417 221.871 169.268 213.166 164.253C204.462 159.238 190.317 159.227 181.612 164.253Z" fill="#1B3555"/>
<path d="M181.612 162.001C172.908 167.027 172.908 175.175 181.612 180.202C190.317 185.228 204.462 185.228 213.166 180.202C221.871 175.175 221.871 167.027 213.166 162.001C204.462 156.974 190.317 156.952 181.612 162.001Z" fill="#B3D4E7"/>
<path d="M191.405 167.386C188.086 169.301 188.086 172.402 191.405 174.316C193.261 175.253 195.31 175.742 197.389 175.742C199.468 175.742 201.518 175.253 203.374 174.316C206.638 172.402 206.638 169.301 203.374 167.386C201.518 166.449 199.468 165.961 197.389 165.961C195.31 165.961 193.261 166.449 191.405 167.386Z" fill="#1B3555"/>
<path d="M191.405 165.232C188.086 167.147 188.086 170.247 191.405 172.162C193.261 173.099 195.31 173.587 197.389 173.587C199.468 173.587 201.518 173.099 203.374 172.162C206.638 170.247 206.638 167.147 203.374 165.232C201.518 164.295 199.468 163.807 197.389 163.807C195.31 163.807 193.261 164.295 191.405 165.232Z" fill="#B3D4E7"/>
<path d="M192.744 164.416C190.197 165.896 190.197 168.279 192.744 169.747C194.173 170.472 195.754 170.849 197.357 170.849C198.96 170.849 200.54 170.472 201.97 169.747C204.516 168.279 204.516 165.896 201.97 164.416C200.54 163.692 198.96 163.314 197.357 163.314C195.754 163.314 194.173 163.692 192.744 164.416Z" fill="#1B3555"/>
<path d="M203.874 124.511H190.828V167.375H203.874V124.511Z" fill="#1B3555"/>
<path d="M158.763 97.8557C137.415 110.182 137.415 130.157 158.763 142.461C180.111 154.766 214.7 154.777 236.015 142.461C257.331 130.146 257.352 110.171 236.015 97.8557C214.678 85.5403 180.056 85.5403 158.763 97.8557Z" fill="#1B3555"/>
<path d="M197.357 148.576C227.536 148.576 252 134.45 252 117.026C252 99.6011 227.536 85.4756 197.357 85.4756C167.179 85.4756 142.715 99.6011 142.715 117.026C142.715 134.45 167.179 148.576 197.357 148.576Z" fill="#D7E0D7"/>
<path d="M197.357 148.576C227.536 148.576 252 134.45 252 117.026C252 99.6011 227.536 85.4756 197.357 85.4756C167.179 85.4756 142.715 99.6011 142.715 117.026C142.715 134.45 167.179 148.576 197.357 148.576Z" fill="#B3D4E7"/>
<path d="M166.26 102.219L216.169 108.681V109.867L166.26 103.405V102.219Z" fill="#3C3C3B"/>
<path d="M166.38 103.644L196.432 121.051C196.542 121.105 196.663 121.133 196.786 121.133C196.908 121.133 197.029 121.105 197.139 121.051L216.006 110.172C216.202 110.063 216.202 109.878 216.006 109.758L185.965 92.3185C185.856 92.2594 185.735 92.2285 185.611 92.2285C185.488 92.2285 185.366 92.2594 185.258 92.3185L166.38 103.209C166.322 103.209 166.267 103.232 166.226 103.272C166.185 103.313 166.162 103.369 166.162 103.426C166.162 103.484 166.185 103.539 166.226 103.58C166.267 103.621 166.322 103.644 166.38 103.644Z" fill="black"/>
<path d="M166.381 102.426L196.433 119.833C196.544 119.887 196.664 119.914 196.787 119.914C196.91 119.914 197.031 119.887 197.141 119.833L216.008 108.953C216.204 108.845 216.204 108.66 216.008 108.54L185.966 91.1329C185.858 91.0739 185.736 91.043 185.613 91.043C185.489 91.043 185.367 91.0739 185.259 91.1329L166.392 102.012C166.337 102.011 166.284 102.031 166.244 102.069C166.204 102.107 166.181 102.159 166.18 102.214C166.178 102.268 166.199 102.322 166.236 102.361C166.274 102.401 166.326 102.424 166.381 102.426Z" fill="#878787"/>
<path opacity="0.5" d="M190.165 94.8644L190.698 95.1691L192.265 96.0721L192.798 96.3876L194.354 97.2797L194.898 97.5952L196.454 98.4981L196.987 98.8028L198.554 99.7058L199.087 100.01L200.643 100.913L201.176 101.218L202.743 102.121L203.276 102.426L204.832 103.329L205.366 103.644L206.932 104.547L207.465 104.852L209.032 105.755L209.565 106.059L211.121 106.962L211.655 107.267L213.754 108.475L211.72 109.649L211.187 109.965L209.696 110.824L209.163 111.129L207.672 111.989L207.128 112.304L205.638 113.164L205.104 113.468L203.614 114.339L203.07 114.643L201.046 115.818L198.957 114.61L198.413 114.295L194.757 112.184L194.224 111.88L182.19 104.928L181.657 104.623L180.09 103.72L179.557 103.405L178.001 102.513L177.468 102.197L175.901 101.294L175.368 100.99L173.268 99.7819L175.302 98.6069L175.835 98.3023L177.326 97.4428L177.859 97.1273L181.385 95.0929L181.918 94.7883L183.419 93.9288L183.952 93.6133L185.976 92.4492L190.165 94.8644Z" fill="black"/>
<path d="M211.122 107.419L212.95 108.474L211.187 109.497L209.359 108.442L211.122 107.419Z" fill="#706F6F"/>
<path d="M209.032 106.212L210.849 107.267L209.097 108.29L207.27 107.235L209.032 106.212Z" fill="white"/>
<path d="M206.998 107.082L205.17 106.027L206.933 105.004L208.761 106.059L206.998 107.082Z" fill="white"/>
<path d="M204.833 103.796L206.661 104.851L204.909 105.863L203.07 104.808L204.833 103.796Z" fill="white"/>
<path d="M202.743 102.589L204.571 103.644L202.808 104.656L200.98 103.601L202.743 102.589Z" fill="white"/>
<path d="M200.644 101.37L202.471 102.425L200.709 103.448L198.881 102.393L200.644 101.37Z" fill="white"/>
<path d="M198.554 100.163L200.382 101.218L198.619 102.241L196.791 101.186L198.554 100.163Z" fill="white"/>
<path d="M196.454 98.9551L198.282 100.01L196.519 101.033L194.691 99.9777L196.454 98.9551Z" fill="white"/>
<path d="M194.43 99.8141L192.602 98.7588L194.353 97.7471L196.181 98.8024L194.43 99.8141Z" fill="white"/>
<path d="M192.33 98.6071L190.502 97.5518L192.265 96.54L194.093 97.5953L192.33 98.6071Z" fill="white"/>
<path d="M190.23 97.3991L188.402 96.3438L190.165 95.332L191.993 96.3873L190.23 97.3991Z" fill="white"/>
<path d="M189.903 95.1692L188.141 96.1918L184.213 93.9289L185.976 92.9062L189.903 95.1692Z" fill="#706F6F"/>
<path d="M209.097 108.594L210.925 109.649L209.162 110.661L207.334 109.616L209.097 108.594Z" fill="white"/>
<path d="M206.997 107.387L208.825 108.442L207.062 109.454L205.234 108.399L206.997 107.387Z" fill="white"/>
<path d="M204.974 108.246L203.146 107.19L204.909 106.179L206.726 107.234L204.974 108.246Z" fill="white"/>
<path d="M202.81 104.972L204.637 106.027L202.875 107.039L201.047 105.983L202.81 104.972Z" fill="white"/>
<path d="M200.709 103.753L202.537 104.808L200.774 105.831L198.957 104.776L200.709 103.753Z" fill="white"/>
<path d="M198.62 102.545L200.448 103.6L198.685 104.623L196.857 103.568L198.62 102.545Z" fill="white"/>
<path d="M196.52 101.338L198.348 102.393L196.586 103.405L194.758 102.35L196.52 101.338Z" fill="white"/>
<path d="M194.431 100.13L196.259 101.185L194.496 102.197L192.668 101.142L194.431 100.13Z" fill="white"/>
<path d="M192.396 100.99L190.568 99.9346L192.331 98.9229L194.159 99.9782L192.396 100.99Z" fill="white"/>
<path d="M190.306 99.7821L188.479 98.7268L190.23 97.7041L192.058 98.7594L190.306 99.7821Z" fill="white"/>
<path d="M188.207 98.5741L186.379 97.5188L188.142 96.4961L189.97 97.5514L188.207 98.5741Z" fill="white"/>
<path d="M186.042 95.2891L187.87 96.3444L186.107 97.367L184.279 96.3117L186.042 95.2891Z" fill="white"/>
<path d="M184.017 96.1481L182.189 95.0928L183.952 94.0811L185.78 95.1364L184.017 96.1481Z" fill="white"/>
<path d="M207.063 109.77L208.891 110.825L207.129 111.837L205.301 110.781L207.063 109.77Z" fill="white"/>
<path d="M204.974 108.562L206.802 109.617L205.039 110.629L203.211 109.573L204.974 108.562Z" fill="white"/>
<path d="M202.939 109.421L201.111 108.365L202.874 107.343L204.702 108.398L202.939 109.421Z" fill="white"/>
<path d="M200.773 106.136L202.601 107.191L200.849 108.214L199.021 107.158L200.773 106.136Z" fill="white"/>
<path d="M198.685 104.928L200.512 105.983L198.75 106.995L196.922 105.94L198.685 104.928Z" fill="white"/>
<path d="M196.585 103.72L198.413 104.775L196.661 105.787L194.822 104.732L196.585 103.72Z" fill="white"/>
<path d="M194.495 102.513L196.323 103.568L194.56 104.58L192.732 103.524L194.495 102.513Z" fill="white"/>
<path d="M192.395 101.294L194.223 102.349L192.461 103.372L190.633 102.317L192.395 101.294Z" fill="white"/>
<path d="M190.373 102.165L188.545 101.11L190.308 100.087L192.136 101.142L190.373 102.165Z" fill="white"/>
<path d="M188.271 100.946L186.443 99.8907L188.206 98.8789L190.034 99.9342L188.271 100.946Z" fill="white"/>
<path d="M186.183 99.738L184.355 98.6827L186.107 97.6709L187.935 98.7262L186.183 99.738Z" fill="white"/>
<path d="M184.019 96.4639L185.846 97.5192L184.084 98.5309L182.256 97.4756L184.019 96.4639Z" fill="white"/>
<path d="M181.721 97.4751L183.811 98.6827L182.048 99.7054L178.131 97.4425L181.917 95.2666L183.745 96.3545L181.721 97.4751Z" fill="#706F6F"/>
<path d="M202.938 109.726L206.866 111.989L205.104 113.011L201.176 110.748L202.938 109.726Z" fill="#706F6F"/>
<path d="M200.916 110.585L199.088 109.529L200.851 108.518L202.678 109.573L200.916 110.585Z" fill="white"/>
<path d="M198.751 107.311L200.579 108.366L198.816 109.378L196.988 108.322L198.751 107.311Z" fill="white"/>
<path d="M196.661 106.103L198.478 107.158L196.726 108.17L194.898 107.114L196.661 106.103Z" fill="white"/>
<path d="M194.561 104.885L196.389 105.94L194.627 106.963L192.799 105.907L194.561 104.885Z" fill="white"/>
<path d="M192.462 103.677L194.29 104.732L192.527 105.755L190.699 104.699L192.462 103.677Z" fill="white"/>
<path d="M190.372 102.469L192.2 103.524L190.437 104.547L188.609 103.481L190.372 102.469Z" fill="white"/>
<path d="M188.338 103.329L186.51 102.274L188.272 101.262L190.1 102.317L188.338 103.329Z" fill="white"/>
<path d="M186.248 102.121L184.42 101.065L186.183 100.054L188 101.109L186.248 102.121Z" fill="white"/>
<path d="M184.148 100.914L182.32 99.8585L184.083 98.8467L185.911 99.8911L184.148 100.914Z" fill="white"/>
<path d="M200.262 112.554L199.152 111.912L200.915 110.9L204.832 113.163L203.069 114.175L200.98 112.967L200.262 112.554Z" fill="#706F6F"/>
<path d="M198.881 111.76L197.053 110.705L198.815 109.693L200.643 110.749L198.881 111.76Z" fill="white"/>
<path d="M196.726 108.475L198.554 109.53L196.791 110.553L194.963 109.497L196.726 108.475Z" fill="white"/>
<path d="M194.626 107.267L196.454 108.322L194.691 109.345L192.863 108.289L194.626 107.267Z" fill="white"/>
<path d="M192.527 106.06L194.355 107.115L192.603 108.138L190.775 107.082L192.527 106.06Z" fill="white"/>
<path d="M190.436 104.852L192.264 105.907L190.502 106.919L188.674 105.863L190.436 104.852Z" fill="white"/>
<path d="M188.337 103.645L190.165 104.7L188.402 105.712L186.574 104.656L188.337 103.645Z" fill="white"/>
<path d="M186.314 104.504L184.486 103.448L186.249 102.426L188.077 103.481L186.314 104.504Z" fill="white"/>
<path d="M184.213 103.296L182.385 102.24L184.147 101.218L185.975 102.273L184.213 103.296Z" fill="white"/>
<path d="M182.125 102.089L180.297 101.033L182.06 100.011L183.877 101.066L182.125 102.089Z" fill="white"/>
<path d="M180.024 100.869L176.107 98.6065L177.859 97.5947L181.787 99.8576L180.024 100.869Z" fill="#706F6F"/>
<path d="M201.047 115.35L199.219 114.295L200.981 113.283L202.809 114.339L201.047 115.35Z" fill="white"/>
<path d="M198.62 111.913L200.709 113.131L198.957 114.143L196.857 112.935L196.183 112.544L195.029 111.88L196.792 110.857L197.945 111.532L198.62 111.913Z" fill="white"/>
<path d="M194.757 111.717L182.451 104.623L184.214 103.601L196.52 110.705L194.757 111.717Z" fill="#706F6F"/>
<path d="M182.189 104.46L180.361 103.404L182.124 102.393L183.952 103.448L182.189 104.46Z" fill="white"/>
<path d="M180.09 103.253L178.262 102.197L180.024 101.186L181.852 102.241L180.09 103.253Z" fill="white"/>
<path d="M178 102.045L176.172 100.989L177.924 99.9775L179.762 101.033L178 102.045Z" fill="white"/>
<path d="M175.9 100.837L174.072 99.7815L175.835 98.7588L177.663 99.8141L175.9 100.837Z" fill="white"/>
<path d="M180.809 107.68L182.985 106.451C183.095 106.397 183.216 106.369 183.338 106.369C183.461 106.369 183.582 106.397 183.692 106.451L189.535 109.824C189.731 109.943 189.731 110.128 189.535 110.237L187.424 111.455L180.809 107.68Z" fill="#706F6F"/>
<path d="M187.184 111.564L186.357 112.043C186.247 112.097 186.126 112.125 186.004 112.125C185.881 112.125 185.76 112.097 185.65 112.043L182.832 110.411L184.007 109.726L187.184 111.564Z" fill="white"/>
<path d="M183.79 109.617L182.604 110.291L179.786 108.67C179.59 108.551 179.59 108.366 179.786 108.257L180.613 107.778L183.79 109.617Z" fill="white"/>
<path d="M192.309 66.0884L192.712 65.947C192.758 65.9355 192.807 65.9344 192.854 65.9438C192.901 65.9532 192.945 65.9729 192.984 66.0014L223.363 83.5498C223.537 83.6586 223.613 83.9306 223.515 84.2787L217.422 107.648C217.334 107.933 217.149 108.178 216.898 108.339C216.647 108.5 216.347 108.568 216.051 108.529L215.866 108.42L220.545 88.6413L191.624 71.9197L191.994 69.8962L186.771 89.936C186.722 90.159 186.617 90.3655 186.464 90.5352C186.311 90.705 186.117 90.8321 185.901 90.9042L185.727 90.5996L192.309 66.0884Z" fill="black"/>
<path d="M192.036 66.3818L185.725 90.5884C185.7 90.69 185.708 90.7972 185.75 90.8935C185.791 90.9898 185.863 91.0699 185.954 91.1215L216.05 108.528C216.078 108.545 216.11 108.554 216.143 108.556C216.176 108.558 216.209 108.552 216.239 108.54C216.269 108.527 216.297 108.508 216.318 108.483C216.34 108.459 216.356 108.43 216.365 108.398L222.741 83.9411C222.773 83.8305 222.767 83.7124 222.724 83.6058C222.68 83.4991 222.602 83.4103 222.502 83.3536L192.678 66.1207C192.62 66.0887 192.555 66.0701 192.489 66.0662C192.423 66.0623 192.356 66.0733 192.295 66.0983C192.233 66.1233 192.178 66.1618 192.133 66.2108C192.089 66.2599 192.055 66.3183 192.036 66.3818Z" fill="#3C3C3B"/>
<path d="M187.074 90.3498L215.505 106.789L215.592 106.495L221.414 84.1594L193.222 67.8621L192.972 67.7207L187.074 90.3498Z" fill="white"/>
<path d="M187.402 90.1967L191.352 92.4704L202.711 99.0416L215.594 106.494L219.892 90.0008L220.675 86.9764L221.415 84.1586L221.034 83.941L209 76.9782L193.223 67.8613L187.402 90.1967Z" fill="#9EDCFF"/>
<path d="M192.156 89.1524L212.144 100.63L216.311 84.681L196.313 73.1924L192.156 89.1524Z" fill="white"/>
<path d="M195.889 74.846L215.876 86.3238L216.312 84.681L196.313 73.1924L195.889 74.846Z" fill="#339AF9"/>
<path d="M195.889 74.846L197.466 75.749L197.902 74.1062L196.313 73.1924L195.889 74.846Z" fill="#EA4A49"/>
<path d="M204.615 89.5988L211.742 93.6895L213.537 86.7702L206.421 82.6904L204.615 89.5988Z" fill="#C0C0C0"/>
<path d="M196.65 77.6854L205.333 82.6791L205.475 82.146L196.792 77.1523L196.65 77.6854Z" fill="#E8E8E8"/>
<path d="M196.324 78.9696L205.007 83.9524L205.138 83.4193L196.455 78.4365L196.324 78.9696Z" fill="#E8E8E8"/>
<path d="M195.986 80.2421L204.669 85.2248L204.811 84.6917L196.128 79.709L195.986 80.2421Z" fill="#E8E8E8"/>
<path d="M195.648 81.5155L204.342 86.5091L204.473 85.976L195.79 80.9824L195.648 81.5155Z" fill="#E8E8E8"/>
<path d="M195.322 82.7987L204.005 87.7815L204.146 87.2484L195.453 82.2656L195.322 82.7987Z" fill="#E8E8E8"/>
<path d="M194.986 84.0721L203.669 89.0549L203.811 88.5218L195.128 83.5391L194.986 84.0721Z" fill="#E8E8E8"/>
<path d="M194.658 85.3445L211.404 94.9727L211.545 94.4396L194.789 84.8223L194.658 85.3445Z" fill="#E8E8E8"/>
<path d="M194.322 86.6288L211.078 96.2462L211.209 95.7131L194.464 86.0957L194.322 86.6288Z" fill="#E8E8E8"/>
<path d="M193.984 87.9013L210.741 97.5186L210.882 96.9855L194.126 87.3682L193.984 87.9013Z" fill="#E8E8E8"/>
<path d="M194.007 132.724L199.328 135.792C199.4 135.829 199.48 135.849 199.561 135.849C199.643 135.849 199.723 135.829 199.795 135.792L209.98 129.917C210.045 129.917 210.078 129.83 210.078 129.776C210.074 129.747 210.063 129.72 210.046 129.697C210.029 129.674 210.006 129.657 209.98 129.645L204.659 126.566C204.587 126.529 204.507 126.51 204.425 126.51C204.344 126.51 204.264 126.529 204.191 126.566L194.007 132.452C193.977 132.461 193.951 132.478 193.933 132.503C193.914 132.527 193.904 132.557 193.904 132.588C193.904 132.619 193.914 132.649 193.933 132.673C193.951 132.698 193.977 132.716 194.007 132.724Z" fill="#4A4A49"/>
<path d="M210.077 129.254V129.776L193.908 132.594V132.072L210.077 129.254Z" fill="#4A4A49"/>
<path d="M194.007 132.192L199.328 135.271C199.4 135.308 199.48 135.327 199.561 135.327C199.643 135.327 199.723 135.308 199.795 135.271L209.98 129.385C210.009 129.376 210.035 129.359 210.054 129.334C210.072 129.31 210.082 129.28 210.082 129.249C210.082 129.218 210.072 129.188 210.054 129.164C210.035 129.139 210.009 129.121 209.98 129.113L204.659 126.045C204.587 126.008 204.507 125.988 204.425 125.988C204.344 125.988 204.264 126.008 204.191 126.045L194.007 131.92C193.977 131.928 193.951 131.946 193.933 131.971C193.914 131.995 193.904 132.025 193.904 132.056C193.904 132.087 193.914 132.116 193.933 132.141C193.951 132.165 193.977 132.183 194.007 132.192Z" fill="#1B3555"/>
<path d="M199.893 134.868L209.065 129.581L206.704 128.221L205.921 127.764L204.713 127.068L204.278 126.817L203.853 126.578L194.67 131.866L199.893 134.868Z" fill="#55B2E6"/>
<path d="M205.964 127.578L207.28 128.34C207.308 128.356 207.34 128.365 207.373 128.365C207.405 128.365 207.437 128.356 207.465 128.34L207.813 128.144C207.813 128.144 207.813 128.068 207.813 128.035L206.497 127.274C206.467 127.258 206.433 127.249 206.399 127.249C206.365 127.249 206.331 127.258 206.301 127.274L205.964 127.47C205.964 127.47 205.909 127.578 205.964 127.578Z" fill="white"/>
<path d="M207.324 128.329C207.338 128.341 207.355 128.347 207.373 128.347C207.391 128.347 207.409 128.341 207.422 128.329L207.76 128.133C207.76 128.079 206.454 127.328 206.454 127.328C206.44 127.317 206.423 127.311 206.405 127.311C206.387 127.311 206.37 127.317 206.356 127.328L206.008 127.524C206.008 127.579 207.324 128.329 207.324 128.329Z" fill="#4A4A49"/>
<path d="M197.162 133.79C197.162 133.856 197.217 133.856 197.238 133.79L197.554 133.616C197.554 133.551 197.554 133.551 197.478 133.616L197.162 133.79Z" fill="#3288B9"/>
<path d="M196.988 133.693C196.988 133.758 196.988 133.758 197.064 133.693L197.38 133.519C197.38 133.453 197.38 133.454 197.304 133.464L196.988 133.693Z" fill="#3288B9"/>
<path d="M196.846 133.595C196.846 133.66 196.911 133.66 196.933 133.595L197.248 133.421C197.248 133.356 197.183 133.356 197.161 133.367L196.846 133.595Z" fill="#3288B9"/>
<path d="M196.65 133.497C196.65 133.552 196.65 133.552 196.727 133.497L197.042 133.312C197.042 133.258 197.042 133.258 196.966 133.312L196.65 133.497Z" fill="#3288B9"/>
<path d="M196.477 133.4C196.477 133.4 196.531 133.4 196.553 133.4L196.868 133.215C196.868 133.16 196.868 133.16 196.792 133.215L196.477 133.4Z" fill="#3288B9"/>
<path opacity="0.5" d="M197.162 133.79C197.162 133.856 197.217 133.856 197.238 133.79L197.554 133.616C197.554 133.551 197.554 133.551 197.478 133.616L197.162 133.79Z" fill="black"/>
<path opacity="0.5" d="M196.988 133.693C196.988 133.758 196.988 133.758 197.064 133.693L197.38 133.519C197.38 133.453 197.38 133.454 197.304 133.464L196.988 133.693Z" fill="black"/>
<path opacity="0.5" d="M196.846 133.595C196.846 133.66 196.911 133.66 196.933 133.595L197.248 133.421C197.248 133.356 197.183 133.356 197.161 133.367L196.846 133.595Z" fill="black"/>
<path opacity="0.5" d="M196.65 133.497C196.65 133.552 196.65 133.552 196.727 133.497L197.042 133.312C197.042 133.258 197.042 133.258 196.966 133.312L196.65 133.497Z" fill="black"/>
<path opacity="0.5" d="M196.477 133.4C196.477 133.4 196.531 133.4 196.553 133.4L196.868 133.215C196.868 133.16 196.868 133.16 196.792 133.215L196.477 133.4Z" fill="black"/>
<path opacity="0.5" d="M198.838 134.585C198.826 134.591 198.816 134.599 198.809 134.61C198.802 134.62 198.799 134.633 198.799 134.645C198.799 134.658 198.802 134.67 198.809 134.681C198.816 134.692 198.826 134.7 198.838 134.705C198.872 134.721 198.909 134.73 198.947 134.73C198.984 134.73 199.022 134.721 199.056 134.705C199.067 134.7 199.077 134.692 199.084 134.681C199.091 134.67 199.095 134.658 199.095 134.645C199.095 134.633 199.091 134.62 199.084 134.61C199.077 134.599 199.067 134.591 199.056 134.585C199.022 134.569 198.984 134.561 198.947 134.561C198.909 134.561 198.872 134.569 198.838 134.585Z" fill="white"/>
<path opacity="0.5" d="M198.065 134.106C198.053 134.111 198.043 134.119 198.036 134.13C198.029 134.141 198.025 134.153 198.025 134.166C198.025 134.178 198.029 134.191 198.036 134.202C198.043 134.212 198.053 134.221 198.065 134.226C198.099 134.242 198.136 134.251 198.173 134.251C198.211 134.251 198.248 134.242 198.282 134.226C198.294 134.221 198.304 134.212 198.311 134.202C198.318 134.191 198.321 134.178 198.321 134.166C198.321 134.153 198.318 134.141 198.311 134.13C198.304 134.119 198.294 134.111 198.282 134.106C198.248 134.09 198.211 134.081 198.173 134.081C198.136 134.081 198.099 134.09 198.065 134.106Z" fill="black"/>
<g style="mix-blend-mode:multiply" opacity="0.5">
<path d="M232.154 117.461C236.278 119.506 236.278 122.824 232.154 124.87C229.789 125.882 227.242 126.404 224.669 126.404C222.095 126.404 219.549 125.882 217.183 124.87C213.059 122.824 213.059 119.506 217.183 117.461C219.549 116.449 222.095 115.927 224.669 115.927C227.242 115.927 229.789 116.449 232.154 117.461Z" fill="#B3D4E7"/>
</g>
<path d="M244.852 120.855H224.799V122.912H244.852V120.855Z" fill="#00A66B"/>
<path d="M241.913 118.875C245.83 121.138 245.83 124.804 241.913 127.056C239.721 128.167 237.298 128.746 234.84 128.746C232.383 128.746 229.96 128.167 227.768 127.056C223.851 124.804 223.851 121.138 227.768 118.875C229.96 117.764 232.383 117.186 234.84 117.186C237.298 117.186 239.721 117.764 241.913 118.875Z" fill="#00A66B"/>
<path d="M227.736 125.337C228.161 125.598 228.605 125.827 229.063 126.023C231.124 126.859 233.344 127.231 235.565 127.112C237.786 126.994 239.953 126.388 241.913 125.337C245.83 122.944 245.83 119.082 241.913 116.699C239.74 115.527 237.31 114.913 234.841 114.913C232.372 114.913 229.941 115.527 227.768 116.699C227.121 117.077 226.538 117.554 226.038 118.113C223.949 120.42 224.526 123.379 227.736 125.337Z" fill="#0ED28C"/>
<path d="M230.097 121.345C230.609 121.639 230.609 122.106 230.097 122.433C229.813 122.578 229.498 122.654 229.178 122.654C228.858 122.654 228.543 122.578 228.259 122.433C227.747 122.128 227.747 121.66 228.259 121.345C228.543 121.2 228.858 121.124 229.178 121.124C229.498 121.124 229.813 121.2 230.097 121.345Z" fill="#EDEDED"/>
<path d="M229.825 121.41C229.902 121.437 229.968 121.487 230.015 121.553C230.062 121.62 230.088 121.699 230.088 121.78C230.088 121.862 230.062 121.941 230.015 122.007C229.968 122.073 229.902 122.123 229.825 122.15C229.626 122.252 229.406 122.305 229.183 122.305C228.959 122.305 228.739 122.252 228.541 122.15C228.182 121.943 228.182 121.617 228.541 121.41C228.739 121.308 228.959 121.255 229.183 121.255C229.406 121.255 229.626 121.308 229.825 121.41Z" fill="#8F2D2D"/>
<path d="M229.89 120.855H228.475L228.279 121.78H230.085L229.89 120.855Z" fill="#8F2D2D"/>
<path d="M229.673 120.562C229.956 120.725 229.956 120.986 229.673 121.138C229.52 121.216 229.35 121.257 229.178 121.257C229.006 121.257 228.836 121.216 228.683 121.138C228.4 120.986 228.4 120.725 228.683 120.562C228.836 120.483 229.006 120.442 229.178 120.442C229.35 120.442 229.52 120.483 229.673 120.562Z" fill="#8F2D2D"/>
<path d="M217.798 88.9293L216.375 91.4492L229.071 98.6169L230.494 96.0969L217.798 88.9293Z" fill="#00A66B"/>
<path d="M238.27 117.123C238.27 117.809 236.801 117.733 236.833 117.123V93.8524C236.833 92.787 236.552 91.7405 236.019 90.818C235.486 89.8955 234.719 89.1295 233.796 88.597C232.873 88.0645 231.827 87.7843 230.761 87.7844C229.696 87.7845 228.649 88.065 227.726 88.5977L226.954 89.0546L226.225 87.8035L227.008 87.3466C228.151 86.6866 229.448 86.3397 230.769 86.3408C232.089 86.342 233.385 86.6912 234.527 87.3532C235.669 88.0152 236.617 88.9666 237.274 90.1115C237.931 91.2564 238.274 92.5542 238.27 93.8742V117.123Z" fill="#1B3555"/>
<path d="M228.715 94.854C230.391 97.6935 229.075 100.011 225.789 100.043C223.999 99.9635 222.254 99.4628 220.694 98.582C219.134 97.7011 217.804 96.4648 216.812 94.9736C215.136 92.145 216.442 89.8168 219.739 89.7842C221.528 89.8649 223.273 90.366 224.833 91.2468C226.393 92.1276 227.723 93.3634 228.715 94.854Z" fill="#00A66B"/>
<path d="M230.696 93.9072L229.836 89.0441L224.135 85.7803L219.663 87.521L219.293 87.6406H219.206C217.378 88.3913 216.866 90.2843 218.172 92.482C219.164 93.9732 220.494 95.2094 222.054 96.0903C223.614 96.9712 225.359 97.4719 227.149 97.5517C229.847 97.6061 231.207 96.0286 230.696 93.9072Z" fill="#0ED28C"/>
<path d="M226.223 81.7764L223.71 86.2369C223.586 86.5123 223.538 86.8158 223.57 87.1161C223.603 87.4163 223.715 87.7025 223.895 87.945C224.36 88.6419 224.982 89.2197 225.712 89.6317C226.442 90.0437 227.258 90.2784 228.095 90.3167C228.395 90.3446 228.696 90.2929 228.969 90.1669C229.243 90.0408 229.478 89.8447 229.651 89.5986L232.208 85.149L226.223 81.7764Z" fill="#00A66B"/>
<path d="M232.11 83.2565C232.893 84.5837 232.284 85.6717 230.739 85.6826C229.901 85.6468 229.084 85.4133 228.354 85.0011C227.624 84.5889 227.002 84.0096 226.539 83.3109C225.755 81.9836 226.365 80.9065 227.91 80.8848C228.746 80.9256 229.562 81.1613 230.291 81.5731C231.02 81.9849 231.643 82.5613 232.11 83.2565Z" fill="#0ED28C"/>
<path d="M230.641 82.7993C230.935 83.2998 230.706 83.7023 230.13 83.7132C229.816 83.6957 229.51 83.6061 229.237 83.4514C228.963 83.2967 228.729 83.081 228.552 82.8211C228.258 82.3206 228.487 81.9072 229.063 81.9072C229.378 81.9196 229.686 82.007 229.96 82.1622C230.235 82.3174 230.468 82.5358 230.641 82.7993Z" fill="#0ED28C"/>
<path d="M144.021 60.5078C146.763 65.8822 146.524 76.6201 146.045 87.8041C146.219 94.582 143.542 100.859 139.647 109.65L137.003 122.357C135.405 118.428 134.663 114.204 134.827 109.965C136.024 101.055 136.84 94.9301 137.917 86.8794L135.676 71.2566C133.206 64.5549 138.559 55.2639 144.021 60.5078Z" fill="#FFAA6D"/>
<path d="M128.907 179.212V184.206L120.463 193.073C119.06 194.835 116.111 196.608 117.624 199.709C118.302 200.197 119.071 200.544 119.886 200.731C120.701 200.917 121.544 200.94 122.367 200.797C123.617 200.71 124.837 200.377 125.958 199.817C127.078 199.257 128.077 198.481 128.896 197.533L138.09 186.328L134.989 177.624L128.907 179.212Z" fill="#1B3555"/>
<path d="M120.932 154.331L128.549 183.945C129.03 185.103 129.943 186.027 131.095 186.523C132.247 187.019 133.546 187.046 134.718 186.599C135.408 186.28 136.001 185.785 136.441 185.165C136.88 184.544 137.149 183.82 137.221 183.063C135.044 169.888 137.221 157.486 132.705 150.893C135.795 145.149 140.137 138.034 144.674 130.092C145.882 127.916 147.1 125.74 148.308 123.51L147.22 119.778L140.92 98.5742C131.019 111.303 124.762 126.741 120.856 147.281C120.362 149.608 120.388 152.015 120.932 154.331Z" fill="#1267B6"/>
<g style="mix-blend-mode:multiply" opacity="0.5">
<path d="M129.082 149.751C133.315 158.149 134.381 171.781 134.74 186.599C135.426 186.277 136.015 185.781 136.45 185.161C136.885 184.54 137.151 183.817 137.221 183.063C135.045 169.888 137.221 157.486 132.705 150.893C135.795 145.149 140.137 138.034 144.674 130.092L152.367 123.423L147.198 119.778L140.888 115.317C140.626 127.024 136.426 138.458 129.082 149.751Z" fill="#308DC2"/>
</g>
<path d="M136.185 198.294L134.357 203.592C135.184 204.202 135.358 206.095 135.271 208.499C133.911 211.523 133.694 211.545 130.919 212.851C128.221 216.473 123.422 220.238 120.136 220.814C118.123 221.293 115.958 220.956 114.903 219.726C114.239 217.137 115.741 214.689 121.105 209.848L126.273 202.287L129.385 195.574L136.185 198.294Z" fill="#1B3555"/>
<path d="M126.242 202.288C127.796 203.441 129.564 204.274 131.443 204.736C133.456 205.073 135.164 204.333 136.372 201.733C142.193 184.326 151.289 173.621 149.494 160.957L165.902 127.492C173.094 113.023 169.895 109.149 166.99 105.363C165.876 104.093 165.026 102.614 164.488 101.012C156.458 104.058 145.827 108.062 138.124 102.252C138.429 122.357 144.533 120.747 145.958 122.357C144.718 125.262 139.158 141.831 137.993 163.155C134.99 175.84 131.563 189.396 126.242 202.288Z" fill="#1267B6"/>
<g style="mix-blend-mode:multiply" opacity="0.5">
<path d="M131.441 204.735C133.454 205.073 135.163 204.333 136.37 201.733C142.191 184.326 151.288 173.62 149.492 160.957L165.9 127.492C173.093 113.022 169.894 109.149 166.988 105.363L153.54 112.555C162.963 120.496 154.628 139.263 145.924 158.248C147.664 170.183 139.874 187.285 131.441 204.735Z" fill="#308DC2"/>
</g>
<path d="M149.657 46.6141C143.738 47.4518 142.585 54.5996 140.376 58.8099C131.682 52.2387 137.863 39.1618 149.657 46.6141Z" fill="black"/>
<path d="M152.366 51.9127C160.635 51.2382 164.106 56.9716 164.802 62.1828C165.727 69.1456 164.215 71.9743 161.821 75.6188C160.145 78.2081 155.293 82.4293 155.293 82.4293C152.409 68.9389 159.014 60.9535 156.555 56.9499C155.473 55.5214 154.004 54.4338 152.322 53.8166L152.366 51.9127Z" fill="black"/>
<path d="M139.32 92.7643C140.07 98.0843 138.025 100.271 136.197 105.112C136.741 108.474 140.255 113.892 144.695 114.708C154.259 116.503 165.368 113.696 169.23 108.692C166.978 103.85 162.702 100.478 164.878 95.4624C166.54 92.6654 167.721 89.6094 168.371 86.4216C169.2 82.1993 169.427 77.8809 169.046 73.5949C164.454 68.9385 159.677 65.0654 154.28 63.8796L142.312 59.332C138.732 59.8434 135.87 66.2731 136.871 71.0926C136.393 78.545 132.737 81.6674 132.628 86.3237C132.497 90.0554 134.978 92.4706 139.32 92.7643Z" fill="#FF7A00"/>
<g style="mix-blend-mode:multiply" opacity="0.5">
<path d="M136.197 105.157C136.741 108.518 140.256 113.936 144.695 114.752C154.259 116.547 165.368 113.74 169.231 108.736C167.196 104.199 162.703 100.522 164.879 95.5067C166.54 92.7097 167.721 89.6536 168.371 86.4659L162.79 86.3027C159.384 93.6463 157.893 100.892 150.69 99.5647C145.674 98.6182 144.108 94.4623 145.25 89.3816C143.814 91.1767 141.028 92.9283 139.255 92.8086C140.071 98.1286 138.025 100.315 136.197 105.157Z" fill="#EA4A49"/>
</g>
<path d="M159.722 66.0554C158.248 63.4554 157.409 60.5441 157.273 57.5586L147.742 58.3201L147.851 65.1306C144.293 74.9765 158.764 72.3763 159.722 66.0554Z" fill="#FFAA6D"/>
<g style="mix-blend-mode:multiply" opacity="0.5">
<path d="M153.714 59.7236C153.04 65.3374 151.038 73.758 145.978 71.1034C143.029 69.5586 144.085 64.8478 144.705 60.8007L153.714 59.7236Z" fill="#FFAA6D"/>
</g>
<path d="M157.468 59.3108C162.8 50.3462 160.069 42.5457 152.79 40.8159C144.825 38.9555 139.472 44.6998 139.472 51.6952C139.232 59.0606 141.104 64.2827 143.889 64.7505C148.492 65.4903 151.843 63.445 153.181 60.3987L157.468 59.3108Z" fill="#FFAA6D"/>
<path d="M158.676 60.5292L158.893 64.4458C157.414 60.2137 155.216 60.094 155.031 58.8429L154.694 56.5256L152.583 57.4177C148.296 57.6461 147.523 50.1067 139.526 51.075C138.83 43.8946 144.183 39.9345 150.766 39.9998C158.741 40.6635 161.287 45.3198 161.004 51.0315C160.776 54.589 160.319 57.7332 158.676 60.5292Z" fill="black"/>
<path d="M152.519 59.8436C152.116 58.7557 152.008 58.8645 152.182 58.3532C152.671 56.928 153.553 55.84 154.434 56.0685C155 56.2208 155.653 56.3514 155.914 56.8844C156.011 57.2193 156.04 57.5705 155.997 57.9167C155.954 58.2628 155.84 58.5965 155.663 58.8971C155.493 59.3713 155.243 59.8129 154.923 60.2027C154.763 60.3941 154.558 60.543 154.327 60.636C154.095 60.7291 153.844 60.7633 153.596 60.7357C153.355 60.6912 153.13 60.5858 152.942 60.4297C152.753 60.2735 152.608 60.0718 152.519 59.8436Z" fill="#FFAA6D"/>
<path d="M142.257 78.4913C143.856 79.4052 143.856 80.9065 142.257 81.8313C141.358 82.2871 140.365 82.5247 139.357 82.5247C138.349 82.5247 137.356 82.2871 136.457 81.8313C134.858 80.9065 134.858 79.4052 136.457 78.4913C137.356 78.0354 138.349 77.7979 139.357 77.7979C140.365 77.7979 141.358 78.0354 142.257 78.4913Z" fill="white"/>
<path d="M143.455 73.3672H135.262V80.1559H143.455V73.3672Z" fill="white"/>
<path d="M142.257 71.6915C143.856 72.6163 143.856 74.1176 142.257 75.0424C141.358 75.4982 140.365 75.7358 139.357 75.7358C138.349 75.7358 137.356 75.4982 136.457 75.0424C134.858 74.1176 134.858 72.6163 136.457 71.6915C137.356 71.2356 138.349 70.998 139.357 70.998C140.365 70.998 141.358 71.2356 142.257 71.6915Z" fill="white"/>
<path d="M142.257 75.0418C141.355 75.4886 140.363 75.721 139.357 75.721C138.351 75.721 137.359 75.4886 136.457 75.0418C134.858 74.1171 134.858 72.6157 136.457 71.691C137.359 71.2442 138.351 71.0117 139.357 71.0117C140.363 71.0117 141.355 71.2442 142.257 71.691C143.856 72.6157 143.856 74.1171 142.257 75.0418Z" fill="#963035"/>
<path d="M142.258 75.0424C141.357 75.4892 140.365 75.7216 139.359 75.7216C138.353 75.7216 137.36 75.4892 136.459 75.0424C136.573 74.9539 136.693 74.8739 136.818 74.8031C137.605 74.401 138.475 74.1914 139.359 74.1914C140.242 74.1914 141.113 74.401 141.899 74.8031C142.025 74.8739 142.145 74.9539 142.258 75.0424Z" fill="black"/>
<path d="M136.458 75.0418C137.36 75.4886 138.352 75.721 139.358 75.721C140.364 75.721 141.357 75.4886 142.258 75.0418C143.857 74.1171 143.857 72.6157 142.258 71.691C141.357 71.2442 140.364 71.0117 139.358 71.0117C138.352 71.0117 137.36 71.2442 136.458 71.691C134.826 72.6157 134.826 74.1171 136.458 75.0418ZM135.653 73.3664C135.689 73.0756 135.801 72.7993 135.976 72.5646C136.152 72.33 136.386 72.1451 136.654 72.0282C137.499 71.6076 138.43 71.3887 139.374 71.3887C140.318 71.3887 141.25 71.6076 142.095 72.0282C142.385 72.1118 142.64 72.2876 142.822 72.529C143.004 72.7704 143.102 73.0643 143.102 73.3664C143.102 73.6685 143.004 73.9624 142.822 74.2038C142.64 74.4452 142.385 74.6209 142.095 74.7045C141.25 75.1252 140.318 75.3441 139.374 75.3441C138.43 75.3441 137.499 75.1252 136.654 74.7045C136.386 74.5877 136.152 74.4028 135.976 74.1682C135.801 73.9335 135.689 73.6572 135.653 73.3664Z" fill="#EA4A49"/>
<path d="M151.147 82.0488L150.516 80.9609L148.416 77.4795C147.426 76.2719 146.686 76.1848 143.933 74.9337C143.773 74.8987 143.607 74.9144 143.456 74.9788C143.306 75.0432 143.18 75.153 143.095 75.2927L142.159 74.7705H141.147C140.965 74.7839 140.791 74.8501 140.647 74.9611C140.502 75.0721 140.393 75.2231 140.332 75.3953C140.272 75.5676 140.264 75.7537 140.308 75.9307C140.352 76.1077 140.447 76.2679 140.582 76.3915L140.473 76.6309C139.504 77.1531 139.385 78.1866 140.157 78.6436L140.386 79.0026H139.951C139.243 79.1767 139.287 80.2537 139.755 80.6671L140.233 81.1458C140.086 81.1401 139.94 81.1808 139.816 81.2622C139.693 81.3436 139.598 81.4616 139.545 81.5997C139.493 81.7378 139.484 81.889 139.522 82.032C139.559 82.175 139.641 82.3026 139.755 82.3969L141.343 83.7895L144.205 84.9536C144.939 85.253 145.733 85.3724 146.522 85.3017L147.513 85.2038L149.101 87.3797L152.616 84.2247L151.147 82.0488Z" fill="#FFAA6D"/>
<path d="M143.105 78.0879L142.942 77.3264L140.527 76.3799L140.418 76.6192L143.105 78.0879Z" fill="#FFAA6D"/>
<path d="M142.344 79.5464V80.1448L140.418 79.0351L140.168 78.7305L142.344 79.5464Z" fill="#FFAA6D"/>
<path d="M141.758 81.6896L141.682 82.0486L140.191 81.1782L139.908 80.9062L141.758 81.6896Z" fill="#FFAA6D"/>
<path d="M146.207 76.6519C145.9 76.6628 145.594 76.6991 145.293 76.7607L143.041 75.292L146.207 76.5757V76.6519Z" fill="#FFAA6D"/>
<path d="M169.046 73.6388C172.103 77.7947 171.875 80.5254 170.134 87.7819C169.714 93.1819 168.462 98.4846 166.423 103.503C164.595 106.266 162.713 107.028 160.82 106.919C154.618 102.567 150.364 94.1355 147.426 85.2253C149.112 84.4529 150.527 84.0394 150.864 81.7004L158.959 89.9904L159.851 81.8853C161.005 74.7593 164.095 72.3876 169.046 73.6388Z" fill="#FFAA6D"/>
</g>
<defs>
<clipPath id="clip0_1022_34002">
<rect width="160" height="181" fill="white" transform="translate(92 40)"/>
</clipPath>
</defs>
</svg>
