<svg width="320" height="150" viewBox="0 0 320 150" fill="none" xmlns="http://www.w3.org/2000/svg">
<path d="M125 33H61V149H125V33Z" fill="#2C99FF"/>
<path d="M214 81H150V149H214V81Z" fill="#DDDDDD"/>
<path d="M303 105H239V149H303V105Z" fill="#DDDDDD"/>
<path d="M77.4862 116H79.5582V107.362H82.4982V105.626H74.5742V107.362H77.4862V116ZM83.3266 116H85.3846V110.61C85.9306 110.022 86.4346 109.728 86.8826 109.728C87.6246 109.728 87.9886 110.148 87.9886 111.366V116H90.0326V110.61C90.5926 110.022 91.0966 109.728 91.5446 109.728C92.2866 109.728 92.6366 110.148 92.6366 111.366V116H94.6946V111.114C94.6946 109.14 93.9246 107.964 92.2586 107.964C91.2366 107.964 90.4806 108.58 89.7666 109.336C89.3886 108.468 88.7306 107.964 87.6106 107.964C86.5886 107.964 85.8606 108.524 85.2026 109.21H85.1606L85.0066 108.16H83.3266V116ZM98.7528 116.196C99.6488 116.196 100.433 115.748 101.119 115.16H101.175L101.315 116H102.995V111.422C102.995 109.154 101.973 107.964 99.9848 107.964C98.7528 107.964 97.6328 108.426 96.7088 109L97.4508 110.358C98.1788 109.938 98.8788 109.616 99.6068 109.616C100.573 109.616 100.909 110.204 100.951 110.974C97.7868 111.31 96.4288 112.192 96.4288 113.872C96.4288 115.202 97.3528 116.196 98.7528 116.196ZM99.4248 114.586C98.8228 114.586 98.3888 114.32 98.3888 113.704C98.3888 113.004 99.0328 112.472 100.951 112.234V113.816C100.447 114.306 100.013 114.586 99.4248 114.586ZM104.21 116H106.338L107.066 114.558C107.29 114.096 107.5 113.634 107.724 113.186H107.794C108.046 113.634 108.298 114.11 108.55 114.558L109.418 116H111.63L109.18 112.15L111.476 108.16H109.348L108.69 109.546C108.508 109.994 108.298 110.442 108.116 110.876H108.06C107.822 110.442 107.584 109.994 107.36 109.546L106.576 108.16H104.364L106.66 111.912L104.21 116ZM92.386 130.54H90.692C91.014 128.734 91.014 127.418 91.014 126.214V125.052H82.068V126.536H89.208C89.208 127.642 89.18 128.902 88.858 130.54H80.738V132.024H85.554V137.204H87.43V132.024H92.386V130.54ZM102.031 126.69H95.0589V130.134H104.103V128.734H96.8789V127.992H103.851V124.562H95.0309V125.962H102.031V126.69ZM96.8929 134.502H102.115V135.608H96.8929V134.502ZM95.0729 137.05H103.921V133.046H95.0729V137.05ZM93.6029 130.82V132.276H105.279V130.82H93.6029Z" fill="white"/>
<path d="M165.74 130.064H170.164V129.14H165.74V126.55H170.444V125.612H164.592V134.012H165.572C167.938 134.012 169.562 133.928 171.494 133.592L171.382 132.668C169.534 132.976 167.966 133.074 165.74 133.074V130.064ZM175.778 129.518H173.706V124.478H172.558V137.022H173.706V130.484H175.778V129.518ZM181.139 125.57H180.005V127.824C180.005 130.106 178.577 132.514 176.771 133.438L177.457 134.362C178.871 133.606 180.033 132.038 180.579 130.204C181.153 131.926 182.287 133.396 183.617 134.11L184.331 133.2C182.567 132.318 181.139 130.036 181.139 127.824V125.57ZM188.657 129.574H186.585V124.492H185.437V137.036H186.585V130.526H188.657V129.574ZM195.37 130.26C195.734 129.098 196.07 127.992 196.392 126.788H196.448C196.784 127.978 197.106 129.098 197.484 130.26L197.974 131.828H194.866L195.37 130.26ZM192.234 136H193.55L194.544 132.864H198.296L199.276 136H200.648L197.162 125.724H195.72L192.234 136Z" fill="#ABABAB"/>
<path d="M254.89 130.064H259.314V129.14H254.89V126.55H259.594V125.612H253.742V134.012H254.722C257.088 134.012 258.712 133.928 260.644 133.592L260.532 132.668C258.684 132.976 257.116 133.074 254.89 133.074V130.064ZM264.928 129.518H262.856V124.478H261.708V137.022H262.856V130.484H264.928V129.518ZM270.289 125.57H269.155V127.824C269.155 130.106 267.727 132.514 265.921 133.438L266.607 134.362C268.021 133.606 269.183 132.038 269.729 130.204C270.303 131.926 271.437 133.396 272.767 134.11L273.481 133.2C271.717 132.318 270.289 130.036 270.289 127.824V125.57ZM277.807 129.574H275.735V124.492H274.587V137.036H275.735V130.526H277.807V129.574ZM282.743 136H286.019C288.315 136 289.911 135.006 289.911 132.99C289.911 131.59 289.043 130.778 287.825 130.54V130.47C288.777 130.162 289.323 129.266 289.323 128.244C289.323 126.438 287.881 125.724 285.795 125.724H282.743V136ZM284.045 130.106V126.76H285.627C287.223 126.76 288.049 127.208 288.049 128.412C288.049 129.448 287.335 130.106 285.571 130.106H284.045ZM284.045 134.964V131.086H285.837C287.629 131.086 288.637 131.674 288.637 132.948C288.637 134.334 287.601 134.964 285.837 134.964H284.045Z" fill="#ABABAB"/>
<path d="M320 149H43V150H320V149Z" fill="#DDDDDD"/>
<circle cx="93" cy="33" r="9" fill="white"/>
<circle cx="93" cy="33" r="6" fill="#2C99FF"/>
<circle cx="93" cy="33" r="3" fill="white"/>
<path d="M150.403 69.9998H152.055C152.223 66.0938 152.657 63.9098 155.023 60.9558V59.9758H148.387V61.3338H153.231C151.285 64.0498 150.585 66.3598 150.403 69.9998ZM161.048 66.0378C161.748 66.0378 162.49 65.6038 163.134 64.5678L162.252 63.9098C161.902 64.5678 161.524 64.8618 161.076 64.8618C160.194 64.8618 159.564 63.5738 158.304 63.5738C157.59 63.5738 156.848 63.9938 156.218 65.0578L157.086 65.6878C157.436 65.0438 157.828 64.7498 158.276 64.7498C159.158 64.7498 159.788 66.0378 161.048 66.0378ZM167.674 70.1818C169.662 70.1818 171.006 69.0058 171.006 67.4798C171.006 66.1358 170.18 65.4218 169.27 64.8898V64.8198C169.9 64.3578 170.628 63.5038 170.628 62.4678C170.628 60.8858 169.508 59.7798 167.716 59.7798C166.036 59.7798 164.776 60.8158 164.776 62.4118C164.776 63.4618 165.392 64.2038 166.162 64.7498V64.8058C165.21 65.3098 164.314 66.1638 164.314 67.4378C164.314 69.0338 165.742 70.1818 167.674 70.1818ZM168.346 64.4138C167.198 63.9658 166.218 63.4898 166.218 62.4118C166.218 61.5018 166.848 60.9418 167.688 60.9418C168.696 60.9418 169.27 61.6418 169.27 62.5658C169.27 63.2378 168.948 63.8538 168.346 64.4138ZM167.702 69.0198C166.596 69.0198 165.742 68.3058 165.742 67.2838C165.742 66.4438 166.246 65.7578 166.946 65.2678C168.346 65.8418 169.48 66.2478 169.48 67.4378C169.48 68.4038 168.766 69.0198 167.702 69.0198ZM176.017 69.9998H177.627V64.5398C178.257 63.8398 178.831 63.4898 179.349 63.4898C180.231 63.4898 180.637 64.0218 180.637 65.3518V69.9998H182.247V64.5398C182.891 63.8398 183.451 63.4898 183.983 63.4898C184.851 63.4898 185.271 64.0218 185.271 65.3518V69.9998H186.881V65.1558C186.881 63.1958 186.125 62.1038 184.515 62.1038C183.549 62.1038 182.765 62.7058 182.009 63.5178C181.673 62.6358 181.029 62.1038 179.881 62.1038C178.929 62.1038 178.159 62.6778 177.501 63.3778H177.459L177.333 62.2998H176.017V69.9998ZM192.794 70.1818C194.53 70.1818 196.112 68.6698 196.112 66.0238C196.112 63.6578 195.006 62.1038 193.06 62.1038C192.248 62.1038 191.422 62.5378 190.764 63.1118L190.82 61.7958V58.8418H189.21V69.9998H190.47L190.624 69.2018H190.666C191.324 69.8178 192.094 70.1818 192.794 70.1818ZM192.486 68.8518C192.01 68.8518 191.408 68.6698 190.82 68.1518V64.3858C191.45 63.7558 192.038 63.4478 192.64 63.4478C193.928 63.4478 194.446 64.4418 194.446 66.0518C194.446 67.8578 193.606 68.8518 192.486 68.8518ZM198.015 73.1218H199.625V70.6298L199.569 69.3138C200.227 69.8738 200.913 70.1818 201.599 70.1818C203.335 70.1818 204.917 68.6698 204.917 66.0238C204.917 63.6578 203.825 62.1038 201.879 62.1038C201.011 62.1038 200.171 62.5798 199.499 63.1398H199.457L199.331 62.2998H198.015V73.1218ZM201.291 68.8518C200.815 68.8518 200.227 68.6698 199.625 68.1518V64.3858C200.269 63.7558 200.843 63.4478 201.445 63.4478C202.733 63.4478 203.251 64.4418 203.251 66.0518C203.251 67.8578 202.411 68.8518 201.291 68.8518ZM208.878 70.1818C210.782 70.1818 211.804 69.1318 211.804 67.8438C211.804 66.3878 210.614 65.9118 209.536 65.5058C208.696 65.1978 207.94 64.9458 207.94 64.2878C207.94 63.7558 208.332 63.3358 209.186 63.3358C209.816 63.3358 210.362 63.6158 210.894 64.0078L211.65 63.0138C211.034 62.5238 210.18 62.1038 209.158 62.1038C207.45 62.1038 206.414 63.0698 206.414 64.3578C206.414 65.6598 207.548 66.2058 208.584 66.5978C209.41 66.9198 210.278 67.2278 210.278 67.9278C210.278 68.5158 209.844 68.9638 208.92 68.9638C208.094 68.9638 207.422 68.6138 206.736 68.0818L205.98 69.1178C206.736 69.7338 207.814 70.1818 208.878 70.1818Z" fill="#B0B0B0"/>
<path d="M231.332 92.9998H237.982V91.6278H235.364C234.86 91.6278 234.202 91.6698 233.684 91.7258C235.826 89.4858 237.492 87.6378 237.492 85.8038C237.492 83.9838 236.274 82.7798 234.384 82.7798C233.04 82.7798 232.13 83.3678 231.248 84.3198L232.158 85.2158C232.704 84.5858 233.376 84.0678 234.188 84.0678C235.35 84.0678 235.938 84.7958 235.938 85.8878C235.938 87.4558 234.202 89.2478 231.332 92.0618V92.9998ZM242.704 93.1818C244.692 93.1818 246.036 92.0058 246.036 90.4798C246.036 89.1358 245.21 88.4218 244.3 87.8898V87.8198C244.93 87.3578 245.658 86.5038 245.658 85.4678C245.658 83.8858 244.538 82.7798 242.746 82.7798C241.066 82.7798 239.806 83.8158 239.806 85.4118C239.806 86.4618 240.422 87.2038 241.192 87.7498V87.8058C240.24 88.3098 239.344 89.1638 239.344 90.4378C239.344 92.0338 240.772 93.1818 242.704 93.1818ZM243.376 87.4138C242.228 86.9658 241.248 86.4898 241.248 85.4118C241.248 84.5018 241.878 83.9418 242.718 83.9418C243.726 83.9418 244.3 84.6418 244.3 85.5658C244.3 86.2378 243.978 86.8538 243.376 87.4138ZM242.732 92.0198C241.626 92.0198 240.772 91.3058 240.772 90.2838C240.772 89.4438 241.276 88.7578 241.976 88.2678C243.376 88.8418 244.51 89.2478 244.51 90.4378C244.51 91.4038 243.796 92.0198 242.732 92.0198ZM252.047 89.0378C252.747 89.0378 253.489 88.6038 254.133 87.5678L253.251 86.9098C252.901 87.5678 252.523 87.8618 252.075 87.8618C251.193 87.8618 250.563 86.5738 249.303 86.5738C248.589 86.5738 247.847 86.9938 247.217 88.0578L248.085 88.6878C248.435 88.0438 248.827 87.7498 249.275 87.7498C250.157 87.7498 250.787 89.0378 252.047 89.0378ZM258.421 93.1818C260.311 93.1818 261.865 92.1178 261.865 90.3118C261.865 88.9538 260.927 88.0858 259.737 87.7918V87.7218C260.829 87.3158 261.515 86.5458 261.515 85.3838C261.515 83.7318 260.213 82.7798 258.365 82.7798C257.175 82.7798 256.223 83.2978 255.411 84.0398L256.251 85.0478C256.839 84.4598 257.511 84.0678 258.309 84.0678C259.289 84.0678 259.891 84.6138 259.891 85.5098C259.891 86.4758 259.219 87.2178 257.189 87.2178V88.4078C259.513 88.4078 260.241 89.1218 260.241 90.2278C260.241 91.2358 259.443 91.8658 258.281 91.8658C257.217 91.8658 256.447 91.3478 255.845 90.7318L255.061 91.7678C255.747 92.5378 256.797 93.1818 258.421 93.1818ZM266.643 93.1818C268.701 93.1818 269.975 91.3198 269.975 87.9458C269.975 84.5858 268.701 82.7798 266.643 82.7798C264.599 82.7798 263.311 84.5718 263.311 87.9458C263.311 91.3198 264.599 93.1818 266.643 93.1818ZM266.643 91.9078C265.593 91.9078 264.851 90.8298 264.851 87.9458C264.851 85.0618 265.593 84.0538 266.643 84.0538C267.693 84.0538 268.435 85.0618 268.435 87.9458C268.435 90.8298 267.693 91.9078 266.643 91.9078ZM275 92.9998H276.61V87.5398C277.24 86.8398 277.814 86.4898 278.332 86.4898C279.214 86.4898 279.62 87.0218 279.62 88.3518V92.9998H281.23V87.5398C281.874 86.8398 282.434 86.4898 282.966 86.4898C283.834 86.4898 284.254 87.0218 284.254 88.3518V92.9998H285.864V88.1558C285.864 86.1958 285.108 85.1038 283.498 85.1038C282.532 85.1038 281.748 85.7058 280.992 86.5178C280.656 85.6358 280.012 85.1038 278.864 85.1038C277.912 85.1038 277.142 85.6778 276.484 86.3778H276.442L276.316 85.2998H275V92.9998ZM291.778 93.1818C293.514 93.1818 295.096 91.6698 295.096 89.0238C295.096 86.6578 293.99 85.1038 292.044 85.1038C291.232 85.1038 290.406 85.5378 289.748 86.1118L289.804 84.7958V81.8418H288.194V92.9998H289.454L289.608 92.2018H289.65C290.308 92.8178 291.078 93.1818 291.778 93.1818ZM291.47 91.8518C290.994 91.8518 290.392 91.6698 289.804 91.1518V87.3858C290.434 86.7558 291.022 86.4478 291.624 86.4478C292.912 86.4478 293.43 87.4418 293.43 89.0518C293.43 90.8578 292.59 91.8518 291.47 91.8518ZM296.998 96.1218H298.608V93.6298L298.552 92.3138C299.21 92.8738 299.896 93.1818 300.582 93.1818C302.318 93.1818 303.9 91.6698 303.9 89.0238C303.9 86.6578 302.808 85.1038 300.862 85.1038C299.994 85.1038 299.154 85.5798 298.482 86.1398H298.44L298.314 85.2998H296.998V96.1218ZM300.274 91.8518C299.798 91.8518 299.21 91.6698 298.608 91.1518V87.3858C299.252 86.7558 299.826 86.4478 300.428 86.4478C301.716 86.4478 302.234 87.4418 302.234 89.0518C302.234 90.8578 301.394 91.8518 300.274 91.8518ZM307.862 93.1818C309.766 93.1818 310.788 92.1318 310.788 90.8438C310.788 89.3878 309.598 88.9118 308.52 88.5058C307.68 88.1978 306.924 87.9458 306.924 87.2878C306.924 86.7558 307.316 86.3358 308.17 86.3358C308.8 86.3358 309.346 86.6158 309.878 87.0078L310.634 86.0138C310.018 85.5238 309.164 85.1038 308.142 85.1038C306.434 85.1038 305.398 86.0698 305.398 87.3578C305.398 88.6598 306.532 89.2058 307.568 89.5978C308.394 89.9198 309.262 90.2278 309.262 90.9278C309.262 91.5158 308.828 91.9638 307.904 91.9638C307.078 91.9638 306.406 91.6138 305.72 91.0818L304.964 92.1178C305.72 92.7338 306.798 93.1818 307.862 93.1818Z" fill="#B0B0B0"/>
<path d="M4.09369 12.9999H6.57169L9.73569 2.6259H7.63569L6.29169 7.6799C5.96969 8.8279 5.74569 9.8639 5.40969 11.0259H5.33969C5.01769 9.8639 4.79369 8.8279 4.47169 7.6799L3.09969 2.6259H0.929688L4.09369 12.9999ZM10.928 12.9999H13.882C16.934 12.9999 18.894 11.2639 18.894 7.7779C18.894 4.2779 16.934 2.6259 13.77 2.6259H10.928V12.9999ZM13 11.3339V4.2919H13.644C15.576 4.2919 16.78 5.2439 16.78 7.7779C16.78 10.2979 15.576 11.3339 13.644 11.3339H13ZM20.9221 12.9999H22.9941V2.6259H20.9221V12.9999ZM30.3531 2.5419H28.5471V11.1239H29.4431C31.0671 11.1239 32.4671 11.0679 34.0071 10.7459L33.7831 9.2059C32.5931 9.4299 31.5151 9.5139 30.3531 9.5419V2.5419ZM34.6511 5.3699H32.1171V6.8679H34.6511V13.6299H36.3731V1.5199H34.6511V5.3699ZM37.3811 1.2959V14.1899H39.1311V1.2959H37.3811ZM51.352 7.9599H44.17V6.5179H50.96V5.0899H44.17V3.7319H51.254V2.2479H42.294V9.4159H51.352V7.9599ZM40.922 11.2219V12.7199H52.598V11.2219H40.922ZM57.9309 3.2419C58.8409 3.2419 59.4569 3.7039 59.4569 4.4879C59.4569 5.2859 58.8409 5.7339 57.9309 5.7339C57.0209 5.7339 56.3769 5.2859 56.3769 4.4879C56.3769 3.7039 57.0209 3.2419 57.9309 3.2419ZM57.9309 7.1339C59.8209 7.1339 61.1929 6.0559 61.1929 4.4879C61.1929 2.9339 59.8209 1.8419 57.9309 1.8419C56.0269 1.8419 54.6549 2.9339 54.6549 4.4879C54.6549 6.0559 56.0269 7.1339 57.9309 7.1339ZM62.0469 7.4699C59.3029 7.8479 56.1529 7.8619 53.7589 7.8619L53.9689 9.3599C54.8649 9.3599 55.8729 9.3599 56.9229 9.3179V13.8259H58.7709V9.2199C59.8909 9.1359 61.0249 9.0239 62.1589 8.8139L62.0469 7.4699ZM62.8729 1.3099V9.9759H60.2829V11.3759H62.8729V14.1899H64.7209V1.3099H62.8729ZM67.6318 6.2379L67.8558 7.7359L75.2198 7.3579C75.1358 8.2259 74.9958 9.1639 74.7438 10.2139L76.5638 10.3959C77.1658 7.5959 77.1658 5.8179 77.1658 3.9419V2.4439H67.9958V3.9139H75.3458V3.9419C75.3458 4.5999 75.3458 5.2719 75.3178 5.9859L67.6318 6.2379ZM66.6938 11.1659V12.6779H78.3418V11.1659H66.6938ZM93.9126 7.9599H86.7306V6.5179H93.5206V5.0899H86.7306V3.7319H93.8146V2.2479H84.8546V9.4159H93.9126V7.9599ZM83.4826 11.2219V12.7199H95.1586V11.2219H83.4826ZM98.5035 7.5539H101.57V2.5559H96.6975V4.0399H99.7915V6.0979H96.7115V11.3479H97.6215C99.1755 11.3479 100.576 11.3059 102.228 11.0399L102.088 9.5419C100.8 9.7379 99.6795 9.8079 98.5035 9.8359V7.5539ZM105.672 1.2959V6.1679H104.51V1.5339H102.788V13.5879H104.51V7.6519H105.672V14.1899H107.422V1.2959H105.672ZM112.587 3.7179H113.945V7.1479C113.497 7.1619 113.035 7.1759 112.587 7.1899V3.7179ZM117.221 6.9099C116.731 6.9519 116.241 6.9939 115.723 7.0359V3.7179H116.731V2.2339H109.787V3.7179H110.809V7.2179C110.333 7.2179 109.885 7.2179 109.465 7.2179L109.661 8.7299C111.873 8.7299 114.785 8.6739 117.347 8.2539L117.221 6.9099ZM111.159 11.1939H118.089V14.2179H119.951V9.7239H111.159V11.1939ZM118.089 1.3099V9.1919H119.951V1.3099H118.089ZM125.291 12.9999H132.235V11.2639H129.967C129.477 11.2639 128.791 11.3199 128.273 11.3759C130.121 9.4439 131.745 7.6239 131.745 5.8599C131.745 3.9559 130.443 2.7099 128.483 2.7099C127.069 2.7099 126.145 3.2699 125.193 4.2919L126.313 5.4119C126.845 4.8379 127.461 4.3339 128.217 4.3339C129.211 4.3339 129.771 4.9499 129.771 5.9719C129.771 7.4699 127.993 9.2339 125.291 11.8099V12.9999ZM138.422 9.1079C139.178 9.1079 139.976 8.6739 140.69 7.5399L139.612 6.7139C139.276 7.3299 138.898 7.6379 138.45 7.6379C137.582 7.6379 136.994 6.4059 135.706 6.4059C134.936 6.4059 134.152 6.8399 133.424 7.9879L134.502 8.7999C134.838 8.1839 135.23 7.8759 135.664 7.8759C136.546 7.8759 137.134 9.1079 138.422 9.1079ZM145.014 13.1959C146.988 13.1959 148.654 12.1179 148.654 10.2699C148.654 8.9399 147.758 8.0859 146.596 7.7779V7.7079C147.674 7.2739 148.318 6.5179 148.318 5.4259C148.318 3.6899 146.96 2.7099 144.958 2.7099C143.74 2.7099 142.746 3.2139 141.85 3.9979L142.9 5.2579C143.516 4.6839 144.118 4.3339 144.86 4.3339C145.742 4.3339 146.246 4.7959 146.246 5.5799C146.246 6.4479 145.63 7.0779 143.726 7.0779V8.5619C145.98 8.5619 146.582 9.1639 146.582 10.1439C146.582 11.0119 145.868 11.5159 144.818 11.5159C143.88 11.5159 143.124 11.0539 142.508 10.4519L141.542 11.7539C142.27 12.5799 143.376 13.1959 145.014 13.1959ZM153.7 12.9999H155.758V7.6099C156.304 7.0219 156.808 6.7279 157.256 6.7279C157.998 6.7279 158.362 7.1479 158.362 8.3659V12.9999H160.406V7.6099C160.966 7.0219 161.47 6.7279 161.918 6.7279C162.66 6.7279 163.01 7.1479 163.01 8.3659V12.9999H165.068V8.1139C165.068 6.1399 164.298 4.9639 162.632 4.9639C161.61 4.9639 160.854 5.5799 160.14 6.3359C159.762 5.4679 159.104 4.9639 157.984 4.9639C156.962 4.9639 156.234 5.5239 155.576 6.2099H155.534L155.38 5.1599H153.7V12.9999ZM171.128 13.1959C172.85 13.1959 174.46 11.6419 174.46 8.9399C174.46 6.5459 173.298 4.9639 171.366 4.9639C170.596 4.9639 169.812 5.3419 169.196 5.9019L169.252 4.6419V1.8279H167.194V12.9999H168.804L168.986 12.1739H169.042C169.672 12.8319 170.428 13.1959 171.128 13.1959ZM170.666 11.5019C170.246 11.5019 169.742 11.3479 169.252 10.9139V7.4699C169.784 6.9239 170.26 6.6579 170.792 6.6579C171.87 6.6579 172.346 7.4839 172.346 8.9819C172.346 10.6899 171.618 11.5019 170.666 11.5019ZM176.204 16.0099H178.262V13.6299L178.192 12.3419C178.794 12.8879 179.452 13.1959 180.138 13.1959C181.86 13.1959 183.47 11.6419 183.47 8.9539C183.47 6.5459 182.322 4.9639 180.39 4.9639C179.55 4.9639 178.738 5.4119 178.08 5.9719H178.038L177.884 5.1599H176.204V16.0099ZM179.676 11.5019C179.256 11.5019 178.752 11.3479 178.262 10.9139V7.4699C178.794 6.9239 179.27 6.6579 179.802 6.6579C180.88 6.6579 181.356 7.4839 181.356 8.9819C181.356 10.6899 180.628 11.5019 179.676 11.5019ZM187.385 13.1959C189.429 13.1959 190.507 12.0899 190.507 10.7179C190.507 9.2619 189.359 8.7439 188.323 8.3519C187.497 8.0439 186.769 7.8339 186.769 7.2599C186.769 6.8119 187.105 6.5039 187.819 6.5039C188.393 6.5039 188.939 6.7699 189.499 7.1759L190.423 5.9299C189.779 5.4399 188.897 4.9639 187.763 4.9639C185.971 4.9639 184.837 5.9579 184.837 7.3579C184.837 8.6739 185.943 9.2759 186.937 9.6539C187.763 9.9759 188.575 10.2419 188.575 10.8299C188.575 11.3199 188.225 11.6559 187.441 11.6559C186.713 11.6559 186.041 11.3479 185.341 10.8019L184.403 12.0899C185.187 12.7339 186.335 13.1959 187.385 13.1959Z" fill="#007DF1"/>
</svg>
