<svg width="224" height="33" viewBox="0 0 224 33" fill="none" xmlns="http://www.w3.org/2000/svg">
<path d="M76.17 11.7498H72V9.25977H83.35V11.7498H79.14V24.1198H76.17V11.7498Z" fill="white"/>
<path d="M84.5303 12.8904H86.9403L87.1603 14.3904H87.2203C88.1603 13.4104 89.2103 12.6104 90.6703 12.6104C92.2703 12.6104 93.2203 13.3304 93.7603 14.5804C94.7803 13.5004 95.8703 12.6104 97.3303 12.6104C99.7203 12.6104 100.82 14.2904 100.82 17.1204V24.1204H97.8703V17.4804C97.8703 15.7404 97.3703 15.1304 96.3103 15.1304C95.6703 15.1304 94.9503 15.5504 94.1403 16.3904V24.1104H91.2103V17.4704C91.2103 15.7304 90.6903 15.1204 89.6303 15.1204C88.9903 15.1204 88.2703 15.5404 87.4803 16.3804V24.1004H84.5303V12.8904Z" fill="white"/>
<path d="M103.29 21.0696C103.29 18.6596 105.24 17.3996 109.77 16.9196C109.71 15.8196 109.23 14.9696 107.84 14.9696C106.8 14.9696 105.79 15.4296 104.75 16.0296L103.69 14.0796C105.01 13.2596 106.62 12.5996 108.38 12.5996C111.23 12.5996 112.69 14.2996 112.69 17.5496V24.1096H110.28L110.08 22.9096H110C109.02 23.7496 107.89 24.3896 106.61 24.3896C104.6 24.3896 103.28 22.9696 103.28 21.0596L103.29 21.0696ZM109.77 20.9896V18.7196C107.02 19.0596 106.1 19.8196 106.1 20.8296C106.1 21.7096 106.72 22.0896 107.58 22.0896C108.44 22.0896 109.04 21.6896 109.77 20.9896Z" fill="white"/>
<path d="M117.95 18.2596L114.66 12.8896H117.83L118.95 14.8796C119.27 15.5196 119.61 16.1596 119.95 16.7796H120.03C120.29 16.1596 120.59 15.5196 120.85 14.8796L121.79 12.8896H124.84L121.55 18.5996L125.06 24.1096H121.89L120.65 22.0396C120.29 21.3996 119.93 20.7196 119.57 20.0696H119.47C119.15 20.7096 118.85 21.3696 118.53 22.0396L117.49 24.1096H114.44L117.95 18.2496V18.2596Z" fill="white"/>
<path d="M126.23 16.64C126.23 11.81 128.94 9 132.87 9C136.8 9 139.51 11.83 139.51 16.64C139.51 21.45 136.8 24.4 132.87 24.4C128.94 24.4 126.23 21.45 126.23 16.64ZM136.48 16.64C136.48 13.45 135.08 11.55 132.87 11.55C130.66 11.55 129.26 13.45 129.26 16.64C129.26 19.83 130.66 21.83 132.87 21.83C135.08 21.83 136.48 19.8 136.48 16.64Z" fill="white"/>
<path d="M141.42 22.24L143.13 20.19C144.19 21.17 145.6 21.83 146.9 21.83C148.44 21.83 149.27 21.17 149.27 20.13C149.27 19.03 148.37 18.69 147.04 18.12L145.06 17.28C143.56 16.66 142.05 15.46 142.05 13.29C142.05 10.86 144.18 9 147.18 9C148.9 9 150.63 9.68 151.83 10.9L150.33 12.77C149.39 11.99 148.4 11.55 147.18 11.55C145.88 11.55 145.05 12.13 145.05 13.11C145.05 14.17 146.09 14.55 147.36 15.05L149.3 15.87C151.11 16.61 152.29 17.76 152.29 19.9C152.29 22.33 150.26 24.39 146.84 24.39C144.85 24.39 142.87 23.61 141.42 22.22V22.24Z" fill="white"/>
</svg>
