<svg width="624" height="513" viewBox="0 0 624 513" fill="none" xmlns="http://www.w3.org/2000/svg">
<path d="M535.778 440.905C567.063 394.302 583.727 339.422 583.635 283.292C583.635 126.833 456.802 0 300.347 0C143.892 0 17.059 126.833 17.059 283.292C16.9684 339.741 33.8216 394.918 65.4378 441.683L535.778 440.905Z" fill="#E6EFF2"/>
<path d="M455.691 298.895C446.293 298.881 437.014 301.002 428.555 305.098V273.477C428.555 270.181 427.907 266.918 426.646 263.874C425.385 260.829 423.537 258.063 421.207 255.732C418.877 253.402 416.111 251.554 413.067 250.293C410.022 249.031 406.759 248.382 403.464 248.382H70.9946C64.3392 248.382 57.9564 251.026 53.2503 255.732C48.5442 260.438 45.9004 266.821 45.9004 273.477V313.962C34.6117 304.219 20.1924 298.867 5.28076 298.884C3.88022 298.884 2.53704 299.44 1.5467 300.431C0.556366 301.421 0 302.764 0 304.165L18.4087 438.958H67.5973V416.719C67.5973 412.761 69.1695 408.965 71.9682 406.166C74.7669 403.368 78.5628 401.796 82.5207 401.796H378.451C382.409 401.796 386.205 403.368 389.003 406.166C391.802 408.965 393.374 412.761 393.374 416.719V438.958L435.325 438.254L460.961 304.158C460.957 302.762 460.4 301.425 459.412 300.439C458.424 299.453 457.087 298.897 455.691 298.895Z" fill="#BBE0F8"/>
<path d="M393.678 356.469H393.537C393.156 356.431 392.805 356.244 392.562 355.949C392.319 355.653 392.204 355.273 392.241 354.892C393.297 344.304 396.985 334.148 402.97 325.35C408.954 316.551 417.044 309.39 426.503 304.517C426.841 304.359 427.227 304.338 427.58 304.458C427.933 304.578 428.226 304.83 428.397 305.162C428.568 305.493 428.604 305.878 428.498 306.236C428.391 306.593 428.151 306.896 427.827 307.08C418.798 311.729 411.075 318.563 405.361 326.959C399.647 335.355 396.123 345.047 395.11 355.152C395.08 355.511 394.915 355.845 394.65 356.089C394.385 356.333 394.038 356.468 393.678 356.469Z" fill="#72C4F4"/>
<path d="M65.7938 355.916C65.4379 355.916 65.0946 355.785 64.83 355.547C64.5655 355.309 64.3983 354.981 64.3609 354.628C62.7701 339.908 55.8597 326.277 44.9277 316.293C44.7733 316.169 44.646 316.016 44.5536 315.841C44.4613 315.666 44.4059 315.474 44.3909 315.277C44.3759 315.08 44.4016 314.882 44.4665 314.695C44.5313 314.509 44.6339 314.337 44.7678 314.192C44.9018 314.047 45.0642 313.931 45.245 313.851C45.4258 313.771 45.621 313.729 45.8187 313.728C46.0163 313.727 46.212 313.767 46.3937 313.844C46.5753 313.922 46.739 314.037 46.8746 314.18C58.325 324.639 65.5634 338.918 67.2301 354.335C67.2706 354.716 67.1583 355.097 66.918 355.394C66.6777 355.692 66.3291 355.882 65.9487 355.923C65.8969 355.924 65.8452 355.922 65.7938 355.916Z" fill="#72C4F4"/>
<path d="M67.5971 370.368C67.3763 370.367 67.1586 370.316 66.9599 370.22C66.7902 370.136 66.6386 370.02 66.5138 369.878C66.389 369.736 66.2935 369.57 66.2326 369.391C66.1718 369.212 66.1469 369.023 66.1594 368.834C66.1718 368.645 66.2213 368.46 66.3051 368.291C68.9259 362.964 72.9866 358.479 78.0267 355.343C83.0669 352.207 88.885 350.545 94.8212 350.547H366.168C371.964 350.539 377.651 352.119 382.61 355.118C387.57 358.117 391.612 362.419 394.297 367.555L394.649 368.259C394.748 368.427 394.812 368.614 394.837 368.808C394.862 369.002 394.847 369.199 394.794 369.387C394.74 369.575 394.649 369.75 394.526 369.902C394.403 370.054 394.25 370.179 394.077 370.27C393.904 370.361 393.714 370.416 393.519 370.431C393.324 370.447 393.128 370.422 392.943 370.36C392.758 370.297 392.587 370.197 392.442 370.067C392.296 369.936 392.179 369.778 392.096 369.6L391.744 368.896C389.303 364.226 385.628 360.315 381.118 357.589C376.608 354.863 371.437 353.426 366.168 353.434H94.8071C89.4079 353.413 84.1121 354.914 79.5281 357.767C74.9441 360.62 71.2578 364.708 68.8927 369.562C68.7736 369.804 68.5891 370.008 68.3601 370.15C68.1311 370.292 67.8668 370.368 67.5971 370.368Z" fill="#72C4F4"/>
<rect x="394.848" y="152.726" width="69" height="69" rx="4" fill="#C3D6E2"/>
<rect x="398.848" y="156.726" width="61" height="61" fill="url(#paint0_linear_1127_39904)"/>
<mask id="mask0_1127_39904" style="mask-type:alpha" maskUnits="userSpaceOnUse" x="398" y="156" width="62" height="62">
<rect x="398.848" y="156.726" width="61" height="61" fill="url(#paint1_linear_1127_39904)"/>
</mask>
<g mask="url(#mask0_1127_39904)">
<path d="M417.3 197.621L395.848 217.642V219.726H459.848V187.434C459.848 185.669 457.729 184.769 456.459 185.994L433.193 208.433C432.397 209.201 431.128 209.177 430.362 208.379L420.108 197.698C419.35 196.909 418.1 196.875 417.3 197.621Z" fill="#D3EFED"/>
</g>
<path d="M429.59 180.086H411.585C410.76 180.071 409.971 179.744 409.379 179.169C408.786 178.595 408.434 177.817 408.394 176.993C408.354 176.168 408.629 175.36 409.164 174.731C409.698 174.102 410.451 173.699 411.271 173.605C411.424 172.349 412.028 171.191 412.972 170.348C413.916 169.505 415.134 169.035 416.4 169.024C416.636 167.703 417.309 166.5 418.312 165.609C419.315 164.717 420.588 164.189 421.927 164.108C423.266 164.028 424.594 164.4 425.696 165.166C426.798 165.931 427.61 167.045 428.003 168.328C428.52 168.185 429.054 168.113 429.59 168.114C431.156 168.147 432.646 168.792 433.742 169.911C434.837 171.03 435.45 172.534 435.45 174.1C435.45 175.666 434.837 177.169 433.742 178.288C432.646 179.407 431.156 180.052 429.59 180.086Z" fill="#A5DBFF" fill-opacity="0.39"/>
<path d="M572.527 319.217C572.527 319.217 558.735 233.756 545.213 231.32C531.69 228.885 556.842 319.217 556.842 319.217H572.527Z" fill="#B3E0DC"/>
<path fill-rule="evenodd" clip-rule="evenodd" d="M563.928 317.051C563.854 317.052 563.781 317.028 563.723 316.981C563.665 316.935 563.626 316.87 563.611 316.797L561.318 306.931L552.841 298.083C552.782 298.021 552.749 297.938 552.751 297.853C552.753 297.767 552.789 297.686 552.85 297.626C552.912 297.567 552.995 297.535 553.081 297.537C553.166 297.538 553.248 297.574 553.307 297.636L561.029 305.691L557.909 292.265C557.901 292.243 557.896 292.22 557.893 292.196L553.986 275.385L545.493 264.286C545.44 264.218 545.417 264.131 545.429 264.045C545.44 263.96 545.485 263.882 545.553 263.83C545.622 263.777 545.708 263.754 545.794 263.765C545.88 263.776 545.957 263.821 546.01 263.89L553.629 273.85L551.008 262.571C550.994 262.54 550.986 262.506 550.983 262.472L550.982 262.463L545.436 238.599C545.426 238.557 545.424 238.514 545.431 238.471C545.438 238.429 545.453 238.389 545.476 238.352C545.498 238.316 545.528 238.285 545.563 238.26C545.597 238.235 545.637 238.217 545.678 238.207C545.72 238.197 545.763 238.196 545.805 238.203C545.848 238.209 545.888 238.225 545.924 238.247C545.961 238.27 545.992 238.299 546.017 238.334C546.042 238.369 546.06 238.408 546.07 238.449L551.355 261.188L554.531 250.884C554.557 250.802 554.613 250.734 554.689 250.693C554.765 250.653 554.854 250.645 554.936 250.67C555.018 250.695 555.086 250.752 555.127 250.828C555.167 250.904 555.175 250.993 555.15 251.075L551.647 262.44L558.285 290.998L563.62 276.017C563.649 275.936 563.71 275.87 563.787 275.833C563.865 275.796 563.955 275.791 564.036 275.82C564.117 275.849 564.183 275.91 564.22 275.987C564.257 276.065 564.262 276.155 564.233 276.236L558.557 292.17L561.921 306.638C561.933 306.662 561.942 306.688 561.948 306.715C561.953 306.739 561.956 306.764 561.955 306.788L564.248 316.651C564.259 316.693 564.261 316.736 564.255 316.778C564.248 316.821 564.234 316.861 564.211 316.898C564.188 316.934 564.159 316.966 564.124 316.99C564.089 317.015 564.049 317.032 564.007 317.041L563.928 317.051Z" fill="#8BD0CA"/>
<path d="M581.046 318.871C581.046 318.871 579.41 202.417 598.616 193.426C617.821 184.435 596.164 318.871 596.164 318.871H581.046Z" fill="#B3E0DC"/>
<path fill-rule="evenodd" clip-rule="evenodd" d="M588.059 319.198H588.027C587.984 319.195 587.942 319.183 587.904 319.163C587.866 319.143 587.832 319.116 587.805 319.083C587.778 319.049 587.757 319.011 587.746 318.97C587.734 318.928 587.73 318.885 587.735 318.842L588.591 310.171C588.589 310.14 588.592 310.108 588.6 310.078L589.8 297.911L584.478 280.266C584.454 280.182 584.463 280.092 584.505 280.015C584.547 279.938 584.618 279.881 584.702 279.856C584.786 279.831 584.877 279.841 584.954 279.883C585.031 279.924 585.088 279.995 585.113 280.079L589.97 296.185L591.585 279.81C591.584 279.779 591.587 279.749 591.594 279.719L593.455 260.845L587.738 241.567C587.713 241.483 587.723 241.392 587.765 241.315C587.807 241.238 587.878 241.181 587.962 241.156C588.046 241.131 588.136 241.141 588.213 241.183C588.29 241.225 588.348 241.296 588.372 241.38L593.627 259.109L596.367 231.326L591.306 215.051C591.292 215.01 591.287 214.967 591.291 214.924C591.294 214.882 591.306 214.84 591.327 214.802C591.347 214.764 591.375 214.731 591.408 214.704C591.442 214.677 591.48 214.657 591.522 214.645C591.562 214.632 591.605 214.626 591.648 214.63C591.69 214.633 591.732 214.645 591.77 214.665C591.808 214.685 591.841 214.712 591.868 214.745C591.896 214.778 591.916 214.817 591.927 214.858L596.531 229.663L598.86 206.045C598.863 206.002 598.875 205.96 598.895 205.922C598.915 205.884 598.942 205.85 598.975 205.823C599.009 205.795 599.047 205.775 599.088 205.763C599.13 205.751 599.173 205.748 599.216 205.753C599.258 205.756 599.3 205.768 599.338 205.788C599.377 205.807 599.41 205.835 599.438 205.868C599.465 205.901 599.485 205.94 599.497 205.981C599.509 206.022 599.513 206.065 599.507 206.108L595.577 245.945L603.839 235.77C603.893 235.703 603.972 235.66 604.058 235.651C604.143 235.642 604.229 235.668 604.296 235.722C604.363 235.776 604.405 235.855 604.414 235.94C604.423 236.026 604.398 236.112 604.343 236.179L595.461 247.117L594.114 260.776C594.115 260.795 594.115 260.814 594.114 260.832C594.112 260.852 594.108 260.871 594.103 260.89L592.35 278.658L600.928 267.074C600.953 267.038 600.984 267.008 601.021 266.986C601.058 266.963 601.099 266.948 601.142 266.942C601.185 266.936 601.228 266.938 601.27 266.949C601.312 266.961 601.351 266.98 601.385 267.007C601.419 267.032 601.449 267.064 601.471 267.1C601.494 267.137 601.508 267.177 601.515 267.22C601.521 267.262 601.518 267.305 601.508 267.347C601.497 267.388 601.477 267.427 601.451 267.461L592.226 279.914L590.459 297.821C590.462 297.844 590.463 297.868 590.461 297.892C590.459 297.917 590.453 297.943 590.445 297.967L589.339 309.177L597.785 299.475C597.813 299.442 597.846 299.415 597.884 299.396C597.922 299.376 597.964 299.365 598.007 299.362C598.049 299.359 598.092 299.365 598.133 299.379C598.173 299.393 598.21 299.415 598.242 299.443C598.275 299.471 598.303 299.505 598.322 299.543C598.342 299.582 598.354 299.624 598.357 299.667C598.36 299.71 598.354 299.753 598.34 299.794C598.325 299.834 598.303 299.872 598.274 299.903L589.229 310.292L588.379 318.906C588.373 318.986 588.336 319.061 588.277 319.115C588.217 319.169 588.139 319.199 588.059 319.198Z" fill="#8BD0CA"/>
<path d="M565.703 318.871C566.02 318.871 545.682 155.256 565.703 152.754C585.724 150.251 584.788 318.871 584.788 318.871H565.703Z" fill="#8BD0CA"/>
<path d="M575.554 317.051C575.47 317.051 575.389 317.017 575.33 316.958C575.27 316.898 575.237 316.818 575.237 316.734L566.991 163.524C566.989 163.482 566.995 163.44 567.009 163.401C567.023 163.361 567.044 163.325 567.072 163.294C567.1 163.263 567.133 163.238 567.171 163.22C567.209 163.202 567.249 163.191 567.291 163.189C567.333 163.187 567.374 163.193 567.414 163.206C567.453 163.22 567.489 163.242 567.52 163.269C567.551 163.297 567.577 163.331 567.595 163.369C567.613 163.406 567.623 163.447 567.626 163.489L575.871 316.699C575.875 316.743 575.869 316.786 575.855 316.828C575.84 316.869 575.817 316.907 575.788 316.94C575.758 316.972 575.722 316.997 575.681 317.015C575.641 317.032 575.598 317.041 575.554 317.041V317.051Z" fill="#73B3AD"/>
<path d="M570.087 215.292C570.023 215.294 569.961 215.276 569.908 215.241C569.855 215.207 569.813 215.157 569.789 215.099L559.536 191.815C559.501 191.736 559.499 191.646 559.53 191.566C559.561 191.485 559.623 191.42 559.702 191.385C559.781 191.35 559.871 191.348 559.951 191.379C560.032 191.411 560.097 191.473 560.132 191.552L570.385 214.836C570.403 214.875 570.413 214.917 570.414 214.96C570.416 215.003 570.408 215.046 570.393 215.086C570.377 215.126 570.353 215.162 570.323 215.193C570.293 215.223 570.257 215.248 570.217 215.264C570.176 215.282 570.132 215.292 570.087 215.292Z" fill="#73B3AD"/>
<path d="M571.739 246.054C571.7 246.055 571.661 246.047 571.625 246.032C571.584 246.018 571.547 245.996 571.515 245.967C571.483 245.938 571.457 245.903 571.44 245.864C571.422 245.824 571.412 245.782 571.411 245.739C571.41 245.696 571.418 245.653 571.434 245.613L578.728 226.135C578.743 226.095 578.766 226.059 578.795 226.028C578.824 225.997 578.859 225.972 578.898 225.954C578.937 225.937 578.978 225.927 579.021 225.926C579.063 225.924 579.106 225.931 579.145 225.946C579.185 225.961 579.222 225.984 579.253 226.013C579.284 226.042 579.309 226.077 579.326 226.116C579.344 226.155 579.353 226.196 579.355 226.239C579.356 226.281 579.349 226.324 579.334 226.363L572.04 245.842C572.018 245.904 571.978 245.958 571.924 245.996C571.87 246.034 571.805 246.055 571.739 246.054Z" fill="#73B3AD"/>
<path d="M573.087 271.124C573.025 271.125 572.964 271.108 572.911 271.074C572.859 271.041 572.817 270.993 572.792 270.937L561.841 247.107C561.823 247.068 561.814 247.027 561.812 246.984C561.81 246.941 561.817 246.899 561.832 246.859C561.847 246.819 561.87 246.783 561.899 246.751C561.928 246.72 561.963 246.695 562.001 246.677C562.04 246.66 562.082 246.65 562.124 246.648C562.167 246.647 562.209 246.654 562.249 246.668C562.289 246.683 562.326 246.706 562.357 246.735C562.388 246.764 562.413 246.799 562.431 246.838L573.382 270.664C573.401 270.702 573.412 270.744 573.414 270.787C573.416 270.83 573.41 270.873 573.395 270.913C573.38 270.954 573.357 270.991 573.328 271.022C573.298 271.053 573.262 271.078 573.223 271.095C573.18 271.114 573.134 271.124 573.087 271.124Z" fill="#73B3AD"/>
<path d="M574.641 300.027C574.583 300.03 574.526 300.017 574.476 299.99C574.425 299.963 574.383 299.923 574.353 299.874C574.323 299.825 574.308 299.769 574.307 299.711C574.307 299.654 574.323 299.598 574.352 299.548L582.331 284.456C582.35 284.417 582.377 284.383 582.41 284.355C582.443 284.326 582.481 284.305 582.522 284.293C582.563 284.28 582.607 284.276 582.65 284.28C582.693 284.285 582.734 284.298 582.772 284.319C582.81 284.339 582.845 284.366 582.872 284.399C582.9 284.432 582.921 284.47 582.933 284.511C582.946 284.553 582.95 284.596 582.945 284.639C582.94 284.682 582.927 284.723 582.905 284.76L574.929 299.853C574.902 299.906 574.861 299.951 574.81 299.981C574.759 300.012 574.7 300.028 574.641 300.027Z" fill="#73B3AD"/>
<path d="M575.202 310.48C575.145 310.481 575.088 310.466 575.039 310.438C574.989 310.409 574.948 310.368 574.92 310.318L563.649 290.862C563.628 290.825 563.615 290.785 563.609 290.743C563.604 290.7 563.608 290.658 563.619 290.617C563.63 290.576 563.649 290.538 563.676 290.505C563.702 290.471 563.734 290.444 563.771 290.423C563.808 290.402 563.848 290.389 563.89 290.383C563.932 290.378 563.975 290.381 564.016 290.393C564.057 290.404 564.095 290.423 564.128 290.45C564.161 290.476 564.189 290.508 564.21 290.545L575.484 310.001C575.516 310.05 575.533 310.107 575.535 310.165C575.536 310.223 575.521 310.281 575.492 310.331C575.463 310.382 575.42 310.423 575.369 310.451C575.318 310.479 575.26 310.492 575.202 310.489V310.48Z" fill="#73B3AD"/>
<path d="M549.922 316.724H601.19V378.882C601.19 385.681 598.489 392.201 593.682 397.008C588.874 401.815 582.354 404.516 575.556 404.516C568.757 404.516 562.237 401.815 557.43 397.008C552.623 392.201 549.922 385.681 549.922 378.882V316.724Z" fill="#72C4F4"/>
<path d="M603.847 323.133H547.277C546.428 323.133 545.613 322.796 545.012 322.195C544.412 321.595 544.074 320.78 544.074 319.93C544.074 319.081 544.412 318.266 545.012 317.664C545.613 317.063 546.427 316.725 547.277 316.724H603.857C604.707 316.725 605.521 317.063 606.122 317.664C606.723 318.266 607.06 319.081 607.06 319.93C607.06 320.352 606.977 320.769 606.815 321.158C606.654 321.548 606.417 321.901 606.119 322.199C605.82 322.496 605.466 322.732 605.076 322.892C604.686 323.053 604.269 323.135 603.847 323.133Z" fill="#BBE0F8"/>
<path d="M605.34 378.939V383.671H544.063V378.939H537.914V383.671V390.648V439.36H544.063V390.648H605.34V439.36H611.486V390.648V383.671V378.939H605.34Z" fill="#BBE0F8"/>
<path d="M163.08 440.539C3.74139 440.539 2.68172 440.007 2.15717 439.75C1.95611 439.654 1.79894 439.485 1.71736 439.278C1.63579 439.071 1.63588 438.84 1.71763 438.633C1.79937 438.426 1.95668 438.257 2.15782 438.161C2.35897 438.065 2.58896 438.049 2.80142 438.117C5.81498 438.609 73.37 438.775 162.823 438.775C344.998 438.775 618.056 438.071 622.154 438.071C622.387 438.071 622.611 438.164 622.776 438.329C622.941 438.494 623.034 438.717 623.034 438.951C623.034 439.184 622.941 439.408 622.776 439.573C622.611 439.738 622.387 439.831 622.154 439.831C620.612 439.831 466.283 440.225 313.55 440.419C252.029 440.503 202.657 440.539 163.08 440.539Z" fill="#47AAE3"/>
<path d="M275.903 506.502C369.738 506.502 445.806 491.382 445.806 472.73C445.806 454.078 369.738 438.958 275.903 438.958C182.068 438.958 106 454.078 106 472.73C106 491.382 182.068 506.502 275.903 506.502Z" fill="#BBE0F8"/>
<path d="M307.945 225.4H286.118C261.228 225.4 268.913 237.976 268.913 237.976C264.442 246.46 270.779 258.62 270.779 258.62H301.126C301.126 258.62 307.463 246.46 302.999 237.976C302.921 237.828 302.826 237.705 302.745 237.564C310.491 234.709 307.945 225.4 307.945 225.4Z" fill="black"/>
<path d="M373.409 402.052H186.336V443.805H373.409V402.052Z" fill="#050542"/>
<path d="M346.374 434.363V467.456H201.03C198.086 467.456 195.201 466.629 192.704 465.069C181.438 458.028 152.074 436.159 170.148 408.741C171.872 406.137 174.335 404.107 177.22 402.911C180.105 401.714 183.282 401.407 186.343 402.028L346.374 434.363Z" fill="#050542"/>
<path d="M201.262 500.253L197.062 481.165L230.236 467.502L236.003 493.719L201.262 500.253Z" fill="url(#paint2_linear_1127_39904)"/>
<path d="M229.326 497.272L371.413 466.675C374.29 466.053 376.935 464.636 379.046 462.584C388.551 453.339 412.681 425.77 389.255 402.781C387.022 400.596 384.187 399.126 381.114 398.562C378.041 397.997 374.869 398.363 372.005 399.613L222.352 464.887" fill="#050542"/>
<path d="M222.351 465.608C222.174 465.622 221.999 465.57 221.858 465.462C221.717 465.355 221.621 465.199 221.587 465.025C221.554 464.851 221.585 464.671 221.676 464.519C221.767 464.366 221.911 464.253 222.08 464.2L328.047 421.405C328.225 421.333 328.423 421.335 328.599 421.41C328.775 421.485 328.914 421.627 328.985 421.804C329.057 421.982 329.055 422.18 328.98 422.356C328.905 422.532 328.763 422.671 328.586 422.743L222.619 465.538C222.534 465.578 222.444 465.601 222.351 465.608Z" fill="#343456"/>
<path d="M188.581 509.766C188.695 510.27 188.921 510.743 189.242 511.148C189.563 511.553 189.972 511.881 190.437 512.107C190.902 512.332 191.413 512.451 191.93 512.453C192.447 512.454 192.958 512.34 193.425 512.117C197.404 510.257 200.632 507.098 202.577 503.159C204.522 499.22 205.068 494.737 204.125 490.446C203.183 486.156 200.808 482.314 197.392 479.552C193.975 476.791 189.72 475.275 185.328 475.254C184.81 475.248 184.298 475.358 183.829 475.577C183.36 475.796 182.947 476.117 182.619 476.518C182.292 476.918 182.058 477.387 181.937 477.89C181.815 478.393 181.808 478.917 181.916 479.422L188.581 509.766Z" fill="black"/>
<path d="M295.789 423.651H295.652L197.567 405.066C197.475 405.048 197.387 405.013 197.308 404.961C197.229 404.909 197.162 404.843 197.109 404.765C197.056 404.687 197.019 404.6 196.999 404.508C196.98 404.415 196.979 404.32 196.997 404.228C197.015 404.135 197.05 404.047 197.102 403.969C197.153 403.89 197.22 403.822 197.298 403.769C197.376 403.716 197.463 403.679 197.555 403.66C197.647 403.641 197.742 403.64 197.835 403.658L295.923 422.239C296.113 422.257 296.287 422.349 296.409 422.495C296.53 422.642 296.589 422.831 296.571 423.02C296.553 423.21 296.461 423.385 296.314 423.506C296.168 423.628 295.979 423.686 295.789 423.668V423.651Z" fill="#343456"/>
<path d="M366.11 397.501L367.704 396.98C369.437 396.413 371.041 395.511 372.424 394.325C373.808 393.139 374.945 391.692 375.769 390.067C376.594 388.441 377.09 386.669 377.229 384.852C377.369 383.035 377.149 381.208 376.583 379.476L362.832 336.592L336.129 350.322L348.606 388.604C349.17 390.338 350.071 391.943 351.257 393.329C352.442 394.714 353.889 395.852 355.515 396.679C357.14 397.505 358.912 398.003 360.73 398.144C362.548 398.285 364.376 398.066 366.11 397.501Z" fill="url(#paint3_linear_1127_39904)"/>
<path d="M303.296 417.574L370.711 396.099C371.931 395.711 373.059 395.077 374.027 394.238C374.994 393.399 375.781 392.372 376.338 391.219C376.895 390.066 377.211 388.811 377.267 387.532C377.323 386.252 377.118 384.975 376.664 383.777C373.802 376.194 355.872 374.874 348.289 377.736L298.801 405.668L303.296 417.574Z" fill="url(#paint4_linear_1127_39904)"/>
<path d="M202.417 397.501L200.822 396.98C197.323 395.836 194.422 393.349 192.756 390.067C191.091 386.784 190.797 382.975 191.94 379.476L205.694 336.592L232.398 350.322L219.917 388.604C219.353 390.338 218.452 391.943 217.267 393.328C216.082 394.714 214.636 395.852 213.01 396.678C211.385 397.505 209.613 398.002 207.795 398.143C205.978 398.285 204.15 398.066 202.417 397.501Z" fill="url(#paint5_linear_1127_39904)"/>
<path d="M265.23 417.574L197.815 396.099C196.595 395.711 195.467 395.077 194.499 394.238C193.532 393.399 192.746 392.372 192.189 391.219C191.631 390.066 191.315 388.811 191.259 387.532C191.203 386.252 191.408 384.975 191.862 383.777C194.724 376.194 212.654 374.874 220.238 377.736L269.722 405.668L265.23 417.574Z" fill="url(#paint6_linear_1127_39904)"/>
<path d="M298.383 298.944H272.578L275.644 273.279H295.317L298.383 298.944Z" fill="url(#paint7_linear_1127_39904)"/>
<path d="M366.779 335.789L354.306 311.565C350.263 303.707 344.092 297.145 336.497 292.626C328.903 288.108 320.191 285.817 311.356 286.013C309.746 285.75 308.118 285.613 306.487 285.604H261.625C259.997 285.614 258.371 285.749 256.763 286.009C248.037 285.93 239.459 288.277 231.988 292.787C224.517 297.298 218.445 303.795 214.45 311.554L201.984 335.789L233.317 351.917L236.063 418.521C236.102 419.484 236.513 420.394 237.21 421.06C237.907 421.726 238.834 422.095 239.798 422.091H328.335C329.293 422.086 330.212 421.713 330.901 421.048C331.59 420.383 331.996 419.478 332.035 418.521L334.778 352.251L366.779 335.789Z" fill="#007CF4"/>
<path d="M334.717 352.259H334.692C334.584 352.251 334.483 352.202 334.41 352.121C334.338 352.04 334.3 351.934 334.305 351.826L335.763 324.616C335.776 324.513 335.828 324.418 335.907 324.352C335.987 324.286 336.089 324.252 336.192 324.257C336.296 324.262 336.394 324.306 336.466 324.381C336.539 324.455 336.58 324.554 336.583 324.658L335.125 351.871C335.12 351.976 335.075 352.074 334.999 352.146C334.923 352.219 334.822 352.259 334.717 352.259Z" fill="#1F191A"/>
<path d="M233.195 352.258C233.09 352.259 232.988 352.219 232.912 352.147C232.835 352.075 232.789 351.976 232.783 351.871L231.329 324.658C231.326 324.604 231.333 324.55 231.351 324.499C231.369 324.448 231.396 324.402 231.432 324.362C231.468 324.322 231.512 324.289 231.561 324.266C231.61 324.243 231.662 324.23 231.716 324.228C231.77 324.225 231.823 324.233 231.874 324.251C231.925 324.269 231.971 324.297 232.011 324.333C232.051 324.369 232.084 324.412 232.107 324.461C232.13 324.509 232.143 324.562 232.146 324.615L233.603 351.825C233.608 351.934 233.57 352.04 233.498 352.121C233.425 352.202 233.324 352.251 233.216 352.258H233.195Z" fill="#1F191A"/>
<path d="M299.644 256.31L299.433 256.233C298.733 255.979 298.135 255.503 297.731 254.878C297.327 254.252 297.138 253.511 297.194 252.769L297.448 249.477C297.493 248.887 297.416 248.293 297.222 247.734C297.027 247.174 296.719 246.661 296.317 246.227C295.914 245.792 295.427 245.445 294.884 245.208C294.341 244.97 293.755 244.848 293.163 244.848H277.958C277.381 244.848 276.81 244.964 276.278 245.19C275.747 245.415 275.267 245.746 274.866 246.161C274.465 246.576 274.152 247.068 273.945 247.607C273.739 248.146 273.643 248.721 273.663 249.298L273.804 253.293C273.828 253.965 273.632 254.626 273.246 255.177C272.861 255.728 272.306 256.138 271.667 256.346C271.554 256.346 271.445 256.31 271.315 256.31C270.252 256.31 269.233 256.733 268.482 257.484C267.731 258.235 267.309 259.254 267.309 260.317C267.309 261.379 267.731 262.398 268.482 263.15C269.233 263.901 270.252 264.323 271.315 264.323C271.431 264.323 271.54 264.298 271.667 264.288V264.749C271.667 266.585 272.028 268.404 272.73 270.1C273.432 271.797 274.462 273.338 275.76 274.637C277.059 275.935 278.6 276.965 280.296 277.668C281.993 278.371 283.811 278.733 285.647 278.733C287.483 278.733 289.301 278.371 290.998 277.668C292.694 276.965 294.235 275.935 295.533 274.637C296.832 273.338 297.861 271.797 298.564 270.1C299.266 268.404 299.627 266.585 299.627 264.749V264.323C300.689 264.323 301.708 263.901 302.46 263.15C303.211 262.398 303.633 261.379 303.633 260.317C303.633 259.254 303.211 258.235 302.46 257.484C301.708 256.733 300.689 256.31 299.627 256.31H299.644Z" fill="url(#paint8_linear_1127_39904)"/>
<path d="M329.393 425.446H238.036C237.207 425.446 236.407 425.137 235.795 424.578C235.182 424.019 234.8 423.252 234.723 422.426L227.791 347.604C227.749 347.143 227.803 346.678 227.95 346.239C228.098 345.8 228.335 345.396 228.647 345.054C228.959 344.712 229.339 344.439 229.763 344.251C230.186 344.064 230.645 343.968 231.108 343.968H337.667C338.135 343.967 338.597 344.066 339.025 344.256C339.452 344.447 339.834 344.726 340.147 345.074C340.459 345.423 340.694 345.834 340.837 346.279C340.98 346.725 341.027 347.196 340.976 347.661L332.72 422.482C332.63 423.3 332.24 424.055 331.626 424.603C331.011 425.15 330.216 425.451 329.393 425.446Z" fill="#BBE0F8"/>
<path d="M284.413 393.983C289.537 393.983 293.69 389.83 293.69 384.707C293.69 379.583 289.537 375.43 284.413 375.43C279.29 375.43 275.137 379.583 275.137 384.707C275.137 389.83 279.29 393.983 284.413 393.983Z" fill="#72C4F4"/>
<defs>
<linearGradient id="paint0_linear_1127_39904" x1="429.348" y1="156.726" x2="429.348" y2="217.726" gradientUnits="userSpaceOnUse">
<stop stop-color="#D7EFFF"/>
<stop offset="1" stop-color="white"/>
</linearGradient>
<linearGradient id="paint1_linear_1127_39904" x1="429.348" y1="156.726" x2="429.348" y2="217.726" gradientUnits="userSpaceOnUse">
<stop stop-color="#D7EFFF"/>
<stop offset="1" stop-color="white"/>
</linearGradient>
<linearGradient id="paint2_linear_1127_39904" x1="155.291" y1="493.159" x2="227.66" y2="479.099" gradientUnits="userSpaceOnUse">
<stop offset="0.3" stop-color="#FFACAA"/>
<stop offset="0.54" stop-color="#FFAAA7"/>
<stop offset="0.69" stop-color="#FEA19F"/>
<stop offset="0.81" stop-color="#FD9491"/>
<stop offset="0.92" stop-color="#FC807D"/>
<stop offset="1" stop-color="#FB6B67"/>
</linearGradient>
<linearGradient id="paint3_linear_1127_39904" x1="375.692" y1="404.538" x2="344.289" y2="338.828" gradientUnits="userSpaceOnUse">
<stop offset="0.08" stop-color="#FFACAA"/>
<stop offset="0.17" stop-color="#FE9D9A"/>
<stop offset="0.34" stop-color="#FD8784"/>
<stop offset="0.52" stop-color="#FC7774"/>
<stop offset="0.73" stop-color="#FB6E6A"/>
<stop offset="1" stop-color="#FB6B67"/>
</linearGradient>
<linearGradient id="paint4_linear_1127_39904" x1="293.999" y1="407.319" x2="381.913" y2="380.549" gradientUnits="userSpaceOnUse">
<stop offset="0.46" stop-color="#FFACAA"/>
<stop offset="0.58" stop-color="#FFA7A5"/>
<stop offset="0.73" stop-color="#FE9996"/>
<stop offset="0.89" stop-color="#FC817D"/>
<stop offset="1" stop-color="#FB6B67"/>
</linearGradient>
<linearGradient id="paint5_linear_1127_39904" x1="192.834" y1="404.538" x2="224.237" y2="338.828" gradientUnits="userSpaceOnUse">
<stop offset="0.08" stop-color="#FFACAA"/>
<stop offset="0.17" stop-color="#FE9D9A"/>
<stop offset="0.34" stop-color="#FD8784"/>
<stop offset="0.52" stop-color="#FC7774"/>
<stop offset="0.73" stop-color="#FB6E6A"/>
<stop offset="1" stop-color="#FB6B67"/>
</linearGradient>
<linearGradient id="paint6_linear_1127_39904" x1="274.527" y1="407.319" x2="186.613" y2="380.549" gradientUnits="userSpaceOnUse">
<stop offset="0.46" stop-color="#FFACAA"/>
<stop offset="0.58" stop-color="#FFA7A5"/>
<stop offset="0.73" stop-color="#FE9996"/>
<stop offset="0.89" stop-color="#FC817D"/>
<stop offset="1" stop-color="#FB6B67"/>
</linearGradient>
<linearGradient id="paint7_linear_1127_39904" x1="285.481" y1="304.911" x2="285.481" y2="273.11" gradientUnits="userSpaceOnUse">
<stop offset="0.51" stop-color="#FFACAA"/>
<stop offset="0.86" stop-color="#FB6B67"/>
</linearGradient>
<linearGradient id="paint8_linear_1127_39904" x1="285.267" y1="287.256" x2="285.576" y2="247.636" gradientUnits="userSpaceOnUse">
<stop stop-color="#FFACAA"/>
<stop offset="0.23" stop-color="#FFA7A5"/>
<stop offset="0.49" stop-color="#FE9A97"/>
<stop offset="0.77" stop-color="#FC8380"/>
<stop offset="1" stop-color="#FB6B67"/>
</linearGradient>
</defs>
</svg>
